<svg xmlns="http://www.w3.org/2000/svg" xmlns:xlink="http://www.w3.org/1999/xlink" viewBox="0 0 150 150"><defs><linearGradient id="linear-gradient" x1="64.65" y1="-34.22" x2="72.66" y2="372.91" gradientUnits="userSpaceOnUse"><stop offset="0" stop-color="#606060"/><stop offset="1"/></linearGradient><linearGradient id="linear-gradient-2" x1="64.64" y1="-34.22" x2="72.66" y2="372.91" xlink:href="#linear-gradient"/><linearGradient id="linear-gradient-3" x1="119.45" y1="-35.3" x2="127.46" y2="371.84" xlink:href="#linear-gradient"/><linearGradient id="linear-gradient-4" x1="117.24" y1="-35.25" x2="125.25" y2="371.88" xlink:href="#linear-gradient"/><linearGradient id="linear-gradient-5" x1="126.22" y1="-35.43" x2="134.24" y2="371.7" xlink:href="#linear-gradient"/><linearGradient id="linear-gradient-6" x1="119.45" y1="-35.3" x2="127.46" y2="371.84" xlink:href="#linear-gradient"/></defs><title>CASINO</title><g id="Layer_2" data-name="Layer 2"><g id="Capa_1" data-name="Capa 1"><path d="M66.63,0A66.64,66.64,0,1,0,91.11,128.61a32.57,32.57,0,0,1-.57-6.05,32,32,0,0,1,38.07-31.44A66.64,66.64,0,0,0,66.63,0ZM61.27,5.19H71.61V15.53H61.27ZM26.84,19.53l7.31,7.31-7.31,7.31-7.31-7.31ZM15.33,71.81H5V61.47H15.33Zm11.51,41.93-7.31-7.31,7.31-7.31,7.31,7.31Zm44.77,14.34H61.27V117.75H71.61Zm-5-14.91a46.54,46.54,0,1,1,46.54-46.53A46.58,46.58,0,0,1,66.63,113.17Zm39.8-79-7.31-7.31,7.31-7.31,7.31,7.31Zm21.46,37.66H117.55V61.47h10.34Z" style="fill:url(#linear-gradient)"/><path d="M66.63,28.71a37.93,37.93,0,1,0,37.92,37.93A38,38,0,0,0,66.63,28.71Zm9,55a9.48,9.48,0,0,1-7.81-3.6l2.2,7.8H63.13l2.16-7.62a9.58,9.58,0,0,1-7.67,3.57c-6.1,0-11.49-4.16-11.49-11.76a15.52,15.52,0,0,1,2.35-8.65c2.79-4.54,18.19-17.6,18.19-17.6S82,58.88,84.77,63.42A15.3,15.3,0,0,1,87.13,72C87.13,79.59,81.77,83.68,75.67,83.68Z" style="fill:url(#linear-gradient-2)"/><path d="M122.55,95.11A27.45,27.45,0,1,0,150,122.56,27.48,27.48,0,0,0,122.55,95.11Zm-2.2,2.14h4.25v4.26h-4.25Zm21.37,25.31a19.17,19.17,0,1,1-19.17-19.17A19.19,19.19,0,0,1,141.72,122.56Zm-35.56-19.4,3,3-3,3-3-3Zm-4.74,21.53H97.17v-4.26h4.25ZM106.16,142l-3-3,3-3,3,3Zm18.44,5.91h-4.25v-4.26h4.25ZM138.94,142l-3-3,3-3,3,3Zm0-32.78-3-3,3-3,3,3Zm4.59,15.51v-4.26h4.25v4.26Z" style="fill:url(#linear-gradient-3)"/><rect x="118.93" y="117.12" width="2.84" height="10.88" style="fill:url(#linear-gradient-4)"/><rect x="127.91" y="117.12" width="2.84" height="10.88" style="fill:url(#linear-gradient-5)"/><path d="M106.93,122.56a15.62,15.62,0,1,0,15.62-15.62A15.64,15.64,0,0,0,106.93,122.56Zm8,7.33h-2.13V119.48h-.71v-.21l1.17-4h1.67Zm10.88-13.28a1.24,1.24,0,0,1,1.38-1.38h4.51c.88,0,1.2.48,1.2,1.38v11.91c0,.89-.32,1.37-1.2,1.37h-4.54a1.22,1.22,0,0,1-1.35-1.37V116.61Zm-1.9,0v11.91c0,.89-.24,1.37-1.11,1.37h-4.55a1.29,1.29,0,0,1-1.43-1.37V116.61a1.3,1.3,0,0,1,1.46-1.38h4.52C123.65,115.23,123.89,115.71,123.89,116.61Z" style="fill:url(#linear-gradient-6)"/></g></g></svg>