<svg xmlns="http://www.w3.org/2000/svg" xmlns:xlink="http://www.w3.org/1999/xlink" viewBox="0 0 150 150"><defs><linearGradient id="linear-gradient" x1="66.63" y1="166" x2="66.63" y2="52.42" gradientUnits="userSpaceOnUse"><stop offset="0" stop-color="#1a7b5e"/><stop offset="1" stop-color="#1aaf5e"/></linearGradient><linearGradient id="linear-gradient-2" x1="89.45" y1="166" x2="89.45" y2="52.42" xlink:href="#linear-gradient"/><linearGradient id="linear-gradient-3" x1="122.56" y1="166" x2="122.56" y2="52.42" xlink:href="#linear-gradient"/></defs><title>FISHING</title><g id="Layer_2" data-name="Layer 2"><g id="Capa_1" data-name="Capa 1"><path d="M66.63,0a66.64,66.64,0,1,0,25,128.41,31.49,31.49,0,0,1,36.8-36.8A66.63,66.63,0,0,0,66.63,0Zm9.15,92.43a38.28,38.28,0,0,1-14.12-2.84,28.47,28.47,0,0,1-5-1.86,42.38,42.38,0,0,1-12.3-9.37S23.39,99,23.39,92.66c0-7.17,6.31-20.85,6.31-20.85a7.91,7.91,0,0,0,0-4.67s-6.31-14-6.31-20.86c0-6,18.62,12,20.74,14.11a55.54,55.54,0,0,1,14-10.07c-.54-2.5-1.29-5.93-1.61-7.51A2.49,2.49,0,0,1,59,39.49a35.4,35.4,0,0,1,9.83.67,36.75,36.75,0,0,1,15,6.7c16.14,4,26,18.9,26,22.28C109.88,73.36,96.68,92.43,75.78,92.43Z" style="fill:url(#linear-gradient)"/><circle cx="89.45" cy="62.78" r="6.66" style="fill:url(#linear-gradient-2)"/><path d="M142,103.15a27.44,27.44,0,1,0,8,19.41,27.26,27.26,0,0,0-8-19.41Zm-2.27,36.54a24.25,24.25,0,1,1,7.09-17.13A24.09,24.09,0,0,1,139.69,139.69Z" style="fill:url(#linear-gradient-3)"/><path d="M122.56,114.41a8.15,8.15,0,1,0,8.14,8.15A8.15,8.15,0,0,0,122.56,114.41Zm0,13.08a4.94,4.94,0,1,1,4.93-4.93A4.95,4.95,0,0,1,122.56,127.49Z" style="fill:url(#linear-gradient-3)"/><path d="M143.57,121h-3.29a17.83,17.83,0,0,0-16.12-16.12v-3.29H121v3.29A17.84,17.84,0,0,0,104.83,121h-3.29v3.21h3.29A17.83,17.83,0,0,0,121,140.28v3.29h3.21v-3.29a17.83,17.83,0,0,0,16.12-16.12h3.29Zm-19.41,16.1v-3.13H121v3.13a14.63,14.63,0,0,1-12.89-12.89h3.14V121h-3.14A14.63,14.63,0,0,1,121,108.06v3.14h3.21v-3.14A14.63,14.63,0,0,1,137.05,121h-3.13v3.21h3.13A14.63,14.63,0,0,1,124.16,137.05Z" style="fill:url(#linear-gradient-3)"/></g></g></svg>