<svg id="Capa_1" enable-background="new 0 0 512 512" height="512" viewBox="0 0 512 512" width="512" xmlns="http://www.w3.org/2000/svg"><g><path d="m292.833 68.25h-13.063c-7.17-38.766-41.572-68.25-82.834-68.25-46.445 0-84.231 37.346-84.231 83.25 0 23.815 10.235 46.072 27.609 61.649-8.978 5.886-19.726 9.101-31.07 9.101-17.704 0-34.339-8.109-44.5-21.694-2.545-3.402-6.415-5.565-10.646-5.952-4.228-.391-8.428 1.039-11.549 3.924-20.238 18.711-31.382 42.408-31.382 66.722 0 29.274 15.425 56.455 43.435 76.537 26.499 18.999 61.476 29.463 98.488 29.463 3.217 0 6.417-.084 9.599-.241 15.64-63.352 65.624-113.313 128.987-128.923-4.49-15.318-13.433-29.607-26.362-42 7.254-9.991 12.192-21.484 14.448-33.586h13.071c8.284 0 15-6.716 15-15s-6.716-15-15-15zm-84.62 22.417c-8.284 0-15-6.716-15-15s6.716-15 15-15 15 6.716 15 15-6.716 15-15 15z"/><path d="m485.833 330h-41.454c-8.284 0-15 6.716-15 15s6.716 15 15 15h41.454c8.284 0 15-6.716 15-15s-6.716-15-15-15z"/><path d="m238.288 345c0-8.284-6.716-15-15-15h-41.455c-8.284 0-15 6.716-15 15s6.716 15 15 15h41.455c8.284 0 15-6.716 15-15z"/><path d="m333.833 178c-8.284 0-15 6.716-15 15v41.454c0 8.284 6.716 15 15 15s15-6.716 15-15v-41.454c0-8.284-6.716-15-15-15z"/><path d="m333.833 440.546c-8.284 0-15 6.716-15 15v41.454c0 8.284 6.716 15 15 15s15-6.716 15-15v-41.454c0-8.284-6.716-15-15-15z"/><path d="m288.833 205.819c-44.52 14.429-79.752 49.66-94.181 94.181 0 0 30.833.054 31.917.133 11.793-28.089 34.308-50.604 62.396-62.396-.078-1.086-.132-31.918-.132-31.918z"/><path d="m378.833 205.819s-.054 30.832-.133 31.917c28.088 11.793 50.603 34.308 62.396 62.396 1.085-.079 2.178-.133 3.283-.133h28.635c-14.429-44.52-49.661-79.751-94.181-94.18z"/><path d="m226.57 389.867c-1.085.079-31.917.133-31.917.133 14.429 44.521 49.661 79.752 94.181 94.181 0 0 .054-30.832.133-31.917-28.089-11.793-50.604-34.309-62.397-62.397z"/><path d="m441.096 389.867c-11.793 28.088-34.308 50.604-62.396 62.396.079 1.085.133 31.917.133 31.917 44.52-14.429 79.752-49.66 94.181-94.181 0 .001-30.832-.053-31.918-.132z"/></g></svg>