<svg xmlns="http://www.w3.org/2000/svg" xmlns:xlink="http://www.w3.org/1999/xlink" viewBox="0 0 150 150"><defs><linearGradient id="linear-gradient" x1="146.25" y1="166" x2="146.25" y2="52.42" gradientUnits="userSpaceOnUse"><stop offset="0" stop-color="#1a7b5e"/><stop offset="1" stop-color="#1aaf5e"/></linearGradient><linearGradient id="linear-gradient-2" x1="122.56" y1="166" x2="122.56" y2="52.42" xlink:href="#linear-gradient"/><linearGradient id="linear-gradient-3" x1="98.86" y1="166" x2="98.86" y2="52.42" xlink:href="#linear-gradient"/><linearGradient id="linear-gradient-5" x1="122.56" y1="166" x2="122.56" y2="52.42" xlink:href="#linear-gradient"/><linearGradient id="linear-gradient-9" x1="57.18" y1="166" x2="57.18" y2="52.42" xlink:href="#linear-gradient"/><linearGradient id="linear-gradient-10" x1="60.41" y1="166" x2="60.41" y2="52.42" xlink:href="#linear-gradient"/><linearGradient id="linear-gradient-11" x1="30.76" y1="166" x2="30.76" y2="52.42" xlink:href="#linear-gradient"/><linearGradient id="linear-gradient-12" x1="77.11" y1="166" x2="77.11" y2="52.42" xlink:href="#linear-gradient"/><linearGradient id="linear-gradient-13" x1="60.41" y1="166" x2="60.41" y2="52.42" xlink:href="#linear-gradient"/><linearGradient id="linear-gradient-15" x1="90.06" y1="166" x2="90.06" y2="52.42" xlink:href="#linear-gradient"/></defs><title>LOTTO</title><g id="Layer_2" data-name="Layer 2"><g id="Capa_1" data-name="Capa 1"><path d="M149.11,115.38a7,7,0,0,0,0,14,28,28,0,0,0,0-14Z" style="fill:url(#linear-gradient)"/><path d="M122.56,102.32a7,7,0,0,0,6.95-6.65,27.32,27.32,0,0,0-13.91,0A7,7,0,0,0,122.56,102.32Z" style="fill:url(#linear-gradient-2)"/><path d="M102.61,122.39a7,7,0,0,0-6.61-7,28,28,0,0,0,0,14A7,7,0,0,0,102.61,122.39Z" style="fill:url(#linear-gradient-3)"/><path d="M122.56,142.45a7,7,0,0,0-7,6.66,27.62,27.62,0,0,0,13.91,0A7,7,0,0,0,122.56,142.45Z" style="fill:url(#linear-gradient-2)"/><path d="M122.56,120.29a1.65,1.65,0,1,0-1.65-1.65,1.65,1.65,0,0,0,1.65,1.65Z" style="fill:url(#linear-gradient-5)"/><path d="M122.56,122.45a2.67,2.67,0,1,0,2.64,2.67,2.66,2.66,0,0,0-2.64-2.67Z" style="fill:url(#linear-gradient-5)"/><path d="M122.56,112.14a10.25,10.25,0,1,0,10.18,10.25A10.23,10.23,0,0,0,122.56,112.14Zm0,17.8a4.83,4.83,0,0,1-2.8-8.74,3.75,3.75,0,0,1-1-2.56,3.79,3.79,0,1,1,7.57,0,3.75,3.75,0,0,1-1,2.56,4.83,4.83,0,0,1-2.79,8.74Z" style="fill:url(#linear-gradient-2)"/><path d="M139.28,122.39a10.24,10.24,0,0,1,8.81-10.16,27.72,27.72,0,0,0-15.44-15.54,10.18,10.18,0,0,1-20.19,0A27.72,27.72,0,0,0,97,112.23a10.26,10.26,0,0,1,0,20.31,27.72,27.72,0,0,0,15.44,15.54,10.18,10.18,0,0,1,20.19,0,27.72,27.72,0,0,0,15.44-15.54A10.24,10.24,0,0,1,139.28,122.39Zm-16.72,13.48A13.49,13.49,0,1,1,136,122.39,13.46,13.46,0,0,1,122.56,135.87Z" style="fill:url(#linear-gradient-2)"/><path d="M57.18,72.89a2.89,2.89,0,0,0-2.88,2.9v8.44a2.89,2.89,0,1,0,5.77,0V75.79A2.9,2.9,0,0,0,57.18,72.89Z" style="fill:url(#linear-gradient-9)"/><path d="M93.45,62.21H27.37a5.92,5.92,0,0,0-5.9,5.93V91.88a5.93,5.93,0,0,0,5.9,5.94H93.45a5.93,5.93,0,0,0,5.9-5.94V68.14A5.92,5.92,0,0,0,93.45,62.21ZM44.86,89.51a2.36,2.36,0,1,1-4.72,0V72.89H38.46a2.38,2.38,0,0,1,0-4.75h4a2.37,2.37,0,0,1,2.36,2.37Zm19.93-5.27a7.61,7.61,0,1,1-15.21,0V75.79a7.61,7.61,0,1,1,15.21,0Zm19.93,0a7.61,7.61,0,1,1-15.21,0V75.79a7.61,7.61,0,1,1,15.21,0Z" style="fill:url(#linear-gradient-10)"/><path d="M31.8,28l-1-2.13L29.71,28a3.54,3.54,0,0,1-2.66,1.95l-2.33.34,1.68,1.65a3.56,3.56,0,0,1,1,3.16L27,37.41l2.09-1.1a3.51,3.51,0,0,1,3.29,0l2.09,1.1-.4-2.33a3.56,3.56,0,0,1,1-3.16l1.69-1.65-2.34-.34A3.55,3.55,0,0,1,31.8,28Z" style="fill:url(#linear-gradient-11)"/><path d="M77.11,72.89a2.89,2.89,0,0,0-2.88,2.9v8.44a2.89,2.89,0,1,0,5.77,0V75.79A2.9,2.9,0,0,0,77.11,72.89Z" style="fill:url(#linear-gradient-12)"/><path d="M61.45,28l-1-2.13-1,2.13a3.57,3.57,0,0,1-2.67,1.95l-2.33.34,1.69,1.65a3.59,3.59,0,0,1,1,3.16l-.39,2.33,2.08-1.1a3.53,3.53,0,0,1,3.3,0l2.08,1.1-.4-2.33a3.62,3.62,0,0,1,1-3.16l1.69-1.65-2.33-.34A3.55,3.55,0,0,1,61.45,28Z" style="fill:url(#linear-gradient-13)"/><path d="M110.2,0H10.62A10.66,10.66,0,0,0,0,10.69V110.88a10.66,10.66,0,0,0,10.62,10.69H90.56a32,32,0,0,1,5.23-16.84,12.89,12.89,0,0,1-2.34.21H27.37a13,13,0,0,1-13-13.06V68.14a13,13,0,0,1,13-13H93.45a13,13,0,0,1,13,13V91.88a13,13,0,0,1-.32,2.88,31.53,31.53,0,0,1,14.72-4.53V10.69A10.66,10.66,0,0,0,110.2,0Zm-4,30.34-5.49,5.38,1.3,7.61a3.6,3.6,0,0,1-1.41,3.48,3.58,3.58,0,0,1-3.73.27l-6.79-3.59-6.78,3.59a3.54,3.54,0,0,1-3.73-.27,3.58,3.58,0,0,1-1.41-3.48l1.3-7.61-4.2-4.12L71,35.72l1.29,7.61a3.58,3.58,0,0,1-1.41,3.48,3.56,3.56,0,0,1-3.72.27l-6.79-3.59-6.79,3.59a3.54,3.54,0,0,1-5.13-3.75l1.29-7.61-4.2-4.12-4.2,4.12,1.3,7.61a3.58,3.58,0,0,1-1.41,3.48,3.53,3.53,0,0,1-2.08.67,3.59,3.59,0,0,1-1.65-.4l-6.78-3.59L24,47.08a3.54,3.54,0,0,1-3.73-.27,3.6,3.6,0,0,1-1.41-3.48l1.3-7.61-5.49-5.38a3.6,3.6,0,0,1-.9-3.66,3.56,3.56,0,0,1,2.86-2.42l7.59-1.11,3.39-6.92a3.54,3.54,0,0,1,6.35,0l3.39,6.92,7.59,1.11a3,3,0,0,1,.67.17,3.14,3.14,0,0,1,.67-.17l7.59-1.11,3.4-6.92a3.53,3.53,0,0,1,6.34,0L67,23.15l7.59,1.11a3.14,3.14,0,0,1,.67.17,3,3,0,0,1,.67-.17l7.58-1.11,3.4-6.92a3.54,3.54,0,0,1,6.35,0l3.39,6.92,7.59,1.11a3.56,3.56,0,0,1,2.86,2.42A3.62,3.62,0,0,1,106.18,30.34Z" style="fill:url(#linear-gradient-10)"/><path d="M91.11,28l-1-2.13L89,28a3.55,3.55,0,0,1-2.67,1.95L84,30.27l1.69,1.65a3.62,3.62,0,0,1,1,3.16l-.4,2.33,2.09-1.1a3.49,3.49,0,0,1,3.29,0l2.09,1.1-.4-2.33a3.59,3.59,0,0,1,1-3.16l1.69-1.65-2.33-.34A3.54,3.54,0,0,1,91.11,28Z" style="fill:url(#linear-gradient-15)"/></g></g></svg>