<?xml version="1.0" encoding="utf-8"?>
<!-- Generator: Adobe Illustrator 24.0.2, SVG Export Plug-In . SVG Version: 6.00 Build 0)  -->
<svg version="1.1" id="Layer_1" xmlns="http://www.w3.org/2000/svg" xmlns:xlink="http://www.w3.org/1999/xlink" x="0px" y="0px"
	 viewBox="0 0 512 512" style="enable-background:new 0 0 512 512;" xml:space="preserve">
<style type="text/css">
	.st0{fill:#FFFFFF;}
</style>
<path class="st0" d="M136,150c22.9,0,43.1-6.3,59.8-14.2c-16.9,31.8-27.1,68.7-29.1,106.7C99,249.7,46,306.5,46,376
	c0,74.4,60.6,136,135,136c22.9,0,44.9-6.5,64.6-17.3C215,464.8,196,422.1,196,376s19-87.8,49.6-117.7c-15.2-8.3-31.7-14-49-16.2
	c6.5-106,86.6-193.5,189.8-209.4c-26.3,36.9-40.5,81-40.5,127.2v82.7c-67.3,7.6-120,64.2-120,133.5c0,74.4,60.6,136,135,136
	s135-61.6,135-136c0-69.3-52.7-125.9-120-133.5v-82.7c0-50.7,19.7-98.4,55.6-134.3L457.2,0H421c-70.5,0-134.3,28.7-180.5,75.1
	C228.4,63.4,189.5,30,136,30C72.7,30,29.4,77.2,27.3,79.2L16,90l11.3,10.8C29.4,102.8,72.7,150,136,150z M361,331
	c-24.8,0-45,20.2-45,45h-30c0-41.4,33.6-75,75-75V331z M181,331c-24.8,0-45,20.2-45,45h-30c0-41.4,33.6-75,75-75V331z"/>
<path class="st0" d="M136,150c22.9,0,43.1-6.3,59.8-14.2c-16.9,31.8-27.1,68.7-29.1,106.7C99,249.7,46,306.5,46,376
	c0,74.4,60.6,136,135,136c22.9,0,44.9-6.5,64.6-17.3C215,464.8,196,422.1,196,376s19-87.8,49.6-117.7c-15.2-8.3-31.7-14-49-16.2
	c6.5-106,86.6-193.5,189.8-209.4c-26.3,36.9-40.5,81-40.5,127.2v82.7c-67.3,7.6-120,64.2-120,133.5c0,74.4,60.6,136,135,136
	s135-61.6,135-136c0-69.3-52.7-125.9-120-133.5v-82.7c0-50.7,19.7-98.4,55.6-134.3L457.2,0H421c-70.5,0-134.3,28.7-180.5,75.1
	C228.4,63.4,189.5,30,136,30C72.7,30,29.4,77.2,27.3,79.2L16,90l11.3,10.8C29.4,102.8,72.7,150,136,150z M361,331
	c-24.8,0-45,20.2-45,45h-30c0-41.4,33.6-75,75-75V331z M181,331c-24.8,0-45,20.2-45,45h-30c0-41.4,33.6-75,75-75V331z"/>
</svg>
