<?xml version="1.0" encoding="utf-8"?>
<!-- Generator: Adobe Illustrator 24.1.0, SVG Export Plug-In . SVG Version: 6.00 Build 0)  -->
<svg version="1.1" id="Layer_2_1_" xmlns="http://www.w3.org/2000/svg" xmlns:xlink="http://www.w3.org/1999/xlink" x="0px" y="0px"
	 viewBox="0 0 120 40" style="enable-background:new 0 0 120 40;" xml:space="preserve">
<style type="text/css">
	.st0{fill:#010101;}
	.st1{fill:#020202;}
	.st2{fill:#FEE502;}
	.st3{fill:#EB2128;}
	.st4{fill:#EA098C;}
	.st5{fill:#FAB041;}
	.st6{fill:#01AEEE;}
	.st7{fill:#01B5A5;}
	.st8{fill:#FEFDFD;}
	.st9{fill:#1D1D1D;}
	.st10{fill:#02A2FA;}
	.st11{fill:#1C1C1C;}
	.st12{fill:#828282;}
</style>
<g>
	<g>
		<path class="st0" d="M54.7,42.7C54.7,42.7,54.7,42.7,54.7,42.7C54.7,42.7,54.7,42.7,54.7,42.7C54.7,42.7,54.7,42.7,54.7,42.7
			c-0.1,0-0.2,0-0.2,0c0,0,0,0,0,0c0,0,0,0,0,0.1c0,0,0,0,0,0C54.6,42.8,54.6,42.8,54.7,42.7C54.7,42.8,54.7,42.8,54.7,42.7
			C54.7,42.8,54.7,42.8,54.7,42.7c0,0.1,0,0.1,0,0.2c0,0,0,0,0,0c0,0-0.1,0-0.1,0c0,0,0,0-0.1,0c0,0,0,0,0,0c0,0,0,0,0,0
			c0,0,0,0,0,0c0,0,0,0,0,0c0,0,0,0,0,0c0,0,0,0,0,0c0.1,0,0.1,0,0.2,0c0,0,0,0,0,0c0,0,0,0,0,0C54.7,42.8,54.7,42.8,54.7,42.7
			c-0.1,0.1-0.2,0.1-0.2,0.1c0,0,0,0,0,0c0,0,0,0,0,0c0,0,0,0,0-0.1c0,0,0,0,0,0C54.6,42.6,54.6,42.6,54.7,42.7
			C54.7,42.6,54.7,42.7,54.7,42.7C54.7,42.7,54.7,42.7,54.7,42.7z"/>
		<path class="st1" d="M54,42.8C54,42.8,54,42.9,54,42.8C53.9,42.9,53.9,42.9,54,42.8C53.9,42.9,53.9,42.9,54,42.8c0,0,0-0.1,0-0.1
			c0,0,0,0,0,0c0.1,0,0.1,0,0.2,0c0,0,0,0,0,0c0,0,0,0,0,0c0,0.1,0,0.1,0,0.2c0,0,0,0,0,0c0,0,0,0,0,0c0,0,0-0.1,0-0.1
			C54.1,42.8,54,42.8,54,42.8z M54.1,42.8C54.1,42.8,54.1,42.8,54.1,42.8C54.1,42.7,54.1,42.7,54.1,42.8
			C54.1,42.7,54.1,42.7,54.1,42.8c-0.1-0.1-0.1-0.1-0.2-0.1c0,0,0,0,0,0c0,0,0,0,0,0.1c0,0,0,0,0,0C54,42.8,54.1,42.8,54.1,42.8z"/>
		<path class="st0" d="M54.9,42.6C54.9,42.6,54.9,42.6,54.9,42.6c0.1,0,0.1,0,0.1,0c0,0,0,0,0,0c0,0.1,0,0.1,0,0.2c0,0,0,0,0,0
			c-0.1,0-0.1,0-0.2,0c0,0,0,0,0,0c0-0.1,0-0.1,0-0.2C54.8,42.7,54.8,42.6,54.9,42.6C54.8,42.6,54.9,42.6,54.9,42.6z M54.9,42.7
			C54.9,42.7,54.8,42.7,54.9,42.7C54.8,42.7,54.8,42.7,54.9,42.7c-0.1,0.1-0.1,0.1-0.1,0.2c0,0,0,0,0,0c0.1,0,0.1,0,0.2,0
			c0,0,0,0,0,0C55,42.8,55,42.7,54.9,42.7C55,42.7,55,42.7,54.9,42.7C54.9,42.7,54.9,42.7,54.9,42.7z"/>
		<path class="st1" d="M55,42.6C55.1,42.6,55.1,42.6,55,42.6C55.1,42.6,55.1,42.6,55,42.6c0.1,0,0.1,0.1,0.1,0.1
			c0,0,0.1,0.1,0.1,0.1c0,0,0,0,0,0c0,0,0,0,0,0c0-0.1,0-0.1,0-0.2c0,0,0,0,0,0c0,0.1,0,0.2,0,0.3c0,0,0,0,0,0c0,0,0,0,0,0
			c0,0-0.1-0.1-0.1-0.1C55.1,42.8,55.1,42.7,55,42.6L55,42.6c0,0.1,0,0.2,0,0.3c0,0,0,0,0,0C55,42.8,55,42.7,55,42.6z"/>
		<path class="st1" d="M53.4,42.9C53.4,42.9,53.4,42.9,53.4,42.9c0-0.1,0-0.2,0-0.3c0,0,0,0,0,0c0.1,0,0.1,0,0.2,0c0,0,0,0,0,0
			c0,0,0,0,0,0c0,0,0,0,0,0.1c0,0,0,0,0,0C53.5,42.8,53.5,42.8,53.4,42.9C53.4,42.8,53.4,42.8,53.4,42.9
			C53.4,42.8,53.4,42.9,53.4,42.9z M53.5,42.8C53.5,42.8,53.5,42.8,53.5,42.8C53.6,42.8,53.6,42.8,53.5,42.8
			C53.6,42.7,53.6,42.7,53.5,42.8C53.6,42.7,53.6,42.7,53.5,42.8C53.5,42.7,53.5,42.7,53.5,42.8C53.4,42.7,53.4,42.7,53.5,42.8
			C53.4,42.7,53.4,42.7,53.5,42.8C53.4,42.8,53.4,42.8,53.5,42.8C53.4,42.8,53.5,42.8,53.5,42.8z"/>
		<path class="st0" d="M53.6,42.6C53.6,42.6,53.7,42.6,53.6,42.6c0,0.1,0,0.1,0,0.2c0.1,0,0.1,0,0.2,0c0,0,0,0,0,0
			c-0.1,0-0.2,0-0.3,0C53.6,42.8,53.6,42.7,53.6,42.6z"/>
		<path class="st0" d="M54.2,42.6C54.2,42.6,54.2,42.6,54.2,42.6C54.2,42.6,54.2,42.6,54.2,42.6c0.1,0,0.1,0.1,0.1,0.1c0,0,0,0,0,0
			c0,0,0,0,0,0c0,0,0,0,0.1-0.1c0,0,0,0,0,0c0,0,0,0,0,0c0,0,0,0,0,0c0,0-0.1,0.1-0.1,0.1c0,0,0,0,0,0c0,0,0,0.1,0,0.1c0,0,0,0,0,0
			c0,0,0,0,0,0c0,0,0,0,0,0c0,0,0-0.1,0-0.1c0,0,0,0,0,0C54.3,42.7,54.2,42.7,54.2,42.6C54.2,42.6,54.2,42.6,54.2,42.6z"/>
		<path class="st2" d="M55.8,42.7C55.8,42.7,55.8,42.7,55.8,42.7c0.1,0,0.1,0,0.1,0.1c0,0,0,0,0,0c0,0-0.1,0-0.1,0.1c0,0,0,0,0,0
			C55.8,42.8,55.8,42.8,55.8,42.7C55.8,42.7,55.8,42.7,55.8,42.7L55.8,42.7z"/>
		<path class="st3" d="M55.5,42.8C55.5,42.8,55.5,42.8,55.5,42.8c0,0,0-0.1,0-0.1c0,0,0,0,0,0l0,0c0,0,0,0,0,0c0,0,0,0,0.1,0
			c0,0,0.1,0,0.1,0c0,0,0,0,0,0c0,0,0,0,0,0C55.6,42.8,55.5,42.8,55.5,42.8C55.5,42.8,55.5,42.8,55.5,42.8
			C55.5,42.8,55.5,42.8,55.5,42.8L55.5,42.8z"/>
		<path class="st4" d="M55.5,42.7L55.5,42.7C55.5,42.7,55.5,42.7,55.5,42.7c0,0,0-0.1,0-0.1v0c0,0,0.1,0,0.1,0.1
			C55.6,42.6,55.6,42.7,55.5,42.7C55.5,42.7,55.5,42.7,55.5,42.7L55.5,42.7C55.5,42.7,55.5,42.7,55.5,42.7z"/>
		<path class="st5" d="M55.5,42.8L55.5,42.8C55.5,42.8,55.5,42.8,55.5,42.8C55.5,42.8,55.5,42.9,55.5,42.8c0.1,0,0.1,0.1,0.1,0.1
			c0,0,0,0,0,0c0,0-0.1,0-0.1,0.1c0,0,0,0,0,0C55.5,42.9,55.5,42.9,55.5,42.8C55.5,42.8,55.5,42.8,55.5,42.8z"/>
		<path class="st6" d="M55.8,42.7L55.8,42.7C55.7,42.7,55.7,42.7,55.8,42.7c-0.1,0-0.1,0.1-0.1,0.1c0,0,0,0,0,0l0,0c0,0,0,0,0,0
			c0,0,0-0.1,0-0.1c0,0,0,0,0,0c0,0,0,0,0,0C55.7,42.7,55.7,42.7,55.8,42.7C55.8,42.7,55.8,42.7,55.8,42.7z"/>
		<path class="st7" d="M55.6,42.8L55.6,42.8c0,0,0.1,0,0.1,0.1c0,0,0,0,0,0c0,0-0.1,0-0.1,0.1c0,0,0,0,0,0
			C55.6,42.9,55.6,42.8,55.6,42.8C55.6,42.8,55.6,42.8,55.6,42.8z"/>
		<path class="st8" d="M55.5,42.7C55.5,42.7,55.5,42.7,55.5,42.7C55.5,42.7,55.5,42.7,55.5,42.7C55.5,42.7,55.5,42.7,55.5,42.7z"/>
		<path class="st8" d="M55.5,42.8C55.5,42.8,55.5,42.8,55.5,42.8C55.5,42.8,55.5,42.8,55.5,42.8C55.5,42.8,55.5,42.8,55.5,42.8z"/>
	</g>
	<path class="st9" d="M61.3,22.7c0,0.1,0,0.2,0,0.2c0,1.1,0,2.2,0,3.4c0,0.3,0,0.2-0.2,0.2c-1.2,0-2.4,0-3.6,0c-0.1,0-0.1,0-0.2,0
		c-0.1,0-0.1,0-0.1-0.1c0-0.1,0-0.1,0-0.2c0-5.7,0-11.3,0-17c0,0,0,0,0,0c0-0.2,0-0.2,0.2-0.2c0.6-0.2,1.3-0.3,1.9-0.4
		c1-0.2,2.1-0.3,3.2-0.3c1.2-0.1,2.4,0,3.5,0.4c2.3,0.8,3.7,2.4,4.3,4.8c0.3,1,0.3,2.1,0.2,3.2c-0.1,1-0.2,1.9-0.6,2.8
		c-0.4,1.1-1,2-2,2.7c-0.8,0.6-1.7,0.9-2.7,1.1c-1.3,0.2-2.6,0-3.9-0.5C61.4,22.7,61.3,22.7,61.3,22.7z M61.3,15.6
		c0,1.1,0,2.3,0,3.4c0,0.2,0.1,0.3,0.2,0.4c0.8,0.4,1.7,0.5,2.6,0.4c0.8-0.1,1.3-0.5,1.7-1.2c0.2-0.3,0.3-0.6,0.4-0.9
		c0.2-0.9,0.2-1.9,0.1-2.8c-0.1-0.7-0.3-1.3-0.7-1.9c-0.4-0.6-0.9-0.9-1.6-1.1c-0.9-0.2-1.8-0.1-2.7,0c-0.1,0-0.1,0-0.1,0.1
		c0,0.1,0,0.1,0,0.2C61.3,13.3,61.3,14.4,61.3,15.6z"/>
	<path class="st9" d="M81.8,12.2c-0.1-0.4-0.1-0.8-0.2-1.2c-0.1-0.6-0.2-1.2-0.3-1.8c0-0.3,0-0.3,0.2-0.3c0.9-0.2,1.8-0.4,2.7-0.5
		c0.7-0.1,1.4-0.1,2.1-0.1c1,0,1.9,0.1,2.8,0.4c0.8,0.3,1.6,0.7,2.1,1.5c0.5,0.6,0.7,1.3,0.9,2.1c0.1,0.6,0.2,1.2,0.2,1.8
		c0,2.8,0,5.6,0,8.5c0,0.2,0,0.2-0.2,0.2c-1.2,0.2-2.3,0.5-3.5,0.6c-1.1,0.1-2.3,0.2-3.4,0.1c-0.9-0.1-1.8-0.2-2.7-0.6
		c-1-0.4-1.8-1.1-2.3-2.2c-0.2-0.5-0.3-1.1-0.4-1.6c-0.1-0.7,0-1.3,0.1-2c0.3-1.1,0.9-1.9,1.8-2.5c0.7-0.5,1.5-0.7,2.3-0.9
		c1.3-0.2,2.7-0.3,4-0.1c0.1,0,0.1,0,0.2,0c-0.1-0.9-0.6-1.5-1.5-1.7c-0.3-0.1-0.5-0.1-0.8-0.1c-1.3-0.1-2.6,0.1-3.9,0.4
		C82,12.1,81.9,12.2,81.8,12.2z M88.4,18.2c0-0.5,0-1.1,0-1.6c0-0.2,0-0.2-0.2-0.2c-0.6-0.1-1.2-0.1-1.7,0c-0.4,0-0.8,0.1-1.2,0.2
		c-0.8,0.3-1.1,0.9-1.1,1.7c0,0.8,0.4,1.2,1.1,1.5c0.4,0.1,0.8,0.2,1.3,0.2c0.5,0,1.1,0,1.6,0c0.2,0,0.2,0,0.2-0.2
		C88.4,19.3,88.4,18.7,88.4,18.2z"/>
	<path class="st10" d="M20,17.2c-1.5,0-2.9,0-4.4,0c-0.2,0-0.3,0-0.2,0.3c0.1,0.7,0.5,1.3,1.1,1.7c0.6,0.4,1.2,0.6,1.9,0.7
		c1.6,0.2,3.2,0,4.7-0.6c0.2-0.1,0.2-0.1,0.2,0.1c0.2,1,0.3,1.9,0.5,2.9c0,0.3,0.1,0.3-0.2,0.4c-0.6,0.2-1.2,0.4-1.9,0.5
		c-1.1,0.2-2.2,0.3-3.4,0.3c-1.3,0-2.6-0.3-3.8-1c-1.6-0.9-2.6-2.2-3.1-4c-0.3-1.2-0.4-2.4-0.3-3.6c0.1-1.2,0.5-2.4,1.1-3.4
		C13.4,9.7,15,8.6,17,8.3c1.4-0.2,2.7-0.1,3.9,0.5c1.6,0.7,2.7,1.9,3.2,3.5c0.3,0.8,0.4,1.5,0.5,2.3c0.1,0.7,0,1.5,0,2.2
		c0,0.3,0,0.3-0.3,0.3C22.9,17.2,21.4,17.2,20,17.2z M18.1,14.4c0.8,0,1.7,0,2.5,0c0.2,0,0.2,0,0.2-0.2c0-0.4-0.1-0.7-0.2-1.1
		c-0.3-0.8-0.9-1.3-1.8-1.5c-0.2,0-0.5,0-0.7,0c-1,0-1.7,0.5-2.2,1.4c-0.2,0.4-0.3,0.7-0.4,1.1c0,0.2,0,0.2,0.2,0.2
		C16.4,14.4,17.2,14.4,18.1,14.4z"/>
	<path class="st10" d="M40.6,15.8c0-1.4,0.3-2.7,0.9-3.9c1-2,2.6-3.1,4.8-3.6C47.9,8.1,49.5,8.2,51,9c1.5,0.8,2.5,2,3.1,3.5
		c0.3,0.8,0.5,1.6,0.5,2.4c0.1,1.3,0,2.5-0.4,3.8c-0.5,1.5-1.4,2.8-2.8,3.6c-0.9,0.6-2,0.9-3.1,1c-1,0.1-2.1,0-3.1-0.3
		c-2-0.6-3.4-1.9-4.2-3.9c-0.4-0.9-0.6-1.9-0.6-2.9C40.6,16.2,40.6,16,40.6,15.8z M50.6,15.8c0-0.5,0-0.9-0.1-1.4
		c-0.1-0.6-0.3-1.2-0.6-1.7c-0.4-0.5-0.8-0.9-1.4-1c-0.3-0.1-0.7-0.1-1-0.1c-0.7,0.1-1.3,0.4-1.7,0.9c-0.3,0.4-0.6,0.9-0.7,1.5
		c-0.2,1-0.2,1.9-0.1,2.9c0.1,0.6,0.3,1.2,0.7,1.7c0.3,0.5,0.8,0.8,1.3,1c0.5,0.1,1,0.2,1.5,0c0.5-0.1,0.9-0.4,1.3-0.8
		c0.3-0.3,0.5-0.7,0.6-1.1C50.5,17.3,50.6,16.5,50.6,15.8z"/>
	<path class="st9" d="M94,8.6c0.1,0,0.1,0,0.2,0c1.3,0,2.6,0,3.9,0c0,0,0.1,0,0.1,0c0.1,0,0.1,0,0.2,0.1c0.1,0.4,0.2,0.7,0.3,1.1
		c0.7,2.6,1.6,5.2,2.6,7.8c0,0.1,0.1,0.1,0.1,0.2c0.1-0.1,0.1-0.1,0.1-0.2c1-2.8,1.9-5.6,2.7-8.4c0-0.1,0.1-0.3,0.1-0.4
		c0-0.1,0.1-0.1,0.2-0.1c0.2,0,0.4,0,0.6,0c1.1,0,2.1,0,3.2,0c0.1,0,0.1,0,0.2,0c0,0.1,0,0.1,0,0.2c-1.5,5-3.2,9.8-5.4,14.5
		c-0.5,1-1,2.1-1.5,3.1c-0.1,0.1-0.2,0.2-0.3,0.2c-1.2,0-2.4,0-3.6,0c-0.1,0-0.1,0-0.2,0c0-0.1,0-0.1,0.1-0.2
		c0.7-1.2,1.3-2.5,1.9-3.9c0.1-0.1,0-0.2,0-0.3c-1.3-2.5-2.4-5.1-3.4-7.7c-0.7-1.9-1.3-3.8-1.9-5.7C94,8.8,93.9,8.7,94,8.6z"/>
	<path class="st10" d="M25.5,8.6c0.1,0,0.1,0,0.2,0c1.3,0,2.6,0,3.9,0c0.2,0,0.2,0,0.3,0.2c0.8,3,1.7,5.9,2.8,8.8
		c0,0.1,0.1,0.3,0.2,0.4c0.1,0,0.1-0.1,0.1-0.2c0.6-1.7,1.2-3.3,1.7-5c0.4-1.3,0.8-2.7,1.2-4.1c0-0.1,0.1-0.2,0.2-0.2
		c1.3,0,2.6,0,4,0c0,0,0.1,0,0.1,0c0,0.1,0,0.1,0,0.2c-1.3,4.3-2.8,8.6-4.8,12.7c-0.2,0.5-0.4,0.9-0.7,1.3C34.5,23,34.4,23,34.3,23
		c-1,0-2,0-3,0c-0.2,0-0.2,0-0.3-0.2c-0.7-1.4-1.4-2.9-2-4.4c-1.3-3.1-2.4-6.3-3.4-9.6C25.6,8.8,25.5,8.7,25.5,8.6z"/>
	<path class="st11" d="M77.3,23.4c-0.6-0.1-1.1-0.2-1.6-0.4c-0.1-0.1-0.3-0.1-0.4-0.2c-1-0.5-1.5-1.3-1.8-2.4
		c-0.1-0.6-0.2-1.3-0.2-2c0-5.2,0-10.4,0-15.6c0,0,0,0,0,0c0-0.2,0-0.2,0.2-0.2c1.2,0,2.4,0,3.7,0c0,0,0.1,0,0.1,0
		c0.1,0,0.1,0,0.1,0.1c0,0.1,0,0.1,0,0.2c0,6.7,0,13.5,0,20.2C77.3,23.2,77.3,23.3,77.3,23.4z"/>
	<path class="st12" d="M76.1,33.6c0.1,0,0.1-0.1,0.1-0.2c0.3-0.7,0.6-1.3,1-2c0-0.1,0.1-0.1,0.1-0.2c0-0.1,0.1-0.1,0.2-0.1
		c0.1,0,0.2,0,0.3,0c0.2,0,0.2,0,0.2,0.2c0,0.4,0.1,0.8,0.1,1.2c0.1,0.7,0.1,1.4,0.1,2.2c0,0,0,0.1,0,0.1c0,0.1,0,0.2-0.2,0.1
		c-0.1,0-0.3,0-0.4,0c-0.2,0-0.2,0-0.2-0.2c0-0.4,0-0.7,0-1.1c0-0.5-0.1-0.9-0.1-1.4c-0.1,0-0.1,0.1-0.1,0.2
		c-0.3,0.6-0.6,1.2-0.9,1.8c-0.1,0.1-0.1,0.2-0.3,0.2c-0.4,0-0.3,0.1-0.5-0.3c-0.3-0.6-0.6-1.1-0.8-1.7c0-0.1,0-0.1-0.1-0.2
		c0,0.2,0,0.3-0.1,0.4c0,0.3,0,0.6-0.1,0.9c0,0.4,0,0.8,0,1.2c0,0.1,0,0.2-0.2,0.2c-0.1,0-0.3,0-0.4,0c-0.2,0-0.2,0-0.2-0.2
		c0-0.4,0-0.8,0.1-1.2c0-0.5,0.1-1,0.1-1.4c0-0.3,0.1-0.7,0.1-1c0-0.1,0-0.1,0.2-0.1c0,0,0.1,0,0.1,0c0.2,0,0.3-0.1,0.5,0
		c0.1,0.1,0.2,0.3,0.3,0.4c0.3,0.6,0.6,1.2,0.9,1.8C76,33.4,76,33.5,76.1,33.6z"/>
	<path class="st12" d="M89.8,33.6c0-0.1,0-0.1,0-0.2c0-0.7,0-1.4,0-2.1c0-0.2,0-0.2,0.2-0.2c0.1,0,0.3,0,0.4,0c0.1,0,0.1,0,0.1,0.1
		c0,0,0,0.1,0,0.1c0,1.1,0,2.3,0,3.4c0,0.3,0,0.2-0.2,0.2c-0.3,0-0.5-0.1-0.6-0.3c-0.5-0.8-1-1.5-1.6-2.2c-0.1-0.1-0.1-0.2-0.2-0.2
		c-0.1,0.1,0,0.1,0,0.2c0,0.7,0,1.5,0,2.2c0,0.1,0,0.1,0,0.2c0,0.1,0,0.1-0.1,0.1c-0.2,0-0.4,0-0.5,0c-0.1,0-0.1,0-0.1-0.1
		c0,0,0-0.1,0-0.1c0-1.1,0-2.3,0-3.4c0-0.3,0-0.2,0.2-0.2c0.4,0,0.4,0,0.7,0.3c0.6,0.6,1.1,1.3,1.6,2C89.7,33.5,89.7,33.5,89.8,33.6
		C89.8,33.6,89.8,33.6,89.8,33.6z"/>
	<path class="st12" d="M68.1,32.3c0,0.1,0,0.2,0,0.2c0,0.7,0,1.5,0,2.2c0,0.1,0,0.1,0,0.2c0,0.1,0,0.1-0.1,0.1c-0.2,0-0.4,0-0.5,0
		c-0.1,0-0.1,0-0.1-0.1c0,0,0-0.1,0-0.1c0-1.1,0-2.3,0-3.4c0,0,0,0,0,0c0-0.2,0-0.2,0.2-0.2c0.4,0,0.4,0,0.7,0.3
		c0.6,0.6,1.1,1.3,1.6,2c0,0.1,0.1,0.1,0.1,0.2c0.1-0.1,0-0.1,0-0.2c0-0.7,0-1.4,0-2.1c0-0.1,0-0.1,0-0.2c0-0.1,0-0.1,0.1-0.1
		c0.2,0,0.3,0,0.5,0c0.1,0,0.1,0,0.1,0.1c0,0.1,0,0.1,0,0.2c0,1.1,0,2.2,0,3.3c0,0,0,0.1,0,0.1c0,0.2,0,0.2-0.2,0.2
		c-0.1,0-0.3,0-0.4,0c-0.1-0.1-0.2-0.2-0.2-0.3c-0.5-0.7-1-1.5-1.6-2.2C68.2,32.4,68.2,32.4,68.1,32.3z"/>
	<path class="st12" d="M30.4,33.6c0-0.1,0-0.2,0-0.2c0-0.7,0-1.4,0-2.1c0-0.2,0-0.2,0.2-0.2c0.1,0,0.3,0,0.4,0c0.1,0,0.1,0,0.1,0.1
		c0,0,0,0.1,0,0.1c0,1.1,0,2.3,0,3.4c0,0,0,0.1,0,0.1c0,0.1,0,0.1-0.1,0.1c0,0,0,0,0,0c-0.5,0-0.5,0-0.8-0.4c-0.5-0.8-1-1.5-1.6-2.2
		c0-0.1-0.1-0.1-0.2-0.2c0,0.1,0,0.2,0,0.2c0,0.7,0,1.5,0,2.2c0,0.1,0,0.1,0,0.2c0,0.1,0,0.1-0.1,0.1c-0.2,0-0.3,0-0.5,0
		c-0.1,0-0.1,0-0.1-0.1c0-0.1,0-0.1,0-0.2c0-1.1,0-2.2,0-3.3c0,0,0-0.1,0-0.1c0-0.2,0-0.2,0.2-0.2c0.4,0,0.4,0,0.7,0.3
		c0.6,0.6,1.1,1.3,1.6,2C30.3,33.5,30.3,33.6,30.4,33.6z"/>
	<path class="st12" d="M49,35c-0.3,0-0.5,0-0.8,0c-0.1,0-0.1-0.1-0.2-0.1c-0.2-0.4-0.4-0.7-0.7-1c-0.2-0.3-0.2-0.3-0.6-0.3
		c0,0,0,0,0,0c-0.2,0-0.2,0-0.2,0.2c0,0.2,0,0.5,0,0.7c0,0.2,0,0.3,0,0.5c0,0.1,0,0.1-0.1,0.1c-0.2,0-0.3,0-0.5,0
		c-0.1,0-0.1-0.1-0.1-0.2c0-0.2,0-0.3,0-0.5c0-1,0-1.9,0-2.9c0-0.1,0-0.1,0-0.2c0-0.1,0-0.1,0.1-0.1c0.2,0,0.5,0,0.7-0.1
		c0.4,0,0.9,0,1.3,0.1c0.3,0.1,0.6,0.3,0.8,0.6c0.2,0.5,0.2,1.2-0.5,1.5c-0.1,0-0.1,0.1-0.2,0.1C48.3,33.9,48.7,34.4,49,35z
		 M46.5,32.3c0,0.1,0,0.1,0,0.2c0,0.1-0.1,0.3,0,0.4c0.1,0.1,0.3,0,0.4,0c0.2,0,0.4,0,0.6-0.1c0.2-0.1,0.3-0.2,0.3-0.3
		c0.1-0.4,0-0.6-0.4-0.8c-0.3-0.1-0.6-0.1-0.9-0.1c-0.1,0-0.2,0.1-0.1,0.2C46.5,32,46.5,32.2,46.5,32.3z"/>
	<path class="st12" d="M60.2,35c-0.1,0-0.3,0-0.4,0c-0.1-0.1-0.1-0.2-0.2-0.3c-0.1-0.1-0.1-0.3-0.2-0.5c0-0.1-0.1-0.1-0.1-0.1
		c-0.5,0-1,0-1.5,0c-0.1,0-0.1,0-0.2,0.1c-0.1,0.2-0.2,0.4-0.2,0.7c0,0.1-0.1,0.2-0.2,0.1c-0.2,0-0.3,0-0.5,0c-0.2,0-0.2,0-0.1-0.2
		c0.1-0.3,0.2-0.6,0.4-0.9c0.3-0.9,0.7-1.7,1.1-2.6c0.1-0.2,0.2-0.2,0.3-0.2c0.2,0,0.4-0.1,0.5,0c0.1,0.1,0.2,0.3,0.2,0.4
		c0.5,1.1,1,2.1,1.4,3.2c0,0,0,0,0,0c0.1,0.2,0.1,0.2-0.1,0.2C60.4,35,60.3,35,60.2,35z M59.3,33.5c-0.2-0.5-0.4-1.1-0.7-1.6
		c-0.3,0.6-0.5,1.1-0.7,1.6C58.4,33.5,58.8,33.5,59.3,33.5z"/>
	<path class="st12" d="M40,33.1c0-0.6,0-1.2,0-1.8c0-0.2,0-0.2,0.2-0.2c0.8,0,1.6,0,2.4,0c0.2,0,0.2,0,0.2,0.2c0,0.1,0.1,0.3,0,0.4
		c-0.1,0.1-0.3,0-0.4,0c-0.4,0-0.9,0-1.3,0c-0.2,0-0.2,0-0.2,0.2c0,0.2,0,0.4,0,0.6c0,0.1,0,0.2,0.2,0.1c0.4,0,0.8,0,1.2,0
		c0,0,0.1,0,0.1,0c0.2,0,0.2,0,0.2,0.2c0,0.4,0,0.4-0.4,0.4c-0.4,0-0.8,0-1.2,0c-0.2,0-0.2,0-0.2,0.2c0,0.3,0,0.5,0,0.8
		c0,0.2,0,0.2,0.2,0.2c0.4,0,0.9,0,1.3,0c0,0,0.1,0,0.1,0c0.1,0,0.3-0.1,0.4,0c0.1,0.1,0,0.3,0,0.5c0,0.1,0,0.1-0.1,0.1
		c0,0-0.1,0-0.1,0c-0.8,0-1.6,0-2.4,0c0,0,0,0-0.1,0C40,35,40,35,40,34.9c0-0.1,0-0.2,0-0.3C40,34,40,33.5,40,33.1z"/>
	<path class="st12" d="M22,33.1c0-0.6,0-1.2,0-1.8c0-0.2,0-0.2,0.2-0.2c0.8,0,1.5,0,2.3,0c0.2,0,0.2,0,0.2,0.2c0,0.1,0.1,0.3,0,0.4
		c-0.1,0.1-0.3,0-0.4,0c-0.4,0-0.9,0-1.3,0c-0.2,0-0.2,0-0.2,0.2c0,0.2,0,0.4,0,0.6c0,0.2,0,0.2,0.2,0.2c0.4,0,0.8,0,1.2,0
		c0,0,0.1,0,0.1,0c0.2,0,0.2,0,0.2,0.2c0,0.1,0,0.2,0,0.2c0,0.2,0,0.2-0.2,0.2c-0.4,0-0.9,0-1.3,0c-0.2,0-0.2,0-0.2,0.2
		c0,0.3,0,0.5,0,0.8c0,0.2,0,0.2,0.2,0.2c0.5,0,1.1,0,1.6,0c0.1,0,0.1,0,0.2,0c0.1,0,0.1,0,0.1,0.1c0,0.5,0,0.5-0.5,0.5
		c-0.7,0-1.4,0-2.1,0c0,0-0.1,0-0.1,0c-0.1,0-0.2,0-0.2-0.1c0-0.1,0-0.2,0-0.3C22,34.1,22,33.6,22,33.1z"/>
	<path class="st12" d="M81.4,33c0-0.6,0-1.2,0-1.8c0-0.2,0-0.2,0.2-0.2c0.8,0,1.6,0,2.3,0c0.2,0,0.2,0,0.2,0.2c0,0.1,0,0.2,0,0.3
		c0,0.1,0,0.1-0.1,0.1c-0.2,0-0.4,0-0.5,0c-0.4,0-0.7,0-1.1,0c-0.1,0-0.2,0-0.2,0.1c0,0.2,0,0.4,0,0.7c0,0.2,0,0.2,0.2,0.2
		c0.4,0,0.9,0,1.3,0c0.2,0,0.2,0,0.2,0.2c0,0.4,0,0.4-0.4,0.4c-0.4,0-0.8,0-1.2,0c-0.2,0-0.2,0-0.2,0.2c0,0.3,0,0.5,0,0.8
		c0,0.2,0,0.2,0.2,0.2c0.5,0,1.1,0,1.6,0c0.3,0,0.3,0,0.3,0.3c0,0.3,0,0.3-0.3,0.3c-0.7,0-1.5,0-2.2,0c-0.1,0-0.1,0-0.2,0
		c-0.1,0-0.1,0-0.1-0.1c0-0.4,0-0.7,0-1.1C81.4,33.5,81.4,33.3,81.4,33z"/>
	<path class="st12" d="M35.6,31.1c0.5,0,1,0,1.5,0c0.2,0,0.2,0,0.2,0.2c0,0.1,0.1,0.3,0,0.4c-0.1,0.1-0.3,0-0.4,0
		c-0.2,0-0.4,0-0.6,0c-0.2,0-0.2,0-0.2,0.2c0,0.6,0,1.2,0,1.8c0,0.3,0,0.7,0,1c0,0.2,0,0.2-0.2,0.2c-0.2,0-0.3,0-0.5,0
		c-0.1,0-0.2,0-0.1-0.2c0-0.3,0-0.5,0-0.8c0-0.7,0-1.4,0-2.1c0-0.1,0-0.1,0-0.2c0-0.1,0-0.1-0.1-0.1c-0.2,0-0.3,0-0.5,0
		c-0.2,0-0.4,0-0.6,0c-0.1,0-0.1,0-0.1-0.1c0-0.1,0-0.2,0-0.4c0-0.1,0-0.1,0.1-0.1c0.3,0,0.6,0,0.9,0C35.2,31.1,35.4,31.1,35.6,31.1
		z"/>
	<path class="st12" d="M53,31.1c0.5,0,1,0,1.5,0c0.2,0,0.2,0,0.2,0.2c0,0.1,0.1,0.3,0,0.4c-0.1,0.1-0.3,0-0.4,0c-0.2,0-0.4,0-0.7,0
		c-0.2,0-0.2,0-0.2,0.2c0,0.9,0,1.9,0,2.8c0,0.3,0,0.3-0.3,0.3c-0.1,0-0.2,0-0.4,0c-0.1,0-0.1,0-0.1-0.1c0-0.1,0-0.1,0-0.2
		c0-0.9,0-1.8,0-2.7c0-0.1,0-0.1,0-0.2c0-0.1,0-0.2-0.2-0.2c-0.3,0-0.6,0-0.9,0c-0.3,0-0.3,0-0.3-0.3c0-0.4,0-0.4,0.4-0.4
		C52.1,31.1,52.5,31.1,53,31.1z"/>
	<path class="st12" d="M95.4,33.4c0,0.5,0,1,0,1.5c0,0.2,0,0.2-0.2,0.2c-0.2,0-0.3,0-0.5,0c-0.1,0-0.1,0-0.1-0.1c0-0.1,0-0.1,0-0.2
		c0-0.9,0-1.8,0-2.7c0-0.1,0-0.1,0-0.2c0-0.1,0-0.1-0.1-0.1c-0.3,0-0.6,0-0.9,0c-0.2,0-0.2,0-0.2-0.2c0-0.1-0.1-0.3,0-0.4
		c0.1-0.1,0.2,0,0.4,0c0.9,0,1.8,0,2.7,0c0.1,0,0.1,0,0.2,0c0.1,0,0.1,0,0.1,0.1c0,0.1,0,0.2,0,0.4c0,0.1,0,0.1-0.1,0.1
		c-0.3,0-0.6,0-0.9,0c-0.2,0-0.2,0-0.2,0.2C95.4,32.4,95.4,32.9,95.4,33.4z"/>
	<path class="st12" d="M63.3,33c0-0.6,0-1.2,0-1.7c0-0.2,0-0.2,0.2-0.2c0.1,0,0.3,0,0.4,0c0.1,0,0.2,0,0.1,0.2c0,0,0,0.1,0,0.1
		c0,1.1,0,2.3,0,3.4c0,0,0,0,0,0c0,0.2,0,0.2-0.2,0.2c-0.1,0-0.2,0-0.4,0c-0.2,0-0.2,0-0.2-0.2C63.3,34.2,63.3,33.6,63.3,33z"/>
</g>
</svg>
