<svg width="120" height="40" viewBox="0 0 120 40" fill="none" xmlns="http://www.w3.org/2000/svg"><path d="M14.83 5C6.64 5 0 11.726 0 20.05c0 1.49.218 2.95.653 4.356.272-.386.544-.772.79-1.185a273.161 273.161 0 003.047-4.659l.734-1.185c.245-.386.49-.8.708-1.185.49-.8.952-1.6 1.388-2.399.217-.413.435-.8.68-1.213.245-.413.435-.799.653-1.212.218-.414.435-.827.626-1.213l.599-1.24.054-.083a1.37 1.37 0 011.796-.634c.49.275.789.799.762 1.378 0 .716-.136 1.46-.19 2.178-.055.716-.082 1.46-.137 2.205-.054 1.46-.081 2.95-.081 4.41 0 1.461.081 2.922.217 4.328.082.689.19 1.378.327 2.067.109.607.3 1.213.571 1.764.082.166.19.331.327.469.081.055.027.028.081.028h.055l.054-.028h.027l.082-.028c.027-.027.082-.055.109-.082a3.96 3.96 0 00.599-.58c.435-.523.843-1.047 1.197-1.625.38-.58.735-1.213 1.088-1.847a64.938 64.938 0 001.987-3.887c.299-.662.626-1.323.925-2.012.3-.662.598-1.351.87-2.012a1.338 1.338 0 011.742-.745c.436.166.735.551.817 1.02 0 .165.027.386.054.607l.082.634c.054.413.108.826.19 1.24.136.827.3 1.654.517 2.453.218.8.49 1.6.816 2.37a9.42 9.42 0 001.252 2.151c.109.165.082.386-.054.496-.136.11-.327.11-.436 0a11.565 11.565 0 01-1.796-2.04c-.517-.744-.952-1.543-1.36-2.343-.272-.551-.49-1.102-.735-1.654-.163.331-.3.662-.463.965-.653 1.35-1.306 2.701-2.067 4.052a24.943 24.943 0 01-1.198 2.04 17.19 17.19 0 01-1.442 1.957c-.3.358-.653.662-1.007.965a1.538 1.538 0 01-.354.22l-.244.138-.137.055h-.027l-.081.028h-.055l-.109.028c-.081.027-.136.055-.217.055l-.49.082a2.75 2.75 0 01-1.061-.137 2.96 2.96 0 01-.898-.524 4.244 4.244 0 01-1.007-1.296 9.626 9.626 0 01-.816-2.453 23.207 23.207 0 01-.354-2.343c-.163-1.544-.218-3.06-.245-4.604v-2.177c-.272.524-.544 1.047-.816 1.543-.218.414-.436.828-.68 1.241l-.68 1.24a128.018 128.018 0 01-2.885 4.907 118.888 118.888 0 01-1.932 3.115c4.49 6.946 13.687 8.876 20.544 4.328 6.857-4.549 8.762-13.866 4.272-20.812C24.49 7.564 19.837 5 14.83 5z" fill="url(#paint0_linear)"/><path d="M42.503 25.453v-9.978h-.245L39.102 25.48h-.789l-3.157-10.006h-.244v9.978h-1.306V14.427h2.312l2.803 8.766 2.748-8.766h2.34v11.054h-1.306v-.028z" fill="url(#paint1_linear)"/><path d="M45.714 15.86v-1.433h1.415v1.434h-1.415zm.027 9.593v-8.517h1.388v8.517h-1.388z" fill="url(#paint2_linear)"/><path d="M55.537 22.67c0 1.653-.626 2.921-3.346 2.921-3.43 0-3.62-1.984-3.62-4.41s.19-4.41 3.62-4.41c2.72 0 3.346 1.267 3.346 2.921h-1.306c0-1.35-.462-2.012-2.04-2.012-2.123 0-2.232 1.158-2.232 3.473 0 2.316.109 3.474 2.231 3.474 1.579 0 2.041-.662 2.041-2.013l1.306.055z" fill="url(#paint3_linear)"/><path d="M58.231 17.845c.653-.413 1.497-.964 2.286-.992.163-.028.326-.028.49-.028.218 0 .408 0 .653.028l-.109 1.02c-.218-.028-.408-.028-.599-.028-.163 0-.326 0-.517.028-.734.027-1.523.579-2.095.91v6.698h-1.388v-8.545h1.089l.19.91z" fill="url(#paint4_linear)"/><path d="M69.442 21.208c0 2.426-.19 4.41-3.673 4.41s-3.674-1.984-3.674-4.41c0-2.425.19-4.41 3.674-4.41 3.483 0 3.673 1.985 3.673 4.41zm-5.959 0c0 2.316.109 3.474 2.286 3.474s2.285-1.13 2.285-3.474c0-2.343-.108-3.473-2.285-3.473s-2.286 1.13-2.286 3.473z" fill="url(#paint5_linear)"/><path d="M71.973 27.438c.517.055 1.197.083 1.959.083 2.122 0 2.394-.58 2.422-2.84-.626.359-1.497.772-2.395.8-3.075.055-3.265-1.626-3.265-4.273 0-2.646.163-4.41 3.13-4.41 1.006 0 1.931.469 2.666.937l.136-.772h1.088v7.553c0 3.06-.68 3.997-3.456 3.997-.816 0-1.632-.083-2.421-.193l.136-.882zm4.38-8.931c-.598-.386-1.36-.772-2.094-.772-2.041 0-2.177 1.158-2.177 3.473 0 2.26.136 3.336 2.177 3.336.734 0 1.523-.414 2.095-.717v-5.32z" fill="url(#paint6_linear)"/><path d="M85.252 25.453l-.136-.771c-.68.44-1.579.937-2.558.937-3.075.055-3.266-1.71-3.266-4.41 0-2.702.164-4.411 3.211-4.411 1.007 0 1.905.469 2.585.882l.137-.744h1.088v8.517h-1.061zm-.272-7.001c-.572-.331-1.361-.717-2.096-.717-2.04 0-2.177 1.158-2.177 3.473 0 2.316.137 3.474 2.177 3.474.735 0 1.497-.414 2.096-.772v-5.458z" fill="url(#paint7_linear)"/><path d="M89.252 17.68c.626-.386 1.47-.854 2.367-.882 1.415-.055 2.15.33 2.504.937.652-.413 1.523-.91 2.476-.937 2.884-.083 3.075 1.406 3.075 3.473v5.182h-1.388v-5.1c0-1.763-.11-2.618-1.987-2.618-.68 0-1.387.414-1.959.772.136.606.19 1.24.163 1.874v5.1h-1.197v-5.127c0-1.764-.109-2.619-1.986-2.619-.653 0-1.36.414-1.905.717v7.001h-1.388v-8.517h1.089l.136.744z" fill="url(#paint8_linear)"/><path d="M101.388 15.86v-1.433h1.415v1.434h-1.415zm.027 9.593v-8.517h1.388v8.517h-1.388z" fill="url(#paint9_linear)"/><path d="M105.741 17.68c.681-.386 1.579-.854 2.558-.882 3.075-.083 3.266 1.406 3.266 3.473v5.182h-1.388v-5.1c0-1.763-.136-2.618-2.177-2.618-.735 0-1.524.414-2.095.744v7.002h-1.388v-8.545h1.088l.136.744z" fill="url(#paint10_linear)"/><path d="M114.259 27.438c.517.055 1.197.083 1.959.083 2.122 0 2.394-.58 2.421-2.84-.625.359-1.496.772-2.394.8-3.075.055-3.265-1.626-3.265-4.273 0-2.646.163-4.41 3.129-4.41 1.007 0 1.932.469 2.667.937l.136-.772H120v7.553c0 3.06-.68 3.997-3.456 3.997-.816 0-1.632-.083-2.422-.193l.137-.882zm4.353-8.931c-.598-.386-1.36-.772-2.095-.772-2.041 0-2.177 1.158-2.177 3.473 0 2.26.136 3.336 2.177 3.336.735 0 1.524-.414 2.095-.717v-5.32z" fill="url(#paint11_linear)"/><defs><linearGradient id="paint0_linear" x1="-2.304" y1="24.212" x2="117.591" y2="-4.301" gradientUnits="userSpaceOnUse"><stop stop-color="#21E418"/><stop offset=".3" stop-color="#31B6E9"/><stop offset=".976" stop-color="#21E418"/></linearGradient><linearGradient id="paint1_linear" x1="-1.015" y1="29.635" x2="118.881" y2="1.122" gradientUnits="userSpaceOnUse"><stop stop-color="#21E418"/><stop offset=".3" stop-color="#31B6E9"/><stop offset=".976" stop-color="#21E418"/></linearGradient><linearGradient id="paint2_linear" x1="-.592" y1="31.412" x2="119.304" y2="2.9" gradientUnits="userSpaceOnUse"><stop stop-color="#21E418"/><stop offset=".3" stop-color="#31B6E9"/><stop offset=".976" stop-color="#21E418"/></linearGradient><linearGradient id="paint3_linear" x1=".006" y1="33.929" x2="119.902" y2="5.416" gradientUnits="userSpaceOnUse"><stop stop-color="#21E418"/><stop offset=".3" stop-color="#31B6E9"/><stop offset=".976" stop-color="#21E418"/></linearGradient><linearGradient id="paint4_linear" x1=".309" y1="35.203" x2="120.205" y2="6.69" gradientUnits="userSpaceOnUse"><stop stop-color="#21E418"/><stop offset=".3" stop-color="#31B6E9"/><stop offset=".976" stop-color="#21E418"/></linearGradient><linearGradient id="paint5_linear" x1=".754" y1="37.071" x2="120.65" y2="8.558" gradientUnits="userSpaceOnUse"><stop stop-color="#21E418"/><stop offset=".3" stop-color="#31B6E9"/><stop offset=".976" stop-color="#21E418"/></linearGradient><linearGradient id="paint6_linear" x1="1.54" y1="40.376" x2="121.435" y2="11.863" gradientUnits="userSpaceOnUse"><stop stop-color="#21E418"/><stop offset=".3" stop-color="#31B6E9"/><stop offset=".976" stop-color="#21E418"/></linearGradient><linearGradient id="paint7_linear" x1="1.743" y1="41.23" x2="121.639" y2="12.717" gradientUnits="userSpaceOnUse"><stop stop-color="#21E418"/><stop offset=".3" stop-color="#31B6E9"/><stop offset=".976" stop-color="#21E418"/></linearGradient><linearGradient id="paint8_linear" x1="2.293" y1="43.545" x2="122.189" y2="15.033" gradientUnits="userSpaceOnUse"><stop stop-color="#21E418"/><stop offset=".3" stop-color="#31B6E9"/><stop offset=".976" stop-color="#21E418"/></linearGradient><linearGradient id="paint9_linear" x1="2.463" y1="44.256" x2="122.358" y2="15.744" gradientUnits="userSpaceOnUse"><stop stop-color="#21E418"/><stop offset=".3" stop-color="#31B6E9"/><stop offset=".976" stop-color="#21E418"/></linearGradient><linearGradient id="paint10_linear" x1="3.071" y1="46.815" x2="122.967" y2="18.303" gradientUnits="userSpaceOnUse"><stop stop-color="#21E418"/><stop offset=".3" stop-color="#31B6E9"/><stop offset=".976" stop-color="#21E418"/></linearGradient><linearGradient id="paint11_linear" x1="3.858" y1="50.126" x2="123.754" y2="21.613" gradientUnits="userSpaceOnUse"><stop stop-color="#21E418"/><stop offset=".3" stop-color="#31B6E9"/><stop offset=".976" stop-color="#21E418"/></linearGradient></defs></svg>