<svg width="96" height="40" viewBox="0 0 96 40" fill="none" xmlns="http://www.w3.org/2000/svg"><g clip-path="url(#clip0)"><path d="M81.958 11.585c-4.73.292-2.607 6.392 2.623 6.07 5.116-.315 2.417-6.38-2.623-6.07z" fill="#FF9318"/><path d="M71.932 9.573a15.97 15.97 0 00-6.347 6.786 16.033 16.033 0 00-1.503 9.181 16.08 16.08 0 003.845 8.482c2.09 2.386 4.84 4.1 7.9 4.924a15.962 15.962 0 0016.84-5.707 16.009 16.009 0 003.263-8.707A16.07 16.07 0 0084.079 7.986a15.979 15.979 0 00-12.147 1.587zm15.2 26.33a14.294 14.294 0 01-8.099 1.883 14.348 14.348 0 01-7.79-2.942 14.391 14.391 0 01-5.136-15.101c.73-2.74 2.256-5.2 4.385-7.07a14.285 14.285 0 017.573-3.43c2.81-.367 5.667.109 8.21 1.367a14.383 14.383 0 017.522 16.588 14.3 14.3 0 01-6.664 8.704zM65.915.115c-1.85 4.392.93 7.886.93 7.886s-5.175-4.188-9.759-5.927c2.082 4.444 6.645 9.29 6.645 9.29s-3.69-2.507-7.922-.324c4.554-.004 7.928 2.779 8.78 3.555a15.874 15.874 0 015.574-5.95c-.78-.731-3.894-3.912-4.248-8.53z" fill="#FF9318"/><path d="M2.262 25.554v3.004H1v-7.74h2.657c.901 0 1.578.212 2.032.637.453.424.682 1.005.685 1.743 0 .731-.233 1.307-.698 1.726-.465.42-1.136.63-2.014.63h-1.4zm2.823-2.356c0-.439-.124-.774-.371-1.004-.247-.23-.644-.346-1.19-.345H2.263v2.686h1.263c1.04 0 1.56-.446 1.56-1.337zm6.499 5.36l-1.948-3.091h-.897v3.091H7.476v-7.74h2.758c.892 0 1.57.216 2.031.647.462.43.693 1.001.692 1.711 0 .603-.171 1.1-.515 1.49-.343.392-.838.64-1.483.746l2.054 3.146h-1.429zm-2.845-3.98h1.392c1.02 0 1.53-.445 1.528-1.336 0-.424-.123-.755-.37-.993-.248-.237-.633-.356-1.158-.356H8.739v2.686zm10.02 2.303h-3.3l-.598 1.677h-1.35l2.878-7.619h1.45l2.868 7.62h-1.351l-.597-1.678zm-.355-.964L17.108 22.3l-1.295 3.617h2.59zm8.68-4.485a3.2 3.2 0 011.23 1.854h-1.33a2.105 2.105 0 00-.836-.998 2.495 2.495 0 00-1.378-.373c-.46-.008-.914.11-1.312.339-.39.228-.705.563-.908.964a3.128 3.128 0 00-.32 1.474c-.015.527.099 1.05.332 1.524.206.409.532.747.934.97.43.231.912.348 1.401.34a2.482 2.482 0 001.67-.607c.464-.398.744-.944.841-1.639h-2.87v-.92h3.93v1.194a3.68 3.68 0 01-.615 1.552 3.5 3.5 0 01-1.273 1.113 3.84 3.84 0 01-1.81.416 3.958 3.958 0 01-2.015-.504 3.456 3.456 0 01-1.35-1.398 4.631 4.631 0 010-4.09 3.442 3.442 0 011.344-1.392 3.971 3.971 0 012.01-.498c.93 0 1.706.226 2.325.68zm10.296-.493v7.62h-1.274v-5.712l-2.224 5.711h-1.107l-2.237-5.71v5.71h-1.262V20.94h1.528l2.546 6.084 2.502-6.084h1.528zm6.177 5.942h-3.294l-.598 1.677H38.31l2.879-7.619h1.45l2.868 7.62h-1.352l-.598-1.678zm-.354-.964L41.908 22.3l-1.295 3.617h2.59zm7.706-5.099v1.009h-2.181v6.731h-1.274v-6.731h-2.169v-1.009h5.624zm1.937 0v7.74h-1.261v-7.74h1.26zm7.141.647a3.535 3.535 0 011.284 1.963h-1.34a2.356 2.356 0 00-.88-1.113 2.567 2.567 0 00-1.478-.412 2.32 2.32 0 00-1.245.34 2.36 2.36 0 00-.864.97 3.588 3.588 0 000 2.938c.19.397.49.733.864.97.374.229.806.347 1.245.34a2.566 2.566 0 001.478-.41c.4-.27.707-.655.88-1.102h1.34a3.5 3.5 0 01-1.284 1.956c-.634.48-1.431.719-2.39.719a3.812 3.812 0 01-1.96-.5 3.386 3.386 0 01-1.318-1.392 4.725 4.725 0 010-4.09 3.428 3.428 0 011.317-1.398 3.78 3.78 0 011.96-.504c.959.001 1.756.243 2.391.725zm10.239 4.089v3.004h-1.261v-7.74h2.657c.9 0 1.576.212 2.031.637.456.424.684 1.005.685 1.743 0 .731-.232 1.307-.697 1.726-.465.42-1.136.63-2.015.63h-1.4zm2.827-2.356c0-.439-.123-.774-.37-1.004-.248-.23-.645-.346-1.191-.345h-1.266v2.686h1.262c1.044 0 1.565-.446 1.565-1.337zm3.45 4.385h2.702v.975h-3.964v-7.74h1.263v6.765zm8.481-.702h-3.299l-.598 1.677h-1.351l2.88-7.619h1.45l2.867 7.62h-1.35l-.599-1.678zm-.354-.964L83.335 22.3l-1.296 3.617h2.591zM92 20.818l-2.601 4.922v2.818h-1.27v-2.817l-2.613-4.923h1.462l1.794 3.585 1.793-3.585H92z" fill="#010812"/></g><defs><clipPath id="clip0"><path d="M0 0h96v40H0V0z" fill="#fff"/></clipPath></defs></svg>