<svg xmlns="http://www.w3.org/2000/svg" xmlns:xlink="http://www.w3.org/1999/xlink" viewBox="0 0 150 150"><defs><linearGradient id="linear-gradient" x1="54.87" y1="-30.36" x2="62.88" y2="376.77" gradientUnits="userSpaceOnUse"><stop offset="0" stop-color="#606060"/><stop offset="1"/></linearGradient><linearGradient id="linear-gradient-2" x1="119.54" y1="-31.64" x2="127.55" y2="375.49" xlink:href="#linear-gradient"/></defs><title>SLOT</title><g id="Layer_2" data-name="Layer 2"><g id="Capa_1" data-name="Capa 1"><path d="M113.13,89.7c-1-15.9-13.07-28.58-28.22-30.36V39.11A47,47,0,0,1,98,6.26L104.09,0H95.55A58.88,58.88,0,0,0,53,18.36c-2.86-2.86-12-11-24.66-11-14.93,0-25.15,11.55-25.64,12L0,22l2.67,2.65c.49.48,10.71,12,25.64,12a32,32,0,0,0,14.11-3.47,64.9,64.9,0,0,0-6.87,26.1C19.58,61.08,7.08,75,7.08,92c0,18.2,14.29,33.26,31.85,33.26A30.79,30.79,0,0,0,54.17,121a41.45,41.45,0,0,1-11.7-29,40.85,40.85,0,0,1,11.7-28.79,31.67,31.67,0,0,0-11.56-4C44.14,33.29,63,11.88,87.39,8a54.76,54.76,0,0,0-9.56,31.12V59.34C62,61.21,49.52,75.05,49.52,92c0,18.2,14.3,33.27,31.85,33.27a30,30,0,0,0,9.17-1.42c-.05-.78-.08-1.59-.08-2.4C90.46,106.49,100,93.85,113.13,89.7ZM38.93,81A10.83,10.83,0,0,0,28.31,92H21.23c0-10.13,7.93-18.35,17.7-18.35ZM81.4,81A10.82,10.82,0,0,0,70.78,92H63.7c0-10.13,7.93-18.35,17.7-18.35Z" style="fill:url(#linear-gradient)"/><path d="M122.56,93.09c-15.19,0-27.45,12.72-27.45,28.45S107.38,150,122.56,150,150,137.28,150,121.54,137.73,93.09,122.56,93.09ZM137,114.87a1.85,1.85,0,0,1-.13.66c-4.28,10.35-7.26,15.6-6.32,22.45a1.64,1.64,0,0,1-1.59,1.9H116.12a1.62,1.62,0,0,1-1.59-1.43c-1.14-8.29,4.53-13.19,8.72-21.91h-6.13L116,119a1.6,1.6,0,0,1-1.44.93h-4.82a1.64,1.64,0,0,1-1.61-1.67V104.87a1.64,1.64,0,0,1,1.61-1.67H121a11.26,11.26,0,0,1,5.71,2,6.38,6.38,0,0,0,7.87,0,1.61,1.61,0,0,1,2.5,1.39Zm-12.15-7a8.34,8.34,0,0,0-3.93-1.38H111.3v10h2.22l1.16-2.41a1.6,1.6,0,0,1,1.44-.92h9.65a1.66,1.66,0,0,1,1.48,2.32c-4,9.74-9.77,14.42-9.65,21h9.61c-.35-6.93,2.72-12.66,6.6-22v-5.31a9.06,9.06,0,0,1-8.93-1.3Z" style="fill:url(#linear-gradient-2)"/></g></g></svg>