<svg xmlns="http://www.w3.org/2000/svg" xmlns:xlink="http://www.w3.org/1999/xlink" viewBox="0 0 150 150.2"><defs><linearGradient id="linear-gradient" x1="72.61" y1="-41.56" x2="80.63" y2="365.57" gradientUnits="userSpaceOnUse"><stop offset="0" stop-color="#606060"/><stop offset="1"/></linearGradient><linearGradient id="linear-gradient-2" x1="21.83" y1="-40.56" x2="29.85" y2="366.57" xlink:href="#linear-gradient"/><linearGradient id="linear-gradient-3" x1="76.85" y1="-41.64" x2="84.86" y2="365.49" xlink:href="#linear-gradient"/><linearGradient id="linear-gradient-4" x1="119.79" y1="-42.49" x2="127.8" y2="364.64" xlink:href="#linear-gradient"/><linearGradient id="linear-gradient-5" x1="134.46" y1="-42.77" x2="142.47" y2="364.36" xlink:href="#linear-gradient"/><linearGradient id="linear-gradient-6" x1="143.26" y1="-42.95" x2="151.27" y2="364.18" xlink:href="#linear-gradient"/><linearGradient id="linear-gradient-7" x1="95.43" y1="-42.01" x2="103.44" y2="365.12" xlink:href="#linear-gradient"/><linearGradient id="linear-gradient-8" x1="103.23" y1="-42.16" x2="111.25" y2="364.97" xlink:href="#linear-gradient"/><linearGradient id="linear-gradient-9" x1="119.22" y1="-42.48" x2="127.23" y2="364.66" xlink:href="#linear-gradient"/><linearGradient id="linear-gradient-10" x1="119.33" y1="-42.48" x2="127.34" y2="364.65" xlink:href="#linear-gradient"/></defs><title>SPORT</title><g id="Layer_2" data-name="Layer 2"><g id="Capa_1" data-name="Capa 1"><path d="M132.45,60.52a59.87,59.87,0,0,1-8.07,30.19c-.62,0-1.24,0-1.86,0A32.06,32.06,0,0,0,90.81,118,60.33,60.33,0,0,1,72,121c-2,0-4-.09-6-.29a36.78,36.78,0,0,1-19.37-7.91,31,31,0,0,0,10.1-22.94v-8h7.57a14.8,14.8,0,1,0,0-7.76H34.07l3.22-13.94L17.48,40.38a3.92,3.92,0,0,1-.81-4.32,59.44,59.44,0,0,1,5.58-10L48.32,52.18a3.89,3.89,0,0,0,5.5-5.5L27.11,20c.74-.82,1.51-1.62,2.3-2.42A60.14,60.14,0,0,1,72,0h.14a60.57,60.57,0,0,1,60.34,60.52Z" style="fill:url(#linear-gradient)"/><path d="M49,89.86v-8H3.88A3.88,3.88,0,0,0,0,85.76v5H26.46a4,4,0,0,1,4,3.69,3.88,3.88,0,0,1-3.88,4.07H0v10.85a3.89,3.89,0,0,0,3.88,3.89H25.67A23.36,23.36,0,0,0,49,89.86Z" style="fill:url(#linear-gradient-2)"/><path d="M72.79,74.11h5.87a3.89,3.89,0,0,1,0,7.77H72.79a7,7,0,1,0,0-7.77Z" style="fill:url(#linear-gradient-3)"/><path d="M129.63,96.17a27.68,27.68,0,0,0-14.23,0l7.12,5.17Z" style="fill:url(#linear-gradient-4)"/><path d="M132.39,148.38a27.52,27.52,0,0,0,11.5-8.35h-8.78Z" style="fill:url(#linear-gradient-5)"/><path d="M150,121.28a27.54,27.54,0,0,0-4.4-13.51l-2.72,8.35Z" style="fill:url(#linear-gradient-6)"/><path d="M99.44,107.77A27.44,27.44,0,0,0,95,121.28l7.11-5.17Z" style="fill:url(#linear-gradient-7)"/><path d="M101.15,140a27.48,27.48,0,0,0,11.5,8.36L109.93,140Z" style="fill:url(#linear-gradient-8)"/><path d="M139.46,116.23l3.77-11.59a27.82,27.82,0,0,0-9.88-7.18l-9.88,7.17a1.62,1.62,0,0,1-1.9,0l-9.88-7.17a27.82,27.82,0,0,0-9.88,7.18l3.77,11.59A1.59,1.59,0,0,1,105,118l-9.88,7.17a27.36,27.36,0,0,0,3.78,11.61H111.1a1.62,1.62,0,0,1,1.54,1.11l3.77,11.6a27.8,27.8,0,0,0,12.21,0l3.78-11.61a1.62,1.62,0,0,1,1.53-1.12h12.21a27.09,27.09,0,0,0,3.78-11.59L140,118a1.6,1.6,0,0,1-.58-1.8Zm-4.33,3.4-4.23,13a1.6,1.6,0,0,1-1.53,1.11h-13.7a1.6,1.6,0,0,1-1.53-1.11l-4.24-13a1.62,1.62,0,0,1,.59-1.81l11.08-8a1.62,1.62,0,0,1,1.9,0l11.08,8a1.62,1.62,0,0,1,.58,1.81Z" style="fill:url(#linear-gradient-9)"/><polygon points="113.33 119.74 116.84 130.53 128.2 130.53 131.71 119.74 122.52 113.08 113.33 119.74" style="fill:url(#linear-gradient-10)"/></g></g></svg>