<svg height="512pt" viewBox="-13 0 512 512" width="512pt" xmlns="http://www.w3.org/2000/svg"><path d="m0 90 11.320312 10.835938c2.097657 2.007812 52.085938 49.164062 115.371094 49.164062 22 0 42.394532-5.703125 59.726563-13.222656-17.246094 32.566406-27.292969 68.578125-29.328125 106.015625-67.597656 7.304687-120.398438 64.699219-120.398438 134.207031 0 74.4375 60.5625 135 135 135 33.382813 0 65.414063-12.398438 90.042969-34.433594 23.894531 21.398438 55.429687 34.433594 89.957031 34.433594 74.441406 0 135-60.5625 135-135 0-69.367188-52.59375-126.675781-120-134.160156v-82.988282c0-50.710937 19.75-98.386718 55.605469-134.246093l25.609375-25.605469h-36.214844c-66.542968 0-129.28125 25.757812-177.183594 72.601562-16.492187-13.429687-58.039062-42.601562-107.816406-42.601562-63.285156 0-113.273437 47.15625-115.371094 49.164062zm66.691406 287c0-57.898438 47.105469-105 105-105 25.960938 0 50.875 9.640625 70.03125 26.78125-15.753906 22.082031-25.03125 49.085938-25.03125 78.21875s9.277344 56.136719 25.03125 78.21875c-19.15625 17.140625-44.070312 26.78125-70.03125 26.78125-57.894531 0-105-47.101562-105-105zm390 0c0 57.898438-47.101562 105-105 105-57.894531 0-105-47.101562-105-105s47.105469-105 105-105c57.898438 0 105 47.101562 105 105zm-79.5-344.335938c-25.5625 36.027344-40.5 80.351563-40.5 127.1875v82.984376c-28.621094 3.179687-54.570312 15.339843-74.957031 33.597656-20.800781-18.613282-46.882813-30.339844-74.601563-33.539063 6.53125-106.964843 86.816407-194.132812 190.058594-210.230469zm-250.5 27.335938c33.988282 0 64.476563 17.921875 81.191406 30.027344-16.652343 12.097656-47.03125 29.972656-81.191406 29.972656-33.988281 0-64.484375-17.929688-81.191406-30.027344 16.652344-12.097656 47.03125-29.972656 81.191406-29.972656zm0 0"/><path d="m276.691406 377h30c0-24.8125 20.1875-45 45-45v-30c-41.355468 0-75 33.644531-75 75zm0 0"/><path d="m96.691406 377h30c0-24.8125 20.1875-45 45-45v-30c-41.355468 0-75 33.644531-75 75zm0 0"/></svg>