<svg id="Capa_1" enable-background="new 0 0 512 512" height="512" viewBox="0 0 512 512" width="512" xmlns="http://www.w3.org/2000/svg"><g><path d="m256.892 280.429-168.606 168.606c32.166 28.068 70.136 47.356 110.98 56.63 8.809-79.663 37.866-145.402 86.751-196.11z"/><path d="m206.556 230.093c-51.352 49.508-118.132 78.666-199.167 87.066 10.09 41.005 30.321 78.978 59.448 110.9l168.843-168.843z"/><path d="m511.032 233.84c-9.751 1.473-20.297 3.382-31.382 5.86-42.542 9.509-101.036 29.379-150.459 70.602l116.823 116.823c42.648-47.194 65.986-107.454 65.986-171.125 0-7.44-.338-14.829-.968-22.16z"/><path d="m256.892 238.003 171.167-171.167c-33.145-30.242-72.811-50.905-115.623-60.572-1.595 11.006-3.716 23.036-6.539 35.787-10.354 46.775-32.347 111.453-78.797 166.16z"/><path d="m63.803 87.34c-41.254 46.82-63.803 106.089-63.803 168.66 0 10.621.65 21.148 1.93 31.534 75.098-7.399 136.602-33.739 183.409-78.658z"/><path d="m228.932 510.566c8.935.942 17.965 1.434 27.068 1.434 62.57 0 121.84-22.549 168.66-63.803l-117.427-117.427c-44.2 46.056-70.424 106.328-78.301 179.796z"/><path d="m307.896 289.008c54.708-46.45 119.386-68.442 166.161-78.797 11.55-2.557 22.51-4.539 32.653-6.075-8.816-42.694-28.496-82.41-57.675-115.85l-170.93 170.93z"/><path d="m282.745 1.398c-8.83-.919-17.752-1.398-26.745-1.398-63.671 0-123.931 23.338-171.125 65.986l120.951 120.951c50.377-60.302 69.612-134.816 76.919-185.539z"/></g></svg>