<svg xmlns="http://www.w3.org/2000/svg" viewBox="0 0 500 500"><title>Calendar</title><g id="Layer_2" data-name="Layer 2"><g id="Layer_1-2" data-name="Layer 1"><g id="Calendar"><path d="M458.33,50H416.67V33.33a33.34,33.34,0,0,0-66.67,0V50H283.33V33.33a33.33,33.33,0,1,0-66.66,0V50H150V33.33a33.34,33.34,0,0,0-66.67,0V50H41.67A41.66,41.66,0,0,0,0,91.67V425a41.67,41.67,0,0,0,41.67,41.67H275A8.34,8.34,0,0,0,275,450H41.67a25.07,25.07,0,0,1-25-25V166.67H483.33V308.33a8.34,8.34,0,1,0,16.67,0V91.67A41.66,41.66,0,0,0,458.33,50ZM366.67,33.33a16.67,16.67,0,0,1,33.33,0v50a16.67,16.67,0,1,1-33.33,0Zm-133.34,0a16.67,16.67,0,0,1,33.34,0v50a16.67,16.67,0,0,1-33.34,0ZM100,33.33a16.67,16.67,0,0,1,33.33,0v50a16.67,16.67,0,1,1-33.33,0ZM483.33,150H16.67V91.67a25.07,25.07,0,0,1,25-25H83.33V83.33a33.34,33.34,0,1,0,66.67,0V66.67h66.67V83.33a33.33,33.33,0,1,0,66.66,0V66.67H350V83.33a33.34,33.34,0,1,0,66.67,0V66.67h41.66a25.07,25.07,0,0,1,25,25Z" style="fill:#fff"/><path d="M233.33,225a16.67,16.67,0,0,0-16.66-16.67H183.33A16.67,16.67,0,0,0,166.67,225v25a16.67,16.67,0,0,0,16.66,16.67h33.34A16.67,16.67,0,0,0,233.33,250Zm-50,25V225h33.34v25Z" style="fill:#fff"/><path d="M133.33,225a16.67,16.67,0,0,0-16.66-16.67H83.33A16.67,16.67,0,0,0,66.67,225v25a16.67,16.67,0,0,0,16.66,16.67h33.34A16.67,16.67,0,0,0,133.33,250Zm-50,25V225h33.34v25Z" style="fill:#fff"/><path d="M416.67,266.67A16.67,16.67,0,0,0,433.33,250V225a16.67,16.67,0,0,0-16.66-16.67H383.33A16.67,16.67,0,0,0,366.67,225v25a16.67,16.67,0,0,0,16.66,16.67ZM383.33,225h33.34v25H383.33Z" style="fill:#fff"/><path d="M233.33,300a16.67,16.67,0,0,0-16.66-16.67H183.33A16.67,16.67,0,0,0,166.67,300v25a16.67,16.67,0,0,0,16.66,16.67h33.34A16.67,16.67,0,0,0,233.33,325Zm-50,25V300h33.34v25Z" style="fill:#fff"/><path d="M133.33,300a16.67,16.67,0,0,0-16.66-16.67H83.33A16.67,16.67,0,0,0,66.67,300v25a16.67,16.67,0,0,0,16.66,16.67h33.34A16.67,16.67,0,0,0,133.33,325Zm-50,25V300h33.34v25Z" style="fill:#fff"/><path d="M216.67,358.33H183.33A16.67,16.67,0,0,0,166.67,375v25a16.67,16.67,0,0,0,16.66,16.67h33.34A16.67,16.67,0,0,0,233.33,400V375A16.67,16.67,0,0,0,216.67,358.33ZM183.33,400V375h33.34v25Z" style="fill:#fff"/><path d="M283.33,266.67h33.34A16.67,16.67,0,0,0,333.33,250V225a16.67,16.67,0,0,0-16.66-16.67H283.33A16.67,16.67,0,0,0,266.67,225v25A16.67,16.67,0,0,0,283.33,266.67Zm0-41.67h33.34v25H283.33Z" style="fill:#fff"/><path d="M266.67,325a16.67,16.67,0,0,0,16.66,16.67,8.34,8.34,0,1,0,0-16.67V300h33.34a8.34,8.34,0,0,0,0-16.67H283.33A16.67,16.67,0,0,0,266.67,300Z" style="fill:#fff"/><path d="M116.67,358.33H83.33A16.67,16.67,0,0,0,66.67,375v25a16.67,16.67,0,0,0,16.66,16.67h33.34A16.67,16.67,0,0,0,133.33,400V375A16.67,16.67,0,0,0,116.67,358.33ZM83.33,400V375h33.34v25Z" style="fill:#fff"/><path d="M391.67,283.33A108.34,108.34,0,1,0,500,391.67,108.35,108.35,0,0,0,391.67,283.33Zm0,200a91.67,91.67,0,1,1,91.66-91.66A91.67,91.67,0,0,1,391.67,483.33Z" style="fill:#fff"/><path d="M439.82,356.73,375,421.55l-29.46-29.47a8.33,8.33,0,0,0-11.78,11.79l35.35,35.36a8.34,8.34,0,0,0,11.78,0l70.71-70.71a8.33,8.33,0,0,0-11.78-11.79Z" style="fill:#fff"/></g></g></g></svg>