<svg xmlns="http://www.w3.org/2000/svg" viewBox="0 0 500 500"><title>1158, Calendar, Date, Event, Holiday</title><g id="Layer_2" data-name="Layer 2"><g id="Layer_1-2" data-name="Layer 1"><g id="_1158_Calendar_Date_Event_Holiday" data-name="1158, Calendar, Date, Event, Holiday"><path d="M140,200h10a10,10,0,0,0,0-20H140a10,10,0,0,0,0,20Z" style="fill:#fff"/><path d="M210,200h10a10,10,0,0,0,0-20H210a10,10,0,0,0,0,20Z" style="fill:#fff"/><path d="M280,200h10a10,10,0,0,0,0-20H280a10,10,0,0,0,0,20Z" style="fill:#fff"/><path d="M350,200h10a10,10,0,0,0,0-20H350a10,10,0,0,0,0,20Z" style="fill:#fff"/><path d="M420,200h10a10,10,0,0,0,0-20H420a10,10,0,0,0,0,20Z" style="fill:#fff"/><path d="M70,260H80a10,10,0,0,0,0-20H70a10,10,0,0,0,0,20Z" style="fill:#fff"/><path d="M140,260h10a10,10,0,0,0,0-20H140a10,10,0,0,0,0,20Z" style="fill:#fff"/><path d="M210,260h10a10,10,0,0,0,0-20H210a10,10,0,0,0,0,20Z" style="fill:#fff"/><path d="M280,260h10a10,10,0,0,0,0-20H280a10,10,0,0,0,0,20Z" style="fill:#fff"/><path d="M350,260h10a10,10,0,0,0,0-20H350a10,10,0,0,0,0,20Z" style="fill:#fff"/><path d="M420,260h10a10,10,0,0,0,0-20H420a10,10,0,0,0,0,20Z" style="fill:#fff"/><path d="M70,320H80a10,10,0,0,0,0-20H70a10,10,0,0,0,0,20Z" style="fill:#fff"/><path d="M140,320h10a10,10,0,0,0,0-20H140a10,10,0,0,0,0,20Z" style="fill:#fff"/><path d="M210,320h10a10,10,0,0,0,0-20H210a10,10,0,0,0,0,20Z" style="fill:#fff"/><path d="M280,320h10a10,10,0,0,0,0-20H280a10,10,0,0,0,0,20Z" style="fill:#fff"/><path d="M350,320h10a10,10,0,0,0,0-20H350a10,10,0,0,0,0,20Z" style="fill:#fff"/><path d="M420,320h10a10,10,0,0,0,0-20H420a10,10,0,0,0,0,20Z" style="fill:#fff"/><path d="M70,380H80a10,10,0,0,0,0-20H70a10,10,0,0,0,0,20Z" style="fill:#fff"/><path d="M140,380h10a10,10,0,0,0,0-20H140a10,10,0,0,0,0,20Z" style="fill:#fff"/><path d="M210,380h10a10,10,0,0,0,0-20H210a10,10,0,0,0,0,20Z" style="fill:#fff"/><path d="M280,380h10a10,10,0,0,0,0-20H280a10,10,0,0,0,0,20Z" style="fill:#fff"/><path d="M350,380h10a10,10,0,0,0,0-20H350a10,10,0,0,0,0,20Z" style="fill:#fff"/><path d="M420,380h10a10,10,0,0,0,0-20H420a10,10,0,0,0,0,20Z" style="fill:#fff"/><path d="M70,440H80a10,10,0,0,0,0-20H70a10,10,0,0,0,0,20Z" style="fill:#fff"/><path d="M140,440h10a10,10,0,0,0,0-20H140a10,10,0,0,0,0,20Z" style="fill:#fff"/><path d="M210,440h10a10,10,0,0,0,0-20H210a10,10,0,0,0,0,20Z" style="fill:#fff"/><path d="M280,440h10a10,10,0,0,0,0-20H280a10,10,0,0,0,0,20Z" style="fill:#fff"/><path d="M490,40H440V35a35,35,0,0,0-70,0v5H130V35a35,35,0,0,0-70,0v5H10A10,10,0,0,0,0,50V490a10,10,0,0,0,10,10H490a10,10,0,0,0,10-10V50A10,10,0,0,0,490,40ZM390,35a15,15,0,0,1,30,0V65a15,15,0,0,1-30,0V35ZM80,35a15,15,0,0,1,30,0V65a15,15,0,0,1-30,0V35ZM20,60H60v5a35,35,0,0,0,70,0V60H370v5a35,35,0,1,0,70,0V60h40v60H20ZM480,480H20V140H480Z" style="fill:#fff"/></g></g></g></svg>