<svg id="Capa_1" enable-background="new 0 0 512 512" height="512" viewBox="0 0 512 512" width="512" xmlns="http://www.w3.org/2000/svg" xmlns:xlink="http://www.w3.org/1999/xlink"><linearGradient id="SVGID_1_" gradientUnits="userSpaceOnUse" x1="256" x2="256" y1="512" y2="0"><stop offset="0" stop-color="#fd5900"/><stop offset="1" stop-color="#ffde00"/></linearGradient><linearGradient id="SVGID_2_" gradientUnits="userSpaceOnUse" x1="256" x2="256" y1="451.998" y2="242.004"><stop offset="0" stop-color="#ffe59a"/><stop offset="1" stop-color="#ffffd5"/></linearGradient><g><g><g><path d="m397.343 158.387c-4.658-2.153-10.093-1.787-14.399.938-4.321 2.754-6.943 7.529-6.943 12.656v25.019c0 8.276-6.724 15-15 15-7.412 0-13.682-5.332-14.897-12.583-12.204-75.645-67.78-199.417-90.104-199.417s-77.9 123.772-90.088 199.329c-1.23 7.339-7.5 12.671-14.912 12.671-8.276 0-15-6.724-15-15v-25.02c0-5.127-2.622-9.902-6.943-12.656-4.321-2.725-9.727-3.091-14.399-.938-51.065 23.819-83.658 127.618-83.658 188.614 0 97.148 92.52 165 225 165s225-67.852 225-165c0-60.996-32.593-164.795-83.657-188.613z" fill="url(#SVGID_1_)"/></g></g><g><g><path d="m328.759 309.119c-2.739-4.424-7.559-7.119-12.759-7.119h-33.281l-12.173-48.633c-1.523-6.094-6.665-10.591-12.905-11.279-6.372-.659-12.246 2.607-15.059 8.203l-60 120c-2.329 4.644-2.08 10.166.659 14.59s7.559 7.119 12.759 7.119h33.281l12.173 48.633c1.523 6.094 6.665 10.591 12.905 11.279 6.419.676 12.307-2.715 15.059-8.203l60-120c2.329-4.644 2.08-10.166-.659-14.59z" fill="url(#SVGID_2_)"/></g></g></g></svg>