<svg xmlns="http://www.w3.org/2000/svg" viewBox="0 0 344.83 500"><title>money_1</title><g id="Layer_2" data-name="Layer 2"><g id="Layer_1-2" data-name="Layer 1"><g id="lineex"><path d="M146.55,241.38A77.59,77.59,0,1,0,224.14,319a77.7,77.7,0,0,0-77.59-77.59Zm0,137.93A60.35,60.35,0,1,1,206.9,319,60.41,60.41,0,0,1,146.55,379.31Z" style="fill:#fff"/><path d="M146.55,275.86A43.11,43.11,0,1,0,189.66,319,43.12,43.12,0,0,0,146.55,275.86Zm0,69A25.87,25.87,0,1,1,172.42,319,25.94,25.94,0,0,1,146.55,344.83Z" style="fill:#fff"/><path d="M344.83,241.38a60.17,60.17,0,0,0-51.72-59.65V77.59A43.12,43.12,0,0,0,250,34.48H140.69a60.61,60.61,0,0,0-11.81-16.81,60.36,60.36,0,0,0-85.34,0A59,59,0,0,0,30.78,36.55,42.65,42.65,0,0,0,0,77.59V491.38A8.65,8.65,0,0,0,8.62,500H284.48a8.65,8.65,0,0,0,8.62-8.62V301a60.19,60.19,0,0,0,51.73-59.66ZM86.21,17.24a43.17,43.17,0,0,1,30.51,12.59,42.68,42.68,0,0,1,12.59,30.51,43.17,43.17,0,0,1-12.59,30.52,42.68,42.68,0,0,1-30.51,12.59A43.17,43.17,0,0,1,55.69,90.86a42.41,42.41,0,0,1-9.91-45c0-.08.08-.17.08-.26a42,42,0,0,1,9.92-15.69A42.56,42.56,0,0,1,86.21,17.24ZM26,58.36c0,.69-.09,1.29-.09,2a60.35,60.35,0,1,0,120.69,0,57.41,57.41,0,0,0-.69-8.63H250a25.94,25.94,0,0,1,25.86,25.87v60.34h-9.31a60.26,60.26,0,0,0-119.31,0h-130V77.59A25.69,25.69,0,0,1,26,58.36Zm223.19,79.57H164.66a43.11,43.11,0,0,1,84.48,0ZM17.24,482.76V155.17H275.86v26.55a60.26,60.26,0,0,0,0,119.31V482.76ZM284.49,284.48A43.21,43.21,0,0,1,254,271.9a42.72,42.72,0,0,1-12.59-30.52A43.19,43.19,0,0,1,254,210.86a42.68,42.68,0,0,1,30.52-12.58A43.2,43.2,0,0,1,315,210.86a42.72,42.72,0,0,1,12.59,30.52A43.19,43.19,0,0,1,315,271.9,42.67,42.67,0,0,1,284.49,284.48Z" style="fill:#fff"/></g></g></g></svg>