<svg xmlns="http://www.w3.org/2000/svg" viewBox="0 0 528.39 500"><title>refer</title><g id="Layer_2" data-name="Layer 2"><g id="Layer_1-2" data-name="Layer 1"><path d="M141.35,318.1a10.32,10.32,0,1,0-14.1-3.77A10.33,10.33,0,0,0,141.35,318.1Z" style="fill:#fff"/><path d="M99.06,389.33l52,90a41.28,41.28,0,1,0,71.5-41.27l-31-53.63L218.38,369a10.33,10.33,0,0,0,3.78-14.1l-13.42-23.25,197.67-38.77a31,31,0,0,0,25.09-46.39l-34.3-59.4,21.92-33.2a10.32,10.32,0,0,0,.33-10.85l-20.64-35.75a10.34,10.34,0,0,0-9.56-5.14l-39.7,2.38L311.47,38.55a30.69,30.69,0,0,0-26.42-15.48h-.4a30.71,30.71,0,0,0-26.07,14.28L123.77,209.09l-87.65,50.6A72.24,72.24,0,0,0,99.06,389.33Zm105.6,59.07A20.64,20.64,0,0,1,168.9,469l-51.6-89.39L153.05,359C212.77,462.46,203.7,446.75,204.66,448.4Zm-23.41-81.83-10.32-17.88,17.87-10.32,10.32,17.88ZM384.12,123.1l14.27,24.71-12.72,19.26-24.59-42.58ZM275.85,48.66a10.31,10.31,0,0,1,17.74.21l120,207.91A10.31,10.31,0,0,1,405,272.25c-1.41,0-2.06.29-5.66,1l-127-219.92C275,49.86,275.32,49.53,275.85,48.66ZM258.58,70.78,377.87,277.41l-180,35.32-54.75-94.82Zm-231,277.27a51.56,51.56,0,0,1,18.88-70.49l80.44-46.44,51.6,89.38L98.05,366.94A51.67,51.67,0,0,1,27.56,348.05Z" style="fill:#fff"/><path d="M109.38,324.65a10.32,10.32,0,0,0-14.1-3.78L77.41,331.19a10.34,10.34,0,0,1-14.1-3.78,10.32,10.32,0,1,0-17.88,10.32,31,31,0,0,0,42.3,11.33l17.87-10.32A10.32,10.32,0,0,0,109.38,324.65Z" style="fill:#fff"/><path d="M513.05,45.15l-57.5,32a10.32,10.32,0,0,0,10,18l57.51-32a10.32,10.32,0,1,0-10-18Z" style="fill:#fff"/><path d="M507,152l-39.87-10.68a10.32,10.32,0,1,0-5.34,19.93L501.68,172A10.32,10.32,0,0,0,507,152Z" style="fill:#fff"/><path d="M406.82,7.65l-10.7,39.88a10.32,10.32,0,1,0,19.94,5.34L426.75,13a10.32,10.32,0,1,0-19.93-5.35Z" style="fill:#fff"/></g></g></svg>