<svg xmlns="http://www.w3.org/2000/svg" viewBox="0 0 333.24 500"><title>reward</title><g id="Layer_2" data-name="Layer 2"><g id="Layer_1-2" data-name="Layer 1"><g id="Medal-Reward-Badge-Award-First"><path d="M158.29,233.24H175V249.9H158.29Z" style="fill:#fff"/><path d="M109.42,250.8l14.43-8.33,8.33,14.43-14.43,8.33Z" style="fill:#fff"/><path d="M75.88,290.43,84.21,276l14.43,8.33-8.33,14.43Z" style="fill:#fff"/><path d="M66.66,324.87H83.32v16.66H66.66Z" style="fill:#fff"/><path d="M75.91,375.93l14.43-8.33L98.67,382l-14.43,8.33Z" style="fill:#fff"/><path d="M109.41,415.65l8.33-14.43,14.43,8.33L123.84,424Z" style="fill:#fff"/><path d="M158.29,416.5H175v16.66H158.29Z" style="fill:#fff"/><path d="M201,409.51l14.43-8.33,8.33,14.43-14.43,8.33Z" style="fill:#fff"/><path d="M234.58,382.06l8.33-14.43L257.33,376,249,390.39Z" style="fill:#fff"/><path d="M249.92,324.87h16.66v16.66H249.92Z" style="fill:#fff"/><path d="M234.59,284.29,249,276l8.33,14.42-14.43,8.33Z" style="fill:#fff"/><path d="M201.06,256.94l8.33-14.43,14.43,8.33-8.33,14.43Z" style="fill:#fff"/><path d="M170.55,284.2a8.31,8.31,0,0,0-8.55.42l-25,16.66,9.24,13.86,12-8v76.06H175V291.55A8.34,8.34,0,0,0,170.55,284.2Z" style="fill:#fff"/><path d="M219.43,149.44l91.63-33.32a8.27,8.27,0,0,0,5.5-7.83V50h8.33a8.33,8.33,0,0,0,8.33-8.33V8.33A8.33,8.33,0,0,0,324.89,0H8.35A8.33,8.33,0,0,0,0,8.33V41.65A8.33,8.33,0,0,0,8.35,50h8.33v58.31a8.27,8.27,0,0,0,5.5,7.83l91.63,33.32a8.27,8.27,0,0,0,2.83.5h26.49a24.92,24.92,0,0,0-1.5,8.33,25.4,25.4,0,0,0,2.17,10.08,166.6,166.6,0,1,0,45.64,0,25.4,25.4,0,0,0,2.17-10.08,24.92,24.92,0,0,0-1.5-8.33H216.6A8.23,8.23,0,0,0,219.43,149.44Zm80.47-47-75,27.24V50h75ZM108.31,129.7l-75-27.24V50h75ZM16.68,33.32V16.66H316.56V33.32ZM158.29,183.68v16.66A133.19,133.19,0,0,0,55.66,259.48l-14.41-8.25a149.89,149.89,0,0,1,117-67.55ZM16.68,333.2a148.69,148.69,0,0,1,16.24-67.56L47.42,274a131.64,131.64,0,0,0,0,118.46l-14.5,8.33A148.69,148.69,0,0,1,16.68,333.2ZM158.29,482.72a149.89,149.89,0,0,1-117-67.55l14.41-8.25a133.19,133.19,0,0,0,102.63,59.14ZM50,333.2A116.62,116.62,0,1,1,166.62,449.82,116.62,116.62,0,0,1,50,333.2ZM158.29,158.27a8.33,8.33,0,1,1,8.33,8.33A8.33,8.33,0,0,1,158.29,158.27ZM175,482.72V466.06a133.18,133.18,0,0,0,102.63-59.14L292,415.17a149.87,149.87,0,0,1-117,67.55ZM316.56,333.2a148.69,148.69,0,0,1-16.24,67.56l-14.5-8.33a131.58,131.58,0,0,0,0-118.46l14.5-8.33A148.69,148.69,0,0,1,316.56,333.2Zm-24.57-82-14.41,8.25A133.18,133.18,0,0,0,175,200.34V183.68A149.87,149.87,0,0,1,292,251.23ZM208.27,133.28H125V50h83.3Z" style="fill:#fff"/></g></g></g></svg>