<?xml version="1.0" encoding="utf-8"?>
<!-- Generator: Adobe Illustrator 24.0.2, SVG Export Plug-In . SVG Version: 6.00 Build 0)  -->
<svg version="1.1" id="Capa_1" xmlns="http://www.w3.org/2000/svg" xmlns:xlink="http://www.w3.org/1999/xlink" x="0px" y="0px"
	 viewBox="0 0 512 512" style="enable-background:new 0 0 512 512;" xml:space="preserve">
<style type="text/css">
	.st0{fill:#FFFFFF;}
</style>
<g transform="translate(-1)">
	<g>
		<g>
			<path class="st0" d="M495.3,256c-5.9-82.5-54.1-156.1-127.4-194.4v-36c0-14.1-11.5-25.6-25.6-25.6H137.5
				c-14.1,0-25.6,11.5-25.6,25.6v57.8C30.5,145.6-2.2,252.7,30.7,349.8C63.5,446.8,154.6,512.1,257,512h1.1l0,0l0,0h0
				c49.5-0.1,97.8-15.7,138-44.7c0.3-0.2,0.6-0.4,0.8-0.7C464,418.2,501.2,338.5,495.3,256z M47.3,345.7
				c-29.7-85.8-4.1-181,64.6-240.3v261.5c0,14.1,11.5,25.6,25.6,25.6h106.4c-5.5,33.9-4.6,68.6,2.7,102.1
				C156,490.5,77,431.5,47.3,345.7z M248.8,332.8h-17.4v-17.1c0-2.3-0.9-4.4-2.5-6c-1.6-1.6-3.8-2.5-6-2.5c-2.3,0-4.4,0.9-6,2.5
				c-1.6,1.6-2.5,3.8-2.5,6v17.1h-17.1v-8.5c0-4.7-3.8-8.5-8.5-8.5s-8.5,3.8-8.5,8.5v8.5h-17.1v-42.7h85.7L248.8,332.8L248.8,332.8z
				 M248.8,273.1h-85.7c-9.4,0-17.1,7.6-17.1,17.1v42.7c0,9.4,7.6,17.1,17.1,17.1h85.7v16.1c-0.4,1.6-1.1,4.9-2,9.5H137.5
				c-4.7,0-8.5-3.8-8.5-8.5V25.6c0-4.7,3.8-8.5,8.5-8.5h204.8c4.7,0,8.5,3.8,8.5,8.5v335c-0.7,6.4-5.1,11.8-11.2,13.9
				c-0.4,0.1-0.8,0.2-1.2,0.4c-0.1,0-1,0.2-1.1,0.2c-1.1,0.2-2.3,0.3-3.4,0.3c-4.4-0.1-8.7-1.9-11.8-5c-3.2-3.2-5-7.5-5-12.1v-85.3
				c0-18.9-15.3-34.1-34.1-34.1S248.8,254.2,248.8,273.1z M383.8,455c-35.1,24.6-76.6,38.4-119.5,39.6c-11.3-39.3-6.2-84.8-2-109.2
				c1.7-10.1,3.3-16.4,3.3-16.4c0.2-0.7,0.3-1.4,0.3-2.1v-93.9c0-9.4,7.6-17.1,17.1-17.1s17.1,7.6,17.1,17.1v8.5v76.8
				c0,9.1,3.6,17.7,10,24.1c6.3,6.3,14.9,9.9,23.8,10c2.1,0,4.2-0.2,6.2-0.6c1.3-0.2,2.6-0.5,3.8-0.9c0.1,0,0.2-0.1,0.4-0.1
				c14.4-4.3,24.2-17.6,24.1-32.6V250.6c15.4,25.3,37.4,66.6,42,102.5c0.9,7.5-0.1,15.2-3,22.2L383.8,455z M407.1,436.3l16.3-55.6
				c3.7-9.5,5-19.7,3.8-29.8c-7.2-56.1-51.1-120.7-59.2-132.2V81c68.8,39.4,111.2,112.8,110.9,192.1
				C478.8,335.1,452.8,394.3,407.1,436.3z"/>
			<path class="st0" d="M239.9,34.1c-14.1,0-25.6,11.5-25.6,25.6c0,14.1,11.5,25.6,25.6,25.6c14.1,0,25.6-11.5,25.6-25.6
				S254.1,34.1,239.9,34.1z M239.9,68.3c-4.7,0-8.5-3.8-8.5-8.5c0-4.7,3.8-8.5,8.5-8.5c4.7,0,8.5,3.8,8.5,8.5S244.7,68.3,239.9,68.3
				z"/>
			<path class="st0" d="M212.9,128.1c-3,0.5-5.5,2.6-6.6,5.5l-17.6,47l-17.6-47c-1.1-2.9-3.6-5-6.6-5.5c-3-0.5-6.1,0.6-8,3
				c-1.9,2.4-2.5,5.6-1.4,8.5l25.6,68.3c1.2,3.3,4.4,5.5,8,5.5s6.7-2.2,8-5.5l25.6-68.3c1.1-2.9,0.6-6.1-1.4-8.5
				C219,128.7,216,127.6,212.9,128.1z"/>
			<path class="st0" d="M248.5,128c-2.3,0-4.4,0.9-6,2.5c-1.6,1.6-2.5,3.8-2.5,6v68.3c0,4.7,3.8,8.5,8.5,8.5s8.5-3.8,8.5-8.5v-68.3
				c0-2.3-0.9-4.4-2.5-6C252.9,128.9,250.7,128,248.5,128z"/>
			<path class="st0" d="M282.6,213.3c2.3,0,4.4-0.9,6-2.5c1.6-1.6,2.5-3.8,2.5-6v-25.6h8.5c14.1,0,25.6-11.5,25.6-25.6
				c0-14.1-11.5-25.6-25.6-25.6h-17.1c-2.3,0-4.4,0.9-6,2.5s-2.5,3.8-2.5,6v68.3c0,2.3,0.9,4.4,2.5,6
				C278.2,212.4,280.3,213.3,282.6,213.3z M291.1,145.1h8.5c4.7,0,8.5,3.8,8.5,8.5c0,4.7-3.8,8.5-8.5,8.5h-8.5V145.1z"/>
		</g>
	</g>
</g>
</svg>
