<?xml version="1.0" encoding="utf-8"?>
<!-- Generator: Adobe Illustrator 24.0.2, SVG Export Plug-In . SVG Version: 6.00 Build 0)  -->
<svg version="1.1" id="Capa_1" xmlns="http://www.w3.org/2000/svg" xmlns:xlink="http://www.w3.org/1999/xlink" x="0px" y="0px"
	 viewBox="0 0 512 512" style="enable-background:new 0 0 512 512;" xml:space="preserve">
<style type="text/css">
	.st0{fill:#FFFFFF;}
	.st1{fill-rule:evenodd;clip-rule:evenodd;fill:#FFFFFF;}
</style>
<g>
	<g>
		<g id="Page-1_42_">
			<g id="_x30_43---Smartphone-Spin-Wheel">
				<path id="Shape_155_" class="st0" d="M162.1,512h187.7c33,0,59.7-26.8,59.7-59.7V324.6c11.4-33.4,11.4-69.6,0-102.9V59.7
					c0-33-26.8-59.7-59.7-59.7H162.1c-33,0-59.7,26.8-59.7,59.7v161.9C91,255,91,291.2,102.4,324.6v127.7
					C102.4,485.2,129.2,512,162.1,512L162.1,512z M192.7,142.7l39.4,95.1c-4.5,3.1-8.4,6.9-11.4,11.4l-95.2-39.4
					C139.8,180.5,163.4,156.9,192.7,142.7L192.7,142.7z M256,136.3l-24.2-42.4h48.5L256,136.3z M241.6,145.5c3.1,5,8.5,8.1,14.4,8.1
					c5.9,0,11.3-3.1,14.4-8.1l8.8-15.5c8.2,1.3,16.4,3.3,24.3,6.1l-39.4,95.1c-5.3-1.1-10.9-1.1-16.2,0l-39.4-95.1
					c7.9-2.7,16-4.7,24.3-6.1L241.6,145.5z M386.5,209.8l-95.2,39.4c-3.1-4.5-6.9-8.4-11.4-11.5l39.4-95.1
					C348.6,156.9,372.2,180.5,386.5,209.8L386.5,209.8z M319.2,403.4l-39.4-95c4.5-3.1,8.4-6.9,11.4-11.4l95,39.4
					C372.1,365.5,348.5,389.2,319.2,403.4z M125.6,336.3l95-39.3c3.1,4.5,6.9,8.4,11.4,11.5l-39.3,95
					C163.5,389.2,139.9,365.5,125.6,336.3L125.6,336.3z M119.1,225.6l95.1,39.4c-1.1,5.3-1.1,10.9,0,16.2l-95.1,39.4
					C108.2,289.8,108.2,256.3,119.1,225.6L119.1,225.6z M246.2,249.5L246.2,249.5c6.3-2.6,13.3-2.6,19.5-0.1l0.1,0.1h0.2
					c6.1,2.6,11,7.5,13.6,13.6v0.2l0.1,0.1c2.6,6.2,2.6,13.2,0,19.4l-0.1,0.1v0.2c-2.6,6.1-7.5,11-13.6,13.6c-0.1,0-0.1,0-0.2,0
					l-0.1,0.1c-6.2,2.6-13.2,2.6-19.4,0l-0.1,0c-0.1,0-0.1,0-0.2,0c-6.1-2.6-11-7.5-13.6-13.6c0-0.1,0-0.1,0-0.2l-0.1-0.1
					c-2.6-6.2-2.6-13.2,0-19.4l0.1-0.1c0-0.1,0-0.1,0-0.2c2.6-6.1,7.5-11,13.6-13.6C246.1,249.5,246.1,249.5,246.2,249.5
					L246.2,249.5z M401.1,273.1c0,16.2-2.8,32.2-8.1,47.5l-95.1-39.4c1.1-5.3,1.1-10.9,0-16.2l95.1-39.4
					C398.3,240.8,401,256.9,401.1,273.1z M247.9,314.9c5.3,1.1,10.9,1.1,16.2,0l39.4,95.1c-30.7,10.9-64.2,10.9-95,0L247.9,314.9z
					 M349.9,494.9H162.1c-23.6,0-42.6-19.1-42.7-42.7v-92.1c17.8,27.9,43.8,49.8,74.3,62.6c0.1,0,0.1,0.1,0.2,0.1
					c0.1,0,0.2,0,0.3,0.1c39.5,16.4,83.9,16.4,123.4,0c0.1,0,0.2,0,0.3-0.1c0.1-0.1,0.1-0.1,0.2-0.1c30.5-12.8,56.5-34.7,74.3-62.6
					v92.1C392.5,475.8,373.4,494.9,349.9,494.9z M337.3,17.1l-6,14.9c-2.6,6.5-8.8,10.7-15.8,10.7H196.5c-7,0-13.3-4.2-15.8-10.7
					l-5.9-14.9L337.3,17.1z M156.6,17.6l8.3,20.6c5.1,13,17.7,21.5,31.7,21.5h118.9c14,0,26.5-8.5,31.7-21.5l8.3-20.6
					c21.2,2.7,37,20.7,37.1,42.1v126.1c-17.8-28-43.8-49.8-74.4-62.5l-0.1-0.1c-0.1,0-0.1,0-0.2,0c-9.6-3.9-19.5-6.9-29.7-9
					l8.5-14.9c2.6-4.5,2.6-10.1,0-14.6c-3-5-8.5-8.1-14.3-8h-52.7c-5.9-0.1-11.3,3-14.3,8c-2.7,4.5-2.7,10.1,0,14.6l8.5,14.9
					c-10.2,2-20.1,5-29.7,9c-0.1,0-0.1,0-0.2,0l-0.1,0.1c-30.6,12.8-56.6,34.6-74.4,62.6V59.7C119.5,38.4,135.4,20.4,156.6,17.6
					L156.6,17.6z"/>
				<g>
					<path id="Path_77_" class="st1" d="M349.9,452.3H162.1c-4.7,0-8.5,3.8-8.5,8.5c0,4.7,3.8,8.5,8.5,8.5h187.7
						c4.7,0,8.5-3.8,8.5-8.5C358.4,456.1,354.6,452.3,349.9,452.3L349.9,452.3z"/>
					<circle id="Oval_92_" class="st1" cx="256" cy="273.1" r="8.5"/>
				</g>
			</g>
		</g>
	</g>
</g>
</svg>
