<svg xmlns="http://www.w3.org/2000/svg" viewBox="0 0 438.87 500"><title>wheel_1</title><g id="Layer_2" data-name="Layer 2"><g id="Layer_1-2" data-name="Layer 1"><path d="M438.87,105.57a69.3,69.3,0,0,0-69.13-69.13c-26.8,0-50.91,15-62.17,39.12a188.54,188.54,0,0,0-75-34.83L245.41,13.4C248.09,7,243.26,0,237.37,0H146.8c-6.43,0-11.79,6.43-8.57,12.86l12.86,27.33C47.66,62.7-17.72,164.52,4.25,268c22,100.22,105.57,132.37,106.11,132.91v38.05h-15a30.55,30.55,0,0,0,0,61.09H288.28a30.55,30.55,0,1,0,0-61.09h-15V400.86c.54-.54,58.42-19.3,90.57-83.6,21.44-42.34,26.26-93.79,11.79-143.09,35.37-2.68,63.24-32.69,63.24-68.6ZM248.62,354.23,216.47,269c6.43-3.75,11.25-9.11,15.54-15.54l85.21,32.16C303.82,315.65,279.17,340.3,248.62,354.23ZM65.88,285.64l85.21-32.16c3.75,6.43,9.11,11.26,15.54,15.54l-32.16,85.21c-30.54-13.93-55.19-38.58-68.59-68.59Zm68.59-183.28,32.16,85.21c-6.43,3.75-11.26,9.11-15.54,15.54L65.88,171C79.28,140.41,103.93,116.29,134.47,102.36Zm48.77,7c3.75,8.58,15,5.36,16.61,0l8.58-18.75a169.35,169.35,0,0,1,22.51,4.82L198.78,180.6a35.45,35.45,0,0,0-15,0L151.62,95.39a169.35,169.35,0,0,1,22.51-4.82ZM317.75,171l-85.21,32.16c-3.75-6.43-9.11-11.26-15.54-15.54l32.16-85.21A140,140,0,0,1,317.75,171Zm12.33,57.35a141.78,141.78,0,0,1-5.9,39.65L239,235.8a35.49,35.49,0,0,0,0-15l85.2-32.15A141.8,141.8,0,0,1,330.08,228.3ZM202,255.09a29.61,29.61,0,0,1-37.52-17.15,29.13,29.13,0,0,1,17.15-37.51,29.61,29.61,0,0,1,37.52,17.15c6.43,15-3.22,32.69-17.15,37.51ZM58.91,268a133.41,133.41,0,0,1,0-79.31l85.21,32.15c-.54,3.75-.54,12.33,0,15Zm124.87,7.51a35.45,35.45,0,0,0,15,0l32.16,85.2a142.44,142.44,0,0,1-79.32,0Zm117.9-180.6a67.81,67.81,0,0,0,0,20.9,154.87,154.87,0,0,0-84.14-42.88l7-14.47c27.86,5.36,54.66,18.22,77.17,36.45Zm-79.85-76.1-30,64.31L161.27,18.76ZM299.53,470a11.9,11.9,0,0,1-11.79,11.79H94.82a11.79,11.79,0,1,1,0-23.58H287.74A11.9,11.9,0,0,1,299.53,470ZM254,409.43v30H129.11v-30C197.17,435.16,250.77,411,254,409.43Zm5.9-22.51C145.73,435.69,18.72,352.63,18.72,228.3A173.83,173.83,0,0,1,159.13,58.41l7,14.47C92.67,84.67,34.26,149,34.26,227.22c0,83.07,65.92,157,156.48,157,89.5,0,156-72.88,156.49-155.94a153.36,153.36,0,0,0-10.18-55.74,57.3,57.3,0,0,1-2.68-7,79.71,79.71,0,0,0,19.83,7.51,175.38,175.38,0,0,1,9.11,55.2c1.07,69.13-40.2,131.29-103.43,158.62ZM369.74,156c-27.33,0-50.38-22.51-50.38-50.38,0-32.69,30.55-56.8,62.7-49.3,26.8,6.43,43.41,33.76,37,61.09-5.9,22.51-26.26,38.59-49.3,38.59Z" style="fill:#fff"/></g></g></svg>