<svg xmlns="http://www.w3.org/2000/svg" xmlns:xlink="http://www.w3.org/1999/xlink" viewBox="0 0 462.31 441.34"><defs><style>.cls-1{mask:url(#mask);filter:url(#luminosity-noclip-15);}.cls-10,.cls-12,.cls-14,.cls-16,.cls-18,.cls-2,.cls-20,.cls-22,.cls-24,.cls-26,.cls-28,.cls-32,.cls-38,.cls-4,.cls-6,.cls-8{mix-blend-mode:multiply;}.cls-2{fill:url(#linear-gradient);}.cls-3{mask:url(#mask-2);filter:url(#luminosity-noclip-20);}.cls-4{fill:url(#linear-gradient-2);}.cls-5{mask:url(#mask-3);filter:url(#luminosity-noclip-21);}.cls-6{fill:url(#linear-gradient-3);}.cls-7{mask:url(#mask-4);filter:url(#luminosity-noclip-22);}.cls-8{fill:url(#linear-gradient-4);}.cls-9{mask:url(#mask-5);filter:url(#luminosity-noclip-23);}.cls-10{fill:url(#linear-gradient-5);}.cls-11{mask:url(#mask-6);filter:url(#luminosity-noclip-24);}.cls-12{fill:url(#linear-gradient-6);}.cls-13{mask:url(#mask-7);filter:url(#luminosity-noclip-16);}.cls-14{fill:url(#radial-gradient);}.cls-15{mask:url(#mask-8);filter:url(#luminosity-noclip-25);}.cls-16{fill:url(#linear-gradient-7);}.cls-17{mask:url(#mask-9);filter:url(#luminosity-noclip-26);}.cls-18{fill:url(#linear-gradient-8);}.cls-19{mask:url(#mask-10);filter:url(#luminosity-noclip-27);}.cls-20{fill:url(#linear-gradient-9);}.cls-21{mask:url(#mask-11);filter:url(#luminosity-noclip-28);}.cls-22{fill:url(#linear-gradient-10);}.cls-23{mask:url(#mask-12);filter:url(#luminosity-noclip-17);}.cls-24{fill:url(#linear-gradient-11);}.cls-25{mask:url(#mask-13);filter:url(#luminosity-noclip-18);}.cls-26{fill:url(#linear-gradient-12);}.cls-27{mask:url(#mask-14);filter:url(#luminosity-noclip-19);}.cls-28{fill:url(#linear-gradient-13);}.cls-29{isolation:isolate;}.cls-30{fill:url(#linear-gradient-14);}.cls-31{mask:url(#mask-15);}.cls-32{fill:url(#linear-gradient-15);}.cls-33,.cls-34,.cls-35,.cls-42{fill:#fff;}.cls-33,.cls-37{opacity:0.35;}.cls-33,.cls-34,.cls-37,.cls-41,.cls-71,.cls-77,.cls-79{mix-blend-mode:overlay;}.cls-34{opacity:0.49;}.cls-36{fill:url(#linear-gradient-16);}.cls-38{fill:#ac6518;opacity:0.39;}.cls-39{fill:#f7eb64;}.cls-40{mask:url(#mask-16);}.cls-41{fill:url(#radial-gradient-2);}.cls-42{opacity:0.7;}.cls-43{fill:#512303;}.cls-44{fill:#3d1900;}.cls-45{fill:#998775;}.cls-46{fill:url(#radial-gradient-3);}.cls-47,.cls-61{opacity:0.91;}.cls-48{mask:url(#mask-17);}.cls-49{fill:url(#linear-gradient-17);}.cls-50{mask:url(#mask-18);}.cls-51{fill:url(#linear-gradient-18);}.cls-52{mask:url(#mask-19);}.cls-53{fill:url(#linear-gradient-19);}.cls-54{mask:url(#mask-20);}.cls-55{fill:url(#linear-gradient-20);}.cls-56{mask:url(#mask-21);}.cls-57{fill:url(#linear-gradient-21);}.cls-58{mask:url(#mask-22);}.cls-59{fill:url(#linear-gradient-22);}.cls-60{mask:url(#mask-23);}.cls-61{fill:url(#linear-gradient-23);}.cls-62{mask:url(#mask-24);}.cls-63{fill:url(#linear-gradient-24);}.cls-64{fill:#7f6c59;opacity:0.26;}.cls-65{fill:#f2a408;}.cls-66{fill:#663d01;opacity:0.3;}.cls-67{fill:url(#linear-gradient-25);}.cls-68{fill:#2a2829;}.cls-69{fill:#f58206;}.cls-70{mask:url(#mask-25);}.cls-71{fill:url(#linear-gradient-26);}.cls-72{fill:url(#linear-gradient-27);}.cls-73{opacity:0.78;}.cls-74{mask:url(#mask-26);}.cls-75{opacity:0.31;fill:url(#linear-gradient-28);}.cls-76{mask:url(#mask-27);}.cls-77,.cls-79{opacity:0.54;}.cls-77{fill:url(#linear-gradient-29);}.cls-78{mask:url(#mask-28);}.cls-79{fill:url(#linear-gradient-30);}.cls-80{opacity:0.12;}.cls-81{filter:url(#luminosity-noclip-14);}.cls-82{filter:url(#luminosity-noclip-13);}.cls-83{filter:url(#luminosity-noclip-12);}.cls-84{filter:url(#luminosity-noclip-11);}.cls-85{filter:url(#luminosity-noclip-10);}.cls-86{filter:url(#luminosity-noclip-9);}.cls-87{filter:url(#luminosity-noclip-8);}.cls-88{filter:url(#luminosity-noclip-7);}.cls-89{filter:url(#luminosity-noclip-6);}.cls-90{filter:url(#luminosity-noclip-5);}.cls-91{filter:url(#luminosity-noclip-4);}.cls-92{filter:url(#luminosity-noclip-3);}.cls-93{filter:url(#luminosity-noclip-2);}.cls-94{filter:url(#luminosity-noclip);}</style><filter id="luminosity-noclip" x="7.4" y="-15171.97" width="453.92" height="32766" filterUnits="userSpaceOnUse" color-interpolation-filters="sRGB"><feFlood flood-color="#fff" result="bg"/><feBlend in="SourceGraphic" in2="bg"/></filter><mask id="mask" x="7.4" y="-15171.97" width="453.92" height="32766" maskUnits="userSpaceOnUse"><g class="cls-94"/></mask><linearGradient id="linear-gradient" x1="7.4" y1="328.52" x2="461.32" y2="328.52" gradientUnits="userSpaceOnUse"><stop offset="0.25"/><stop offset="1" stop-color="#fff"/></linearGradient><filter id="luminosity-noclip-2" x="276.65" y="-15171.97" width="32.38" height="32766" filterUnits="userSpaceOnUse" color-interpolation-filters="sRGB"><feFlood flood-color="#fff" result="bg"/><feBlend in="SourceGraphic" in2="bg"/></filter><mask id="mask-2" x="276.65" y="-15171.97" width="32.38" height="32766" maskUnits="userSpaceOnUse"><g class="cls-93"/></mask><linearGradient id="linear-gradient-2" x1="289.54" y1="413.46" x2="293.03" y2="354.67" gradientUnits="userSpaceOnUse"><stop offset="0.02" stop-color="#fff"/><stop offset="1"/></linearGradient><filter id="luminosity-noclip-3" x="309.03" y="-15171.97" width="29.3" height="32766" filterUnits="userSpaceOnUse" color-interpolation-filters="sRGB"><feFlood flood-color="#fff" result="bg"/><feBlend in="SourceGraphic" in2="bg"/></filter><mask id="mask-3" x="309.03" y="-15171.97" width="29.3" height="32766" maskUnits="userSpaceOnUse"><g class="cls-92"/></mask><linearGradient id="linear-gradient-3" x1="319.19" y1="415.22" x2="322.67" y2="356.43" xlink:href="#linear-gradient-2"/><filter id="luminosity-noclip-4" x="127.32" y="-15171.97" width="28.24" height="32766" filterUnits="userSpaceOnUse" color-interpolation-filters="sRGB"><feFlood flood-color="#fff" result="bg"/><feBlend in="SourceGraphic" in2="bg"/></filter><mask id="mask-4" x="127.32" y="-15171.97" width="28.24" height="32766" maskUnits="userSpaceOnUse"><g class="cls-91"/></mask><linearGradient id="linear-gradient-4" x1="137.49" y1="404.45" x2="140.98" y2="345.66" xlink:href="#linear-gradient-2"/><filter id="luminosity-noclip-5" x="120.2" y="-15171.97" width="67.07" height="32766" filterUnits="userSpaceOnUse" color-interpolation-filters="sRGB"><feFlood flood-color="#fff" result="bg"/><feBlend in="SourceGraphic" in2="bg"/></filter><mask id="mask-5" x="120.2" y="-15171.97" width="67.07" height="32766" maskUnits="userSpaceOnUse"><g class="cls-90"/></mask><linearGradient id="linear-gradient-5" x1="120.2" y1="264.05" x2="187.27" y2="264.05" xlink:href="#linear-gradient-2"/><filter id="luminosity-noclip-6" x="267.97" y="-15171.97" width="73.94" height="32766" filterUnits="userSpaceOnUse" color-interpolation-filters="sRGB"><feFlood flood-color="#fff" result="bg"/><feBlend in="SourceGraphic" in2="bg"/></filter><mask id="mask-6" x="267.97" y="-15171.97" width="73.94" height="32766" maskUnits="userSpaceOnUse"><g class="cls-89"/></mask><linearGradient id="linear-gradient-6" x1="291.75" y1="255" x2="311.56" y2="313.3" xlink:href="#linear-gradient-2"/><filter id="luminosity-noclip-7" x="0.01" y="-15171.97" width="90.74" height="32766" filterUnits="userSpaceOnUse" color-interpolation-filters="sRGB"><feFlood flood-color="#fff" result="bg"/><feBlend in="SourceGraphic" in2="bg"/></filter><mask id="mask-7" x="0.01" y="-15171.97" width="90.74" height="32766" maskUnits="userSpaceOnUse"><g class="cls-88"/></mask><radialGradient id="radial-gradient" cx="45.38" cy="123.38" r="43.84" gradientUnits="userSpaceOnUse"><stop offset="0.09" stop-color="#fff"/><stop offset="0.17" stop-color="#f6f6f6"/><stop offset="0.3" stop-color="#dedede"/><stop offset="0.45" stop-color="#b6b6b6"/><stop offset="0.64" stop-color="#7f7f7f"/><stop offset="0.85" stop-color="#393939"/><stop offset="1"/></radialGradient><filter id="luminosity-noclip-8" x="36.2" y="-15171.97" width="389.92" height="32766" filterUnits="userSpaceOnUse" color-interpolation-filters="sRGB"><feFlood flood-color="#fff" result="bg"/><feBlend in="SourceGraphic" in2="bg"/></filter><mask id="mask-8" x="36.2" y="-15171.97" width="389.92" height="32766" maskUnits="userSpaceOnUse"><g class="cls-87"/></mask><linearGradient id="linear-gradient-7" x1="200.53" y1="53.17" x2="229.07" y2="155.5" xlink:href="#linear-gradient-2"/><filter id="luminosity-noclip-9" x="64.02" y="-15171.97" width="35.21" height="32766" filterUnits="userSpaceOnUse" color-interpolation-filters="sRGB"><feFlood flood-color="#fff" result="bg"/><feBlend in="SourceGraphic" in2="bg"/></filter><mask id="mask-9" x="64.02" y="-15171.97" width="35.21" height="32766" maskUnits="userSpaceOnUse"><g class="cls-86"/></mask><linearGradient id="linear-gradient-8" x1="64.02" y1="302.18" x2="99.24" y2="302.18" xlink:href="#linear-gradient-2"/><filter id="luminosity-noclip-10" x="36.19" y="-15171.97" width="314.18" height="32766" filterUnits="userSpaceOnUse" color-interpolation-filters="sRGB"><feFlood flood-color="#fff" result="bg"/><feBlend in="SourceGraphic" in2="bg"/></filter><mask id="mask-10" x="36.19" y="-15171.97" width="314.18" height="32766" maskUnits="userSpaceOnUse"><g class="cls-85"/></mask><linearGradient id="linear-gradient-9" x1="136.39" y1="4.32" x2="226.63" y2="230.23" xlink:href="#linear-gradient-2"/><filter id="luminosity-noclip-11" x="39.3" y="-15171.97" width="276.17" height="32766" filterUnits="userSpaceOnUse" color-interpolation-filters="sRGB"><feFlood flood-color="#fff" result="bg"/><feBlend in="SourceGraphic" in2="bg"/></filter><mask id="mask-11" x="39.3" y="-15171.97" width="276.17" height="32766" maskUnits="userSpaceOnUse"><g class="cls-84"/></mask><linearGradient id="linear-gradient-10" x1="142.23" y1="19.99" x2="200.55" y2="165.99" xlink:href="#linear-gradient-2"/><filter id="luminosity-noclip-12" x="155.53" y="-15171.97" width="20.42" height="32766" filterUnits="userSpaceOnUse" color-interpolation-filters="sRGB"><feFlood flood-color="#fff" result="bg"/><feBlend in="SourceGraphic" in2="bg"/></filter><mask id="mask-12" x="155.53" y="-15171.97" width="20.42" height="32766" maskUnits="userSpaceOnUse"><g class="cls-83"/></mask><linearGradient id="linear-gradient-11" x1="162.83" y1="405.95" x2="166.32" y2="347.16" xlink:href="#linear-gradient-2"/><filter id="luminosity-noclip-13" x="189.65" y="-15171.97" width="40.81" height="32766" filterUnits="userSpaceOnUse" color-interpolation-filters="sRGB"><feFlood flood-color="#fff" result="bg"/><feBlend in="SourceGraphic" in2="bg"/></filter><mask id="mask-13" x="189.65" y="-15171.97" width="40.81" height="32766" maskUnits="userSpaceOnUse"><g class="cls-82"/></mask><linearGradient id="linear-gradient-12" x1="207.96" y1="408.63" x2="211.44" y2="349.83" xlink:href="#linear-gradient-2"/><filter id="luminosity-noclip-14" x="238.01" y="-15171.97" width="35.41" height="32766" filterUnits="userSpaceOnUse" color-interpolation-filters="sRGB"><feFlood flood-color="#fff" result="bg"/><feBlend in="SourceGraphic" in2="bg"/></filter><mask id="mask-14" x="238.01" y="-15171.97" width="35.41" height="32766" maskUnits="userSpaceOnUse"><g class="cls-81"/></mask><linearGradient id="linear-gradient-13" x1="253.22" y1="411.31" x2="256.71" y2="352.52" xlink:href="#linear-gradient-2"/><linearGradient id="linear-gradient-14" x1="225.33" y1="-23.32" x2="244.3" y2="438.56" gradientUnits="userSpaceOnUse"><stop offset="0" stop-color="#f3e036"/><stop offset="1" stop-color="#ca7c1d"/></linearGradient><filter id="luminosity-noclip-15" x="7.4" y="215.71" width="453.92" height="225.63" filterUnits="userSpaceOnUse" color-interpolation-filters="sRGB"><feFlood flood-color="#fff" result="bg"/><feBlend in="SourceGraphic" in2="bg"/></filter><mask id="mask-15" x="7.4" y="215.71" width="453.92" height="225.63" maskUnits="userSpaceOnUse"><g class="cls-1"><path class="cls-2" d="M234.37,431.44c-123.65,0-224.2-96.15-226.9-215.73,0,1.64-.07,3.29-.07,4.94,0,121.87,101.61,220.69,227,220.69s227-98.82,227-220.69c0-1.65,0-3.3-.06-4.94C458.55,335.29,358,431.44,234.37,431.44Z"/></g></mask><linearGradient id="linear-gradient-15" x1="7.4" y1="328.52" x2="461.32" y2="328.52" gradientUnits="userSpaceOnUse"><stop offset="0.25" stop-color="#f3e036"/><stop offset="1" stop-color="#d18921"/></linearGradient><linearGradient id="linear-gradient-16" x1="233.26" y1="101.02" x2="233.26" y2="424.54" gradientUnits="userSpaceOnUse"><stop offset="0" stop-color="#ca7c1d"/><stop offset="1" stop-color="#f3e036"/></linearGradient><filter id="luminosity-noclip-16" x="0.01" y="81.13" width="90.74" height="84.5" filterUnits="userSpaceOnUse" color-interpolation-filters="sRGB"><feFlood flood-color="#fff" result="bg"/><feBlend in="SourceGraphic" in2="bg"/></filter><mask id="mask-16" x="0.01" y="81.13" width="90.74" height="84.5" maskUnits="userSpaceOnUse"><g class="cls-13"><path class="cls-14" d="M45.39,81.13C20.33,81.13,0,100,0,123.39s20.32,42.24,45.38,42.24,45.36-18.93,45.36-42.24S70.43,81.13,45.39,81.13Z"/></g></mask><radialGradient id="radial-gradient-2" cx="45.38" cy="123.38" r="43.84" gradientUnits="userSpaceOnUse"><stop offset="0.09" stop-color="#fff"/><stop offset="1" stop-color="#fff"/></radialGradient><radialGradient id="radial-gradient-3" cx="231.25" cy="267.5" r="107.93" gradientTransform="translate(1.77)" gradientUnits="userSpaceOnUse"><stop offset="0" stop-color="#fff"/><stop offset="1" stop-color="#c8c8c8"/></radialGradient><filter id="luminosity-noclip-17" x="155.53" y="333.92" width="20.42" height="41.88" filterUnits="userSpaceOnUse" color-interpolation-filters="sRGB"><feFlood flood-color="#fff" result="bg"/><feBlend in="SourceGraphic" in2="bg"/></filter><mask id="mask-17" x="155.53" y="333.92" width="20.42" height="41.88" maskUnits="userSpaceOnUse"><g class="cls-23"><path class="cls-24" d="M164.51,333.92s-9.87,16.51-8.92,26.12,15.12,15.76,15.12,15.76,8-15.47,4.25-28.69A21.47,21.47,0,0,0,164.51,333.92Z"/></g></mask><linearGradient id="linear-gradient-17" x1="162.83" y1="405.95" x2="166.32" y2="347.16" gradientUnits="userSpaceOnUse"><stop offset="0.02" stop-color="#fff"/><stop offset="1" stop-color="#fff"/></linearGradient><filter id="luminosity-noclip-18" x="189.65" y="354.86" width="40.81" height="34.67" filterUnits="userSpaceOnUse" color-interpolation-filters="sRGB"><feFlood flood-color="#fff" result="bg"/><feBlend in="SourceGraphic" in2="bg"/></filter><mask id="mask-18" x="189.65" y="354.86" width="40.81" height="34.67" maskUnits="userSpaceOnUse"><g class="cls-25"><path class="cls-26" d="M196.84,354.86s-8.88,22.91-6.9,25.87,36.44,12.32,36.45,7.39,4.17-15.77,4.07-21.19S204.72,356.59,196.84,354.86Z"/></g></mask><linearGradient id="linear-gradient-18" x1="207.96" y1="408.63" x2="211.44" y2="349.83" xlink:href="#linear-gradient-17"/><filter id="luminosity-noclip-19" x="238.01" y="358.34" width="35.41" height="29.82" filterUnits="userSpaceOnUse" color-interpolation-filters="sRGB"><feFlood flood-color="#fff" result="bg"/><feBlend in="SourceGraphic" in2="bg"/></filter><mask id="mask-19" x="238.01" y="358.34" width="35.41" height="29.82" maskUnits="userSpaceOnUse"><g class="cls-27"><path class="cls-28" d="M238,360.53s.72,20.2,6.14,23.65,27.11,6.9,28.59,0,.49-18.72-2.46-23.65S238,360.53,238,360.53Z"/></g></mask><linearGradient id="linear-gradient-19" x1="253.22" y1="411.31" x2="256.71" y2="352.52" xlink:href="#linear-gradient-17"/><filter id="luminosity-noclip-20" x="276.65" y="337.26" width="32.38" height="37.35" filterUnits="userSpaceOnUse" color-interpolation-filters="sRGB"><feFlood flood-color="#fff" result="bg"/><feBlend in="SourceGraphic" in2="bg"/></filter><mask id="mask-20" x="276.65" y="337.26" width="32.38" height="37.35" maskUnits="userSpaceOnUse"><g class="cls-3"><path class="cls-4" d="M276.68,358.34s10.85,14.26,13.06,16,12.82-4.93,17.5-10.6-1-21.68-3.7-25.87S275.64,352.3,276.68,358.34Z"/></g></mask><linearGradient id="linear-gradient-20" x1="289.54" y1="413.46" x2="293.03" y2="354.67" xlink:href="#linear-gradient-17"/><filter id="luminosity-noclip-21" x="309.03" y="317.64" width="29.3" height="38.36" filterUnits="userSpaceOnUse" color-interpolation-filters="sRGB"><feFlood flood-color="#fff" result="bg"/><feBlend in="SourceGraphic" in2="bg"/></filter><mask id="mask-21" x="309.03" y="317.64" width="29.3" height="38.36" maskUnits="userSpaceOnUse"><g class="cls-5"><path class="cls-6" d="M338.29,345.5c-1-3.7-9-28.58-14.61-27.84S309,332.94,309,332.94s9.79,22.09,11.52,23S339.28,349.2,338.29,345.5Z"/></g></mask><linearGradient id="linear-gradient-21" x1="319.19" y1="415.22" x2="322.67" y2="356.43" xlink:href="#linear-gradient-17"/><filter id="luminosity-noclip-22" x="127.32" y="319.14" width="28.24" height="36.84" filterUnits="userSpaceOnUse" color-interpolation-filters="sRGB"><feFlood flood-color="#fff" result="bg"/><feBlend in="SourceGraphic" in2="bg"/></filter><mask id="mask-22" x="127.32" y="319.14" width="28.24" height="36.84" maskUnits="userSpaceOnUse"><g class="cls-7"><path class="cls-8" d="M141.14,319.14s-13.31,20.45-13.8,22.91,8.13,12.73,10.84,13.88,16.45-17.82,17.35-22S141.14,319.14,141.14,319.14Z"/></g></mask><linearGradient id="linear-gradient-22" x1="137.49" y1="404.45" x2="140.98" y2="345.66" xlink:href="#linear-gradient-17"/><filter id="luminosity-noclip-23" x="120.2" y="212.07" width="67.07" height="103.96" filterUnits="userSpaceOnUse" color-interpolation-filters="sRGB"><feFlood flood-color="#fff" result="bg"/><feBlend in="SourceGraphic" in2="bg"/></filter><mask id="mask-23" x="120.2" y="212.07" width="67.07" height="103.96" maskUnits="userSpaceOnUse"><g class="cls-9"><path class="cls-10" d="M187.27,212.21s-24.82,14.18-26.69,48.56,21.68,40.36,23.55,43.35-26.32,16.81-42.69,10.08-26.71-19.83-18.18-50.08S153,210,187.27,212.21Z"/></g></mask><linearGradient id="linear-gradient-23" x1="120.2" y1="264.05" x2="187.27" y2="264.05" xlink:href="#linear-gradient-17"/><filter id="luminosity-noclip-24" x="267.97" y="245.72" width="73.94" height="71.68" filterUnits="userSpaceOnUse" color-interpolation-filters="sRGB"><feFlood flood-color="#fff" result="bg"/><feBlend in="SourceGraphic" in2="bg"/></filter><mask id="mask-24" x="267.97" y="245.72" width="73.94" height="71.68" maskUnits="userSpaceOnUse"><g class="cls-11"><path class="cls-12" d="M313.53,251.8s12.93,23.45,4.56,32.84S286.93,299.83,275.34,299s-13.47,24.48,24.28,17,43.48-11.86,42.11-33.21S309.87,233.12,313.53,251.8Z"/></g></mask><linearGradient id="linear-gradient-24" x1="291.75" y1="255" x2="311.56" y2="313.3" xlink:href="#linear-gradient-17"/><linearGradient id="linear-gradient-25" x1="95.6" y1="151.83" x2="69.73" y2="379.31" gradientUnits="userSpaceOnUse"><stop offset="0.02" stop-color="#00000f"/><stop offset="1" stop-color="#010733"/></linearGradient><filter id="luminosity-noclip-25" x="36.2" y="32.08" width="389.92" height="135.71" filterUnits="userSpaceOnUse" color-interpolation-filters="sRGB"><feFlood flood-color="#fff" result="bg"/><feBlend in="SourceGraphic" in2="bg"/></filter><mask id="mask-25" x="36.2" y="32.08" width="389.92" height="135.71" maskUnits="userSpaceOnUse"><g class="cls-15"><path class="cls-16" d="M37.85,158.66c4.49-17.2,34.45-17,52.47-20.14s36-21.19,46.63-48.74,46.11-50.86,59.35-50.86l34.63,39.74,34.62-39.74c13.25,0,48.77,23.32,59.36,50.86s28.62,45.56,46.63,48.74,47.09,3.2,52.47,20.14a44.26,44.26,0,0,1,1.93,9.12,39.1,39.1,0,0,0-1.93-16c-5.38-16.94-34.45-17-52.47-20.13s-36-21.19-46.63-48.75S278.8,32.08,265.55,32.08L230.93,71.81,196.3,32.08c-13.24,0-48.75,23.31-59.35,50.85s-28.61,45.57-46.63,48.75-48,2.93-52.47,20.13a44.85,44.85,0,0,0-1.5,15.48A50.84,50.84,0,0,1,37.85,158.66Z"/></g></mask><linearGradient id="linear-gradient-26" x1="200.53" y1="53.17" x2="229.07" y2="155.5" xlink:href="#linear-gradient-17"/><linearGradient id="linear-gradient-27" x1="83.03" y1="142.16" x2="370.77" y2="142.16" gradientUnits="userSpaceOnUse"><stop offset="0.02" stop-color="#00000f"/><stop offset="0.52" stop-color="#010733"/><stop offset="1" stop-color="#000113"/></linearGradient><filter id="luminosity-noclip-26" x="64.02" y="257.92" width="35.21" height="88.54" filterUnits="userSpaceOnUse" color-interpolation-filters="sRGB"><feFlood flood-color="#fff" result="bg"/><feBlend in="SourceGraphic" in2="bg"/></filter><mask id="mask-26" x="64.02" y="257.92" width="35.21" height="88.54" maskUnits="userSpaceOnUse"><g class="cls-17"><path class="cls-18" d="M64.27,257.92a69.42,69.42,0,0,0,5.58,33.24c7.61,17.48,21.56,46.13,19.28,53.49s16.74-8.37,7.61-36.27S64.27,257.92,64.27,257.92Z"/></g></mask><linearGradient id="linear-gradient-28" x1="64.02" y1="302.18" x2="99.24" y2="302.18" xlink:href="#linear-gradient-17"/><filter id="luminosity-noclip-27" x="36.19" y="32.75" width="314.18" height="175.42" filterUnits="userSpaceOnUse" color-interpolation-filters="sRGB"><feFlood flood-color="#fff" result="bg"/><feBlend in="SourceGraphic" in2="bg"/></filter><mask id="mask-27" x="36.19" y="32.75" width="314.18" height="175.42" maskUnits="userSpaceOnUse"><g class="cls-19"><path class="cls-20" d="M350.37,121.72c-10.09-8.52-19.11-21.6-25.46-38.12-10.59-27.54-46.11-50.85-59.36-50.85L230.93,72.48,196.3,32.75c-13.24,0-48.75,23.31-59.35,50.85s-28.61,45.57-46.63,48.75-48,2.93-52.47,20.13c-2.53,9.71-2,17.59.39,24,1.17,4.41,4.15,9.32,8,14.24,31.1,11.08,67.49,17.46,106.39,17.46C245.51,208.16,324.13,171.8,350.37,121.72Z"/></g></mask><linearGradient id="linear-gradient-29" x1="136.39" y1="4.32" x2="226.63" y2="230.23" xlink:href="#linear-gradient-17"/><filter id="luminosity-noclip-28" x="39.3" y="32.75" width="276.17" height="124.81" filterUnits="userSpaceOnUse" color-interpolation-filters="sRGB"><feFlood flood-color="#fff" result="bg"/><feBlend in="SourceGraphic" in2="bg"/></filter><mask id="mask-28" x="39.3" y="32.75" width="276.17" height="124.81" maskUnits="userSpaceOnUse"><g class="cls-21"><path class="cls-22" d="M115.77,157.56c95.35,0,175.63-38.3,199.7-90.42-15-19.77-39.42-34.39-49.92-34.39L230.93,72.48,196.3,32.75c-13.24,0-48.75,23.31-59.35,50.85s-28.61,45.57-46.63,48.75c-16.66,2.93-43.52,3-51,16.54A333.71,333.71,0,0,0,115.77,157.56Z"/></g></mask><linearGradient id="linear-gradient-30" x1="142.23" y1="19.99" x2="200.55" y2="165.99" xlink:href="#linear-gradient-17"/></defs><title>affliate</title><g class="cls-29"><g id="Layer_2" data-name="Layer 2"><g id="Layer_31" data-name="Layer 31"><g id="Layer_9" data-name="Layer 9"><path class="cls-30" d="M235.35,0C110,0,8.39,98.79,8.39,220.65S110,441.34,235.35,441.34s227-98.82,227-220.69S360.68,0,235.35,0Z"/><g class="cls-31"><path class="cls-32" d="M234.37,431.44c-123.65,0-224.2-96.15-226.9-215.73,0,1.64-.07,3.29-.07,4.94,0,121.87,101.61,220.69,227,220.69s227-98.82,227-220.69c0-1.65,0-3.3-.06-4.94C458.55,335.29,358,431.44,234.37,431.44Z"/></g><path class="cls-33" d="M235.35,0C110,0,8.39,98.79,8.39,220.65c0,2.7.12,5.33.23,8,57.8,50.41,137.4,81.58,225.26,81.58,89.41,0,170.24-32.27,228.28-84.26,0-1.79.15-3.52.15-5.32C462.31,98.79,360.68,0,235.35,0Z"/><path class="cls-34" d="M416.47,87.12C375,34.19,309.54,0,235.83,0,161.56,0,95.62,34.71,54.22,88.32c51.31,30.8,113.34,48.84,180.15,48.84C302.06,137.16,364.78,118.66,416.47,87.12Z"/><path class="cls-34" d="M235.35,12.63c123.16,0,223.33,95.42,226.78,214.34.08-2.09.18-4.19.18-6.32C462.31,98.79,360.68,0,235.35,0S8.4,98.79,8.4,220.65c0,2.13.11,4.23.17,6.32C12,108.05,112.19,12.63,235.35,12.63Z"/><path class="cls-35" d="M204.87,14.51c10.57-.81,21.45,3.21,16.18,7.8S180,47.5,164.47,34.77,192.45,15.46,204.87,14.51Z"/><path class="cls-35" d="M82.08,70.61C49,98.44,22.29,149.83,23,179.87s16.72-17.09,25-34.18,49.71-69.22,79.74-85S133.78,27.11,82.08,70.61Z"/><path class="cls-36" d="M233.27,29.63c-106.38,0-192.61,83.85-192.61,187.26s86.23,187.26,192.61,187.26,192.58-83.84,192.58-187.26S339.64,29.63,233.27,29.63Z"/><g class="cls-37"><path class="cls-35" d="M233,416.63c-112.14,0-203.38-88.82-203.38-198s91.24-198,203.38-198,203.37,88.82,203.37,198S345.09,416.63,233,416.63Zm0-378c-102.23,0-185.41,80.76-185.41,180s83.18,180,185.41,180,185.39-80.75,185.39-180S335.18,38.61,233,38.61Z"/></g><path class="cls-38" d="M233.27,29.63A194.51,194.51,0,0,0,90.75,91,194.86,194.86,0,0,1,221.8,40.9c106.35,0,192.57,83.82,192.57,187.25,0,48.51-18.95,92.7-50.08,126,37.88-34.2,61.56-83,61.56-137.22C425.85,113.48,339.64,29.63,233.27,29.63Z"/><path class="cls-38" d="M113.31,327.65c0-120.84,86.22-187.24,192.58-187.24A195.23,195.23,0,0,1,421.64,178C403.24,93.25,325.89,29.63,233.23,29.63c-106.36,0-192.58,83.85-192.58,187.26,0,61.2,30.18,115.51,76.83,149.68A184.23,184.23,0,0,1,113.31,327.65Z"/><path class="cls-39" d="M233.27,393.94c-104.51,0-189.51-81-192.43-181.9-.08,1.8-.18,3.57-.18,5.39,0,103.43,86.23,187.25,192.61,187.25s192.58-83.82,192.58-187.25c0-1.82-.08-3.59-.14-5.39C422.76,313,337.78,393.94,233.27,393.94Z"/><g class="cls-40"><path class="cls-41" d="M45.39,81.13C20.33,81.13,0,100,0,123.39s20.32,42.24,45.38,42.24,45.36-18.93,45.36-42.24S70.43,81.13,45.39,81.13Z"/></g><path class="cls-42" d="M4,179c12.18-13.67,48-55.6,48-55.6s29.9-56.12,30.63-57.7c.2-.45-38.22,52.77-38.22,52.77Z"/><path class="cls-35" d="M55.25,113.34c-11-8.63-9-32.88-9.11-39.75v6.58c0-1-.08-2.18-.08-2.43V73.59a76.82,76.82,0,0,1-.62,8.69s-3.23,24.35-9.07,29.37C23.23,123.18-9.84,121,2.84,121.25c42.84.93,42.84,42.73,43.22,56.44v-6.9c0,.5.08.91.08,1.15v5.75c.91-32.45.79-53,38.16-55.74C96.68,121,68.16,123.39,55.25,113.34Z"/><ellipse class="cls-43" cx="232.32" cy="256.65" rx="85.77" ry="77.27"/><ellipse class="cls-44" cx="207.97" cy="277.8" rx="35.23" ry="42.01"/><ellipse class="cls-44" cx="298.46" cy="277.8" rx="35.23" ry="42.01"/><path class="cls-45" d="M351.56,287.8c1.38-25-13.87-119.93-113.64-127.88-2-.17-4.14-.26-6.62-.29-1.1,0-2.27,0-3.36,0-2.5,0-4.61.12-6.64.29-99.77,8-115,102.89-113.65,127.88,1.48,26.88,13.24,30.38,15.56,30.8l8.6,2.09c-4.93,7.84-11.94,19.63-12.27,23.9-.17,2.26.72,5.7,9.2,12.32,3.84,3,13.2,9.83,17.15,8.51.8-.26,1.47-.49,2.69-2.27.29,3.08,1.7,6.46,5.72,9.48,2.06,1.54,3.77,3.07,5.29,4.42,4,3.58,7.48,6.67,13.58,6.67,3.18,0,6.44-2.31,9.42-5.5a40.86,40.86,0,0,0-.59,5.09c0,9,25.44,12.37,34.7,12.61,1.74,0,3.3.06,4.72.06,7.06,0,10.25-.63,12.22-2.87s1.56-5.14,1.26-7a16.88,16.88,0,0,1,.29-3.79,17.14,17.14,0,0,1,.46,4.16,6.8,6.8,0,0,0,1.45,5.79c2.9,3.3,8.27,3.17,21.23,2.84,15.58-.39,24.88-4.78,24.88-11.76a39,39,0,0,0-.59-5.09c3,3.19,6.25,5.5,9.43,5.5,6.1,0,9.57-3.09,13.58-6.67,1.52-1.35,3.23-2.88,5.29-4.42,4-3,5.43-6.4,5.71-9.48,1.23,1.78,1.9,2,2.7,2.27,3.95,1.32,13.31-5.52,17.16-8.52,8.47-6.62,9.36-10,9.19-12.31-.35-4.5-8.13-17.39-13.07-25.16l3.39-.82C338.33,318.18,350.08,314.68,351.56,287.8ZM241.9,321a17.25,17.25,0,0,1-1.34,2c-1.67-3.34-3.25-13.08-3.95-24.06C244.37,304.32,249.23,308.19,241.9,321Zm60.19-41.58c-6.95,7.9-24.66,9.6-38.57,7.2a10.64,10.64,0,0,1-7.44-4.61c-6.16-9.06-2-28.69-.28-37.07.23-1.1.43-2,.58-2.84,1-5,4.31-11.5,9.39-14,3.11-1.54,6.46-1.37,10.25.52.19.1,19.53,10,28,37.66C305.72,271.73,305.08,276,302.09,279.43ZM209.5,269.5C201.79,283.13,190.74,291.75,182,291c-6.7-.6-10.17-6.65-11.91-11.62-4.3-12.31-2-29.78,5.81-43.48,5.46-9.64,12.79-15.84,20.62-17.45a27.9,27.9,0,0,1,5.72-.64c5.21,0,9.19,1.84,11.85,5.5C220.88,232.62,218.87,252.92,209.5,269.5ZM222.61,299c-.7,11-2.28,20.72-4,24.06a16.06,16.06,0,0,1-1.34-2C210,308.19,214.85,304.31,222.61,299Z"/><path class="cls-46" d="M335.54,314.94s11.16-1.47,12.59-27.34-14.84-116.35-110.22-124c-2.16-.17-4.29-.25-6.39-.28l-1.62,0-1.61,0c-2.1,0-4.23.11-6.4.28-95.37,7.61-111.63,98.09-110.21,124s12.59,27.34,12.59,27.34l13.8,3.36s-14.14,21.77-14.51,26.58,19.23,17.74,21.44,17,15.53-32.52,13.31-27-4.43,15.89-4.43,19.22-4.44,10,3,15.52,10,10.34,16.64,10.34,16.63-19.21,16.63-19.21S186,379.62,186,383.31s16.26,8.5,31.05,8.87,15.15-.74,14.42-5.54c-.5-3.21,2-14.34,3.68-21.37,2,7.26,4.94,18.55,4.45,21.74-.74,4.8,4.1,4.7,18.89,4.33s21.24-4.33,21.24-8-4.06-22.54-4.06-22.54,10,19.21,16.63,19.21,9.24-4.8,16.64-10.34,2.95-12.2,2.95-15.52-2.21-13.68-4.43-19.22,11.09,26.24,13.3,27,21.82-12.2,21.45-17-14.51-26.58-14.51-26.58a18.19,18.19,0,0,1,1.67-1.87Zm-168.7-34.36c-8.13-23.28,5.86-61,29.2-65.82,30.68-6.33,31.42,31.08,17,56.58S175,303.86,166.84,280.58Zm47.53,42.28c-11.46-20,4-24.05,12.6-31.49C227,291.37,225.83,342.91,214.37,322.86Zm31.07,0c-11.46,20.05-12.6-31.49-12.6-31.49C241.43,298.81,256.9,302.82,245.44,322.86Zm17.74-32.54c-21.44-3.7-12-39.31-10.17-48.92s10.91-23.15,25-16.13c0,0,20.81,10.22,29.94,39.92C315.07,288.47,284.62,294,263.18,290.32Z"/><path class="cls-35" d="M128.11,346.12c.37-4.8,14.51-26.57,14.51-26.57l-4.88-1.19c-.78,1.2-14.11,21.85-14.47,26.52s19.22,17.74,21.44,17a1.48,1.48,0,0,0,.49-.44C138.77,357.89,127.84,349.72,128.11,346.12Z"/><path class="cls-35" d="M242.42,326.51c1.81,3.2,4.26,3.39,7.57-2.4,11.46-20.05-4-24.05-12.6-31.5,0,0,0,.91.08,2.43,8.23,5.65,17.14,11.26,7.67,27.82A14.63,14.63,0,0,1,242.42,326.51Z"/><path class="cls-35" d="M127.7,315.85c-2.86-1.16-10.32-6.17-11.47-27C114.81,263,131.07,172.49,226.44,164.89c2.17-.18,4.3-.25,6.4-.28l1.61,0,1.61,0c2.11,0,4.24.1,6.4.28a140.41,140.41,0,0,1,20.77,3.19,136.23,136.23,0,0,0-25.61-4.44c-2.17-.17-4.3-.25-6.4-.28l-1.61,0-1.61,0c-2.11,0-4.23.11-6.4.28-95.37,7.61-111.64,98.09-110.21,124S124,314.94,124,314.94Z"/><path class="cls-35" d="M217.6,272.59c12.74-22.54,13.63-54.37-7.53-57.09,16.09,6.7,14.37,35.18,2.68,55.84-8.78,15.54-21,24.2-31,23.34C192.4,299.51,207.34,290.73,217.6,272.59Z"/><path class="cls-35" d="M220.62,326.66c9.87,12.25,10.9-34.05,10.9-34.05a59,59,0,0,1-5,3.76C226,305.12,224.63,322.67,220.62,326.66Z"/><path class="cls-35" d="M312.46,266.43c-9.13-29.7-29.94-39.91-29.94-39.91a17.66,17.66,0,0,0-6.24-1.88c.46.19.92.4,1.4.63,0,0,20.81,10.22,29.94,39.92,7,22.87-22.22,28.61-43.58,25.31a16.74,16.74,0,0,0,3.69,1.06C289.17,295.26,319.62,289.72,312.46,266.43Z"/><path class="cls-35" d="M280.26,362s-5.82-5.87-4.81-.72c7.73,13.31,13.61,18.69,16.6,18.69a13.11,13.11,0,0,0,1.43-.08C287.29,375.55,280.26,362,280.26,362Z"/><path class="cls-35" d="M312.05,336.14c-3-4.93-4.88-5.4-4.8-1.89,1.84,3.72,12.62,27.41,13.26,27.63.44.15,1.6-.26,3.14-1C319.42,353.52,314.68,340.46,312.05,336.14Z"/><path class="cls-35" d="M190.87,384.3c0-3.7,4.06-22.55,4.06-22.55s1.3-16.24-2.83-10.8c-.77,4.08-6.08,30.64-6.08,32.1,0,2.28,6.2,5,14.41,6.8C194.74,388.17,190.87,386.1,190.87,384.3Z"/><path class="cls-35" d="M244.19,388.25c.49-3.18-2.43-14.47-4.46-21.73-2.9-10.59-4.6-8.61-5.27-5.36,1.15,4.87,5.16,24,4.88,25.85-.45,2.91,1.18,4,5.81,4.35A3,3,0,0,1,244.19,388.25Z"/><path class="cls-35" d="M161.38,370.88c-7.39-5.54-3.65-12.27-2.95-15.52C165,324.5,161.22,326,160.7,327.6c-1.87,5.79-5.17,10.89-7.89,30.36-.83,3.44-1.41,7.82,3.73,11.68,7.22,5.42,9.87,10.11,16.2,10.33C169.3,378.18,166.48,374.71,161.38,370.88Z"/><g class="cls-47"><g class="cls-48"><path class="cls-49" d="M164.51,333.92s-9.87,16.51-8.92,26.12,15.12,15.76,15.12,15.76,8-15.47,4.25-28.69A21.47,21.47,0,0,0,164.51,333.92Z"/></g><g class="cls-50"><path class="cls-51" d="M196.84,354.86s-8.88,22.91-6.9,25.87,36.44,12.32,36.45,7.39,4.17-15.77,4.07-21.19S204.72,356.59,196.84,354.86Z"/></g><g class="cls-52"><path class="cls-53" d="M238,360.53s.72,20.2,6.14,23.65,27.11,6.9,28.59,0,.49-18.72-2.46-23.65S238,360.53,238,360.53Z"/></g><g class="cls-54"><path class="cls-55" d="M276.68,358.34s10.85,14.26,13.06,16,12.82-4.93,17.5-10.6-1-21.68-3.7-25.87S275.64,352.3,276.68,358.34Z"/></g><g class="cls-56"><path class="cls-57" d="M338.29,345.5c-1-3.7-9-28.58-14.61-27.84S309,332.94,309,332.94s9.79,22.09,11.52,23S339.28,349.2,338.29,345.5Z"/></g><g class="cls-58"><path class="cls-59" d="M141.14,319.14s-13.31,20.45-13.8,22.91,8.13,12.73,10.84,13.88,16.45-17.82,17.35-22S141.14,319.14,141.14,319.14Z"/></g></g><g class="cls-60"><path class="cls-61" d="M187.27,212.21s-24.82,14.18-26.69,48.56,21.68,40.36,23.55,43.35-26.32,16.81-42.69,10.08-26.71-19.83-18.18-50.08S153,210,187.27,212.21Z"/></g><g class="cls-62"><path class="cls-63" d="M313.53,251.8s12.93,23.45,4.56,32.84S286.93,299.83,275.34,299s-13.47,24.48,24.28,17,43.48-11.86,42.11-33.21S309.87,233.12,313.53,251.8Z"/></g><path class="cls-64" d="M290.18,179.22c11.37,26.56,32.28,82.14,23.35,113.57-12,42.34-28.44,34.34-20,87.11a0,0,0,0,0,0,0c5.83-.52,8.53-5.08,15.49-10.29,7.39-5.55,2.95-12.2,2.95-15.52s-2.21-13.68-4.43-19.22,11.09,26.24,13.31,27,21.81-12.2,21.44-17-14.51-26.58-14.51-26.58a18.19,18.19,0,0,1,1.67-1.87l6.13-1.49s11.16-1.47,12.59-27.34C349.24,267.44,339.6,208.07,290.18,179.22Z"/><path class="cls-64" d="M153.79,351.66c2.09-7.67,4-15.18,5-19.69,2.75-12.14-2.75-12.53-16.46-21.3s-13.7-28.85-14.2-52c-.35-16.38-2.78-24.51-4.18-27.88-10.57,23.07-13.18,45.82-12.57,56.85,1.42,25.87,12.58,27.34,12.58,27.34l13.81,3.36s-14.14,21.77-14.51,26.58,19.22,17.74,21.44,17,15.52-32.52,13.31-27A84.93,84.93,0,0,0,153.79,351.66Z"/><path d="M428.56,164c0-.58,0-1.18-.06-1.79l0-.47c0-.49-.07-1-.13-1.49l-.07-.63c-.06-.46-.13-.92-.2-1.39l-.12-.71q-.12-.69-.27-1.38l0-.18-.12-.56c-.11-.49-.23-1-.36-1.48l-.05-.2-.12-.47c-.2-.72-.41-1.45-.64-2.19-2.33-7.34-8.67-12.51-19.37-15.8-1.8-.55-3.71-1.05-5.86-1.53-1.28-.29-2.63-.56-4-.82s-2.71-.48-4.08-.69c-3.41-.54-6.83-1-10.13-1.4-3.91-.51-7.6-1-10.91-1.57-9.51-1.67-19-7.73-27.49-17.5-.53-.61-1.06-1.23-1.58-1.87-.92-1.14-1.85-2.35-2.75-3.58A105.4,105.4,0,0,1,327.2,82.05c-11-28.69-47.63-52.42-61.65-52.42h-1.11L230.93,68.08,197.42,29.63H196.3a23.25,23.25,0,0,0-6.63,1.16c-16.34,5-45.33,26.13-55,51.26-5.34,13.89-12.77,25.7-21.48,34.17-.55.53-1.11,1-1.67,1.56a58.76,58.76,0,0,1-5.49,4.4l-1,.66c-.66.45-1.32.87-2,1.27q-1.91,1.15-3.75,2a36.45,36.45,0,0,1-9.45,3.11c-1.5.27-3.22.53-5.25.81-1.24.17-2.51.33-3.81.49l-4,.5c-2,.25-4.08.51-6.14.8-1.38.2-2.77.41-4.14.63s-2.82.48-4.12.74c-10.09,2-23.86,6-27,18-.19.74-.37,1.47-.52,2.18l-.11.51c-.11.56-.23,1.11-.33,1.65l-.07.48c-.1.55-.19,1.1-.26,1.65l0,.37c-.07.57-.14,1.13-.19,1.7l0,.26c-.05.59-.09,1.18-.12,1.75v.17c0,.61,0,1.22,0,1.9v.12a36.6,36.6,0,0,0,2.16,13.28c1.17,4.31,4,9.35,8.38,15l.44.56.73.26c8.41,10.34,20.05,20.41,26.71,25.85-10.66,12.44-25.35,35.36-15.79,59.32l1,2.64c.11.33.23.68.33,1l.13.41c.12.38.24.77.35,1.16l.08.26a129.47,129.47,0,0,1,4.09,24.09l0,.56h0C66,352.23,50.22,363,50.22,363s7.07-.09,8.43-.32l.58-.11.61-.12.18,0,.8-.17.11,0,.92-.24.11,0,1-.29.1,0,1.06-.34.11,0,1.09-.39.13,0c.4-.15.8-.3,1.28-.5l1.21-.53.2-.09a35.12,35.12,0,0,0,8.24-5.31l.08-.06c.41-.37.83-.75,1.25-1.15l.2-.2c.36-.36.73-.73,1.08-1.11l.3-.34.46-.51c-.12,6.07-1.6,10.87-4.48,14.58l-10.11,13,13.46-9.53c.37-.25,36.29-26.17,25.39-61.2-7.25-23.29-12.91-56.06-13.63-78.21,9.43,3.54,23.89,6.73,43.57,5,9-.8,16-4.28,24.21-8.3,14-6.89,31.43-15.46,68.5-15.46,35.86,0,51.75,8.5,64.51,15.34,7.35,3.93,14.3,7.64,23.46,8.92a123,123,0,0,0,28.7.68c.67-.06,1.34-.13,2-.21l.73-.08,1.95-.25.46-.07c2.06-.29,4.11-.64,6.1-1l.37-.07,1.89-.4.19-.05c1.92-.43,3.82-.91,5.64-1.42l.12,0,1.8-.53c2.21-.67,4.39-1.42,6.48-2.21q2.74-1,5.34-2.23c1.09-.5,2.13-1,3.14-1.52l.81-.41.17-.1c.77-.4,1.44-.78,2-1.12l1.92-1.17-1.35-2.05,1.47,2-1.34-2.06-1.48-1.95-1.57,1,1.23,2.11-1.37-2c-.52.3-1.14.64-1.82,1l-.17.08-.82.43c-.89.45-1.87.92-3,1.42-1.57.72-3.25,1.42-5,2.08q-3,1.14-6.2,2.11c-.54.17-1.09.33-1.66.49l.67,2.36-.78-2.33c-1.74.49-3.55.95-5.39,1.36l-.17,0-1.8.39-.35.06c-1.91.39-3.87.72-5.84,1l-.45.07-1.85.23-.69.08-1.91.21a118.09,118.09,0,0,1-27.55-.66c-8.3-1.16-14.57-4.51-21.82-8.39-13.25-7.1-29.74-15.92-66.83-15.92-38.21,0-56.2,8.85-70.66,16-8.06,4-14.42,7.09-22.49,7.81-21.27,1.91-36-2.21-44.67-6l-3.46-1.52,0,3.78c.16,22.48,6.14,58.3,13.93,83.32C106,330.68,93.13,348.48,84,357.9a45.07,45.07,0,0,0,.28-14.38l-.93-7.65-3.66,6.78-.24.42c-.19.35-.39.68-.6,1s-.21.35-.32.53l-.66,1-.32.45c-.24.32-.48.64-.72.94l-.3.37c-.27.33-.54.64-.82.94l-.25.29c-.31.32-.62.64-.92.93l-.18.18c-.35.34-.7.67-1.06,1l-.13.11a30.16,30.16,0,0,1-7.06,4.52l-.09,0c-.37.18-.75.34-1.18.52s-.7.28-1.13.44l-.52.19c5.07-11.07,5.44-33.77,4.13-49.12l0-.47v0A133.52,133.52,0,0,0,63,282.32l-.09-.29c-.12-.41-.24-.83-.37-1.23l-.13-.44c-.12-.37-.24-.74-.39-1.17l-1.09-2.82c-9-22.57,6.34-44.67,16.29-55.83l1.4-1.57-1.34-1.62a11,11,0,0,1-.86-1.19l-.21-.33-.31-.25c-6.49-5.26-18.64-15.66-27.06-26.18l-.44-.54-.69-.24c-3.77-4.93-6.15-9.23-7.09-12.78l-.08-.23A31.62,31.62,0,0,1,38.65,164v-.1l-2.45,0,2.45-.14c0-.53,0-1.07,0-1.64V162c0-.51.06-1,.11-1.57l0-.24c0-.5.1-1,.17-1.51l0-.35c.07-.49.15-1,.24-1.49l.07-.43c.09-.49.19-1,.3-1.5l.09-.46c.15-.66.31-1.33.49-2,1.87-7.18,9-11.62,23.19-14.4,1.24-.24,2.58-.48,4-.7s2.69-.42,4-.61c2-.29,4.07-.55,6.06-.8l4-.49,3.85-.5c2.1-.29,3.88-.56,5.44-.84a41.39,41.39,0,0,0,10.78-3.55c1.32-.64,2.7-1.39,4.1-2.24.74-.44,1.46-.91,2.18-1.39l1.06-.72a64.18,64.18,0,0,0,6-4.78c.6-.55,1.2-1.1,1.79-1.68,9.22-9,17.05-21.37,22.64-35.92C148,61,175.36,40.29,191.1,35.47a22.69,22.69,0,0,1,4.14-.89l35.69,41,35.69-41c13.33,1.19,46.1,23.48,56,49.23a110.44,110.44,0,0,0,13.56,25.38c1,1.31,1.94,2.58,2.92,3.79.55.68,1.11,1.34,1.67,2,9.22,10.63,19.72,17.24,30.35,19.12,3.42.6,7.17,1.09,11.13,1.6,3.27.42,6.66.85,10,1.38,1.33.21,2.65.43,3.95.67s2.64.51,3.86.78c2,.45,3.8.92,5.48,1.44,9,2.78,14.33,6.9,16.14,12.59.21.67.4,1.33.58,2l.15.6c.12.45.23.9.33,1.34l.09.47,0,.19c.09.41.17.83.24,1.23l.11.64c.06.41.12.82.17,1.23l.07.56c.05.43.08.87.11,1.29l0,.43c0,.52,0,1,.06,1.52v.15a27.46,27.46,0,0,1-3.07,13.07l-.1.22c-6.66,16.67-36.56,39.76-38.41,41.18l-.19.13,1.36,2,1.43,2,.27-.18c1.33-1,32.62-24.85,40-43.22a32.31,32.31,0,0,0,3.57-15.26ZM62.08,358.51l0,0,.25.84Z"/><path class="cls-65" d="M80.63,214.2S49.82,253.42,59.1,278.29s8.58,79.62-2.89,82.27c0,0,25.73-1.55,29.79-29.95s4.58-69.88,4.58-69.88Z"/><path class="cls-66" d="M82.38,222.37a36.22,36.22,0,0,0-7.14-.56c-8.38,12.62-22.91,38.36-16.14,56.48,2.87,7.7,4.79,18.27,5.72,29.26a58.07,58.07,0,0,1,7,19,23.77,23.77,0,0,1,.42,3.74,31.77,31.77,0,0,1-2.47,14.88s0,.05,0,.09c-2.67,6.8-7.29,12.32-13.18,15.29,3-.29,25.66-3.4,29.45-29.92,4.07-28.42,4.58-69.88,4.58-69.88Z"/><path class="cls-67" d="M83.44,210.85s-38.37,32.37-24.79,66.43,32.79,71.53,18.57,89.85c0,0,35-24.73,24.46-58.47S83.74,220.13,90.37,207.9Z"/><path class="cls-68" d="M85.67,188.1s-16.24,1.64-14.45,19.44,16.24,18.13,19,12.36-.1-14.57-3-19.56S85.67,188.1,85.67,188.1Z"/><path class="cls-69" d="M383.47,202.4s53.82-8.74,40.54-50.59c-5.38-16.94-34.45-17-52.47-20.13s-36-21.19-46.63-48.75S278.8,32.08,265.55,32.08L230.93,71.81,196.3,32.08c-13.24,0-48.75,23.31-59.35,50.85s-28.61,45.57-46.63,48.75-48,2.93-52.47,20.13C26.33,196,78.39,202.4,78.39,202.4s19.07,13.79,56.48,10.44c23.49-2.1,53.38-14.68,90.8-14.68,35.15,0,66.16,11.81,90.44,15.19C358.82,219.29,383.47,202.4,383.47,202.4Z"/><g class="cls-70"><path class="cls-71" d="M37.85,158.66c4.49-17.2,34.45-17,52.47-20.14s36-21.19,46.63-48.74,46.11-50.86,59.35-50.86l34.63,39.74,34.62-39.74c13.25,0,48.77,23.32,59.36,50.86s28.62,45.56,46.63,48.74,47.09,3.2,52.47,20.14a44.26,44.26,0,0,1,1.93,9.12,39.1,39.1,0,0,0-1.93-16c-5.38-16.94-34.45-17-52.47-20.13s-36-21.19-46.63-48.75S278.8,32.08,265.55,32.08L230.93,71.81,196.3,32.08c-13.24,0-48.75,23.31-59.35,50.85s-28.61,45.57-46.63,48.75-48,2.93-52.47,20.13a44.85,44.85,0,0,0-1.5,15.48A50.84,50.84,0,0,1,37.85,158.66Z"/></g><path class="cls-72" d="M383.47,220.68s43.72-33.11,40.54-50.59-34.45-17-52.47-20.14-36-21.19-46.63-48.74S278.8,50.35,265.55,50.35l-34.62,57.22L196.3,50.35c-13.24,0-48.75,23.31-59.35,50.86S108.34,146.77,90.32,150,41,152.6,37.85,170.09s40.54,50.59,40.54,50.59,17.93,14.92,55.35,11.57c23.48-2.1,33.83-23.77,92.93-23.77,57,0,64,20.9,88.31,24.29C357.69,238.71,383.47,220.68,383.47,220.68Z"/><g class="cls-73"><path class="cls-35" d="M265.71,166.61c-2.74-10.45-7-5.59-3.64-19.84s3.43-24.35-20.21-32.75c-1.24-.44-2.44-.79-3.62-1.1a28.88,28.88,0,0,0-15.54,0c-1.18.3-2.38.65-3.62,1.08-23.68,8.3-23.7,18.38-20.35,32.66s-.94,9.39-3.73,19.82c-2.51,9.38,10.16,12.19,16.09,12.79-1.86,3.53-3.92,8-3.57,9.85.6,3.31,2.14,3.66,6.44,3.67s8.78-9.72,8.78-9.72-1.55,6.6-1.86,8.69,6.75,4,10,4,3.69-2.95,3.7-6.08,3.55-6.08,3.55-6.08a28.12,28.12,0,0,0,2.28,8.53c1.84,3.66,9.84-.32,12.3-1.19,1.66-.58-1.62-7.25-3.94-11.54C254.22,179,268.3,176.46,265.71,166.61Zm-41.86-12.83c-.48,6.47-2.33,10.64-10.17,10.62s-15-6.12-5.17-21.4C212.12,137.4,224.32,147.31,223.85,153.78Zm6.39,18.66c-7.05-.88-5.55-2.31-4-8.53,1.86-7.48,6-4,7.84.89S237.28,173.33,230.24,172.44Zm6.68-18.63c-.45-6.47,11.8-16.33,15.39-10.72,9.8,15.33,2.57,21.41-5.27,21.39S237.37,160.28,236.92,153.81Z"/><path class="cls-35" d="M302.45,119.83c-2.93-8.43-7.85-6.61-8.48-6.34.31-.16,1.61-1,2.8-4.9,1.36-4.42-1.93-11.4-7.47-11.75s-3.19,6.63-4.1,9.52-10.12,8.75-10.12,8.75l-8.58,5.27c2.6,5.34,2.2,11.32.76,18.18l13.45-8.26a52.11,52.11,0,0,1,11.5.06C299,131.23,305.59,128.86,302.45,119.83Z"/><path class="cls-35" d="M174.15,127.61l20.47,12.7c-1.6-7.12-2.34-13.3-.16-18.79l-12.94-8c1.67-3.93,3.68-10.9-1.35-14-7.2-4.44-12.47-1.22-14.73,2.68S169,114.94,169,114.94s-12.47-.71-10.54,10.36C159.9,133.48,167.68,135.06,174.15,127.61Z"/><path class="cls-35" d="M289.54,183.42a11.52,11.52,0,0,1-6.19-1.45l-.83-.51h0l-11.77-7.3c-1.59,5.74-9.47,8.25-15.26,9.23l18.95,11.75a40.29,40.29,0,0,1,5.29,8.76c1.72,4.34,7.43,6.22,10.3,0s-.88-9.87-.88-9.87l2.93-.33c2.93-.34,10.07-3.72,7.83-9.51S293.6,183.17,289.54,183.42Z"/><path class="cls-35" d="M190.32,172.48,176.44,181s-5.92,3.43-10.43,3.42-9,2.53-6.63,9.17,8.18,2.74,8.18,2.74-3.4,10.88,4.12,10.22,7.63-7.32,11.49-11h0l20.58-12.64C197.78,181.54,190.76,178.58,190.32,172.48Z"/></g><g class="cls-74"><path class="cls-75" d="M64.27,257.92a69.42,69.42,0,0,0,5.58,33.24c7.61,17.48,21.56,46.13,19.28,53.49s16.74-8.37,7.61-36.27S64.27,257.92,64.27,257.92Z"/></g><g class="cls-76"><path class="cls-77" d="M350.37,121.72c-10.09-8.52-19.11-21.6-25.46-38.12-10.59-27.54-46.11-50.85-59.36-50.85L230.93,72.48,196.3,32.75c-13.24,0-48.75,23.31-59.35,50.85s-28.61,45.57-46.63,48.75-48,2.93-52.47,20.13c-2.53,9.71-2,17.59.39,24,1.17,4.41,4.15,9.32,8,14.24,31.1,11.08,67.49,17.46,106.39,17.46C245.51,208.16,324.13,171.8,350.37,121.72Z"/></g><g class="cls-78"><path class="cls-79" d="M115.77,157.56c95.35,0,175.63-38.3,199.7-90.42-15-19.77-39.42-34.39-49.92-34.39L230.93,72.48,196.3,32.75c-13.24,0-48.75,23.31-59.35,50.85s-28.61,45.57-46.63,48.75c-16.66,2.93-43.52,3-51,16.54A333.71,333.71,0,0,0,115.77,157.56Z"/></g><g class="cls-80"><path class="cls-35" d="M113.18,232.29c-14.23-21-30.63-59.11-26.75-81.73-9.68,1.37-21.89,2.2-31.68,5.09a47,47,0,0,0-7.08,16.53A83.2,83.2,0,0,0,46.22,190c11.94,15.3,32.17,30.64,32.17,30.64S89.74,230.1,113.18,232.29Z"/><path class="cls-35" d="M409.41,172.18a47.8,47.8,0,0,0-8-18c-10-2.1-21.38-2.78-29.83-4.27l-1.06-.21c4.53,22.92-12.8,62.74-27.38,83.7,25.63-2.47,40.37-12.76,40.37-12.76S398.76,209.1,410.6,196A90.56,90.56,0,0,0,409.41,172.18Z"/></g><path class="cls-35" d="M150.72,66.09s6.08-10.89,24.57-21.3,21.53-9.82,22.29-6.6S140,86.57,150.72,66.09Z"/><path class="cls-35" d="M265.3,34.36c-5.72,3-4.76,13.12,0,9.7S276,28.84,265.3,34.36Z"/></g></g></g></g></svg>