<svg xmlns="http://www.w3.org/2000/svg" viewBox="0 0 23.24 23.24"><title>b_1</title><g id="Layer_2" data-name="Layer 2"><g id="L1_Image" data-name="L1 Image"><g id="Group_481" data-name="Group 481"><path id="Path_1694" data-name="Path 1694" d="M11.62,0a11.62,11.62,0,0,1,0,23.24h0A11.62,11.62,0,0,1,0,11.62H0A11.62,11.62,0,0,1,11.62,0Z" style="fill:#e1584d"/><path id="Path_1695" data-name="Path 1695" d="M11.62,2.4A9.22,9.22,0,0,0,2.4,11.62h0a9.22,9.22,0,0,0,9.22,9.23h0a9.23,9.23,0,0,0,9.23-9.23h0A9.22,9.22,0,0,0,11.62,2.4Zm0,17a7.81,7.81,0,1,1,7.81-7.81A7.81,7.81,0,0,1,11.62,19.43ZM13.93,8.24a1.65,1.65,0,0,1,.75,1.42,1.75,1.75,0,0,1-1.36,1.72,1.93,1.93,0,0,1,1.64,2,1.84,1.84,0,0,1-.8,1.58,3.5,3.5,0,0,1-2.15.58H8.29V7.71h3.6a3.46,3.46,0,0,1,2,.53Zm-1.35,2.39a.81.81,0,0,0,.29-.64.77.77,0,0,0-.29-.63,1.23,1.23,0,0,0-.79-.21H10.05v1.71h1.74a1.23,1.23,0,0,0,.79-.23Zm.2,3.2a.81.81,0,0,0,.36-.7.76.76,0,0,0-.36-.66,1.7,1.7,0,0,0-1-.24H10.05v1.85H11.8a1.59,1.59,0,0,0,1-.25Z" style="fill:#b10004"/></g></g></g></svg>