<svg xmlns="http://www.w3.org/2000/svg" viewBox="0 0 23.24 23.24"><title>c</title><g id="Layer_2" data-name="Layer 2"><g id="L1_Image" data-name="L1 Image"><g id="Group_482" data-name="Group 482"><path id="Path_1696" data-name="Path 1696" d="M11.62,0A11.62,11.62,0,1,1,0,11.62H0A11.62,11.62,0,0,1,11.62,0Z" style="fill:#f4b459"/><path id="Path_1697" data-name="Path 1697" d="M11.62,2.4a9.22,9.22,0,0,0-9.23,9.22h0a9.23,9.23,0,0,0,9.23,9.23h0a9.22,9.22,0,0,0,9.22-9.23h0A9.22,9.22,0,0,0,11.62,2.4Zm0,17a7.81,7.81,0,1,1,7.8-7.81A7.81,7.81,0,0,1,11.62,19.43Zm1.6-10a2.27,2.27,0,0,0-3.06.91,2.51,2.51,0,0,0-.3,1.2,2.55,2.55,0,0,0,.3,1.21,2.36,2.36,0,0,0,.83.86,2.22,2.22,0,0,0,1.17.32,2.51,2.51,0,0,0,1-.24,3.35,3.35,0,0,0,.93-.66l1,1.1a4.69,4.69,0,0,1-1.42,1,4.07,4.07,0,0,1-1.64.36,4,4,0,0,1-2-.51,3.79,3.79,0,0,1-1.43-1.41,4,4,0,0,1-.51-2,3.73,3.73,0,0,1,.53-2,3.68,3.68,0,0,1,1.45-1.4,4.28,4.28,0,0,1,5,.75l-1,1.23a2.76,2.76,0,0,0-.92-.74Z" style="fill:#cc6621"/></g></g></g></svg>