<svg xmlns="http://www.w3.org/2000/svg" xmlns:xlink="http://www.w3.org/1999/xlink" viewBox="0 0 452.81 441.34"><defs><style>.cls-1{mask:url(#mask);filter:url(#luminosity-noclip-10);}.cls-10,.cls-12,.cls-14,.cls-16,.cls-18,.cls-2,.cls-22,.cls-28,.cls-4,.cls-42,.cls-6,.cls-68,.cls-8{mix-blend-mode:multiply;}.cls-2{fill:url(#linear-gradient);}.cls-3{mask:url(#mask-2);filter:url(#luminosity-noclip-15);}.cls-4{fill:url(#linear-gradient-2);}.cls-5{mask:url(#mask-3);filter:url(#luminosity-noclip-16);}.cls-6{fill:url(#linear-gradient-3);}.cls-7{mask:url(#mask-4);filter:url(#luminosity-noclip-17);}.cls-8{fill:url(#linear-gradient-4);}.cls-9{mask:url(#mask-5);filter:url(#luminosity-noclip-18);}.cls-10{fill:url(#radial-gradient);}.cls-11{mask:url(#mask-6);filter:url(#luminosity-noclip-11);}.cls-12{fill:url(#radial-gradient-2);}.cls-13{mask:url(#mask-7);filter:url(#luminosity-noclip-12);}.cls-14{fill:url(#linear-gradient-5);}.cls-15{mask:url(#mask-8);filter:url(#luminosity-noclip-13);}.cls-16{fill:url(#linear-gradient-6);}.cls-17{mask:url(#mask-9);filter:url(#luminosity-noclip-14);}.cls-18{fill:url(#linear-gradient-7);}.cls-19{isolation:isolate;}.cls-20{fill:url(#linear-gradient-8);}.cls-21{mask:url(#mask-10);}.cls-22{fill:url(#linear-gradient-9);}.cls-23,.cls-24,.cls-25,.cls-32,.cls-37,.cls-41,.cls-67{fill:#fff;}.cls-23,.cls-27{opacity:0.35;}.cls-23,.cls-24,.cls-27,.cls-31,.cls-37,.cls-39,.cls-49,.cls-59,.cls-61,.cls-67{mix-blend-mode:overlay;}.cls-24{opacity:0.49;}.cls-26{fill:url(#linear-gradient-10);}.cls-28{fill:#ac6518;opacity:0.39;}.cls-29{fill:#f7eb64;}.cls-30{mask:url(#mask-11);}.cls-31{fill:url(#radial-gradient-3);}.cls-32{opacity:0.7;}.cls-33{fill:#994d12;}.cls-34{fill:url(#linear-gradient-11);}.cls-35{fill:#ae6518;opacity:0.46;}.cls-36{fill:url(#linear-gradient-12);}.cls-38{mask:url(#mask-12);}.cls-39{fill:url(#linear-gradient-13);}.cls-40{fill:#302213;}.cls-41{opacity:0.44;}.cls-42{opacity:0.26;}.cls-43{fill:#db8b21;}.cls-44{fill:#edbb48;}.cls-45{fill:#e8a126;}.cls-46{fill:#b6711b;opacity:0.4;}.cls-47{opacity:0.53;}.cls-48{mask:url(#mask-13);}.cls-49{fill:url(#linear-gradient-14);}.cls-50{mask:url(#mask-14);}.cls-51{fill:url(#linear-gradient-15);}.cls-52{mask:url(#mask-15);}.cls-53{fill:url(#linear-gradient-16);}.cls-54{mask:url(#mask-16);}.cls-55{fill:url(#linear-gradient-17);}.cls-56{fill:url(#linear-gradient-18);}.cls-57{fill:url(#linear-gradient-19);}.cls-58{mask:url(#mask-17);}.cls-59{fill:url(#linear-gradient-20);}.cls-60{mask:url(#mask-18);}.cls-61{fill:url(#radial-gradient-4);}.cls-62{fill:#c16e00;}.cls-63{fill:#5e0000;}.cls-64{fill:#ff0;}.cls-65{fill:#feb322;}.cls-66{fill:#f7e494;}.cls-67{opacity:0.55;}.cls-68{fill:#ee711f;opacity:0.23;}.cls-69{filter:url(#luminosity-noclip-9);}.cls-70{filter:url(#luminosity-noclip-8);}.cls-71{filter:url(#luminosity-noclip-7);}.cls-72{filter:url(#luminosity-noclip-6);}.cls-73{filter:url(#luminosity-noclip-5);}.cls-74{filter:url(#luminosity-noclip-4);}.cls-75{filter:url(#luminosity-noclip-3);}.cls-76{filter:url(#luminosity-noclip-2);}.cls-77{filter:url(#luminosity-noclip);}</style><filter id="luminosity-noclip" x="7.25" y="-14659.12" width="444.6" height="32766" filterUnits="userSpaceOnUse" color-interpolation-filters="sRGB"><feFlood flood-color="#fff" result="bg"/><feBlend in="SourceGraphic" in2="bg"/></filter><mask id="mask" x="7.25" y="-14659.12" width="444.6" height="32766" maskUnits="userSpaceOnUse"><g class="cls-77"/></mask><linearGradient id="linear-gradient" x1="7.25" y1="330.84" x2="451.85" y2="330.84" gradientUnits="userSpaceOnUse"><stop offset="0.25"/><stop offset="1" stop-color="#fff"/></linearGradient><filter id="luminosity-noclip-2" x="117.88" y="-14659.12" width="102.08" height="32766" filterUnits="userSpaceOnUse" color-interpolation-filters="sRGB"><feFlood flood-color="#fff" result="bg"/><feBlend in="SourceGraphic" in2="bg"/></filter><mask id="mask-2" x="117.88" y="-14659.12" width="102.08" height="32766" maskUnits="userSpaceOnUse"><g class="cls-76"/></mask><linearGradient id="linear-gradient-2" x1="-1199.24" y1="-475.58" x2="-1173.39" y2="-357.74" gradientTransform="translate(1243.97 913.67) rotate(11.88)" gradientUnits="userSpaceOnUse"><stop offset="0" stop-color="#fff"/><stop offset="1"/></linearGradient><filter id="luminosity-noclip-3" x="154.03" y="-14659.12" width="91.48" height="32766" filterUnits="userSpaceOnUse" color-interpolation-filters="sRGB"><feFlood flood-color="#fff" result="bg"/><feBlend in="SourceGraphic" in2="bg"/></filter><mask id="mask-3" x="154.03" y="-14659.12" width="91.48" height="32766" maskUnits="userSpaceOnUse"><g class="cls-75"/></mask><linearGradient id="linear-gradient-3" x1="-1213.2" y1="-479.98" x2="-1177.2" y2="-543.15" xlink:href="#linear-gradient-2"/><filter id="luminosity-noclip-4" x="145.52" y="-14659.12" width="48.91" height="32766" filterUnits="userSpaceOnUse" color-interpolation-filters="sRGB"><feFlood flood-color="#fff" result="bg"/><feBlend in="SourceGraphic" in2="bg"/></filter><mask id="mask-4" x="145.52" y="-14659.12" width="48.91" height="32766" maskUnits="userSpaceOnUse"><g class="cls-74"/></mask><linearGradient id="linear-gradient-4" x1="-1192.21" y1="-579.22" x2="-1243.63" y2="-611.69" gradientTransform="translate(1243.97 913.67) rotate(11.88)" gradientUnits="userSpaceOnUse"><stop offset="0"/><stop offset="1" stop-color="#fff"/></linearGradient><filter id="luminosity-noclip-5" x="135.77" y="-14659.12" width="68.42" height="32766" filterUnits="userSpaceOnUse" color-interpolation-filters="sRGB"><feFlood flood-color="#fff" result="bg"/><feBlend in="SourceGraphic" in2="bg"/></filter><mask id="mask-5" x="135.77" y="-14659.12" width="68.42" height="32766" maskUnits="userSpaceOnUse"><g class="cls-73"/></mask><radialGradient id="radial-gradient" cx="169.98" cy="43.5" r="33.06" gradientUnits="userSpaceOnUse"><stop offset="0.09" stop-color="#fff"/><stop offset="0.17" stop-color="#f6f6f6"/><stop offset="0.3" stop-color="#dedede"/><stop offset="0.45" stop-color="#b6b6b6"/><stop offset="0.64" stop-color="#7f7f7f"/><stop offset="0.85" stop-color="#393939"/><stop offset="1"/></radialGradient><filter id="luminosity-noclip-6" x="0.01" y="-14659.12" width="88.87" height="32766" filterUnits="userSpaceOnUse" color-interpolation-filters="sRGB"><feFlood flood-color="#fff" result="bg"/><feBlend in="SourceGraphic" in2="bg"/></filter><mask id="mask-6" x="0.01" y="-14659.12" width="88.87" height="32766" maskUnits="userSpaceOnUse"><g class="cls-72"/></mask><radialGradient id="radial-gradient-2" cx="44.45" cy="129.91" r="42.94" xlink:href="#radial-gradient"/><filter id="luminosity-noclip-7" x="87.67" y="-14659.12" width="48.91" height="32766" filterUnits="userSpaceOnUse" color-interpolation-filters="sRGB"><feFlood flood-color="#fff" result="bg"/><feBlend in="SourceGraphic" in2="bg"/></filter><mask id="mask-7" x="87.67" y="-14659.12" width="48.91" height="32766" maskUnits="userSpaceOnUse"><g class="cls-71"/></mask><linearGradient id="linear-gradient-5" x1="-1192.2" y1="-298.07" x2="-1243.61" y2="-330.54" xlink:href="#linear-gradient-4"/><filter id="luminosity-noclip-8" x="113.56" y="-14659.12" width="169.61" height="32766" filterUnits="userSpaceOnUse" color-interpolation-filters="sRGB"><feFlood flood-color="#fff" result="bg"/><feBlend in="SourceGraphic" in2="bg"/></filter><mask id="mask-8" x="113.56" y="-14659.12" width="169.61" height="32766" maskUnits="userSpaceOnUse"><g class="cls-70"/></mask><linearGradient id="linear-gradient-6" x1="-1172.11" y1="-488.3" x2="-1140.91" y2="-346.05" xlink:href="#linear-gradient-2"/><filter id="luminosity-noclip-9" x="148.37" y="-14659.12" width="153.98" height="32766" filterUnits="userSpaceOnUse" color-interpolation-filters="sRGB"><feFlood flood-color="#fff" result="bg"/><feBlend in="SourceGraphic" in2="bg"/></filter><mask id="mask-9" x="148.37" y="-14659.12" width="153.98" height="32766" maskUnits="userSpaceOnUse"><g class="cls-69"/></mask><linearGradient id="linear-gradient-7" x1="-1205.99" y1="-498.86" x2="-1146.78" y2="-543.99" xlink:href="#linear-gradient-2"/><linearGradient id="linear-gradient-8" x1="220.7" y1="-13.78" x2="239.28" y2="438.62" gradientUnits="userSpaceOnUse"><stop offset="0" stop-color="#f3e036"/><stop offset="1" stop-color="#ca7c1d"/></linearGradient><filter id="luminosity-noclip-10" x="7.25" y="220.34" width="444.6" height="220.99" filterUnits="userSpaceOnUse" color-interpolation-filters="sRGB"><feFlood flood-color="#fff" result="bg"/><feBlend in="SourceGraphic" in2="bg"/></filter><mask id="mask-10" x="7.25" y="220.34" width="444.6" height="220.99" maskUnits="userSpaceOnUse"><g class="cls-1"><path class="cls-2" d="M229.55,431.64C108.44,431.64,10,337.47,7.31,220.34c0,1.61-.06,3.23-.06,4.84,0,119.37,99.52,216.16,222.3,216.16s222.3-96.79,222.3-216.16c0-1.61,0-3.23-.06-4.84C449.13,337.47,350.65,431.64,229.55,431.64Z"/></g></mask><linearGradient id="linear-gradient-9" x1="7.25" y1="330.84" x2="451.85" y2="330.84" gradientUnits="userSpaceOnUse"><stop offset="0.25" stop-color="#f3e036"/><stop offset="1" stop-color="#d18921"/></linearGradient><linearGradient id="linear-gradient-10" x1="228.46" y1="108.01" x2="228.46" y2="424.88" gradientUnits="userSpaceOnUse"><stop offset="0" stop-color="#ca7c1d"/><stop offset="1" stop-color="#f3e036"/></linearGradient><filter id="luminosity-noclip-11" x="0.01" y="88.52" width="88.87" height="82.76" filterUnits="userSpaceOnUse" color-interpolation-filters="sRGB"><feFlood flood-color="#fff" result="bg"/><feBlend in="SourceGraphic" in2="bg"/></filter><mask id="mask-11" x="0.01" y="88.52" width="88.87" height="82.76" maskUnits="userSpaceOnUse"><g class="cls-11"><path class="cls-12" d="M44.46,88.52C19.92,88.52,0,107.05,0,129.92s19.91,41.37,44.45,41.37,44.43-18.54,44.43-41.37S69,88.52,44.46,88.52Z"/></g></mask><radialGradient id="radial-gradient-3" cx="44.45" cy="129.91" r="42.94" gradientUnits="userSpaceOnUse"><stop offset="0.09" stop-color="#fff"/><stop offset="1" stop-color="#fff"/></radialGradient><linearGradient id="linear-gradient-11" x1="-1249.88" y1="-322.27" x2="-1036.78" y2="-322.27" gradientTransform="translate(1243.97 913.67) rotate(11.88)" gradientUnits="userSpaceOnUse"><stop offset="0" stop-color="#f5e236"/><stop offset="1" stop-color="#cc7c1d"/></linearGradient><linearGradient id="linear-gradient-12" x1="-1143.33" y1="-371.8" x2="-1143.33" y2="-318.39" xlink:href="#linear-gradient-11"/><filter id="luminosity-noclip-12" x="87.67" y="317.86" width="48.91" height="53.63" filterUnits="userSpaceOnUse" color-interpolation-filters="sRGB"><feFlood flood-color="#fff" result="bg"/><feBlend in="SourceGraphic" in2="bg"/></filter><mask id="mask-12" x="87.67" y="317.86" width="48.91" height="53.63" maskUnits="userSpaceOnUse"><g class="cls-13"><path class="cls-14" d="M122.87,333.62c-9.81-5.05-23.29-13.67-26.52-15.68s-11.09,35.21-8,37.84,27.34,13.14,42.28,15.6S128.15,336.34,122.87,333.62Z"/></g></mask><linearGradient id="linear-gradient-13" x1="-1192.2" y1="-298.07" x2="-1243.61" y2="-330.54" gradientTransform="translate(1243.97 913.67) rotate(11.88)" gradientUnits="userSpaceOnUse"><stop offset="0" stop-color="#fff"/><stop offset="1" stop-color="#fff"/></linearGradient><filter id="luminosity-noclip-13" x="113.56" y="229.64" width="169.61" height="110.39" filterUnits="userSpaceOnUse" color-interpolation-filters="sRGB"><feFlood flood-color="#fff" result="bg"/><feBlend in="SourceGraphic" in2="bg"/></filter><mask id="mask-13" x="113.56" y="229.64" width="169.61" height="110.39" maskUnits="userSpaceOnUse"><g class="cls-15"><path class="cls-16" d="M267.37,264.24s-30.46-31.68-64.69-34.3-65,12.55-72.84,22.9c-7,9.18-16.28,55.94-16.28,55.94s16.32,12.4,84,28.23S308,303.12,267.37,264.24Z"/></g></mask><linearGradient id="linear-gradient-14" x1="-1172.11" y1="-488.3" x2="-1140.91" y2="-346.05" xlink:href="#linear-gradient-13"/><filter id="luminosity-noclip-14" x="148.37" y="111.92" width="153.98" height="96.59" filterUnits="userSpaceOnUse" color-interpolation-filters="sRGB"><feFlood flood-color="#fff" result="bg"/><feBlend in="SourceGraphic" in2="bg"/></filter><mask id="mask-14" x="148.37" y="111.92" width="153.98" height="96.59" maskUnits="userSpaceOnUse"><g class="cls-17"><path class="cls-18" d="M155.68,165.44c13.48,18,45,41.52,77.26,43s71.39-33.95,69.33-45.91-64.75-26.66-92.92-34.7c-10-2.85-43.26-13.8-50.61-15.81C149,109.4,142.73,148.17,155.68,165.44Z"/></g></mask><linearGradient id="linear-gradient-15" x1="-1205.99" y1="-498.86" x2="-1146.78" y2="-543.99" xlink:href="#linear-gradient-13"/><filter id="luminosity-noclip-15" x="117.88" y="230.24" width="102.08" height="91.96" filterUnits="userSpaceOnUse" color-interpolation-filters="sRGB"><feFlood flood-color="#fff" result="bg"/><feBlend in="SourceGraphic" in2="bg"/></filter><mask id="mask-15" x="117.88" y="230.24" width="102.08" height="91.96" maskUnits="userSpaceOnUse"><g class="cls-3"><path class="cls-4" d="M206.13,231.2c-6.62-1.45-29.33-2.89-56.22,8.9s-29,50.09-31.69,58.17,10.29,19.67,35.84,23.64,59.59-32.77,64.92-59.75S206.13,231.2,206.13,231.2Z"/></g></mask><linearGradient id="linear-gradient-16" x1="-1199.24" y1="-475.58" x2="-1173.39" y2="-357.74" xlink:href="#linear-gradient-13"/><filter id="luminosity-noclip-16" x="154.03" y="115.09" width="91.48" height="68.82" filterUnits="userSpaceOnUse" color-interpolation-filters="sRGB"><feFlood flood-color="#fff" result="bg"/><feBlend in="SourceGraphic" in2="bg"/></filter><mask id="mask-16" x="154.03" y="115.09" width="91.48" height="68.82" maskUnits="userSpaceOnUse"><g class="cls-5"><path class="cls-6" d="M168.13,117.78c-7-4.51-9.47-2-9.47-2-.16,2.19-14.41,35.12,7.88,55.35s66.13,14.12,77.82-2.3S175.18,122.29,168.13,117.78Z"/></g></mask><linearGradient id="linear-gradient-17" x1="-1213.2" y1="-479.98" x2="-1177.2" y2="-543.15" xlink:href="#linear-gradient-13"/><linearGradient id="linear-gradient-18" x1="-1249.89" y1="-603.42" x2="-1036.8" y2="-603.42" xlink:href="#linear-gradient-11"/><linearGradient id="linear-gradient-19" x1="-1143.34" y1="-652.96" x2="-1143.34" y2="-599.55" xlink:href="#linear-gradient-11"/><filter id="luminosity-noclip-17" x="145.52" y="42.72" width="48.91" height="53.63" filterUnits="userSpaceOnUse" color-interpolation-filters="sRGB"><feFlood flood-color="#fff" result="bg"/><feBlend in="SourceGraphic" in2="bg"/></filter><mask id="mask-17" x="145.52" y="42.72" width="48.91" height="53.63" maskUnits="userSpaceOnUse"><g class="cls-7"><path class="cls-8" d="M180.72,58.48c-9.82-5-23.29-13.68-26.52-15.68s-11.09,35.21-8,37.84,27.34,13.14,42.28,15.6S186,61.2,180.72,58.48Z"/></g></mask><linearGradient id="linear-gradient-20" x1="-1192.21" y1="-579.22" x2="-1243.63" y2="-611.69" xlink:href="#linear-gradient-13"/><filter id="luminosity-noclip-18" x="135.77" y="11.64" width="68.42" height="63.72" filterUnits="userSpaceOnUse" color-interpolation-filters="sRGB"><feFlood flood-color="#fff" result="bg"/><feBlend in="SourceGraphic" in2="bg"/></filter><mask id="mask-18" x="135.77" y="11.64" width="68.42" height="63.72" maskUnits="userSpaceOnUse"><g class="cls-9"><path class="cls-10" d="M170,11.64c-18.9,0-34.22,14.26-34.22,31.87S151.09,75.36,170,75.36s34.2-14.28,34.2-31.85S188.87,11.64,170,11.64Z"/></g></mask><radialGradient id="radial-gradient-4" cx="169.98" cy="43.5" r="33.06" xlink:href="#radial-gradient-3"/></defs><title>cashback</title><g class="cls-19"><g id="Layer_2" data-name="Layer 2"><g id="Layer_31" data-name="Layer 31"><g id="Layer_9" data-name="Layer 9"><path class="cls-20" d="M230.52,9.06c-122.78,0-222.3,96.77-222.3,216.12s99.52,216.16,222.3,216.16,222.29-96.79,222.29-216.16S353.28,9.06,230.52,9.06Z"/><g class="cls-21"><path class="cls-22" d="M229.55,431.64C108.44,431.64,10,337.47,7.31,220.34c0,1.61-.06,3.23-.06,4.84,0,119.37,99.52,216.16,222.3,216.16s222.3-96.79,222.3-216.16c0-1.61,0-3.23-.06-4.84C449.13,337.47,350.65,431.64,229.55,431.64Z"/></g><path class="cls-23" d="M230.52,9.06c-122.78,0-222.3,96.77-222.3,216.12,0,2.65.11,5.22.22,7.84C65.06,282.39,143,312.93,229.08,312.93c87.57,0,166.74-31.61,223.59-82.54,0-1.75.14-3.45.14-5.21C452.81,105.83,353.28,9.06,230.52,9.06Z"/><path class="cls-24" d="M407.91,94.39C367.32,42.56,303.18,9.06,231,9.06c-72.75,0-137.33,34-177.88,86.51,50.25,30.17,111,47.84,176.44,47.84C295.85,143.41,357.29,125.28,407.91,94.39Z"/><path class="cls-24" d="M230.52,21.43c120.62,0,218.74,93.46,222.12,209.94.07-2.05.17-4.1.17-6.19,0-119.35-99.53-216.12-222.29-216.12S8.23,105.83,8.23,225.18c0,2.09.1,4.14.16,6.19C11.77,114.89,109.89,21.43,230.52,21.43Z"/><path class="cls-25" d="M200.67,23.28c10.34-.8,21,3.14,15.84,7.63s-40.16,24.68-55.42,12.21S188.5,24.21,200.67,23.28Z"/><path class="cls-25" d="M80.39,78.22c-32.39,27.26-58.56,77.6-57.9,107S38.86,168.5,47,151.76,95.67,84,125.08,68.52,131,35.61,80.39,78.22Z"/><path class="cls-26" d="M228.48,38.08c-104.19,0-188.65,82.14-188.65,183.42s84.46,183.41,188.65,183.41S417.1,322.79,417.1,221.5,332.67,38.08,228.48,38.08Z"/><g class="cls-27"><path class="cls-25" d="M228.17,417.13c-109.84,0-199.2-87-199.2-193.92S118.33,29.28,228.17,29.28s199.19,87,199.19,193.93S338,417.13,228.17,417.13Zm0-370.24C128,46.89,46.57,126,46.57,223.21S128,399.53,228.17,399.53s181.58-79.09,181.58-176.32S328.29,46.89,228.17,46.89Z"/></g><path class="cls-28" d="M228.48,38.08A190.51,190.51,0,0,0,88.89,98.16a190.82,190.82,0,0,1,128.36-49c104.16,0,188.61,82.1,188.61,183.41,0,47.51-18.57,90.8-49.05,123.38,37.1-33.51,60.29-81.31,60.29-134.41C417.1,120.22,332.67,38.08,228.48,38.08Z"/><path class="cls-28" d="M111,330c0-118.36,84.46-183.4,188.62-183.4A191.19,191.19,0,0,1,413,183.42c-18-83-93.79-145.34-184.54-145.34-104.17,0-188.63,82.14-188.63,183.42,0,59.94,29.56,113.13,75.26,146.61A180.75,180.75,0,0,1,111,330Z"/><path class="cls-29" d="M228.48,394.91C126.12,394.91,42.86,315.6,40,216.75c-.08,1.76-.17,3.5-.17,5.28,0,101.31,84.46,183.41,188.65,183.41S417.1,323.34,417.1,222c0-1.78-.08-3.52-.13-5.28C414.08,315.6,330.84,394.91,228.48,394.91Z"/><g class="cls-30"><path class="cls-31" d="M44.46,88.52C19.92,88.52,0,107.05,0,129.92s19.91,41.37,44.45,41.37,44.43-18.54,44.43-41.37S69,88.52,44.46,88.52Z"/></g><path class="cls-32" d="M3.87,184.38c11.93-13.39,47-54.46,47-54.46s29.29-55,30-56.51c.2-.45-37.43,51.68-37.43,51.68Z"/><path class="cls-25" d="M54.12,120.08c-10.81-8.46-8.84-32.21-8.93-38.93v6.44c0-1-.08-2.14-.08-2.38V81.15a72.73,72.73,0,0,1-.6,8.5s-3.17,23.85-8.88,28.77c-12.87,11.3-45.27,9.12-32.84,9.41,42,.9,42,41.85,42.32,55.28v-6.76c0,.48.08.89.08,1.13v5.63c.89-31.79.78-51.91,37.38-54.6C94.7,127.58,66.76,129.92,54.12,120.08Z"/><path class="cls-33" d="M362.83,77.06v-.12a7.41,7.41,0,0,0-.18-1.1l0-.06c0-.14-.08-.29-.12-.44l0-.06c-1.45-4.33-7.55-9-18.65-14.15-9.93-4.64-23.56-9.56-39.44-14.24l-.06,0-3.49-1-.1,0-3.48-1-.15,0-3.5-1-.19-.05-1.76-.47-.12,0-1.69-.44-.16-.05-1.76-.46-.24-.06L286,41.84l-.12,0-1.76-.45-.31-.08-3.57-.89-.35-.08-1.79-.44H278l-1.73-.42-.36-.09-1.78-.41-2.22-.52L270.15,38l-2.26-.51-1.8-.4-.41-.09L264,36.64l-.21,0L262,36.2l-.44-.09-1.86-.39-2.48-.52-.14,0-2.37-.48-.23,0-2.31-.46-.27-.06-2.27-.44-.29,0-2.25-.44-.28,0-2.26-.42-.24,0L242,32.26l-.18,0-2.33-.41-.09,0c-33.1-5.84-61.4-8-77-6l.38-.77-6.93,2.07-.17.05-.53.17-.26.09-.5.17-.27.1-.45.19-.26.11-.44.2-.26.12-.37.19-.14.08-.14.08-.25.14-.18.11-.2.13-.41.28-.19.13-.5.41-.12.11-.25.23-.09.09-.24.25-.12.14a1.68,1.68,0,0,0-.18.21l-.1.13c-.06.07-.11.15-.17.23l-.1.15a2.22,2.22,0,0,0-.15.23l-.1.18a2.37,2.37,0,0,0-.15.28l-.07.14a1.89,1.89,0,0,0-.11.25l-.09.22s0,.08-.05.13a.78.78,0,0,1,0,.14l-.05.18c0,.15-.08.3-.12.46l-.21,1-2.05,2,1.73-.51-8.07,38.35-1.05-1-.16,7.34c0,.1,0,.2,0,.3a4.58,4.58,0,0,0,0,.53,2.09,2.09,0,0,0,0,.28c0,.2.06.4.11.6s.05.18.08.28.11.37.17.55.06.16.09.22.16.37.26.58.07.14.09.18.2.37.31.55a.74.74,0,0,0,.1.16c.11.19.24.38.37.56a1.13,1.13,0,0,0,.1.13c.13.19.27.37.41.55l.09.09a26.61,26.61,0,0,0,5.84,5l.08,0,.25.17-10.27,48.86c-2.07,9.83,4,23.88,16.15,37.58,12.89,14.5,30.55,26.47,49.82,33.8a7.32,7.32,0,0,1,.1,3.8,7.41,7.41,0,0,1-1.62,3.43c-20.59-1-41.57,2.79-59.21,10.87-16.67,7.64-27.85,18.07-29.92,27.9l-9.07,43.12L98,302.22l-.18.06-.52.17-.27.09c-.17.06-.34.11-.48.17l-.28.1-.47.19-.25.11-.45.2-.24.12-.26.13-.41.22-.26.16,0,0-.11.07-.21.13-.41.28-.18.13-.46.37-.19.17a2.51,2.51,0,0,0-.23.21l-.09.09-.24.25-.08.1-.15.17-.11.13-.06.08-.17.24-.1.14a2.77,2.77,0,0,0-.15.24l-.17.29a1,1,0,0,0-.07.15l-.08.14c0,.1-.09.2-.12.27l-.07.18c0,.07,0,.15-.08.22s0,.05,0,.08l-.06.17-.12.47-9,42.6-.7-.34-.16,4.88c0,.11,0,.23,0,.34a4.71,4.71,0,0,0,0,.53c0,.1,0,.2,0,.28s.06.4.11.6.05.18.07.25.11.39.19.6l.09.21a5.38,5.38,0,0,0,.24.55l.1.2c.1.19.2.37.31.55a1.74,1.74,0,0,0,.11.18q.16.27.36.54a1.34,1.34,0,0,0,.11.14l.41.55.08.09a26.85,26.85,0,0,0,5.86,5l.06,0c.27.18.54.36.83.53l.15.1.8.5.23.14.79.46.3.18.76.43.37.21.77.42.4.22.79.41.45.24.73.37.54.27.75.37.57.28.72.35.65.3.79.37.64.29.85.39.61.27.87.38,2.19.94.91.38.69.29.92.38.72.29.93.37,2.48,1,1,.36,2.62,1,1,.36,5.71,2,7.05,2.33,9.77,3,10.41,2.95,12,3.1,14.35,3.39,1.37.3,1.27.28,1.5.33,1.16.25,2.68.57c28,5.89,54.76,9.61,75.31,10.47,3.14.14,6,.2,8.63.2,23,0,26.89-4.77,27.69-8.55l9.68-46.06a4.51,4.51,0,0,0,.09-.53s0-.09,0-.15l0-.39v-.16c0-.15,0-.3,0-.41v-.13a8.34,8.34,0,0,0-.17-1.08l0-.09c0-.14-.08-.28-.12-.43l0-.06c-.92-2.75-3.5-5.45-8.07-8.43l9.13-43.46c2.07-9.83-4-23.89-16.16-37.59-12.9-14.5-30.56-26.47-49.85-33.8a8.27,8.27,0,0,1,1.52-7.22c20.6,1.06,41.59-2.78,59.24-10.86,16.67-7.64,27.87-18.07,29.93-27.9l10.28-48.86c5.32-.86,11.36-2.69,12.38-7.53l9.68-46c0-.17.06-.34.08-.52a1.28,1.28,0,0,0,0-.17q0-.21,0-.39v-.16C362.84,77.34,362.84,77.2,362.83,77.06ZM95.39,309.56l.6.35h0l-.64-.33Zm-1.72-.85h0l-.15-.08Zm205.05,43.86h0v0Zm0-.09h0v0Zm48.18-229s-1.11,1.9-9.26,2.92l-2.22.28-11.18,53.2c-1.64,7.78-11.76,16.78-26.41,23.49-17.07,7.81-37.47,11.45-57.45,10.23l-1-.06-.83.5c-2.47,1.47-4.39,4.47-5.14,8s-.2,7.08,1.47,9.42l.56.79.9.33c18.78,6.93,36,18.48,48.47,32.51,10.71,12,16.35,24.35,14.71,32.13L289.51,345l1.92,1.14c5.92,3.54,7,5.61,7.24,6.2v0a.39.39,0,0,1,0,.06v0a.28.28,0,0,1,0,.08l-9.67,46c-.49,1.22-7.21,4.45-30.95,3.34-20.08-.93-46.1-4.59-73.26-10.3l-2.65-.56-1.15-.25-1.48-.32-1.27-.28-1.35-.3-10.24-2.38-14.64-3.73-10.33-2.9-8.66-2.62L125,375.67l-6.52-2.28-1-.35-2.56-1-.93-.36-2.42-.94-.9-.36-.71-.29-.89-.36-.67-.28-.88-.36-2.11-.91-.84-.37-.58-.26-.82-.37-.61-.28-.75-.35-.62-.29-.68-.33-.55-.27-.71-.35-.51-.25-.69-.35-.41-.22-.74-.39-.37-.2-.72-.39-.33-.19-.71-.4-.3-.18-.69-.4-.21-.13-.71-.44-.14-.09-.72-.46-.06-.05a21.09,21.09,0,0,1-4.5-3.74l-.06-.07-.23-.3,0-.06-.15-.23-.06-.09-.09-.17,0-.09a.76.76,0,0,1,0-.11.36.36,0,0,1,0-.09s0-.05,0-.06l0-.14v0l9.66-46,.19-.23.07-.07h0l.16-.13.1-.07.15-.1.5-.29.17-.09.16-.08.26-.12.17-.07.29-.12.2-.07.37-.13.17-.06.39-.12.13,0a36.14,36.14,0,0,1,5.77-1.13l2.22-.28,1.61-7.66.4-.4-.34.1L117.85,259c1.63-7.78,11.74-16.78,26.39-23.49,17.06-7.81,37.45-11.45,57.42-10.24l1,.06.82-.49c2.48-1.46,4.41-4.47,5.16-8s.2-7.11-1.48-9.44l-.56-.78-.9-.33c-18.77-6.94-36-18.48-48.43-32.5-10.71-12-16.34-24.35-14.71-32.13l11.19-53.2-1.93-1.15-.34-.2-.72-.45-.14-.09-.7-.45-.07-.05a20.84,20.84,0,0,1-4.51-3.76l0,0L145,82,145,81.9l-.14-.22a.86.86,0,0,1-.07-.1l-.1-.19,0-.07,0-.12,0-.07a.54.54,0,0,0,0-.1v-.15l9.67-46,.18-.23,0,0,.1-.08.13-.11.1-.07.18-.13.46-.26.17-.09.16-.07.27-.13.17-.07.3-.12.18-.07.39-.14.16-.05.4-.13.12,0c12-3.58,43.63-1.67,80.66,4.87h.07l2.3.41.19,0,2.27.41.23,0,2.24.42.27.05,2.23.43.29.06,2.24.43.28.06,2.28.45.23,0,2.36.48.13,0,2.45.51,1.85.39.43.09,1.81.39.2.05,1.66.36.41.09,1.79.4,2.23.5,1.77.41,2.2.51,1.75.41.37.09,1.71.41.07,0,1.78.43.34.08,3.52.88.31.08,1.74.44.13,0,1.67.43.22.06,1.76.46.15,0,1.68.44.11,0,1.75.47.17,0,3.48,1,.13,0,3.45,1,.09,0,3.4,1h.06C342.68,64.7,355.39,74,356.52,77.24v0s0,.06,0,.06v.05s0,0,0,0v0Zm9.67-46h0Z"/><path class="cls-34" d="M93.83,309.38l-9.68,46c-2,9.6,43,27.19,100.61,39.3s105.9,14.14,107.92,4.55l9.68-46Z"/><path class="cls-35" d="M294.67,351.6l-8.41,40c-2,9.59-50.34,7.56-107.92-4.55-43.6-9.17-80-21.48-94.25-31.08-.25,9.7,44.18,26.86,100.67,38.74,57.59,12.11,105.9,14.14,107.92,4.55l9.68-46Z"/><path class="cls-36" d="M199.41,349.7l.23,0,2.3.46.27.06,2.26.44.28.05,2.24.43.28.05,2.24.42.25.05,2.27.41.19,0,2.31.41.1,0c44.1,7.78,79.34,8.93,86.47,2.63l0,0,.18-.17,0,0,.15-.16.05-.05.12-.15.06-.06.1-.14.05-.08.09-.14,0-.07c0-.05.05-.1.08-.14l0-.09.06-.14,0-.08.06-.16a.64.64,0,0,0,0-.07l.06-.23c0-.09,0-.18,0-.26a.25.25,0,0,0,0-.08,1.34,1.34,0,0,0,0-.2v-.35a3,3,0,0,0-.09-.59v0l-.08-.29h0c-2.32-7-24.33-17.05-56.05-26.39h0c-1.14-.34-2.29-.68-3.46-1l-.1,0-3.47-1-.14,0-3.49-1-.17,0-1.76-.47-.12,0-1.69-.44-.15-.05-1.76-.45-.23-.06-1.68-.44-.11,0-1.76-.44-.31-.08-3.54-.88-.35-.09-1.78-.43-.07,0-1.73-.41-.36-.09-1.77-.41-.25-.06-1.61-.38-.35-.08-1.78-.4-.34-.08-1.6-.36-.3-.07-1.8-.4-.4-.09-1.67-.36-.2-.05-1.82-.39-.44-.09-1.85-.4-2.47-.51-.14,0-2.36-.48-.23,0-2.3-.46-.27-.05-2.26-.44-.28-.06-2.25-.43-.27-.05-2.25-.42-.24,0-2.27-.42-.19,0-2.32-.42h-.09c-44.1-7.79-79.34-8.93-86.48-2.64l0,0-.18.17,0,.05-.15.15,0,.06-.12.14-.06.07-.1.14,0,.07-.09.14s0,.05,0,.08l-.08.14,0,.08-.06.14,0,.09-.06.15a.25.25,0,0,0,0,.07l-.06.24a2,2,0,0,0,0,.26.22.22,0,0,0,0,.08,1.27,1.27,0,0,0,0,.2v.35a3.91,3.91,0,0,0,.1.58v0c0,.09.05.19.08.28v0c2.32,6.95,24.33,17.05,56.05,26.39h0l3.46,1,.1,0,3.47,1,.14,0,3.49,1,.17.05,1.76.47.11,0,1.7.45.15,0,1.76.46.23.06,1.68.43.11,0,1.76.45.31.08L174,344l.35.08,1.78.44h.07l1.73.41.36.09,1.77.42.25.06,1.61.37.35.08,1.78.41.34.08,1.6.36.3.07,1.8.4.4.09,1.67.36.2,0,1.82.4.44.09,1.85.39,2.47.52.14,0Z"/><path class="cls-37" d="M267.16,356.75l-.1,0-2.31-.41-.19,0-2.27-.41-.25-.05-2.24-.42-.28,0-2.24-.43-.28-.05-2.26-.45-.27-.05-2.3-.46-.23,0-2.36-.49-.15,0-2.46-.51-1.85-.39-.44-.09-1.82-.4-.2,0-1.67-.37-.4-.09-1.8-.39-.3-.07-1.6-.36-.34-.08-1.78-.41-.35-.08-1.61-.37-.25-.06-1.77-.42-.36-.09-1.73-.41-.07,0-1.78-.43-.35-.08L223,347.3l-.31-.07-1.76-.45-.11,0-1.68-.43-.23-.06-1.76-.46-.15,0-1.7-.45-.11,0-1.76-.47-.17-.05-3.49-1-.14,0c-1.17-.32-2.33-.65-3.47-1l-.1,0-3.47-1h0c-31.72-9.34-53.73-19.44-56.05-26.4h0c0-.09-.06-.19-.08-.28v0a4.15,4.15,0,0,1-.1-.58v-.05a1.62,1.62,0,0,1,0-.22v-.09a1.21,1.21,0,0,1,0-.19.19.19,0,0,1,0-.08,2.51,2.51,0,0,1,0-.27,1.12,1.12,0,0,1,.06-.23.19.19,0,0,1,0-.07.75.75,0,0,0,.05-.16.2.2,0,0,0,0-.08l.06-.14a.59.59,0,0,1,0-.08s.05-.1.08-.14l0-.08.09-.14,0-.07.1-.14.06-.07.12-.14.05-.06c.05-.05.09-.1.15-.15l0-.05.18-.17,0,0c2.68-2.36,9.31-3.68,18.88-4-36.89-5.5-65.11-5.74-71.41-.18l0,0-.18.17,0,0-.14.16,0,.05a1.58,1.58,0,0,0-.12.15l-.06.06-.1.14,0,.08-.09.14,0,.07s-.05.1-.08.14l0,.09-.06.14,0,.08c0,.05,0,.1,0,.16a.14.14,0,0,0,0,.07.86.86,0,0,0-.06.23c0,.09,0,.18,0,.26a.25.25,0,0,0,0,.08,1.34,1.34,0,0,0,0,.2s0,.05,0,.08,0,.15,0,.23v0a4,4,0,0,0,.1.59v0c0,.1.05.19.08.29h0c2.32,6.95,24.33,17.05,56.05,26.39h0c1.15.34,2.3.68,3.47,1l.1,0,3.46,1,.15,0,3.49,1,.17,0,1.76.48.11,0,1.7.44.15.05,1.76.45.22.06,1.68.44.12,0,1.76.44.31.08L174,344l.35.09,1.78.43.07,0,1.73.41.36.09,1.77.41.25.06,1.61.38.35.08,1.78.4.34.08,1.6.36.3.07,1.8.4.4.09,1.67.36.2.05,1.82.39.44.09,1.85.4,2.46.51.15,0,2.36.48.23.05,2.29.46.28.05,2.25.44.29.06,2.24.43.28.05,2.24.42.25,0,2.27.42.19,0,2.31.42h.1c27.56,4.87,51.66,7.14,67.6,6.62Q274.91,358.12,267.16,356.75Z"/><path class="cls-25" d="M219.62,349.81l-.1,0-2.31-.41-.19,0-2.26-.41-.25-.05c-.75-.14-1.5-.27-2.25-.42l-.27,0-2.25-.43-.28-.05-2.26-.45-.27-.05-2.3-.46-.23,0-2.36-.49-.14,0-2.47-.51-1.85-.39-.43-.09-1.83-.4-.2,0-1.67-.37-.4-.08-1.8-.4-.3-.07-1.6-.36-.34-.08-1.78-.41-.35-.08-1.61-.37-.25-.06-1.77-.42-.36-.09-1.72-.41-.08,0-1.78-.43-.34-.08-3.55-.89-.31-.07-1.76-.45-.11,0-1.68-.43-.23-.06-1.76-.46-.15,0-1.69-.45-.12,0-1.75-.47-.18-.05-3.49-1-.14,0c-1.17-.32-2.33-.65-3.47-1l-.1,0-3.46-1h0c-31.72-9.34-53.73-19.44-56-26.39v0c0-.09-.06-.19-.09-.28v0a2.91,2.91,0,0,1-.09-.58v-.36a1.21,1.21,0,0,1,0-.19.19.19,0,0,1,0-.08,2.51,2.51,0,0,1,0-.27l.06-.23a.19.19,0,0,0,0-.07l.06-.16,0-.08.06-.14,0-.08.08-.14a.35.35,0,0,1,0-.08,1,1,0,0,1,.08-.14l0-.07a1.71,1.71,0,0,1,.11-.14l0,0a11.85,11.85,0,0,0-4.4,2.15l0,0-.18.17,0,.05-.15.15,0,.06-.12.14-.06.07-.1.14,0,.07-.09.14s0,.05,0,.08l-.08.14,0,.08-.06.14,0,.09-.06.15a.25.25,0,0,0,0,.07l-.06.24a2,2,0,0,0,0,.26.22.22,0,0,0,0,.08,1.27,1.27,0,0,0,0,.2v.35a3.91,3.91,0,0,0,.1.58v0c0,.09.05.19.08.28v0c2.32,6.95,24.33,17.05,56.05,26.39h0l3.46,1,.1,0,3.47,1,.14,0,3.49,1,.17.05,1.76.47.11,0,1.7.45.15,0,1.76.46.23.06,1.68.43.11,0,1.76.45.31.08L174,344l.35.08,1.78.43.07,0,1.73.41.36.09,1.77.42.25.06,1.61.37.35.08,1.78.41.34.08,1.6.36.3.07,1.8.4.4.09,1.67.36.2,0,1.82.4.44.09,1.85.39,2.47.52.14,0,2.36.48.23,0,2.3.46.27.06,2.26.44.28.05,2.24.43.28.05,2.24.42.25.05,2.27.41.19,0,2.31.41.1,0c44.1,7.78,79.34,8.93,86.47,2.63l0,0,.18-.17,0,0,.15-.16.05-.05.12-.15,0,0C289.25,358.31,257.75,356.54,219.62,349.81Z"/><g class="cls-38"><path class="cls-39" d="M122.87,333.62c-9.81-5.05-23.29-13.67-26.52-15.68s-11.09,35.21-8,37.84,27.34,13.14,42.28,15.6S128.15,336.34,122.87,333.62Z"/></g><path class="cls-40" d="M304.45,276.4h-.14C304.46,276.41,304.52,276.42,304.45,276.4Z"/><path class="cls-41" d="M327.87,180.51l11.31-53.78L151.33,87.23,140,141c-3.69,17.51,23.11,52.68,65.11,68.21,1.12,1.55,1.54,4.17,1,7s-2,5-3.68,6c-44.7-2.7-83.39,18.7-87.07,36.21L104,312.18l.19,0c1.94,6.15,41.75,19.07,91.55,29.55s91.44,14.67,95.69,9.82l.42.08,11.31-53.78c3.68-17.53-23.14-52.71-65.16-68.23a10.44,10.44,0,0,1,2.72-12.94C285.47,219.44,324.19,198,327.87,180.51Z"/><g class="cls-42"><path class="cls-25" d="M239.5,213.07l-1.08.65a13.55,13.55,0,0,0-3.74,17.75l.74,1,1.25.46c18.58,6.86,35.63,18.29,48,32.2,10.63,11.94,16.22,24.17,14.59,31.9l-11,52.12c-1.05.42-6.67,1.92-29.25-.51-17.41-1.88-39.61-5.57-62.53-10.38s-44.72-10.39-61.41-15.68c-20.33-6.45-25.57-10.05-26.8-11.13l11-52.26c3.22-15.31,39.51-36.11,83.06-33.47l1.32.08,1.08-.64a13.55,13.55,0,0,0,3.74-17.78l-.73-1-1.25-.46c-40.91-15.12-65.76-48.78-62.54-64.08l10.58-50.31,180,37.84-10.58,50.3c-1.63,7.74-11.67,16.67-26.2,23.33-16.92,7.74-37.12,11.35-56.9,10.14Z"/></g><path class="cls-43" d="M300.39,180.58,318,162.15c.63,9.63-77.68,9.36-118.81-20.75-32.22-23.59-46.42,2.28-46.42,2.28s4.3,11,11,17.14S286.47,184.89,300.39,180.58Z"/><path class="cls-44" d="M119.19,310s10.18-19.47,36.58-20.55c12.51-.51,29.46-14.94,56-9.36,27.59,5.8,29.68,30.75,42.88,32.19s25.79,30.2,25.5,31.56-42.78-19.52-52.38-22.25S178,310.29,178,310.29Z"/><path class="cls-45" d="M237.21,207.15l-24.92-5.24h0c1.53.38-.62,6.82-.2,14.79.32,6,16.68,58.82-12.28,84.06l23-12.25c-1.55-.33,6.92-59.9,8.57-67.75S235.65,206.82,237.21,207.15Z"/><path class="cls-45" d="M284.21,165.32c-23-5.26-29.18,5.72-72.15.31s-59.27-21.95-59.27-21.95c-3.6,17.16,26.62,53.91,71.44,63.33,44.47,9.35,97.15-11.9,100.51-46C318.9,157.21,298.65,168.62,284.21,165.32Z"/><path class="cls-45" d="M285.21,300.8c-47.61-4.19-52.21-18.56-71.71-22.66l-6.84-1.44c-19.5-4.1-33.79,19.75-50.14,19.75-12.21,0-30.41,15-36.91,12.85l-.42.73,55.55,11.68,49.86,10.48,55.54,11.68h0C281.14,342.49,297.38,301.88,285.21,300.8Z"/><path class="cls-45" d="M280.14,343.87c-.63,3-37.18-2.09-81.63-11.43s-80-19.38-79.32-22.41,37.18,2.09,81.63,11.43S280.78,340.84,280.14,343.87Z"/><path class="cls-46" d="M283.17,300.15c-10.17-1.11-42.16-4-55.89-13.5-3.34-3.75-.63-3.64-5.64-5,6.36-22.35,8.86-55.93,9.88-60.82,1.11-5.27,2.65-9.74,4-12,40.12,4.09,85.4-14,89.21-47.73-5.1-3.17-27.05,6.73-41.85,4-1,1.39-4.82,20.11-33.34,30.63-3.13,1.15-22.62,4.42-24.21,15.24s.87,32.89-1.81,39.25-5.55,25.72-5,28.69-5.63-1.07-4.12.46,8.65,3.33,10.88,9.1,15.84,31.93,29.72,35.31,21.95,24.06,25.66,20.27C280.94,342.62,296.37,301.59,283.17,300.15Z"/><path class="cls-44" d="M208.07,278.49a1.61,1.61,0,1,1-1.27-1.71A1.51,1.51,0,0,1,208.07,278.49Z"/><path class="cls-44" d="M199.44,281.53a2.28,2.28,0,1,1-1.8-2.42A2.14,2.14,0,0,1,199.44,281.53Z"/><path class="cls-44" d="M213.83,281.92a1.52,1.52,0,1,1-1.2-1.61A1.41,1.41,0,0,1,213.83,281.92Z"/><path class="cls-44" d="M207,289a2.16,2.16,0,1,1-1.71-2.29A2,2,0,0,1,207,289Z"/><path class="cls-44" d="M215.92,289.41a1.81,1.81,0,1,1-1.43-1.92A1.7,1.7,0,0,1,215.92,289.41Z"/><path class="cls-44" d="M205.8,281.53a.8.8,0,1,1-.63-.84A.76.76,0,0,1,205.8,281.53Z"/><path class="cls-44" d="M178.08,291.8a3,3,0,1,1-2.39-3.21A2.83,2.83,0,0,1,178.08,291.8Z"/><path class="cls-44" d="M184.4,288.05a2.14,2.14,0,1,1-1.69-2.27A2,2,0,0,1,184.4,288.05Z"/><path class="cls-44" d="M163.75,297.06a2.21,2.21,0,1,1-1.74-2.33A2.06,2.06,0,0,1,163.75,297.06Z"/><path class="cls-44" d="M173.94,177.94a1.76,1.76,0,0,1,2.22.47,1.31,1.31,0,0,1-.41,2,1.76,1.76,0,0,1-2.22-.47A1.3,1.3,0,0,1,173.94,177.94Z"/><path class="cls-44" d="M182.76,181.35a2.5,2.5,0,0,1,3.14.66,1.83,1.83,0,0,1-.58,2.77,2.49,2.49,0,0,1-3.14-.66A1.84,1.84,0,0,1,182.76,181.35Z"/><path class="cls-44" d="M172.38,172a1.68,1.68,0,0,1,2.1.44,1.23,1.23,0,0,1-.39,1.85,1.65,1.65,0,0,1-2.09-.44A1.23,1.23,0,0,1,172.38,172Z"/><path class="cls-44" d="M183.05,171.6a2.35,2.35,0,0,1,3,.62,1.73,1.73,0,0,1-.55,2.61,2.35,2.35,0,0,1-3-.62A1.73,1.73,0,0,1,183.05,171.6Z"/><path class="cls-44" d="M176.78,165.66a2,2,0,0,1,2.48.52,1.45,1.45,0,0,1-.46,2.19,2,2,0,0,1-2.48-.52A1.45,1.45,0,0,1,176.78,165.66Z"/><path class="cls-44" d="M178.05,177.34a.87.87,0,0,1,1.09.23.64.64,0,0,1-.2,1,.87.87,0,0,1-1.1-.23A.64.64,0,0,1,178.05,177.34Z"/><path class="cls-44" d="M206.79,187.94a3.28,3.28,0,0,1,4.15.88,2.43,2.43,0,0,1-.77,3.66,3.29,3.29,0,0,1-4.15-.87A2.44,2.44,0,0,1,206.79,187.94Z"/><path class="cls-44" d="M199.12,186.47a2.32,2.32,0,0,1,2.94.62,1.72,1.72,0,0,1-.54,2.59,2.34,2.34,0,0,1-3-.61A1.73,1.73,0,0,1,199.12,186.47Z"/><path class="cls-44" d="M221.61,193.46a2.4,2.4,0,0,1,3,.64,1.76,1.76,0,0,1-.56,2.66,2.39,2.39,0,0,1-3-.63A1.77,1.77,0,0,1,221.61,193.46Z"/><path class="cls-44" d="M212.81,195.68a2,2,0,0,1,1.53,2.45,2.13,2.13,0,0,1-2.67,1.24,2,2,0,0,1-1.53-2.44A2.13,2.13,0,0,1,212.81,195.68Z"/><path class="cls-44" d="M216.9,203.88a2.35,2.35,0,0,1,2.94.62,1.73,1.73,0,0,1-.55,2.6,2.32,2.32,0,0,1-2.94-.62A1.73,1.73,0,0,1,216.9,203.88Z"/><path class="cls-44" d="M218.44,215.06A2,2,0,0,1,220,217.5a2.12,2.12,0,0,1-2.67,1.24,2,2,0,0,1-1.53-2.44A2.11,2.11,0,0,1,218.44,215.06Z"/><path class="cls-44" d="M222,209.47a1.9,1.9,0,0,1,1.43,2.3,2,2,0,0,1-2.5,1.16,1.89,1.89,0,0,1-1.43-2.29A2,2,0,0,1,222,209.47Z"/><path class="cls-44" d="M212.52,232.81A1.89,1.89,0,0,1,214,235.1a2,2,0,0,1-2.5,1.16A1.89,1.89,0,0,1,210,234,2,2,0,0,1,212.52,232.81Z"/><path class="cls-44" d="M215.55,261.31a2.11,2.11,0,0,1-2.29-1.67,1.77,1.77,0,0,1,1.76-1.95,2.1,2.1,0,0,1,2.28,1.66A1.77,1.77,0,0,1,215.55,261.31Z"/><path class="cls-44" d="M207.94,266.58a1.12,1.12,0,0,1-1.2-.88,1,1,0,0,1,.92-1,1.12,1.12,0,0,1,1.21.88A.94.94,0,0,1,207.94,266.58Z"/><g class="cls-47"><g class="cls-48"><path class="cls-49" d="M267.37,264.24s-30.46-31.68-64.69-34.3-65,12.55-72.84,22.9c-7,9.18-16.28,55.94-16.28,55.94s16.32,12.4,84,28.23S308,303.12,267.37,264.24Z"/></g><g class="cls-50"><path class="cls-51" d="M155.68,165.44c13.48,18,45,41.52,77.26,43s71.39-33.95,69.33-45.91-64.75-26.66-92.92-34.7c-10-2.85-43.26-13.8-50.61-15.81C149,109.4,142.73,148.17,155.68,165.44Z"/></g></g><g class="cls-47"><g class="cls-52"><path class="cls-53" d="M206.13,231.2c-6.62-1.45-29.33-2.89-56.22,8.9s-29,50.09-31.69,58.17,10.29,19.67,35.84,23.64,59.59-32.77,64.92-59.75S206.13,231.2,206.13,231.2Z"/></g><g class="cls-54"><path class="cls-55" d="M168.13,117.78c-7-4.51-9.47-2-9.47-2-.16,2.19-14.41,35.12,7.88,55.35s66.13,14.12,77.82-2.3S175.18,122.29,168.13,117.78Z"/></g></g><path class="cls-25" d="M180.35,233.89c-2.23-.27-9.24-.15-10,2.74S192.73,235.38,180.35,233.89Z"/><path class="cls-25" d="M151.2,243c-4.59,1.16-17.8,12.31-17.06,16.4s13.13-4.2,20.46-11.34S151.2,243,151.2,243Z"/><path class="cls-25" d="M162.25,154c-2.78-1.15-3.59,6.21,1.1,12.74S167.73,156.25,162.25,154Z"/><path class="cls-56" d="M151.68,34.24l-9.68,46c-2,9.6,43,27.19,100.61,39.3s105.9,14.14,107.92,4.55l9.68-46Z"/><path class="cls-35" d="M352.52,76.46l-8.42,40c-2,9.59-50.33,7.56-107.92-4.55-43.6-9.17-80-21.48-94.25-31.08-.24,9.7,44.19,26.86,100.68,38.74,57.58,12.11,105.9,14.14,107.92,4.55l9.68-46Z"/><path class="cls-57" d="M257.26,74.56l.23,0,2.29.46.28,0,2.25.45.29,0,2.24.43.28,0,2.24.42.25,0,2.27.41.19,0,2.31.41.1,0c44.1,7.78,79.34,8.93,86.47,2.63l0,0,.18-.17,0,0,.15-.16s0,0,0-.05l.12-.15.05-.06a1.71,1.71,0,0,1,.11-.14.35.35,0,0,1,.05-.08.64.64,0,0,0,.08-.14.22.22,0,0,0,.05-.08l.08-.13a.36.36,0,0,1,0-.09l.06-.14,0-.08.06-.16a.25.25,0,0,1,0-.07l.06-.23c0-.09,0-.18,0-.26s0-.06,0-.08a1.34,1.34,0,0,0,0-.2v-.35a3,3,0,0,0-.09-.59v0c0-.09-.05-.18-.09-.28h0c-2.32-7-24.33-17-56.05-26.39h0l-3.46-1-.1,0-3.47-1-.14,0-3.5-1-.17,0-1.75-.48-.12,0-1.69-.44-.15,0-1.76-.45-.23-.06-1.68-.44-.11,0-1.76-.44-.31-.08-3.55-.88-.34-.09-1.78-.43-.08,0-1.72-.41-.36-.09L274,42l-.25-.06-1.61-.38-.35-.08L270,41.06l-.34-.07-1.6-.36-.3-.07-1.8-.4-.4-.09-1.67-.37-.2,0-1.83-.39-.43-.09-1.85-.4-2.47-.51-.14,0-2.36-.48-.23,0-2.3-.46-.27,0-2.26-.44-.28-.06L247,36.27l-.27-.05-2.25-.42-.24,0L242,35.34l-.19,0-2.32-.42h-.09c-44.1-7.79-79.34-8.93-86.48-2.64l0,0-.18.17,0,0-.14.15,0,.06a.75.75,0,0,0-.12.14l-.06.07-.1.14-.05.07-.09.14a.35.35,0,0,1,0,.08l-.07.14s0,.05,0,.08l-.06.14a.59.59,0,0,1,0,.08c0,.06,0,.11-.05.16a.25.25,0,0,0,0,.07,1.05,1.05,0,0,0-.06.24,2,2,0,0,0,0,.26.22.22,0,0,0,0,.08,1.21,1.21,0,0,0,0,.19.28.28,0,0,0,0,.09c0,.07,0,.15,0,.22v.05a3.91,3.91,0,0,0,.1.58v0c0,.09.05.19.08.28v0c2.31,7,24.33,17.05,56,26.39h0l3.47,1,.1,0,3.46,1,.14,0,3.5,1,.17,0,1.76.47.11,0,1.7.45.15,0,1.76.46.22.06,1.68.43.12,0,1.76.45.31.07,3.54.89.35.08,1.78.43.07,0,1.72.41.37.09,1.77.42.25.06,1.61.37.35.08,1.78.41.34.08,1.6.36.3.07,1.8.4.4.08,1.67.37.2,0,1.82.4.44.09,1.85.39,2.46.51.15,0Z"/><path class="cls-37" d="M325,81.61l-.1,0-2.31-.41-.19,0-2.27-.41-.25,0-2.24-.42-.28-.05-2.24-.43-.29,0-2.26-.45-.27,0L310,78.77l-.23,0c-.79-.15-1.57-.31-2.36-.48l-.15,0-2.46-.51L303,77.31l-.44-.1-1.82-.39-.2,0-1.67-.37-.4-.09-1.8-.39-.3-.07-1.6-.36-.34-.08L292.62,75l-.35-.08-1.61-.37-.25-.06-1.77-.42-.37-.09-1.72-.41-.07,0-1.78-.43-.35-.09-3.54-.88-.31-.07-1.76-.45-.12,0-1.68-.43-.22-.06L275,70.66l-.15,0-1.7-.45-.11,0-1.76-.47-.17,0-3.5-1-.14,0-3.46-1-.1,0-3.47-1h0c-31.71-9.34-53.73-19.44-56-26.4h0c0-.09-.06-.19-.08-.28v0a4.15,4.15,0,0,1-.1-.58v0c0-.07,0-.15,0-.23a.25.25,0,0,1,0-.08,1.21,1.21,0,0,1,0-.19v-.08c0-.09,0-.18.05-.27a1.12,1.12,0,0,1,.06-.23.19.19,0,0,1,0-.07c0-.05,0-.11.05-.16a.59.59,0,0,0,0-.08l.06-.14a.59.59,0,0,1,0-.08l.07-.14a.35.35,0,0,0,0-.08l.09-.14.05-.07.1-.14,0-.07a.86.86,0,0,1,.13-.14l0-.06.14-.16,0,0,.18-.17,0,0c2.68-2.36,9.31-3.68,18.88-4-36.89-5.49-65.11-5.73-71.41-.17l0,0a1.45,1.45,0,0,0-.18.17l0,0-.14.15,0,.06-.13.15-.05.06-.1.14a.35.35,0,0,0-.05.08l-.09.13a.22.22,0,0,1,0,.08l-.07.14a.59.59,0,0,1,0,.08l-.06.15a.59.59,0,0,0,0,.08s0,.1-.05.16a.14.14,0,0,0,0,.07.86.86,0,0,0-.06.23,2.38,2.38,0,0,0-.05.26v.08c0,.07,0,.13,0,.2v.08c0,.08,0,.15,0,.23v0a4.28,4.28,0,0,0,.1.59v0c0,.1.05.19.08.29h0c2.31,7,24.33,17.05,56,26.39h0c1.15.34,2.3.68,3.47,1l.1,0,3.46,1,.14,0,3.5,1,.17,0,1.76.47.11,0,1.7.44.15,0,1.75.46.23.06,1.68.44.12,0,1.76.44.31.08,3.54.88.35.08,1.78.44.07,0,1.72.41.37.08,1.77.42.25.06,1.61.38.34.08,1.79.4.34.08,1.6.36.3.07,1.79.4.41.09,1.67.36.2,0,1.82.39.44.09,1.85.4,2.46.51.15,0,2.36.48.23,0,2.29.46.27.05,2.26.44.29.06,2.24.43.28,0,2.24.42.25,0,2.27.42.19,0,2.31.42h.1c27.56,4.87,51.66,7.14,67.6,6.62C335.2,83.34,330.16,82.52,325,81.61Z"/><path class="cls-25" d="M277.47,74.67l-.1,0-2.31-.41-.19,0-2.27-.41-.25-.05-2.24-.42-.28,0-2.24-.43-.28,0-2.26-.45-.27,0-2.3-.46-.23,0-2.36-.49-.14,0-2.47-.51-1.85-.39-.44-.09-1.82-.4-.2,0-1.67-.37-.4-.09L249.1,69l-.3-.07-1.6-.36-.34-.08-1.78-.41-.35-.08-1.61-.37-.25-.06-1.77-.42-.36-.09L239,66.64l-.07,0-1.78-.43-.35-.08-3.54-.89-.31-.07-1.76-.45-.11,0-1.68-.43-.23-.06-1.76-.46-.15,0-1.7-.45-.11,0-1.76-.47-.17,0-3.49-1-.14,0c-1.17-.32-2.33-.65-3.47-1l-.1,0-3.46-1h0c-31.72-9.34-53.73-19.44-56.05-26.4h0c0-.09-.05-.19-.08-.28v0a3,3,0,0,1-.09-.58V32a1.21,1.21,0,0,1,0-.19.19.19,0,0,1,0-.08,2.51,2.51,0,0,1,0-.27l.06-.23a.19.19,0,0,1,0-.07l.06-.16,0-.08.06-.14a.59.59,0,0,1,0-.08c0-.05.05-.1.08-.14s0,0,0-.08l.09-.14,0-.07.1-.14,0,0a11.85,11.85,0,0,0-4.4,2.15l0,0-.18.17,0,0-.14.15,0,.06a.53.53,0,0,0-.12.14l-.06.07-.1.14-.05.07-.09.14a.35.35,0,0,1,0,.08l-.07.14s0,.05,0,.08l-.06.14a.59.59,0,0,1,0,.08c0,.06,0,.11-.05.16a.25.25,0,0,0,0,.07,1.05,1.05,0,0,0-.06.24,2,2,0,0,0,0,.26.22.22,0,0,0,0,.08,1.21,1.21,0,0,0,0,.19.28.28,0,0,0,0,.09c0,.07,0,.15,0,.22v.05a3.91,3.91,0,0,0,.1.58v0c0,.09.05.19.08.28v0c2.31,7,24.33,17.05,56,26.39h0l3.47,1,.1,0,3.46,1,.14,0,3.5,1,.17,0,1.76.47.11,0,1.7.45.15,0,1.76.46.22.06,1.68.43.12,0,1.76.45.31.07,3.54.89.35.08,1.78.43.07,0,1.72.41.37.09,1.77.42.25.06,1.61.37.35.08,1.78.41.34.08,1.6.36.3.07,1.8.4.4.08,1.67.37.2,0,1.82.4.44.09,1.85.39,2.46.51.15,0,2.36.49.23,0,2.29.46.28,0,2.25.45.29,0,2.24.43.28,0,2.24.42.25,0,2.27.41.19,0,2.31.41.1,0c44.1,7.78,79.34,8.93,86.47,2.63l0,0,.18-.17,0,0,.15-.16s0,0,0-.05l.12-.15,0,0C347.1,83.16,315.6,81.4,277.47,74.67Z"/><g class="cls-58"><path class="cls-59" d="M180.72,58.48c-9.82-5-23.29-13.68-26.52-15.68s-11.09,35.21-8,37.84,27.34,13.14,42.28,15.6S186,61.2,180.72,58.48Z"/></g><g class="cls-60"><path class="cls-61" d="M170,11.64c-18.9,0-34.22,14.26-34.22,31.87S151.09,75.36,170,75.36s34.2-14.28,34.2-31.85S188.87,11.64,170,11.64Z"/></g><path class="cls-32" d="M138.74,85.43c9.18-10.3,36.18-41.92,36.18-41.92S197.47,1.19,198,0c.15-.34-28.82,39.79-28.82,39.79Z"/><path class="cls-25" d="M177.42,35.93c-8.31-6.51-6.8-24.79-6.87-30v5c0-.79-.06-1.65-.06-1.83V6a58.13,58.13,0,0,1-.46,6.55s-2.44,18.36-6.84,22.15c-9.91,8.69-34.85,7-25.29,7.24,32.3.7,32.3,32.22,32.59,42.56V79.25c0,.37.06.69.06.87v4.34c.69-24.48.6-40,28.78-42C208.66,41.71,187.16,43.51,177.42,35.93Z"/><path class="cls-62" d="M438.74,329.42l.07-.11S438.77,329.33,438.74,329.42Z"/><path class="cls-62" d="M424.58,307.08l.13-.08-.89-1.14a86.14,86.14,0,0,0-68.29-33.32h-1.76a86,86,0,0,0-59.61,25.21,83.4,83.4,0,0,0,.51,118.85,86.81,86.81,0,0,0,121.34,0,83.33,83.33,0,0,0,8.57-109.54Z"/><path class="cls-63" d="M432.55,304.81l.05-.11A.25.25,0,0,0,432.55,304.81Z"/><path class="cls-64" d="M414.66,285.33l.11-.1-1.07-1a86.15,86.15,0,0,0-73.11-20.7l-.13,0h-.06l-.27,0-1.27.25a86,86,0,0,0-54.21,35.35,83.4,83.4,0,0,0,21.54,116.89,86.83,86.83,0,0,0,119.43-21.47,83.36,83.36,0,0,0-11-109.34Z"/><path class="cls-65" d="M439.27,331.57c8.12,45.17-22.54,88.48-68.48,96.75S281,406.66,272.9,361.49s22.54-88.49,68.48-96.75S431.15,286.4,439.27,331.57Z"/><path class="cls-24" d="M341.38,264.74c-45.94,8.26-76.6,51.58-68.48,96.75.18,1,.4,2,.61,2.94,24.55,14.88,55.8,21.19,88,15.39,32.77-5.89,60.25-23.18,78.05-46.27-.1-.67-.18-1.32-.3-2C431.15,286.4,387.32,256.48,341.38,264.74Z"/><path class="cls-24" d="M413.58,285.1a85.38,85.38,0,0,0-132.7,24.32,131.51,131.51,0,0,0,132.7-24.32Z"/><path class="cls-66" d="M370.17,424.86C324.82,433,281.55,404,272.64,359.75c.09.58.16,1.16.26,1.74,8.13,45.17,52,75.09,97.89,66.83s76.6-51.58,68.48-96.75c-.1-.58-.24-1.15-.35-1.72C446,374.38,415.52,416.7,370.17,424.86Z"/><path class="cls-67" d="M424,334.32c6.62,36.86-18.39,72.2-55.88,78.94s-73.23-17.67-79.86-54.53,18.39-72.19,55.87-78.93S417.33,297.47,424,334.32Z"/><path class="cls-62" d="M344.09,279.8a69.29,69.29,0,0,0-46.3,30.88,69.36,69.36,0,0,1,43-26.14c37.48-6.74,73.24,17.67,79.86,54.52a66.93,66.93,0,0,1-9.57,48.06,67.12,67.12,0,0,0,12.9-52.8C417.33,297.47,381.57,273.06,344.09,279.8Z"/><path class="cls-68" d="M320.92,393.6c-6.63-36.85,18.38-72.19,55.86-78.93a69.41,69.41,0,0,1,43.2,6.06c-11.91-29-43.25-46.8-75.9-40.93-37.48,6.74-62.5,42.08-55.87,78.93a67.32,67.32,0,0,0,36.67,48.47A66.46,66.46,0,0,1,320.92,393.6Z"/><path class="cls-25" d="M284.83,309.9c-5.47,11.52-8.73,25-4.49,28.17s8.1-20.48,17.79-31.62S292.47,293.85,284.83,309.9Z"/><path class="cls-25" d="M316.61,278.48c-12.28,4.07-15.7,12.8-11.85,14.39s17.11-8.22,21.12-12.3S320.53,277.18,316.61,278.48Z"/><path class="cls-25" d="M406.47,392.53s-22.75,22.4-49.3,21.34S318.22,406.7,309,396.32s12.6,27.57,55.28,21.81C411.1,411.82,415.09,385.35,406.47,392.53Z"/><path class="cls-62" d="M390.6,342.88a25.55,25.55,0,0,0-11.74-7.5A39.73,39.73,0,0,0,373,334q-3.75-.64-13.15-1.77a16.25,16.25,0,0,0-2.84-.11l-1.06-6.58.63,0,.39.05.44.05,3.13.31.79.23,4.15.45a28.29,28.29,0,0,0,7.7,0,12.15,12.15,0,0,0,9.55-14.12,19,19,0,0,0-1.39-4.25,12.36,12.36,0,0,0-5.64-5.75q-3.92-2.06-11.2-2.93a43.56,43.56,0,0,0-6.6-.29,51.68,51.68,0,0,0-6.55.65l-2-11.35a2.7,2.7,0,0,0-1.08-1.81,1.87,1.87,0,0,0-1.64-.39,2.35,2.35,0,0,0-1.49,1.08,2.77,2.77,0,0,0-.3,1.81l2.08,11.58c-2,.57-3.35,1-4.1,1.24A48.47,48.47,0,0,0,330,308.76a33.14,33.14,0,0,0-8.41,8.93q-6,9.6-4.17,19.6a24.17,24.17,0,0,0,6.29,12.55,23.31,23.31,0,0,0,12.43,6.94,63.69,63.69,0,0,0,7.68,1.31c3.64.48,7,.81,10.08,1h1.38l1.94,0,1.37,8.33a24.25,24.25,0,0,1-4.55.44l-1-.07-4.12-.26-5.08-.4-5.72-.47a19.47,19.47,0,0,0-4.46.3q-5.34,1-7.92,6.81a13,13,0,0,0-1,4.63,22.3,22.3,0,0,0,.29,3.7,11,11,0,0,0,3.09,6,22.63,22.63,0,0,0,7.38,4.5q7.43,3,23.14,1.22c1-.18,1.84-.32,2.49-.41s1.36-.2,2.14-.29l1.87,11.12a2,2,0,0,0,1.16,1.54,2,2,0,0,0,1.51.42,2.12,2.12,0,0,0,1.6-1.23,2.43,2.43,0,0,0,.22-1.54l-1.92-11.36a19,19,0,0,0,1.86-.46c.76-.22,1.69-.47,2.81-.76a39,39,0,0,0,11.9-6.43,34.85,34.85,0,0,0,8.57-10,27.89,27.89,0,0,0,3.71-19.39A24.85,24.85,0,0,0,390.6,342.88Zm-38.31-11.05-2.36-.26-1.28-.15-.77-.11a5.69,5.69,0,0,1-1.81-.68,2.36,2.36,0,0,1-1.13-1.36,2.57,2.57,0,0,1,.77-2,8.36,8.36,0,0,1,4.2-1.69,6.17,6.17,0,0,1,1.36-.12ZM367.16,363a4.58,4.58,0,0,1-1.66,2.24l-.22.17-1.21.59-1,.56-1.17-7.18.66.13.62,0,1.75.31c.73.12,1.18.2,1.36.25.43.05.72.52.88,1.41A3.44,3.44,0,0,1,367.16,363Z"/></g></g></g></g></svg>