<svg xmlns="http://www.w3.org/2000/svg" xmlns:xlink="http://www.w3.org/1999/xlink" viewBox="0 0 454.91 441.34"><defs><style>.cls-1{mask:url(#mask);filter:url(#luminosity-noclip-11);}.cls-10,.cls-12,.cls-14,.cls-16,.cls-19,.cls-2,.cls-27,.cls-32,.cls-4,.cls-6,.cls-8{mix-blend-mode:multiply;}.cls-2{fill:url(#radial-gradient);}.cls-3{mask:url(#mask-2);filter:url(#luminosity-noclip-16);}.cls-4{fill:url(#linear-gradient);}.cls-5{mask:url(#mask-3);filter:url(#luminosity-noclip-17);}.cls-6{fill:url(#linear-gradient-2);}.cls-7{mask:url(#mask-4);filter:url(#luminosity-noclip-18);}.cls-8{fill:url(#linear-gradient-3);}.cls-9{mask:url(#mask-5);filter:url(#luminosity-noclip-19);}.cls-10{fill:url(#linear-gradient-4);}.cls-11{mask:url(#mask-6);filter:url(#luminosity-noclip-20);}.cls-12{fill:url(#linear-gradient-5);}.cls-13{mask:url(#mask-7);filter:url(#luminosity-noclip-12);}.cls-14{fill:url(#linear-gradient-6);}.cls-15,.cls-17{mask:url(#mask-8);}.cls-15{filter:url(#luminosity-noclip-13);}.cls-16{fill:url(#radial-gradient-2);}.cls-18{mask:url(#mask-10);filter:url(#luminosity-noclip-15);}.cls-19{fill:url(#linear-gradient-7);}.cls-20{isolation:isolate;}.cls-21{mask:url(#mask-11);}.cls-22,.cls-28,.cls-29,.cls-31,.cls-37,.cls-41,.cls-42,.cls-44,.cls-45,.cls-46{mix-blend-mode:overlay;}.cls-22{fill:url(#radial-gradient-4);}.cls-23,.cls-24,.cls-28,.cls-29,.cls-37,.cls-41,.cls-42,.cls-45{fill:#fff;}.cls-23,.cls-45{opacity:0.7;}.cls-25{fill:url(#linear-gradient-8);}.cls-26{mask:url(#mask-12);}.cls-27{fill:url(#linear-gradient-9);}.cls-28,.cls-31{opacity:0.35;}.cls-29{opacity:0.49;}.cls-30{fill:url(#linear-gradient-10);}.cls-32{fill:#ac6518;opacity:0.39;}.cls-33{fill:#f7eb64;}.cls-34{fill:#6d390c;}.cls-35,.cls-48{fill:#9e5708;}.cls-36{fill:url(#linear-gradient-11);}.cls-37{opacity:0.5;}.cls-38{fill:url(#linear-gradient-12);}.cls-39{fill:url(#linear-gradient-13);}.cls-40{fill:url(#linear-gradient-14);}.cls-41{opacity:0.17;}.cls-42{opacity:0.48;}.cls-43{mask:url(#mask-13);}.cls-44{fill:url(#radial-gradient-5);}.cls-47{fill:url(#linear-gradient-15);}.cls-48{opacity:0.23;}.cls-49{fill:url(#linear-gradient-16);}.cls-50{opacity:0.91;}.cls-51{mask:url(#mask-15);}.cls-52{fill:url(#linear-gradient-17);}.cls-53{mask:url(#mask-16);}.cls-54{fill:url(#linear-gradient-18);}.cls-55{mask:url(#mask-17);}.cls-56{fill:url(#linear-gradient-19);}.cls-57{mask:url(#mask-18);}.cls-58{fill:url(#linear-gradient-20);}.cls-59{mask:url(#mask-19);}.cls-60{fill:url(#linear-gradient-21);}.cls-61{mask:url(#mask-20);}.cls-62{fill:url(#linear-gradient-22);}.cls-63{filter:url(#luminosity-noclip-10);}.cls-64{filter:url(#luminosity-noclip-8);}.cls-65{filter:url(#luminosity-noclip-7);}.cls-66{filter:url(#luminosity-noclip-6);}.cls-67{filter:url(#luminosity-noclip-5);}.cls-68{filter:url(#luminosity-noclip-4);}.cls-69{filter:url(#luminosity-noclip-3);}.cls-70{filter:url(#luminosity-noclip-2);}.cls-71{filter:url(#luminosity-noclip);}</style><filter id="luminosity-noclip" x="29.53" y="-15686.82" width="112.66" height="32766" filterUnits="userSpaceOnUse" color-interpolation-filters="sRGB"><feFlood flood-color="#fff" result="bg"/><feBlend in="SourceGraphic" in2="bg"/></filter><mask id="mask" x="29.53" y="-15686.82" width="112.66" height="32766" maskUnits="userSpaceOnUse"><g class="cls-71"/></mask><radialGradient id="radial-gradient" cx="85.86" cy="85.17" r="54.43" gradientUnits="userSpaceOnUse"><stop offset="0.09" stop-color="#fff"/><stop offset="0.17" stop-color="#f6f6f6"/><stop offset="0.3" stop-color="#dedede"/><stop offset="0.45" stop-color="#b6b6b6"/><stop offset="0.64" stop-color="#7f7f7f"/><stop offset="0.85" stop-color="#393939"/><stop offset="1"/></radialGradient><filter id="luminosity-noclip-2" x="188.44" y="-15686.82" width="33.45" height="32766" filterUnits="userSpaceOnUse" color-interpolation-filters="sRGB"><feFlood flood-color="#fff" result="bg"/><feBlend in="SourceGraphic" in2="bg"/></filter><mask id="mask-2" x="188.44" y="-15686.82" width="33.45" height="32766" maskUnits="userSpaceOnUse"><g class="cls-70"/></mask><linearGradient id="linear-gradient" x1="203.45" y1="319.96" x2="206.31" y2="271.75" gradientUnits="userSpaceOnUse"><stop offset="0.02" stop-color="#fff"/><stop offset="1"/></linearGradient><filter id="luminosity-noclip-3" x="228.09" y="-15686.82" width="29.03" height="32766" filterUnits="userSpaceOnUse" color-interpolation-filters="sRGB"><feFlood flood-color="#fff" result="bg"/><feBlend in="SourceGraphic" in2="bg"/></filter><mask id="mask-3" x="228.09" y="-15686.82" width="29.03" height="32766" maskUnits="userSpaceOnUse"><g class="cls-69"/></mask><linearGradient id="linear-gradient-2" x1="240.56" y1="322.16" x2="243.42" y2="273.96" xlink:href="#linear-gradient"/><filter id="luminosity-noclip-4" x="259.76" y="-15686.82" width="26.55" height="32766" filterUnits="userSpaceOnUse" color-interpolation-filters="sRGB"><feFlood flood-color="#fff" result="bg"/><feBlend in="SourceGraphic" in2="bg"/></filter><mask id="mask-4" x="259.76" y="-15686.82" width="26.55" height="32766" maskUnits="userSpaceOnUse"><g class="cls-68"/></mask><linearGradient id="linear-gradient-3" x1="270.33" y1="323.93" x2="273.19" y2="275.72" xlink:href="#linear-gradient"/><filter id="luminosity-noclip-5" x="286.31" y="-15686.82" width="24.02" height="32766" filterUnits="userSpaceOnUse" color-interpolation-filters="sRGB"><feFlood flood-color="#fff" result="bg"/><feBlend in="SourceGraphic" in2="bg"/></filter><mask id="mask-5" x="286.31" y="-15686.82" width="24.02" height="32766" maskUnits="userSpaceOnUse"><g class="cls-67"/></mask><linearGradient id="linear-gradient-4" x1="294.63" y1="325.37" x2="297.49" y2="277.16" xlink:href="#linear-gradient"/><filter id="luminosity-noclip-6" x="137.35" y="-15686.82" width="23.15" height="32766" filterUnits="userSpaceOnUse" color-interpolation-filters="sRGB"><feFlood flood-color="#fff" result="bg"/><feBlend in="SourceGraphic" in2="bg"/></filter><mask id="mask-6" x="137.35" y="-15686.82" width="23.15" height="32766" maskUnits="userSpaceOnUse"><g class="cls-66"/></mask><linearGradient id="linear-gradient-5" x1="145.69" y1="316.54" x2="148.55" y2="268.33" xlink:href="#linear-gradient"/><filter id="luminosity-noclip-7" x="0" y="-15686.82" width="453.92" height="32766" filterUnits="userSpaceOnUse" color-interpolation-filters="sRGB"><feFlood flood-color="#fff" result="bg"/><feBlend in="SourceGraphic" in2="bg"/></filter><mask id="mask-7" x="0" y="-15686.82" width="453.92" height="32766" maskUnits="userSpaceOnUse"><g class="cls-65"/></mask><linearGradient id="linear-gradient-6" y1="328.52" x2="453.92" y2="328.52" gradientUnits="userSpaceOnUse"><stop offset="0.25"/><stop offset="1" stop-color="#fff"/></linearGradient><filter id="luminosity-noclip-8" x="93.89" y="-15686.82" width="63.07" height="32766" filterUnits="userSpaceOnUse" color-interpolation-filters="sRGB"><feFlood flood-color="#fff" result="bg"/><feBlend in="SourceGraphic" in2="bg"/></filter><mask id="mask-8" x="93.89" y="-15686.82" width="63.07" height="32766" maskUnits="userSpaceOnUse"><g class="cls-64"/></mask><radialGradient id="radial-gradient-2" cx="125.43" cy="111.54" r="30.47" xlink:href="#radial-gradient"/><filter id="luminosity-noclip-10" x="160.47" y="-15686.82" width="16.74" height="32766" filterUnits="userSpaceOnUse" color-interpolation-filters="sRGB"><feFlood flood-color="#fff" result="bg"/><feBlend in="SourceGraphic" in2="bg"/></filter><mask id="mask-10" x="160.47" y="-15686.82" width="16.74" height="32766" maskUnits="userSpaceOnUse"><g class="cls-63"/></mask><linearGradient id="linear-gradient-7" x1="166.46" y1="317.77" x2="169.32" y2="269.56" xlink:href="#linear-gradient"/><filter id="luminosity-noclip-11" x="29.53" y="32.71" width="112.66" height="104.91" filterUnits="userSpaceOnUse" color-interpolation-filters="sRGB"><feFlood flood-color="#fff" result="bg"/><feBlend in="SourceGraphic" in2="bg"/></filter><mask id="mask-11" x="29.53" y="32.71" width="112.66" height="104.91" maskUnits="userSpaceOnUse"><g class="cls-1"><path class="cls-2" d="M85.87,32.71c-31.11,0-56.34,23.49-56.34,52.47s25.23,52.44,56.34,52.44,56.32-23.5,56.32-52.44S117,32.71,85.87,32.71Z"/></g></mask><radialGradient id="radial-gradient-4" cx="85.86" cy="85.17" r="54.43" gradientUnits="userSpaceOnUse"><stop offset="0.09" stop-color="#fff"/><stop offset="1" stop-color="#fff"/></radialGradient><linearGradient id="linear-gradient-8" x1="217.93" y1="-23.32" x2="236.9" y2="438.56" gradientUnits="userSpaceOnUse"><stop offset="0" stop-color="#f3e036"/><stop offset="1" stop-color="#ca7c1d"/></linearGradient><filter id="luminosity-noclip-12" x="0" y="215.71" width="453.92" height="225.63" filterUnits="userSpaceOnUse" color-interpolation-filters="sRGB"><feFlood flood-color="#fff" result="bg"/><feBlend in="SourceGraphic" in2="bg"/></filter><mask id="mask-12" x="0" y="215.71" width="453.92" height="225.63" maskUnits="userSpaceOnUse"><g class="cls-13"><path class="cls-14" d="M227,431.44c-123.66,0-224.2-96.15-226.9-215.73C0,217.35,0,219,0,220.65,0,342.52,101.61,441.34,227,441.34s227-98.82,227-220.69c0-1.65,0-3.3-.06-4.94C451.15,335.29,350.6,431.44,227,431.44Z"/></g></mask><linearGradient id="linear-gradient-9" y1="328.52" x2="453.92" y2="328.52" gradientUnits="userSpaceOnUse"><stop offset="0.25" stop-color="#f3e036"/><stop offset="1" stop-color="#d18921"/></linearGradient><linearGradient id="linear-gradient-10" x1="225.85" y1="101.02" x2="225.85" y2="424.54" gradientUnits="userSpaceOnUse"><stop offset="0" stop-color="#ca7c1d"/><stop offset="1" stop-color="#f3e036"/></linearGradient><linearGradient id="linear-gradient-11" x1="223.26" y1="357.67" x2="223.26" y2="67.98" gradientUnits="userSpaceOnUse"><stop offset="0" stop-color="#cc7c1d"/><stop offset="1" stop-color="#f5e236"/></linearGradient><linearGradient id="linear-gradient-12" x1="223.27" y1="331" x2="223.27" y2="94.65" gradientUnits="userSpaceOnUse"><stop offset="0" stop-color="#f5e236"/><stop offset="1" stop-color="#cc7c1d"/></linearGradient><linearGradient id="linear-gradient-13" x1="143.07" y1="106.34" x2="143.07" y2="91.67" xlink:href="#linear-gradient-11"/><linearGradient id="linear-gradient-14" x1="181.92" y1="79.16" x2="181.92" y2="74.44" xlink:href="#linear-gradient-11"/><filter id="luminosity-noclip-13" x="93.89" y="82.17" width="63.07" height="58.73" filterUnits="userSpaceOnUse" color-interpolation-filters="sRGB"><feFlood flood-color="#fff" result="bg"/><feBlend in="SourceGraphic" in2="bg"/></filter><mask id="mask-13" x="93.89" y="82.17" width="63.07" height="58.73" maskUnits="userSpaceOnUse"><g class="cls-15"><path class="cls-16" d="M125.42,82.17c-17.41,0-31.53,13.15-31.53,29.37S108,140.9,125.42,140.9,157,127.75,157,111.54,142.83,82.17,125.42,82.17Z"/></g></mask><radialGradient id="radial-gradient-5" cx="125.43" cy="111.54" r="30.47" xlink:href="#radial-gradient-4"/><linearGradient id="linear-gradient-15" x1="153.12" y1="195.34" x2="293.73" y2="195.34" xlink:href="#linear-gradient-12"/><linearGradient id="linear-gradient-16" x1="124.46" y1="212.68" x2="318.42" y2="212.68" gradientUnits="userSpaceOnUse"><stop offset="0" stop-color="#eed132"/><stop offset="0.96" stop-color="#f3f02a"/></linearGradient><filter id="luminosity-noclip-15" x="160.47" y="258.7" width="16.74" height="34.34" filterUnits="userSpaceOnUse" color-interpolation-filters="sRGB"><feFlood flood-color="#fff" result="bg"/><feBlend in="SourceGraphic" in2="bg"/></filter><mask id="mask-15" x="160.47" y="258.7" width="16.74" height="34.34" maskUnits="userSpaceOnUse"><g class="cls-18"><path class="cls-19" d="M167.83,258.7s-8.09,13.55-7.31,21.42,12.4,12.93,12.4,12.93,6.52-12.69,3.48-23.53A17.62,17.62,0,0,0,167.83,258.7Z"/></g></mask><linearGradient id="linear-gradient-17" x1="166.46" y1="317.77" x2="169.32" y2="269.56" gradientUnits="userSpaceOnUse"><stop offset="0.02" stop-color="#fff"/><stop offset="1" stop-color="#fff"/></linearGradient><filter id="luminosity-noclip-16" x="188.44" y="275.88" width="33.45" height="28.43" filterUnits="userSpaceOnUse" color-interpolation-filters="sRGB"><feFlood flood-color="#fff" result="bg"/><feBlend in="SourceGraphic" in2="bg"/></filter><mask id="mask-16" x="188.44" y="275.88" width="33.45" height="28.43" maskUnits="userSpaceOnUse"><g class="cls-3"><path class="cls-4" d="M194.33,275.88s-7.27,18.78-5.65,21.21,29.87,10.1,29.88,6.06,3.42-12.93,3.33-17.37S200.8,277.29,194.33,275.88Z"/></g></mask><linearGradient id="linear-gradient-18" x1="203.45" y1="319.96" x2="206.31" y2="271.75" xlink:href="#linear-gradient-17"/><filter id="luminosity-noclip-17" x="228.09" y="278.73" width="29.03" height="24.46" filterUnits="userSpaceOnUse" color-interpolation-filters="sRGB"><feFlood flood-color="#fff" result="bg"/><feBlend in="SourceGraphic" in2="bg"/></filter><mask id="mask-17" x="228.09" y="278.73" width="29.03" height="24.46" maskUnits="userSpaceOnUse"><g class="cls-5"><path class="cls-6" d="M228.09,280.52s.59,16.57,5,19.4,22.22,5.65,23.44,0,.4-15.36-2-19.4S228.09,280.52,228.09,280.52Z"/></g></mask><linearGradient id="linear-gradient-19" x1="240.56" y1="322.16" x2="243.42" y2="273.96" xlink:href="#linear-gradient-17"/><filter id="luminosity-noclip-18" x="259.76" y="261.44" width="26.55" height="30.63" filterUnits="userSpaceOnUse" color-interpolation-filters="sRGB"><feFlood flood-color="#fff" result="bg"/><feBlend in="SourceGraphic" in2="bg"/></filter><mask id="mask-18" x="259.76" y="261.44" width="26.55" height="30.63" maskUnits="userSpaceOnUse"><g class="cls-7"><path class="cls-8" d="M259.79,278.73s8.89,11.69,10.71,13.11,10.5-4,14.34-8.69-.81-17.78-3-21.21S258.94,273.78,259.79,278.73Z"/></g></mask><linearGradient id="linear-gradient-20" x1="270.33" y1="323.93" x2="273.19" y2="275.72" xlink:href="#linear-gradient-17"/><filter id="luminosity-noclip-19" x="286.31" y="245.36" width="24.02" height="31.45" filterUnits="userSpaceOnUse" color-interpolation-filters="sRGB"><feFlood flood-color="#fff" result="bg"/><feBlend in="SourceGraphic" in2="bg"/></filter><mask id="mask-19" x="286.31" y="245.36" width="24.02" height="31.45" maskUnits="userSpaceOnUse"><g class="cls-9"><path class="cls-10" d="M310.3,268.2c-.81-3-7.39-23.44-12-22.83s-12,12.53-12,12.53,8,18.11,9.44,18.85S311.1,271.23,310.3,268.2Z"/></g></mask><linearGradient id="linear-gradient-21" x1="294.63" y1="325.37" x2="297.49" y2="277.16" xlink:href="#linear-gradient-17"/><filter id="luminosity-noclip-20" x="137.35" y="246.58" width="23.15" height="30.21" filterUnits="userSpaceOnUse" color-interpolation-filters="sRGB"><feFlood flood-color="#fff" result="bg"/><feBlend in="SourceGraphic" in2="bg"/></filter><mask id="mask-20" x="137.35" y="246.58" width="23.15" height="30.21" maskUnits="userSpaceOnUse"><g class="cls-11"><path class="cls-12" d="M148.68,246.58s-10.91,16.77-11.32,18.79,6.67,10.44,8.89,11.38,13.49-14.61,14.22-18.05S148.68,246.58,148.68,246.58Z"/></g></mask><linearGradient id="linear-gradient-22" x1="145.69" y1="316.54" x2="148.55" y2="268.33" xlink:href="#linear-gradient-17"/></defs><title>free</title><g class="cls-20"><g id="Layer_2" data-name="Layer 2"><g id="Layer_31" data-name="Layer 31"><g id="Layer_9" data-name="Layer 9"><g class="cls-21"><path class="cls-22" d="M85.87,32.71c-31.11,0-56.34,23.49-56.34,52.47s25.23,52.44,56.34,52.44,56.32-23.5,56.32-52.44S117,32.71,85.87,32.71Z"/></g><path class="cls-23" d="M34.42,154.21c15.12-17,59.57-69,59.57-69s37.13-69.67,38-71.63c.24-.56-47.46,65.52-47.46,65.52Z"/><path class="cls-24" d="M98.11,72.71C84.42,62,86.91,31.89,86.8,23.36v8.17c0-1.31-.1-2.72-.1-3V23.36a92.21,92.21,0,0,1-.77,10.78s-4,30.23-11.25,36.47C58.36,84.93,17.3,82.17,33.05,82.53c53.17,1.15,53.17,53.05,53.65,70.08V144c0,.61.1,1.12.1,1.43v7.14c1.13-40.3,1-65.8,47.38-69.21C149.55,82.22,114.14,85.18,98.11,72.71Z"/><path class="cls-25" d="M228,0C102.6,0,1,98.79,1,220.65S102.6,441.34,228,441.34s227-98.82,227-220.69S353.28,0,228,0Z"/><g class="cls-26"><path class="cls-27" d="M227,431.44c-123.66,0-224.2-96.15-226.9-215.73C0,217.35,0,219,0,220.65,0,342.52,101.61,441.34,227,441.34s227-98.82,227-220.69c0-1.65,0-3.3-.06-4.94C451.15,335.29,350.6,431.44,227,431.44Z"/></g><path class="cls-28" d="M228,0C102.6,0,1,98.79,1,220.65c0,2.7.11,5.33.22,8C59,279.06,138.62,310.23,226.48,310.23c89.4,0,170.24-32.27,228.28-84.26,0-1.79.15-3.52.15-5.32C454.91,98.79,353.28,0,228,0Z"/><path class="cls-29" d="M409.07,87.12C367.62,34.19,302.14,0,228.43,0,154.16,0,88.22,34.71,46.82,88.32c51.31,30.8,113.34,48.84,180.15,48.84C294.66,137.16,357.38,118.66,409.07,87.12Z"/><path class="cls-29" d="M228,12.63c123.15,0,223.33,95.42,226.78,214.34.07-2.09.18-4.19.18-6.32C454.91,98.79,353.28,0,228,0S1,98.79,1,220.65c0,2.13.1,4.23.16,6.32C4.62,108.05,104.79,12.63,228,12.63Z"/><path class="cls-24" d="M197.47,14.51c10.57-.81,21.45,3.21,16.18,7.8s-41,25.19-56.58,12.46S185.05,15.46,197.47,14.51Z"/><path class="cls-24" d="M74.68,70.61C41.61,98.44,14.89,149.83,15.56,179.87s16.71-17.09,25-34.18,49.71-69.22,79.74-85S126.38,27.11,74.68,70.61Z"/><path class="cls-30" d="M225.86,29.63c-106.37,0-192.6,83.85-192.6,187.26s86.23,187.26,192.6,187.26,192.59-83.84,192.59-187.26S332.24,29.63,225.86,29.63Z"/><g class="cls-31"><path class="cls-24" d="M225.55,416.63c-112.14,0-203.38-88.82-203.38-198s91.24-198,203.38-198,203.36,88.82,203.36,198S337.68,416.63,225.55,416.63Zm0-378c-102.23,0-185.41,80.76-185.41,180s83.18,180,185.41,180,185.39-80.75,185.39-180S327.77,38.61,225.55,38.61Z"/></g><path class="cls-32" d="M225.86,29.63A194.51,194.51,0,0,0,83.35,91,194.86,194.86,0,0,1,214.4,40.9C320.75,40.9,407,124.72,407,228.15c0,48.51-19,92.7-50.08,126,37.88-34.2,61.56-83,61.56-137.22C418.45,113.48,332.24,29.63,225.86,29.63Z"/><path class="cls-33" d="M225.86,393.94c-104.5,0-189.5-81-192.42-181.9-.08,1.8-.18,3.57-.18,5.39,0,103.43,86.23,187.25,192.6,187.25s192.59-83.82,192.59-187.25c0-1.82-.08-3.59-.14-5.39C415.36,313,330.38,393.94,225.86,393.94Z"/><path class="cls-34" d="M374.48,212.05l0-8.64h-.23A145.3,145.3,0,0,0,348,128l.34-.22L344,122.16A150.8,150.8,0,0,0,227.81,63.71l-1.38,0-1.16,0h-1.52A151.1,151.1,0,0,0,118,106.3a146.32,146.32,0,0,0-44.71,97.11H73v28.1c0,80.6,67.62,146.18,150.73,146.18s150.73-65.58,150.73-146.18V212.05ZM223.75,365c-76.1,0-138-59.87-138-133.46V211.66l0-1.8c1.14-73.61,63-133.49,138-133.49H225l1.28,0,1.2,0a138.19,138.19,0,0,1,102,48l0,0,4.32,5.59a133,133,0,0,1,28,79.8l0,21.65C361.76,305.1,299.85,365,223.75,365Z"/><path class="cls-35" d="M369.79,210.59c-7.65-103-70.33-120.48-146.53-120.48S84.31,106.46,76.72,210.59H76v22.18c0,78.8,66,142.68,147.31,142.68s147.32-63.88,147.32-142.68V210.59Z"/><path class="cls-34" d="M223.54,369.31c-81.37,0-147.39-64-148.28-143.25,0,1.64,0,3.28,0,5,0,80,66.4,144.85,148.32,144.85S371.85,311,371.85,231c0-1.67,0-3.32-.05-5C370.92,305.33,304.89,369.31,223.54,369.31Z"/><path class="cls-36" d="M370.58,212.82c0,80-65.95,144.85-147.32,144.85S76,292.82,76,212.82,141.9,68,223.26,68,370.58,132.83,370.58,212.82Z"/><path class="cls-37" d="M223.26,68C141.9,68,76,132.83,76,212.82c0,1.77.07,3.51.13,5.25,37.53,33.09,89.19,53.55,146.23,53.55,58,0,110.51-21.18,148.19-55.31,0-1.16.08-2.32.08-3.49C370.58,132.83,304.63,68,223.26,68Z"/><path class="cls-37" d="M340.84,125.17a148.82,148.82,0,0,0-235.15.79C139,146.19,179.25,158,222.63,158,266.56,158,307.29,145.88,340.84,125.17Z"/><path class="cls-37" d="M223.27,76.28c79.94,0,145,62.62,147.21,140.69,0-1.38.11-2.75.11-4.15,0-80-66-144.84-147.32-144.84S76,132.83,76,212.82c0,1.4.07,2.77.1,4.15C78.29,138.9,143.32,76.28,223.27,76.28Z"/><path class="cls-37" d="M223.26,351.55C143,351.55,77.68,288.34,76,209.76c0,1-.07,2-.07,3.06,0,80,66,144.85,147.31,144.85s147.32-64.85,147.32-144.85c0-1-.05-2-.08-3.06C368.84,288.34,303.58,351.55,223.26,351.55Z"/><path class="cls-38" d="M343.46,212.82c0,65.28-53.81,118.18-120.2,118.18S103.07,278.1,103.07,212.82,156.89,94.65,223.26,94.65,343.46,147.56,343.46,212.82Z"/><path class="cls-35" d="M223.26,109.33c63.8,0,116,48.87,119.93,110.6.16-2.5.27-5,.27-7.56,0-65.27-53.81-118.18-120.2-118.18S103.07,147.1,103.07,212.37c0,2.54.11,5.06.27,7.56C107.31,158.2,159.47,109.33,223.26,109.33Z"/><path class="cls-37" d="M223.26,324.55C158,324.55,105,273.46,103.17,209.76c0,1.13-.1,2.26-.1,3.4,0,65.27,53.82,118.18,120.19,118.18s120.2-52.91,120.2-118.18c0-1.14,0-2.27-.09-3.4C341.54,273.46,288.49,324.55,223.26,324.55Z"/><path class="cls-34" d="M161.47,79.11s4.08,12.26-11.78,22.59-24.27,0-24.27,0Z"/><path class="cls-39" d="M138.82,99.9H131L126.83,103s4.87,5.48,15.27,2.34,15.5-9.73,17.1-13.06S145.48,99.9,138.82,99.9Z"/><path class="cls-34" d="M192.07,68.55s.51,6.57-8.61,9.72-12-3-12-3Z"/><path class="cls-40" d="M178.3,76l-3.87-1h0s-.71,4.34,4.82,4.08,8.86-2.9,10.07-4.35S181.6,76.86,178.3,76Z"/><path class="cls-35" d="M257.94,357.65s-1.55-9.45,11.27-15.15S287,345.35,287,345.35Z"/><path class="cls-34" d="M271.75,342.86s-5.68,5.14-6.4,6.85a4.88,4.88,0,0,1-3.61,3.34,15,15,0,0,1-3.46.66s2.38-7.34,8.24-10.21a26.46,26.46,0,0,1,10.1-3Z"/><path class="cls-34" d="M366.68,166.72s-9.55.55-13.23-7.74S359,148,359,148Z"/><path class="cls-41" d="M354.2,157.41A11.93,11.93,0,0,0,361,162s-.28.35,0,1.73a12.09,12.09,0,0,1,.3,2.32s-5.36-1.49-7.31-5.29-1.38-6.46-1.38-6.46A29.8,29.8,0,0,0,354.2,157.41Z"/><path class="cls-34" d="M171.85,363s4.15-8.64,17.92-5.95,12.92,12.51,12.92,12.51Z"/><path class="cls-35" d="M92.81,286.54s6.26-3.66,13.09,5.22,1.95,15,1.95,15Z"/><path class="cls-34" d="M106.21,293.9s-4.85-3.27-6.21-3.42a3.48,3.48,0,0,1-3.13-2.05,13.62,13.62,0,0,1-1.23-2.61s5.66,0,9,4a23,23,0,0,1,4.3,7.39Z"/><path class="cls-34" d="M353.45,273.75A90.46,90.46,0,0,1,343.26,283c-3.58,2.82-7.27,5.46-11.06,8s-7.68,4.81-11.69,7A87.85,87.85,0,0,1,308,303.57a88.76,88.76,0,0,1,10.19-9.26c3.57-2.83,7.26-5.46,11.05-7.95s7.69-4.81,11.71-7A91.23,91.23,0,0,1,353.45,273.75Z"/><path class="cls-42" d="M354.62,272.38S339.44,287.49,327.35,294a163,163,0,0,1-20.54,9.54s13.5-3.1,23.89-8.83S354.62,272.38,354.62,272.38Z"/><path class="cls-34" d="M343.44,281.21s-16.28,9.17-18.69,10.66-11.14,7.75-11.14,7.75S332.55,293.14,343.44,281.21Z"/><path class="cls-34" d="M351.92,305.85l-11.41,2.28h-6.32s4.28.73,5.84,1.09,6.62.56,7.09,1.9-2.05,6.39-1,5.67S351.92,305.85,351.92,305.85Z"/><path class="cls-41" d="M340,309.22l-6.13-.75s5.41,1.53,5.7,1.59,6.79.9,7.12.59S340,309.22,340,309.22Z"/><path class="cls-34" d="M77.25,175.51,93.55,191l10.3,6.48s-7.71-3.21-10.63-4.22S81.83,187.32,79.68,189s-3.21,12.54-4.23,10.25S77.25,175.51,77.25,175.51Z"/><path class="cls-41" d="M93.22,193.21,104,198.29S93.6,195.23,93.05,195s-12-5.5-12.22-6.35S93.22,193.21,93.22,193.21Z"/><path class="cls-35" d="M82.22,170.25s9.82,14.7,11,16,10.63,11.18,10.63,11.18L93.55,191l-14-10.6Z"/><path class="cls-34" d="M269.43,369.66l3.75-17.81-.36-9.67s1.63,6.43,2.41,8.77,1.44,10.08,4,10.61,12.16-4.05,10.83-2.29S269.43,369.66,269.43,369.66Z"/><path class="cls-41" d="M273.79,353l-2.32-9.28s3.78,8.07,3.91,8.52,2.11,10.27,1.53,10.82S273.79,353,273.79,353Z"/><path class="cls-34" d="M260.48,371.37s6.71-13.35,7.14-14.73,3.85-13,3.85-13l1,10-2.09,14.47Z"/><g class="cls-43"><g class="cls-43"><path class="cls-44" d="M125.42,82.17c-17.41,0-31.53,13.15-31.53,29.37S108,140.9,125.42,140.9,157,127.75,157,111.54,142.83,82.17,125.42,82.17Z"/></g></g><path class="cls-45" d="M96.62,150.19c8.46-9.49,33.35-38.65,33.35-38.65s20.79-39,21.29-40.09c.14-.32-26.56,36.67-26.56,36.67Z"/><g class="cls-46"><path class="cls-24" d="M132.28,104.56c-7.66-6-6.27-22.85-6.34-27.62v4.57c0-.74,0-1.52,0-1.69V76.94a54.24,54.24,0,0,1-.42,6s-2.25,16.91-6.31,20.41c-9.13,8-32.13,6.47-23.3,6.67,29.76.64,29.76,29.7,30,39.23v-4.8c0,.35,0,.64,0,.81v4c.63-22.56.56-36.84,26.54-38.74C161.08,109.89,141.26,111.54,132.28,104.56Z"/></g><ellipse class="cls-47" cx="223.42" cy="195.34" rx="70.31" ry="63.36"/><ellipse class="cls-48" cx="203.46" cy="212.68" rx="28.88" ry="34.45"/><ellipse class="cls-48" cx="277.64" cy="212.68" rx="28.88" ry="34.45"/><path class="cls-34" d="M324.1,221.14c1.17-21.09-11.69-101.23-95.86-107.95-1.71-.13-3.49-.21-5.59-.24-1,0-2,0-2.86,0-2.13,0-3.92.11-5.63.24-84.16,6.72-97,86.86-95.87,108,0,.63.08,1.24.13,1.85a67.69,67.69,0,0,0-.13,7.92c1,18.74,7.94,25,12.36,27.06l-.55,3.11c-3.15,5.34-2.6,10.13-2.23,13.33a15.45,15.45,0,0,1,.17,2.68c-.29,3.89,2.3,7.67,8.66,12.64,10.7,8.35,14.83,8,16.41,7.57a15,15,0,0,0,4.59,5.36c1.6,1.19,3,2.4,4.15,3.47,3.42,3.05,7,6.21,13.09,6.21a10,10,0,0,0,4.61-1.24c3.24,10.24,30.7,11.23,31,11.24,1.46,0,2.76,0,3.94,0,5.72,0,9.37-.48,11.84-2.94,3.29,2.58,8.22,2.45,18.49,2.19,17.62-.43,22.05-6.45,23-10.5a9.89,9.89,0,0,0,4.55,1.2c6.13,0,9.67-3.16,13.13-6.24,1.19-1.06,2.53-2.26,4.11-3.45a14.89,14.89,0,0,0,4.59-5.35c1.59.44,5.71.78,16.41-7.58,6.37-5,8.95-8.75,8.65-12.63a13.52,13.52,0,0,1,.27-2.74c.51-3.13,1.2-7.39-2.13-12.75-.73-1.57-1.67-3.41-2.82-5.47,3.94-3.2,8.68-10.16,9.51-25.22A67.6,67.6,0,0,0,324,223C324,222.39,324.07,221.78,324.1,221.14Zm-45.41-9.3c-.09.12-.18.23-.28.34-4.93,5.61-18.57,6.74-28.91,5a5.89,5.89,0,0,1-4.18-2.54,13.67,13.67,0,0,1-1.88-5.7,115.32,115.32,0,0,1,2.1-12.67c.19-.92.36-1.73.49-2.39.67-3.51,3-7.87,6.11-9.41,1.16-.57,2.87-1,5.77.42C258.05,184.92,271.87,192.25,278.69,211.84Zm-70.23-25.9a52.8,52.8,0,0,1-6.3,18.6c-5.66,10-13.72,16.67-19.74,16.12-3.94-.35-6.12-4.31-7.26-7.57a28.24,28.24,0,0,1-1.27-5.53,48.6,48.6,0,0,1,5.81-17.94c4.06-7.16,9.37-11.73,15-12.88,5.43-1.12,9.22-.21,11.44,2.84A14.85,14.85,0,0,1,208.46,185.94Z"/><path class="cls-35" d="M321.17,220.89C322.3,200.4,309.8,122.54,228,116c-1.66-.13-3.4-.21-5.43-.24-.9,0-1.85,0-2.75,0-2.05,0-3.78.11-5.44.24-81.79,6.52-94.29,84.38-93.17,104.87,1.22,22,10.85,24.9,12.76,25.25l7.05,1.72C137,254.28,131.24,264,131,267.45c-.14,1.85.59,4.67,7.54,10.1,3.15,2.46,10.82,8.07,14.06,7,.65-.21,1.2-.4,2.21-1.85a10.69,10.69,0,0,0,4.68,7.76c1.69,1.27,3.1,2.53,4.34,3.63,3.29,2.94,6.13,5.47,11.14,5.47,2.6,0,5.27-1.89,7.72-4.51a33.18,33.18,0,0,0-.49,4.17c0,7.35,20.85,10.15,28.45,10.34,1.42,0,2.71.06,3.86.06,5.79,0,8.41-.53,10-2.36s1.27-4.22,1-5.77a13.14,13.14,0,0,1,.23-3.11,13.37,13.37,0,0,1,.38,3.41,5.58,5.58,0,0,0,1.19,4.75c2.38,2.71,6.78,2.6,17.4,2.33,12.78-.32,20.4-3.93,20.4-9.65a32.7,32.7,0,0,0-.48-4.17c2.45,2.62,5.12,4.51,7.72,4.51,5,0,7.85-2.53,11.14-5.47,1.24-1.1,2.65-2.36,4.34-3.63a10.69,10.69,0,0,0,4.68-7.76c1,1.45,1.56,1.64,2.21,1.86,3.24,1.08,10.92-4.53,14.07-7,6.94-5.43,7.67-8.25,7.53-10.1-.29-3.69-6.67-14.26-10.71-20.63l2.78-.67C310.33,245.79,320,242.93,321.17,220.89Zm-89.9,27.23a12.51,12.51,0,0,1-1.09,1.66c-1.37-2.74-2.67-10.73-3.24-19.73C233.3,234.43,237.28,237.6,231.27,248.12ZM280.61,214c-5.69,6.48-20.21,7.87-31.61,5.91a8.78,8.78,0,0,1-6.1-3.78c-5.05-7.44-1.67-23.53-.23-30.4.19-.9.35-1.69.48-2.33.78-4.1,3.53-9.44,7.69-11.49,2.55-1.26,5.3-1.12,8.4.43.16.08,16,8.21,23,30.88C283.59,207.71,283.07,211.24,280.61,214Zm-75.9-8.14c-6.31,11.17-15.37,18.24-22.56,17.6-5.48-.49-8.33-5.45-9.76-9.53-3.52-10.09-1.61-24.41,4.76-35.65,4.48-7.9,10.49-13,16.91-14.31a23,23,0,0,1,4.69-.52c4.27,0,7.53,1.51,9.71,4.51C214,175.64,212.4,192.29,204.71,205.88Zm10.75,24.17c-.57,9-1.87,17-3.24,19.73a13.41,13.41,0,0,1-1.1-1.66C205.12,237.6,209.1,234.43,215.46,230.05Z"/><path class="cls-35" d="M321.17,230.66C322.3,210.17,309.8,132.32,228,125.8c-1.66-.14-3.4-.21-5.43-.24-.9,0-1.85,0-2.75,0-2.05,0-3.78.1-5.44.24-81.79,6.52-94.29,84.37-93.17,104.86,1.22,22,10.85,24.91,12.76,25.26l-1.09,6.13c-4,6.42-1.65,11.68-1.92,15.18-.14,1.85.59,4.67,7.54,10.1,3.15,2.46,10.82,8.07,14.06,7,.65-.22,1.2-.4,2.21-1.86a10.69,10.69,0,0,0,4.68,7.77c1.69,1.27,3.1,2.52,4.34,3.63,3.29,2.93,6.13,5.47,11.14,5.47,2.6,0,5.27-1.9,7.72-4.51a33.18,33.18,0,0,0-.49,4.17c0,7.34,20.85,10.15,28.45,10.34,1.42,0,2.71.05,3.86.05,5.79,0,8.41-.52,10-2.36s1.27-4.21,1-5.77a13.06,13.06,0,0,1,.23-3.1,13.34,13.34,0,0,1,.38,3.41,5.59,5.59,0,0,0,1.19,4.75c2.38,2.7,6.78,2.6,17.4,2.33,12.78-.32,20.4-3.93,20.4-9.65a32.7,32.7,0,0,0-.48-4.17c2.45,2.61,5.12,4.51,7.72,4.51,5,0,7.85-2.54,11.14-5.47,1.24-1.11,2.65-2.36,4.34-3.63a10.69,10.69,0,0,0,4.68-7.77c1,1.46,1.56,1.64,2.21,1.86,3.24,1.09,10.92-4.52,14.07-7,6.94-5.43,7.67-8.25,7.53-10.1-.29-3.69,2.52-7.94-1.52-14.32l-6.41-7C310.33,255.57,320,252.7,321.17,230.66Zm-89.9,27.23a12.1,12.1,0,0,1-1.09,1.67c-1.37-2.74-2.67-10.73-3.24-19.73C233.3,244.2,237.28,247.38,231.27,257.89Zm49.34-34.09c-5.69,6.47-20.21,7.87-31.61,5.9a8.75,8.75,0,0,1-6.1-3.78c-5.05-7.43-1.67-23.52-.23-30.39.19-.9.35-1.69.48-2.34.78-4.09,3.53-9.43,7.69-11.49,2.55-1.25,5.3-1.12,8.4.44.16.08,16,8.21,23,30.88C283.59,217.49,283.07,221,280.61,223.8Zm-75.9-8.14c-6.31,11.17-15.37,18.24-22.56,17.6-5.48-.49-8.33-5.45-9.76-9.53-3.52-10.09-1.61-24.42,4.76-35.65,4.48-7.91,10.49-13,16.91-14.31a23,23,0,0,1,4.69-.52c4.27,0,7.53,1.5,9.71,4.5C214,185.41,212.4,202.06,204.71,215.66Zm10.75,24.17c-.57,9-1.87,17-3.24,19.73a12.94,12.94,0,0,1-1.1-1.67C205.12,247.38,209.1,244.2,215.46,239.83Z"/><path class="cls-49" d="M308,243.14s9.15-1.21,10.32-22.42S306.19,125.31,228,119.07c-1.78-.14-3.52-.2-5.25-.22l-1.32,0-1.32,0c-1.73,0-3.47.08-5.24.22-78.19,6.24-91.52,80.43-90.35,101.65s10.31,22.42,10.31,22.42l11.32,2.75s-11.59,17.86-11.89,21.8,15.76,14.54,17.57,13.94,12.73-26.67,10.91-22.12-3.63,13-3.63,15.75-3.64,8.19,2.42,12.73,8.18,8.49,13.64,8.49,13.63-15.76,13.63-15.76-3.33,15.45-3.33,18.48,13.33,7,25.46,7.28,12.42-.61,11.81-4.55c-.4-2.63,1.63-11.75,3-17.52,1.66,5.95,4,15.21,3.65,17.82-.6,3.94,3.37,3.86,15.49,3.56s17.41-3.56,17.41-6.59S259,280.72,259,280.72s8.18,15.76,13.64,15.76,7.57-3.94,13.63-8.49,2.43-10,2.43-12.73-1.82-11.21-3.64-15.75S294.14,281,296,281.63s17.88-10,17.58-13.94-11.9-21.8-11.9-21.8a16.59,16.59,0,0,1,1.37-1.53ZM169.74,215c-6.66-19.09,4.81-50,23.94-54,25.16-5.19,25.76,25.49,13.94,46.4S176.41,234.06,169.74,215Zm39,34.68c-9.4-16.44,3.28-19.73,10.33-25.83C219,223.81,218.1,266.07,208.71,249.64Zm25.47,0c-9.4,16.43-10.33-25.83-10.33-25.83C230.89,229.91,243.57,233.2,234.18,249.64ZM248.72,223c-17.57-3-9.86-32.23-8.34-40.11s9-19,20.46-13.23c0,0,17.07,8.38,24.55,32.73C291.26,221.44,266.3,226,248.72,223Z"/><path class="cls-24" d="M138,268.71c.3-3.94,11.89-21.79,11.89-21.79l-4-1c-.64,1-11.57,17.92-11.87,21.75s15.76,14.54,17.58,13.94a1.1,1.1,0,0,0,.4-.36C146.73,278.36,137.77,271.66,138,268.71Z"/><path class="cls-24" d="M231.7,252.63c1.48,2.62,3.49,2.78,6.21-2,9.39-16.44-3.29-19.73-10.33-25.83,0,0,0,.74.06,2,6.75,4.63,14.05,9.24,6.29,22.82A11.72,11.72,0,0,1,231.7,252.63Z"/><path class="cls-24" d="M137.66,243.89c-2.35-1-8.46-5.06-9.4-22.15-1.17-21.21,12.16-95.41,90.35-101.65,1.77-.14,3.51-.2,5.24-.22l1.32,0,1.32,0c1.73,0,3.47.08,5.25.22a115.64,115.64,0,0,1,17,2.62,112,112,0,0,0-21-3.64c-1.78-.14-3.52-.2-5.25-.22l-1.32,0-1.32,0c-1.73,0-3.47.08-5.25.22-78.18,6.24-91.51,80.43-90.35,101.65s10.32,22.42,10.32,22.42Z"/><path class="cls-24" d="M211.35,208.41c10.45-18.48,11.17-44.58-6.17-46.81,13.19,5.49,11.78,28.84,2.2,45.79-7.2,12.74-17.21,19.84-25.45,19.13C190.7,230.48,202.94,223.29,211.35,208.41Z"/><path class="cls-24" d="M213.83,252.75c8.09,10.05,8.94-27.92,8.94-27.92a47.84,47.84,0,0,1-4.14,3.08C218.26,235.09,217.12,249.48,213.83,252.75Z"/><path class="cls-24" d="M289.12,203.36c-7.48-24.35-24.55-32.73-24.55-32.73a14.45,14.45,0,0,0-5.11-1.54c.37.16.76.33,1.14.52,0,0,17.07,8.38,24.55,32.73,5.76,18.76-18.21,23.47-35.72,20.76a14,14,0,0,0,3,.87C270,227,295,222.46,289.12,203.36Z"/><path class="cls-24" d="M262.72,281.74s-4.77-4.82-3.94-.6c6.33,10.92,11.15,15.34,13.6,15.34a9,9,0,0,0,1.18-.08C268.48,292.84,262.72,281.74,262.72,281.74Z"/><path class="cls-24" d="M288.78,260.53c-2.47-4-4-4.44-3.93-1.56,1.5,3.06,10.34,22.48,10.87,22.66a5.27,5.27,0,0,0,2.57-.85C294.83,274.78,290.94,264.07,288.78,260.53Z"/><path class="cls-24" d="M189.44,300c0-3,3.33-18.48,3.33-18.48s1.07-13.32-2.32-8.86c-.63,3.35-5,25.13-5,26.32,0,1.87,5.08,4.09,11.81,5.58C192.62,303.19,189.44,301.49,189.44,300Z"/><path class="cls-24" d="M233.15,303.26c.4-2.61-2-11.87-3.65-17.83-2.38-8.68-3.77-7.05-4.32-4.39.94,4,4.23,19.7,4,21.19-.37,2.39,1,3.3,4.76,3.58A2.45,2.45,0,0,1,233.15,303.26Z"/><path class="cls-24" d="M165.27,289c-6.06-4.54-3-10.06-2.42-12.72,5.42-25.31,2.28-24.08,1.86-22.77-1.53,4.75-4.24,8.93-6.47,24.9-.68,2.82-1.15,6.41,3.06,9.57,5.92,4.44,8.09,8.3,13.28,8.47C171.76,295,169.45,292.15,165.27,289Z"/><g class="cls-50"><g class="cls-51"><path class="cls-52" d="M167.83,258.7s-8.09,13.55-7.31,21.42,12.4,12.93,12.4,12.93,6.52-12.69,3.48-23.53A17.62,17.62,0,0,0,167.83,258.7Z"/></g><g class="cls-53"><path class="cls-54" d="M194.33,275.88s-7.27,18.78-5.65,21.21,29.87,10.1,29.88,6.06,3.42-12.93,3.33-17.37S200.8,277.29,194.33,275.88Z"/></g><g class="cls-55"><path class="cls-56" d="M228.09,280.52s.59,16.57,5,19.4,22.22,5.65,23.44,0,.4-15.36-2-19.4S228.09,280.52,228.09,280.52Z"/></g><g class="cls-57"><path class="cls-58" d="M259.79,278.73s8.89,11.69,10.71,13.11,10.5-4,14.34-8.69-.81-17.78-3-21.21S258.94,273.78,259.79,278.73Z"/></g><g class="cls-59"><path class="cls-60" d="M310.3,268.2c-.81-3-7.39-23.44-12-22.83s-12,12.53-12,12.53,8,18.11,9.44,18.85S311.1,271.23,310.3,268.2Z"/></g><g class="cls-61"><path class="cls-62" d="M148.68,246.58s-10.91,16.77-11.32,18.79,6.67,10.44,8.89,11.38,13.49-14.61,14.22-18.05S148.68,246.58,148.68,246.58Z"/></g></g><path class="cls-48" d="M270.86,131.85C280.18,153.63,297.32,199.2,290,225c-9.86,34.72-23.31,28.16-16.43,71.42v0c4.79-.43,7-4.16,12.7-8.44,6.06-4.54,2.43-10,2.43-12.73s-1.82-11.21-3.64-15.75S294.14,281,296,281.63s17.88-10,17.58-13.94-11.9-21.8-11.9-21.8a16.59,16.59,0,0,1,1.37-1.53l5-1.22s9.15-1.21,10.32-22.42C319.27,204.19,311.37,155.5,270.86,131.85Z"/><path class="cls-48" d="M159.05,273.25c1.71-6.29,3.26-12.45,4.1-16.15,2.26-10-2.25-10.27-13.49-17.46S138.42,216,138,197c-.29-13.42-2.28-20.09-3.43-22.86-8.66,18.92-10.8,37.58-10.31,46.62,1.17,21.21,10.32,22.42,10.32,22.42l11.32,2.75s-11.59,17.86-11.9,21.8,15.76,14.54,17.58,13.94,12.73-26.67,10.91-22.12A69.53,69.53,0,0,0,159.05,273.25Z"/><path class="cls-24" d="M301,203.71l-19.26-14-33.19-24.09s-14.69-8.7-30.84-26.21-15.17-18.55-15.17-18.55L194,122l39.9,52.52s-5.05,45.3,9,55.67,47-7.41,50.83-9,22.51,11,22.51,11l6,8.56.74-23A227.64,227.64,0,0,1,301,203.71Z"/><path class="cls-34" d="M301,199.46l-19.26-14-33.19-24.09s-14.69-8.69-30.84-26.21-15.17-18.55-15.17-18.55L194,117.74l39.9,52.51s-5.05,45.31,9,55.67,47-7.4,50.83-8.95,22.51,11,22.51,11l6,8.56.74-22.95A230,230,0,0,1,301,199.46Z"/><path class="cls-24" d="M209.63,78.4c-32.12-.16-43,17.32-32.42,19.94s33.41-10.74,50.37-8.42S235.81,78.53,209.63,78.4Z"/><path class="cls-24" d="M270.86,88.54c-18.33-5.71-8.08,6.77,1.57,10.47S295.44,96.21,270.86,88.54Z"/><path class="cls-32" d="M105.91,327.65c0-120.84,86.22-187.24,192.57-187.24A195.24,195.24,0,0,1,414.24,178C395.84,93.25,318.48,29.63,225.83,29.63c-106.36,0-192.58,83.85-192.58,187.26,0,61.2,30.18,115.51,76.83,149.68A184.23,184.23,0,0,1,105.91,327.65Z"/></g></g></g></g></svg>