<svg xmlns="http://www.w3.org/2000/svg" xmlns:xlink="http://www.w3.org/1999/xlink" viewBox="0 0 339 191.82"><defs><filter id="luminosity-noclip" x="108.99" y="27.84" width="34.48" height="28.81" filterUnits="userSpaceOnUse" color-interpolation-filters="sRGB"><feFlood flood-color="#fff" result="bg"/><feBlend in="SourceGraphic" in2="bg"/></filter><mask id="mask" x="108.99" y="27.84" width="34.48" height="28.81" maskUnits="userSpaceOnUse"><g style="filter:url(#luminosity-noclip)"><path d="M122.27,50a6.64,6.64,0,1,1-6.64-6.64A6.65,6.65,0,0,1,122.27,50Zm-6.61,1.1c.71,0,1.42,0,2.13,0a1.11,1.11,0,1,0,0-2.21H113.5a1.11,1.11,0,1,0,0,2.21C114.23,51.13,114.94,51.12,115.66,51.12Z"/><path d="M115.66,51.12c-.72,0-1.43,0-2.14,0a1.11,1.11,0,1,1,0-2.21h4.28a1.11,1.11,0,1,1,0,2.21C117.08,51.14,116.37,51.12,115.66,51.12Z"/><path d="M114.52,50c0-.72,0-1.43,0-2.14a1.1,1.1,0,1,1,2.2,0c0,1.42,0,2.85,0,4.27a1.1,1.1,0,1,1-2.2,0C114.51,51.46,114.52,50.75,114.52,50Z"/></g></mask><filter id="luminosity-noclip-2" x="23.73" y="27.84" width="34.48" height="28.81" filterUnits="userSpaceOnUse" color-interpolation-filters="sRGB"><feFlood flood-color="#fff" result="bg"/><feBlend in="SourceGraphic" in2="bg"/></filter><mask id="mask-2" x="23.73" y="27.84" width="34.48" height="28.81" maskUnits="userSpaceOnUse"><g style="filter:url(#luminosity-noclip-2)"><path d="M37,50a6.64,6.64,0,1,1-6.63-6.64A6.64,6.64,0,0,1,37,50Zm-6.61,1.1c.71,0,1.43,0,2.14,0a1.11,1.11,0,1,0,0-2.21H28.24a1.11,1.11,0,1,0,0,2.21C29,51.13,29.68,51.12,30.39,51.12Z"/><path d="M30.39,51.12c-.71,0-1.42,0-2.14,0a1.11,1.11,0,1,1,0-2.21h4.27a1.11,1.11,0,1,1,0,2.21C31.82,51.14,31.1,51.12,30.39,51.12Z"/><path d="M29.26,50c0-.72,0-1.43,0-2.14a1.11,1.11,0,1,1,2.21,0c0,1.42,0,2.85,0,4.27a1.1,1.1,0,1,1-2.2,0C29.24,51.46,29.26,50.75,29.26,50Z"/></g></mask></defs><title>icon</title><g id="Layer_2" data-name="Layer 2"><g id="L1_Image" data-name="L1 Image"><path id="Rectangle_225" data-name="Rectangle 225" d="M6,0H333a6.31,6.31,0,0,1,6,6.58V185.25a6.31,6.31,0,0,1-6,6.57H6a6.31,6.31,0,0,1-6-6.57V6.58A6.31,6.31,0,0,1,6,0Z" style="fill:#242b2e"/><g id="Group_458" data-name="Group 458"><circle id="Ellipse_38-5" data-name="Ellipse 38-5" cx="127" cy="42.11" r="26.17" style="fill:#141615;stroke:#000;stroke-miterlimit:10"/></g><g style="mask:url(#mask)"><path d="M142.55,51h0l0,.06c-.1.19-.2.38-.3.55h0A2.32,2.32,0,0,1,140,52.91c-3.21,0-6.43,0-9.64,0h-8.19l.09-.27a7.52,7.52,0,0,0,.3-2.08,7.22,7.22,0,0,0-7.22-7.22c-.24,0-.47,0-.71,0V34.61c.21-.06.32.08.41.22a2.09,2.09,0,0,0,1.9.86h22.31a7.37,7.37,0,0,1,.94,0,2.43,2.43,0,0,1,2.1,1.46h0c.07.13.13.27.2.42h0a1,1,0,0,0,.07.15h0c0,1.07,0,2.13,0,3.2a1.38,1.38,0,0,1-.1.6s0,0,0,0c-.14.3-.43.27-.69.27-.93,0-1.86,0-2.79,0a3,3,0,0,0-2.54,1.26,2.85,2.85,0,0,0,2.23,4.48c1,0,2,0,3.06,0,.27,0,.57,0,.73.28h0A12.29,12.29,0,0,1,142.55,51Z" style="fill:#c37d4d"/><path d="M140.07,53.57q-9.07,0-18.16,0c.1-.21.18-.43.26-.65l.09-.27q8.78,0,17.56,0a2.62,2.62,0,0,0,2.4-1.07h0a3.57,3.57,0,0,0,.3-.55l0-.07A2.32,2.32,0,0,1,140.07,53.57Z" style="fill:#b17245"/><path d="M141.66,35.51a2.25,2.25,0,0,1,.89,2.25A2.55,2.55,0,0,0,139.74,36c-7.61,0-15.22,0-22.83,0a2.18,2.18,0,0,1-2.28-1.37v-.79a.32.32,0,0,1,.43.14,2.19,2.19,0,0,0,2.28.8,1.28,1.28,0,0,1,.39,0c.14,0,.26.15.42.12,1-.16,2.11,0,3.16-.11a2.46,2.46,0,0,0,1.08,0c1.34,0,2.68-.05,4,0a.81.81,0,0,0,.38,0c1.6,0,3.2,0,4.81,0,.35-.06.7.08,1.06,0,.7,0,1.4,0,2.09,0,.24-.05.48.07.72,0s.62.08.93,0a9.74,9.74,0,0,1,1.87,0,14.43,14.43,0,0,1,2.18,0C141,34.83,141.46,34.94,141.66,35.51Z" style="fill:#c98a5f"/><path d="M117.57,35.05a5.15,5.15,0,0,0-.56,0,2.25,2.25,0,0,1-2.38-1.25v-1A2.6,2.6,0,0,1,117.46,31c2.28.06,4.57,0,6.86,0,.1.32-.15.44-.35.56q-2.67,1.59-5.37,3.14C118.28,34.91,117.9,34.9,117.57,35.05Z" style="fill:#a76a3f"/><path d="M142.58,41.59c.71.21.89.43.89,1.15,0,1.36,0,2.73,0,4.1,0,.68-.21.92-.88,1.08l-3.55,0a3.14,3.14,0,0,1-3.23-3.07A3.19,3.19,0,0,1,139,41.61C140.17,41.57,141.38,41.59,142.58,41.59Z" style="fill:#a76a3f"/><path d="M117.57,35.05c.88-.63,1.86-1.11,2.79-1.67,1.31-.79,2.64-1.57,4-2.35l4.87-2.81c1-.61,1.35-.52,2,.53.38.64.77,1.28,1.16,1.92.64.27.78.93,1.08,1.45a7.46,7.46,0,0,1,.5.82c.27.49.58,1,.85,1.44.11.21.25.43,0,.66h-2.14a1.52,1.52,0,0,1-.74-.74c-.64-1.1-1.26-2.21-1.92-3.3-.34-.56-.52-.59-1.1-.26l-1.46.84c-.2.11-.44.2-.52.47.23.14.38,0,.53-.1.47-.24.91-.52,1.37-.77s.73-.24,1,.24c.65,1,1.2,2.08,1.81,3.11a.38.38,0,0,1,0,.51h-4.81c-.56-.23-1-.6-1.61-.82a3.07,3.07,0,0,0-2.75.24,10.46,10.46,0,0,1-1.16.58Z" style="fill:#15b35e"/><path d="M141.66,35.51a3,3,0,0,0-1.86-.45c-.51,0-1,0-1.51,0a1.21,1.21,0,0,1-.45-.62c-.24-.92-.5-1.84-.74-2.76-.06-.24-.11-.48.15-.65.72,0,1.43,0,2.14,0a2.25,2.25,0,0,1,2.28,2.3C141.68,34.05,141.67,34.78,141.66,35.51Z" style="fill:#a76a3f"/><path d="M137.25,31c.35,1.35.69,2.69,1,4h-1.91a1.08,1.08,0,0,1-.44-.62c-.15-.54-.27-1.08-.43-1.62s-.37-.71-1-.59c-.43.09-.86.32-1.3,0a10.29,10.29,0,0,1-.91-1.58c1.19-.32,2.37-.65,3.56-1a.9.9,0,0,1,1.15.63C137.11,30.56,137.18,30.79,137.25,31Z" style="fill:#07854c"/><path d="M131.63,35c-.63-1.1-1.29-2.19-1.9-3.31-.24-.44-.47-.55-.91-.25s-1.07.63-1.6.93c-.26.15-.53.26-.74-.06s0-.55.3-.71c.76-.44,1.53-.86,2.28-1.33a.62.62,0,0,1,1,.26L132.65,35Z" style="fill:#0e9c55"/><path d="M121.3,35a3.64,3.64,0,0,1,5.29-.32,2.35,2.35,0,0,1,.23.32Z" style="fill:#0e9c55"/><path d="M133.23,32.25c.53-.13,1.05-.26,1.57-.41s.76,0,.88.49c.22.91.47,1.81.7,2.71h-.91c-.33-.14-.41-.45-.48-.76-.13-.59-.21-1.21-1.07-1.11-.07,0-.16-.08-.24-.13A2.94,2.94,0,0,1,133.23,32.25Z" style="fill:#006e43"/><path d="M133.68,33c1.21-.27,1.21-.27,1.53,1,.09.34.18.68.26,1h-.68Z" style="fill:#07854c"/><path d="M137.72,43.5a1.75,1.75,0,0,1,2.48,0,1.76,1.76,0,0,1,.15,2.43,1.67,1.67,0,0,1-2.23,0A1.71,1.71,0,0,1,137.72,43.5Z" style="fill:#eec65e"/><path d="M137.72,43.5a2.34,2.34,0,0,0,.15,1.74,1.91,1.91,0,0,0,2.48.65,1.77,1.77,0,0,1-2.63.19A1.74,1.74,0,0,1,137.72,43.5Z" style="fill:#d6b254"/></g><path d="M115.34,44.75a5.81,5.81,0,1,0,5.81,5.81A5.81,5.81,0,0,0,115.34,44.75Zm1.89,6.78c-.62,0-1.25,0-1.87,0h-1.87a1,1,0,0,1-1.06-1,1,1,0,0,1,1-.94q1.88,0,3.75,0a1,1,0,1,1,0,1.93Z" style="fill:#e1584d"/><g id="Group_447" data-name="Group 447"><circle id="Ellipse_38" data-name="Ellipse 38" cx="41.24" cy="42.11" r="26.17" style="fill:#141615;stroke:#000;stroke-miterlimit:10"/></g><g style="mask:url(#mask-2)"><path d="M57.29,51h0l0,.06c-.1.19-.19.38-.3.55h0a2.32,2.32,0,0,1-2.22,1.33c-3.22,0-6.43,0-9.64,0H36.9c0-.09.06-.18.09-.27a7.21,7.21,0,0,0-6.92-9.3c-.23,0-.47,0-.7,0V34.61c.2-.06.31.08.41.22a2.09,2.09,0,0,0,1.89.86H54a7.51,7.51,0,0,1,1,0A2.43,2.43,0,0,1,57,37.16h0a4.08,4.08,0,0,1,.19.42h0l.06.15h0c.05,1.07,0,2.13,0,3.2a1.39,1.39,0,0,1-.11.6s0,0,0,0c-.15.3-.44.27-.7.27-.92,0-1.85,0-2.78,0a3,3,0,0,0-2.55,1.26A2.75,2.75,0,0,0,51,46.07a2.72,2.72,0,0,0,2.42,1.55c1,0,2,0,3.07,0,.27,0,.57,0,.73.28h0A12.29,12.29,0,0,1,57.29,51Z" style="fill:#c37d4d"/><path d="M54.81,53.57q-9.09,0-18.16,0c.09-.21.18-.43.25-.65s.06-.18.09-.27q8.79,0,17.57,0A2.63,2.63,0,0,0,57,51.58h0a2.88,2.88,0,0,0,.3-.55l0-.07A2.32,2.32,0,0,1,54.81,53.57Z" style="fill:#b17245"/><path d="M56.4,35.51a2.26,2.26,0,0,1,.89,2.25A2.56,2.56,0,0,0,54.47,36c-7.61,0-15.22,0-22.83,0a2.17,2.17,0,0,1-2.27-1.37v-.79a.32.32,0,0,1,.43.14,2.19,2.19,0,0,0,2.28.8,1.2,1.2,0,0,1,.38,0c.14,0,.27.15.42.12,1-.16,2.11,0,3.16-.11a2.46,2.46,0,0,0,1.08,0c1.35,0,2.69-.05,4,0a.78.78,0,0,0,.37,0c1.61,0,3.21,0,4.81,0,.36-.06.71.08,1.06,0,.7,0,1.4,0,2.1,0,.24-.05.48.07.72,0s.61.08.92,0a9.84,9.84,0,0,1,1.88,0,14.29,14.29,0,0,1,2.17,0A1.19,1.19,0,0,1,56.4,35.51Z" style="fill:#c98a5f"/><path d="M32.3,35.05a5.33,5.33,0,0,0-.56,0,2.24,2.24,0,0,1-2.37-1.25v-1A2.58,2.58,0,0,1,32.19,31c2.29.06,4.58,0,6.86,0,.11.32-.15.44-.34.56Q36,33.18,33.33,34.73A8.79,8.79,0,0,1,32.3,35.05Z" style="fill:#a76a3f"/><path d="M57.31,41.59c.72.21.89.43.9,1.15v4.1c0,.68-.22.92-.89,1.08l-3.54,0a3.14,3.14,0,0,1-3.23-3.07,3.19,3.19,0,0,1,3.16-3.22C54.91,41.57,56.11,41.59,57.31,41.59Z" style="fill:#a76a3f"/><path d="M32.3,35.05c.89-.63,1.86-1.11,2.79-1.67l4-2.35,4.88-2.81c1-.61,1.35-.52,2,.53.38.64.78,1.28,1.17,1.92.64.27.77.93,1.07,1.45a6.25,6.25,0,0,1,.51.82c.27.49.58,1,.84,1.44.12.21.25.43.05.66H47.38a1.56,1.56,0,0,1-.74-.74c-.64-1.1-1.26-2.21-1.92-3.3-.34-.56-.52-.59-1.09-.26l-1.46.84c-.2.11-.45.2-.52.47.23.14.37,0,.53-.1.46-.24.91-.52,1.37-.77s.73-.24,1,.24c.64,1,1.2,2.08,1.81,3.11a.39.39,0,0,1,0,.51H41.55c-.55-.23-1-.6-1.6-.82a3.07,3.07,0,0,0-2.75.24A11.41,11.41,0,0,1,36,35Z" style="fill:#15b35e"/><path d="M56.4,35.51a3,3,0,0,0-1.87-.45c-.5,0-1,0-1.51,0a1.25,1.25,0,0,1-.44-.62c-.24-.92-.51-1.84-.74-2.76-.06-.24-.11-.48.15-.65.71,0,1.43,0,2.14,0a2.25,2.25,0,0,1,2.27,2.3C56.41,34.05,56.4,34.78,56.4,35.51Z" style="fill:#a76a3f"/><path d="M52,31c.34,1.35.69,2.69,1,4h-1.9a1,1,0,0,1-.44-.62c-.16-.53-.28-1.08-.43-1.62s-.37-.71-1-.59c-.43.09-.85.32-1.29,0a9.53,9.53,0,0,1-.91-1.58c1.18-.32,2.37-.65,3.56-1a.9.9,0,0,1,1.15.63C51.85,30.56,51.92,30.79,52,31Z" style="fill:#07854c"/><path d="M46.37,35c-.64-1.1-1.29-2.19-1.9-3.31-.24-.44-.47-.55-.92-.25a18,18,0,0,1-1.6.93c-.26.15-.53.26-.73-.06s0-.55.29-.71c.76-.44,1.54-.86,2.28-1.33a.63.63,0,0,1,1,.26q1.27,2.24,2.57,4.47Z" style="fill:#0e9c55"/><path d="M36,35a3.64,3.64,0,0,1,5.29-.32,2.27,2.27,0,0,1,.22.32Z" style="fill:#0e9c55"/><path d="M48,32.25c.52-.13,1.05-.26,1.57-.41s.75,0,.87.49c.23.91.47,1.81.71,2.71h-.91c-.34-.14-.42-.45-.49-.76-.13-.59-.21-1.21-1.06-1.11-.08,0-.17-.08-.24-.13A2.94,2.94,0,0,1,48,32.25Z" style="fill:#006e43"/><path d="M48.42,33c1.21-.27,1.21-.27,1.53,1,.09.34.17.68.26,1h-.68Z" style="fill:#07854c"/><path d="M52.45,43.5a1.78,1.78,0,0,1,2.63,2.39,1.65,1.65,0,0,1-2.22,0A1.7,1.7,0,0,1,52.45,43.5Z" style="fill:#eec65e"/><path d="M52.45,43.5a2.34,2.34,0,0,0,.16,1.74,1.9,1.9,0,0,0,2.47.65,1.78,1.78,0,1,1-2.63-2.39Z" style="fill:#d6b254"/></g><path d="M30.07,44.75a5.81,5.81,0,1,0,5.81,5.81A5.81,5.81,0,0,0,30.07,44.75ZM32,51.53H31v1a1,1,0,0,1-1.94,0v-1h-1a1,1,0,0,1,0-1.94h1v-1a1,1,0,0,1,1.94,0v1h1a1,1,0,0,1,0,1.94Z" style="fill:#15b35e"/><g id="ฝากเงิน" style="isolation:isolate"><text transform="translate(26.62 85.44)" style="isolation:isolate;font-size:13px;fill:#fff;font-family:CordiaNew-Bold, Cordia New;font-weight:700">ฝากเงิน</text></g><g id="ฝากเงิน-2" data-name="ฝากเงิน" style="isolation:isolate"><text transform="translate(110.99 85.44)" style="isolation:isolate;font-size:13px;fill:#fff;font-family:CordiaNew-Bold, Cordia New;font-weight:700">ถอนเงิน</text></g><g id="Group_471" data-name="Group 471"><circle id="Ellipse_38-3" data-name="Ellipse 38-3" cx="211.91" cy="42.11" r="26.17" style="fill:#141615;stroke:#000;stroke-miterlimit:10"/></g><path d="M212,27.84c1,.61,2,1,3,1.57.05.19-.11.26-.22.34a9.19,9.19,0,0,0-2.47,2.69c-.34.5-.51.51-.84,0a10.5,10.5,0,0,0-2.4-2.62c-.13-.1-.34-.18-.3-.42,1-.54,2-.95,3-1.56Z" style="fill:#18bf62"/><path d="M208.8,29.4a10.57,10.57,0,0,1,2.92,3.15c.18.3.29.18.42,0a9.73,9.73,0,0,1,2.89-3.1,4.59,4.59,0,0,1,3.14-.59c1.71.43,2.3,1.24,2.15,3,0,.06.05.13.08.2-.87,1.85-2.53,2.51-4.26,3,1.33.7,2.79,1.42,4.21,2.21.17.1.38.15.43.4a.35.35,0,0,1-.22.29c-1.08.53-2.12,1.14-3.24,1.58h-.17q-2.27-1.17-4.49-2.44a1.25,1.25,0,0,0-1.42,0c-1.49.85-3,1.68-4.54,2.45a.47.47,0,0,1-.17,0c-1.13-.45-2.18-1.06-3.27-1.6a.34.34,0,0,1-.2-.25c0-.29.31-.34.51-.45,1.28-.67,2.56-1.34,3.9-2.07a16.41,16.41,0,0,1-1.68-.61,4.41,4.41,0,0,1-2.19-2,1,1,0,0,1-.16-.53c.09-.46-.05-.93.08-1.41A2.39,2.39,0,0,1,205.14,29a3.91,3.91,0,0,1,3,.16Z" style="fill:#f1f1f1"/><path d="M203.11,37.66c1.11.67,2.31,1.18,3.46,1.78a.85.85,0,0,1,.17.63c0,1.3,0,2.6,0,3.9,0,.33,0,.65,0,1,0,2.72,0,5.44,0,8.16a.79.79,0,0,1-.18.62,32.24,32.24,0,0,1-3.57-1.8,1.31,1.31,0,0,1-.17-.8c0-2.65,0-5.3,0-7.95,0-.32,0-.64,0-1,0-1.28,0-2.56,0-3.84a1.27,1.27,0,0,1,.11-.66A.12.12,0,0,1,203.11,37.66Z" style="fill:#e0e0e0"/><path d="M217.25,44.9l0,8.81-5,2.48c-.16.08-.31.3-.54.11a17.53,17.53,0,0,1,0-2c0-2.18,0-4.37,0-6.55a1,1,0,0,1,0-.18.84.84,0,0,1,.41-.36c1.5-.78,3-1.5,4.56-2.22C216.93,44.87,217.09,44.77,217.25,44.9Z" style="fill:#037a47"/><path d="M211.92,47.47v8.22c0,.21.08.45-.15.61l-5.21-2.58q0-4.41,0-8.82c.22-.15.39,0,.57.09,1.42.69,2.82,1.44,4.27,2.08C211.62,47.15,211.84,47.22,211.92,47.47Z" style="fill:#0a9150"/><path d="M220.85,51.91v-8.8a.65.65,0,0,1,.36-.33c1.21-.61,2.42-1.22,3.64-1.82a.52.52,0,0,1,.42-.07c0,2.82,0,5.65,0,8.47a.51.51,0,0,1-.33.51C223.6,50.54,222.22,51.23,220.85,51.91Z" style="fill:#037a47"/><path d="M203,43.11c0,2.94,0,5.87,0,8.81l-4.17-2.06a.45.45,0,0,1-.29-.47c0-2.8,0-5.59,0-8.39.16-.13.31,0,.46,0,1.21.52,2.38,1.13,3.55,1.71C202.74,42.84,202.91,42.92,203,43.11Z" style="fill:#0a9150"/><path d="M203.11,37.66H203a.52.52,0,0,1-.32-.07c-1.51-.78-3.07-1.45-4.58-2.24-.16-.08-.41-.12-.36-.41l5.7-2.89a4.72,4.72,0,0,0,2.43,2.39c.61.25,1.24.43,2,.66Z" style="fill:#18bf62"/><path d="M198.55,40.11a.87.87,0,0,1,.52.16L203,42.22v.89c-1.47-.72-2.9-1.51-4.42-2.11Z" style="fill:#006e43"/><path d="M225.28,40.89l-4.42,2.22v-.89c1.48-.7,2.88-1.55,4.43-2.11Z" style="fill:#006e43"/><path d="M220.84,37.66a.18.18,0,0,0-.1,0L215.86,35a17.14,17.14,0,0,0,1.91-.68,4.79,4.79,0,0,0,2.41-2.14.27.27,0,0,1,.22-.14l5.17,2.59.53.3a22.71,22.71,0,0,1-3.1,1.6A17.67,17.67,0,0,0,220.84,37.66Z" style="fill:#18bf62"/><path d="M217.27,39.44l0,4.57a1.86,1.86,0,0,1-.83.52c-1.35.59-2.65,1.29-4,1.94a1.36,1.36,0,0,1-.52.19,11.56,11.56,0,0,1-1.77-.77c-1.06-.48-2.09-1-3.13-1.55a1.16,1.16,0,0,1-.44-.33V39.44h.08c.29-.12.51,0,.74.15,1.31.67,2.64,1.29,4,1.93a1.22,1.22,0,0,0,1.16,0c1.34-.6,2.63-1.29,3.95-1.93.24-.11.46-.27.74-.15A.11.11,0,0,1,217.27,39.44Z" style="fill:#11a859"/><path d="M217.19,39.43a13.58,13.58,0,0,0-1.85.87c-1,.46-2,.93-3,1.42a.94.94,0,0,1-.93,0c-1.44-.73-2.89-1.42-4.34-2.12a3.8,3.8,0,0,0-.47-.18c1.68-.92,3.35-1.83,5-2.76a.49.49,0,0,1,.52,0Z" style="fill:#18bf62"/><path d="M214.15,33.65a6,6,0,0,1,1.68-2.31A1.52,1.52,0,0,1,217,31a.7.7,0,0,1,.55,1.14,2.07,2.07,0,0,1-.7.71A6.07,6.07,0,0,1,214.15,33.65Z" style="fill:#18bf62"/><path d="M209.68,33.64a6,6,0,0,1-2.63-.76,2.31,2.31,0,0,1-.76-.73.72.72,0,0,1,.6-1.18,1.56,1.56,0,0,1,1.13.38A6.39,6.39,0,0,1,209.68,33.64Z" style="fill:#18bf62"/><path d="M206.58,44l1.8.85,3.54,1.72a.72.72,0,0,1,0,.89h0l-5.34-2.57Z" style="fill:#006e43"/><path d="M211.92,47.47v-.89c1.77-.88,3.51-1.8,5.33-2.57v.89C215.44,45.68,213.69,46.59,211.92,47.47Z" style="fill:#006e43"/><path d="M197.74,34.94a14.84,14.84,0,0,0,2.4,1.26A27.46,27.46,0,0,1,203,37.66l0,4.56a.29.29,0,0,1-.27,0c-1.4-.68-5.08-2.54-5.08-2.56,0-1.26,0-3.22,0-4.2C197.65,35.29,197.57,35.09,197.74,34.94Z" style="fill:#11a859"/><path d="M226.1,34.94l.09,0v4.68c-.43.26-1.11.66-1.25.72-1.22.5-2.36,1.17-3.55,1.73-.21.09-.46.34-.66,0a40.55,40.55,0,0,1,0-4.27.55.55,0,0,1,.3-.43C222.68,36.53,224.37,35.69,226.1,34.94Z" style="fill:#11a859"/><path d="M217.27,39.44l3-1.51c.16-.08.35-.12.46-.29s.07,0,.1,0l0,4.56c0,.89.16,6.24.16,8.89a1.31,1.31,0,0,1-.17.8,28.41,28.41,0,0,1-3.57,1.8.78.78,0,0,1-.18-.62c0-2.71,0-5.42,0-8.14,0-.32,0-.64,0-1,0-1.3,0-2.61,0-3.92A.87.87,0,0,1,217.27,39.44Z" style="fill:#e0e0e0"/><g id="ฝากเงิน-3" data-name="ฝากเงิน" style="isolation:isolate"><text transform="translate(194.06 85.44)" style="isolation:isolate;font-size:13px;fill:#fff;font-family:CordiaNew-Bold, Cordia New;font-weight:700">โปรโมชั่น</text></g><g id="Group_472" data-name="Group 472"><circle id="Ellipse_38-7" data-name="Ellipse 38-7" cx="298" cy="42.11" r="26.17" style="fill:#141615;stroke:#000;stroke-miterlimit:10"/></g><path d="M312.22,42a1.89,1.89,0,0,1,.63,1.79,2.13,2.13,0,0,1-1.07,1.71,2,2,0,0,1,.27.52,2.33,2.33,0,0,1,.07.25,2.52,2.52,0,0,1,0,.91,2,2,0,0,1-1,1.46,2,2,0,0,1,.22,1.42,1.86,1.86,0,0,1-2,1.51l-.16,0h-11a1.73,1.73,0,0,1-1-.47,2.33,2.33,0,0,0-1-.52h-.68a6.33,6.33,0,0,0-.28-1.74,6.63,6.63,0,0,0-1-2,4,4,0,0,0-.49-.62V40.66a.42.42,0,0,1,.41-.43h2.69a4.29,4.29,0,0,0,.6-.59,20.87,20.87,0,0,0,1.66-2.44,21,21,0,0,1,1.23-1.81,5.62,5.62,0,0,1,1.29-1.23c.36-.26.28-.32,1-1.23A6.19,6.19,0,0,0,304,29.65l.09-.49a1.79,1.79,0,0,1,.68-1.06,1.12,1.12,0,0,1,.28-.16l.16-.05h0a1.15,1.15,0,0,1,.26,0h.11a.21.21,0,0,1,.11,0,1.28,1.28,0,0,1,.54.23,2.86,2.86,0,0,1,.94,1.39,1,1,0,0,1,.08.23,5.12,5.12,0,0,1,.22,2.2,8.44,8.44,0,0,1-1.33,3.58,2.1,2.1,0,0,0-.59,1.85c0,.39.63.39.66.4H310c1.07,0,3.08.34,3.08,2.4A2.22,2.22,0,0,1,312.22,42Z" style="fill:#efefef"/><path d="M313,40.16c0-2.06-2-2.39-3.08-2.4h-1.48c1.06,0,3.08.34,3.08,2.4a2.23,2.23,0,0,1-.83,1.86,1.85,1.85,0,0,1,.63,1.79,2.13,2.13,0,0,1-1.07,1.71,2.07,2.07,0,0,1,.35,1.68,2,2,0,0,1-1,1.46,2,2,0,0,1,.23,1.42,1.86,1.86,0,0,1-2,1.51h1.48a1.86,1.86,0,0,0,2-1.51,2,2,0,0,0-.22-1.42,2,2,0,0,0,1-1.46,2.52,2.52,0,0,0,0-.91,2.33,2.33,0,0,0-.07-.25,2,2,0,0,0-.27-.52,2.13,2.13,0,0,0,1.07-1.71,1.89,1.89,0,0,0-.63-1.79A2.22,2.22,0,0,0,313,40.16Zm-5.49-8.24a5.12,5.12,0,0,0-.22-2.2,1,1,0,0,0-.08-.23,2.86,2.86,0,0,0-.94-1.39,1.28,1.28,0,0,0-.54-.23.21.21,0,0,0-.11,0h-.11a.75.75,0,0,0-.26,0h0l-.16.05a1.12,1.12,0,0,0-.28.16h0c.93.66,1.42,2.55,1.24,3.82a8.57,8.57,0,0,1-1.33,3.58,2.13,2.13,0,0,0-.6,1.85c0,.39.64.39.66.4h1.49s-.62,0-.66-.4a2.1,2.1,0,0,1,.59-1.85A8.44,8.44,0,0,0,307.55,31.92ZM313,40.16c0-2.06-2-2.39-3.08-2.4h-1.48c1.06,0,3.08.34,3.08,2.4a2.23,2.23,0,0,1-.83,1.86,1.85,1.85,0,0,1,.63,1.79,2.13,2.13,0,0,1-1.07,1.71,2.07,2.07,0,0,1,.35,1.68,2,2,0,0,1-1,1.46,2,2,0,0,1,.23,1.42,1.86,1.86,0,0,1-2,1.51h1.48a1.86,1.86,0,0,0,2-1.51,2,2,0,0,0-.22-1.42,2,2,0,0,0,1-1.46,2.52,2.52,0,0,0,0-.91,2.33,2.33,0,0,0-.07-.25,2,2,0,0,0-.27-.52,2.13,2.13,0,0,0,1.07-1.71,1.89,1.89,0,0,0-.63-1.79A2.22,2.22,0,0,0,313,40.16Zm-5.49-8.24a5.12,5.12,0,0,0-.22-2.2,1,1,0,0,0-.08-.23,2.86,2.86,0,0,0-.94-1.39,1.28,1.28,0,0,0-.54-.23.21.21,0,0,0-.11,0h-.11a.75.75,0,0,0-.26,0h0l-.16.05a1.12,1.12,0,0,0-.28.16h0c.93.66,1.42,2.55,1.24,3.82a8.57,8.57,0,0,1-1.33,3.58,2.13,2.13,0,0,0-.6,1.85c0,.39.64.39.66.4h1.49s-.62,0-.66-.4a2.1,2.1,0,0,1,.59-1.85A8.44,8.44,0,0,0,307.55,31.92Z" style="fill:#dcdcdc"/><path d="M295.22,40.23v8.65a6.63,6.63,0,0,0-1-2,4,4,0,0,0-.49-.62v-6Z" style="fill:#d7d7d7"/><path d="M290.35,48.23v0Z" style="fill:#18bf62"/><path d="M294.22,40.38v6.47a4,4,0,0,0-.49-.62,7,7,0,0,0-5.23-2.35,7.08,7.08,0,0,0-2,.27,5.77,5.77,0,0,0-1.07.41l-.65-4.18a.86.86,0,0,1,0-.28.41.41,0,0,1,.05-.17,1.12,1.12,0,0,1,.35-.45.65.65,0,0,1,.15-.1l0,0,.17-.07a.8.8,0,0,1,.21,0h0l.14,0h7.11a1.14,1.14,0,0,1,1.13,1h0A.66.66,0,0,1,294.22,40.38Z" style="fill:#18bf62"/><path d="M290.35,48.23v0Z" style="fill:#fff"/><path d="M285.81,39.39l.73,4.76a5.77,5.77,0,0,0-1.07.41l-.65-4.18a.86.86,0,0,1,0-.28.41.41,0,0,1,.05-.17,1.12,1.12,0,0,1,.35-.45.65.65,0,0,1,.15-.1l0,0,.17-.07a.8.8,0,0,1,.21,0Z" style="fill:#11a859"/><path d="M290.35,48.23v0Z" style="fill:#11a859"/><path d="M288.44,45.41A5.48,5.48,0,1,1,283,50.89,5.48,5.48,0,0,1,288.44,45.41Z" style="fill:#3b5998"/><path d="M289.11,49.18h.71v-1H289c-1,0-1.22.61-1.23,1.2h0v.52h-.68v1h.68v2.74h1V50.88h.84l.17-1h-1v-.31A.34.34,0,0,1,289.11,49.18Z" style="fill:#fff"/><g id="ฝากเงิน-4" data-name="ฝากเงิน" style="isolation:isolate"><text transform="translate(282.81 85.44)" style="isolation:isolate;font-size:13px;fill:#fff;font-family:CordiaNew-Bold, Cordia New;font-weight:700">กิจกรรม</text></g><g id="Group_473" data-name="Group 473"><circle id="Ellipse_38-2" data-name="Ellipse 38-2" cx="41" cy="127.1" r="26.17" style="fill:#141615;stroke:#000;stroke-miterlimit:10"/></g><path d="M46.47,114.22a3,3,0,0,1,.75-.86h.86a6.34,6.34,0,0,1,2.36,2.15c0,.23-.18.18-.31.19-.94,0-1.26.28-1.48,1.2a9,9,0,0,0-.16,3c.06.57.12,1.13.23,1.69a.75.75,0,0,1-.07.57,4.83,4.83,0,0,1-1.55.24,1,1,0,0,1-.35-.65,19.61,19.61,0,0,1-.76-5.49A3.44,3.44,0,0,1,46.47,114.22Z" style="fill:#07854c"/><path d="M54.11,133.54a1.61,1.61,0,0,1-1.2-.1,27.1,27.1,0,0,0-5.56-1.24,21.6,21.6,0,0,0-4.33,0,.73.73,0,0,0-.4.13c-.77.2-1.56.28-2.34.45-.24,0-.47.12-.71.18a.77.77,0,0,0,0-.15,7.44,7.44,0,0,0-6.4-6.05l-.14,0s0-.06,0-.09a1.14,1.14,0,0,1,0-.73l.07-.09,0,0a.72.72,0,0,1,.28-.13,25.78,25.78,0,0,0,8.16-4.38,21.47,21.47,0,0,0,4.11-4.61c.1-.14.17-.34.34-.42a.32.32,0,0,1,.14,0,19.32,19.32,0,0,0,1,6.13l0,0a1.34,1.34,0,0,1,.29.64,28,28,0,0,0,1.72,4.48l0,.07,0,.06a16.89,16.89,0,0,0,3.18,4.79,3.06,3.06,0,0,0,.39.34h0a1.31,1.31,0,0,0,.27.21l0,0C53.39,133.29,53.8,133.3,54.11,133.54Z" style="fill:#18bf62"/><path d="M54.1,133.55a1.7,1.7,0,0,1-1.09-.43,21.54,21.54,0,0,1-2.53-4.67L50,127.22a.45.45,0,0,1,.1-.3,2.67,2.67,0,0,0-1.22-4.57.37.37,0,0,1-.23-.21,20,20,0,0,1-.32-3.86,5.29,5.29,0,0,1,.37-1.92,1.16,1.16,0,0,1,1.53-.77.22.22,0,0,0,.24-.08,25.17,25.17,0,0,1,3.48,6.78,23.83,23.83,0,0,1,1.67,8.51,4.67,4.67,0,0,1-.42,2A1.21,1.21,0,0,1,54.1,133.55Z" style="fill:#0e9c55"/><path d="M44.22,139a5.08,5.08,0,0,1-2,1.71c-.61.27-.93.15-1.31-.42a10,10,0,0,1-1.07-2.44c-.17-.51-.33-1-.47-1.54a7.26,7.26,0,0,0,.32-2.15,5.44,5.44,0,0,0,0-.57.66.66,0,0,0,0-.14,21.67,21.67,0,0,1,2.55,1.16,2.46,2.46,0,0,1,.84,2.33.49.49,0,0,0,.24.44c.27.2.52.45.8.63C44.51,138.29,44.49,138.63,44.22,139Z" style="fill:#07854c"/><path d="M33.06,125.91a6.42,6.42,0,0,0,.09.87l-.14,0a6.85,6.85,0,0,0-.79,0,7.89,7.89,0,0,0-.84,0,2.2,2.2,0,0,1,1.67-1.52.47.47,0,0,1,.06.57A.41.41,0,0,1,33.06,125.91Z" style="fill:#006e43"/><path d="M33.06,125.91c0-.22,0-.43,0-.65.08-.45.47-.5.8-.62a26.63,26.63,0,0,0,6.37-3.37,22,22,0,0,0,5.61-6.2,3,3,0,0,1,.64-.85,6.39,6.39,0,0,0-.33,2,25,25,0,0,1-3.19,4,22.46,22.46,0,0,1-6.85,4.53A17.7,17.7,0,0,1,33.06,125.91Z" style="fill:#11a859"/><path d="M42.18,134.61a21.37,21.37,0,0,1-2.54-1,.66.66,0,0,0,0-.14,3.55,3.55,0,0,0-.06-.47.77.77,0,0,0,0-.15,26.29,26.29,0,0,1,2.94-.56s.09,0,.13.08A4.41,4.41,0,0,0,42.18,134.61Z" style="fill:#006e43"/><path d="M48.62,122.14l.23.11A25.76,25.76,0,0,0,50,126.38a1.66,1.66,0,0,1,.15.62l-.13.2a.86.86,0,0,1-1,.44,25.7,25.7,0,0,1-1.93-5.26A3.64,3.64,0,0,1,48.62,122.14Z" style="fill:#d8d9da"/><path d="M49.05,127.64a3.29,3.29,0,0,0,1-.44c.28.11.28.4.36.62a26.83,26.83,0,0,0,2.58,5c.05.08.2.14.07.27a9.25,9.25,0,0,1-2.58-3A25.72,25.72,0,0,1,49.05,127.64Z" style="fill:#07854c"/><path d="M50.13,127a9.64,9.64,0,0,1-.85-2.32c-.21-.64-.33-1.3-.49-2,0-.18-.12-.34.06-.48a2.54,2.54,0,0,1,2.09,1.9A2.61,2.61,0,0,1,50.13,127Z" style="fill:#eaeced"/><path d="M32.22,128.36a5.81,5.81,0,1,1-5.81,5.81A5.81,5.81,0,0,1,32.22,128.36Z" style="fill:#f4b459"/><path d="M32.22,129.45a4.72,4.72,0,1,0,4.72,4.72A4.72,4.72,0,0,0,32.22,129.45Zm0,8.72a4,4,0,1,1,4-4A4,4,0,0,1,32.22,138.17Zm.82-5.1a1.21,1.21,0,0,0-.54-.14,1.13,1.13,0,0,0-.6.17,1.18,1.18,0,0,0-.43.43,1.29,1.29,0,0,0-.15.62,1.32,1.32,0,0,0,.15.62,1.29,1.29,0,0,0,.43.44,1.12,1.12,0,0,0,.6.16,1.31,1.31,0,0,0,.53-.12,1.82,1.82,0,0,0,.48-.34l.51.56a2.19,2.19,0,0,1-.73.51,2,2,0,0,1-.84.19,2.1,2.1,0,0,1-1-.26,1.9,1.9,0,0,1-.73-.73,2,2,0,0,1,0-2,1.86,1.86,0,0,1,.75-.72,2.15,2.15,0,0,1,1.05-.26,2.24,2.24,0,0,1,.83.17,2.29,2.29,0,0,1,.7.48l-.51.62A1.67,1.67,0,0,0,33,133.07Z" style="fill:#cc6621"/><g id="Group_474" data-name="Group 474"><circle id="Ellipse_38-6" data-name="Ellipse 38-6" cx="127" cy="127.71" r="26.17" style="fill:#141615;stroke:#000;stroke-miterlimit:10"/></g><path d="M114.52,113.44h25a1.79,1.79,0,0,1,1.79,1.79v25a1.79,1.79,0,0,1-1.79,1.78h-25a1.79,1.79,0,0,1-1.79-1.78v-25A1.79,1.79,0,0,1,114.52,113.44Z" style="fill:#e4e7e7"/><path d="M139.48,113.44h-25a1.79,1.79,0,0,0-1.79,1.79v4.46h28.54v-4.46A1.79,1.79,0,0,0,139.48,113.44Z" style="fill:#18bf62"/><path d="M112.73,118.8h28.54v1.78H112.73Z" style="fill:#11a859"/><path d="M127,115.23a.89.89,0,1,1-.89.89A.89.89,0,0,1,127,115.23Z" style="fill:#037a47"/><path d="M139.48,140.2h-25a1.79,1.79,0,0,1-1.79-1.79v1.79a1.79,1.79,0,0,0,1.79,1.78h25a1.79,1.79,0,0,0,1.79-1.78v-1.79A1.79,1.79,0,0,1,139.48,140.2Z" style="fill:#c2c5c5"/><path d="M132.14,128.63a2.42,2.42,0,0,0-.91.16l0,0c.48-.63,1.41-1.5,2-2.16a.94.94,0,0,0,.31-.56,1.2,1.2,0,0,0-1-1,.74.74,0,0,0-.43.1,3.18,3.18,0,0,0-.47.32c-1.46,1.27-3.67,4.15-3.67,6.19a3.4,3.4,0,0,0,3.63,3.36,3.48,3.48,0,0,0,3.63-3.36A3,3,0,0,0,132.14,128.63Zm-.61,4.44a1.41,1.41,0,1,1,1.37-1.41A1.33,1.33,0,0,1,131.53,133.07Zm-6.61.13h-2.74c1.27-1.48,3.59-3.38,3.59-5.29,0-1.75-1.48-2.87-3.32-2.87a3.4,3.4,0,0,0-3.52,3.13,1,1,0,0,0,1.09,1c1.44,0,.62-2.23,2.34-2.23a1.08,1.08,0,0,1,1.08,1.06,2.14,2.14,0,0,1-.53,1.28,54.41,54.41,0,0,1-3.72,4.12,1.15,1.15,0,0,0-.35.7c0,.64.51.91,1.17.91h5c.57,0,1.08-.27,1.08-.91S125.58,133.2,124.92,133.2Z" style="fill:#324d5b"/><g id="Group_475" data-name="Group 475"><circle id="Ellipse_38-4" data-name="Ellipse 38-4" cx="211.91" cy="127.71" r="26.17" style="fill:#141615;stroke:#000;stroke-miterlimit:10"/></g><path d="M217.7,137.26a12,12,0,0,1-3.45,1.29,14.25,14.25,0,0,1-1.58.21,10.9,10.9,0,0,1-1.4,0,11.88,11.88,0,0,1-4.14-1,9.18,9.18,0,0,1-1-.5L208,134c.53-.92,1.07-1.84,1.61-2.76a.66.66,0,0,1,.3.12,4.52,4.52,0,0,0,2.06.51,4.32,4.32,0,0,0,1.62-.31,1.49,1.49,0,0,0,.58-.31,1.53,1.53,0,0,0,.19.3q1.51,2.63,3,5.25C217.52,136.94,217.61,137.1,217.7,137.26Zm-8-1.21a2.3,2.3,0,0,0,2.17,2.37,2.33,2.33,0,0,0,.3-4.66A2.3,2.3,0,0,0,209.69,136.05Z" style="fill:#f1eeee"/><path d="M209.69,136.05a2.3,2.3,0,0,1,2.47-2.29,2.33,2.33,0,1,1-2.47,2.29Z" style="fill:#fec95a"/><path d="M199.11,134a14.75,14.75,0,0,1-1.15-3.35,14.28,14.28,0,0,1,11.28-17,13.82,13.82,0,0,1,3.74-.21,14,14,0,0,1,6.36,2.05c.4.24.77.52,1.14.79a14.24,14.24,0,0,1-5.59,25.32,14.17,14.17,0,0,1-14.9-6.11l-.21-.31Zm24.64-6.4a5.28,5.28,0,0,0,.11-1.73,9.37,9.37,0,0,0-.41-1.89,11.74,11.74,0,0,0-1.16-2.52,12.7,12.7,0,0,0-1.58-2.12,8,8,0,0,0-2.12-1.75,2.16,2.16,0,0,0-.75-.26,2.48,2.48,0,0,1,.17-.32c.06-.08,0-.12,0-.17a11.41,11.41,0,0,0-2-.88,12.89,12.89,0,0,0-2.22-.56,13.84,13.84,0,0,0-1.43-.14,11.79,11.79,0,0,0-1.68,0c-.52.06-1,.14-1.56.25a12.32,12.32,0,0,0-2.44.83,4.55,4.55,0,0,0-.92.5l-.11,0a12.45,12.45,0,0,0-3.26,2.74,12.3,12.3,0,0,0-2.5,4.79,12,12,0,0,0-.42,3.16,10.34,10.34,0,0,0,.11,1.76,12.21,12.21,0,0,0,1.46,4.35,12.67,12.67,0,0,0,1.8,2.45,10.21,10.21,0,0,0,1,1,14.1,14.1,0,0,0,1.74,1.24c.07,0,.11,0,.16,0a.61.61,0,0,0,.14.1,12.61,12.61,0,0,0,1.76.79,12.48,12.48,0,0,0,4.2.67q.6,0,1.2-.06a11.38,11.38,0,0,0,3.74-1,7.39,7.39,0,0,0,1.21-.64c.17.18.16.18.39,0a13.78,13.78,0,0,0,1.2-.85,11.66,11.66,0,0,0,1.85-1.8,12.31,12.31,0,0,0,2.41-4.61,13,13,0,0,0,.36-1.86c0-.45.08-.89.09-1.34,0-.16-.05-.19-.19-.18S223.87,127.64,223.75,127.64Z" style="fill:#0a9150"/><path d="M223.75,127.64h-7c-.36,0-.72,0-1.08,0-.1,0-.13,0-.13-.13a2.56,2.56,0,0,0,0-.55,3.57,3.57,0,0,0-1.76-2.51l3.56-6.15c.18-.31.36-.63.55-.94a2.16,2.16,0,0,1,.75.26,8,8,0,0,1,2.12,1.75,12.7,12.7,0,0,1,1.58,2.12,11.74,11.74,0,0,1,1.16,2.52,9.37,9.37,0,0,1,.41,1.89A5.28,5.28,0,0,1,223.75,127.64Zm-4.07-.82h1a2.77,2.77,0,0,0,.91-.1,1.05,1.05,0,0,0,.83-1.3,10.73,10.73,0,0,0-1.53-3.72,10.37,10.37,0,0,0-1.62-1.94,2.88,2.88,0,0,0-.7-.5,1.06,1.06,0,0,0-1.24.33,5.89,5.89,0,0,0-.58.83c-.32.56-.66,1.12-1,1.7a4.7,4.7,0,0,0-.48,1.21,1.8,1.8,0,0,0,.27,1.36c.23.34.4.7.63,1a2.32,2.32,0,0,0,.94.82,2.94,2.94,0,0,0,1.41.27Z" style="fill:#f1eeee"/><path d="M205.76,116.93c.21.36.42.71.62,1.07,0,0,.07.08.06.14s-.19.13-.29.19a11.08,11.08,0,0,0-2.63,2.24,10.66,10.66,0,0,0-1.36,2,11.1,11.1,0,0,0-.95,2.62,12.5,12.5,0,0,0-.28,2.44c-.49,0-1,0-1.46,0a12,12,0,0,1,.42-3.16,12.3,12.3,0,0,1,2.5-4.79,12.45,12.45,0,0,1,3.26-2.74Z" style="fill:#c3c1c7"/><path d="M218,116.93l-.62,1.07a.17.17,0,0,0,0,.14c.06.11.18.13.28.19a11.08,11.08,0,0,1,2.63,2.24,10.66,10.66,0,0,1,1.36,2,11.1,11.1,0,0,1,1,2.62,12.51,12.51,0,0,1,.29,2.44c.48,0,1,0,1.46,0a12.46,12.46,0,0,0-.42-3.16,12.54,12.54,0,0,0-5.76-7.53Z" style="fill:#c3c1c7"/><path d="M217.53,137.26c.23.37.43.75.64,1.14a8,8,0,0,1-1.23.65,11,11,0,0,1-2.39.81,13.36,13.36,0,0,1-1.41.23l-1.22.06a12.67,12.67,0,0,1-4.28-.69,14.79,14.79,0,0,1-1.88-.91,1.21,1.21,0,0,1-.14-.1c.24-.41.43-.84.7-1.23l0,0a9.85,9.85,0,0,0,1,.59,11.19,11.19,0,0,0,4,.94,8.69,8.69,0,0,0,1.35,0,13,13,0,0,0,1.51-.2A11.2,11.2,0,0,0,217.53,137.26Z" style="fill:#c3c1c7"/><path d="M200.93,127.67a12.5,12.5,0,0,1,.28-2.44,11.1,11.1,0,0,1,.95-2.62,10.66,10.66,0,0,1,1.36-2,11.08,11.08,0,0,1,2.63-2.24c.1-.06.22-.08.29-.19.28.4.5.84.75,1.27.83,1.43,1.64,2.86,2.47,4.29l.06.13a4.26,4.26,0,0,0-1.32,1.25,4.42,4.42,0,0,0-.79,2.59h-6.68Zm3.88-1.58a2.2,2.2,0,1,0-2.2-2.1A2.2,2.2,0,0,0,204.81,126.09Z" style="fill:#f1eeee"/><path d="M214.26,131.73a1.41,1.41,0,0,1-.18-.29c-.08-.22-.25-.4-.34-.62s-.11-.13-.23-.07a3.53,3.53,0,0,1-1.54.34,3.67,3.67,0,0,1-1.74-.48,3.53,3.53,0,0,1-.38-5.86,1.58,1.58,0,0,0,.29-.22c.21-.1.41-.21.63-.29a3.52,3.52,0,0,1,1.54-.22,3.73,3.73,0,0,1,1.42.44,3.57,3.57,0,0,1,1.76,2.51,2.56,2.56,0,0,1,0,.55c0,.1,0,.13.13.13.36,0,.72,0,1.08,0a4.83,4.83,0,0,1-2.22,3.88A1.35,1.35,0,0,0,214.26,131.73Zm.35-4.15a2.61,2.61,0,1,0-2.77,2.57A2.61,2.61,0,0,0,214.61,127.58Z" style="fill:#15b35e"/><path d="M202.61,131.72a2.2,2.2,0,1,1,2.27,2.2A2.21,2.21,0,0,1,202.61,131.72Z" style="fill:#fec95a"/><path d="M210.23,130.61a3.67,3.67,0,0,0,1.74.48,3.53,3.53,0,0,0,1.54-.34c.12-.06.18,0,.23.07s.26.4.34.62a1.41,1.41,0,0,1-.55.3,4.15,4.15,0,0,1-3.46-.19.64.64,0,0,0-.3-.11Z" style="fill:#f1eeee"/><path d="M210.14,124.53a1.58,1.58,0,0,1-.29.22,3.55,3.55,0,0,0-1.38,2.93h-.86a4.42,4.42,0,0,1,.79-2.59,4.26,4.26,0,0,1,1.32-1.25Z" style="fill:#f1eeee"/><path d="M214.2,119.87a2.19,2.19,0,0,1-2.16,2.21,2.2,2.2,0,0,1-.11-4.4A2.2,2.2,0,0,1,214.2,119.87Z" style="fill:#fec95a"/><path d="M220.38,130.57h.41a.4.4,0,0,1,.38.56l-.16.39-.32.71h-.22l.27-.64c-.15.09-.26.12-.37,0s-.07,0-.08.05l-.18.41-.21,0,.29-.67a.47.47,0,0,1-.53-.42,7.28,7.28,0,0,0-.28.7.61.61,0,0,1-.23,0l.35-.8c-.14,0-.25.06-.35,0s-.06,0-.08,0a3.75,3.75,0,0,0-.16.43c-.1,0-.15,0-.2.09s-.06.24-.2.28l.48-1.12h-.47c-.35,0-.45-.07-.53-.41a.42.42,0,0,1,.43-.38h1.08c.38,0,.53.16.49.54a1.34,1.34,0,0,0-.16.37v0h0C220,130.54,220.2,130.6,220.38,130.57Z" style="fill:#15b35e"/><path d="M217.2,133.77a1.93,1.93,0,0,1-.61-1.33.62.62,0,0,1,.23,0h.69c.11,0,.17,0,.15.15s.05.17.16.11a.27.27,0,0,1,.31,0,.1.1,0,0,0,.14,0,.11.11,0,0,0,0-.15c-.08-.09,0-.13.05-.18h0c0,.3,0,.34.29.23l.13-.06a.26.26,0,0,1,.15,0c.13,0,.25.19.41.08s0,0,0,0,.13.09.2,0a.2.2,0,0,1,.27,0c.05,0,.13.06.16,0s.16-.09.26-.1h.55a.46.46,0,0,1,.26.07,1.91,1.91,0,0,1-.44,1c-.52,0-1,0-1.56,0,0,0-.07,0-.07,0s-.11.12-.2.12h-.43C218,133.76,217.58,133.73,217.2,133.77Zm2.74-.34a.36.36,0,1,0,0-.71.36.36,0,0,0-.35.36A.35.35,0,0,0,219.94,133.43Zm-2-.13a5.27,5.27,0,0,0-.21-.53c-.05-.08-.14-.05-.17,0s-.13.33-.19.49,0,.1,0,.12.08,0,.11,0,.16-.12.27,0a.1.1,0,0,0,.1,0S217.94,133.37,217.93,133.3Zm.81,0,.15.14a.09.09,0,0,0,.13,0s0-.09,0-.12a.93.93,0,0,0-.14-.14c-.07-.06-.06-.1,0-.16s.21-.11.12-.21-.16,0-.26.08,0-.13-.1-.12-.08.08-.08.15v.38c0,.07,0,.15.08.16S218.73,133.34,218.74,133.26Zm.34-.18h0a1.85,1.85,0,0,0,0,.23c0,.06,0,.11.08.12s.09-.05.09-.11,0-.11.11-.13a.23.23,0,0,0,.19-.28c0-.14-.14-.2-.34-.19s-.13.13-.14.23Zm-.81.35h.08c.08,0,.19-.06.16-.18s-.12,0-.18,0a.18.18,0,0,1-.2-.05.18.18,0,0,1,0-.21.16.16,0,0,1,.22-.07c.06,0,.13.05.16,0s-.05-.12-.12-.14a.34.34,0,0,0-.37.1.32.32,0,0,0-.06.37A.35.35,0,0,0,218.27,133.43Zm2.13-.3v.19c0,.06,0,.11.09.11s.09-.05.09-.11v-.25c0-.08,0-.16.1-.2s.06-.12,0-.14a.69.69,0,0,0-.35,0c-.07,0-.09.11,0,.13S220.38,133,220.4,133.13Zm-3.1-.09h0v-.19c0-.06,0-.12-.09-.12s-.08.06-.08.12v.31s0,.1-.07.07-.1,0-.12.06,0,.1.1.12a.19.19,0,0,0,.26-.15A1.61,1.61,0,0,0,217.3,133Z" style="fill:#15b35e"/><path d="M218.34,132.33c-.06,0-.13.09-.05.18a.11.11,0,0,1,0,.15.1.1,0,0,1-.14,0,.27.27,0,0,0-.31,0c-.11.06-.17,0-.16-.11s0-.15-.15-.15h-.69a.62.62,0,0,0-.23,0,.3.3,0,0,1,0-.16,1.34,1.34,0,0,1,.35,0h.25c.14,0,.34.1.39-.15l0,0c.22,0,.27-.14.35-.28s.12.08.15.15.1.13.25.09l-.17-.13s-.08-.08-.06-.15.08-.07.14-.08l.25,0c.14,0,.14-.18.2-.28s.1-.13.2-.09l.09.17c.05.07,0,.18.15.2a.61.61,0,0,0,.23,0c.06,0,.14,0,.17.09s-.05.13-.1.18l-.13.12a.2.2,0,0,0,.26-.15c0-.05,0-.1.11-.1s.07.06.1.1,0,.13.11.15l.21,0c0,.16.12.17.25.15h.33a1.13,1.13,0,0,1,.41,0,1.33,1.33,0,0,1,0,.34.46.46,0,0,0-.26-.07h-.55c-.1,0-.2,0-.26.1s-.11,0-.16,0a.2.2,0,0,0-.27,0c-.07.05-.15.06-.2,0s0-.05,0,0-.28,0-.41-.08a.26.26,0,0,0-.15,0l-.13.06c-.28.11-.32.07-.29-.23Z" style="fill:#15b35e"/><path d="M217.09,132.24h-.17c0-.07,0-.12,0-.18s.16-.39.25-.58,0-.11-.05-.1a.47.47,0,0,1-.33-.14c-.19-.38,0-.64.4-.66h.58a.4.4,0,0,1,.4.6c-.09.2-.18.41-.26.61s-.13.31-.35.28l.18-.43c-.12,0-.22.09-.31,0s-.11,0-.14,0Z" style="fill:#15b35e"/><path d="M220.28,133.93a2,2,0,0,1-1,.5,2.25,2.25,0,0,1-1.74-.37.35.35,0,0,1-.14-.13h2.89Z" style="fill:#15b35e"/><path d="M218,131.79c.08-.2.17-.41.26-.61a.4.4,0,0,0-.4-.6h-.52a1.21,1.21,0,0,1,.7-.47c.08.34.18.41.53.41H219l-.48,1.12-.25,0c-.06,0-.12,0-.14.08s0,.11.06.15l.17.13c-.15,0-.21,0-.25-.09S218,131.79,218,131.79Z" style="fill:#15b35e"/><path d="M220.28,133.93h-2.89l-.19-.16c.38,0,.77,0,1.15,0h.43c.09,0,.2,0,.2-.12s0,0,.07,0c.52,0,1,0,1.56,0A2.5,2.5,0,0,1,220.28,133.93Z" style="fill:#15b35e"/><path d="M216.83,131.24a.47.47,0,0,0,.33.14c.09,0,.07,0,.05.1s-.17.38-.25.58-.07.11,0,.18a1.34,1.34,0,0,0-.35,0,2.16,2.16,0,0,1,.15-.94C216.74,131.29,216.76,131.24,216.83,131.24Z" style="fill:#15b35e"/><path d="M221.1,132.29a1.13,1.13,0,0,0-.41,0l.32-.71A2.15,2.15,0,0,1,221.1,132.29Z" style="fill:#15b35e"/><path d="M220.38,130.57c-.18,0-.37,0-.54.08v0a1.34,1.34,0,0,1,.16-.37A.71.71,0,0,1,220.38,130.57Z" style="fill:#15b35e"/><path d="M219.68,126.82h-1.1a2.94,2.94,0,0,1-1.41-.27,2.32,2.32,0,0,1-.94-.82c-.23-.34-.4-.7-.63-1a1.8,1.8,0,0,1-.27-1.36,4.7,4.7,0,0,1,.48-1.21c.3-.58.64-1.14,1-1.7a5.89,5.89,0,0,1,.58-.83,1.06,1.06,0,0,1,1.24-.33,2.88,2.88,0,0,1,.7.5,10.37,10.37,0,0,1,1.62,1.94,10.73,10.73,0,0,1,1.53,3.72,1.05,1.05,0,0,1-.83,1.3,2.77,2.77,0,0,1-.91.1Zm-2.87-2.71a2.15,2.15,0,0,0,2,2.17,2.2,2.2,0,1,0-2-2.17Z" style="fill:#f1eeee"/><path d="M204.81,126.09a2.2,2.2,0,1,1,2.2-2.17A2.19,2.19,0,0,1,204.81,126.09Z" style="fill:#fec95a"/><path d="M214.61,127.58a2.61,2.61,0,1,1-5.22-.08,2.61,2.61,0,0,1,5.22.08Zm-2.86-2.47h-.09a2.59,2.59,0,0,0-1.82,1.27,1.78,1.78,0,0,0-.32,1c0,.1,0,.12.13.08a4.2,4.2,0,0,0,.95-.47,7.52,7.52,0,0,1,1.47-.81,1,1,0,0,0,.68-.78c0-.15,0-.2-.14-.25A2.09,2.09,0,0,0,211.75,125.11Z" style="fill:#18bf62"/><path d="M219.9,132.05c-.08,0-.08-.09-.11-.15s0-.1-.1-.1-.09,0-.11.1a.2.2,0,0,1-.26.15l.13-.12c.05-.05.13-.09.1-.18s-.11-.07-.17-.09a7.28,7.28,0,0,1,.28-.7.47.47,0,0,0,.53.42Z" style="fill:#15b35e"/><path d="M219.15,131.63c-.11,0-.1-.13-.15-.2l-.09-.17a3.75,3.75,0,0,1,.16-.43s0-.07.08,0,.21.06.35,0Z" style="fill:#15b35e"/><path d="M220.47,132.24h-.11c-.13,0-.24,0-.25-.15l.18-.41s0-.1.08-.05.22.06.37,0Z" style="fill:#15b35e"/><path d="M219.84,130.65h0v0Z" style="fill:#15b35e"/><path d="M219.94,133.43a.35.35,0,0,1-.37-.35.36.36,0,0,1,.35-.36.36.36,0,1,1,0,.71Z" style="fill:#15b35e"/><path d="M217.93,133.3c0,.07,0,.1-.05.12a.1.1,0,0,1-.1,0c-.11-.12-.16-.12-.27,0s-.07.06-.11,0-.06-.07,0-.12.12-.32.19-.49.12-.11.17,0A5.27,5.27,0,0,1,217.93,133.3Z" style="fill:#15b35e"/><path d="M218.74,133.26c0,.08,0,.17-.1.16s-.08-.09-.08-.16v-.38c0-.07,0-.14.08-.15s.1.05.1.12.16-.21.26-.08-.06.16-.12.21-.08.1,0,.16a.93.93,0,0,1,.14.14s.06.08,0,.12a.09.09,0,0,1-.13,0Z" style="fill:#15b35e"/><path d="M219.08,133.08V133c0-.1,0-.22.14-.23s.32.05.34.19a.23.23,0,0,1-.19.28c-.1,0-.12.05-.11.13s0,.11-.09.11-.08-.06-.08-.12a1.85,1.85,0,0,1,0-.23Z" style="fill:#15b35e"/><path d="M218.27,133.43a.35.35,0,0,1-.32-.22.32.32,0,0,1,.06-.37.34.34,0,0,1,.37-.1c.07,0,.15,0,.12.14s-.1.06-.16,0a.16.16,0,0,0-.22.07.18.18,0,0,0,0,.21.18.18,0,0,0,.2.05c.06,0,.14-.11.18,0s-.08.15-.16.18Z" style="fill:#15b35e"/><path d="M220.4,133.13c0-.09.06-.22-.11-.27s0-.11,0-.13a.69.69,0,0,1,.35,0c.08,0,.09.12,0,.14s-.1.12-.1.2v.25c0,.06,0,.11-.09.11s-.09-.05-.09-.11Z" style="fill:#15b35e"/><path d="M217.3,133a1.61,1.61,0,0,1,0,.22.19.19,0,0,1-.26.15c-.06,0-.12,0-.1-.12s.06-.09.12-.06.06,0,.07-.07v-.31c0-.06,0-.11.08-.12s.09.06.09.12V133Z" style="fill:#15b35e"/><path d="M217.09,132.24l.24-.54c0-.06,0-.13.14,0s.19,0,.31,0l-.18.43,0,0c-.05.25-.25.13-.39.15Z" style="fill:#15b35e"/><path d="M218.34,132.33Z" style="fill:#2a335a"/><path d="M216.81,124.11a2.2,2.2,0,1,1,2,2.17A2.15,2.15,0,0,1,216.81,124.11Z" style="fill:#fec95a"/><path d="M211.75,125.11a2.09,2.09,0,0,1,.86.08c.13,0,.17.1.14.25a1,1,0,0,1-.68.78,7.52,7.52,0,0,0-1.47.81,4.2,4.2,0,0,1-.95.47c-.08,0-.12,0-.13-.08a1.78,1.78,0,0,1,.32-1,.27.27,0,0,0,.18,0c.45-.24.91-.46,1.34-.73A.72.72,0,0,0,211.75,125.11Z" style="fill:#18bf62"/><path d="M211.75,125.11a.72.72,0,0,1-.39.49c-.43.27-.89.49-1.34.73a.27.27,0,0,1-.18,0,2.59,2.59,0,0,1,1.82-1.27Z" style="fill:#18bf62"/><path d="M205.76,116.93a4.55,4.55,0,0,1,.92-.5,12.32,12.32,0,0,1,2.44-.83c.52-.11,1-.19,1.56-.25a11.79,11.79,0,0,1,1.68,0,13.84,13.84,0,0,1,1.43.14A12.89,12.89,0,0,1,216,116a11.41,11.41,0,0,1,2,.88c.09.05.11.09,0,.17a2.48,2.48,0,0,0-.17.32c-.19.31-.37.63-.55.94l-3.56,6.15a3.73,3.73,0,0,0-1.42-.44,3.52,3.52,0,0,0-1.54.22c-.22.08-.42.19-.63.29l-.42-.7-.06-.13c-.83-1.43-1.64-2.86-2.47-4.29-.25-.43-.47-.87-.75-1.27,0-.06,0-.1-.06-.14C206.18,117.64,206,117.29,205.76,116.93Zm8.44,2.94a2.2,2.2,0,0,0-2.27-2.19,2.2,2.2,0,0,0,.11,4.4A2.19,2.19,0,0,0,214.2,119.87Z" style="fill:#15b35e"/><path d="M223.75,127.64c.12,0,.24,0,.36,0s.19,0,.19.18c0,.45-.05.89-.09,1.34a13,13,0,0,1-.36,1.86,12.31,12.31,0,0,1-2.41,4.61,11.66,11.66,0,0,1-1.85,1.8,13.78,13.78,0,0,1-1.2.85c-.23.14-.22.13-.24.11-.2-.37-.55-.9-.78-1.27l-.26-.45-2.85-5a1.35,1.35,0,0,1,.27-.2,4.83,4.83,0,0,0,2.22-3.88h7Zm-6.36,6.29a.35.35,0,0,0,.14.13,2.25,2.25,0,0,0,1.74.37,2,2,0,0,0,1-.5,2.5,2.5,0,0,0,.33-.32,1.91,1.91,0,0,0,.44-1,1.33,1.33,0,0,0,0-.34,2.15,2.15,0,0,0-.09-.76l.16-.39a.4.4,0,0,0-.38-.56h-.41a.71.71,0,0,0-.39-.31c0-.38-.11-.54-.49-.54h-1.08a.42.42,0,0,0-.43.38,1.21,1.21,0,0,0-.7.47h-.06c-.44,0-.59.28-.4.66-.07,0-.09,0-.11.1a2.16,2.16,0,0,0-.15.94.3.3,0,0,0,0,.16,1.93,1.93,0,0,0,.61,1.33Z" style="fill:#15b35e"/><path d="M205.73,138.47c0,.06-.07,0-.14,0a14.1,14.1,0,0,1-1.74-1.24,10.21,10.21,0,0,1-1-1,12.67,12.67,0,0,1-1.8-2.45,12.21,12.21,0,0,1-1.46-4.35,10.34,10.34,0,0,1-.11-1.76c.48,0,1,0,1.46,0h7.54a3.52,3.52,0,0,0,1.76,2.93l-.46.83-1.51,2.6-1.79,3.13,0,0C206.17,137.59,206,138.07,205.73,138.47Zm-3.12-6.75a2.2,2.2,0,1,0,4.4-.08,2.2,2.2,0,0,0-4.4.08Z" style="fill:#15b35e"/><path d="M216.14,131.74a2.2,2.2,0,1,1,2,2.17A2.15,2.15,0,0,1,216.14,131.74Z" style="fill:#fec95a"/><g id="Group_476" data-name="Group 476"><circle id="Ellipse_38-8" data-name="Ellipse 38-8" cx="298" cy="127.07" r="26.17" style="fill:#141615;stroke:#000;stroke-miterlimit:10"/></g><path d="M312.05,121.73h-9.91l-3.06-9.43a1.14,1.14,0,0,0-2.16,0l-3.06,9.43-7.94,1.78,20.21,16.37,1.35.31a1.12,1.12,0,0,0,.28-1.16l-3.06-9.43,8-5.82A1.13,1.13,0,0,0,312.05,121.73Z" style="fill:#18bf62"/><path d="M284,121.73a1.13,1.13,0,0,0-.67,2l8,5.82L288.24,139A1.13,1.13,0,0,0,290,140.3l8-5.83,8,5.83a1.13,1.13,0,0,0,1.46-.11l-15-12.92a1,1,0,0,1-.28-1.08l1.66-4.46Z" style="fill:#11a859"/><path d="M298.16,130.05a.48.48,0,0,1-.49-.49v-4.92a.49.49,0,0,1,1,0v4.92A.48.48,0,0,1,298.16,130.05Z" style="fill:#fff"/><path d="M294.45,130.05a.62.62,0,0,1-.57-.39l-1.68-4.86a.49.49,0,0,1,.3-.62.5.5,0,0,1,.63.3l1.31,3.8,1.26-3.78a.48.48,0,0,1,.62-.31.49.49,0,0,1,.31.62L295,129.64a.59.59,0,0,1-.56.41Z" style="fill:#fff"/><path d="M301.81,124.15h-1.37a.47.47,0,0,0-.35.15.48.48,0,0,0-.14.34h0v4.92a.49.49,0,0,0,1,0v-1.65h.88a1.88,1.88,0,1,0,0-3.76Zm0,2.78h-.87c0-.31,0-.69,0-.9v-.9h.88a.9.9,0,1,1,0,1.8Z" style="fill:#fff"/><path d="M291.51,121.45a2.7,2.7,0,0,1-2.18-2.18A.3.3,0,0,0,289,119a.28.28,0,0,0-.28.24,2.72,2.72,0,0,1-2.18,2.18.3.3,0,0,0-.24.29.28.28,0,0,0,.24.28,2.73,2.73,0,0,1,2.18,2.18.28.28,0,0,0,.28.24.3.3,0,0,0,.29-.24,2.72,2.72,0,0,1,2.18-2.18.28.28,0,0,0,.24-.28A.3.3,0,0,0,291.51,121.45Z" style="fill:#fec95a"/><path d="M307.58,134.3a1.72,1.72,0,0,1-.61-1.6.31.31,0,0,0-.19-.33.3.3,0,0,0-.37.09,1.7,1.7,0,0,1-1.59.61.32.32,0,0,0-.34.19.31.31,0,0,0,.09.37,1.73,1.73,0,0,1,.62,1.6.31.31,0,0,0,.55.24,1.74,1.74,0,0,1,1.6-.62.3.3,0,0,0,.33-.18.31.31,0,0,0-.09-.37Z" style="fill:#fec95a"/><g id="ฝากเงิน-5" data-name="ฝากเงิน" style="isolation:isolate"><text transform="translate(21.69 171.14)" style="isolation:isolate;font-size:13px;fill:#fff;font-family:CordiaNew-Bold, Cordia New;font-weight:700">ชวนเพื่อน</text></g><g id="ฝากเงิน-6" data-name="ฝากเงิน" style="isolation:isolate"><text transform="translate(106.28 171.14)" style="isolation:isolate;font-size:13px;fill:#fff;font-family:CordiaNew-Bold, Cordia New;font-weight:700">ฝากประจำ</text></g><g id="ฝากเงิน-7" data-name="ฝากเงิน" style="isolation:isolate"><text transform="translate(190.83 171.14)" style="isolation:isolate;font-size:13px;fill:#fff;font-family:CordiaNew-Bold, Cordia New;font-weight:700">กงล้อทิเบต</text></g><g id="ฝากเงิน-8" data-name="ฝากเงิน" style="isolation:isolate"><text transform="translate(276.41 171.14)" style="isolation:isolate;font-size:13px;fill:#fff;font-family:CordiaNew-Bold, Cordia New;font-weight:700">สมาชิก VIP</text></g></g></g></svg>