<svg xmlns="http://www.w3.org/2000/svg" xmlns:xlink="http://www.w3.org/1999/xlink" viewBox="0 0 462.31 441.34"><defs><style>.cls-1{mask:url(#mask);filter:url(#luminosity-noclip-3);}.cls-14,.cls-2,.cls-4,.cls-8{mix-blend-mode:multiply;}.cls-2{fill:url(#linear-gradient);}.cls-3{mask:url(#mask-2);filter:url(#luminosity-noclip-4);}.cls-4{fill:url(#radial-gradient);}.cls-5{isolation:isolate;}.cls-6{fill:url(#linear-gradient-2);}.cls-7{mask:url(#mask-3);}.cls-8{fill:url(#linear-gradient-3);}.cls-10,.cls-11,.cls-18,.cls-9{fill:#fff;}.cls-13,.cls-9{opacity:0.35;}.cls-10,.cls-13,.cls-17,.cls-9{mix-blend-mode:overlay;}.cls-10{opacity:0.49;}.cls-12{fill:url(#linear-gradient-4);}.cls-14{fill:#ac6518;opacity:0.39;}.cls-15{fill:#f7eb64;}.cls-16{mask:url(#mask-4);}.cls-17{fill:url(#radial-gradient-2);}.cls-18{opacity:0.7;}.cls-19{fill:#f9ed64;}.cls-20{fill:#ad5915;}.cls-21{filter:url(#luminosity-noclip-2);}.cls-22{filter:url(#luminosity-noclip);}</style><filter id="luminosity-noclip" x="7.4" y="-16240.21" width="453.92" height="32766" filterUnits="userSpaceOnUse" color-interpolation-filters="sRGB"><feFlood flood-color="#fff" result="bg"/><feBlend in="SourceGraphic" in2="bg"/></filter><mask id="mask" x="7.4" y="-16240.21" width="453.92" height="32766" maskUnits="userSpaceOnUse"><g class="cls-22"/></mask><linearGradient id="linear-gradient" x1="7.4" y1="328.52" x2="461.32" y2="328.52" gradientUnits="userSpaceOnUse"><stop offset="0.25"/><stop offset="1" stop-color="#fff"/></linearGradient><filter id="luminosity-noclip-2" x="0.01" y="-16240.21" width="90.74" height="32766" filterUnits="userSpaceOnUse" color-interpolation-filters="sRGB"><feFlood flood-color="#fff" result="bg"/><feBlend in="SourceGraphic" in2="bg"/></filter><mask id="mask-2" x="0.01" y="-16240.21" width="90.74" height="32766" maskUnits="userSpaceOnUse"><g class="cls-21"/></mask><radialGradient id="radial-gradient" cx="45.38" cy="123.38" r="43.84" gradientUnits="userSpaceOnUse"><stop offset="0.09" stop-color="#fff"/><stop offset="0.17" stop-color="#f6f6f6"/><stop offset="0.3" stop-color="#dedede"/><stop offset="0.45" stop-color="#b6b6b6"/><stop offset="0.64" stop-color="#7f7f7f"/><stop offset="0.85" stop-color="#393939"/><stop offset="1"/></radialGradient><linearGradient id="linear-gradient-2" x1="225.33" y1="-23.32" x2="244.3" y2="438.56" gradientUnits="userSpaceOnUse"><stop offset="0" stop-color="#f3e036"/><stop offset="1" stop-color="#ca7c1d"/></linearGradient><filter id="luminosity-noclip-3" x="7.4" y="215.71" width="453.92" height="225.63" filterUnits="userSpaceOnUse" color-interpolation-filters="sRGB"><feFlood flood-color="#fff" result="bg"/><feBlend in="SourceGraphic" in2="bg"/></filter><mask id="mask-3" x="7.4" y="215.71" width="453.92" height="225.63" maskUnits="userSpaceOnUse"><g class="cls-1"><path class="cls-2" d="M234.37,431.44c-123.65,0-224.2-96.15-226.9-215.73,0,1.64-.07,3.29-.07,4.94,0,121.87,101.61,220.69,227,220.69s227-98.82,227-220.69c0-1.65,0-3.3-.06-4.94C458.55,335.29,358,431.44,234.37,431.44Z"/></g></mask><linearGradient id="linear-gradient-3" x1="7.4" y1="328.52" x2="461.32" y2="328.52" gradientUnits="userSpaceOnUse"><stop offset="0.25" stop-color="#f3e036"/><stop offset="1" stop-color="#d18921"/></linearGradient><linearGradient id="linear-gradient-4" x1="233.26" y1="101.02" x2="233.26" y2="424.54" gradientUnits="userSpaceOnUse"><stop offset="0" stop-color="#ca7c1d"/><stop offset="1" stop-color="#f3e036"/></linearGradient><filter id="luminosity-noclip-4" x="0.01" y="81.13" width="90.74" height="84.5" filterUnits="userSpaceOnUse" color-interpolation-filters="sRGB"><feFlood flood-color="#fff" result="bg"/><feBlend in="SourceGraphic" in2="bg"/></filter><mask id="mask-4" x="0.01" y="81.13" width="90.74" height="84.5" maskUnits="userSpaceOnUse"><g class="cls-3"><path class="cls-4" d="M45.39,81.13C20.33,81.13,0,100,0,123.39s20.32,42.24,45.38,42.24,45.36-18.93,45.36-42.24S70.43,81.13,45.39,81.13Z"/></g></mask><radialGradient id="radial-gradient-2" cx="45.38" cy="123.38" r="43.84" gradientUnits="userSpaceOnUse"><stop offset="0.09" stop-color="#fff"/><stop offset="1" stop-color="#fff"/></radialGradient></defs><title>logout</title><g class="cls-5"><g id="Layer_2" data-name="Layer 2"><g id="Layer_31" data-name="Layer 31"><g id="Layer_9" data-name="Layer 9"><path class="cls-6" d="M235.35,0C110,0,8.39,98.79,8.39,220.65S110,441.34,235.35,441.34s227-98.82,227-220.69S360.68,0,235.35,0Z"/><g class="cls-7"><path class="cls-8" d="M234.37,431.44c-123.65,0-224.2-96.15-226.9-215.73,0,1.64-.07,3.29-.07,4.94,0,121.87,101.61,220.69,227,220.69s227-98.82,227-220.69c0-1.65,0-3.3-.06-4.94C458.55,335.29,358,431.44,234.37,431.44Z"/></g><path class="cls-9" d="M235.35,0C110,0,8.39,98.79,8.39,220.65c0,2.7.12,5.33.23,8,57.8,50.41,137.4,81.58,225.26,81.58,89.41,0,170.24-32.27,228.28-84.26,0-1.79.15-3.52.15-5.32C462.31,98.79,360.68,0,235.35,0Z"/><path class="cls-10" d="M416.47,87.12C375,34.19,309.54,0,235.83,0,161.56,0,95.62,34.71,54.22,88.32c51.31,30.8,113.34,48.84,180.15,48.84C302.06,137.16,364.78,118.66,416.47,87.12Z"/><path class="cls-10" d="M235.35,12.63c123.16,0,223.33,95.42,226.78,214.34.08-2.09.18-4.19.18-6.32C462.31,98.79,360.68,0,235.35,0S8.4,98.79,8.4,220.65c0,2.13.11,4.23.17,6.32C12,108.05,112.19,12.63,235.35,12.63Z"/><path class="cls-11" d="M204.87,14.51c10.57-.81,21.45,3.21,16.18,7.8S180,47.5,164.47,34.77,192.45,15.46,204.87,14.51Z"/><path class="cls-11" d="M82.08,70.61C49,98.44,22.29,149.83,23,179.87s16.72-17.09,25-34.18,49.71-69.22,79.74-85S133.78,27.11,82.08,70.61Z"/><path class="cls-12" d="M233.27,29.63c-106.38,0-192.61,83.85-192.61,187.26s86.23,187.26,192.61,187.26,192.58-83.84,192.58-187.26S339.64,29.63,233.27,29.63Z"/><g class="cls-13"><path class="cls-11" d="M233,416.63c-112.14,0-203.38-88.82-203.38-198s91.24-198,203.38-198,203.37,88.82,203.37,198S345.09,416.63,233,416.63Zm0-378c-102.23,0-185.41,80.76-185.41,180s83.18,180,185.41,180,185.39-80.75,185.39-180S335.18,38.61,233,38.61Z"/></g><path class="cls-14" d="M233.27,29.63A194.51,194.51,0,0,0,90.75,91,194.86,194.86,0,0,1,221.8,40.9c106.35,0,192.57,83.82,192.57,187.25,0,48.51-18.95,92.7-50.08,126,37.88-34.2,61.56-83,61.56-137.22C425.85,113.48,339.64,29.63,233.27,29.63Z"/><path class="cls-14" d="M113.31,327.65c0-120.84,86.22-187.24,192.58-187.24A195.23,195.23,0,0,1,421.64,178C403.24,93.25,325.89,29.63,233.23,29.63c-106.36,0-192.58,83.85-192.58,187.26,0,61.2,30.18,115.51,76.83,149.68A184.23,184.23,0,0,1,113.31,327.65Z"/><path class="cls-15" d="M233.27,393.94c-104.51,0-189.51-81-192.43-181.9-.08,1.8-.18,3.57-.18,5.39,0,103.43,86.23,187.25,192.61,187.25s192.58-83.82,192.58-187.25c0-1.82-.08-3.59-.14-5.39C422.76,313,337.78,393.94,233.27,393.94Z"/><g class="cls-16"><path class="cls-17" d="M45.39,81.13C20.33,81.13,0,100,0,123.39s20.32,42.24,45.38,42.24,45.36-18.93,45.36-42.24S70.43,81.13,45.39,81.13Z"/></g><path class="cls-18" d="M4,179c12.18-13.67,48-55.6,48-55.6s29.9-56.12,30.63-57.7c.2-.45-38.22,52.77-38.22,52.77Z"/><path class="cls-11" d="M55.25,113.34c-11-8.63-9-32.88-9.11-39.75v6.58c0-1-.08-2.18-.08-2.43V73.59a76.82,76.82,0,0,1-.62,8.69s-3.23,24.35-9.07,29.37C23.23,123.18-9.84,121,2.84,121.25c42.84.93,42.84,42.73,43.22,56.44v-6.9c0,.5.08.91.08,1.15v5.75c.91-32.45.79-53,38.16-55.74C96.68,121,68.16,123.39,55.25,113.34Z"/><path class="cls-19" d="M299.21,322.88,264.35,221.47a46.93,46.93,0,0,0,19.83-38.33c0-26-27.08-52.33-53.05-52.33s-41,26.35-41,52.33a46.9,46.9,0,0,0,18.07,37L162.76,317.4s10.76,13,58.29,15.79v0h30v0A122.87,122.87,0,0,0,299.21,322.88Z"/><path class="cls-20" d="M289.09,317.4,254.23,216a47,47,0,1,0-56.16-1.32L162.76,317.4a122.79,122.79,0,0,0,48.17,10.31v0h30v0A122.87,122.87,0,0,0,289.09,317.4Z"/></g></g></g></g></svg>