<svg xmlns="http://www.w3.org/2000/svg" xmlns:xlink="http://www.w3.org/1999/xlink" viewBox="0 0 448.37 441.34"><defs><style>.cls-1{mask:url(#mask);filter:url(#luminosity-noclip-6);}.cls-10,.cls-16,.cls-2,.cls-4,.cls-6,.cls-8{mix-blend-mode:multiply;}.cls-2{fill:url(#linear-gradient);}.cls-3{mask:url(#mask-2);filter:url(#luminosity-noclip-7);}.cls-4{fill:url(#linear-gradient-2);}.cls-5{mask:url(#mask-3);filter:url(#luminosity-noclip-8);}.cls-6{fill:url(#linear-gradient-3);}.cls-7{mask:url(#mask-4);filter:url(#luminosity-noclip-9);}.cls-8{fill:url(#radial-gradient);}.cls-9{mask:url(#mask-5);filter:url(#luminosity-noclip-10);}.cls-10{fill:url(#radial-gradient-2);}.cls-11{isolation:isolate;}.cls-12{fill:#8b331f;}.cls-13{fill:url(#linear-gradient-4);}.cls-14,.cls-19{fill:#fbf4ab;}.cls-14,.cls-17{opacity:0.7;}.cls-14,.cls-17,.cls-24,.cls-35,.cls-38,.cls-40{mix-blend-mode:overlay;}.cls-15{fill:#faf9cc;opacity:0.8;}.cls-16{fill:#d2702b;}.cls-18{mask:url(#mask-6);}.cls-20{mask:url(#mask-7);}.cls-21{mask:url(#mask-8);}.cls-22{fill:url(#linear-gradient-5);}.cls-23{fill:#814a11;opacity:0.1;}.cls-24,.cls-38,.cls-40{fill:#ffffb9;}.cls-25,.cls-35{fill:#fff;}.cls-26{mask:url(#mask-9);}.cls-27{fill:url(#radial-gradient-3);}.cls-28{mask:url(#mask-10);}.cls-29{fill:url(#radial-gradient-4);}.cls-30{fill:url(#linear-gradient-6);}.cls-31{fill:url(#linear-gradient-7);}.cls-32{fill:url(#linear-gradient-8);}.cls-33{fill:url(#linear-gradient-9);}.cls-34{fill:url(#linear-gradient-10);}.cls-35{opacity:0.48;}.cls-36{fill:#aa360d;}.cls-37{fill:#c9761e;}.cls-38{opacity:0.45;}.cls-39{fill:#d59623;}.cls-40{opacity:0.57;}.cls-41{filter:url(#luminosity-noclip-5);}.cls-42{filter:url(#luminosity-noclip-4);}.cls-43{filter:url(#luminosity-noclip-3);}.cls-44{filter:url(#luminosity-noclip-2);}.cls-45{filter:url(#luminosity-noclip);}</style><filter id="luminosity-noclip" x="106.2" y="-15738.33" width="240.09" height="32766" filterUnits="userSpaceOnUse" color-interpolation-filters="sRGB"><feFlood flood-color="#fff" result="bg"/><feBlend in="SourceGraphic" in2="bg"/></filter><mask id="mask" x="106.2" y="-15738.33" width="240.09" height="32766" maskUnits="userSpaceOnUse"><g class="cls-45"/></mask><linearGradient id="linear-gradient" x1="144.86" y1="485.22" x2="279.65" y2="48.39" gradientUnits="userSpaceOnUse"><stop offset="0"/><stop offset="1" stop-color="#fff"/></linearGradient><filter id="luminosity-noclip-2" x="18.31" y="-15738.33" width="154.79" height="32766" filterUnits="userSpaceOnUse" color-interpolation-filters="sRGB"><feFlood flood-color="#fff" result="bg"/><feBlend in="SourceGraphic" in2="bg"/></filter><mask id="mask-2" x="18.31" y="-15738.33" width="154.79" height="32766" maskUnits="userSpaceOnUse"><g class="cls-44"/></mask><linearGradient id="linear-gradient-2" x1="2.68" y1="441.35" x2="137.46" y2="4.52" xlink:href="#linear-gradient"/><filter id="luminosity-noclip-3" x="275.67" y="-15738.33" width="129.05" height="32766" filterUnits="userSpaceOnUse" color-interpolation-filters="sRGB"><feFlood flood-color="#fff" result="bg"/><feBlend in="SourceGraphic" in2="bg"/></filter><mask id="mask-3" x="275.67" y="-15738.33" width="129.05" height="32766" maskUnits="userSpaceOnUse"><g class="cls-43"/></mask><linearGradient id="linear-gradient-3" x1="262.67" y1="521.57" x2="397.45" y2="84.74" xlink:href="#linear-gradient"/><filter id="luminosity-noclip-4" x="75.54" y="-15738.33" width="46.27" height="32766" filterUnits="userSpaceOnUse" color-interpolation-filters="sRGB"><feFlood flood-color="#fff" result="bg"/><feBlend in="SourceGraphic" in2="bg"/></filter><mask id="mask-4" x="75.54" y="-15738.33" width="46.27" height="32766" maskUnits="userSpaceOnUse"><g class="cls-42"/></mask><radialGradient id="radial-gradient" cx="3486.14" cy="6352.46" r="23.14" gradientTransform="translate(-6711.88 -2384.97) rotate(-41.28)" gradientUnits="userSpaceOnUse"><stop offset="0" stop-color="#fff"/><stop offset="0.64" stop-color="#a7a7a7"/><stop offset="1"/></radialGradient><filter id="luminosity-noclip-5" x="363.26" y="-15738.33" width="46.27" height="32766" filterUnits="userSpaceOnUse" color-interpolation-filters="sRGB"><feFlood flood-color="#fff" result="bg"/><feBlend in="SourceGraphic" in2="bg"/></filter><mask id="mask-5" x="363.26" y="-15738.33" width="46.27" height="32766" maskUnits="userSpaceOnUse"><g class="cls-41"/></mask><radialGradient id="radial-gradient-2" cx="-7233.72" cy="-2485.84" r="23.14" gradientTransform="matrix(0.7, 0.72, -0.72, 0.7, 3636.23, 7289.48)" xlink:href="#radial-gradient"/><linearGradient id="linear-gradient-4" x1="182.98" y1="45.03" x2="297.98" y2="535.11" gradientUnits="userSpaceOnUse"><stop offset="0" stop-color="#c77432"/><stop offset="0.13" stop-color="#c87833"/><stop offset="0.24" stop-color="#cd8237"/><stop offset="0.35" stop-color="#d5953e"/><stop offset="0.45" stop-color="#dfae47"/><stop offset="0.53" stop-color="#e9c650"/><stop offset="1" stop-color="#f3eb55"/></linearGradient><filter id="luminosity-noclip-6" x="106.2" y="13.52" width="240.09" height="414.26" filterUnits="userSpaceOnUse" color-interpolation-filters="sRGB"><feFlood flood-color="#fff" result="bg"/><feBlend in="SourceGraphic" in2="bg"/></filter><mask id="mask-6" x="106.2" y="13.52" width="240.09" height="414.26" maskUnits="userSpaceOnUse"><g class="cls-1"><path class="cls-2" d="M225,13.52l-2,0L106.2,391.69A212.23,212.23,0,0,0,225,427.78c1.65,0,3.29,0,4.93-.07L346.29,51.25A212.21,212.21,0,0,0,225,13.52Z"/></g></mask><filter id="luminosity-noclip-7" x="18.31" y="19.86" width="154.79" height="339.16" filterUnits="userSpaceOnUse" color-interpolation-filters="sRGB"><feFlood flood-color="#fff" result="bg"/><feBlend in="SourceGraphic" in2="bg"/></filter><mask id="mask-7" x="18.31" y="19.86" width="154.79" height="339.16" maskUnits="userSpaceOnUse"><g class="cls-3"><path class="cls-4" d="M68.29,359,173.1,19.86a211.3,211.3,0,0,0-97.73,55L18.31,260.73A205.2,205.2,0,0,0,68.29,359Z"/></g></mask><filter id="luminosity-noclip-8" x="275.67" y="81.29" width="129.05" height="340.45" filterUnits="userSpaceOnUse" color-interpolation-filters="sRGB"><feFlood flood-color="#fff" result="bg"/><feBlend in="SourceGraphic" in2="bg"/></filter><mask id="mask-8" x="275.67" y="81.29" width="129.05" height="340.45" maskUnits="userSpaceOnUse"><g class="cls-5"><path class="cls-6" d="M404.72,112.49a207.1,207.1,0,0,0-23.83-31.2L275.67,421.73a211.18,211.18,0,0,0,39.94-14C340.17,326.8,379.23,197.56,404.72,112.49Z"/></g></mask><linearGradient id="linear-gradient-5" x1="224.19" y1="103.33" x2="224.19" y2="423.77" gradientUnits="userSpaceOnUse"><stop offset="0.29" stop-color="#c77732"/><stop offset="1" stop-color="#dbb247"/></linearGradient><filter id="luminosity-noclip-9" x="75.54" y="65.96" width="46.27" height="46.27" filterUnits="userSpaceOnUse" color-interpolation-filters="sRGB"><feFlood flood-color="#fff" result="bg"/><feBlend in="SourceGraphic" in2="bg"/></filter><mask id="mask-9" x="75.54" y="65.96" width="46.27" height="46.27" maskUnits="userSpaceOnUse"><g class="cls-7"><path class="cls-8" d="M116.07,73.83a23.14,23.14,0,1,1-32.66-2.12A23.15,23.15,0,0,1,116.07,73.83Z"/></g></mask><radialGradient id="radial-gradient-3" cx="3486.14" cy="6352.46" r="23.14" gradientTransform="translate(-6711.88 -2384.97) rotate(-41.28)" gradientUnits="userSpaceOnUse"><stop offset="0" stop-color="#fff"/><stop offset="0.64" stop-color="#fff"/><stop offset="1" stop-color="#fff"/></radialGradient><filter id="luminosity-noclip-10" x="363.26" y="342.39" width="46.27" height="46.27" filterUnits="userSpaceOnUse" color-interpolation-filters="sRGB"><feFlood flood-color="#fff" result="bg"/><feBlend in="SourceGraphic" in2="bg"/></filter><mask id="mask-10" x="363.26" y="342.39" width="46.27" height="46.27" maskUnits="userSpaceOnUse"><g class="cls-9"><path class="cls-10" d="M402.5,382.13a23.14,23.14,0,1,1,.5-32.71A23.14,23.14,0,0,1,402.5,382.13Z"/></g></mask><radialGradient id="radial-gradient-4" cx="-7233.72" cy="-2485.84" r="23.14" gradientTransform="matrix(0.7, 0.72, -0.72, 0.7, 3636.23, 7289.48)" xlink:href="#radial-gradient-3"/><linearGradient id="linear-gradient-6" x1="228.59" y1="148.37" x2="206.86" y2="288.67" gradientUnits="userSpaceOnUse"><stop offset="0" stop-color="#f3eb55"/><stop offset="0.58" stop-color="#e9c650"/><stop offset="0.63" stop-color="#e2bb4a"/><stop offset="0.75" stop-color="#d6a83f"/><stop offset="0.87" stop-color="#cf9e39"/><stop offset="1" stop-color="#cd9a37"/></linearGradient><linearGradient id="linear-gradient-7" x1="225.97" y1="349.71" x2="225.97" y2="261.96" xlink:href="#linear-gradient-5"/><linearGradient id="linear-gradient-8" x1="237.59" y1="102.2" x2="231.65" y2="226.8" xlink:href="#linear-gradient-6"/><linearGradient id="linear-gradient-9" x1="287.38" y1="104.57" x2="281.45" y2="229.06" xlink:href="#linear-gradient-6"/><linearGradient id="linear-gradient-10" x1="170.4" y1="99" x2="164.47" y2="223.49" xlink:href="#linear-gradient-6"/></defs><title>promotion</title><g class="cls-11"><g id="Layer_2" data-name="Layer 2"><g id="Layer_31" data-name="Layer 31"><g id="Layer_9" data-name="Layer 9"><path class="cls-12" d="M224.19,441.29C100.57,441.29,0,342.31,0,220.65S100.57,0,224.19,0h.45l1.83,0,1.63,0,2.12,0c1.81,0,3.63.12,5.44.2l.46,0A224.79,224.79,0,0,1,403,87l9.22,11.9-.73.44a216.06,216.06,0,0,1,36.87,121.28v.79c-.23,58.85-23.67,114.08-66,155.58S283.87,441.29,224.19,441.29ZM224.14,27C115.48,27,27,113.88,27,220.65s88.45,193.62,197.16,193.62c108.31,0,196.74-86.54,197.14-192.89l0-.64a189.71,189.71,0,0,0-40-117l-6.82-8.83A197.9,197.9,0,0,0,234.4,27.28l-.55,0c-1.43-.07-2.87-.12-4.31-.15l-1.72,0-1.89,0-1.29,0h-.5Z"/><path class="cls-13" d="M434.86,220.65c0,114.39-94.32,207.13-210.67,207.13S13.52,335,13.52,220.65,107.84,13.52,224.19,13.52,434.86,106.25,434.86,220.65Z"/><path class="cls-14" d="M224.19,13.52c-116.35,0-210.67,92.73-210.67,207.13,0,2.51.1,5,.2,7.49,53.66,47.34,127.54,76.58,209.1,76.58,83,0,158-30.29,211.91-79.09,0-1.67.13-3.32.13-5C434.86,106.25,340.54,13.52,224.19,13.52Z"/><path class="cls-15" d="M224.2,25.38c114.32,0,207.31,89.56,210.51,201.2.06-2,.15-4,.15-5.93,0-114.4-94.32-207.13-210.66-207.13S13.52,106.25,13.52,220.65c0,2,.1,3.95.16,5.93C16.88,114.94,109.87,25.38,224.2,25.38Z"/><path class="cls-16" d="M224.19,419C109.34,419,16,328.63,13.64,216.26c0,1.47-.12,2.92-.12,4.39,0,114.39,94.32,207.13,210.67,207.13S434.86,335,434.86,220.65c0-1.47-.08-2.92-.11-4.39C432.37,328.63,339.05,419,224.19,419Z"/><g class="cls-17"><g class="cls-18"><path class="cls-19" d="M225,13.52l-2,0L106.2,391.69A212.23,212.23,0,0,0,225,427.78c1.65,0,3.29,0,4.93-.07L346.29,51.25A212.21,212.21,0,0,0,225,13.52Z"/></g><g class="cls-20"><path class="cls-19" d="M68.29,359,173.1,19.86a211.3,211.3,0,0,0-97.73,55L18.31,260.73A205.2,205.2,0,0,0,68.29,359Z"/></g><g class="cls-21"><path class="cls-19" d="M404.72,112.49a207.1,207.1,0,0,0-23.83-31.2L275.67,421.73a211.18,211.18,0,0,0,39.94-14C340.17,326.8,379.23,197.56,404.72,112.49Z"/></g></g><path class="cls-14" d="M392.32,95.3A212.83,212.83,0,0,0,56.05,96.43c47.63,28.92,105.19,45.85,167.23,45.85C286.1,142.28,344.35,124.9,392.32,95.3Z"/><path class="cls-22" d="M396.07,220.65c0,93.33-76.95,169-171.88,169S52.31,314,52.31,220.65s77-169,171.88-169S396.07,127.32,396.07,220.65Z"/><path class="cls-23" d="M117.14,320.61c0-93.33,77-169,171.88-169a173,173,0,0,1,103.3,33.93c-16.43-76.49-85.47-133.9-168.16-133.9-94.92,0-171.87,75.67-171.87,169,0,55.21,26.93,104.22,68.57,135.07A166.58,166.58,0,0,1,117.14,320.61Z"/><path class="cls-24" d="M224.19,380.4c-93.26,0-169.13-73-171.75-164.14,0,1.62-.13,3.23-.13,4.87,0,93.34,77,169,171.88,169s171.88-75.65,171.88-169c0-1.64-.07-3.25-.12-4.87C393.32,307.35,317.47,380.4,224.19,380.4Z"/><polygon class="cls-12" points="214.11 408.4 206.18 400.68 217.13 399.09 222.03 389.18 226.92 399.09 237.88 400.68 229.95 408.4 231.82 419.31 222.03 414.16 212.24 419.31 214.11 408.4"/><polygon class="cls-12" points="174.69 408.83 165.68 410.06 170.18 402.17 166.21 393.97 175.12 395.8 181.69 389.5 182.69 398.55 190.72 402.85 182.42 406.6 180.81 415.55 174.69 408.83"/><polygon class="cls-12" points="261.63 406.6 253.35 402.85 261.36 398.56 262.37 389.5 268.93 395.81 277.84 393.97 273.88 402.17 278.38 410.07 269.37 408.83 263.24 415.55 261.63 406.6"/><polygon class="cls-25" points="94.26 87.44 82.88 31.68 97.93 84.21 175.84 63.5 100.39 87.84 116.81 162.52 94.72 92.08 15.57 105.63 94.26 87.44"/><polygon class="cls-25" points="96.48 85.19 117.11 53.99 99.68 85.4 145.53 111.99 99.14 88.22 72.06 130.57 94.53 87.56 51.45 57.07 96.48 85.19"/><g class="cls-26"><path class="cls-27" d="M116.07,73.83a23.14,23.14,0,1,1-32.66-2.12A23.15,23.15,0,0,1,116.07,73.83Z"/></g><polygon class="cls-25" points="387.83 361.02 442.96 346.9 391.23 364.53 415.77 441.33 387.73 367.17 313.96 387.26 383.21 361.72 365.77 283.33 387.83 361.02"/><polygon class="cls-25" points="390.18 363.13 422.37 382.2 390.13 366.34 365.84 413.44 387.28 365.94 343.65 340.99 387.71 361.31 416.04 316.78 390.18 363.13"/><g class="cls-28"><path class="cls-29" d="M402.5,382.13a23.14,23.14,0,1,1,.5-32.71A23.14,23.14,0,0,1,402.5,382.13Z"/></g><path class="cls-12" d="M353.18,167c-1.56-1.16-2.54-1.89-15.93-2.39,1.93-6.63.38-14.21-4.15-20.3-5.21-7-13.51-10.74-21.54-9.68a7.82,7.82,0,0,1-1.58.07,20.65,20.65,0,0,1-.9-1.87c-1.45-3.27-3.87-8.73-11.27-11a10.73,10.73,0,0,0-3.18-.46c-3.28,0-7.78,1.21-16,7.13,12.77-22.75,17.49-35.36,14.88-42.8-4.64-13.23-21.41-19.25-35-19.25A34.56,34.56,0,0,0,247.9,68a9.18,9.18,0,0,1-2.78.34c-3.68,0-8.77-1.19-13.69-2.33-5.86-1.37-11.92-2.79-17.49-2.79a23.17,23.17,0,0,0-8.31,1.37c-15.77,6-23.16,17.1-21.48,31.83-6-6.29-12.53-10-19.8-10a20.74,20.74,0,0,0-3.59.32c-17.9,3.24-21.92,12.35-25.47,20.39-1.81,4.09-3.51,8-7.32,11.45-11.87,10.86-17.25,21.26-16,30.91.74,5.66,3.67,10.76,8.75,15.23l-11,.11-11,.1a6.93,6.93,0,0,0-6.48,4.72c-1.84,5-.55,25.41.39,37.11,2.61,32.82,5.09,34.91,7,36.57,1.66,1.41,3.39,2,6.84,2.41,4,28.46,9.63,64.59,14.73,84.88l0,.12c.11.42.22.84.32,1.25l0,.11c.12.42.23.84.34,1.25l0,.1c.11.39.21.78.3,1.1l.06.21.33,1.15,0,.12.32,1.06,0,.15c.11.34.21.68.33,1.06l0,.09c.1.32.21.63.31.95l.06.17c.1.31.21.61.3.89l.06.16.3.83.07.19.33.83.06.15c.1.26.21.5.29.69l.1.25.31.65.1.22c.1.22.2.42.32.64l.12.23c.11.22.23.42.34.61l.13.22c.13.22.26.41.39.61l.14.21.41.56.28.34c.13.16.27.31.41.46l.38.39a9.29,9.29,0,0,0,1.06.86c2.72,1.88,6.09,4.22,57.43,4.58a9.29,9.29,0,0,0,7.49,4.06l5.55.17,22.33,1c4.54.23,8.06.37,11.43.44,1.43,0,2.85.06,4.28.06h1.59l.76,0a31.15,31.15,0,0,0,6.51-.68,10.83,10.83,0,0,0,7.3-5.55c22.13-.43,55.1-1.32,60.44-2.84,4.78-1.37,7.37-5.05,9.88-14.06,3-10.69,6.24-30.25,9.95-59.82,1.21-9.6,2.44-20.1,3.67-31.3a37.3,37.3,0,0,0,3.95-.18c4.78-.6,6-5.14,6.77-8.15,1.91-7.28,4.62-22.86,6.29-36.25C358.79,173.51,356.62,169.58,353.18,167Z"/><path class="cls-30" d="M348.35,172.23c-4.88-3.64-243.88-.82-250.52-.82-2.93,0,1.73,64,5.18,67,.5.43,1,.88,8.33,1.24,5.7,41,14.93,100.22,21.16,104.53,1.37.95,5,3.48,67.95,3.48,44.38,0,105.86-1.48,111.67-3.14,2.55-.73,6.82-2,15.17-68.44,1.63-13,3.1-26,4.27-36.86,5.26-.1,8.44-.18,9-.26C342.68,238.64,353.22,175.86,348.35,172.23Z"/><path class="cls-24" d="M127.13,252.79c-7.29-.36-7.83-.81-8.33-1.24-3.45-2.91-14.3-49.81,7.77-56.14,5.48-1.57,170.05-12.89,222.91-11.17.34-6.45.09-11.1-1.13-12-4.88-3.64-243.88-.82-250.52-.82-2.93,0,1.73,64,5.18,67,.5.43,1,.88,8.33,1.24,5.7,41,14.93,100.22,21.16,104.53.69.48,2,1.35,11,2.11C137.94,326.32,131.5,284.17,127.13,252.79Z"/><path class="cls-31" d="M111.4,240c5.7,40.93,14.9,99.82,21.1,104.11,1.37.95,5,3.48,67.95,3.48,44.38,0,105.86-1.48,111.67-3.14,2.55-.73,6.82-2,15.17-68.44,1.63-13,3.1-26,4.27-36.86,5.26-.1,8.44-.18,9-.26C340.54,238.91,137,237.12,111.4,240Z"/><path class="cls-16" d="M111.4,240c.78,5.59,1.62,11.52,2.51,17.6,35.93-4.63,96-5.75,145.07,7.64,20,5.45,44.53,21.85,64.18,40.73,1.25-8.12,2.63-18,4.13-30,1.63-13,3.1-26,4.27-36.86,5.26-.1,8.44-.18,9-.26C340.54,238.91,137,237.12,111.4,240Z"/><path class="cls-16" d="M271.93,170.37l-6.81,64.06v3.94h9L263.26,347.61s-22.78,3.45-24.55,3.57-3-112.73-3-113.66,3.31-62.5,5.06-63S271.93,170.37,271.93,170.37Z"/><path class="cls-32" d="M231.94,192.52c15.94-28.85,59.14-91.45,54.5-104.67S259.38,70.7,249,74.12s-31.05-7.66-42-3.5-22.71,12.81-15.15,34.05,28.87,90.22,28.87,90.22Z"/><path class="cls-33" d="M248.35,183.06c29.59-3,78.52-9.59,81.68-20.15s-6.8-23.38-18.56-21.82-6.47-10-16.53-13-46.05,35.59-54.42,44.09S248.35,183.06,248.35,183.06Z"/><path class="cls-12" d="M277.1,160.74c-2.09-1.1-18.63,2.17-28.48,9.87a22.61,22.61,0,0,0-7.85,12.56C246.52,179.45,279.19,161.84,277.1,160.74Z"/><path class="cls-34" d="M213.26,170.62c-9.93-24.75-29.1-81.69-52.29-77.5s-16.71,18.47-29.56,30.23-24.28,28.81,1,42,79.59,20.73,83.45,22S213.26,170.62,213.26,170.62Z"/><path class="cls-12" d="M231.4,188.76c5.1-17-1.31-19.74,2.14-62.7,0,0-5.8,29.72-9,44.39C222.41,180.19,231.4,188.76,231.4,188.76Z"/><path class="cls-12" d="M212.49,176.53C208.71,170.82,169,134,169,134s14.07,21.69,21.87,31.45C196,171.9,212.49,176.53,212.49,176.53Z"/><path class="cls-35" d="M252.75,79.5l-.1.08c-14.76-2.39-35.35-3.32-47.54-1.57,0,0-13,9.26-2.41,24.34,6.58,9.39,25.44,4.69,41.81-2,8.33,5,27.6,2,31.57-6C280.45,85.61,270.42,77.68,252.75,79.5Z"/><path class="cls-35" d="M149.47,106.59s-20.07,23.64-22.87,31.74l-.21.06s-5.89,12.5,4.51,16,24-21.24,28.25-25.5l.09-.09a32,32,0,0,0,7.43-9.65C175.35,101.11,165.76,94.84,149.47,106.59Z"/><path class="cls-35" d="M304,146.88l-.4.25c-3.05-5.48-8.21-11.75-10.85-13.36,0,0-12,7.31-11.92,10.19,0,1.89-4.91,4.46,1.9,7.4-4,3.64,4.86,10.34,7.22,13.61,4.84,6.69,21.23,2.26,32.05-3.1S319.92,149.66,304,146.88Z"/><path class="cls-12" d="M253.06,229.08a4.42,4.42,0,0,0-.35-.47l-.12-.13a1.9,1.9,0,0,0-.22-.21,3.59,3.59,0,0,0-.9-.59,3.68,3.68,0,0,0-1.05-.3,3,3,0,0,0-.45,0h-.41l-2.81.06-5.6.13c-15,.33-29.9.57-44.85.42l-2.8,0h-.35a2.27,2.27,0,0,0-.45,0,3,3,0,0,0-.86.24,3.14,3.14,0,0,0-1.33,1.17,3,3,0,0,0-.37.81,3.55,3.55,0,0,0-.09.47l0,.18,0,.21-.06,1.4-.13,2.8-.6,11.21c-.38,7.46-.75,14.93-1.05,22.41-.53,14.94-.65,29.92,0,44.88.3,7.49.63,15,1.24,22.44.35,3.73.58,7.47,1.29,11.17a13.61,13.61,0,0,0,.78,2.75,2.83,2.83,0,0,0,2.47,1.52l5.61.16,22.41,1c3.74.19,7.48.35,11.23.43,1.88,0,3.76.07,5.65.05a29.35,29.35,0,0,0,5.85-.52,4.43,4.43,0,0,0,3-2.25,13.61,13.61,0,0,0,1-3c.43-1.91.69-3.78.94-5.66.49-3.75.83-7.48,1.13-11.23.6-7.47.94-14.95,1.33-22.42.66-15,.95-29.91,1.23-44.86.16-7.48.23-15,.29-22.43l0-5.61v-4.21A3.73,3.73,0,0,0,253.06,229.08Zm-10.61,118c-1.11.19-4.07.5-11.77.5-10.09,0-23.16-.49-31-.79l-4.27-.16c-2.14-9.6-1.16-72.56.05-113.19h51.92C245.33,324,243.36,343.29,242.45,347.06Z"/><path class="cls-36" d="M247.21,233.62c-4.26.24-8.52.38-12.78.56s-8.65.28-13,.42q-13,.32-26,.45l1.63-1.58c-.21,9.43-.36,18.86-.74,28.29l-1.19,28.29c-.37,9.43-.52,18.87-.39,28.3,0,4.72.16,9.43.4,14.14.12,2.35.26,4.7.44,7a51.25,51.25,0,0,0,.87,6.85l-1-.86,23.52.28h11.72c1.95,0,3.89-.05,5.83-.13a50.36,50.36,0,0,0,5.59-.46l-1.5,1.41a32.52,32.52,0,0,0,.47-3.29c.13-1.16.23-2.32.33-3.49.18-2.34.33-4.7.46-7,.28-4.72.55-9.44.77-14.17l1.41-28.39c.5-9.46.87-18.93,1.44-28.4S246.55,243,247.21,233.62Zm.39-.19c.23,9.49.31,19,.29,28.46s-.15,19-.29,28.47-.46,19-.87,28.46c-.24,4.74-.48,9.48-.83,14.23-.18,2.37-.37,4.75-.61,7.14-.12,1.19-.25,2.38-.4,3.58a34.9,34.9,0,0,1-.62,3.73l-.29,1.23-1.2.17a51.17,51.17,0,0,1-6.14.41c-2,0-4,0-5.93,0-4,0-7.87-.17-11.8-.33s-7.85-.34-11.77-.56l-11.74-.73-.9,0-.14-.8a56.73,56.73,0,0,1-.58-7.23c-.09-2.37-.12-4.73-.14-7.1l0-14.17c0-9.45,0-18.89-.17-28.33s-.27-18.89-.26-28.34.35-18.88.7-28.32l.06-1.59,1.56,0q13,.13,26,.44c4.33.14,8.66.23,13,.42s8.66.32,13,.57l.19,0Z"/><path class="cls-37" d="M249.89,231c-.81,35.43-2.82,115.79-5.65,118s-45.83.06-50.27,0-.82-118-.82-118Z"/><path class="cls-38" d="M208.8,349c-4.44-.06-.83-118-.83-118H193.15s-3.62,117.92.82,118c3.44.05,30,1.33,43.1.9C224.65,349.65,211.18,349,208.8,349Z"/><path class="cls-12" d="M253.56,172.76a3.59,3.59,0,0,0-.44-1.39,3.17,3.17,0,0,0-.4-.56,2.92,2.92,0,0,0-.55-.52,3.51,3.51,0,0,0-1.3-.6l-.4-.07h-6.89q-4.05,0-8.09-.05-8.1-.12-16.18-.44c-5.39-.22-10.77-.56-16.16-.91l-8.08-.51-.5,0h-.64a4,4,0,0,0-1.5.35c-.12.07-.23.12-.35.2l-.38.25-.09.08-.05,0-.13.11c-.09.1-.19.19-.28.3a3.79,3.79,0,0,0-.76,1.41,4.6,4.6,0,0,0-.15.77c0,.34,0,.42,0,.62l0,1c0,.67,0,1.35,0,2Q190,191,191,207.18c.65,10.78,1.44,21.56,1.51,32.34a2.62,2.62,0,0,0,.68,2,4.23,4.23,0,0,0,1.9.93,25.45,25.45,0,0,0,4.05.56c2.7.23,5.4.28,8.1.41,5.4.21,10.8.43,16.21.55s10.81.21,16.21.11c2.7,0,5.4-.09,8.1-.18a5.24,5.24,0,0,0,1.54-.22,4.58,4.58,0,0,0,1.58-.93,4.33,4.33,0,0,0,1.06-1.48,4,4,0,0,0,.29-.91,3,3,0,0,0,.06-.44v-.12a1.69,1.69,0,0,0,0-.3v-.08l-.11-4c-.27-10.72-.3-21.47,0-32.22.17-5.37.34-10.75.6-16.12l.41-8.06.23-4,.06-1,0-.5A4.07,4.07,0,0,0,253.56,172.76Zm-56,65c.18-10-1.4-53.12-1.11-63.85l50.92,1.47c-2.92,31.08-1.43,54.71-1.76,61.85-6.2.23-24.06.87-36.68.87C202.28,238.08,199.1,237.9,197.59,237.74Z"/><path class="cls-36" d="M247.18,175.56c-4.18.21-8.36.28-12.54.39s-8.49.09-12.74.1-8.49,0-12.74-.14-8.49-.17-12.73-.33l1.74-1.64c-.16,5.23-.26,10.58-.37,15.89s-.22,10.65-.17,16,.18,10.65.4,16,.57,10.63.69,16l-1-1.15c3.88.19,7.91,0,11.89-.06l12-.4,24-1-2,1.94c.1-5,0-10.22,0-15.36s.16-10.36.44-15.53.66-10.34,1.15-15.49c.24-2.57.52-5.14.87-7.71S246.77,178,247.18,175.56Zm.41-.37-.19,7.93-.13,7.73c-.08,5.15,0,10.3,0,15.44s.12,10.28.25,15.43l.17,7.73c.07,2.59.11,5.14,0,7.85l-.08,1.86-1.88.08c-4,.16-8,.25-12,.31l-12,.15c-4,.05-8,0-12.05-.1a121.4,121.4,0,0,1-12.12-.73l-1.07-.13.05-1c.14-2.62.17-5.29.22-7.94s.07-5.32,0-8c0-5.32-.16-10.64-.37-16s-.63-10.64-.93-16-.67-10.62-.63-16v-1.68l1.73,0q6.36.13,12.73.41c4.24.14,8.48.39,12.72.6s8.48.51,12.72.82,8.47.67,12.7,1.14Z"/><path class="cls-39" d="M250.05,173c-3.72,39-2.1,66.51-2.1,66.51s-52.79,2.19-52.79,0c0-5-1-68.11-1-68.11Z"/><path class="cls-40" d="M214,189.34c7.76-7.66,35-3.59,35-3.59q.44-6.12,1.06-12.73l-55.92-1.61s1,63.16,1,68.11c0,.65,4.6.91,11.09,1C206,220.76,204,199.18,214,189.34Z"/><path class="cls-25" d="M156.91,107.63c-9,6.23-8.51,17,0,11.47S163,103.43,156.91,107.63Z"/><path class="cls-25" d="M141.59,128.85c-5,5.11-13.78,12.69-9.75,19.66s14.39-5.41,17.18-13S147.09,123.17,141.59,128.85Z"/><path class="cls-25" d="M228.88,83.34c-14.69-.13-28.78,7.89-23.82,12.38s30.07-1.86,45-1.7S262.61,83.65,228.88,83.34Z"/><path class="cls-25" d="M242.67,175.91c-9.6-6.92-40.4-1.86-42.49,2.09s-4.88,49.23-2.09,38.78-.93-30.42,20.43-33.21S244.58,177.28,242.67,175.91Z"/><path class="cls-25" d="M124.73,174.52c-16.27-.7-26.49-.48-23,20.89s.26-2.4,11-6.65,57.92-4.95,47.94-9.6S124.73,174.52,124.73,174.52Z"/></g></g></g></g></svg>