<svg xmlns="http://www.w3.org/2000/svg" xmlns:xlink="http://www.w3.org/1999/xlink" viewBox="0 0 465.1 441.33"><defs><style>.cls-1{mask:url(#mask);filter:url(#luminosity-noclip-3);}.cls-14,.cls-2,.cls-4,.cls-8{mix-blend-mode:multiply;}.cls-2{fill:url(#linear-gradient);}.cls-3{mask:url(#mask-2);filter:url(#luminosity-noclip-4);}.cls-4{fill:url(#radial-gradient);}.cls-5{isolation:isolate;}.cls-6{fill:url(#linear-gradient-2);}.cls-7{mask:url(#mask-3);}.cls-8{fill:url(#linear-gradient-3);}.cls-10,.cls-11,.cls-18,.cls-29,.cls-30,.cls-37,.cls-9{fill:#fff;}.cls-13,.cls-9{opacity:0.35;}.cls-10,.cls-13,.cls-17,.cls-29,.cls-30,.cls-34,.cls-37,.cls-38,.cls-9{mix-blend-mode:overlay;}.cls-10,.cls-33{opacity:0.49;}.cls-12{fill:url(#linear-gradient-4);}.cls-14{fill:#ac6518;opacity:0.39;}.cls-15{fill:#f7eb64;}.cls-16{mask:url(#mask-4);}.cls-17{fill:url(#radial-gradient-2);}.cls-18{opacity:0.7;}.cls-19{fill:url(#linear-gradient-5);}.cls-20,.cls-33{fill:#b06518;}.cls-21{fill:#9b0404;}.cls-22{fill:url(#radial-gradient-3);}.cls-23{fill:url(#radial-gradient-4);}.cls-24{fill:url(#radial-gradient-5);}.cls-25{fill:#aa5900;}.cls-26{fill:url(#linear-gradient-6);}.cls-27{fill:#7c0000;}.cls-28{fill:#bc0000;}.cls-30{opacity:0.76;}.cls-31{opacity:0.31;}.cls-32{fill:url(#linear-gradient-7);}.cls-35,.cls-36,.cls-38{fill:#f3eff9;}.cls-35{opacity:0.55;}.cls-37{opacity:0.48;}.cls-39{filter:url(#luminosity-noclip-2);}.cls-40{filter:url(#luminosity-noclip);}</style><filter id="luminosity-noclip" x="10.19" y="-15133.44" width="453.92" height="32766" filterUnits="userSpaceOnUse" color-interpolation-filters="sRGB"><feFlood flood-color="#fff" result="bg"/><feBlend in="SourceGraphic" in2="bg"/></filter><mask id="mask" x="10.19" y="-15133.44" width="453.92" height="32766" maskUnits="userSpaceOnUse"><g class="cls-40"/></mask><linearGradient id="linear-gradient" x1="10.19" y1="328.52" x2="464.11" y2="328.52" gradientUnits="userSpaceOnUse"><stop offset="0.25"/><stop offset="1" stop-color="#fff"/></linearGradient><filter id="luminosity-noclip-2" x="0.01" y="-15133.44" width="90.74" height="32766" filterUnits="userSpaceOnUse" color-interpolation-filters="sRGB"><feFlood flood-color="#fff" result="bg"/><feBlend in="SourceGraphic" in2="bg"/></filter><mask id="mask-2" x="0.01" y="-15133.44" width="90.74" height="32766" maskUnits="userSpaceOnUse"><g class="cls-39"/></mask><radialGradient id="radial-gradient" cx="45.38" cy="123.38" r="43.84" gradientUnits="userSpaceOnUse"><stop offset="0.09" stop-color="#fff"/><stop offset="0.17" stop-color="#f6f6f6"/><stop offset="0.3" stop-color="#dedede"/><stop offset="0.45" stop-color="#b6b6b6"/><stop offset="0.64" stop-color="#7f7f7f"/><stop offset="0.85" stop-color="#393939"/><stop offset="1"/></radialGradient><linearGradient id="linear-gradient-2" x1="228.12" y1="-23.32" x2="247.09" y2="438.56" gradientUnits="userSpaceOnUse"><stop offset="0" stop-color="#f3e036"/><stop offset="1" stop-color="#ca7c1d"/></linearGradient><filter id="luminosity-noclip-3" x="10.19" y="215.71" width="453.92" height="225.63" filterUnits="userSpaceOnUse" color-interpolation-filters="sRGB"><feFlood flood-color="#fff" result="bg"/><feBlend in="SourceGraphic" in2="bg"/></filter><mask id="mask-3" x="10.19" y="215.71" width="453.92" height="225.63" maskUnits="userSpaceOnUse"><g class="cls-1"><path class="cls-2" d="M237.16,431.44c-123.65,0-224.2-96.15-226.9-215.73,0,1.64-.07,3.29-.07,4.94,0,121.87,101.61,220.68,227,220.68s227-98.81,227-220.68c0-1.65,0-3.3-.06-4.94C461.34,335.29,360.79,431.44,237.16,431.44Z"/></g></mask><linearGradient id="linear-gradient-3" x1="10.19" y1="328.52" x2="464.11" y2="328.52" gradientUnits="userSpaceOnUse"><stop offset="0.25" stop-color="#f3e036"/><stop offset="1" stop-color="#d18921"/></linearGradient><linearGradient id="linear-gradient-4" x1="237.64" y1="101.02" x2="237.64" y2="424.54" gradientUnits="userSpaceOnUse"><stop offset="0" stop-color="#ca7c1d"/><stop offset="1" stop-color="#f3e036"/></linearGradient><filter id="luminosity-noclip-4" x="0.01" y="81.13" width="90.74" height="84.5" filterUnits="userSpaceOnUse" color-interpolation-filters="sRGB"><feFlood flood-color="#fff" result="bg"/><feBlend in="SourceGraphic" in2="bg"/></filter><mask id="mask-4" x="0.01" y="81.13" width="90.74" height="84.5" maskUnits="userSpaceOnUse"><g class="cls-3"><path class="cls-4" d="M45.39,81.13C20.33,81.13,0,100,0,123.39s20.32,42.24,45.38,42.24,45.36-18.93,45.36-42.24S70.43,81.13,45.39,81.13Z"/></g></mask><radialGradient id="radial-gradient-2" cx="45.38" cy="123.38" r="43.84" gradientUnits="userSpaceOnUse"><stop offset="0.09" stop-color="#fff"/><stop offset="1" stop-color="#fff"/></radialGradient><linearGradient id="linear-gradient-5" x1="153.92" y1="93.12" x2="353.78" y2="403.61" gradientUnits="userSpaceOnUse"><stop offset="0" stop-color="#f7e436"/><stop offset="1" stop-color="#ce7c1d"/></linearGradient><radialGradient id="radial-gradient-3" cx="234.07" cy="222.31" r="206.77" gradientUnits="userSpaceOnUse"><stop offset="0" stop-color="#f7e436"/><stop offset="1" stop-color="#dfa727"/></radialGradient><radialGradient id="radial-gradient-4" cx="234.07" cy="222.31" r="206.77" xlink:href="#radial-gradient-3"/><radialGradient id="radial-gradient-5" cx="234.07" cy="222.31" r="206.77" xlink:href="#radial-gradient-3"/><linearGradient id="linear-gradient-6" x1="237.85" y1="181.74" x2="237.85" y2="254.33" gradientUnits="userSpaceOnUse"><stop offset="0" stop-color="#f7ed43"/><stop offset="0.58" stop-color="#f7c843"/><stop offset="0.63" stop-color="#f1bd3c"/><stop offset="0.75" stop-color="#e8aa31"/><stop offset="0.87" stop-color="#e2a02a"/><stop offset="1" stop-color="#e09c28"/></linearGradient><linearGradient id="linear-gradient-7" x1="-34.5" y1="82.96" x2="398.85" y2="306.62" xlink:href="#linear-gradient-5"/></defs><title>wheel</title><g class="cls-5"><g id="Layer_2" data-name="Layer 2"><g id="Layer_31" data-name="Layer 31"><g id="Layer_9" data-name="Layer 9"><path class="cls-6" d="M238.14,0c-125.35,0-227,98.79-227,220.65s101.61,220.68,227,220.68,227-98.81,227-220.68S363.47,0,238.14,0Z"/><g class="cls-7"><path class="cls-8" d="M237.16,431.44c-123.65,0-224.2-96.15-226.9-215.73,0,1.64-.07,3.29-.07,4.94,0,121.87,101.61,220.68,227,220.68s227-98.81,227-220.68c0-1.65,0-3.3-.06-4.94C461.34,335.29,360.79,431.44,237.16,431.44Z"/></g><path class="cls-9" d="M238.14,0c-125.35,0-227,98.79-227,220.65,0,2.7.11,5.33.23,8,57.8,50.41,137.4,81.58,225.26,81.58C326.07,310.23,406.91,278,465,226c0-1.79.15-3.52.15-5.32C465.1,98.79,363.47,0,238.14,0Z"/><path class="cls-10" d="M419.26,87.12C377.81,34.19,312.33,0,238.62,0,164.35,0,98.41,34.71,57,88.32c51.31,30.8,113.34,48.84,180.15,48.84C304.85,137.16,367.57,118.66,419.26,87.12Z"/><path class="cls-10" d="M238.14,12.63c123.16,0,223.33,95.42,226.78,214.34.07-2.09.18-4.19.18-6.32C465.1,98.79,363.47,0,238.14,0S11.19,98.79,11.19,220.65c0,2.13.1,4.23.17,6.32C14.81,108.05,115,12.63,238.14,12.63Z"/><path class="cls-11" d="M207.66,14.51c10.57-.81,21.45,3.21,16.18,7.8s-41,25.19-56.58,12.46S195.24,15.46,207.66,14.51Z"/><path class="cls-11" d="M84.87,70.61C51.8,98.44,25.08,149.83,25.75,179.87s16.72-17.09,25-34.18,49.71-69.22,79.74-85S136.57,27.11,84.87,70.61Z"/><path class="cls-12" d="M237.66,29.63c-106.38,0-192.61,83.85-192.61,187.26s86.23,187.26,192.61,187.26,192.58-83.84,192.58-187.26S344,29.63,237.66,29.63Z"/><g class="cls-13"><path class="cls-11" d="M237.65,416.63c-112.14,0-203.38-88.82-203.38-198s91.24-198,203.38-198S441,109.46,441,218.63,349.78,416.63,237.65,416.63Zm0-378c-102.23,0-185.41,80.76-185.41,180s83.18,180,185.41,180S423,317.9,423,218.63,339.88,38.61,237.65,38.61Z"/></g><path class="cls-14" d="M212.61,29.63A194.51,194.51,0,0,0,70.1,91,194.84,194.84,0,0,1,201.15,40.9c106.34,0,192.57,83.82,192.57,187.25,0,48.51-19,92.7-50.08,126,37.87-34.2,61.55-83,61.55-137.22C405.19,113.48,319,29.63,212.61,29.63Z"/><path class="cls-15" d="M237.66,393.94c-104.51,0-189.51-81-192.43-181.9-.08,1.8-.18,3.57-.18,5.39,0,103.43,86.23,187.25,192.61,187.25s192.58-83.82,192.58-187.25c0-1.82-.08-3.59-.14-5.39C427.15,313,342.17,393.94,237.66,393.94Z"/><g class="cls-16"><path class="cls-17" d="M45.39,81.13C20.33,81.13,0,100,0,123.39s20.32,42.24,45.38,42.24,45.36-18.93,45.36-42.24S70.43,81.13,45.39,81.13Z"/></g><path class="cls-18" d="M4,179c12.18-13.67,48-55.6,48-55.6s29.9-56.12,30.63-57.7c.2-.45-38.22,52.77-38.22,52.77Z"/><path class="cls-11" d="M55.25,113.34c-11-8.63-9-32.88-9.11-39.75v6.58c0-1-.08-2.18-.08-2.43V73.59a76.82,76.82,0,0,1-.62,8.69s-3.23,24.35-9.07,29.37C23.23,123.18-9.84,121,2.84,121.25c42.84.93,42.84,42.73,43.22,56.44v-6.9c0,.5.08.91.08,1.15v5.75c.91-32.45.79-53,38.16-55.74C96.68,121,68.16,123.39,55.25,113.34Z"/><circle class="cls-19" cx="237.76" cy="223.36" r="167.66"/><path class="cls-20" d="M368.09,168.3a142,142,0,1,0,11.11,55.06A141.13,141.13,0,0,0,368.09,168.3Z"/><path class="cls-21" d="M99.55,223.36A137.77,137.77,0,0,0,140,321.09l97.72-97.73Z"/><path class="cls-22" d="M237.75,223.36,140,125.63a137.79,137.79,0,0,0-40.48,97.73h138.2Z"/><path class="cls-23" d="M237.75,223.36,140,321.09a137.77,137.77,0,0,0,97.73,40.48V223.36Z"/><path class="cls-21" d="M237.76,223.36V361.57h0a137.77,137.77,0,0,0,97.72-40.48l-97.72-97.73Z"/><path class="cls-21" d="M237.76,223.36V85.15A137.77,137.77,0,0,0,140,125.63l97.72,97.73Z"/><path class="cls-24" d="M335.48,125.63a137.77,137.77,0,0,0-97.72-40.48h0V223.36Z"/><path class="cls-22" d="M335.48,321.09A137.74,137.74,0,0,0,376,223.36H237.76Z"/><path class="cls-21" d="M335.48,125.63l-97.72,97.73H376A137.74,137.74,0,0,0,335.48,125.63Z"/><path class="cls-25" d="M277.23,225.29a39.38,39.38,0,1,1-39.38-39.38A39.38,39.38,0,0,1,277.23,225.29Z"/><path class="cls-26" d="M277.23,221.54a39.38,39.38,0,1,1-39.38-39.38A39.38,39.38,0,0,1,277.23,221.54Z"/><path class="cls-25" d="M270.79,223.19a33.14,33.14,0,1,1-33.14-33.14A33.14,33.14,0,0,1,270.79,223.19Z"/><path class="cls-27" d="M269.23,222.31a31.58,31.58,0,1,1-31.58-31.58A31.58,31.58,0,0,1,269.23,222.31Z"/><path class="cls-28" d="M269.23,217.82a31.58,31.58,0,1,1-31.58-31.58A31.58,31.58,0,0,1,269.23,217.82Z"/><path class="cls-29" d="M245.22,209.62a31.5,31.5,0,0,1,23.85,10.89c.07-.89.12-1.79.12-2.69a31.59,31.59,0,1,0-55.43,20.69A31.59,31.59,0,0,1,245.22,209.62Z"/><path class="cls-30" d="M237.61,189a31.57,31.57,0,0,1,31.54,30.2c0-.46,0-.92,0-1.38a31.59,31.59,0,0,0-63.17,0c0,.48,0,1,0,1.44A31.58,31.58,0,0,1,237.61,189Z"/><path class="cls-11" d="M247.76,192.9c6.14,1.74,15.21,11.42,6.93,8.35-16.89-6.24-24.9-6.56-23.26-7.48C236.7,190.85,241.61,191.16,247.76,192.9Z"/><path class="cls-11" d="M225.81,194.53c3,.39.46,3.27-2.69,4.9-3.56,1.85-6.07,2.57-4.24-1.18S222.79,194.13,225.81,194.53Z"/><path class="cls-11" d="M218.56,214.41a5.56,5.56,0,0,0-2.06-1.33,5.2,5.2,0,0,0-2.09-.34,3.1,3.1,0,0,0-1.62.55,1.46,1.46,0,0,0-.62,1.31,1.07,1.07,0,0,0,.22.66,2.65,2.65,0,0,0,.58.58,4.14,4.14,0,0,0,.8.48c.3.14.61.27.93.4a18,18,0,0,0,2.51.74,11.51,11.51,0,0,1,4,2.12,8.65,8.65,0,0,1,2.23,2.83,6.57,6.57,0,0,1,.64,3.08,7,7,0,0,1-.75,2.94,7.31,7.31,0,0,1-1.93,2.37,7,7,0,0,1-2.87,1.4,11.42,11.42,0,0,1-3.39.35,8.41,8.41,0,0,1-2.65-.56,7.81,7.81,0,0,1-2-1.17,8.57,8.57,0,0,1-1.48-1.54,11.69,11.69,0,0,1-2-4.63l5.1-1.41a4.42,4.42,0,0,0,.61,1.37,5.92,5.92,0,0,0,1.17,1.33,4.18,4.18,0,0,0,1.56.82,2.5,2.5,0,0,0,1.8-.21q.9-.42.93-1.08a2,2,0,0,0-.43-1.3A4.82,4.82,0,0,0,216.5,223a4.91,4.91,0,0,0-1.48-.72c-.47-.13-1-.31-1.73-.53a13.12,13.12,0,0,1-2.1-.93,10.29,10.29,0,0,1-2-1.5,6.07,6.07,0,0,1-1.51-2.24,6.89,6.89,0,0,1,2.83-8.42,8.1,8.1,0,0,1,4-1.09,10.52,10.52,0,0,1,2.22.11,9.38,9.38,0,0,1,1.78.49,7.18,7.18,0,0,1,1.41.72,7.06,7.06,0,0,1,1.08.87,7.46,7.46,0,0,1,1.63,2.44Z"/><path class="cls-11" d="M240.22,213.22a9.72,9.72,0,0,1,.11,1.37,6.75,6.75,0,0,1-.21,1.73,6.53,6.53,0,0,1-.79,1.85,5.8,5.8,0,0,1-1.63,1.7,10.44,10.44,0,0,1-2.78,1.32,16.33,16.33,0,0,1-4.17.64l.32,10.43-6.52.2-.48-24.5,3.3-.19c1-.05,2-.09,3.13-.12s2.2-.05,3.23-.05a6,6,0,0,1,2.67.58,6.84,6.84,0,0,1,1.95,1.43,7.09,7.09,0,0,1,1.27,1.83A6.91,6.91,0,0,1,240.22,213.22Zm-9.92,3.31a8.21,8.21,0,0,0,3.32-.5,2.5,2.5,0,0,0,1.35-1.12,1.36,1.36,0,0,0,0-1.2,1.13,1.13,0,0,0-.77-.68,4.61,4.61,0,0,0-1.17-.13,12,12,0,0,0-1.37.07c-.53,0-1.07.09-1.6.16Z"/><path class="cls-11" d="M247.13,207.57l-.29,24.79-5.68-.1-.39-24.49Z"/><path class="cls-11" d="M247.69,208.12l7.19-.61,4.82,13.74-.55-13.61,5.62,0,.77,24.28-7,.71L254,220.22l.84,12.46-5.82.07Z"/><g class="cls-31"><circle class="cls-29" cx="201.75" cy="132.87" r="30.09" transform="translate(-34.86 181.58) rotate(-45)"/><circle class="cls-29" cx="147.56" cy="186.97" r="30.09" transform="translate(-76.45 106.03) rotate(-31.85)"/><circle class="cls-29" cx="151.93" cy="258.5" r="30.09" transform="translate(-113.59 119.21) rotate(-31.87)"/><circle class="cls-29" cx="201.75" cy="313.85" r="30.09" transform="translate(-147.46 182.48) rotate(-36.65)"/><circle class="cls-29" cx="274.03" cy="132.87" r="30.09" transform="translate(-13.69 232.69) rotate(-45)"/><circle class="cls-29" cx="328.23" cy="186.97" r="30.09" transform="matrix(0.53, -0.85, 0.85, 0.53, -4.58, 365.67)"/><circle class="cls-29" cx="323.85" cy="258.5" r="30.09" transform="matrix(0.53, -0.85, 0.85, 0.53, -67.22, 395.49)"/><circle class="cls-29" cx="274.03" cy="313.85" r="30.09" transform="translate(-141.66 285.69) rotate(-45)"/></g><path class="cls-32" d="M237.53,55.7A167.66,167.66,0,1,0,405.19,223.36,167.66,167.66,0,0,0,237.53,55.7Zm55.06,298A141.31,141.31,0,1,1,377.89,241a17.87,17.87,0,0,0-9.78.09l-33.83,12.23a11.3,11.3,0,0,0-6.62,15.3l14.27,33c1.29,3,4.51,6.09,7.79,7.87a142,142,0,0,1-57.13,44.17Z"/><path class="cls-20" d="M341.93,292.06l-14.25-33a11.4,11.4,0,0,0,0,9.28l14.27,33c.64,1.47,5.53,7.62,7.79,8.14,1.62-1.89,3-4.79,4.56-6.75C351,301,343.22,295,341.93,292.06Z"/><path class="cls-20" d="M237.53,381.43a167.66,167.66,0,0,1-167.59-163c0,1.55-.07,3.1-.07,4.66a167.66,167.66,0,0,0,335.32,0c0-1.56,0-3.11-.07-4.66A167.65,167.65,0,0,1,237.53,381.43Z"/><path class="cls-33" d="M367.86,158.71A141.45,141.45,0,0,0,96.08,213.78c0,1.55,0,3.1.08,4.65a141.44,141.44,0,0,1,282.74,0c.05-1.56.08-3.11.08-4.68A140.53,140.53,0,0,0,367.86,158.71Z"/><g class="cls-34"><path class="cls-35" d="M185.36,359.05a141.34,141.34,0,0,0,155.08-30.31,142.16,142.16,0,0,0,12.17-13.86c3.49-8.25,3-10.77,1.67-12.11-3.4,5.93-13,16.74-16.73,20.48a141.5,141.5,0,0,1-223.7-31.35,141.81,141.81,0,0,0,71.51,67.15Z"/><path class="cls-35" d="M377.89,240.49a18,18,0,0,0-9.78.1l-33.83,12.23a11.29,11.29,0,0,0-6.62,15.29s-2.63-4.85,9.51-9.8c8.33-3.4,33.83-12.23,33.83-12.23a18,18,0,0,1,9.79-.1C379.2,243,380.88,244.89,377.89,240.49Z"/><path class="cls-36" d="M72.77,228.34a167.68,167.68,0,0,1,314.59-80.8A167.69,167.69,0,1,0,90.59,303.64,167,167,0,0,1,72.77,228.34Z"/></g><path class="cls-20" d="M341.63,261.4l21.57-7.79c4-1.46,12,.67,10.36,4.48-4.21,9.73-12.73,29.45-16.68,38.59-1.65,3.81-8.67-.55-10.36-4.48l-9.1-21.05A7.2,7.2,0,0,1,341.63,261.4Z"/><path class="cls-28" d="M340.62,260.25l21.57-7.79c4-1.46,12,.67,10.36,4.48-4.21,9.73-12.73,29.45-16.68,38.59-1.65,3.81-8.67-.55-10.37-4.48L336.41,270A7.2,7.2,0,0,1,340.62,260.25Z"/><path class="cls-37" d="M361.61,253.8,340,261.6a7.28,7.28,0,0,0-3.93,3.29,7.24,7.24,0,0,1,4.51-4.64l21.57-7.79c4-1.46,12,.67,10.36,4.48l-.58,1.34C373.62,254.47,365.63,252.35,361.61,253.8Z"/><path class="cls-11" d="M370.49,256.13c1.94,1.31.69,3.78-2.76,2.88s-6.18-3.06-4.28-4.36S368.6,254.85,370.49,256.13Z"/><path class="cls-11" d="M356.05,258.84c-2.32,1.81-18,8.61-16.54,6S366.73,250.55,356.05,258.84Z"/><circle class="cls-38" cx="177.57" cy="78.26" r="8.92"/><circle class="cls-38" cx="177.57" cy="78.26" r="6.78" transform="translate(-5.06 143.84) rotate(-43.54)"/><circle class="cls-11" cx="177.12" cy="78.15" r="5.38"/><circle class="cls-38" cx="94.6" cy="162.96" r="8.92"/><circle class="cls-38" cx="94.6" cy="162.96" r="6.78"/><circle class="cls-11" cx="94.14" cy="162.85" r="5.38"/><circle class="cls-38" cx="96.51" cy="280.25" r="8.92"/><circle class="cls-38" cx="96.51" cy="280.25" r="6.78"/><circle class="cls-11" cx="96.06" cy="280.14" r="5.38" transform="translate(-169.95 149.97) rotate(-45)"/><circle class="cls-38" cx="180.58" cy="363.22" r="8.92" transform="translate(-214.94 453.2) rotate(-76.38)"/><circle class="cls-38" cx="180.58" cy="363.22" r="6.78" transform="matrix(0.92, -0.39, 0.39, 0.92, -126.25, 97.9)"/><circle class="cls-11" cx="180.12" cy="363.1" r="5.38" transform="translate(-124.46 95.67) rotate(-22.33)"/><circle class="cls-38" cx="297.06" cy="78.26" r="8.92"/><circle class="cls-38" cx="297.06" cy="78.26" r="6.78" transform="translate(-8.72 48.82) rotate(-9.26)"/><circle class="cls-11" cx="297.52" cy="78.15" r="5.38"/><circle class="cls-38" cx="380.04" cy="162.96" r="8.92"/><circle class="cls-38" cx="380.04" cy="162.96" r="6.78"/><circle class="cls-11" cx="380.49" cy="162.85" r="5.38"/><circle class="cls-38" cx="378.71" cy="280.25" r="8.92"/><circle class="cls-38" cx="378.71" cy="280.25" r="6.78"/><circle class="cls-11" cx="379.16" cy="280.14" r="5.38" transform="translate(-41.35 67.04) rotate(-9.58)"/><circle class="cls-38" cx="294.06" cy="363.22" r="8.92" transform="translate(-153.39 498.06) rotate(-67.78)"/><circle class="cls-38" cx="294.06" cy="363.22" r="6.78" transform="translate(-154.54 494.21) rotate(-67.29)"/><circle class="cls-11" cx="294.51" cy="363.1" r="5.38" transform="translate(-75.88 77.82) rotate(-13.35)"/><path class="cls-11" d="M182,128l4.28-1.8L195,144.09l-4.28,2.43-6.59-13.37-1.43,1.28-2.82-2.37Z"/><path class="cls-11" d="M193.54,136.23a16.46,16.46,0,0,1-1.87-3.38,12.85,12.85,0,0,1-.81-3.07,9.59,9.59,0,0,1,0-2.68,9,9,0,0,1,.61-2.19,5.75,5.75,0,0,1,1-1.62,3.61,3.61,0,0,1,1.11-.92l.39-.2a5.24,5.24,0,0,1,1.6-.47,7.62,7.62,0,0,1,2.15,0,5.92,5.92,0,0,1,2.4.88,10.53,10.53,0,0,1,2.48,2.25,17.78,17.78,0,0,1,2.39,4,18.55,18.55,0,0,1,1.06,3,11.8,11.8,0,0,1,.32,2.48,8.5,8.5,0,0,1-.21,2,5.94,5.94,0,0,1-.59,1.51,5.53,5.53,0,0,1-2.36,2.38l-.25.12a5,5,0,0,1-3.32.38,8.19,8.19,0,0,1-3.46-1.71,7.85,7.85,0,0,1-.9-.77l-.67-.69c-.19-.2-.38-.43-.59-.69l-.24-.31Zm2.59-4.24a10.7,10.7,0,0,0,1.11,2,6,6,0,0,0,1.09,1.14,2.57,2.57,0,0,0,1,.51,2.33,2.33,0,0,0,.85.07,1.26,1.26,0,0,0,.62-.14.44.44,0,0,0,.15-.1,1.49,1.49,0,0,0,.57-.68,3.52,3.52,0,0,0,.31-1.38,6,6,0,0,0-.27-1.94,9,9,0,0,0-1.17-2.42l-.07-.15a.71.71,0,0,0-.1-.14c-.08-.11-.16-.23-.26-.35l-.31-.36-.38-.4a4.45,4.45,0,0,0-1.47-.93,1.61,1.61,0,0,0-1.31,0l-.1,0a2,2,0,0,0-.85,1,4.15,4.15,0,0,0-.18,1.61A7.38,7.38,0,0,0,196.13,132Z"/><path class="cls-11" d="M206.26,129.93a16.4,16.4,0,0,1-1.87-3.37,13,13,0,0,1-.81-3.07,9.33,9.33,0,0,1,.62-4.88,6.08,6.08,0,0,1,1-1.61,3.91,3.91,0,0,1,1.11-.93l.4-.19a5,5,0,0,1,1.6-.48,8,8,0,0,1,2.15,0,5.78,5.78,0,0,1,2.4.88,10.11,10.11,0,0,1,2.48,2.25,17.93,17.93,0,0,1,2.39,4,17.18,17.18,0,0,1,1.05,3,11.31,11.31,0,0,1,.33,2.49,8.41,8.41,0,0,1-.21,2,6,6,0,0,1-.59,1.52,5.56,5.56,0,0,1-2.36,2.37l-.25.13a5,5,0,0,1-3.32.38,8.31,8.31,0,0,1-3.46-1.71,9,9,0,0,1-.9-.78c-.27-.26-.49-.49-.67-.69a8.76,8.76,0,0,1-.59-.68c-.09-.11-.17-.22-.24-.32Zm2.59-4.24a10.38,10.38,0,0,0,1.11,2,5.81,5.81,0,0,0,1.09,1.15,2.88,2.88,0,0,0,1,.51,2.57,2.57,0,0,0,.85.07,1.38,1.38,0,0,0,.62-.14.56.56,0,0,0,.15-.1,1.47,1.47,0,0,0,.57-.69,3.42,3.42,0,0,0,.31-1.37,6.06,6.06,0,0,0-.27-2,9.27,9.27,0,0,0-1.17-2.41l-.07-.15a.5.5,0,0,0-.1-.14,4.06,4.06,0,0,0-.26-.36l-.31-.35c-.11-.13-.24-.26-.38-.4a4.49,4.49,0,0,0-1.47-.94,1.6,1.6,0,0,0-1.31,0l-.1,0a2.09,2.09,0,0,0-.85,1,4.17,4.17,0,0,0-.18,1.61A7.12,7.12,0,0,0,208.85,125.69Z"/><path class="cls-11" d="M326.85,258.73l3.4-5.47-1.57-1.2a10.82,10.82,0,0,1-.91,1.32,14.83,14.83,0,0,1-1.12,1.2,9,9,0,0,1-1.54,1.17,3.35,3.35,0,0,1-1.42.47,6.34,6.34,0,0,1-1.84,0,7.08,7.08,0,0,1-2-.59,6.78,6.78,0,0,1-1.84-1.2,6.87,6.87,0,0,1-1.45-1.84,7,7,0,0,1-.8-2.53,5.86,5.86,0,0,1,.07-2,6.13,6.13,0,0,1,.65-1.75,7.48,7.48,0,0,1,1.07-1.47,12,12,0,0,1,1.28-1.2,14.52,14.52,0,0,1,3.63-2.1l3,4.49a3.13,3.13,0,0,0-1.25.4,7.7,7.7,0,0,0-1.3.89,7.42,7.42,0,0,0-1.12,1.19,4.7,4.7,0,0,0-.71,1.24,1.63,1.63,0,0,0-.07,1.08,1.15,1.15,0,0,0,.77.75,1.6,1.6,0,0,0,1,0,3.18,3.18,0,0,0,1-.51,5.4,5.4,0,0,0,.93-.87c.3-.35.59-.71.86-1.09a19.85,19.85,0,0,0,1.8-3.15l8.85,6.28-5.65,9.14Z"/><path class="cls-11" d="M319.88,256.13a16.15,16.15,0,0,1,3.43,1.76,13.14,13.14,0,0,1,2.39,2.1,9.34,9.34,0,0,1,1.49,2.23,9.13,9.13,0,0,1,.72,2.16,6.11,6.11,0,0,1,.09,1.88,3.58,3.58,0,0,1-.4,1.38l-.22.38a5,5,0,0,1-1.07,1.29,7.74,7.74,0,0,1-1.76,1.24,5.85,5.85,0,0,1-2.48.61,10.21,10.21,0,0,1-3.31-.49,17.69,17.69,0,0,1-4.23-2,16.63,16.63,0,0,1-2.58-1.93,11.87,11.87,0,0,1-1.65-1.88,8,8,0,0,1-.93-1.77,6.07,6.07,0,0,1,.27-4.87l.15-.25a5,5,0,0,1,2.54-2.16,10.1,10.1,0,0,1,5-.37l.95.2c.26.06.55.14.86.24a2.8,2.8,0,0,1,.38.13Zm.22,5a10.94,10.94,0,0,0-2-1,5.68,5.68,0,0,0-1.54-.34,2.69,2.69,0,0,0-1.11.13,2.33,2.33,0,0,0-.75.42,1.37,1.37,0,0,0-.44.46.77.77,0,0,0-.07.17,1.45,1.45,0,0,0-.09.88,3.43,3.43,0,0,0,.51,1.32,6,6,0,0,0,1.32,1.46,8.86,8.86,0,0,0,2.31,1.36l.14.08.16.06.42.15.45.12a3.61,3.61,0,0,0,.54.12,4.54,4.54,0,0,0,1.74,0,1.6,1.6,0,0,0,1.08-.75l.06-.09a2.06,2.06,0,0,0,.15-1.3,4.16,4.16,0,0,0-.75-1.44A7.36,7.36,0,0,0,320.1,261.1Z"/><path class="cls-11" d="M275.67,127.6,269.78,125l-1,1.72a11.27,11.27,0,0,1,1.43.72,16.31,16.31,0,0,1,1.34,1,9.24,9.24,0,0,1,1.37,1.36,3.41,3.41,0,0,1,.66,1.35,6.65,6.65,0,0,1,.23,1.83,7.32,7.32,0,0,1-.32,2,7.19,7.19,0,0,1-.94,2,6.85,6.85,0,0,1-4,2.82,5.75,5.75,0,0,1-2,.22,6.51,6.51,0,0,1-1.82-.41,7.69,7.69,0,0,1-1.6-.86,12.32,12.32,0,0,1-1.36-1.1,14.61,14.61,0,0,1-2.58-3.32l4-3.59a3.34,3.34,0,0,0,.58,1.19,8.13,8.13,0,0,0,1.06,1.16,7.61,7.61,0,0,0,1.32.95,4.84,4.84,0,0,0,1.33.53,1.73,1.73,0,0,0,1.09-.07,1.16,1.16,0,0,0,.62-.87,1.45,1.45,0,0,0-.1-1,3.11,3.11,0,0,0-.63-.91,5.32,5.32,0,0,0-1-.8c-.39-.25-.78-.48-1.19-.7a21.07,21.07,0,0,0-3.37-1.36l5-9.62,9.83,4.35Z"/><path class="cls-11" d="M274.05,134.86a15.73,15.73,0,0,1,1.27-3.63,12.91,12.91,0,0,1,1.75-2.66,9.82,9.82,0,0,1,2-1.77,9.25,9.25,0,0,1,2.05-1,6.25,6.25,0,0,1,1.85-.35,3.79,3.79,0,0,1,1.43.21l.4.17a5.13,5.13,0,0,1,1.43.87,8.31,8.31,0,0,1,1.46,1.58,5.88,5.88,0,0,1,.94,2.38,10.49,10.49,0,0,1,0,3.35,17.78,17.78,0,0,1-1.42,4.46,18.08,18.08,0,0,1-1.57,2.82,11.25,11.25,0,0,1-1.64,1.89,7.56,7.56,0,0,1-1.62,1.16,5.7,5.7,0,0,1-1.52.57,5.45,5.45,0,0,1-3.34-.18l-.26-.1a5,5,0,0,1-2.5-2.23,8.15,8.15,0,0,1-1-3.72,8,8,0,0,1,0-1.19q0-.55.06-1c0-.26.07-.56.13-.89a3.91,3.91,0,0,1,.07-.39C274,135.12,274,135,274.05,134.86Zm4.88-.89a10.66,10.66,0,0,0-.74,2.16,5.72,5.72,0,0,0-.14,1.57,2.76,2.76,0,0,0,.29,1.09,2.31,2.31,0,0,0,.52.68,1.29,1.29,0,0,0,.51.37.61.61,0,0,0,.18,0,1.52,1.52,0,0,0,.89,0,3.69,3.69,0,0,0,1.23-.69,5.94,5.94,0,0,0,1.27-1.5,9.37,9.37,0,0,0,1-2.47L284,135a.94.94,0,0,0,0-.16c0-.14.06-.28.09-.44s0-.29.06-.46,0-.35,0-.55a4.28,4.28,0,0,0-.28-1.72,1.61,1.61,0,0,0-.88-1l-.1,0a2,2,0,0,0-1.31,0,4.37,4.37,0,0,0-1.33.94A7.5,7.5,0,0,0,278.93,134Z"/><path class="cls-11" d="M296.3,310.39a8.9,8.9,0,0,1-.08,2.59,9.67,9.67,0,0,1-.29,1.08,4.52,4.52,0,0,1-.5,1.07,5.2,5.2,0,0,1-.79,1,4.83,4.83,0,0,1-1.12.84,6.06,6.06,0,0,1-2,.63,6.64,6.64,0,0,1-2.18,0,5.88,5.88,0,0,1-2.05-.8,4.55,4.55,0,0,1-1.56-1.69,6.77,6.77,0,0,1-.73-2.71,11.83,11.83,0,0,1,.44-3.8l1.84-5.77-6.43,3-1.3-4.35,10.59-5,2.14,4.35-2.18,7.32a12.07,12.07,0,0,0-.66,2.34,6.64,6.64,0,0,0-.07.87,2.23,2.23,0,0,0,.1.79,1.4,1.4,0,0,0,.36.6,1.16,1.16,0,0,0,.69.3.92.92,0,0,0,.8-.22,1.89,1.89,0,0,0,.47-.75,6.8,6.8,0,0,0,.24-1c.05-.38.09-.74.13-1.07Z"/><path class="cls-11" d="M281.66,308.5a15.54,15.54,0,0,1,1.7,3.46,13.23,13.23,0,0,1,.67,3.1,9.69,9.69,0,0,1-.15,2.68,9.13,9.13,0,0,1-.71,2.16,6.31,6.31,0,0,1-1.05,1.57,3.75,3.75,0,0,1-1.15.87l-.4.17a5.2,5.2,0,0,1-1.63.4,7.87,7.87,0,0,1-2.15-.06,5.94,5.94,0,0,1-2.35-1,10.19,10.19,0,0,1-2.37-2.37,20.08,20.08,0,0,1-3.09-7.24,11.24,11.24,0,0,1-.2-2.49,7.61,7.61,0,0,1,.31-2,5.76,5.76,0,0,1,.66-1.48,5.5,5.5,0,0,1,2.47-2.25l.26-.12a5,5,0,0,1,3.33-.21,8.26,8.26,0,0,1,3.38,1.87,11.45,11.45,0,0,1,.86.82l.63.72c.18.21.36.45.55.72a2.79,2.79,0,0,1,.23.32Zm-2.79,4.1a10.42,10.42,0,0,0-1-2,5.79,5.79,0,0,0-1-1.2,2.84,2.84,0,0,0-1-.56,2.62,2.62,0,0,0-.84-.11,1.44,1.44,0,0,0-.63.11.49.49,0,0,0-.16.1,1.42,1.42,0,0,0-.6.65,3.66,3.66,0,0,0-.38,1.36,6.4,6.4,0,0,0,.18,2,9.39,9.39,0,0,0,1.05,2.46l.06.16.09.14c.07.12.16.24.25.37l.29.37q.15.19.36.42a4.67,4.67,0,0,0,1.42,1,1.62,1.62,0,0,0,1.31,0l.1,0a2,2,0,0,0,.9-.95,4.16,4.16,0,0,0,.26-1.61A7.4,7.4,0,0,0,278.87,312.6Z"/><path class="cls-11" d="M268.65,314.16a16,16,0,0,1,1.7,3.46,12.67,12.67,0,0,1,.66,3.11,9.28,9.28,0,0,1-.86,4.84,6.14,6.14,0,0,1-1,1.56A3.78,3.78,0,0,1,268,328l-.4.17a5.21,5.21,0,0,1-1.62.4,7.86,7.86,0,0,1-2.15-.06,6,6,0,0,1-2.36-1,10.17,10.17,0,0,1-2.36-2.37,17.81,17.81,0,0,1-2.19-4.15,16.62,16.62,0,0,1-.9-3.09,10.67,10.67,0,0,1-.2-2.49,8.16,8.16,0,0,1,.3-2,6.53,6.53,0,0,1,.66-1.48,5.57,5.57,0,0,1,2.48-2.25l.26-.12a5,5,0,0,1,3.33-.21,8.14,8.14,0,0,1,3.37,1.88,8.48,8.48,0,0,1,.86.81c.26.28.47.52.64.72s.36.45.55.72c.09.11.16.22.23.32Zm-2.79,4.1a11,11,0,0,0-1-2,6.13,6.13,0,0,0-1-1.2,2.72,2.72,0,0,0-1-.56,2.37,2.37,0,0,0-.85-.1,1.31,1.31,0,0,0-.63.1.56.56,0,0,0-.15.1,1.32,1.32,0,0,0-.6.65,3.48,3.48,0,0,0-.38,1.36,5.83,5.83,0,0,0,.18,2,9,9,0,0,0,1,2.46l.07.16a.42.42,0,0,0,.09.14,3.45,3.45,0,0,0,.25.37l.28.37.37.42a4.56,4.56,0,0,0,1.42,1,1.62,1.62,0,0,0,1.31,0l.1,0a2.13,2.13,0,0,0,.9-.95,4.3,4.3,0,0,0,.26-1.6A7.62,7.62,0,0,0,265.86,318.26Z"/><path class="cls-11" d="M134.43,195.57a9.06,9.06,0,0,1-1.67-2c-.18-.31-.34-.64-.5-1a4.87,4.87,0,0,1-.35-1.14,5.78,5.78,0,0,1-.07-1.26,5.37,5.37,0,0,1,.28-1.38,6.21,6.21,0,0,1,1-1.79,6.8,6.8,0,0,1,1.64-1.44,5.63,5.63,0,0,1,2.06-.77,4.53,4.53,0,0,1,2.29.21,6.56,6.56,0,0,1,2.35,1.53,11.92,11.92,0,0,1,2.21,3.12l2.48,5.53,2.81-6.5,3.87,2.37-4.57,10.77L143.8,200l-3.26-6.91a12.43,12.43,0,0,0-1.07-2.19,7.4,7.4,0,0,0-.53-.69,2.25,2.25,0,0,0-.6-.52,1.64,1.64,0,0,0-.67-.21,1.15,1.15,0,0,0-.71.24.94.94,0,0,0-.45.7,2,2,0,0,0,.15.87,6.2,6.2,0,0,0,.51.93c.22.31.42.61.61.89Z"/><path class="cls-11" d="M146.6,187.2a15.36,15.36,0,0,1-3.58-1.44,13.22,13.22,0,0,1-2.57-1.87,9.64,9.64,0,0,1-1.68-2.09,9.34,9.34,0,0,1-.91-2.09,6.43,6.43,0,0,1-.27-1.86,3.61,3.61,0,0,1,.29-1.42l.18-.4a5.2,5.2,0,0,1,.94-1.38,8.13,8.13,0,0,1,1.64-1.38,5.69,5.69,0,0,1,2.42-.83,10.36,10.36,0,0,1,3.35.18,18.26,18.26,0,0,1,4.39,1.63,17.16,17.16,0,0,1,2.74,1.7,11.17,11.17,0,0,1,1.81,1.72,7.81,7.81,0,0,1,1.09,1.68,5.63,5.63,0,0,1,.5,1.54,5.51,5.51,0,0,1-.34,3.33l-.12.26a5,5,0,0,1-2.33,2.38,8.28,8.28,0,0,1-3.77.86,9.15,9.15,0,0,1-1.19,0c-.37,0-.68-.07-.95-.11s-.56-.09-.89-.16l-.38-.09Zm-.67-4.92a10.71,10.71,0,0,0,2.12.84,5.66,5.66,0,0,0,1.57.21,2.72,2.72,0,0,0,1.1-.23,2.55,2.55,0,0,0,.7-.49,1.36,1.36,0,0,0,.4-.5.64.64,0,0,0,.05-.17,1.45,1.45,0,0,0,0-.89,3.53,3.53,0,0,0-.63-1.26,5.89,5.89,0,0,0-1.44-1.34,9.1,9.1,0,0,0-2.42-1.14l-.15-.07a.55.55,0,0,0-.17-.05,3.83,3.83,0,0,0-.43-.11l-.45-.08-.55-.07a4.51,4.51,0,0,0-1.74.2,1.63,1.63,0,0,0-1,.84l0,.09a2.05,2.05,0,0,0,0,1.32,4.11,4.11,0,0,0,.87,1.36A7.48,7.48,0,0,0,145.93,182.28Z"/><path class="cls-11" d="M333,174.39l2.21,11.28-5.36,1.23c-2-.61-3.86-1.16-5.69-1.65-.78-.21-1.59-.42-2.41-.61s-1.64-.36-2.43-.51-1.55-.27-2.27-.36a13.65,13.65,0,0,0-1.91-.12l-.52-4.74a41.38,41.38,0,0,1,4.53.4c1.4.2,3,.5,4.82.92a43.08,43.08,0,0,1,5.81,1.79l-1.38-7.18Z"/><path class="cls-11" d="M332.82,198.8l-.85-6.39-2,.07a11.34,11.34,0,0,1,.14,1.6c0,.49-.05,1-.12,1.64a9.19,9.19,0,0,1-.43,1.88,3.56,3.56,0,0,1-.81,1.27,6.74,6.74,0,0,1-1.44,1.15,7.67,7.67,0,0,1-1.89.79,6.94,6.94,0,0,1-6.69-1.71,5.76,5.76,0,0,1-1.24-1.61,6.32,6.32,0,0,1-.6-1.76,7.38,7.38,0,0,1-.11-1.81,12.16,12.16,0,0,1,.23-1.74,14.22,14.22,0,0,1,1.47-3.93l5.18,1.55a3.05,3.05,0,0,0-.72,1.11,7.79,7.79,0,0,0-.43,1.51,7.42,7.42,0,0,0-.12,1.63,5.59,5.59,0,0,0,.24,1.41,1.69,1.69,0,0,0,.64.88,1.15,1.15,0,0,0,1.07.08,1.47,1.47,0,0,0,.76-.59,3,3,0,0,0,.44-1,5.65,5.65,0,0,0,.17-1.27c0-.46,0-.92,0-1.38a21,21,0,0,0-.61-3.58l10.82-.77,1.44,10.65Z"/><path class="cls-11" d="M151,278.31a8.62,8.62,0,0,1-2.55-.48q-.5-.19-1-.45a4.93,4.93,0,0,1-1-.67,5.88,5.88,0,0,1-.85-.93,5.2,5.2,0,0,1-.65-1.24,6.12,6.12,0,0,1-.32-2.05,6.57,6.57,0,0,1,.36-2.16,5.67,5.67,0,0,1,1.11-1.89,4.51,4.51,0,0,1,1.91-1.28,6.77,6.77,0,0,1,2.79-.3,11.93,11.93,0,0,1,3.68,1l5.41,2.72L158,263.8l4.5-.61,3.25,11.24-4.63,1.43-6.89-3.29a12.1,12.1,0,0,0-2.21-1,8.71,8.71,0,0,0-.85-.2,2.36,2.36,0,0,0-.79,0,1.45,1.45,0,0,0-.65.27,1.18,1.18,0,0,0-.41.63.94.94,0,0,0,.1.83,1.73,1.73,0,0,0,.67.57,4.66,4.66,0,0,0,1,.4l1,.3Z"/><path class="cls-11" d="M145.16,254.82l1.39,6.29,2-.24a11.52,11.52,0,0,1-.27-1.58,14.39,14.39,0,0,1,0-1.64,8.82,8.82,0,0,1,.28-1.91,3.51,3.51,0,0,1,.69-1.34,7.06,7.06,0,0,1,1.34-1.26,7.22,7.22,0,0,1,1.81-.95,7,7,0,0,1,2.16-.42,6.77,6.77,0,0,1,2.32.3,7.06,7.06,0,0,1,2.34,1.26,6,6,0,0,1,1.37,1.49,7,7,0,0,1,.75,1.71,7.44,7.44,0,0,1,.26,1.79,12.53,12.53,0,0,1-.08,1.75,14.19,14.19,0,0,1-1.13,4.05L155,263a3.07,3.07,0,0,0,.61-1.17,7.6,7.6,0,0,0,.29-3.17,5,5,0,0,0-.36-1.38,1.73,1.73,0,0,0-.71-.83,1.15,1.15,0,0,0-1.07,0,1.45,1.45,0,0,0-.71.65,3.25,3.25,0,0,0-.36,1.05,5.94,5.94,0,0,0-.05,1.28c0,.45.07.91.14,1.37a21.82,21.82,0,0,0,.91,3.52L143,266l-2.34-10.49Z"/><path class="cls-11" d="M152,251.81a15.84,15.84,0,0,1-3.68,1.14,13.54,13.54,0,0,1-3.18.17,9.79,9.79,0,0,1-2.62-.56,9.65,9.65,0,0,1-2-1.05,6.36,6.36,0,0,1-1.38-1.28,3.65,3.65,0,0,1-.67-1.27l-.11-.43a5,5,0,0,1-.14-1.66,7.66,7.66,0,0,1,.4-2.11,5.85,5.85,0,0,1,1.35-2.18,10.36,10.36,0,0,1,2.71-2,17.76,17.76,0,0,1,4.44-1.51,16.79,16.79,0,0,1,3.19-.41,11.3,11.3,0,0,1,2.5.19,8.16,8.16,0,0,1,1.9.61,5.82,5.82,0,0,1,1.36.89,5.56,5.56,0,0,1,1.84,2.79l.07.28a5,5,0,0,1-.31,3.32,8.25,8.25,0,0,1-2.38,3,8.14,8.14,0,0,1-.94.72c-.31.21-.58.38-.81.52s-.5.28-.8.43a3.7,3.7,0,0,1-.35.17Zm-3.62-3.4a10.61,10.61,0,0,0,2.18-.69,5.63,5.63,0,0,0,1.34-.82,2.6,2.6,0,0,0,.7-.88,2.29,2.29,0,0,0,.24-.82,1.34,1.34,0,0,0,0-.63.54.54,0,0,0-.07-.17,1.49,1.49,0,0,0-.55-.7,3.6,3.6,0,0,0-1.29-.58,5.73,5.73,0,0,0-2-.13,9.09,9.09,0,0,0-2.6.64l-.16,0-.16.07a2.87,2.87,0,0,0-.4.19l-.41.22a5.11,5.11,0,0,0-1.69,1.54,1.64,1.64,0,0,0-.25,1.29l0,.1a2,2,0,0,0,.8,1,4.13,4.13,0,0,0,1.54.51A7.37,7.37,0,0,0,148.35,248.41Z"/><path class="cls-11" d="M205.27,327.36l-4-2.28L210,307.2l4.55,1.89-6.53,13.41,1.89.34-.15,3.68Z"/><path class="cls-11" d="M204.7,313.14a15.65,15.65,0,0,1-1.52,3.54,13,13,0,0,1-1.93,2.53,9.19,9.19,0,0,1-2.12,1.63,9.44,9.44,0,0,1-2.11.87,6.34,6.34,0,0,1-1.87.22,3.68,3.68,0,0,1-1.41-.31l-.39-.19a5.14,5.14,0,0,1-1.36-1,7.46,7.46,0,0,1-1.35-1.67,5.85,5.85,0,0,1-.78-2.44,10.21,10.21,0,0,1,.26-3.33,17.74,17.74,0,0,1,1.73-4.36,16.86,16.86,0,0,1,1.75-2.7,11,11,0,0,1,1.77-1.78,8,8,0,0,1,1.69-1.05,6,6,0,0,1,1.56-.46,5.49,5.49,0,0,1,3.32.41l.26.12a5,5,0,0,1,2.33,2.39,8.33,8.33,0,0,1,.77,3.78,7.58,7.58,0,0,1-.06,1.19c-.05.37-.09.69-.13.95s-.11.56-.19.88a3.69,3.69,0,0,1-.1.39C204.79,312.88,204.75,313,204.7,313.14Zm-4.93.55a11.33,11.33,0,0,0,.89-2.1,6.18,6.18,0,0,0,.24-1.56,2.87,2.87,0,0,0-.21-1.1,2.64,2.64,0,0,0-.47-.72,1.42,1.42,0,0,0-.49-.4l-.17-.06a1.42,1.42,0,0,0-.89,0,3.56,3.56,0,0,0-1.28.6,6,6,0,0,0-1.37,1.41,9.25,9.25,0,0,0-1.19,2.4l-.08.15a1,1,0,0,0-.05.16c0,.13-.08.27-.12.43l-.09.45c0,.17-.06.35-.08.55a4.57,4.57,0,0,0,.16,1.74,1.61,1.61,0,0,0,.82,1l.09,0a2.12,2.12,0,0,0,1.32.07,4.33,4.33,0,0,0,1.38-.85A7.32,7.32,0,0,0,199.77,313.69Z"/><path class="cls-14" d="M113.34,327.65c0-120.84,86.23-187.24,192.58-187.24A195.26,195.26,0,0,1,421.68,178C403.28,93.25,325.92,29.63,233.27,29.63c-106.36,0-192.59,83.85-192.59,187.26,0,61.2,30.18,115.51,76.84,149.68A184.23,184.23,0,0,1,113.34,327.65Z"/></g></g></g></g></svg>