<svg xmlns="http://www.w3.org/2000/svg" viewBox="0 0 53.34 53.34"><title>กงล้อ_2</title><g id="Layer_2" data-name="Layer 2"><g id="L1_Image" data-name="L1 Image"><g id="Group_475" data-name="Group 475"><circle id="Ellipse_38-4" data-name="Ellipse 38-4" cx="26.67" cy="26.67" r="26.17" style="fill:#141615;stroke:#000;stroke-miterlimit:10"/></g><path d="M16.61,36.86a14.23,14.23,0,0,1,0-20.12h0L26.67,26.8Z" style="fill:#fff"/><path d="M16.61,16.74a14.22,14.22,0,0,1,20.12,0h0L26.67,26.8Z" style="fill:#18bf62"/><path d="M36.73,16.74a14.21,14.21,0,0,1,0,20.11h0L26.67,26.8Z" style="fill:#fff"/><path d="M36.73,36.86a14.24,14.24,0,0,1-20.12,0h0L26.67,26.8Z" style="fill:#18bf62"/><path d="M26.67,39.22A12.42,12.42,0,1,1,39.09,26.8,12.42,12.42,0,0,1,26.67,39.22Zm0-23.32a10.9,10.9,0,1,0,10.9,10.9h0a10.9,10.9,0,0,0-10.9-10.9Z" style="fill:#120e00;opacity:0.11"/><circle cx="26.67" cy="26.8" r="2.43" style="fill:#fff;stroke:#18bf62;stroke-miterlimit:10"/><g id="L1_Image-2" data-name="L1 Image"><path d="M24.45,35.14a2.33,2.33,0,0,1,4.66,0s0,.1,0,.15a2.34,2.34,0,0,1-2.48,2.19A2.31,2.31,0,0,1,24.45,35.14Z" style="fill:#fec95a"/><path d="M40.88,25.54a13.65,13.65,0,0,0-1.24-4.68,13.86,13.86,0,0,0-4.39-5.44c-.38-.28-.75-.55-1.14-.79A14.12,14.12,0,0,0,24,12.79,14.27,14.27,0,0,0,12.5,25.21a14.54,14.54,0,0,0,.22,4.56,14.85,14.85,0,0,0,1.16,3.36l.66,1.19.21.31a14.19,14.19,0,0,0,14.9,6.11,14.26,14.26,0,0,0,11.23-15.2ZM39,28.26a11.75,11.75,0,0,1-.36,1.86,12.43,12.43,0,0,1-2.41,4.61,11.66,11.66,0,0,1-1.85,1.8,11.29,11.29,0,0,1-1.2.85c-.12.07-.17.11-.22.1a7.19,7.19,0,0,1-1.22.66,10.67,10.67,0,0,1-2.39.8,11.35,11.35,0,0,1-1.42.23c-.4,0-.81.06-1.22.06a12.64,12.64,0,0,1-4.27-.68,16.28,16.28,0,0,1-1.88-.91.45.45,0,0,1-.13-.11h0l0,0a12.54,12.54,0,0,1-2.75-2.2,12.5,12.5,0,0,1-2.78-4.71,11.39,11.39,0,0,1-.47-2.08,10.35,10.35,0,0,1-.12-1.76,12.42,12.42,0,0,1,6.18-10.69l.12-.05a4.3,4.3,0,0,1,.92-.5,12.32,12.32,0,0,1,2.44-.83c.51-.11,1-.19,1.56-.25a10.48,10.48,0,0,1,1.68,0,13.57,13.57,0,0,1,1.43.14,12.89,12.89,0,0,1,2.22.56,12.23,12.23,0,0,1,1.95.88c.05,0,.07,0,.08.08l0,0A12.43,12.43,0,0,1,39,26.76a.22.22,0,0,1,0,.16C39.06,27.36,39,27.81,39,28.26Z" style="fill:#0a9150"/><path d="M17.38,26.67a2.2,2.2,0,0,1,2.09-2.2,2.22,2.22,0,0,1,2.29,2.12,2.2,2.2,0,1,1-4.39.13v0Z" style="fill:#fec95a"/><path d="M29,19a2.19,2.19,0,0,1-2.16,2.21A2.23,2.23,0,0,1,24.56,19v-.1a2.25,2.25,0,0,1,2.13-2.1A2.2,2.2,0,0,1,29,19Z" style="fill:#fec95a"/><path d="M31.58,26.69a2.2,2.2,0,1,1,2.21,2.18H33.6A2.14,2.14,0,0,1,31.58,26.69Z" style="fill:#fec95a"/></g></g></g></svg>