<svg xmlns="http://www.w3.org/2000/svg" viewBox="0 0 53.34 53.34"><title>กิจกรรม</title><g id="Layer_2" data-name="Layer 2"><g id="L1_Image" data-name="L1 Image"><g id="Group_472" data-name="Group 472"><circle id="Ellipse_38-7" data-name="Ellipse 38-7" cx="26.67" cy="26.67" r="26.17" style="fill:#141615;stroke:#000;stroke-miterlimit:10"/></g><path d="M40.89,26.58a1.85,1.85,0,0,1,.63,1.79,2.09,2.09,0,0,1-1.07,1.71,2,2,0,0,1,.27.52,2.33,2.33,0,0,1,.07.25,2.75,2.75,0,0,1,0,.91,2,2,0,0,1-1,1.46A2,2,0,0,1,40,34.65a1.87,1.87,0,0,1-2,1.51H26.85a1.71,1.71,0,0,1-1-.47,2.44,2.44,0,0,0-1-.52h-.68a6.2,6.2,0,0,0-.28-1.73,6.36,6.36,0,0,0-1-2,4,4,0,0,0-.49-.61V25.22a.44.44,0,0,1,.41-.43H25.5a4.29,4.29,0,0,0,.6-.59,20.06,20.06,0,0,0,1.66-2.44A18.91,18.91,0,0,1,29,19.94a5.44,5.44,0,0,1,1.28-1.23c.36-.26.28-.32,1-1.22a6.22,6.22,0,0,0,1.44-3.27l.09-.5a1.76,1.76,0,0,1,.69-1.06.89.89,0,0,1,.27-.15.44.44,0,0,1,.16-.06h0a1.15,1.15,0,0,1,.26,0h.11a.21.21,0,0,1,.11,0,1.4,1.4,0,0,1,.55.24,2.84,2.84,0,0,1,.93,1.38.79.79,0,0,1,.08.23,5,5,0,0,1,.22,2.2,8.44,8.44,0,0,1-1.33,3.58,2.1,2.1,0,0,0-.59,1.85c0,.39.63.4.66.41h3.68c1.06,0,3.07.34,3.07,2.39A2.21,2.21,0,0,1,40.89,26.58Z" style="fill:#efefef"/><path d="M41.71,24.72c0-2-2-2.38-3.07-2.39H37.15c1.06,0,3.08.34,3.08,2.39a2.21,2.21,0,0,1-.83,1.86A1.85,1.85,0,0,1,40,28.37,2.09,2.09,0,0,1,39,30.08a2.12,2.12,0,0,1,.36,1.68,2,2,0,0,1-1,1.46,1.94,1.94,0,0,1,.23,1.43,1.87,1.87,0,0,1-2,1.51H38a1.87,1.87,0,0,0,2-1.51,2,2,0,0,0-.22-1.43,2,2,0,0,0,1-1.46,2.75,2.75,0,0,0,0-.91,2.33,2.33,0,0,0-.07-.25,2,2,0,0,0-.27-.52,2.09,2.09,0,0,0,1.07-1.71,1.85,1.85,0,0,0-.63-1.79A2.21,2.21,0,0,0,41.71,24.72Zm-5.49-8.24a5,5,0,0,0-.22-2.2.79.79,0,0,0-.08-.23A2.84,2.84,0,0,0,35,12.67a1.4,1.4,0,0,0-.55-.24.21.21,0,0,0-.11,0h-.11a.75.75,0,0,0-.26,0h0a.44.44,0,0,0-.16.06.89.89,0,0,0-.27.15h0c.93.65,1.42,2.54,1.24,3.81a8.57,8.57,0,0,1-1.33,3.58,2.13,2.13,0,0,0-.6,1.85c0,.39.64.4.66.41H35s-.62,0-.66-.41a2.1,2.1,0,0,1,.59-1.85A8.44,8.44,0,0,0,36.22,16.48Zm5.49,8.24c0-2-2-2.38-3.07-2.39H37.15c1.06,0,3.08.34,3.08,2.39a2.21,2.21,0,0,1-.83,1.86A1.85,1.85,0,0,1,40,28.37,2.09,2.09,0,0,1,39,30.08a2.12,2.12,0,0,1,.36,1.68,2,2,0,0,1-1,1.46,1.94,1.94,0,0,1,.23,1.43,1.87,1.87,0,0,1-2,1.51H38a1.87,1.87,0,0,0,2-1.51,2,2,0,0,0-.22-1.43,2,2,0,0,0,1-1.46,2.75,2.75,0,0,0,0-.91,2.33,2.33,0,0,0-.07-.25,2,2,0,0,0-.27-.52,2.09,2.09,0,0,0,1.07-1.71,1.85,1.85,0,0,0-.63-1.79A2.21,2.21,0,0,0,41.71,24.72Zm-5.49-8.24a5,5,0,0,0-.22-2.2.79.79,0,0,0-.08-.23A2.84,2.84,0,0,0,35,12.67a1.4,1.4,0,0,0-.55-.24.21.21,0,0,0-.11,0h-.11a.75.75,0,0,0-.26,0h0a.44.44,0,0,0-.16.06.89.89,0,0,0-.27.15h0c.93.65,1.42,2.54,1.24,3.81a8.57,8.57,0,0,1-1.33,3.58,2.13,2.13,0,0,0-.6,1.85c0,.39.64.4.66.41H35s-.62,0-.66-.41a2.1,2.1,0,0,1,.59-1.85A8.44,8.44,0,0,0,36.22,16.48Z" style="fill:#dcdcdc"/><path d="M23.89,24.79v8.66a6.36,6.36,0,0,0-1-2,4,4,0,0,0-.49-.61v-6Z" style="fill:#d7d7d7"/><path d="M19,32.8a0,0,0,0,0,0,0v0Z" style="fill:#18bf62"/><path d="M22.89,24.94v6.47a4,4,0,0,0-.49-.61,6.94,6.94,0,0,0-5.23-2.36,7.08,7.08,0,0,0-2,.27,6.6,6.6,0,0,0-1.07.42l-.65-4.19a.8.8,0,0,1,0-.27.48.48,0,0,1,.05-.17,1.23,1.23,0,0,1,.35-.46l.15-.1,0,0a.58.58,0,0,1,.17-.06.8.8,0,0,1,.21-.05h0a.58.58,0,0,1,.14,0h7.11a1.14,1.14,0,0,1,1.13,1h0A.71.71,0,0,1,22.89,24.94Z" style="fill:#18bf62"/><path d="M19,32.8a0,0,0,0,0,0,0v0Z" style="fill:#fff"/><path d="M14.48,24l.73,4.76a6.6,6.6,0,0,0-1.07.42l-.65-4.19a.8.8,0,0,1,0-.27.48.48,0,0,1,.05-.17,1.23,1.23,0,0,1,.35-.46l.15-.1,0,0a.58.58,0,0,1,.17-.06.8.8,0,0,1,.21-.05Z" style="fill:#11a859"/><path d="M19,32.8a0,0,0,0,0,0,0v0Z" style="fill:#11a859"/><path d="M17.11,30a5.49,5.49,0,1,1-5.48,5.49A5.49,5.49,0,0,1,17.11,30Z" style="fill:#3b5998"/><path d="M17.78,33.75h.71v-1h-.83c-1,0-1.22.6-1.23,1.19h0v.52h-.68v1h.68v2.74h1V35.45h.84l.17-1h-1v-.31A.33.33,0,0,1,17.78,33.75Z" style="fill:#fff"/></g></g></svg>