<svg xmlns="http://www.w3.org/2000/svg" viewBox="0 0 53.34 53.34"><title>ชวนเพื่อน</title><g id="Layer_2" data-name="Layer 2"><g id="L1_Image" data-name="L1 Image"><g id="Group_473" data-name="Group 473"><circle id="Ellipse_38-2" data-name="Ellipse 38-2" cx="26.67" cy="26.67" r="26.17" style="fill:#141615;stroke:#000;stroke-miterlimit:10"/></g><path d="M32.14,13.79a3,3,0,0,1,.75-.87h.86a6.36,6.36,0,0,1,2.36,2.16c0,.22-.18.18-.31.18-.94.05-1.26.28-1.48,1.2a9.07,9.07,0,0,0-.15,3,16.28,16.28,0,0,0,.22,1.69.76.76,0,0,1-.07.57,4.56,4.56,0,0,1-1.55.23,1,1,0,0,1-.35-.64,19.26,19.26,0,0,1-.75-5.5A3.35,3.35,0,0,1,32.14,13.79Z" style="fill:#07854c"/><path d="M39.78,33.11a1.61,1.61,0,0,1-1.2-.1A27.1,27.1,0,0,0,33,31.77a21.6,21.6,0,0,0-4.33,0,.73.73,0,0,0-.4.13c-.77.2-1.56.28-2.34.45-.24.05-.47.12-.71.18a.77.77,0,0,0,0-.15,7.44,7.44,0,0,0-6.4-6l-.14,0s0-.06,0-.09a1.14,1.14,0,0,1,0-.73l.07-.09.05,0a.72.72,0,0,1,.28-.13,25.78,25.78,0,0,0,8.16-4.38,21.47,21.47,0,0,0,4.11-4.61c.1-.14.17-.34.34-.42a.32.32,0,0,1,.14,0,19.32,19.32,0,0,0,1,6.13s0,0,0,0a1.34,1.34,0,0,1,.29.64,28,28,0,0,0,1.72,4.48l0,.07,0,.06A16.89,16.89,0,0,0,38.06,32a3.06,3.06,0,0,0,.39.34h0a1.31,1.31,0,0,0,.27.21l0,0C39.06,32.86,39.47,32.87,39.78,33.11Z" style="fill:#18bf62"/><path d="M39.78,33.12a1.71,1.71,0,0,1-1.1-.44A21.24,21.24,0,0,1,36.15,28l-.51-1.24a.45.45,0,0,1,.1-.29,2.67,2.67,0,0,0-1.22-4.57.4.4,0,0,1-.23-.21A20,20,0,0,1,34,17.85a5.25,5.25,0,0,1,.37-1.92,1.15,1.15,0,0,1,1.53-.77.24.24,0,0,0,.24-.08,25.17,25.17,0,0,1,3.48,6.78,23.83,23.83,0,0,1,1.67,8.51,4.77,4.77,0,0,1-.41,2A1.23,1.23,0,0,1,39.78,33.12Z" style="fill:#0e9c55"/><path d="M29.89,38.57a5.08,5.08,0,0,1-2,1.71c-.61.27-.93.15-1.31-.42a10,10,0,0,1-1.07-2.44c-.17-.51-.33-1-.47-1.54a7.26,7.26,0,0,0,.32-2.15,5.44,5.44,0,0,0,0-.57.66.66,0,0,0,0-.14,21.67,21.67,0,0,1,2.55,1.16,2.46,2.46,0,0,1,.84,2.33.49.49,0,0,0,.24.44c.27.2.52.45.8.63C30.18,37.86,30.16,38.2,29.89,38.57Z" style="fill:#07854c"/><path d="M18.73,25.48a6.42,6.42,0,0,0,.09.87l-.14,0a6.85,6.85,0,0,0-.79,0,7.89,7.89,0,0,0-.84.05,2.2,2.2,0,0,1,1.67-1.52.47.47,0,0,1,.06.57A.41.41,0,0,1,18.73,25.48Z" style="fill:#006e43"/><path d="M18.73,25.48c0-.22,0-.44,0-.66.08-.44.48-.49.8-.61a27,27,0,0,0,6.37-3.37,22.14,22.14,0,0,0,5.61-6.2,3,3,0,0,1,.64-.85,6.64,6.64,0,0,0-.33,2,26,26,0,0,1-3.18,4,22.62,22.62,0,0,1-6.86,4.53A17.39,17.39,0,0,1,18.73,25.48Z" style="fill:#11a859"/><path d="M27.85,34.18a21.37,21.37,0,0,1-2.54-1,.66.66,0,0,0,0-.14,3.55,3.55,0,0,0-.06-.47.77.77,0,0,0,0-.15,26.29,26.29,0,0,1,2.94-.56s.09.05.13.08A4.41,4.41,0,0,0,27.85,34.18Z" style="fill:#006e43"/><path d="M34.29,21.71l.23.11a25.64,25.64,0,0,0,1.13,4.12,1.71,1.71,0,0,1,.15.62l-.13.2a.86.86,0,0,1-1,.45A26.14,26.14,0,0,1,32.79,22,3.64,3.64,0,0,1,34.29,21.71Z" style="fill:#d8d9da"/><path d="M34.72,27.21a3.32,3.32,0,0,0,1-.45c.28.12.28.41.36.63a26.83,26.83,0,0,0,2.58,5c0,.07.2.14.07.26a9.22,9.22,0,0,1-2.58-2.94A25.72,25.72,0,0,1,34.72,27.21Z" style="fill:#07854c"/><path d="M35.8,26.56A9.49,9.49,0,0,1,35,24.24c-.21-.63-.32-1.3-.49-1.94-.05-.18-.12-.34.06-.48a2.56,2.56,0,0,1,2.1,1.89A2.63,2.63,0,0,1,35.8,26.56Z" style="fill:#eaeced"/><path d="M17.89,27.92a5.82,5.82,0,1,1-5.81,5.82A5.82,5.82,0,0,1,17.89,27.92Z" style="fill:#f4b459"/><path d="M17.89,29a4.73,4.73,0,1,0,4.72,4.73A4.72,4.72,0,0,0,17.89,29Zm0,8.72a4,4,0,1,1,4-4A4,4,0,0,1,17.89,37.73Zm.82-5.09a1.21,1.21,0,0,0-.54-.14,1.22,1.22,0,0,0-.6.16,1.29,1.29,0,0,0-.43.44,1.34,1.34,0,0,0,0,1.23,1.24,1.24,0,0,0,.43.45,1.12,1.12,0,0,0,.6.16,1.18,1.18,0,0,0,.53-.13,1.58,1.58,0,0,0,.48-.33l.51.56a2.52,2.52,0,0,1-.73.51,2.13,2.13,0,0,1-.84.19,2,2,0,0,1-1-.27,1.81,1.81,0,0,1-.73-.72,2,2,0,0,1-.27-1,2,2,0,0,1,.27-1,1.9,1.9,0,0,1,.75-.71,2,2,0,0,1,1.05-.26,2.24,2.24,0,0,1,.83.17,2.29,2.29,0,0,1,.7.48l-.51.62A1.51,1.51,0,0,0,18.71,32.64Z" style="fill:#cc6621"/></g></g></svg>