<svg xmlns="http://www.w3.org/2000/svg" xmlns:xlink="http://www.w3.org/1999/xlink" viewBox="0 0 53.34 53.34"><defs><filter id="luminosity-noclip" x="8.66" y="12.4" width="34.48" height="28.81" filterUnits="userSpaceOnUse" color-interpolation-filters="sRGB"><feFlood flood-color="#fff" result="bg"/><feBlend in="SourceGraphic" in2="bg"/></filter><mask id="mask" x="8.66" y="12.4" width="34.48" height="28.81" maskUnits="userSpaceOnUse"><g style="filter:url(#luminosity-noclip)"><path d="M21.94,34.58a6.64,6.64,0,1,1-6.63-6.64A6.64,6.64,0,0,1,21.94,34.58Zm-6.61,1.1c.71,0,1.42,0,2.13,0a1.1,1.1,0,1,0,0-2.2c-1.43,0-2.85,0-4.27,0A1.09,1.09,0,0,0,12,34.55a1.1,1.1,0,0,0,1.2,1.13C13.9,35.7,14.61,35.68,15.33,35.68Z"/><path d="M15.33,35.68c-.72,0-1.43,0-2.14,0A1.1,1.1,0,0,1,12,34.55a1.09,1.09,0,0,1,1.19-1.07c1.42,0,2.84,0,4.27,0a1.1,1.1,0,1,1,0,2.2C16.75,35.7,16,35.68,15.33,35.68Z"/><path d="M14.2,34.6c0-.71,0-1.42,0-2.14a1.1,1.1,0,1,1,2.2,0c0,1.42,0,2.85,0,4.27a1.1,1.1,0,1,1-2.2,0C14.18,36,14.2,35.31,14.2,34.6Z"/></g></mask></defs><title>ถอนเงิน</title><g id="Layer_2" data-name="Layer 2"><g id="L1_Image" data-name="L1 Image"><g id="Group_458" data-name="Group 458"><circle id="Ellipse_38-5" data-name="Ellipse 38-5" cx="26.67" cy="26.67" r="26.17" style="fill:#141615;stroke:#000;stroke-miterlimit:10"/></g><g style="mask:url(#mask)"><path d="M42.22,35.51h0l0,.06c-.1.2-.2.38-.3.55h0a2.3,2.3,0,0,1-2.22,1.33H21.84l.09-.28a7.1,7.1,0,0,0,.3-2.07A7.23,7.23,0,0,0,15,27.9c-.24,0-.47,0-.7,0V19.17c.2-.06.31.08.41.22a2.05,2.05,0,0,0,1.89.86c2.21,0,4.42,0,6.64,0H38.92a7.55,7.55,0,0,1,.95,0A2.46,2.46,0,0,1,42,21.72h0a3.91,3.91,0,0,1,.2.41h0a1,1,0,0,0,.07.15h0c0,1.07,0,2.13,0,3.2a1.36,1.36,0,0,1-.1.6l0,.05c-.14.29-.43.26-.69.27-.93,0-1.86,0-2.79,0a3,3,0,0,0-2.54,1.27,2.84,2.84,0,0,0,2.23,4.47c1,0,2,0,3.07,0,.26,0,.56,0,.72.28h0A12.21,12.21,0,0,1,42.22,35.51Z" style="fill:#c37d4d"/><path d="M39.74,38.14q-9.08-.06-18.16,0c.1-.21.18-.42.26-.64l.09-.28q8.78,0,17.56,0a2.65,2.65,0,0,0,2.4-1.08h0a3.57,3.57,0,0,0,.3-.55l0-.07A2.33,2.33,0,0,1,39.74,38.14Z" style="fill:#b17245"/><path d="M41.34,20.07a2.27,2.27,0,0,1,.88,2.26,2.54,2.54,0,0,0-2.81-1.81c-7.61,0-15.22,0-22.83,0a2.16,2.16,0,0,1-2.27-1.37v-.78a.31.31,0,0,1,.43.14,2.18,2.18,0,0,0,2.27.8.86.86,0,0,1,.39,0c.14,0,.26.14.42.12,1.05-.17,2.11,0,3.16-.11a2.81,2.81,0,0,0,1.08,0c1.34,0,2.68-.06,4,0a.7.7,0,0,0,.38,0c1.6,0,3.2,0,4.81,0,.35-.07.71.08,1.06,0,.7-.05,1.4,0,2.1,0,.23-.05.48.07.71,0s.62.08.93,0a9,9,0,0,1,1.87,0,13.24,13.24,0,0,1,2.18,0A1.17,1.17,0,0,1,41.34,20.07Z" style="fill:#c98a5f"/><path d="M17.24,19.62a5.19,5.19,0,0,0-.56,0,2.23,2.23,0,0,1-2.37-1.24v-1a2.58,2.58,0,0,1,2.82-1.81c2.28.06,4.57,0,6.86,0,.1.32-.15.45-.35.56Q21,17.74,18.27,19.29C18,19.47,17.57,19.47,17.24,19.62Z" style="fill:#a76a3f"/><path d="M42.25,26.16c.71.21.89.43.89,1.14,0,1.37,0,2.73,0,4.1,0,.68-.21.92-.88,1.08H38.71a3.15,3.15,0,0,1-3.22-3.08,3.18,3.18,0,0,1,3.15-3.22C39.84,26.14,41.05,26.16,42.25,26.16Z" style="fill:#a76a3f"/><path d="M17.24,19.62C18.12,19,19.1,18.5,20,17.94c1.31-.79,2.64-1.56,4-2.35l4.87-2.81c1-.6,1.35-.52,2,.53.38.65.77,1.28,1.16,1.92.65.28.78.93,1.08,1.46a8.39,8.39,0,0,1,.5.81c.27.49.58.95.85,1.44.12.22.25.43,0,.67H32.32a1.61,1.61,0,0,1-.74-.74c-.64-1.1-1.26-2.22-1.92-3.31-.34-.56-.52-.59-1.1-.26s-1,.56-1.46.84c-.2.12-.44.2-.52.47.23.14.38,0,.53-.1.47-.24.92-.52,1.37-.77s.74-.23,1,.24c.64,1,1.19,2.08,1.8,3.11a.4.4,0,0,1,0,.52H26.49c-.56-.24-1-.61-1.61-.83a3,3,0,0,0-2.75.25c-.37.21-.76.4-1.16.58Z" style="fill:#15b35e"/><path d="M41.34,20.07a3,3,0,0,0-1.87-.45c-.5,0-1,0-1.51,0a1.13,1.13,0,0,1-.45-.62c-.23-.92-.5-1.83-.74-2.76-.06-.24-.11-.48.16-.64.71,0,1.42,0,2.13,0a2.26,2.26,0,0,1,2.28,2.3C41.35,18.61,41.34,19.34,41.34,20.07Z" style="fill:#a76a3f"/><path d="M36.93,15.59c.34,1.34.68,2.68,1,4H36.05a1.06,1.06,0,0,1-.43-.62c-.16-.54-.28-1.09-.44-1.62s-.36-.72-1-.6c-.43.09-.86.33-1.3.05A10.89,10.89,0,0,1,32,15.23c1.19-.32,2.37-.65,3.57-1a.89.89,0,0,1,1.14.63Z" style="fill:#07854c"/><path d="M31.3,19.61c-.63-1.11-1.28-2.2-1.9-3.32-.24-.44-.47-.55-.91-.24s-1.07.62-1.6.93c-.26.14-.53.26-.74-.07s0-.54.3-.71c.76-.44,1.53-.86,2.28-1.32a.62.62,0,0,1,1,.25l2.58,4.48Z" style="fill:#0e9c55"/><path d="M21,19.61a3.63,3.63,0,0,1,5.3-.32,1.81,1.81,0,0,1,.22.32Z" style="fill:#0e9c55"/><path d="M32.9,16.82l1.57-.41c.47-.13.76,0,.88.49.22.9.47,1.8.7,2.71h-.91a1,1,0,0,1-.48-.77c-.13-.58-.21-1.21-1.07-1.1-.07,0-.16-.08-.24-.14A2.88,2.88,0,0,1,32.9,16.82Z" style="fill:#006e43"/><path d="M33.35,17.6c1.21-.26,1.21-.26,1.53,1,.09.34.18.69.26,1h-.67C34.09,18.94,33.72,18.27,33.35,17.6Z" style="fill:#07854c"/><path d="M37.39,28.06A1.78,1.78,0,0,1,40,30.45a1.68,1.68,0,0,1-2.23,0A1.72,1.72,0,0,1,37.39,28.06Z" style="fill:#eec65e"/><path d="M37.39,28.06a2.33,2.33,0,0,0,.16,1.74,1.89,1.89,0,0,0,2.47.65,1.78,1.78,0,1,1-2.63-2.39Z" style="fill:#d6b254"/></g><path d="M15,29.31a5.82,5.82,0,1,0,5.81,5.82A5.82,5.82,0,0,0,15,29.31Zm1.89,6.78c-.62,0-1.25,0-1.87,0s-1.25,0-1.87,0a1,1,0,1,1,0-1.93h3.75a1,1,0,1,1,0,1.93Z" style="fill:#e1584d"/></g></g></svg>