<svg xmlns="http://www.w3.org/2000/svg" viewBox="0 0 53.34 53.34"><title>ฝากประจำ</title><g id="Layer_2" data-name="Layer 2"><g id="L1_Image" data-name="L1 Image"><g id="Group_474" data-name="Group 474"><circle id="Ellipse_38-6" data-name="Ellipse 38-6" cx="26.67" cy="26.67" r="26.17" style="fill:#141615;stroke:#000;stroke-miterlimit:10"/></g><path d="M14.19,12.4h25a1.79,1.79,0,0,1,1.79,1.79v25a1.79,1.79,0,0,1-1.79,1.79h-25a1.79,1.79,0,0,1-1.79-1.79v-25A1.79,1.79,0,0,1,14.19,12.4Z" style="fill:#e4e7e7"/><path d="M39.15,12.4h-25a1.79,1.79,0,0,0-1.79,1.79v4.46H40.94V14.19A1.79,1.79,0,0,0,39.15,12.4Z" style="fill:#18bf62"/><path d="M12.4,17.75H40.94v1.79H12.4Z" style="fill:#11a859"/><path d="M26.67,14.19a.89.89,0,1,1-.89.89A.89.89,0,0,1,26.67,14.19Z" style="fill:#037a47"/><path d="M39.15,39.15h-25a1.78,1.78,0,0,1-1.79-1.78v1.78a1.79,1.79,0,0,0,1.79,1.79h25a1.79,1.79,0,0,0,1.79-1.79V37.37A1.78,1.78,0,0,1,39.15,39.15Z" style="fill:#c2c5c5"/><path d="M31.81,27.59a2.42,2.42,0,0,0-.91.16l0,0c.48-.63,1.42-1.5,2-2.17a.89.89,0,0,0,.31-.55,1.19,1.19,0,0,0-1-1,.76.76,0,0,0-.43.1,2.56,2.56,0,0,0-.47.32c-1.46,1.27-3.67,4.15-3.67,6.19A3.4,3.4,0,0,0,31.2,34a3.48,3.48,0,0,0,3.63-3.36A3,3,0,0,0,31.81,27.59ZM31.2,32a1.41,1.41,0,1,1,1.38-1.41A1.35,1.35,0,0,1,31.2,32Zm-6.61.13H21.85c1.27-1.48,3.59-3.38,3.59-5.29C25.44,25.12,24,24,22.12,24a3.4,3.4,0,0,0-3.52,3.13,1,1,0,0,0,1.1,1c1.43,0,.61-2.23,2.33-2.23A1.07,1.07,0,0,1,23.11,27a2.22,2.22,0,0,1-.52,1.28c-1.14,1.52-2.49,2.76-3.73,4.12a1.12,1.12,0,0,0-.35.7c0,.64.51.91,1.17.91h5c.57,0,1.08-.27,1.08-.91S25.25,32.16,24.59,32.16Z" style="fill:#324d5b"/></g></g></svg>