<svg xmlns="http://www.w3.org/2000/svg" xmlns:xlink="http://www.w3.org/1999/xlink" viewBox="0 0 53.34 53.34"><defs><filter id="luminosity-noclip" x="9.16" y="12.4" width="34.48" height="28.81" filterUnits="userSpaceOnUse" color-interpolation-filters="sRGB"><feFlood flood-color="#fff" result="bg"/><feBlend in="SourceGraphic" in2="bg"/></filter><mask id="mask" x="9.16" y="12.4" width="34.48" height="28.81" maskUnits="userSpaceOnUse"><g style="filter:url(#luminosity-noclip)"><path d="M22.44,34.58a6.64,6.64,0,1,1-6.63-6.64A6.64,6.64,0,0,1,22.44,34.58Zm-6.61,1.1c.71,0,1.42,0,2.13,0a1.1,1.1,0,1,0,0-2.2c-1.43,0-2.85,0-4.27,0a1.09,1.09,0,0,0-1.19,1.07,1.1,1.1,0,0,0,1.2,1.13C14.4,35.7,15.11,35.68,15.83,35.68Z"/><path d="M15.83,35.68c-.72,0-1.43,0-2.14,0a1.1,1.1,0,0,1-1.2-1.13,1.09,1.09,0,0,1,1.19-1.07c1.42,0,2.84,0,4.27,0a1.1,1.1,0,1,1,0,2.2C17.25,35.7,16.54,35.68,15.83,35.68Z"/><path d="M14.7,34.6c0-.71,0-1.42,0-2.14a1.1,1.1,0,1,1,2.2,0c0,1.42,0,2.85,0,4.27a1.1,1.1,0,1,1-2.2,0C14.68,36,14.7,35.31,14.7,34.6Z"/></g></mask></defs><title>ฝากเงิน</title><g id="Layer_2" data-name="Layer 2"><g id="L1_Image" data-name="L1 Image"><g id="Group_447" data-name="Group 447"><circle id="Ellipse_38" data-name="Ellipse 38" cx="26.67" cy="26.67" r="26.17" style="fill:#141615;stroke:#000;stroke-miterlimit:10"/></g><g style="mask:url(#mask)"><path d="M42.72,35.51h0l0,.06c-.1.2-.2.38-.3.55h0a2.3,2.3,0,0,1-2.22,1.33H22.34l.09-.28a7.1,7.1,0,0,0,.3-2.07,7.23,7.23,0,0,0-7.22-7.23c-.24,0-.47,0-.7,0V19.17c.2-.06.31.08.41.22a2.05,2.05,0,0,0,1.89.86c2.21,0,4.42,0,6.64,0H39.42a7.55,7.55,0,0,1,.95,0,2.46,2.46,0,0,1,2.09,1.46h0a3.91,3.91,0,0,1,.2.41h0a1,1,0,0,0,.07.15h0c0,1.07,0,2.13,0,3.2a1.36,1.36,0,0,1-.1.6l0,.05c-.14.29-.43.26-.69.27-.93,0-1.86,0-2.79,0a3,3,0,0,0-2.54,1.27,2.84,2.84,0,0,0,2.23,4.47c1,0,2,0,3.07,0,.26,0,.56,0,.72.28h0A12.21,12.21,0,0,1,42.72,35.51Z" style="fill:#c37d4d"/><path d="M40.24,38.14q-9.08-.06-18.16,0c.1-.21.18-.42.26-.64l.09-.28q8.78,0,17.56,0a2.65,2.65,0,0,0,2.4-1.08h0a3.57,3.57,0,0,0,.3-.55l0-.07A2.33,2.33,0,0,1,40.24,38.14Z" style="fill:#b17245"/><path d="M41.84,20.07a2.27,2.27,0,0,1,.88,2.26,2.54,2.54,0,0,0-2.81-1.81c-7.61,0-15.22,0-22.83,0a2.16,2.16,0,0,1-2.27-1.37v-.78a.31.31,0,0,1,.43.14,2.18,2.18,0,0,0,2.27.8.86.86,0,0,1,.39,0c.14,0,.26.14.42.12,1.05-.17,2.11,0,3.16-.11a2.81,2.81,0,0,0,1.08,0c1.34,0,2.68-.06,4,0a.7.7,0,0,0,.38,0c1.6,0,3.2,0,4.81,0,.35-.07.71.08,1.06,0,.7-.05,1.4,0,2.1,0,.23-.05.48.07.71,0s.62.08.93,0a9,9,0,0,1,1.87,0,13.24,13.24,0,0,1,2.18,0A1.17,1.17,0,0,1,41.84,20.07Z" style="fill:#c98a5f"/><path d="M17.74,19.62a5.19,5.19,0,0,0-.56,0,2.23,2.23,0,0,1-2.37-1.24v-1a2.58,2.58,0,0,1,2.82-1.81c2.28.06,4.57,0,6.86,0,.1.32-.15.45-.35.56q-2.67,1.59-5.37,3.14C18.45,19.47,18.07,19.47,17.74,19.62Z" style="fill:#a76a3f"/><path d="M42.75,26.16c.71.21.89.43.89,1.14,0,1.37,0,2.73,0,4.1,0,.68-.21.92-.88,1.08H39.21a3.15,3.15,0,1,1-.07-6.3C40.34,26.14,41.55,26.16,42.75,26.16Z" style="fill:#a76a3f"/><path d="M17.74,19.62c.88-.64,1.86-1.12,2.79-1.68,1.31-.79,2.64-1.56,4-2.35l4.87-2.81c1-.6,1.35-.52,2,.53.38.65.77,1.28,1.16,1.92.65.28.78.93,1.08,1.46a8.39,8.39,0,0,1,.5.81c.27.49.58.95.85,1.44.12.22.25.43,0,.67H32.82a1.61,1.61,0,0,1-.74-.74c-.64-1.1-1.26-2.22-1.92-3.31-.34-.56-.52-.59-1.1-.26s-1,.56-1.46.84c-.2.12-.44.2-.52.47.23.14.38,0,.53-.1.47-.24.92-.52,1.37-.77s.74-.23,1,.24c.64,1,1.19,2.08,1.8,3.11a.4.4,0,0,1,0,.52H27c-.56-.24-1-.61-1.61-.83a3,3,0,0,0-2.75.25c-.37.21-.76.4-1.16.58Z" style="fill:#15b35e"/><path d="M41.84,20.07A3,3,0,0,0,40,19.62c-.5,0-1,0-1.51,0A1.13,1.13,0,0,1,38,19c-.23-.92-.5-1.83-.74-2.76-.06-.24-.11-.48.16-.64.71,0,1.42,0,2.13,0a2.26,2.26,0,0,1,2.28,2.3C41.85,18.61,41.84,19.34,41.84,20.07Z" style="fill:#a76a3f"/><path d="M37.43,15.59c.34,1.34.68,2.68,1,4H36.55a1.06,1.06,0,0,1-.43-.62c-.16-.54-.28-1.09-.44-1.62s-.36-.72-1-.6c-.43.09-.86.33-1.3.05a10.89,10.89,0,0,1-.91-1.59c1.19-.32,2.37-.65,3.57-1a.89.89,0,0,1,1.14.63Z" style="fill:#07854c"/><path d="M31.8,19.61c-.63-1.11-1.28-2.2-1.9-3.32-.24-.44-.47-.55-.91-.24s-1.07.62-1.6.93c-.26.14-.53.26-.74-.07s0-.54.3-.71c.76-.44,1.53-.86,2.28-1.32a.62.62,0,0,1,1,.25l2.58,4.48Z" style="fill:#0e9c55"/><path d="M21.47,19.61a3.63,3.63,0,0,1,5.3-.32,1.81,1.81,0,0,1,.22.32Z" style="fill:#0e9c55"/><path d="M33.4,16.82,35,16.41c.47-.13.76,0,.88.49.22.9.47,1.8.7,2.71h-.91a1,1,0,0,1-.48-.77c-.13-.58-.21-1.21-1.07-1.1-.07,0-.16-.08-.24-.13A3.1,3.1,0,0,1,33.4,16.82Z" style="fill:#006e43"/><path d="M33.85,17.61c1.21-.27,1.21-.27,1.53,1,.09.34.18.69.26,1H35Z" style="fill:#07854c"/><path d="M37.89,28.06a1.78,1.78,0,0,1,2.63,2.39,1.68,1.68,0,0,1-2.23,0A1.72,1.72,0,0,1,37.89,28.06Z" style="fill:#eec65e"/><path d="M37.89,28.06a2.33,2.33,0,0,0,.16,1.74,1.89,1.89,0,0,0,2.47.65,1.78,1.78,0,1,1-2.63-2.39Z" style="fill:#d6b254"/></g><path d="M15.51,29.31a5.82,5.82,0,1,0,5.81,5.82A5.82,5.82,0,0,0,15.51,29.31Zm1.94,6.78h-1v1a1,1,0,1,1-1.94,0v-1h-1a1,1,0,1,1,0-1.93h1v-1a1,1,0,0,1,1.94,0v1h1a1,1,0,0,1,0,1.93Z" style="fill:#15b35e"/></g></g></svg>