<svg xmlns="http://www.w3.org/2000/svg" viewBox="0 0 53.34 53.34"><title>วีไอพี</title><g id="Layer_2" data-name="Layer 2"><g id="L1_Image" data-name="L1 Image"><g id="Group_476" data-name="Group 476"><circle id="Ellipse_38-8" data-name="Ellipse 38-8" cx="26.67" cy="26.67" r="26.17" style="fill:#141615;stroke:#000;stroke-miterlimit:10"/></g><path d="M40.72,21.33H30.81L27.75,11.9a1.13,1.13,0,0,0-2.15,0l-3.07,9.43-7.94,1.78L34.8,39.48l1.35.31a1.08,1.08,0,0,0,.28-1.15l-3.06-9.43,8-5.83A1.13,1.13,0,0,0,40.72,21.33Z" style="fill:#18bf62"/><path d="M12.62,21.33A1.14,1.14,0,0,0,12,23.38l8,5.83-3.06,9.43a1.13,1.13,0,0,0,1.74,1.26l8-5.83,8,5.83a1.12,1.12,0,0,0,1.46-.11l-15-12.91a1,1,0,0,1-.28-1.09l1.66-4.46Z" style="fill:#11a859"/><path d="M26.83,29.66a.49.49,0,0,1-.49-.49V24.25a.49.49,0,0,1,1,0v4.92A.49.49,0,0,1,26.83,29.66Z" style="fill:#fff"/><path d="M23.12,29.66a.59.59,0,0,1-.56-.4l-1.69-4.85a.49.49,0,1,1,.93-.33l1.31,3.8,1.26-3.78a.49.49,0,0,1,.93.31l-1.61,4.84a.6.6,0,0,1-.56.41Z" style="fill:#fff"/><path d="M30.48,23.76H29.11a.5.5,0,0,0-.35.14.49.49,0,0,0-.14.34h0v4.93a.49.49,0,0,0,1,0V27.52h.88a1.88,1.88,0,1,0,0-3.75Zm0,2.77h-.87c0-.32,0-.7,0-.91v-.9h.88a.9.9,0,1,1,0,1.8Z" style="fill:#fff"/><path d="M20.18,21.05A2.69,2.69,0,0,1,18,18.88a.3.3,0,0,0-.29-.25.29.29,0,0,0-.28.25,2.69,2.69,0,0,1-2.18,2.17.3.3,0,0,0,0,.58,2.69,2.69,0,0,1,2.18,2.17.28.28,0,0,0,.28.25A.29.29,0,0,0,18,23.8a2.69,2.69,0,0,1,2.18-2.17.3.3,0,0,0,0-.58Z" style="fill:#fec95a"/><path d="M36.25,33.9a1.7,1.7,0,0,1-.61-1.59.32.32,0,0,0-.19-.34.31.31,0,0,0-.37.09,1.73,1.73,0,0,1-1.59.62.3.3,0,0,0-.34.18.31.31,0,0,0,.09.37,1.75,1.75,0,0,1,.62,1.6.3.3,0,0,0,.18.33.3.3,0,0,0,.37-.09,1.72,1.72,0,0,1,1.6-.61.31.31,0,0,0,.33-.19.3.3,0,0,0-.09-.37Z" style="fill:#fec95a"/></g></g></svg>