<svg xmlns="http://www.w3.org/2000/svg" viewBox="0 0 53.34 53.34"><title>ออกจากระบบ</title><g id="Layer_2" data-name="Layer 2"><g id="L1_Image" data-name="L1 Image"><g id="Group_476" data-name="Group 476"><circle id="Ellipse_38-8" data-name="Ellipse 38-8" cx="26.67" cy="26.67" r="26.17" style="fill:#141615;stroke:#000;stroke-miterlimit:10"/></g><path d="M17,23.69h19.4a1.49,1.49,0,0,1,1.49,1.49V39.35a1.5,1.5,0,0,1-1.49,1.5H17a1.5,1.5,0,0,1-1.49-1.5V25.18A1.49,1.49,0,0,1,17,23.69Z" style="fill:#ecc45c"/><path d="M17,22.94h19.4a1.49,1.49,0,0,1,1.49,1.49v1.49a1.5,1.5,0,0,1-1.49,1.5H17a1.5,1.5,0,0,1-1.49-1.5V24.43A1.49,1.49,0,0,1,17,22.94Z" style="fill:#f8d578"/><path d="M20.14,24.43c-.92,0-1.68.34-1.68.75s.76.74,1.68.74,1.68-.33,1.68-.74S21.07,24.43,20.14,24.43Zm13.06,0c-.93,0-1.68.34-1.68.75s.75.74,1.68.74,1.68-.33,1.68-.74S34.13,24.43,33.2,24.43Z" style="fill:#e1c16d"/><path d="M26.67,30.4a3.36,3.36,0,1,1-3.36,3.36A3.35,3.35,0,0,1,26.67,30.4Z" style="fill:#d4b053"/><path d="M26.67,31.15a2.61,2.61,0,1,1-2.61,2.61A2.61,2.61,0,0,1,26.67,31.15Z" style="fill:#e4e7e7"/><path d="M26.67,32.64A.37.37,0,0,1,27,33V34.5a.37.37,0,1,1-.74,0V33A.37.37,0,0,1,26.67,32.64Z" style="fill:#324d5b"/><path d="M26.67,12.5a7.82,7.82,0,0,0-7.83,7.83v4.48c0,.41.58.74,1.3.74s1.31-.33,1.31-.74V20.33a5.22,5.22,0,0,1,10.44,0v4.48c0,.41.59.74,1.31.74s1.3-.33,1.3-.74V20.33A7.82,7.82,0,0,0,26.67,12.5Z" style="fill:#e4e7e7"/><path d="M26.67,14a6.34,6.34,0,0,0-6.34,6.34v5.21c.63-.05,1.12-.36,1.12-.73V20.33a5.22,5.22,0,0,1,10.44,0v4.48c0,.37.49.68,1.12.73V20.33A6.34,6.34,0,0,0,26.67,14Z" style="fill:#cdcfcf"/></g></g></svg>