<svg xmlns="http://www.w3.org/2000/svg" viewBox="0 0 53.34 53.34"><title>โปรโมชั่น</title><g id="Layer_2" data-name="Layer 2"><g id="L1_Image" data-name="L1 Image"><g id="Group_471" data-name="Group 471"><circle id="Ellipse_38-3" data-name="Ellipse 38-3" cx="26.67" cy="26.67" r="26.17" style="fill:#141615;stroke:#000;stroke-miterlimit:10"/></g><path d="M26.79,12.4c1,.61,2,1,3,1.57.05.2-.11.27-.22.34A9.32,9.32,0,0,0,27.1,17c-.34.51-.51.51-.84,0a10.46,10.46,0,0,0-2.4-2.61c-.13-.11-.34-.18-.3-.42,1-.55,2.05-1,3-1.57Z" style="fill:#18bf62"/><path d="M23.56,14a10.34,10.34,0,0,1,2.92,3.15c.18.29.29.17.42,0A9.76,9.76,0,0,1,29.79,14a4.64,4.64,0,0,1,3.14-.58c1.72.42,2.3,1.24,2.15,3,0,.06.05.13.08.2-.87,1.85-2.53,2.51-4.26,3,1.33.7,2.79,1.42,4.21,2.22.17.09.39.15.43.39a.34.34,0,0,1-.22.29c-1.08.53-2.12,1.14-3.24,1.58a.49.49,0,0,1-.17,0c-1.51-.77-3-1.59-4.49-2.43a1.25,1.25,0,0,0-1.42,0c-1.49.85-3,1.69-4.54,2.46a.47.47,0,0,1-.17,0c-1.13-.44-2.18-1-3.27-1.59a.34.34,0,0,1-.2-.25c0-.3.31-.35.51-.46,1.28-.66,2.56-1.34,3.9-2.07-.6-.21-1.16-.36-1.68-.6a4.43,4.43,0,0,1-2.19-2,1,1,0,0,1-.16-.52c.09-.47-.05-.94.08-1.42a2.41,2.41,0,0,1,1.62-1.67,4,4,0,0,1,3,.16Z" style="fill:#f1f1f1"/><path d="M17.87,22.22c1.11.67,2.31,1.18,3.46,1.79a.82.82,0,0,1,.17.62c0,1.3,0,2.61,0,3.91,0,.32,0,.64,0,1,0,2.72,0,5.43,0,8.15a.78.78,0,0,1-.18.62,32.24,32.24,0,0,1-3.57-1.8,1.31,1.31,0,0,1-.17-.8c0-2.65,0-5.3,0-7.94,0-.33,0-.65,0-1,0-1.28,0-2.56,0-3.84a1.32,1.32,0,0,1,.11-.65A.13.13,0,0,1,17.87,22.22Z" style="fill:#e0e0e0"/><path d="M32,29.47l0,8.81-5,2.47c-.16.08-.31.3-.54.12a17.7,17.7,0,0,1,0-2.06c0-2.18,0-4.37,0-6.55a1.21,1.21,0,0,1,0-.18.89.89,0,0,1,.41-.36c1.5-.78,3-1.49,4.56-2.22C31.69,29.43,31.85,29.34,32,29.47Z" style="fill:#037a47"/><path d="M26.68,32v8.22c0,.21.08.45-.15.62l-5.21-2.59,0-8.81c.21-.15.39,0,.56.08,1.42.69,2.82,1.45,4.27,2.08C26.38,31.72,26.6,31.79,26.68,32Z" style="fill:#0a9150"/><path d="M35.61,36.47V27.68a.7.7,0,0,1,.36-.34l3.64-1.82a.54.54,0,0,1,.43-.07c0,2.83,0,5.65,0,8.47a.49.49,0,0,1-.33.51C38.36,35.1,37,35.79,35.61,36.47Z" style="fill:#037a47"/><path d="M17.74,27.68c0,2.93,0,5.87,0,8.8-1.39-.68-2.78-1.38-4.17-2a.46.46,0,0,1-.29-.48c0-2.79,0-5.59,0-8.39.16-.13.31,0,.46,0,1.21.52,2.38,1.13,3.56,1.72A.71.71,0,0,1,17.74,27.68Z" style="fill:#0a9150"/><path d="M17.87,22.22h-.11a.6.6,0,0,1-.32-.07c-1.51-.79-3.07-1.45-4.58-2.24-.16-.09-.41-.13-.36-.41l5.7-2.89A4.74,4.74,0,0,0,20.63,19a20.85,20.85,0,0,0,2,.66Z" style="fill:#18bf62"/><path d="M13.31,24.67a.94.94,0,0,1,.52.16l3.91,2v.89c-1.47-.73-2.9-1.51-4.42-2.12Z" style="fill:#006e43"/><path d="M40.05,25.45l-4.43,2.23v-.89c1.48-.71,2.88-1.55,4.43-2.12Z" style="fill:#006e43"/><path d="M35.6,22.22l-.1,0-4.88-2.63a17.14,17.14,0,0,0,1.91-.68,4.82,4.82,0,0,0,2.41-2.13.27.27,0,0,1,.22-.15l5.17,2.6.53.29a22.71,22.71,0,0,1-3.1,1.6A19.19,19.19,0,0,0,35.6,22.22Z" style="fill:#18bf62"/><path d="M32,24v4.58a2,2,0,0,1-.84.52c-1.35.59-2.65,1.29-4,1.93a1.21,1.21,0,0,1-.52.19,11.56,11.56,0,0,1-1.77-.77c-1.06-.48-2.09-1-3.13-1.55a1.25,1.25,0,0,1-.44-.32V24a.15.15,0,0,1,.09,0c.28-.12.5,0,.73.16,1.31.66,2.64,1.28,4,1.93a1.25,1.25,0,0,0,1.16,0c1.34-.6,2.63-1.3,4-1.93.23-.12.45-.27.73-.16Z" style="fill:#11a859"/><path d="M32,24a13.58,13.58,0,0,0-1.85.87c-1,.47-2,.93-3,1.43a.94.94,0,0,1-.93,0c-1.44-.72-2.89-1.42-4.34-2.12-.15-.07-.31-.12-.46-.18l5-2.75a.47.47,0,0,1,.51,0C28.61,22.16,30.28,23.07,32,24Z" style="fill:#18bf62"/><path d="M28.91,18.21a6,6,0,0,1,1.68-2.31,1.6,1.6,0,0,1,1.19-.36.71.71,0,0,1,.55,1.14,2,2,0,0,1-.7.71A6,6,0,0,1,28.91,18.21Z" style="fill:#18bf62"/><path d="M24.44,18.21a6.17,6.17,0,0,1-2.63-.77,2.28,2.28,0,0,1-.76-.72.72.72,0,0,1,.6-1.19,1.61,1.61,0,0,1,1.13.39A6.19,6.19,0,0,1,24.44,18.21Z" style="fill:#18bf62"/><path d="M21.34,28.58l1.8.85,3.54,1.71a.71.71,0,0,1,0,.89h0l-5.33-2.56Z" style="fill:#006e43"/><path d="M26.68,32v-.89c1.77-.88,3.51-1.8,5.34-2.56v.89C30.2,30.25,28.45,31.15,26.68,32Z" style="fill:#006e43"/><path d="M12.5,19.51a15.63,15.63,0,0,0,2.4,1.25,27.54,27.54,0,0,1,2.86,1.47l0,4.56a.32.32,0,0,1-.27,0c-1.39-.68-5.08-2.54-5.08-2.55,0-1.26,0-3.22,0-4.2C12.41,19.85,12.34,19.66,12.5,19.51Z" style="fill:#11a859"/><path d="M40.86,19.5l.1,0v4.69c-.44.25-1.12.66-1.26.71-1.22.51-2.36,1.17-3.55,1.73-.21.09-.46.35-.66,0a40.36,40.36,0,0,1,0-4.26.57.57,0,0,1,.3-.44C37.44,21.09,39.13,20.26,40.86,19.5Z" style="fill:#11a859"/><path d="M32,24l3-1.51c.17-.08.36-.12.46-.29s.08,0,.1,0l0,4.57c0,.89.16,6.23.16,8.88a1.31,1.31,0,0,1-.17.8A28.47,28.47,0,0,1,32,38.28a.78.78,0,0,1-.18-.62c0-2.72,0-5.43,0-8.14,0-.33,0-.65,0-1,0-1.31,0-2.62,0-3.92A.88.88,0,0,1,32,24Z" style="fill:#e0e0e0"/></g></g></svg>