<svg xmlns="http://www.w3.org/2000/svg" xmlns:xlink="http://www.w3.org/1999/xlink" viewBox="0 0 150 150"><defs><linearGradient id="linear-gradient" x1="75" y1="-189.82" x2="75" y2="147.29" gradientUnits="userSpaceOnUse"><stop offset="0" stop-color="#1a7b5e"/><stop offset="1" stop-color="#1aaf5e"/></linearGradient></defs><title>logout</title><g id="Layer_2" data-name="Layer 2"><g id="Capa_1" data-name="Capa 1"><g id="Layer_2-2" data-name="Layer 2"><g id="Layer_1-2" data-name="Layer 1-2"><g id="sign_out" data-name="sign out"><path id="Icon_color" data-name="Icon color" d="M16.66,150A16.66,16.66,0,0,1,0,133.34H0V16.66A16.66,16.66,0,0,1,16.66,0H62.51a4.14,4.14,0,0,1,4.14,4.14v8.35a4.14,4.14,0,0,1-4.11,4.17H16.66V133.34H62.51a4.14,4.14,0,0,1,4.14,4.14v8.35A4.14,4.14,0,0,1,62.54,150H16.66Zm82.76-26.09-5.93-5.83a4.17,4.17,0,0,1,0-5.87h0l28.76-28.67H37.47a4.18,4.18,0,0,1-4.18-4.17h0V70.83a4.18,4.18,0,0,1,4.18-4.18h84.78L93.49,38a4.07,4.07,0,0,1,0-5.74h0l5.93-5.9a4.17,4.17,0,0,1,5.87,0h0L148.17,69A6.48,6.48,0,0,1,150,73.4v3.26a6.25,6.25,0,0,1-1.83,4.41l-42.84,42.84A4.22,4.22,0,0,1,99.42,123.91Z" style="fill:url(#linear-gradient)"/></g></g></g></g></g></svg>