<svg xmlns="http://www.w3.org/2000/svg" xmlns:xlink="http://www.w3.org/1999/xlink" viewBox="0 0 150 150"><defs><linearGradient id="linear-gradient" x1="75" y1="-11.04" x2="75" y2="163.61" gradientUnits="userSpaceOnUse"><stop offset="0" stop-color="#1a7b5e"/><stop offset="1" stop-color="#1aaf5e"/></linearGradient></defs><title>wheel</title><g id="Layer_2" data-name="Layer 2"><g id="Capa_1" data-name="Capa 1"><g id="L1_Image" data-name="L1 Image"><circle cx="75" cy="75" r="70.04" style="fill:#15b35e"/><path d="M75,150a75,75,0,1,1,75-75h0A75.09,75.09,0,0,1,75,150ZM75,9.87a65.18,65.18,0,1,0,65.18,65.18h0A65.22,65.22,0,0,0,75,9.87Z" style="fill:url(#linear-gradient)"/><path d="M68,89.68c-.83,1.36-2.38,3.69-3.16,4.86-2.38,4-4.86,8.07-7.19,12.1l-8.56-4.86a10.83,10.83,0,0,0,1.61-5.73h0A11.27,11.27,0,0,0,40.2,85.21V75.49H58.62A14.92,14.92,0,0,0,68,89.68Z" style="fill:#f1eeee"/><path d="M57.65,106.89,57,108c-3.07,5.25-12.35,21.93-13.56,23.92a63.6,63.6,0,0,1-25.13-24.84,41.4,41.4,0,0,1-2.82-5.3L29,100.13a11.14,11.14,0,0,0,10.35,7.1,11.29,11.29,0,0,0,9.72-5.45Z" style="fill:#f1eeee"/><path d="M50.7,96.05a11,11,0,0,1-1.61,5.78A11.29,11.29,0,1,1,38.79,85h1.12A11.3,11.3,0,0,1,50.41,95.8Z" style="fill:#fec95a"/><path d="M40.1,75.34v9.72H39a11.22,11.22,0,0,0-10.69,11,10.94,10.94,0,0,0,.83,4.18l-13.57,1.65A66.69,66.69,0,0,1,9.92,75.15Z" style="fill:#f1eeee"/><path d="M82.1,89.68c.82,1.36,2.43,3.69,3.2,4.86,2.39,4,4.87,8.07,7.2,12.1l8.5-4.86a11.43,11.43,0,0,1-1.55-5.73h0A11.27,11.27,0,0,1,110,85.21V75.49H91.57A15.12,15.12,0,0,1,82.1,89.68Z" style="fill:#f1eeee"/><path d="M92.5,106.89l.63,1.11c3.06,5.25,12.35,21.93,13.56,23.92a63.22,63.22,0,0,0,25.08-24.84,35.61,35.61,0,0,0,2.77-5.3L121,100.13a11.34,11.34,0,0,1-10.4,7.1,11.5,11.5,0,0,1-9.72-5.45Z" style="fill:#f1eeee"/><path d="M99.45,96.05a11.18,11.18,0,0,0,11.18,11.18h0a11.33,11.33,0,0,0,10.35-7.1,11.65,11.65,0,0,0,.83-4.08A11.15,11.15,0,0,0,111,85H110A11.29,11.29,0,0,0,99.45,96.05Z" style="fill:#fec95a"/><path d="M110,75.34v9.72h1.07a11.13,11.13,0,0,1,10.74,11,12.48,12.48,0,0,1-.78,4.18l13.51,1.65a66.53,66.53,0,0,0,5.64-26.73Z" style="fill:#f1eeee"/><path d="M84.28,61.44c.78-1.36,1.61-3.5,2.48-4.86,2.34-4.08,4.62-8.12,6.9-12.25L85,39.47a10.38,10.38,0,0,1-4.23,4.23h-.24A11.28,11.28,0,0,1,66,39.91l-8.41,4.86,9.33,16.09A17.14,17.14,0,0,1,84.28,61.44Z" style="fill:#f1eeee"/><path d="M93.66,44.33l.69-1.12C97.41,38,107.52,21.29,108.93,19.3a65.25,65.25,0,0,0-34-9.72,33.9,33.9,0,0,0-6.75.43l5.54,13.13A11.17,11.17,0,0,1,85,39.71Z" style="fill:#f1eeee"/><path d="M80.78,43.7A10.38,10.38,0,0,0,85,39.47a11.18,11.18,0,1,0-19.44-.34,3.85,3.85,0,0,0,.58.92,11.28,11.28,0,0,0,14.59,3.79Z" style="fill:#fec95a"/><path d="M57.55,45.11,66,40.25a3.46,3.46,0,0,1-.58-.93,11.22,11.22,0,0,1,4.27-14.87,11.83,11.83,0,0,1,4-1.31L68.05,10.5a62,62,0,0,0-25.86,8.55Z" style="fill:#f1eeee"/><ellipse cx="75" cy="75" rx="14.78" ry="14.53" style="fill:#18bf62;stroke:#18bf62;stroke-miterlimit:10"/><path d="M75,62.31A12.69,12.69,0,1,1,62,75,12.89,12.89,0,0,1,75,62.31Zm0-3.64a16.52,16.52,0,1,0,.2,0Z" style="fill:#15b35e"/><path d="M28,55.7a11.23,11.23,0,0,0,22.39,1.69c0-.07,0-.15,0-.23a8.9,8.9,0,0,0,0-1.46v-.29A11.34,11.34,0,0,0,38.79,44.57,11.13,11.13,0,0,0,28,55.7Z" style="fill:#fec95a"/><path d="M99.4,55.7a11.23,11.23,0,1,0,22.39,1.69c0-.07,0-.15,0-.23a7.12,7.12,0,0,0,0-1.46v-.29a11.23,11.23,0,0,0-22.41.24Z" style="fill:#fec95a"/><path d="M64.31,116.27a11.23,11.23,0,1,0,22.45,0h0a11.23,11.23,0,0,0-22.45,0Z" style="fill:#fec95a"/></g></g></g></svg>