<?xml version="1.0" encoding="utf-8"?>
<!-- Generator: Adobe Illustrator 24.0.2, SVG Export Plug-In . SVG Version: 6.00 Build 0)  -->
<svg version="1.1" id="star" xmlns="http://www.w3.org/2000/svg" xmlns:xlink="http://www.w3.org/1999/xlink" x="0px" y="0px"
	 viewBox="0 0 38 38" style="enable-background:new 0 0 38 38;" xml:space="preserve">
<style type="text/css">
	.st0{fill:#BF2626;}
</style>
<title>tip_circle</title>
<g>
	<path class="st0" d="M1.5,32.7l13.2-13.6L3.3,7.4c-0.5-0.5-0.7-1-0.7-1.5c0-0.1,0.1-0.4,0.2-0.7C2.9,4.7,3.4,4.4,4.1,4
		c0.5-0.4,1.2-0.5,2-0.5c0.1,0,0.4,0,1,0.1c0.5,0,1.1,0.4,1.6,1l1.2,1.2L13,8.9l5.9,6L28.9,4.4c0.5-0.6,1.1-0.9,1.6-1
		c0.5,0,0.9-0.1,1-0.1c0.8,0,1.4,0.2,2,0.5c0.7,0.4,1.2,0.7,1.3,1.1C34.9,5.3,35,5.6,35,5.8c0,0.5-0.2,1-0.6,1.5L22.9,19.2l13,13.4
		c0.5,0.5,0.7,1,0.7,1.5c0,0.2-0.1,0.4-0.2,0.8c-0.1,0.4-0.6,0.8-1.3,1.2c-0.5,0.3-1.2,0.5-2,0.5c-0.1,0-0.5,0-1-0.1
		c-0.5,0-1.1-0.4-1.7-1L18.8,23.5L7,35.6c-0.5,0.5-1.1,0.8-1.6,0.9c-0.5,0.1-0.9,0.1-1.2,0.1c-0.7,0-1.3-0.1-1.9-0.4
		c-0.7-0.4-1.1-0.8-1.2-1.2C1,34.5,1,34.2,1,34.1C1,33.6,1.1,33.1,1.5,32.7z"/>
</g>
</svg>
