<svg xmlns="http://www.w3.org/2000/svg" xmlns:xlink="http://www.w3.org/1999/xlink" viewBox="0 0 132.34 150"><defs><linearGradient id="linear-gradient" x1="54.5" y1="39.24" x2="130.59" y2="39.24" gradientUnits="userSpaceOnUse"><stop offset="0" stop-color="#1a7b5e"/><stop offset="1" stop-color="#1aaf5e"/></linearGradient><linearGradient id="linear-gradient-2" x1="31.45" y1="62.41" x2="107.49" y2="62.41" xlink:href="#linear-gradient"/><linearGradient id="linear-gradient-3" x1="0" y1="103.63" x2="56.69" y2="103.63" xlink:href="#linear-gradient"/><linearGradient id="linear-gradient-4" x1="47.37" y1="125.69" x2="84.88" y2="125.69" xlink:href="#linear-gradient"/><linearGradient id="linear-gradient-5" x1="88.4" y1="8.79" x2="97.19" y2="8.79" xlink:href="#linear-gradient"/><linearGradient id="linear-gradient-6" x1="114.76" y1="39.55" x2="132.34" y2="39.55" xlink:href="#linear-gradient"/><linearGradient id="linear-gradient-7" x1="105.98" y1="17.58" x2="123.55" y2="17.58" xlink:href="#linear-gradient"/></defs><title>aff_2</title><g id="Layer_2" data-name="Layer 2"><g id="Capa_1" data-name="Capa 1"><path d="M128,62.28,69.51,3.77A8.79,8.79,0,1,0,57.07,16.2l58.51,58.51A8.79,8.79,0,0,0,128,62.28Z" style="fill:url(#linear-gradient)"/><path d="M52.73,24.29l-.44,2.21A94.46,94.46,0,0,1,31.45,68.7l31.83,31.83c12-10.2,26.48-17.94,42-21l2.21-.44Z" style="fill:url(#linear-gradient-2)"/><path d="M25.62,75.29,3.86,97a13.19,13.19,0,0,0,0,18.65l12.43,12.42a13.18,13.18,0,0,0,18.65,0l21.75-21.75Zm3.1,34.18a4.39,4.39,0,1,1-6.21-6.21L28.72,97a4.4,4.4,0,0,1,6.22,6.22Z" style="fill:url(#linear-gradient-3)"/><path d="M75,130.45l6-6a13.18,13.18,0,0,0,0-18.64l-4.44-4.44a83.14,83.14,0,0,0-7.08,5.35l5.3,5.31a4.38,4.38,0,0,1,0,6.21l-6.07,6.08-8.93-8.65L47.37,128.11l19.94,19.32A8.79,8.79,0,1,0,79.73,135Z" style="fill:url(#linear-gradient-4)"/><path d="M92.79,0A4.39,4.39,0,0,0,88.4,4.39v8.79a4.4,4.4,0,1,0,8.79,0V4.39A4.4,4.4,0,0,0,92.79,0Z" style="fill:url(#linear-gradient-5)"/><path d="M128,35.16h-8.79a4.4,4.4,0,1,0,0,8.79H128a4.4,4.4,0,0,0,0-8.79Z" style="fill:url(#linear-gradient-6)"/><path d="M122.27,10.08a4.39,4.39,0,0,0-6.22,0l-8.79,8.79a4.39,4.39,0,0,0,6.22,6.21l8.79-8.79A4.4,4.4,0,0,0,122.27,10.08Z" style="fill:url(#linear-gradient-7)"/></g></g></svg>