<svg xmlns="http://www.w3.org/2000/svg" xmlns:xlink="http://www.w3.org/1999/xlink" viewBox="0 0 150 142.89"><defs><linearGradient id="linear-gradient" y1="93.62" x2="35.16" y2="93.62" gradientUnits="userSpaceOnUse"><stop offset="0" stop-color="#1a7b5e"/><stop offset="1" stop-color="#1aaf5e"/></linearGradient><linearGradient id="linear-gradient-2" x1="43.95" y1="71.44" x2="150" y2="71.44" xlink:href="#linear-gradient"/></defs><title>like</title><g id="Layer_2" data-name="Layer 2"><g id="Capa_1" data-name="Capa 1"><rect y="47.23" width="35.16" height="92.79" style="fill:url(#linear-gradient)"/><path d="M146.8,86a14.82,14.82,0,0,0-3-8.93,14.89,14.89,0,0,0-8.71-27H101.26L106,33.85V26.06A26.09,26.09,0,0,0,79.91,0,6.32,6.32,0,0,0,73.6,6.32V23.6C71.25,27.36,58.2,42,44,57.34v76.9l12.16,4.56a64,64,0,0,0,22.53,4.09h46.88a14.89,14.89,0,0,0,11.91-23.82,14.87,14.87,0,0,0,3.2-21A14.85,14.85,0,0,0,146.8,86Z" style="fill:url(#linear-gradient-2)"/></g></g></svg>