<svg xmlns="http://www.w3.org/2000/svg" xmlns:xlink="http://www.w3.org/1999/xlink" viewBox="0 0 150 150"><defs><linearGradient id="linear-gradient" x1="50" y1="136.51" x2="50" y2="6.51" gradientUnits="userSpaceOnUse"><stop offset="0" stop-color="#1a7b5e"/><stop offset="1" stop-color="#1aaf5e"/></linearGradient><linearGradient id="linear-gradient-2" x1="109.38" y1="136.51" x2="109.38" y2="6.51" xlink:href="#linear-gradient"/></defs><title>logout_2</title><g id="Layer_2" data-name="Layer 2"><g id="Capa_1" data-name="Capa 1"><path d="M56.25,75A18.77,18.77,0,0,1,75,56.25h25v-50A6.25,6.25,0,0,0,93.75,0H6.25A6.25,6.25,0,0,0,0,6.25v137.5A6.25,6.25,0,0,0,6.25,150h87.5a6.25,6.25,0,0,0,6.25-6.25v-50H75A18.77,18.77,0,0,1,56.25,75Z" style="fill:url(#linear-gradient)"/><path d="M148.59,79l.06-.07c.1-.14.21-.28.3-.42a2.39,2.39,0,0,0,.13-.21c.06-.1.13-.2.19-.31l.12-.27a2.39,2.39,0,0,0,.13-.28c0-.1.08-.21.12-.31l.09-.26c0-.12.06-.25.09-.37l.06-.22c0-.17.06-.34.08-.51s0-.06,0-.09a6.63,6.63,0,0,0,0-1.26s0-.06,0-.09-.05-.34-.08-.51l-.06-.22c0-.13,0-.25-.09-.37l-.09-.26a2.85,2.85,0,0,0-.12-.31,2.39,2.39,0,0,0-.13-.28l-.12-.27c-.06-.11-.13-.21-.19-.31a2.39,2.39,0,0,0-.13-.21c-.09-.14-.2-.28-.3-.42l-.06-.07c-.14-.17-.29-.34-.44-.49l-25-25a6.25,6.25,0,0,0-8.84,8.84l14.33,14.33H75a6.25,6.25,0,0,0,0,12.5h53.66L114.33,95.58a6.25,6.25,0,0,0,8.84,8.84l25-25C148.3,79.29,148.45,79.12,148.59,79Z" style="fill:url(#linear-gradient-2)"/></g></g></svg>