<svg xmlns="http://www.w3.org/2000/svg" xmlns:xlink="http://www.w3.org/1999/xlink" viewBox="0 0 150.63 150"><defs><linearGradient id="linear-gradient" y1="75" x2="150.63" y2="75" gradientUnits="userSpaceOnUse"><stop offset="0.01" stop-color="#1a7b5e"/><stop offset="1" stop-color="#1aaf5e"/></linearGradient></defs><title>profile_2</title><g id="Layer_2" data-name="Layer 2"><g id="Capa_1" data-name="Capa 1"><path d="M141.55,7.09A27.24,27.24,0,0,0,123.09,0H27.4A27.34,27.34,0,0,0,0,26.68c0,.27,0,.46,0,.72v95.2A27.4,27.4,0,0,0,27.4,150h95.83a27.4,27.4,0,0,0,27.4-27.4V27.4A27.21,27.21,0,0,0,141.55,7.09Zm-41,41A25.55,25.55,0,1,1,75,22.55,25.55,25.55,0,0,1,100.59,48.11ZM46,130.38a11.84,11.84,0,0,1-11.84-11.83v-6.68a25.89,25.89,0,0,1,26-25.79H89.92a25.8,25.8,0,0,1,25.89,25.79v6.68A11.83,11.83,0,0,1,104,130.38Z" style="fill:url(#linear-gradient)"/></g></g></svg>