<svg xmlns="http://www.w3.org/2000/svg" xmlns:xlink="http://www.w3.org/1999/xlink" viewBox="0 0 171.43 150"><defs><linearGradient id="linear-gradient" x1="78.57" y1="148.63" x2="78.57" y2="3.29" gradientUnits="userSpaceOnUse"><stop offset="0" stop-color="#1a7b5e"/><stop offset="1" stop-color="#1aaf5e"/></linearGradient><linearGradient id="linear-gradient-2" x1="144.64" y1="148.63" x2="144.64" y2="3.29" xlink:href="#linear-gradient"/></defs><title>wallet</title><g id="Layer_2" data-name="Layer 2"><g id="Capa_1" data-name="Capa 1"><path d="M139.29,121.43a32.15,32.15,0,1,1,0-64.29h17.85V42.86a14.3,14.3,0,0,0-14.28-14.29h-7.15V14.29A14.3,14.3,0,0,0,121.43,0h-100A21.42,21.42,0,0,0,.36,17.85,7.2,7.2,0,0,0,0,19.64V128.57A21.45,21.45,0,0,0,21.43,150H142.86a14.3,14.3,0,0,0,14.28-14.29V121.43Zm-125-100a7.14,7.14,0,0,1,7.14-7.14h100V28.57h-100A7.15,7.15,0,0,1,14.29,21.43Z" style="fill:url(#linear-gradient)"/><path d="M166.07,67.86H139.29a21.43,21.43,0,1,0,0,42.85h26.78a5.36,5.36,0,0,0,5.36-5.35V73.21A5.36,5.36,0,0,0,166.07,67.86ZM139.29,96.43a7.15,7.15,0,1,1,7.14-7.14A7.15,7.15,0,0,1,139.29,96.43Z" style="fill:url(#linear-gradient-2)"/></g></g></svg>