<svg xmlns="http://www.w3.org/2000/svg" xmlns:xlink="http://www.w3.org/1999/xlink" viewBox="0 0 150 150"><defs><linearGradient id="linear-gradient" y1="47.84" x2="37.64" y2="47.84" gradientUnits="userSpaceOnUse"><stop offset="0" stop-color="#1a7b5e"/><stop offset="1" stop-color="#1aaf5e"/></linearGradient><linearGradient id="linear-gradient-2" x1="25.09" y1="18.82" x2="70.58" y2="18.82" xlink:href="#linear-gradient"/><linearGradient id="linear-gradient-3" x1="79.42" y1="18.82" x2="124.91" y2="18.82" xlink:href="#linear-gradient"/><linearGradient id="linear-gradient-4" x1="0" y1="102.16" x2="37.64" y2="102.16" xlink:href="#linear-gradient"/><linearGradient id="linear-gradient-5" x1="112.36" y1="47.84" x2="150" y2="47.84" xlink:href="#linear-gradient"/><linearGradient id="linear-gradient-6" x1="25.09" y1="131.18" x2="70.58" y2="131.18" xlink:href="#linear-gradient"/><linearGradient id="linear-gradient-7" x1="112.36" y1="102.16" x2="150" y2="102.16" xlink:href="#linear-gradient"/><linearGradient id="linear-gradient-8" x1="79.42" y1="131.18" x2="124.91" y2="131.18" xlink:href="#linear-gradient"/><linearGradient id="linear-gradient-9" x1="70.58" y1="75" x2="79.42" y2="75" xlink:href="#linear-gradient"/><linearGradient id="linear-gradient-10" x1="35.22" y1="75" x2="114.79" y2="75" xlink:href="#linear-gradient"/></defs><title>wheel_1</title><g id="Layer_2" data-name="Layer 2"><g id="Capa_1" data-name="Capa 1"><path d="M37.64,43.89l-18.8-18.8A74.51,74.51,0,0,0,0,70.58H26.59A48.15,48.15,0,0,1,37.64,43.89Z" style="fill:url(#linear-gradient)"/><path d="M70.58,26.59V0A74.51,74.51,0,0,0,25.09,18.84l18.8,18.8A48.15,48.15,0,0,1,70.58,26.59Z" style="fill:url(#linear-gradient-2)"/><path d="M124.91,18.84A74.51,74.51,0,0,0,79.42,0V26.59a48.15,48.15,0,0,1,26.69,11.05Z" style="fill:url(#linear-gradient-3)"/><path d="M26.59,79.42H0a74.51,74.51,0,0,0,18.84,45.49l18.8-18.8A48.15,48.15,0,0,1,26.59,79.42Z" style="fill:url(#linear-gradient-4)"/><path d="M123.42,70.58H150a74.51,74.51,0,0,0-18.84-45.49l-18.8,18.8A48.23,48.23,0,0,1,123.42,70.58Z" style="fill:url(#linear-gradient-5)"/><path d="M25.09,131.16A74.51,74.51,0,0,0,70.58,150V123.41a48.15,48.15,0,0,1-26.69-11Z" style="fill:url(#linear-gradient-6)"/><path d="M112.36,106.11l18.8,18.8A74.51,74.51,0,0,0,150,79.42H123.42A48.23,48.23,0,0,1,112.36,106.11Z" style="fill:url(#linear-gradient-7)"/><path d="M79.42,123.41V150a74.51,74.51,0,0,0,45.49-18.84l-18.8-18.8A48.15,48.15,0,0,1,79.42,123.41Z" style="fill:url(#linear-gradient-8)"/><circle cx="75" cy="75" r="4.42" style="fill:url(#linear-gradient-9)"/><path d="M103.13,46.88a39.77,39.77,0,1,0,0,56.24A39.74,39.74,0,0,0,103.13,46.88Zm-6,32.54H87.5a13.33,13.33,0,0,1-8.08,8.08v9.6H70.58V87.5a13.36,13.36,0,0,1-8.08-8.08H52.9V70.58h9.6a13.36,13.36,0,0,1,8.08-8.08V52.9h8.84v9.6a13.33,13.33,0,0,1,8.08,8.08h9.6Z" style="fill:url(#linear-gradient-10)"/></g></g></svg>