<svg xmlns="http://www.w3.org/2000/svg" viewBox="0 0 136.33 79.56"><title>moradok88</title><g id="Layer_2" data-name="Layer 2"><g id="Layer_1-2" data-name="Layer 1"><g id="Layer_2-2" data-name="Layer 2"><g id="Layer_1-2-2" data-name="Layer 1-2"><g id="Layer_2-2-2" data-name="Layer 2-2"><g id="Layer_1-2-2-2" data-name="Layer 1-2-2"><rect id="Rectangle_32" data-name="Rectangle 32" x="50.22" width="5.44" height="5.44" style="fill:#26c165"/><rect id="Rectangle_33" data-name="Rectangle 33" y="6.27" width="5.44" height="5.44" style="fill:#26c165"/><rect id="Rectangle_34" data-name="Rectangle 34" x="6.27" y="56.5" width="5.44" height="5.44" style="fill:#26c165"/><rect id="Rectangle_35" data-name="Rectangle 35" x="37.67" y="43.94" width="5.44" height="5.44" style="fill:#26c165"/><path id="Path_1565" data-name="Path 1565" d="M18,0H12.56V5.44H18ZM11.72,0H6.27V5.44h5.45Zm7.11,5.44h5.45V0H18.83ZM30.55,0H25.11V5.44h5.44Zm6.28,0H31.39V5.44h5.44ZM49.38,0H43.94V5.44h5.44ZM6.28,11.72h5.45V6.27H6.27ZM0,18H5.44V12.56H0Zm6.27,0h5.45V12.56H6.27ZM0,24.28H5.44V18.83H0Zm6.27,0h5.45V18.83H6.27ZM0,30.55H5.44V25.11H0Zm6.27,0h5.45V25.11H6.27ZM0,36.83H5.44V31.39H0Zm6.27,0h5.45V31.39H6.27ZM0,43.1H5.44V37.67H0Zm6.27,0h5.45V37.67H6.27ZM0,49.38H5.44V43.94H0Zm6.27,0h5.45V43.94H6.27Zm6.29-6.28H18V37.67H12.56Zm0,6.27H18V43.94H12.56Zm6.27-6.27h5.45V37.67H18.83Zm0,6.27h5.45V43.94H18.83Zm6.28-6.27h5.44V37.67H25.11Zm0,6.27h5.44V43.94H25.11Zm6.28-6.27h5.44V37.67H31.39Zm0,6.27h5.44V43.94H31.39ZM43.94,43.1h5.44V37.67H43.94ZM0,55.66H5.44V50.22H0Zm0,6.28H5.44V56.5H0Zm6.27-6.28h5.45V50.22H6.27Zm6.29-43.94H18V6.27H12.56Zm6.27,0h5.45V6.27H18.83Zm6.28,0h5.44V6.27H25.11Zm6.28,0h5.44V6.27H31.39Zm6.28-6.28H43.1V0H37.67Zm0,37.67H43.1V37.67H37.67Zm0-31.39H43.1V6.27H37.67Zm6.27,0h5.44V6.27H43.94Zm6.28,0h5.44V6.27H50.22ZM43.94,18h5.44V12.56H43.94Zm6.28,0h5.44V12.56H50.22Zm6.28-5.43V18h5.44V12.56ZM50.22,24.28h5.44V18.83H50.22Zm6.28,0h5.44V18.83H56.5Zm-6.28,6.27h5.44V25.11H50.22Zm6.28,0h5.44V25.11H56.5Zm-6.28,6.28h5.44V31.38H50.22Zm0,6.28h5.44V37.67H50.22Zm-6.28-6.28h5.44V31.38H43.94Zm12.56,0h5.44V31.38H56.5Z" style="fill:#fff;fill-rule:evenodd"/><path id="Path_1566" data-name="Path 1566" d="M74.32,24.28h5.45V18.83H74.32Zm0,6.27h5.45V25.11H74.32Zm0,6.28h5.45V31.39H74.32Zm0,6.28h5.45V37.67H74.32Zm0,6.27h5.45V43.94H74.32ZM80.61,18h5.44V12.56H80.61Zm0-6.27h5.44V6.27H80.61ZM86.88,18h5.44V12.56H86.88Zm0-6.27h5.44V6.27H86.88ZM98.6,6.27H93.16v5.45H98.6Zm-5.44-.83H98.6V0H93.16Zm6.28,6.28h5.43V6.27H99.44Zm0-6.28h5.43V0H99.44Zm6.28,6.28h5.44V6.27h-5.44ZM111.16,0h-5.44V5.44h5.44Zm6.27,6.27H112v5.45h5.44ZM112,5.44h5.44V0H112ZM80.61,24.28h5.44V18.83H80.61Zm0,6.27h5.44V25.11H80.61Zm0,6.28h5.44V31.38H80.61Zm25.06-6.28h5.44V25.11h-5.44Zm0,6.28h5.44V31.38h-5.44Zm11.71-11.72h-5.44v5.44h5.44Zm0,6.27h-5.44v5.45h5.44Zm.84-.83h5.44V25.11h-5.39Zm0,6.28h5.44V31.38h-5.39Zm0,12.55h5.44V43.94h-5.39Zm6.28-18.83h5.44V25.11H124.5Zm0,6.28h5.44V31.39H124.5Zm-6.23-25.11h5.44V6.27h-5.44Zm0,6.32h5.44V12.56h-5.44Zm6.28-6.27H130V6.27h-5.44Zm0,6.27H130V12.56h-5.44ZM80.61,43.1h5.44V37.67H80.61Zm0,6.27h5.44V43.94H80.61Zm6.27,0h5.44V43.94H86.88Zm0,6.28h5.44V50.22H86.88Zm0,6.28h5.44V56.5H86.88ZM98.6,50.22H93.16v5.44H98.6ZM93.16,61.94H98.6V56.5H93.16Zm6.28-6.28h5.43V50.22H99.44Zm0,6.28h5.43V56.5H99.44Zm6.28-6.28h5.44V50.22h-5.44Zm0,6.28h5.44V56.5h-5.44Zm11.71-11.72H112v5.44h5.44ZM112,61.94h5.44V56.5H112Zm6.28-6.28h5.44V50.22h-5.44Zm6.28,0H130V50.22h-5.44Zm0-12.55H130V37.67h-5.44Zm0,6.27H130V43.94h-5.44Zm6.27-18v5.44h5.5V31.39Zm0,11.72h5.5V37.67h-5.45Z" style="fill:#fff;fill-rule:evenodd"/><rect id="Rectangle_36" data-name="Rectangle 36" x="74.32" y="12.56" width="5.44" height="5.44" style="fill:#26c165"/><rect id="Rectangle_37" data-name="Rectangle 37" x="86.88" width="5.44" height="5.44" style="fill:#26c165"/><rect id="Rectangle_38" data-name="Rectangle 38" x="80.61" y="50.22" width="5.44" height="5.44" style="fill:#26c165"/><rect id="Rectangle_39" data-name="Rectangle 39" x="118.27" y="56.5" width="5.44" height="5.44" style="fill:#26c165"/><rect id="Rectangle_40" data-name="Rectangle 40" x="130.82" y="25.11" width="5.44" height="5.44" style="fill:#26c165"/><rect id="Rectangle_41" data-name="Rectangle 41" x="130.82" y="43.94" width="5.44" height="5.44" style="fill:#26c165"/></g></g><path id="Path_1567" data-name="Path 1567" d="M2.65,70.27v2.65H4v1.32H5.29V72.92H6.61V70.27H9.26v9.26H6.61v-4h-4v4H0V70.27Z" style="fill:#fff"/><path id="Path_1568" data-name="Path 1568" d="M17.2,70.27v1.32h1.33v6.62H17.2v1.32H11.91V78.21H10.59V71.59h1.32V70.27Zm-4,7.94h2.65V71.59H13.23Z" style="fill:#fff"/><path id="Path_1569" data-name="Path 1569" d="M27.79,70.27v1.32h1.32v2.65H27.79v2.64h1.32v2.65H26.47V76.88H25.15V75.56H23.82v4H21.18V70.27Zm-4,4h2.65V71.59H23.82Z" style="fill:#fff"/><path id="Path_1570" data-name="Path 1570" d="M38.38,70.27v1.32H39.7v7.94H37.06V76.88H34.41v2.65H31.76V71.59h1.33V70.27Zm-4,5.29H37v-4H34.41Z" style="fill:#fff"/><path id="Path_1571" data-name="Path 1571" d="M49,70.27v1.32h1.32v6.62H49v1.32H42.35V71.59H41V70.27Zm-4,7.94h2.64V71.59H45Z" style="fill:#fff"/><path id="Path_1572" data-name="Path 1572" d="M59.55,70.27v1.32h1.33v6.62H59.55v1.32H54.26V78.21H52.94V71.59h1.32V70.27Zm-4,7.94h2.64V71.59h-2.6Z" style="fill:#fff"/><path id="Path_1573" data-name="Path 1573" d="M66.17,70.27v2.65H67.5V71.59h1.32V70.27h2.65v1.32H70.14v1.33H68.82v2.64h1.32v2.65h1.33v1.32H68.82V78.21H67.5V75.56H66.17v4H63.53V70.27Z" style="fill:#fff"/><path id="Path_1574" data-name="Path 1574" d="M80.73,70.27v1.32h1.32v2.65H80.73v1.32h1.32v2.65H80.73v1.32H75.44V78.21H74.12V75.56h1.32V74.24H74.12V71.59h1.32V70.27Zm-4,4h2.65V71.59H76.76Zm0,4h2.65V75.56H76.76Z" style="fill:#fff"/><path id="Path_1575" data-name="Path 1575" d="M91.32,70.27v1.32h1.32v2.65H91.32v1.32h1.32v2.65H91.32v1.32H86V78.21H84.7V75.56H86V74.24H84.7V71.59H86V70.27Zm-4,4H90V71.59H87.35Zm0,4H90V75.56H87.35Z" style="fill:#fff"/><path id="Path_1576" data-name="Path 1576" d="M100.58,76.88v2.65H97.94V76.88Z" style="fill:#fff"/><path id="Path_1577" data-name="Path 1577" d="M112.49,70.27v1.32h1.33v1.33h-2.65V71.59h-2.64v6.62h2.64V76.88h2.65v1.33h-1.33v1.32H107.2V78.21h-1.32V71.59h1.32V70.27Z" style="fill:#fff"/><path id="Path_1578" data-name="Path 1578" d="M123.08,70.27v1.32h1.33v6.62h-1.33v1.32h-5.29V78.21h-1.32V71.59h1.32V70.27Zm-4,7.94h2.65V71.59h-2.65Z" style="fill:#fff"/><path id="Path_1579" data-name="Path 1579" d="M129.7,70.27v2.65H131v1.32h1.33V72.92h1.32V70.27h2.65v9.26h-2.65v-4h-4v4H127V70.27Z" style="fill:#fff"/></g></g></g></g></svg>