<?xml version="1.0" encoding="utf-8"?>
<!-- Generator: Adobe Illustrator 24.0.2, SVG Export Plug-In . SVG Version: 6.00 Build 0)  -->
<svg version="1.1" id="Layer_1" xmlns="http://www.w3.org/2000/svg" xmlns:xlink="http://www.w3.org/1999/xlink" x="0px" y="0px"
	 viewBox="0 0 145.9 79.5" style="enable-background:new 0 0 145.9 79.5;" xml:space="preserve">
<style type="text/css">
	.st0{fill:#FF6E00;}
	.st1{fill:#6414E6;}
	.st2{fill:#19BEE6;}
	.st3{fill:#E619DC;}
	.st4{fill-rule:evenodd;clip-rule:evenodd;}
	.st5{fill:#E61973;}
	.st6{fill:#FFB919;}
	.st7{fill:#1987E6;}
	.st8{fill:#FF4B00;}
	.st9{fill:#14E691;}
	.st10{fill:#FF1928;}
</style>
<title>pg b</title>
<g id="Layer_2_1_">
	<g id="Layer_1-2">
		<rect x="50.1" y="0" class="st0" width="5.4" height="5.4"/>
		<rect y="6.3" class="st1" width="5.4" height="5.4"/>
		<rect x="6.3" y="56.4" class="st2" width="5.4" height="5.4"/>
		<rect x="37.6" y="43.8" class="st3" width="5.4" height="5.4"/>
		<path class="st4" d="M18,0h-5.5v5.4H18V0z M11.7,0H6.3v5.4h5.4L11.7,0z M18.8,5.4h5.4V0h-5.4L18.8,5.4z M30.5,0H25v5.4h5.4V0z
			 M36.7,0h-5.4v5.4h5.4V0z M49.3,0h-5.4v5.4h5.4V0z M6.3,11.7h5.4V6.3H6.3L6.3,11.7z M0,18h5.4v-5.5H0V18z M6.3,18h5.4v-5.5H6.3V18
			z M0,24.2h5.4v-5.4H0V24.2z M6.3,24.2h5.4v-5.4H6.3V24.2z M0,30.5h5.4V25H0V30.5z M6.3,30.5h5.4V25H6.3V30.5z M0,36.7h5.4v-5.4H0
			V36.7z M6.3,36.7h5.4v-5.4H6.3V36.7z M0,43h5.4v-5.4H0V43z M6.3,43h5.4v-5.4H6.3V43z M0,49.3h5.4v-5.4H0V49.3z M6.3,49.3h5.4v-5.4
			H6.3V49.3z M12.5,43H18v-5.4h-5.5V43z M12.5,49.3H18v-5.4h-5.5V49.3z M18.8,43h5.4v-5.4h-5.4V43z M18.8,49.3h5.4v-5.4h-5.4V49.3z
			 M25,43h5.4v-5.4H25V43z M25,49.3h5.4v-5.4H25V49.3z M31.3,43h5.4v-5.4h-5.4V43z M31.3,49.3h5.4v-5.4h-5.4V49.3z M43.8,43h5.4
			v-5.4h-5.4V43z M0,55.5h5.4v-5.4H0V55.5z M0,61.8h5.4v-5.4H0V61.8z M6.3,55.5h5.4v-5.4H6.3V55.5z M12.5,11.7H18V6.3h-5.5
			L12.5,11.7z M18.8,11.7h5.4V6.3h-5.4V11.7z M25.1,11.7h5.4V6.3H25L25.1,11.7z M31.3,11.7h5.4V6.3h-5.4L31.3,11.7z M37.6,5.4H43V0
			h-5.4V5.4z M37.6,43H43v-5.4h-5.4V43z M37.6,11.7H43V6.3h-5.4V11.7z M43.8,11.7h5.4V6.3h-5.4L43.8,11.7z M50.1,11.7h5.4V6.3h-5.4
			L50.1,11.7z M43.8,18h5.4v-5.5h-5.4V18z M50.1,18h5.4v-5.5h-5.4V18z M56.4,12.6V18h5.4v-5.5L56.4,12.6z M50.1,24.2h5.4v-5.4h-5.4
			V24.2z M56.4,24.2h5.4v-5.4h-5.4V24.2z M50.1,30.5h5.4V25h-5.4V30.5z M56.4,30.5h5.4V25h-5.4V30.5z M50.1,36.7h5.4v-5.4h-5.4V36.7
			z M50.1,43h5.4v-5.4h-5.4V43z M43.8,36.7h5.4v-5.4h-5.4L43.8,36.7z M56.4,36.7h5.4v-5.4h-5.4L56.4,36.7z"/>
		<path class="st4" d="M74.2,24.2h5.4v-5.4h-5.4V24.2z M74.2,30.5h5.4V25h-5.4V30.5z M74.2,36.7h5.4v-5.4h-5.4V36.7z M74.2,43h5.4
			v-5.4h-5.4V43z M74.2,49.3h5.4v-5.4h-5.4V49.3z M80.4,18h5.4v-5.5h-5.4V18z M80.4,11.7h5.4V6.3h-5.4V11.7z M86.7,18h5.4v-5.5h-5.4
			V18z M86.7,11.7h5.4V6.3h-5.4V11.7z M98.4,6.3h-5.4v5.4h5.4V6.3z M92.9,5.4h5.4V0h-5.4V5.4z M99.2,11.7h5.4V6.3h-5.4V11.7z
			 M99.2,5.4h5.4V0h-5.4V5.4z M105.5,11.7h5.4V6.3h-5.4V11.7z M110.9,0h-5.4v5.4h5.4V0z M117.2,6.3h-5.4v5.4h5.4V6.3z M111.7,5.4
			h5.4V0h-5.4V5.4z M80.4,24.2h5.4v-5.4h-5.4V24.2z M80.4,30.5h5.4V25h-5.4V30.5z M80.4,36.7h5.4v-5.4h-5.4V36.7z M105.4,30.5h5.4
			V25h-5.4V30.5z M105.4,36.7h5.4v-5.4h-5.4V36.7z M117.1,25h-5.4v5.4h5.4V25z M117.1,31.3h-5.4v5.4h5.4V31.3z M117.9,30.5h5.4V25
			H118L117.9,30.5z M117.9,36.7h5.4v-5.4H118L117.9,36.7z M117.9,49.3h5.4v-5.4H118L117.9,49.3z M124.2,30.5h5.4V25h-5.4V30.5z
			 M124.2,36.7h5.4v-5.4h-5.4V36.7z M118,11.7h5.4V6.3H118V11.7z M118,18h5.4v-5.5H118V18z M124.3,11.7h5.4V6.3h-5.4V11.7z
			 M124.3,18h5.4v-5.5h-5.4V18z M80.4,43h5.4v-5.4h-5.4V43z M80.4,49.3h5.4v-5.4h-5.4V49.3z M86.7,49.3h5.4v-5.4h-5.4V49.3z
			 M86.7,55.5h5.4v-5.4h-5.4V55.5z M86.7,61.8h5.4v-5.4h-5.4V61.8z M98.4,50.1h-5.4v5.4h5.4V50.1z M92.9,61.8h5.4v-5.4h-5.4V61.8z
			 M99.2,55.5h5.4v-5.4h-5.4V55.5z M99.2,61.8h5.4v-5.4h-5.4V61.8z M105.5,55.5h5.4v-5.4h-5.4V55.5z M105.5,61.8h5.4v-5.4h-5.4V61.8
			z M117.2,50.1h-5.4v5.4h5.4V50.1z M111.7,61.8h5.4v-5.4h-5.4V61.8z M118,55.5h5.4v-5.4H118V55.5z M124.3,55.5h5.4v-5.4h-5.4V55.5z
			 M124.3,43h5.4v-5.4h-5.4V43z M124.3,49.3h5.4v-5.4h-5.4V49.3z M130.5,31.3v5.4h5.5v-5.4L130.5,31.3z M130.5,43h5.5v-5.4h-5.4
			L130.5,43z"/>
		<rect x="74.2" y="12.5" class="st5" width="5.4" height="5.4"/>
		<rect x="86.7" y="0" class="st6" width="5.4" height="5.4"/>
		<rect x="80.4" y="50.1" class="st7" width="5.4" height="5.4"/>
		<rect x="118" y="56.4" class="st8" width="5.4" height="5.4"/>
		<rect x="130.5" y="25" class="st9" width="5.4" height="5.4"/>
		<rect x="130.5" y="43.8" class="st10" width="5.4" height="5.4"/>
		<path d="M139.5,73.8v-3.6h-1.1v-0.6h2.8v0.6h-1v3.6H139.5z M141.8,73.8v-4.2h0.7l1.4,2.7l1.3-2.7h0.7v4.2h-0.6v-2.9l-1,2.1h-0.7
			l-1.1-2.2v3L141.8,73.8z"/>
		<path d="M139.5,73.8v-3.6h-1.1v-0.6h2.8v0.6h-1v3.6H139.5z M141.8,73.8v-4.2h0.7l1.4,2.7l1.3-2.7h0.7v4.2h-0.6v-2.9l-1,2.1h-0.7
			l-1.1-2.2v3L141.8,73.8z"/>
		<g>
			<path d="M2.6,69.5v2.6H4v1.3h1.3v-1.3h1.3v-2.6h2.6v9.3H6.6v-4h-4v4H0v-9.3H2.6z"/>
			<path d="M17.2,69.5v1.3h1.3v6.6h-1.3v1.3h-5.3v-1.3h-1.3v-6.6h1.3v-1.3H17.2z M13.2,77.5h2.6v-6.6h-2.6V77.5z"/>
			<path d="M27.8,69.5v1.3h1.3v2.6h-1.3v2.6h1.3v2.6h-2.6v-2.6h-1.3v-1.3h-1.3v4h-2.6v-9.3H27.8z M23.8,73.5h2.6v-2.6h-2.6V73.5z"/>
			<path d="M38.4,69.5v1.3h1.3v7.9h-2.6v-2.6h-2.6v2.6h-2.6v-7.9h1.3v-1.3H38.4z M34.4,74.8h2.6v-4h-2.6V74.8z"/>
			<path d="M49,69.5v1.3h1.3v6.6H49v1.3h-6.6v-7.9H41v-1.3H49z M45,77.5h2.6v-6.6H45V77.5z"/>
			<path d="M59.6,69.5v1.3h1.3v6.6h-1.3v1.3h-5.3v-1.3h-1.3v-6.6h1.3v-1.3H59.6z M55.6,77.5h2.6v-6.6h-2.6V77.5z"/>
			<path d="M66.2,69.5v2.6h1.3v-1.3h1.3v-1.3h2.6v1.3h-1.3v1.3h-1.3v2.6h1.3v2.6h1.3v1.3h-2.6v-1.3h-1.3v-2.6h-1.3v4h-2.6v-9.3H66.2
				z"/>
			<path d="M80.7,69.5v1.3h1.3v2.6h-1.3v1.3h1.3v2.6h-1.3v1.3h-5.3v-1.3h-1.3v-2.6h1.3v-1.3h-1.3v-2.6h1.3v-1.3H80.7z M76.8,73.5
				h2.6v-2.6h-2.6V73.5z M76.8,77.5h2.6v-2.6h-2.6V77.5z"/>
			<path d="M91.3,69.5v1.3h1.3v2.6h-1.3v1.3h1.3v2.6h-1.3v1.3H86v-1.3h-1.3v-2.6H86v-1.3h-1.3v-2.6H86v-1.3H91.3z M87.4,73.5H90
				v-2.6h-2.6V73.5z M87.4,77.5H90v-2.6h-2.6V77.5z"/>
			<path d="M100.6,76.1v2.6h-2.6v-2.6H100.6z"/>
			<path d="M112.5,69.5v1.3h1.3v1.3h-2.6v-1.3h-2.6v6.6h2.6v-1.3h2.6v1.3h-1.3v1.3h-5.3v-1.3h-1.3v-6.6h1.3v-1.3H112.5z"/>
			<path d="M123.1,69.5v1.3h1.3v6.6h-1.3v1.3h-5.3v-1.3h-1.3v-6.6h1.3v-1.3H123.1z M119.1,77.5h2.6v-6.6h-2.6V77.5z"/>
			<path d="M129.7,69.5v2.6h1.3v1.3h1.3v-1.3h1.3v-2.6h2.6v9.3h-2.6v-4h-4v4h-2.6v-9.3H129.7z"/>
		</g>
	</g>
</g>
</svg>
