<svg xmlns="http://www.w3.org/2000/svg" xmlns:xlink="http://www.w3.org/1999/xlink" viewBox="0 0 933.17 545.49"><defs><clipPath id="clip-path"><polygon points="0 0 913.05 0 913.05 508.83 913.05 508.83 0 508.83 0 508.83 0 0" style="fill:none"/></clipPath><clipPath id="clip-path-2"><path d="M820.4,338.83c-28-47.88-72.68-76.9-105.54-85.35-12.88-3.31-38.67-3.72-38.67-3.72s2.34,160.27,2.48,213.18c0,4.06,0,11.18.05,18.49-20,3-35.39,3.84-35.39,3.84L663,537.12C889.93,561.09,870.54,424.53,820.4,338.83Z" style="fill:none"/></clipPath><clipPath id="clip-path-3"><path d="M615.83,248.62c-75,11.68-136.31,153-136.31,153l-38.21-99.49-39.55-.79s7.81,212.74,104.38,208.08c15.64-.76,33.38-20,50-47.16,6.14,23.41,12.6,42.11,12.6,42.11l47.39,2.64S616.27,248.55,615.83,248.62Z" style="fill:none"/></clipPath></defs><title>กงล้อทิบเบตพลิกชะตา</title><g id="Layer_2" data-name="Layer 2"><g id="Layer_1-2" data-name="Layer 1"><g id="กงล้อทิบเบตพลิกชะตา"><g id="Group_50-3" data-name="Group 50-3"><path id="Mask-7" d="M0,0H913.05V508.83H0Z" style="fill:#e8fff1"/><g style="clip-path:url(#clip-path)"><g id="Group_50-4" data-name="Group 50-4"><g id="Group_43-2" data-name="Group 43-2"><g id="Group_44-2" data-name="Group 44-2"><path id="Path_32-2" data-name="Path 32-2" d="M696.82,330.29a37.87,37.87,0,1,0,37.87,37.86h0a37.86,37.86,0,0,0-37.85-37.86Zm0,62.43a24.58,24.58,0,1,1,24.58-24.57h0a24.56,24.56,0,0,1-24.56,24.57Z" style="fill:#c6f4d9"/><path id="Path_33-2" data-name="Path 33-2" d="M721.84,307.83c-11.17-.51-38.84-.49-50,0-9.83.48-18.49,2.84-25.48,9.82-11.68,11.68-10.18,27.42-10.18,50.5,0,23.61-1.32,39,10.18,50.48,11.72,11.72,27.69,10.19,50.49,10.19,23.39,0,31.47,0,39.74-3.19,11.25-4.37,19.73-14.42,20.57-32.48.52-11.17.49-38.84,0-50-1-21.32-12.44-34.24-35.3-35.3ZM739.52,410.9c-7.65,7.66-18.27,7-42.83,7-25.3,0-35.45.37-42.85-7.05-8.53-8.49-7-22.11-7-42.77,0-28-2.87-48.08,25.18-49.52,6.45-.24,8.35-.31,24.57-.31l.23.16c27,0,48.13-2.83,49.39,25.22.29,6.41.35,8.33.35,24.52,0,25,.48,35.21-7.05,42.77Z" style="fill:#c6f4d9"/><circle id="Ellipse_1-2" data-name="Ellipse 1-2" cx="730.22" cy="334.76" r="5.63" style="fill:#c6f4d9"/></g><g id="Group_301" data-name="Group 301"><g id="Group_279" data-name="Group 279"><g id="Group_277" data-name="Group 277"><path id="Path_1382" data-name="Path 1382" d="M175,507.46a14.57,14.57,0,0,1-5.11-.92,14.79,14.79,0,0,1-8.77-19h0L198.92,385a14.78,14.78,0,0,1,19-8.76h0a14.8,14.8,0,0,1,8.76,19L188.89,497.78A14.78,14.78,0,0,1,175,507.46Z" style="fill:#f5755f"/></g><g id="Group_278" data-name="Group 278"><path id="Path_1383" data-name="Path 1383" d="M384.73,507.46a14.8,14.8,0,0,1-13.88-9.68L333.07,395.26A14.79,14.79,0,0,1,360.82,385L398.6,487.55a14.81,14.81,0,0,1-13.87,19.91Z" style="fill:#f5755f"/></g></g><g id="Group_282" data-name="Group 282"><g id="Group_280" data-name="Group 280"><path id="Path_1384" data-name="Path 1384" d="M175,507.46a14.57,14.57,0,0,1-5.11-.92,14.79,14.79,0,0,1-8.77-19h0L198.92,385a14.78,14.78,0,0,1,19-8.76h0a14.8,14.8,0,0,1,8.76,19L188.89,497.78A14.78,14.78,0,0,1,175,507.46Z" style="fill:#26c165"/></g><g id="Group_281" data-name="Group 281"><path id="Path_1385" data-name="Path 1385" d="M384.73,507.46a14.8,14.8,0,0,1-13.88-9.68L333.07,395.26A14.79,14.79,0,0,1,360.82,385L398.6,487.55a14.81,14.81,0,0,1-13.87,19.91Z" style="fill:#26c165"/></g></g><path id="Path_1386" data-name="Path 1386" d="M217.91,376.27a14.8,14.8,0,0,0-19,8.76h0l-17.57,47.69a206.36,206.36,0,0,0,27,12.25l18.3-49.71A14.78,14.78,0,0,0,217.91,376.27Z" style="fill:#c7c7c7"/><path id="Path_1387" data-name="Path 1387" d="M360.83,385a14.79,14.79,0,1,0-27.75,10.23L351.39,445a206.11,206.11,0,0,0,27-12.25Z" style="fill:#c7c7c7"/><circle id="Ellipse_8" data-name="Ellipse 8" cx="279.87" cy="251.17" r="196.28" style="fill:#f5755f"/><circle id="Ellipse_9" data-name="Ellipse 9" cx="279.87" cy="251.17" r="196.28" style="fill:#26c165"/><path id="Path_1389" data-name="Path 1389" d="M454.65,161.74a195.53,195.53,0,0,1,19.31,85c0,108.4-87.87,196.28-196.28,196.28h0A196.29,196.29,0,0,1,102.92,336.2a196.29,196.29,0,0,0,177,111.25c108.41,0,196.28-87.87,196.28-196.28A195.47,195.47,0,0,0,454.65,161.74Z" style="fill:#e3e3e3"/><circle id="Ellipse_10" data-name="Ellipse 10" cx="279.87" cy="251.17" r="168.78" style="fill:#cfcfcf"/><g id="Group_283" data-name="Group 283"><path id="Path_1390" data-name="Path 1390" d="M148.3,155.58l131.58,95.59L254.43,90.53A162.15,162.15,0,0,0,148.3,155.58Z" style="fill:#26c165"/><path id="Path_1391" data-name="Path 1391" d="M119.24,276.62l160.63-25.44L148.29,155.59A162.15,162.15,0,0,0,119.24,276.62Z" style="fill:#e8fff1"/><path id="Path_1392" data-name="Path 1392" d="M184.28,382.75l95.59-131.58L119.23,276.61A162.17,162.17,0,0,0,184.28,382.75Z" style="fill:#26c165"/><path id="Path_1393" data-name="Path 1393" d="M305.32,411.81,279.88,251.17,184.29,382.74A162.12,162.12,0,0,0,305.32,411.81Z" style="fill:#e8fff1"/><path id="Path_1394" data-name="Path 1394" d="M411.45,346.77,279.87,251.18l25.44,160.63A162.09,162.09,0,0,0,411.45,346.77Z" style="fill:#26c165"/><path id="Path_1395" data-name="Path 1395" d="M440.5,225.73,279.87,251.17l131.58,95.59A162.11,162.11,0,0,0,440.5,225.73Z" style="fill:#e8fff1"/><path id="Path_1396" data-name="Path 1396" d="M375.46,119.6,279.88,251.18l160.63-25.45A162.11,162.11,0,0,0,375.46,119.6Z" style="fill:#26c165"/><path id="Path_1397" data-name="Path 1397" d="M254.43,90.54l25.44,160.63L375.45,119.6A162.12,162.12,0,0,0,254.43,90.54Z" style="fill:#e8fff1"/></g><circle id="Ellipse_11" data-name="Ellipse 11" cx="279.87" cy="251.17" r="26.62" style="fill:#ff5668"/><circle id="Ellipse_12" data-name="Ellipse 12" cx="279.87" cy="251.18" r="19.34" style="fill:#fff"/><g id="Group_299" data-name="Group 299"><g id="Group_284" data-name="Group 284"><circle id="Ellipse_13" data-name="Ellipse 13" cx="374.86" cy="93.48" r="6.44" style="fill:#fff"/><path id="Path_1398" data-name="Path 1398" d="M381.27,92.87a6.52,6.52,0,0,1-.91,2.81A6.44,6.44,0,0,1,368.45,93a6.43,6.43,0,0,0,11.91,3.87A6.37,6.37,0,0,0,381.27,92.87Z" style="fill:#cfcfcf"/></g><g id="Group_285" data-name="Group 285"><circle id="Ellipse_14" data-name="Ellipse 14" cx="430.63" cy="146" r="6.44" style="fill:#fff"/><path id="Path_1399" data-name="Path 1399" d="M437,145.39a6.43,6.43,0,0,1-12.81.09,6.43,6.43,0,1,0,12.81-.09Z" style="fill:#cfcfcf"/></g><g id="Group_286" data-name="Group 286"><path id="Path_1400" data-name="Path 1400" d="M459,210.34a6.44,6.44,0,1,1-5.13,7.53h0A6.45,6.45,0,0,1,459,210.34Z" style="fill:#fff"/><path id="Path_1401" data-name="Path 1401" d="M466.63,216.05a6.38,6.38,0,0,1-.91,2.81,6.45,6.45,0,0,1-8.85,2.17h0a6.38,6.38,0,0,1-3.05-4.88,6.43,6.43,0,1,0,12.81-.09Z" style="fill:#cfcfcf"/></g><g id="Group_287" data-name="Group 287"><circle id="Ellipse_15" data-name="Ellipse 15" cx="458.51" cy="293.26" r="6.44" style="fill:#fff"/><path id="Path_1402" data-name="Path 1402" d="M464.91,292.65a6.43,6.43,0,0,1-12.81.08A6.43,6.43,0,0,0,464,296.6,6.36,6.36,0,0,0,464.91,292.65Z" style="fill:#cfcfcf"/></g><g id="Group_288" data-name="Group 288"><circle id="Ellipse_16" data-name="Ellipse 16" cx="425.79" cy="362.53" r="6.44" style="fill:#fff"/><path id="Path_1403" data-name="Path 1403" d="M432.19,361.92a6.44,6.44,0,0,1-9.75,5h0a6.45,6.45,0,0,1-3.06-4.89,6.43,6.43,0,0,0,11.91,3.87h0A6.36,6.36,0,0,0,432.19,361.92Z" style="fill:#cfcfcf"/></g><g id="Group_289" data-name="Group 289"><path id="Path_1404" data-name="Path 1404" d="M373.37,409.42a6.42,6.42,0,0,1-2.55,8.73h0a6.44,6.44,0,0,1-6.19-11.29h0A6.44,6.44,0,0,1,373.37,409.42Z" style="fill:#fff"/><path id="Path_1405" data-name="Path 1405" d="M374.13,411.9a6.43,6.43,0,0,1-12.81.08,6.43,6.43,0,0,0,11.91,3.87A6.36,6.36,0,0,0,374.13,411.9Z" style="fill:#cfcfcf"/></g><g id="Group_290" data-name="Group 290"><circle id="Ellipse_17" data-name="Ellipse 17" cx="294.36" cy="434.55" r="6.44" style="fill:#fff"/><path id="Path_1406" data-name="Path 1406" d="M300.76,433.94A6.43,6.43,0,0,1,288,434a6.43,6.43,0,1,0,12.81-.09Z" style="fill:#cfcfcf"/></g><g id="Group_291" data-name="Group 291"><circle id="Ellipse_18" data-name="Ellipse 18" cx="218.36" cy="424.84" r="6.44" style="fill:#fff"/><path id="Path_1407" data-name="Path 1407" d="M224.76,424.22a6.37,6.37,0,0,1-.9,2.82,6.43,6.43,0,0,1-11.9-2.73,6.43,6.43,0,1,0,12.8-.09Z" style="fill:#cfcfcf"/></g><g id="Group_292" data-name="Group 292"><circle id="Ellipse_19" data-name="Ellipse 19" cx="152.89" cy="385.06" r="6.44" style="fill:#fff"/><path id="Path_1408" data-name="Path 1408" d="M159.29,384.44a6.43,6.43,0,0,1-9.75,5h0a6.44,6.44,0,0,1-3.06-4.89,6.43,6.43,0,0,0,11.91,3.87h0A6.41,6.41,0,0,0,159.29,384.44Z" style="fill:#cfcfcf"/></g><g id="Group_293" data-name="Group 293"><circle id="Ellipse_20" data-name="Ellipse 20" cx="109.26" cy="322.09" r="6.44" style="fill:#fff"/><path id="Path_1409" data-name="Path 1409" d="M115.66,321.47a6.43,6.43,0,0,1-12.81.09,6.43,6.43,0,1,0,12.81-.09Z" style="fill:#cfcfcf"/></g><g id="Group_294" data-name="Group 294"><circle id="Ellipse_21" data-name="Ellipse 21" cx="95.01" cy="246.81" r="6.44" style="fill:#fff"/><path id="Path_1410" data-name="Path 1410" d="M101.41,246.19a6.38,6.38,0,0,1-.91,2.82,6.43,6.43,0,0,1-11.9-2.73,6.43,6.43,0,0,0,11.9,3.88h0A6.46,6.46,0,0,0,101.41,246.19Z" style="fill:#cfcfcf"/></g><g id="Group_295" data-name="Group 295"><circle id="Ellipse_22" data-name="Ellipse 22" cx="112.61" cy="172.25" r="6.44" style="fill:#fff"/><path id="Path_1411" data-name="Path 1411" d="M119,171.64a6.34,6.34,0,0,1-.91,2.81,6.44,6.44,0,0,1-8.84,2.17h0a6.43,6.43,0,0,1-3.06-4.89,6.43,6.43,0,0,0,11.91,3.87h0A6.41,6.41,0,0,0,119,171.64Z" style="fill:#cfcfcf"/></g><g id="Group_296" data-name="Group 296"><path id="Path_1412" data-name="Path 1412" d="M154.14,115.49a6.44,6.44,0,0,1,.67-9.08h0a6.44,6.44,0,1,1,8.4,9.76h0a6.43,6.43,0,0,1-9.08-.68Z" style="fill:#fff"/><path id="Path_1413" data-name="Path 1413" d="M165.42,110.67a6.43,6.43,0,0,1-9.75,5h0a6.42,6.42,0,0,1-3-4.89,6.43,6.43,0,0,0,11.9,3.87h0A6.39,6.39,0,0,0,165.42,110.67Z" style="fill:#cfcfcf"/></g><g id="Group_297" data-name="Group 297"><circle id="Ellipse_23" data-name="Ellipse 23" cx="226.2" cy="74.48" r="6.44" style="fill:#fff"/><path id="Path_1414" data-name="Path 1414" d="M232.6,73.87a6.43,6.43,0,0,1-12.81.09,6.43,6.43,0,1,0,12.81-.09Z" style="fill:#cfcfcf"/></g><g id="Group_298" data-name="Group 298"><path id="Path_1415" data-name="Path 1415" d="M296.18,67.37A6.44,6.44,0,0,1,309,69h0a6.44,6.44,0,1,1-12.77-1.63Z" style="fill:#fff"/><path id="Path_1416" data-name="Path 1416" d="M309,67.57a6.43,6.43,0,0,1-12.81.09,6.43,6.43,0,0,0,11.91,3.87h0A6.41,6.41,0,0,0,309,67.57Z" style="fill:#cfcfcf"/></g></g><path id="Rectangle_7" data-name="Rectangle 7" d="M153.46,485.8H406.28a12.49,12.49,0,0,1,12.5,12.5h0v14.6H141V498.3a12.5,12.5,0,0,1,12.5-12.5Z" style="fill:#26c165"/><path id="Path_1418" data-name="Path 1418" d="M402.43,485.8h-5.27a16.34,16.34,0,0,1,16.35,16.34V512.9h5.27V502.14a16.33,16.33,0,0,0-16.34-16.34Z" style="fill:#e3e3e3"/><path id="Path_1419" data-name="Path 1419" d="M282,54.92c-3.18,2-5.92,3.92-9.71,6.83l10.34,29.84a3.95,3.95,0,0,0,7.29-.44l11.85-35Q292,55,282,54.92Z" style="fill:#cfcfcf"/><g id="Group_300" data-name="Group 300"><path id="Path_1420" data-name="Path 1420" d="M276.84,86.65,255.91,37.11a4,4,0,0,1,3.59-5.47l40.65-.49a3.94,3.94,0,0,1,4,3.89,4.07,4.07,0,0,1-.28,1.5l-19.72,50a3.95,3.95,0,0,1-7.3.08Z" style="fill:#ff5668"/><path id="Path_1422" data-name="Path 1422" d="M303.08,32.4c0,.12-.07.25-.12.38L283.55,84.36a4,4,0,0,1-5.12,2.23,4,4,0,0,1-2.19-2.14L255.67,34.91a3.93,3.93,0,0,0,.25,2.2l20.92,49.54a3.95,3.95,0,0,0,7.31-.08l19.72-50A3.93,3.93,0,0,0,303.08,32.4Z" style="fill:#ebebeb"/></g></g><g id="Group_303" data-name="Group 303"><path id="Path_1423" data-name="Path 1423" d="M801.8,127.23l-21-21a5.3,5.3,0,0,0-3.72-1.54H742.87l8.2-24.61a5.24,5.24,0,0,0-.5-4.4l-25.74-42a5.27,5.27,0,0,0-4.48-2.51h-103a5.23,5.23,0,0,0-4.47,2.51l-25.75,42a5.24,5.24,0,0,0-.5,4.4l8.2,24.61H560.66a5.26,5.26,0,0,0-3.71,1.54l-21,21a5.24,5.24,0,0,0-1.54,3.71v52.53a5.24,5.24,0,0,0,1.54,3.72l21,21a5.22,5.22,0,0,0,3.71,1.54h84.89a5.26,5.26,0,0,0,0-10.51h-82.7L544.91,181.3V133.12l17.94-17.94H774.92l17.93,17.94V181.3l-17.93,17.93H692.81a5.26,5.26,0,0,0,0,10.51h84.27a5.26,5.26,0,0,0,3.72-1.54l21-21a5.19,5.19,0,0,0,1.55-3.72V130.94a5.19,5.19,0,0,0-1.55-3.71ZM617.39,46.45l16.36,26.71H601ZM736.71,73.16H704l16.37-26.71Zm-42.1-4.8L678.25,41.65H711Zm-9.38,4.8H652.51l16.36-26.71Zm-42.1-4.8L626.77,41.65H659.5Zm6.2,15.31h39.08l-3.5,21H652.83Zm46.23,21,3.5-21h39.78l-6.87,21Zm-96.65-21h39.77l3.5,21H605.77Z" style="fill:#c6f4d9"/><path id="Path_1424" data-name="Path 1424" d="M669.16,199.23a5.26,5.26,0,1,0,5.25,5.26A5.25,5.25,0,0,0,669.16,199.23Z" style="fill:#c6f4d9"/><path id="Path_1425" data-name="Path 1425" d="M599.15,140.55a5.92,5.92,0,0,0-5.49-3.66h0a5.9,5.9,0,0,0-5.49,3.67s-11.45,29.85-11.45,29.85a5.25,5.25,0,1,0,9.8,3.76l1.55-4h11.08l1.54,4a5.25,5.25,0,1,0,9.89-3.53l-.08-.2s-11.33-29.83-11.35-29.87Zm-7,19.08,1.54-4,1.52,4Z" style="fill:#c6f4d9"/><path id="Path_1426" data-name="Path 1426" d="M666.66,156.63l11.22-10.23a5.26,5.26,0,0,0-7.09-7.76h0l-7.54,6.88v-3.38a5.26,5.26,0,0,0-10.51-.22v30.37a5.26,5.26,0,0,0,10.51,0v-4.38l8.52,8.17a5.26,5.26,0,1,0,7.43-7.44l-.16-.15Z" style="fill:#c6f4d9"/><path id="Path_1427" data-name="Path 1427" d="M561.9,142.14v24.49h-.28a5.25,5.25,0,0,0-9.66,4,9.57,9.57,0,0,0,9.38,6.53,14,14,0,0,0,3.48-.47,10.16,10.16,0,0,0,7.59-10.44v-24.1a5.26,5.26,0,0,0-10.51,0Z" style="fill:#c6f4d9"/><path id="Path_1428" data-name="Path 1428" d="M632.54,147.39a10,10,0,0,1,5.57,1.68,5.25,5.25,0,1,0,5.85-8.72h0a20.37,20.37,0,1,0-11.42,37.19,17.51,17.51,0,0,0,11.81-4.31,16.79,16.79,0,0,0,1.77-1.81,5.25,5.25,0,1,0-7.91-6.91l-.11.13a7.82,7.82,0,0,1-.7.71,7,7,0,0,1-4.85,1.68,9.83,9.83,0,1,1,0-19.65Z" style="fill:#c6f4d9"/><path id="Path_1429" data-name="Path 1429" d="M772.86,177.54a5.26,5.26,0,0,0,5.26-5.25v-24.9h3.17a5.25,5.25,0,0,0,0-10.5H764.51a5.25,5.25,0,0,0,0,10.5h3.09v24.9a5.25,5.25,0,0,0,5.25,5.25h0Z" style="fill:#c6f4d9"/><path id="Path_1430" data-name="Path 1430" d="M696.08,172.29v-7.88h3.2a13.76,13.76,0,1,0,.36-27.52h-8.81a5.24,5.24,0,0,0-5.25,5.23v30.17a5.25,5.25,0,0,0,10.5,0Zm3.2-24.9a3.26,3.26,0,0,1,.47,6.51h-.47c-.77,0-1.94,0-3.16,0,0-1.27,0-5.2,0-6.53Z" style="fill:#c6f4d9"/><path id="Path_1431" data-name="Path 1431" d="M758.88,157.21a20.44,20.44,0,1,0-20.55,20.33h.1A20.4,20.4,0,0,0,758.88,157.21Zm-30.37,0a9.93,9.93,0,1,1,10,9.83h-.11a9.9,9.9,0,0,1-9.93-9.83Z" style="fill:#c6f4d9"/><path id="Path_1432" data-name="Path 1432" d="M567.82,40.9l16.28,9.8a5.26,5.26,0,1,0,5.43-9l-16.29-9.8a5.25,5.25,0,0,0-5.42,9Z" style="fill:#c6f4d9"/><path id="Path_1433" data-name="Path 1433" d="M750.93,51.46a5.21,5.21,0,0,0,2.71-.76l16.28-9.8a5.25,5.25,0,1,0-5.42-9h0l-16.29,9.8a5.26,5.26,0,0,0,2.72,9.75Z" style="fill:#c6f4d9"/><path id="Path_1434" data-name="Path 1434" d="M557.81,68.8,570.41,72a5.56,5.56,0,0,0,1.29.16A5.25,5.25,0,0,0,573,61.77l-12.6-3.15a5.25,5.25,0,1,0-2.76,10.13Z" style="fill:#c6f4d9"/><path id="Path_1435" data-name="Path 1435" d="M761,68.13a5.27,5.27,0,0,0,5.09,4,5.56,5.56,0,0,0,1.29-.16l12.6-3.16a5.25,5.25,0,0,0-2.34-10.24l-.21.06-12.6,3.15A5.25,5.25,0,0,0,761,68.13Z" style="fill:#c6f4d9"/></g></g><g id="Group_272" data-name="Group 272"><path id="Path-22-3" d="M628.6,123.47s9.27-20.1,27.39-23.74c20.4-4.1,44.7-1.56,59.86,45.27,6.15,19,4,39.77,37.73,40.49,16,.34,43-12.61,53.29,35.46,4.39,20.62,12.14,12.46,37,22.58,33.14,13.52,47,89.2-12.09,105.71-17.28,4.83-38.76,3.87-69.46-21.59-35.06-29.06-104.54-85.74-104.54-85.74L636,197.11l-29.84-41.2S600.42,126.84,628.6,123.47Z" style="fill:#151719"/><path id="Path-23-3" d="M679.09,252.48s-21-6.32-16.64-58.68l1.19-13.65A124.38,124.38,0,0,1,649,190.08a118.16,118.16,0,0,1-17.16,3.72c4.38,52.36-16,54.82-16,54.82,0,26.79-3.54,25.92,1.74,26.63L646.67,285l.48-.05.47.05v-.11C652.88,284.16,679.09,279.27,679.09,252.48Z" style="fill:#ffb5a1"/><path id="Path-25-3" d="M632.42,209.79l-.17,4.72s15.14-4,16.45-12.84S632.42,209.79,632.42,209.79Z" style="fill:#e89c8b"/><path id="Path-26-3" d="M673.16,166.64c-2.58-2.25-6-.63-7.91-.76.63-23.56-9.23-60.44-59.84-8.37,0,0-6.08,41.44,7.61,50.05s41.35-.86,49.31-25.57C667.73,187,679.14,171.85,673.16,166.64Z" style="fill:#ffb5a1"/><path id="Path-27-3" d="M627.24,137.9s6.4,24.89,32.77,25.77l12.73-1.28S673.18,110.73,627.24,137.9Z" style="fill:#151719"/><path id="Path-28-3" d="M627,138.26s-5.8,25.21-28.15,28.38C598.87,166.64,601.57,127,627,138.26Z" style="fill:#151719"/><path id="Path-29-3" d="M668.84,187.14a3.86,3.86,0,0,0,3.87-3.86h0a3.87,3.87,0,0,0-3.87-3.87h0a3.86,3.86,0,0,0-3.86,3.86h0A3.86,3.86,0,0,0,668.84,187.14Z" style="fill:#fff"/><path id="Path-34-3" d="M615.83,248.62c-75,11.68-136.31,153-136.31,153l-38.21-99.49-39.55-.79s7.81,212.74,104.38,208.08c15.64-.75,33.38-20,50-47.15,6.14,23.4,12.6,42.11,12.6,42.11l47.39,2.63S616.27,248.55,615.83,248.62Z" style="fill:#ffc50c"/><path id="Path-35-2" d="M597.09,281.44s-3.89,9.89,2.32,16.28c7.47,7.69,8.32,20.31,9.41,14.92C608.81,312.64,609.32,281.32,597.09,281.44Z" style="fill:#eeb80c"/><path id="Path-36-2" d="M584.23,379.63s-6.18,28.46,31.93,64v-8.36Z" style="fill:#eeb80c"/><path id="Path-37-2" d="M616.15,248.62s-20.8,28.44-20.23,38.95c.24,4.18,9.71,10,10.88,15.38a35,35,0,0,1-2.09,21.35c-7.36,17-26,46.76-18.94,65,9.51,24.73,30.38,45.94,30.38,45.94Z" style="fill:#ff4133"/><path id="Path-40-2" d="M567.74,316.94s-21.44,58.73-22.43,79.3C544.53,412.68,557.1,461,557.1,461" style="fill:none;stroke:#151719;stroke-miterlimit:10;stroke-width:1.5149999856948853px"/><path id="Path-41-2" d="M626.9,191.39a7.79,7.79,0,0,1-10.74,2.21" style="fill:none;stroke:#e89c8b;stroke-miterlimit:10;stroke-width:1.1360000371932983px"/><path id="Path-42-2" d="M479.3,402.43s-11.52,24.88-7.48,32.53" style="fill:none;stroke:#151719;stroke-miterlimit:10;stroke-width:1.5149999856948853px"/><path id="Path-43-2" d="M647.13,282.57c-15.28,0-28.43-8.83-31-22.47V487.65l62.27.34,0-227.9h-.62C675.22,273.74,662.4,282.57,647.13,282.57Z" style="fill:#26c165"/><path id="Path-44-2" d="M613.28,482.25c-8.93-6.49-14.39-10.22-14.5-7.56-.33,6.69,6.12,14.23,6.49,13.32,0,0-25.74-17.53-33-18.35-3.84-.42,2.31,20.5,5.16,30,1.15,3.8,2.86,10.3,5.33,13.43,22,28.08,93.44,26.93,94.65,19.94,2.38-13.73-30.61-46.58-30.61-46.58S622.21,488.74,613.28,482.25Z" style="fill:#ffb5a1"/><path id="Path-45-2" d="M820,339.08c-28-47.69-72.68-76.6-105.53-85-12.88-3.3-38.68-3.71-38.68-3.71s2.35,159.63,2.48,212.33c0,4,0,11.14.05,18.41-20,3-35.39,3.83-35.39,3.83l19.68,51.64C889.54,560.47,870.14,424.44,820,339.08Z" style="fill:#ffc50c"/><path id="Path-46-2" d="M662.61,536.59s17.09,5.81,28.57,5.6l-28.57-72.54-19.68,15.29Z" style="fill:#ff4133"/><g id="Clipped-3-3"><path id="Path-47-2" d="M820.4,338.83c-28-47.88-72.68-76.9-105.54-85.35-12.88-3.31-38.67-3.72-38.67-3.72s2.34,160.27,2.48,213.18c0,4.06,0,11.18.05,18.49-20,3-35.39,3.84-35.39,3.84L663,537.12C889.93,561.09,870.54,424.53,820.4,338.83Z" style="fill:none"/><g id="Group_273" data-name="Group 273"><g style="clip-path:url(#clip-path-2)"><g id="Group_272-2" data-name="Group 272-2"><g id="Clipped-4-3"><g id="Group-2-3"><path id="Path-48-2" d="M751.86,298.32c40.55,0,73.42-29.33,73.42-65.51s-32.87-65.52-73.42-65.52-73.41,29.34-73.41,65.52S711.32,298.32,751.86,298.32Z" style="fill:none;stroke:#fff;stroke-miterlimit:10;stroke-width:22.724000930786133px;opacity:0.5;isolation:isolate"/><path id="Path-49-2" d="M848.39,534.13c40.55,0,73.42-29.33,73.42-65.51s-32.87-65.52-73.42-65.52S775,432.43,775,468.62,807.85,534.13,848.39,534.13Z" style="fill:none;stroke:#fff;stroke-miterlimit:10;stroke-width:22.724000930786133px;opacity:0.5;isolation:isolate"/></g></g></g></g></g></g><path id="Path-50-2" d="M696.28,288.24s4,11.44-1.66,19c-4.24,5.62-10.26,22.72-10.26,22.72S686.46,282.79,696.28,288.24Z" style="fill:#eeb80c"/><path id="Path-51-2" d="M713.72,400.58s5.23,20-35.29,55.51V443.36Z" style="fill:#eeb80c"/><path id="Path-52-2" d="M675.8,250.36l14.68,25.49c.95,2.41,3.73,6.75,5.28,10.57a9.53,9.53,0,0,1-.41,8L686.71,311a30.66,30.66,0,0,0,.87,19.57c8.66,22.38,28.79,60.33,25.86,73.65-2.81,12.84-35,43.84-35,43.84Z" style="fill:#ff4133"/><path id="Path-53-2" d="M697.66,477.74c19.91,1.86,157.88-8.09,26.61-169.21" style="fill:none;stroke:#151719;stroke-miterlimit:10;stroke-width:1.5149999856948853px"/><g id="Clipped-5-2"><path id="Path-54-2" d="M615.83,248.62c-75,11.68-136.31,153-136.31,153l-38.21-99.49-39.55-.79s7.81,212.74,104.38,208.08c15.64-.76,33.38-20,50-47.16,6.14,23.41,12.6,42.11,12.6,42.11l47.39,2.64S616.27,248.55,615.83,248.62Z" style="fill:none"/><g id="Group_275" data-name="Group 275"><g style="clip-path:url(#clip-path-3)"><g id="Group_274" data-name="Group 274"><g id="Clipped-6-2"><path id="Path-55-2" d="M454.06,484.21a65.51,65.51,0,0,0,65.52-65.52h0a65.52,65.52,0,0,0-131,0h0a65.52,65.52,0,0,0,65.51,65.52Z" style="fill:none;stroke:#fff9f9;stroke-miterlimit:10;stroke-width:22.724000930786133px;opacity:0.5;isolation:isolate"/></g></g></g></g></g><path id="Path-44-3" d="M378.6,249.62c-8.93-6.5-14.39-10.23-14.51-7.56-.33,6.69,6.13,14.23,6.5,13.31,0,0-25.75-17.53-33-18.35-3.84-.42,2.31,20.51,5.16,30,1.15,3.81,2.85,10.3,5.33,13.44,22,28.07,52.5,48.4,53.71,41.4,2.38-13.73,46.86-9,46.86-9S387.52,256.11,378.6,249.62Z" style="fill:#ffb5a1"/><path id="Path-38-2" d="M401.76,301.38l39.56.8,12.74,19.63h-52.3Z" style="fill:#ff4133"/></g></g></g></g></g></g></g></svg>