<svg xmlns="http://www.w3.org/2000/svg" xmlns:xlink="http://www.w3.org/1999/xlink" viewBox="0 0 957.43 710.99"><defs><clipPath id="clip-path" transform="translate(0 99.05)"><polygon points="0 0 908.29 0 908.29 508.83 908.29 508.83 0 508.83 0 508.83 0 0" style="fill:none"/></clipPath><clipPath id="clip-path-2" transform="translate(0 99.05)"><rect x="177.4" y="71.7" width="551.58" height="437.14" style="fill:none"/></clipPath><clipPath id="clip-path-3" transform="translate(0 99.05)"><path d="M487.59,281.86l-.07,0v0s-.1,0-.09,0c.42.6.42,243,.42,243s99.73-7.28,116.07,0C674.19,556.1,591.71,298.06,487.59,281.86Z" style="fill:none"/></clipPath><clipPath id="clip-path-4" transform="translate(0 99.05)"><path d="M418.61,280.43l.06-.05v0s.11-.05.09,0c-.42.61-.42,241.24-.42,241.24s-100.38-7.24-116.83,0C230.78,552.66,313.8,296.5,418.61,280.43Z" style="fill:none"/></clipPath></defs><title>ลิงก์มหาลาภ</title><g id="Layer_2" data-name="Layer 2"><g id="Layer_1-2" data-name="Layer 1"><g id="ลิงก์มหาลาภ"><path id="Mask-5" d="M0,0H908.29V508.83H0Z" transform="translate(0 99.05)" style="fill:#e8fff1"/><g style="clip-path:url(#clip-path)"><g id="Banner_1" data-name="Banner 1"><path id="Shape" d="M900.58,416.24a56.54,56.54,0,0,1-40.44-17,57.12,57.12,0,0,1,34.08-97.2V267a92.31,92.31,0,0,1,17.15-53.9,95.09,95.09,0,0,0-55.59,30,96.35,96.35,0,0,0-24.85,58.7,58.5,58.5,0,0,1,20.75,6.85,69.36,69.36,0,0,0-21,49.89,70.79,70.79,0,0,0,21,50.32,56,56,0,0,1-67.82-9.68,57.53,57.53,0,0,1-16.77-40.64,56.54,56.54,0,0,1,14.82-38.19A57.44,57.44,0,0,1,818.23,302a109.21,109.21,0,0,1,12.32-45.21,58.38,58.38,0,0,1-25.32,6c-23.8,0-41.1-15.77-45.84-20.61l-.22-.22-4.79-4.59,4.8-4.59.21-.22c4.76-4.84,22.08-20.61,45.84-20.61,22,0,38.3,13.35,44.28,19.1A107.7,107.7,0,0,1,926,199.28h15.35L930.5,210.13A79.91,79.91,0,0,0,906.94,267v35a57.3,57.3,0,0,1-6.36,114.19Zm0-89.4a31.83,31.83,0,0,0-31.79,31.77H881.5a19.11,19.11,0,0,1,19.07-19.07Zm-76.29,0a31.82,31.82,0,0,0-31.77,31.77h12.71a19.09,19.09,0,0,1,19-19.07Z" transform="translate(0 99.05)" style="fill:#c6f4d9"/><path id="Shape_Copy_3" data-name="Shape Copy 3" d="M651.64,147.63a33,33,0,0,1-14.11-2.92,27.57,27.57,0,0,1-8.69-6.4A29.91,29.91,0,0,1,606,147.63c-17.19,0-34.6-12.13-34.6-35.3a44.88,44.88,0,0,1,6.76-24.78C585.36,75.82,621,40.82,625,36.87l3.88-3.8,3.88,3.8c1.6,1.57,39.16,38.57,46.6,50.67a44.79,44.79,0,0,1,6.8,24.78C686.18,133.11,672,147.63,651.64,147.63Zm65.17-65.91A44.71,44.71,0,0,1,692,74.94c-11.65-7.15-46.72-42.82-50.68-46.87l-3.81-3.88,3.81-3.88c1.57-1.59,38.56-39.16,50.66-46.6a44.72,44.72,0,0,1,24.78-6.79c20.78,0,35.3,14.19,35.3,34.51a33.07,33.07,0,0,1-2.92,14.13,27.45,27.45,0,0,1-6.41,8.69,29.88,29.88,0,0,1,9.33,22.86C752.11,64.3,740,81.72,716.81,81.72Zm-176.06,0c-20.78,0-35.3-14.19-35.3-34.51a33.07,33.07,0,0,1,2.92-14.13,27.6,27.6,0,0,1,6.41-8.7,29.88,29.88,0,0,1-9.33-22.85c0-17.2,12.13-34.6,35.3-34.6a44.77,44.77,0,0,1,24.78,6.75c11.69,7.18,46.73,42.83,50.68,46.87L620,24.41l-3.81,3.88c-1.56,1.6-38.52,39.14-50.66,46.61a44.88,44.88,0,0,1-24.8,6.8Zm87.92-66.17h0l-3.88-3.81c-1.6-1.56-39.17-38.56-46.61-50.66a44.91,44.91,0,0,1-6.8-24.79c0-20.79,14.2-35.3,34.52-35.3A33.21,33.21,0,0,1,620-96.11a27.49,27.49,0,0,1,8.7,6.41A29.92,29.92,0,0,1,651.58-99c17.19,0,34.6,12.13,34.62,35.3a44.85,44.85,0,0,1-6.78,24.78c-7.23,11.75-42.83,46.73-46.87,50.69l-3.88,3.8Z" transform="translate(0 99.05)" style="fill:#c6f4d9"/><path id="Shape_Copy" data-name="Shape Copy" d="M193,564.23H111.09l.24-7a217.48,217.48,0,0,1,6.28-45.34A227.09,227.09,0,0,1,133.54,468a272.47,272.47,0,0,1,25.74-42.52A357.71,357.71,0,0,1,195,384.19l.24-.24-.15,0a343.12,343.12,0,0,0-54.87-4.74,168.6,168.6,0,0,0-25.4,1.71,62,62,0,0,0-17.69,5v13.65H56.17V331.31H97.11v13.93a212.51,212.51,0,0,1,52.5-7.16,168,168,0,0,1,40.85,5.16A55.37,55.37,0,0,0,200.77,345a13.61,13.61,0,0,0,12.8-9.1v-4.55h40.94l-.1,7.08c-1.4,37.33-17.56,59.68-33.19,81.32l0,0a196.26,196.26,0,0,0-14.38,22.9,159.87,159.87,0,0,0-18.73,67.6,193.49,193.49,0,0,0,3.33,45.89l1.53,8.09Z" transform="translate(0 99.05)" style="fill:#c6f4d9"/><g id="Illustration_1" data-name="Illustration 1"><g id="Clipped"><path id="Path-6" d="M729,71.7H177.4V508.84H729Z" transform="translate(0 99.05)" style="fill:none"/><g style="clip-path:url(#clip-path-2)"><g id="Clipped-2"><g id="Group"><path id="Path-7" d="M446.77,132.5s-41.38-25.08-60.22,27.75c0,0-15.86,37.27,0,49.49s-14,31.86-19.82,35.63c-20.11,12.95-37.28,31.22-14.18,87.78s100.36,47.67,100.36,47.67Z" transform="translate(0 99.05)" style="fill:#151719"/><path id="Path-8" d="M431.49,143.21s8.89-22,26.66-25.75c20-4.27,43.92-1.21,59.36,50.35,6.25,20.89-2.79,60.53,6.21,72.14,13.82,17.84,61.23,40.69,55,62.84-7.45,26.63-59.21,76.93-89.69,48.65-34.79-32.28-27.6-77.93-27.6-77.93L439.54,224.1l-29.79-45.54S403.82,146.58,431.49,143.21Z" transform="translate(0 99.05)" style="fill:#151719"/><path id="Path-9" d="M485.94,280.43l-.06-.05v0l-.09,0c.43.61.43,241.24.43,241.24s101.07-7.24,117.63,0C675.06,552.66,591.48,296.5,485.94,280.43Z" transform="translate(0 99.05)" style="fill:#ffc50c"/><path id="Path-10" d="M419.6,280.43l.06-.05v0s.11-.05.09,0c-.42.6-.42,241.23-.42,241.23s-101.07-7.23-117.64,0C230.48,552.66,314.06,296.5,419.6,280.43Z" transform="translate(0 99.05)" style="fill:#ffc50c"/><path id="Path-11" d="M486.46,280.39s-21.48-2.7-16.68-60.22l1.3-15s-11.62,9-16,10.91-18.79,4.09-18.79,4.09c4.78,57.52-17.53,60.22-17.53,60.22-3.7,37.86,30.35,37.86,35,37.86C456.81,318.25,495.19,316.45,486.46,280.39Z" transform="translate(0 99.05)" style="fill:#ffb5a1"/><path id="Path-12" d="M453,317.7c-16.73,0-31.14-9.71-33.92-24.68V523.19l67.13-1.56,1-228.61h-.69C483.78,308,469.74,317.7,453,317.7Z" transform="translate(0 99.05)" style="fill:#26c165"/><path id="Path-13" d="M436.92,234.46h32.17S454.36,254,436.92,234.46Z" transform="translate(0 99.05)" style="fill:#e89c8b"/><path id="Path-14" d="M507.36,316.45s4.27,10.87-2.54,17.89c-8.18,8.44-9.12,22.3-10.31,16.38C494.51,350.72,494,316.32,507.36,316.45Z" transform="translate(0 99.05)" style="fill:#e5b20c"/><path id="Path-15" d="M521.44,424.31s6.76,31.28-35,70.28v-9.18Z" transform="translate(0 99.05)" style="fill:#e5b20c"/><path id="Path-16" d="M414.38,173.65s-1.95,65,38.54,65,32.18-67.28,32.18-67.28l-45.81-18.94Z" transform="translate(0 99.05)" style="fill:#ffb5a1"/><path id="Path-17" d="M439.3,152.49s-6.37,27.69-30.84,31.18C408.46,183.67,411.42,140.16,439.3,152.49Z" transform="translate(0 99.05)" style="fill:#151719"/><path id="Path-18" d="M439.55,152.09s7,27.35,35.9,28.32L489.4,179S489.86,122.24,439.55,152.09Z" transform="translate(0 99.05)" style="fill:#151719"/><path id="Path-19" d="M485.36,190.33s18.94,2.6-2.86,22.41Z" transform="translate(0 99.05)" style="fill:#ffb5a1"/><path id="Path-20" d="M485.1,212.85a4.25,4.25,0,1,0-4.23-4.27v0a4.24,4.24,0,0,0,4.23,4.25Z" transform="translate(0 99.05)" style="fill:#fff"/><path id="Path-21" d="M417.54,190.33s-19,2.6,2.85,22.41Z" transform="translate(0 99.05)" style="fill:#ffb5a1"/><path id="Path-22" d="M417.8,212.85a4.25,4.25,0,1,0-4.24-4.26h0a4.25,4.25,0,0,0,4.24,4.25Z" transform="translate(0 99.05)" style="fill:#fff"/><g id="Clipped-3"><path id="Path-23" d="M487.59,281.86l-.07,0v0s-.1,0-.09,0c.42.6.42,243,.42,243s99.73-7.28,116.07,0C674.19,556.1,591.71,298.06,487.59,281.86Z" transform="translate(0 99.05)" style="fill:none"/><g style="clip-path:url(#clip-path-3)"><g id="Clipped-4"><g id="Group-2"><path id="Path-24" d="M476.86,355.77a71.32,71.32,0,1,0-71.31-71.32h0a71.31,71.31,0,0,0,71.31,71.31Z" transform="translate(0 99.05)" style="fill:none;stroke:#fffffe;stroke-miterlimit:10;stroke-width:10.513999938964844px;opacity:0.5;isolation:isolate"/><path id="Path-25" d="M562.71,606.68a72.63,72.63,0,1,0-72.64-72.63,72.63,72.63,0,0,0,72.64,72.63Z" transform="translate(0 99.05)" style="fill:none;stroke:#fffffe;stroke-miterlimit:10;stroke-width:10.513999938964844px;opacity:0.5;isolation:isolate"/></g></g></g></g><g id="Clipped-5"><path id="Path-26" d="M418.61,280.43l.06-.05v0s.11-.05.09,0c-.42.61-.42,241.24-.42,241.24s-100.38-7.24-116.83,0C230.78,552.66,313.8,296.5,418.61,280.43Z" transform="translate(0 99.05)" style="fill:none"/><g style="clip-path:url(#clip-path-4)"><g id="Clipped-6"><path id="Path-27" d="M332.14,484.49a71.61,71.61,0,1,0-70.91-72.32v.71A71.26,71.26,0,0,0,332.14,484.49Z" transform="translate(0 99.05)" style="fill:none;stroke:#fcfcfb;stroke-miterlimit:10;stroke-width:10.513999938964844px;opacity:0.5;isolation:isolate"/></g></g></g><path id="Path-28" d="M486.47,280.39s22.79,31.25,22.16,42.8c-.25,4.59-10.63,11-11.92,16.9a38.51,38.51,0,0,0,2.3,23.45c8.06,18.65,28.42,51.36,20.75,71.4-10.42,27.16-33.29,50.47-33.29,50.47Z" transform="translate(0 99.05)" style="fill:#ff5668"/><path id="Path-29" d="M419.09,280.39s-22.79,31.25-22.15,42.8c.24,4.59,10.63,11,11.91,16.9a38.51,38.51,0,0,1-2.29,23.45c-8.07,18.65-28.43,51.36-20.75,71.4,10.41,27.16,33.29,50.46,33.29,50.46Z" transform="translate(0 99.05)" style="fill:#ff5668"/><path id="Path-30" d="M303.81,457s-11.38,29.49-8.91,51.69" transform="translate(0 99.05)" style="fill:none;stroke:#151719;stroke-miterlimit:10;stroke-width:0.4350000023841858px"/><path id="Path-31" d="M372.05,508.84a140.12,140.12,0,0,1-5-44.68" transform="translate(0 99.05)" style="fill:none;stroke:#151719;stroke-miterlimit:10;stroke-width:0.4350000023841858px"/><path id="Path-32" d="M376.54,436l2.57,40.25s-64.69,23.64-84.21-25.41l15.35-36.27Z" transform="translate(0 99.05)" style="fill:#ff5668"/><path id="Path-33" d="M376.55,436s42.18-50.63,28.8-47.84a55.61,55.61,0,0,0-19.94,7.59s14.8-61.74,6.85-61.32-27.9,50.78-27.9,50.78Z" transform="translate(0 99.05)" style="fill:#ffb5a1"/><path id="Path-34" d="M369.34,381.5s-26-11.54-37.66-6.33-21.43,39.39-21.43,39.39-.17,16.92,20.33,27.48,46-6.05,46-6.05Z" transform="translate(0 99.05)" style="fill:#ffb5a1"/><path id="Path-35" d="M365.49,380.34s17.7,42.81-9.71,40.31" transform="translate(0 99.05)" style="fill:none;stroke:#e89c8b;stroke-miterlimit:10;stroke-width:0.7009999752044678px"/><path id="Path-36" d="M564.44,508.73s13.11-55.42-16.3-117.52" transform="translate(0 99.05)" style="fill:none;stroke:#151719;stroke-miterlimit:10;stroke-width:0.4350000023841858px"/><path id="Path-37" d="M398.19,316.45s-4.26,10.87,2.55,17.89c8.18,8.44,9.12,22.31,10.3,16.38C411,350.72,411.6,316.32,398.19,316.45Z" transform="translate(0 99.05)" style="fill:#e5b20c"/><path id="Path-38" d="M384.13,424.31s-6.76,31.28,35,70.28v-9.18Z" transform="translate(0 99.05)" style="fill:#e5b20c"/></g></g></g></g><path id="Path-39" d="M686.81,168.93H631.12a22.46,22.46,0,0,0-22.46,22.45v55.69a22.46,22.46,0,0,0,22.46,22.45h55.69a22.45,22.45,0,0,0,22.45-22.45h0V191.38a22.45,22.45,0,0,0-22.45-22.45Z" transform="translate(0 99.05)" style="fill:#26c165"/><g id="Group_46" data-name="Group 46"><path id="Path_44" data-name="Path 44" d="M650.62,208.35c10.11,0,17.67-4,17.67-7.57s-7.56-7.58-17.67-7.58-17.67,4-17.67,7.58S640.51,208.35,650.62,208.35Z" transform="translate(0 99.05)" style="fill:#fff"/><path id="Path_45" data-name="Path 45" d="M650.62,238.65a37.71,37.71,0,0,0,4.25-.24,20.05,20.05,0,0,1-2.79-4.83c-.47,0-1,0-1.46,0a35.18,35.18,0,0,1-15.41-3.23,19.68,19.68,0,0,1-2.26-1.33v2C633,234.65,640.51,238.65,650.62,238.65Z" transform="translate(0 99.05)" style="fill:#fff"/><path id="Path_46" data-name="Path 46" d="M650.62,228.55h.16a20.32,20.32,0,0,1,0-5.05h-.16a35.31,35.31,0,0,1-15.41-3.22A20.49,20.49,0,0,1,633,219v2C633,224.55,640.51,228.55,650.62,228.55Z" transform="translate(0 99.05)" style="fill:#fff"/><path id="Path_47" data-name="Path 47" d="M650.62,218.46c.5,0,1,0,1.48,0a20.28,20.28,0,0,1,3.16-5.27,42.3,42.3,0,0,1-4.64.25,35.31,35.31,0,0,1-15.41-3.22,19.6,19.6,0,0,1-2.26-1.32v2C633,214.46,640.51,218.46,650.62,218.46Z" transform="translate(0 99.05)" style="fill:#fff"/><path id="Path_48" data-name="Path 48" d="M658.19,217.66a15.17,15.17,0,0,0-2.52,8.36,15.72,15.72,0,0,0,.15,2.17,15.19,15.19,0,1,0,2.38-10.53Z" transform="translate(0 99.05)" style="fill:#fff"/></g><g id="Group_47" data-name="Group 47"><path id="Path-40" d="M255.18,71.78H165.26A36.25,36.25,0,0,0,129,108v89.92a36.25,36.25,0,0,0,36.24,36.24h89.92a36.24,36.24,0,0,0,36.24-36.24h0V108a36.24,36.24,0,0,0-36.24-36.24Z" transform="translate(0 99.05)" style="fill:#26c165"/><g id="Group_51" data-name="Group 51"><path id="Path_49" data-name="Path 49" d="M204.3,148.08a16.9,16.9,0,1,1,16.9-16.9h0A16.92,16.92,0,0,1,204.3,148.08Z" transform="translate(0 99.05)" style="fill:#fff"/><g id="Group_50" data-name="Group 50"><g id="Group_49" data-name="Group 49"><path id="Path_50" data-name="Path 50" d="M210.86,160.47a19.63,19.63,0,0,1,2.87-10.23,21.23,21.23,0,0,1-21.29-1.41,32.85,32.85,0,0,0-20.92,30.57v7.29a2.19,2.19,0,0,0,2.18,2.18h61.19a2.19,2.19,0,0,0,2.19-2.18V179a19.68,19.68,0,0,1-26.22-18.55Z" transform="translate(0 99.05)" style="fill:#fff"/></g><path id="Path_51" data-name="Path 51" d="M230.53,145.17a15.3,15.3,0,1,0,15.3,15.3h0A15.32,15.32,0,0,0,230.53,145.17Zm4.37,17.48h-2.18v2.19a2.19,2.19,0,0,1-4.38,0v-2.19h-2.18a2.19,2.19,0,1,1,0-4.37h2.18V156.1a2.19,2.19,0,0,1,4.38,0v2.18h2.18a2.19,2.19,0,1,1,0,4.37Z" transform="translate(0 99.05)" style="fill:#fff"/></g></g></g></g></g></g></g></g></g></svg>