<svg xmlns="http://www.w3.org/2000/svg" xmlns:xlink="http://www.w3.org/1999/xlink" viewBox="0 0 915.15 570.91"><defs><clipPath id="clip-path"><polygon points="0 0 913.05 0 913.05 508.83 913.05 508.83 0 508.83 0 508.83 0 0" style="fill:none"/></clipPath><clipPath id="clip-path-2"><path d="M156.49,367.75c28.3-48.38,73.43-77.69,106.62-86.23,13-3.35,39.08-3.76,39.08-3.76s-2.38,161.92-2.5,215.39c0,4.11,0,11.3-.05,18.68,20.18,3,35.76,3.89,35.76,3.89L315.51,568.1C86.24,592.33,105.83,454.35,156.49,367.75Z" style="fill:none"/></clipPath><clipPath id="clip-path-3"><path d="M363.18,276.61c75.74,11.8,137.73,154.63,137.73,154.63L539.5,330.73l40-.81s-7.9,215-105.46,210.24c-15.8-.76-33.72-20.18-50.56-47.64-6.2,23.65-12.73,42.54-12.73,42.54l-47.87,2.67S362.73,276.54,363.18,276.61Z" style="fill:none"/></clipPath><clipPath id="clip-path-4"><rect x="532.63" y="235.42" width="37.67" height="35.42" transform="translate(-49.91 172.29) rotate(-17)" style="fill:none"/></clipPath><clipPath id="clip-path-5"><path d="M554.21,251.63h0s5.83,19,5.83,19a50.55,50.55,0,0,1,9.07-2.78C575.34,268.6,562.73,250.4,554.21,251.63Z" style="fill:none"/></clipPath><clipPath id="clip-path-6"><path d="M548.79,253.15h0c0,.06,5.74,18.86,5.74,18.86a50.14,50.14,0,0,0-9.13,2.79C540.63,278.91,541,256.92,548.79,253.15Z" style="fill:none"/></clipPath></defs><title>แจกเครดิตฟรี 5 555.-</title><g id="Layer_2" data-name="Layer 2"><g id="Layer_1-2" data-name="Layer 1"><g id="แจกเครดิตฟรี_5_555.-" data-name="แจกเครดิตฟรี 5 555.-"><g id="แจกเครดิตฟรี_5_555.--2" data-name="แจกเครดิตฟรี 5 555.--2"><path id="Mask-6" d="M0,0H913.05V508.83H0Z" style="fill:#e8fff1"/><g style="clip-path:url(#clip-path)"><g id="Group_50-2" data-name="Group 50-2"><g id="Illustration_2" data-name="Illustration 2"><path id="Path-41" d="M350.27,150.17s-9.36-20.31-27.67-24C302,122,277.44,124.6,262.12,171.91c-6.21,19.18-4,40.19-38.13,40.9-16.16.35-43.48-12.74-53.83,35.83-4.44,20.83-12.26,12.6-37.35,22.82C99.32,285.13,85.29,361.59,145,378.27c17.46,4.88,39.16,3.91,70.18-21.81,35.42-29.35,105.62-86.63,105.62-86.63l22-45.26L373,182.94S378.74,153.57,350.27,150.17Z" style="fill:#151719"/><path id="Path-42" d="M299.27,280.52s21.25-6.39,16.82-59.3l-1.2-13.79a122.5,122.5,0,0,0,14.8,10A119.31,119.31,0,0,0,347,221.22c-4.43,52.91,16.17,55.4,16.17,55.4,0,27.07,3.56,26.18-1.76,26.9L332,313.36l-.47-.05-.48.05v-.12C325.75,312.53,299.27,307.59,299.27,280.52Z" style="fill:#ffb5a1"/><path id="Path-43" d="M526,296c-6-10.22,13.14-19.56,13.14-19.56l34.81,15.83.51,2.78,1-33.65s-3.74-12.49,10.53,4-5,65.21-5,65.21l-34.14.69Z" style="fill:#ffb5a1"/><path id="Path-44" d="M346.42,237.38l.17,4.77s-15.3-4.08-16.62-13S346.42,237.38,346.42,237.38Z" style="fill:#e89c8b"/><path id="Path-45" d="M305.25,193.78c2.61-2.26,6.09-.63,8-.76-.63-23.81,9.32-61.07,60.46-8.47,0,0,6.14,41.88-7.69,50.58s-41.78-.86-49.83-25.83C310.73,214.31,299.2,199.05,305.25,193.78Z" style="fill:#ffb5a1"/><path id="Path-46" d="M351.64,164.74s-6.46,25.15-33.1,26l-12.87-1.29S305.23,137.29,351.64,164.74Z" style="fill:#151719"/><path id="Path-47" d="M351.87,165.11s5.86,25.46,28.45,28.67C380.32,193.78,377.59,153.77,351.87,165.11Z" style="fill:#151719"/><path id="Path-48" d="M309.61,214.49a3.91,3.91,0,1,1,3.91-3.91h0A3.91,3.91,0,0,1,309.61,214.49Z" style="fill:#fff"/><path id="Path-49" d="M553.8,304.56l7.71-2.76s.11,8.06-3.39,12.11Z" style="fill:#e89c8b"/><path id="Path-50" d="M575.67,256.86s-16.13,7-11.55,15.77,19.55,8.85,19.55,8.85Z" style="fill:#ffb5a1"/><path id="Path-51" d="M363.18,276.61c75.74,11.8,137.73,154.63,137.73,154.63L539.5,330.73l40-.81s-7.9,215-105.46,210.24c-15.8-.76-33.72-20.18-50.56-47.64-6.2,23.65-12.73,42.54-12.73,42.54l-47.87,2.67S362.73,276.54,363.18,276.61Z" style="fill:#ffc50c"/><path id="Path-52" d="M382.11,309.77s3.93,10-2.34,16.45c-7.55,7.77-8.42,20.52-9.51,15.07C370.26,341.29,369.75,309.65,382.11,309.77Z" style="fill:#eeb80c"/><path id="Path-53" d="M395.1,409s6.24,28.77-32.26,64.63v-8.45Z" style="fill:#eeb80c"/><path id="Path-54" d="M362.85,276.61s21,28.74,20.44,39.35c-.23,4.23-9.8,10.1-11,15.54a35.36,35.36,0,0,0,2.12,21.58c7.44,17.16,26.23,47.24,19.13,65.67-9.61,25-30.7,46.41-30.7,46.41Z" style="fill:#ff5668"/><path id="Path-55" d="M579.47,329.92l-40,.81-12.88,19.83h52.85Z" style="fill:#ff5668"/><path id="Path-56" d="M411.77,345.64s21.66,59.32,22.65,80.13c.79,16.6-11.91,65.44-11.91,65.44" style="fill:none;stroke:#151719;stroke-miterlimit:10;stroke-width:0.5080000162124634px"/><path id="Path-57" d="M352,218.79A7.88,7.88,0,0,0,362.84,221" style="fill:none;stroke:#e89c8b;stroke-miterlimit:10;stroke-width:0.38100001215934753px"/><path id="Path-58" d="M501.12,432s11.65,25.14,7.56,32.88" style="fill:none;stroke:#151719;stroke-miterlimit:10;stroke-width:0.5080000162124634px"/><path id="Path-59" d="M331.54,310.92c15.44,0,28.73-8.93,31.29-22.7V518.14l-62.91.34L300,288.21h.63C303.17,302,316.12,310.92,331.54,310.92Z" style="fill:#26c165"/><path id="Path-60" d="M156.89,368c28.3-48.19,73.43-77.39,106.62-85.9,13-3.33,39.08-3.74,39.08-3.74s-2.38,161.29-2.5,214.53c0,4.09,0,11.26,0,18.6,20.18,3,35.76,3.88,35.76,3.88l-19.89,52.17C86.63,591.69,106.23,454.25,156.89,368Z" style="fill:#ffc50c"/><g id="Clipped-7"><path id="Path-61" d="M156.49,367.75c28.3-48.38,73.43-77.69,106.62-86.23,13-3.35,39.08-3.76,39.08-3.76s-2.38,161.92-2.5,215.39c0,4.11,0,11.3-.05,18.68,20.18,3,35.76,3.89,35.76,3.89L315.51,568.1C86.24,592.33,105.83,454.35,156.49,367.75Z" style="fill:none"/><g style="clip-path:url(#clip-path-2)"><g id="Clipped-8"><g id="Group-3"><path id="Path-62" d="M225.75,326.83c-41,0-74.19-29.63-74.19-66.19s33.21-66.19,74.19-66.19,74.18,29.63,74.18,66.19S266.7,326.83,225.75,326.83Z" style="fill:none;stroke:#fff;stroke-miterlimit:10;stroke-width:7.624000072479248px;opacity:0.5;isolation:isolate"/><path id="Path-63" d="M128.21,565.08c-41,0-74.18-29.63-74.18-66.19s33.21-66.19,74.18-66.19,74.19,29.63,74.19,66.19S169.17,565.08,128.21,565.08Z" style="fill:none;stroke:#fff;stroke-miterlimit:10;stroke-width:7.624000072479248px;opacity:0.5;isolation:isolate"/></g></g></g></g><path id="Path-64" d="M281.89,316.64s-4.06,11.56,1.69,19.18c4.28,5.69,10.37,23,10.37,23S291.82,311.13,281.89,316.64Z" style="fill:#eeb80c"/><path id="Path-65" d="M264.27,430.14s-5.29,20.21,35.65,56.1V473.37Z" style="fill:#eeb80c"/><path id="Path-66" d="M302.59,278.37l-14.83,25.75c-.95,2.44-3.76,6.82-5.33,10.68a9.64,9.64,0,0,0,.41,8.08l8.73,16.77a31,31,0,0,1-.87,19.76c-8.76,22.62-29.09,61-26.14,74.42,2.86,13,35.36,44.3,35.36,44.3Z" style="fill:#ff5668"/><path id="Path-67" d="M280.5,508.09C260.39,510,121,499.93,253.62,337.14" style="fill:none;stroke:#151719;stroke-miterlimit:10;stroke-width:0.5080000162124634px"/><g id="Clipped-9"><path id="Path-68" d="M363.18,276.61c75.74,11.8,137.73,154.63,137.73,154.63L539.5,330.73l40-.81s-7.9,215-105.46,210.24c-15.8-.76-33.72-20.18-50.56-47.64-6.2,23.65-12.73,42.54-12.73,42.54l-47.87,2.67S362.73,276.54,363.18,276.61Z" style="fill:none"/><g style="clip-path:url(#clip-path-3)"><g id="Clipped-10"><path id="Path-69" d="M526.63,514.64a66.19,66.19,0,1,1,66.19-66.19,66.19,66.19,0,0,1-66.19,66.19Z" style="fill:none;stroke:#fff9f9;stroke-miterlimit:10;stroke-width:7.624000072479248px;opacity:0.5;isolation:isolate"/></g></g></g><g id="Group_51-2" data-name="Group 51-2"><path id="Path-70" d="M414.78,82.19h47.66a22.13,22.13,0,0,1,22.14,22.13h0v28.1a22.13,22.13,0,0,1-22.13,22.13H449.29l-10.68,10.68-10.67-10.68H414.78a22.13,22.13,0,0,1-22.14-22.13v-28.1a22.13,22.13,0,0,1,22.14-22.13Z" style="fill:#ff5668"/></g><g id="Group_39" data-name="Group 39"><g id="Group_38" data-name="Group 38"><path id="Path_26" data-name="Path 26" d="M458.18,111.56l-14.43-15a1.66,1.66,0,0,0-2.85,1.16V105h-.57a21.68,21.68,0,0,0-21.64,21.64v3.33a1.67,1.67,0,0,0,1.3,1.6,1.5,1.5,0,0,0,.37,0,1.72,1.72,0,0,0,1.51-.95,18.21,18.21,0,0,1,16.38-10.12h2.64v7.21a1.65,1.65,0,0,0,1.67,1.65,1.63,1.63,0,0,0,1.18-.5l14.43-15A1.65,1.65,0,0,0,458.18,111.56Z" style="fill:#fff"/></g></g><g id="Group_268" data-name="Group 268"><g id="Group_215" data-name="Group 215"><path id="Path_1333" data-name="Path 1333" d="M551.32,307.94a4.51,4.51,0,0,1-5.63-2.95l-21.8-71.3a4.5,4.5,0,0,1,3-5.59l30.91-9.46a4.5,4.5,0,0,1,5.64,3l21.8,71.3a4.51,4.51,0,0,1-3,5.59Z" style="fill:#fff"/><path id="Path_1334" data-name="Path 1334" d="M558,219.28a3.84,3.84,0,0,1,4.8,2.5l21.8,71.31a3.85,3.85,0,0,1-2.58,4.77l-30.92,9.44a3.83,3.83,0,0,1-4.81-2.5l-21.8-71.3a3.83,3.83,0,0,1,2.59-4.76L558,219.28m-.39-1.28-30.92,9.46a5.16,5.16,0,0,0-3.46,6.43h0l21.8,71.3a5.17,5.17,0,0,0,6.47,3.39l30.92-9.46a5.16,5.16,0,0,0,3.47-6.42h0l-21.8-71.31a5.17,5.17,0,0,0-6.47-3.39h0Z" style="fill:#2c3e59"/></g><path id="Path_1335" data-name="Path 1335" d="M550.72,226.41a.82.82,0,0,1-.54,1h0L536,231.76a.84.84,0,0,1-1-.55h0a.84.84,0,0,1,.56-1l14.14-4.32a.82.82,0,0,1,1,.53Z" style="fill:#c1cbd3"/><path id="Path_1336" data-name="Path 1336" d="M544.21,231.43a.85.85,0,0,1-.55,1l-6.79,2.07a.82.82,0,0,1-1-.53v0h0a.82.82,0,0,1,.54-1l6.78-2.09A.85.85,0,0,1,544.21,231.43Z" style="fill:#c1cbd3"/><g id="Group_222" data-name="Group 222"><g id="Group_217" data-name="Group 217"><path id="Path_1337" data-name="Path 1337" d="M533.77,233.23a3.72,3.72,0,1,1-4.65-2.47A3.72,3.72,0,0,1,533.77,233.23Z" style="fill:#c1cbd3"/><g id="Group_216" data-name="Group 216"><path id="Path_1338" data-name="Path 1338" d="M533.62,233.28a3.56,3.56,0,1,1-4.45-2.37,3.6,3.6,0,0,1,4.45,2.37.16.16,0,0,0,.3-.09,3.87,3.87,0,1,0-2.57,4.83,3.91,3.91,0,0,0,2.57-4.83.15.15,0,0,0-.21-.07A.15.15,0,0,0,533.62,233.28Z" style="fill:#c1cbd3"/></g></g><g id="Group_219" data-name="Group 219"><circle id="Ellipse_7" data-name="Ellipse 7" cx="530.03" cy="233.71" r="1.44" style="fill:#fdfeff"/><g id="Group_218" data-name="Group 218"><path id="Path_1339" data-name="Path 1339" d="M531.25,233.33a1.28,1.28,0,0,1-2.45.75,1.28,1.28,0,0,1,2.45-.75c.07.18.36.1.3-.09a1.59,1.59,0,1,0-1,2,1.6,1.6,0,0,0,1-2C531.5,233.05,531.2,233.14,531.25,233.33Z" style="fill:#fdfeff"/></g></g><g id="Group_221" data-name="Group 221"><path id="Path_1340" data-name="Path 1340" d="M529.14,237.92l-.08-.25a2.08,2.08,0,0,1,4-1.21l.08.27a4.32,4.32,0,0,1-1.81,1.18A5,5,0,0,1,529.14,237.92Z" style="fill:#fdfeff"/><g id="Group_220" data-name="Group 220"><path id="Path_1341" data-name="Path 1341" d="M529.29,237.88a2,2,0,0,1,.62-2.37,1.93,1.93,0,0,1,2.7.42,1.87,1.87,0,0,1,.3.62l.05.18c0-.07.09-.14,0,0a4.34,4.34,0,0,1-1.08.82,3.87,3.87,0,0,1-2.7.26.15.15,0,0,0-.18.11.15.15,0,0,0,.11.19,4.17,4.17,0,0,0,3.35-.56c.21-.14.76-.47.83-.75s-.34-.93-.53-1.15a2.27,2.27,0,0,0-3-.36A2.34,2.34,0,0,0,529,238C529.05,238.15,529.35,238.06,529.29,237.88Z" style="fill:#fdfeff"/></g></g></g><g id="Group_231" data-name="Group 231"><g id="Group_229" data-name="Group 229"><g id="Group_224" data-name="Group 224"><path id="Path_1342" data-name="Path 1342" d="M547.6,286a2.74,2.74,0,1,1-3.43-1.82h0A2.75,2.75,0,0,1,547.6,286Z" style="fill:#c1cbd3"/><g id="Group_223" data-name="Group 223"><path id="Path_1343" data-name="Path 1343" d="M547.45,286a2.59,2.59,0,1,1-3.23-1.72,2.62,2.62,0,0,1,3.23,1.72c.06.19.36.1.29-.09a2.89,2.89,0,1,0-1.92,3.61,2.93,2.93,0,0,0,1.92-3.61C547.69,285.75,547.4,285.84,547.45,286Z" style="fill:#c1cbd3"/></g></g><g id="Group_226" data-name="Group 226"><path id="Path_1344" data-name="Path 1344" d="M545.86,286a1.06,1.06,0,1,1-1.33-.7,1.06,1.06,0,0,1,1.33.7Z" style="fill:#fdfeff"/><g id="Group_225" data-name="Group 225"><path id="Path_1345" data-name="Path 1345" d="M545.71,286.08a.91.91,0,0,1-1.74.52c-.4-1.09,1.34-1.62,1.74-.52.07.18.36.1.29-.09a1.21,1.21,0,0,0-2.32.71A1.21,1.21,0,0,0,546,286C546,285.8,545.66,285.89,545.71,286.08Z" style="fill:#fdfeff"/></g></g><g id="Group_228" data-name="Group 228"><path id="Path_1346" data-name="Path 1346" d="M544.2,289.47l-.07-.21a1.54,1.54,0,0,1,1.12-1.86,1.53,1.53,0,0,1,1.81,1l.07.23a3.11,3.11,0,0,1-1.32.91A3.8,3.8,0,0,1,544.2,289.47Z" style="fill:#fdfeff"/><g id="Group_227" data-name="Group 227"><path id="Path_1347" data-name="Path 1347" d="M544.34,289.43a1.48,1.48,0,0,1,.52-1.78,1.4,1.4,0,0,1,1.93.46s0,.05,0,.08a2,2,0,0,1,.14.38s.08-.12,0,0a3.61,3.61,0,0,1-.78.62,2.74,2.74,0,0,1-1.95.13.15.15,0,0,0-.17.13.16.16,0,0,0,.1.17,3,3,0,0,0,2.45-.33,2.1,2.1,0,0,0,.67-.62c.11-.21-.22-.75-.34-.9a1.73,1.73,0,0,0-2.23-.37,1.75,1.75,0,0,0-.64,2.12.15.15,0,0,0,.28-.09Z" style="fill:#fdfeff"/></g></g></g><g id="Group_230" data-name="Group 230"><path id="Path_1348" data-name="Path 1348" d="M565.79,278.52a.56.56,0,0,1-.37.69l-15.93,4.88a.54.54,0,0,1-.68-.36h0a.55.55,0,0,1,.36-.69h0l15.92-4.88A.55.55,0,0,1,565.79,278.52Z" style="fill:#c1cbd3"/><path id="Path_1349" data-name="Path 1349" d="M557.38,286.13a.54.54,0,0,1-.34.69h0l-6.11,1.87a.55.55,0,0,1-.69-.36h0a.55.55,0,0,1,.36-.69l6.11-1.87a.56.56,0,0,1,.69.37Z" style="fill:#c1cbd3"/><path id="Path_1350" data-name="Path 1350" d="M571.41,279.34a.55.55,0,0,1-.37.69h0L550.2,286.4a.54.54,0,0,1-.68-.35v0h0a.55.55,0,0,1,.37-.68h0L570.72,279A.56.56,0,0,1,571.41,279.34Z" style="fill:#c1cbd3"/></g></g><g id="Group_240" data-name="Group 240"><g id="Group_238" data-name="Group 238"><g id="Group_233" data-name="Group 233"><path id="Path_1351" data-name="Path 1351" d="M550.87,296.69a2.74,2.74,0,1,1-3.42-1.82,2.74,2.74,0,0,1,3.42,1.82Z" style="fill:#c1cbd3"/><g id="Group_232" data-name="Group 232"><path id="Path_1352" data-name="Path 1352" d="M550.72,296.73A2.58,2.58,0,1,1,547.5,295a2.61,2.61,0,0,1,3.22,1.71c.06.2.37.09.3-.08a2.89,2.89,0,1,0-1.92,3.61,2.94,2.94,0,0,0,1.92-3.61A.16.16,0,0,0,550.72,296.73Z" style="fill:#c1cbd3"/></g></g><g id="Group_235" data-name="Group 235"><path id="Path_1353" data-name="Path 1353" d="M549.13,296.74a1.05,1.05,0,0,1-.7,1.32,1.06,1.06,0,1,1-.62-2A1.06,1.06,0,0,1,549.13,296.74Z" style="fill:#fdfeff"/><g id="Group_234" data-name="Group 234"><path id="Path_1354" data-name="Path 1354" d="M549,296.78a.9.9,0,1,1-1.73.53c-.4-1.1,1.33-1.62,1.73-.53.07.18.36.1.3-.09a1.22,1.22,0,1,0-.81,1.52,1.24,1.24,0,0,0,.81-1.52C549.23,296.5,548.93,296.59,549,296.78Z" style="fill:#fdfeff"/></g></g><g id="Group_237" data-name="Group 237"><path id="Path_1355" data-name="Path 1355" d="M547.47,300.17l-.07-.2a1.55,1.55,0,0,1,1.12-1.87,1.53,1.53,0,0,1,1.81,1l.07.23a2.5,2.5,0,0,1-1.32.91A2.53,2.53,0,0,1,547.47,300.17Z" style="fill:#fdfeff"/><g id="Group_236" data-name="Group 236"><path id="Path_1356" data-name="Path 1356" d="M547.61,300.13a1.48,1.48,0,0,1,.52-1.78,1.4,1.4,0,0,1,1.92.46,1.17,1.17,0,0,1,.14.3c0,.08,0,.23.08.11a1.39,1.39,0,0,1-.15.19,2.6,2.6,0,0,1-.91.59,2.4,2.4,0,0,1-1.67,0c-.18-.08-.32.2-.14.28a2.8,2.8,0,0,0,2.23-.16,2.53,2.53,0,0,0,.87-.72c.15-.19,0-.51-.13-.7a1.73,1.73,0,0,0-2.29-.7,1.75,1.75,0,0,0-.76,2.19A.15.15,0,0,0,547.61,300.13Z" style="fill:#fdfeff"/></g></g></g><g id="Group_239" data-name="Group 239"><path id="Path_1357" data-name="Path 1357" d="M569.06,289.23a.55.55,0,0,1-.36.69l-15.93,4.88a.58.58,0,0,1-.7-.37h0a.56.56,0,0,1,.37-.69l15.93-4.88A.55.55,0,0,1,569.06,289.23Z" style="fill:#c1cbd3"/><path id="Path_1358" data-name="Path 1358" d="M560.65,296.84a.54.54,0,0,1-.34.69h0l-6.11,1.86a.53.53,0,0,1-.68-.35h0a.55.55,0,0,1,.36-.69h0l6.1-1.87a.56.56,0,0,1,.69.37h0Z" style="fill:#c1cbd3"/><path id="Path_1359" data-name="Path 1359" d="M574.68,290a.56.56,0,0,1-.36.7h0l-20.83,6.37a.55.55,0,0,1-.69-.36h0a.55.55,0,0,1,.36-.69h0L574,289.67A.56.56,0,0,1,574.68,290Z" style="fill:#c1cbd3"/></g></g><g id="Group_247" data-name="Group 247"><rect id="Rectangle_5" data-name="Rectangle 5" x="532.68" y="235.4" width="37.67" height="35.42" transform="translate(-49.9 172.31) rotate(-17)" style="fill:#e8fff1"/><g id="Group_246" data-name="Group 246"><g style="clip-path:url(#clip-path-4)"><g id="Group_245" data-name="Group 245"><g id="Group-4"><path id="Path-3-2" d="M547.46,240.94s-3.83-1-4,3.6c0,0-.34,3.29,1.18,3.86s-.33,2.82-.7,3.25c-1.26,1.49-2.16,3.33,1,7.2s9,1.33,9,1.33Z" style="fill:#151719"/><path id="Path-4-2" d="M546.53,242.14a3.66,3.66,0,0,1,1.46-2.65c1.46-.81,3.4-1.14,5.84,2.52,1,1.48,1.22,4.79,2.2,5.48,1.5,1.07,5.76,1.72,5.8,3.59.06,2.26-2.79,7.42-5.84,5.94a7.66,7.66,0,0,1-4-5.42l-2.89-3.33-3.41-2.85S544.44,243.06,546.53,242.14Z" style="fill:#151719"/><path id="Path-5-2" d="M554,251.55h0s5.79,18.84,5.79,18.84a52.74,52.74,0,0,1,9.19-2.82C575.32,268.3,562.67,250.29,554,251.55Z" style="fill:#ffc50c"/><path id="Path-6-2" d="M548.87,253.13h0c0,.06,5.74,18.86,5.74,18.86a50.77,50.77,0,0,0-9.19,2.8C540.6,278.92,541,256.92,548.87,253.13Z" style="fill:#ffc50c"/><path id="Path-7-2" d="M554.09,251.54s-1.75.3-2.75-4.3l-.25-1.21a10.76,10.76,0,0,1-1,1.24,10.23,10.23,0,0,1-1.37.77c1.75,4.37.07,5.12.07,5.12a2.59,2.59,0,0,0,3.62,2.11C552.68,255.2,555.63,254.15,554.09,251.54Z" style="fill:#ffb5a1"/><path id="Path-8-2" d="M552.37,255.25a2.66,2.66,0,0,1-3.24-1.12l5.49,18,5.21-1.72-5.37-17.88h-.06A2.62,2.62,0,0,1,552.37,255.25Z" style="fill:#26c165"/><path id="Path-9-2" d="M549.12,249.14l2.52-.77a1.6,1.6,0,0,1-2,1A1.79,1.79,0,0,1,549.12,249.14Z" style="fill:#e89c8b"/><path id="Path-10-2" d="M556.58,253.86a1.5,1.5,0,0,1,.23,1.47c-.43.84-.18,1.95-.4,1.52C556.41,256.85,555.53,254.17,556.58,253.86Z" style="fill:#e5b20c"/><path id="Path-11-2" d="M560.26,262s1.28,2.28-1,6.32l-.22-.72Z" style="fill:#e5b20c"/><path id="Path-12-2" d="M545.91,244.92s1.4,5.14,4.56,4.17.91-6,.91-6l-4-.38Z" style="fill:#ffb5a1"/><path id="Path-13-2" d="M547.35,242.68a3.36,3.36,0,0,1-1.66,3.17S544.88,242.38,547.35,242.68Z" style="fill:#151719"/><path id="Path-14-2" d="M547.36,242.65a3.19,3.19,0,0,0,3.48,1.35l1.06-.44S550.59,239.11,547.36,242.65Z" style="fill:#151719"/><path id="Path-15-2" d="M551.86,244.53s1.54-.26.31,1.82Z" style="fill:#ffb5a1"/><path id="Path-16-2" d="M552.37,246.3a.34.34,0,0,0,.24-.42v0a.35.35,0,0,0-.43-.23.36.36,0,0,0-.23.44.35.35,0,0,0,.43.23Z" style="fill:#fff"/><path id="Path-17-2" d="M546.56,246.15s-1.43.66.75,1.69Z" style="fill:#ffb5a1"/><path id="Path-18-2" d="M547.11,247.9a.33.33,0,0,0,.24-.41v0a.35.35,0,0,0-.43-.23.35.35,0,0,0-.23.43A.34.34,0,0,0,547.11,247.9Z" style="fill:#fff"/><g id="Clipped-11"><path id="Path-19-2" d="M554.21,251.63h0s5.83,19,5.83,19a50.55,50.55,0,0,1,9.07-2.78C575.34,268.6,562.73,250.4,554.21,251.63Z" style="fill:none"/><g id="Group_242" data-name="Group 242"><g style="clip-path:url(#clip-path-5)"><g id="Group_241" data-name="Group 241"><g id="Clipped-2-2"><g id="Group-2-2"><path id="Path-20-2" d="M555.14,257.65a5.82,5.82,0,1,0-7.27-3.86,5.82,5.82,0,0,0,7.27,3.86Z" style="fill:none;stroke:#fffffe;stroke-miterlimit:10.000000298793864;stroke-width:10.514000253116711px;opacity:0.5;isolation:isolate"/><path id="Path-21-2" d="M567.83,275.2a5.93,5.93,0,1,0-7.4-3.93h0A5.92,5.92,0,0,0,567.83,275.2Z" style="fill:none;stroke:#fffffe;stroke-miterlimit:10.000000298793864;stroke-width:10.514000253116711px;opacity:0.5;isolation:isolate"/></g></g></g></g></g></g><g id="Clipped-3-2"><path id="Path-22-2" d="M548.79,253.15h0c0,.06,5.74,18.86,5.74,18.86a50.14,50.14,0,0,0-9.13,2.79C540.63,278.91,541,256.92,548.79,253.15Z" style="fill:none"/><g id="Group_244" data-name="Group 244"><g style="clip-path:url(#clip-path-6)"><g id="Group_243" data-name="Group 243"><g id="Clipped-4-2"><path id="Path-23-2" d="M546.91,271.16a5.85,5.85,0,1,0-7.27-4l0,.06A5.8,5.8,0,0,0,546.91,271.16Z" style="fill:none;stroke:#fcfcfb;stroke-miterlimit:10.000000298793864;stroke-width:10.514000253116711px;opacity:0.5;isolation:isolate"/></g></g></g></g></g><path id="Path-24-2" d="M554.09,251.54a10.65,10.65,0,0,1,2.75,2.81c.09.37-.57,1.11-.52,1.61a3.19,3.19,0,0,0,.73,1.78c1.08,1.26,3.45,3.33,3.33,5.07a14.07,14.07,0,0,1-1.39,4.74Z" style="fill:#ff4133"/><path id="Path-25-2" d="M548.83,253.15a10.45,10.45,0,0,0-.71,3.87c.13.34,1.09.6,1.33,1a3.16,3.16,0,0,1,.39,1.88c-.19,1.65-1,4.69.08,6.07a14,14,0,0,0,3.8,3.15Z" style="fill:#ff4133"/><path id="Path-26-2" d="M544,269.7a11,11,0,0,0,.55,4.25" style="fill:none;stroke:#151719;stroke-miterlimit:10.000000298793864;stroke-width:0.435000015381719px"/><path id="Path-27-2" d="M550.61,272.12a11.6,11.6,0,0,1-1.46-3.37" style="fill:none;stroke:#151719;stroke-miterlimit:10.000000298793864;stroke-width:0.435000015381719px"/><path id="Path-28-2" d="M549.22,266.32l1.16,3.08s-4.49,3.38-7.18,0l.33-3.19Z" style="fill:#ff4133"/><path id="Path-29-2" d="M549.22,266.32s2.09-5,1.11-4.43A4.62,4.62,0,0,0,549,263s-.32-5.17-.94-4.95-1,4.63-1,4.63Z" style="fill:#ffb5a1"/><path id="Path-30-2" d="M547.37,262.24s-2.32-.29-3.11.4-.73,3.59-.73,3.59a2.74,2.74,0,0,0,2.25,1.66c1.85.33,3.44-1.57,3.44-1.57Z" style="fill:#ffb5a1"/><path id="Path-31-2" d="M547,262.24s2.4,2.92.21,3.38" style="fill:none;stroke:#e89c8b;stroke-miterlimit:10.000000298793864;stroke-width:0.700999996149917px"/><path id="Path-32-2" d="M565.63,267.51a15.8,15.8,0,0,0-4.08-8.78" style="fill:none;stroke:#151719;stroke-miterlimit:10.000000298793864;stroke-width:0.435000015381719px"/><path id="Path-33-2" d="M548.06,256.46a1.52,1.52,0,0,0,.63,1.35c.83.46,1.25,1.52,1.2,1C549.87,258.84,549.1,256.13,548.06,256.46Z" style="fill:#e5b20c"/><path id="Path-34-2" d="M549.54,265.23s.22,2.6,4.4,4.65l-.21-.72Z" style="fill:#e5b20c"/></g></g></g></g></g><g id="Group_252" data-name="Group 252"><g id="Group_249" data-name="Group 249"><path id="Path_1362" data-name="Path 1362" d="M543.83,276.7c-.48-1.11-1.82-.11-2.16.52l1,2.92C543.19,279.26,544.36,277.89,543.83,276.7Z" style="fill:#ff5668"/><g id="Group_248" data-name="Group 248"><path id="Path_1363" data-name="Path 1363" d="M544,276.62a1,1,0,0,0-1.25-.51l-.14.07c-.27.15-1.17.73-1,1.11l1,2.89a.15.15,0,0,0,.19.1.18.18,0,0,0,.1-.07c.66-1,1.73-2.25,1.21-3.55-.08-.18-.37-.1-.3.09.49,1.2-.58,2.37-1.18,3.31l.28,0-.77-2.31-.16-.49c-.05-.14,0-.14.19-.3.42-.49,1.27-1,1.66-.19C543.79,277,544.05,276.8,544,276.62Z" style="fill:#ff5668"/></g></g><g id="Group_251" data-name="Group 251"><path id="Path_1364" data-name="Path 1364" d="M539.59,278.14c.29,1.26,2.07,1.64,3,2l-1-2.89C541,276.94,539.3,277,539.59,278.14Z" style="fill:#ff5668"/><g id="Group_250" data-name="Group 250"><path id="Path_1365" data-name="Path 1365" d="M539.44,278.19c.38,1.36,2,1.67,3.15,2.09a.16.16,0,0,0,.19-.11.27.27,0,0,0,0-.09l-1-2.87c-.13-.38-1.19-.31-1.49-.25a1,1,0,0,0-.87,1.07,1,1,0,0,0,0,.16c0,.19.34.1.29-.1-.15-.82.76-.92,1.37-.84.13,0,.38,0,.4.1l.16.44.81,2.4.18-.21c-1-.37-2.57-.65-2.92-1.89C539.69,277.9,539.39,278,539.44,278.19Z" style="fill:#ff5668"/></g></g></g><g id="Group_257" data-name="Group 257"><g id="Group_254" data-name="Group 254"><path id="Path_1366" data-name="Path 1366" d="M577.15,276.14c-.31-.69-1.12-.07-1.33.32l.59,1.79C576.75,277.71,577.47,276.87,577.15,276.14Z" style="fill:#c1cbd3"/><g id="Group_253" data-name="Group 253"><path id="Path_1367" data-name="Path 1367" d="M577.27,276.06a.63.63,0,0,0-.84-.32l-.06,0c-.2.09-.79.47-.7.74l.59,1.78a.16.16,0,0,0,.2.1.11.11,0,0,0,.08-.07c.42-.65,1.07-1.4.75-2.22-.07-.18-.37-.1-.29.09.27.72-.37,1.41-.73,2l.29,0-.48-1.42-.09-.27,0-.08c0,.09,0,0,.1-.06.24-.28.72-.59.94-.15C577.1,276.4,577.36,276.24,577.27,276.06Z" style="fill:#c1cbd3"/></g></g><g id="Group_256" data-name="Group 256"><path id="Path_1368" data-name="Path 1368" d="M574.54,277c.19.77,1.27,1,1.86,1.22l-.61-1.77C575.39,276.28,574.37,276.29,574.54,277Z" style="fill:#c1cbd3"/><g id="Group_255" data-name="Group 255"><path id="Path_1369" data-name="Path 1369" d="M574.4,277.07c.24.86,1.23,1.06,2,1.32.11.05.22-.09.18-.19l-.61-1.77c-.1-.29-.78-.22-1-.18a.65.65,0,0,0-.56.73.29.29,0,0,0,0,.09c0,.19.32.09.29-.09-.09-.48.51-.49.83-.43.05,0,.16.08.12,0l0,.05.1.3.49,1.42.19-.19c-.62-.23-1.55-.39-1.75-1.12A.15.15,0,0,0,574.4,277.07Z" style="fill:#c1cbd3"/></g></g></g><g id="Group_262" data-name="Group 262"><g id="Group_259" data-name="Group 259"><path id="Path_1370" data-name="Path 1370" d="M580.21,286.17c-.3-.68-1.12-.07-1.33.32l.6,1.78C579.81,287.74,580.53,286.9,580.21,286.17Z" style="fill:#ff5668"/><g id="Group_258" data-name="Group 258"><path id="Path_1371" data-name="Path 1371" d="M580.34,286.09a.65.65,0,0,0-.85-.34l-.07,0c-.18.1-.78.47-.68.75l.59,1.78a.16.16,0,0,0,.2.09.1.1,0,0,0,.08-.07c.41-.64,1.07-1.39.75-2.21a.16.16,0,0,0-.3.09c.28.71-.36,1.41-.72,2l.28,0-.47-1.42-.09-.28,0-.07c0,.08,0,0,.1-.06.23-.29.72-.59.94-.14C580.17,286.43,580.43,286.25,580.34,286.09Z" style="fill:#ff5668"/></g></g><g id="Group_261" data-name="Group 261"><path id="Path_1372" data-name="Path 1372" d="M577.61,287.05c.19.77,1.27,1,1.87,1.23l-.62-1.78C578.46,286.32,577.43,286.32,577.61,287.05Z" style="fill:#ff5668"/><g id="Group_260" data-name="Group 260"><path id="Path_1373" data-name="Path 1373" d="M577.46,287.09c.25.87,1.23,1.07,2,1.33a.16.16,0,0,0,.18-.12v-.07l-.62-1.77c-.09-.29-.78-.22-1-.18a.65.65,0,0,0-.57.72s0,.06,0,.09c0,.2.33.11.29-.08-.08-.48.51-.48.84-.43,0,0,.16.07.12,0l0,.05.1.3.49,1.42.18-.2c-.62-.22-1.53-.39-1.75-1.11C577.7,286.81,577.41,286.91,577.46,287.09Z" style="fill:#ff5668"/></g></g></g><g id="Group_266" data-name="Group 266"><g id="Group_263" data-name="Group 263"><path id="Path_1374" data-name="Path 1374" d="M555.28,273.35l.82,2.64a.15.15,0,0,0,.18.1l3.43-1a.17.17,0,0,0,.11-.2h0l-.81-2.64a.15.15,0,0,0-.29.09l.81,2.65.1-.2-3.44,1.06.19.1-.8-2.66A.16.16,0,0,0,555.28,273.35Z" style="fill:#5c6570"/></g><g id="Group_264" data-name="Group 264"><path id="Path_1375" data-name="Path 1375" d="M557.61,274l-.75-2.47a.16.16,0,0,0-.3.09l.76,2.47A.15.15,0,0,0,557.61,274Z" style="fill:#5c6570"/></g><g id="Group_265" data-name="Group 265"><path id="Path_1376" data-name="Path 1376" d="M556.22,272.69l.59-1.11-.2.07,1.09.58a.15.15,0,0,0,.14-.27l-1.09-.58a.14.14,0,0,0-.2.06h0l-.58,1.11a.14.14,0,0,0,.06.2A.15.15,0,0,0,556.22,272.69Z" style="fill:#5c6570"/></g></g><g id="Group_267" data-name="Group 267"><path id="Path_1377" data-name="Path 1377" d="M552.14,276.4c.07.51-.95.62-1.27.72s-.39.63-.49.82l.21-.07c-.3-.16-.61-.48-1-.37s-1.35.62-1.53,0l-.48-1.6-.17-.5c-.09-.33.32-.39.51-.44L551,274c.51-.15.61.74.7,1l.42,1.36a.16.16,0,0,0,.3-.09l-.5-1.63c-.14-.44-.28-1.2-.93-1l-3.35,1a.67.67,0,0,0-.47.94l.59,1.93c.18.61.63.57,1.13.41l.9-.27c-.1,0-.11,0,0,.05l.25.13.35.2a.16.16,0,0,0,.21-.06l.36-.69c.06-.11-.12,0,0,0l.36-.12c.49-.15,1.2-.22,1.1-.9C552.42,276.2,552.12,276.2,552.14,276.4Z" style="fill:#5c6570"/></g></g><path id="Path-71" d="M534,279.45s7.45-18,8.75-5.87-.62,14.55-.62,14.55,6.14-5.16,11.51,6a68.68,68.68,0,0,1,6.11,22.7l-18.46-9.45Z" style="fill:#ffb5a1"/></g><path id="Path_30" data-name="Path 30" d="M208.68,83.79l.18,1.15a17.8,17.8,0,0,0-12.1-12.35l-.12,0c-10.93-3-55-3-55-3s-43.92-.06-55,3A17.8,17.8,0,0,0,74.53,84.82l0,.12a195.7,195.7,0,0,0,.18,69.86l-.18-1.16A17.8,17.8,0,0,0,86.59,166l.13,0c10.93,3,55,3,55,3s43.91,0,55-3a17.81,17.81,0,0,0,12.19-12.26l0-.12a182.78,182.78,0,0,0,2.92-33V118a187.49,187.49,0,0,0-3.11-34.18Zm-81.05,56.85V98l36.64,21.35Z" style="fill:#c6f4d9"/><g id="Group_43" data-name="Group 43"><path id="Path_35" data-name="Path 35" d="M915.07,405.43a36.56,36.56,0,0,1-36.62-36.26H854.8v64.62l0,35.4a21.43,21.43,0,1,1-14.71-20.32v-24a45.85,45.85,0,0,0-40.89,14.74,44.43,44.43,0,0,0,2,61.28,47.43,47.43,0,0,0,4.28,3.73,45.37,45.37,0,0,0,27.8,9.4,47.21,47.21,0,0,0,6.82-.5,45.27,45.27,0,0,0,25.25-12.63,44.28,44.28,0,0,0,13.28-31.51l-.12-52.86A59.93,59.93,0,0,0,915.15,429V405.43h-.08Z" style="fill:#c6f4d9"/><path id="Path_36" data-name="Path 36" d="M632.66,144.64c-34.92,0-63.35,23.22-63.35,51.76,0,25.55,22.54,47,53,51,2.06.43,4.87,1.37,5.58,3.14a13.2,13.2,0,0,1,.21,5.73l-.87,5.42c-.24,1.6-1.27,6.29,5.54,3.43s36.51-21.67,49.81-37.06c9.1-10,13.46-20.32,13.46-31.71,0-28.53-28.43-51.75-63.36-51.75Zm-24.79,68.72h-12.6a3.35,3.35,0,0,1-3.33-3.33V184.68a3.33,3.33,0,1,1,6.65,0v22h9.28a3.35,3.35,0,0,1,0,6.69Zm13-3.33a3.32,3.32,0,1,1-6.63.5,2.09,2.09,0,0,1,0-.5V184.68a3.32,3.32,0,1,1,6.63-.51,2.18,2.18,0,0,1,0,.51Zm30.31,0a3.32,3.32,0,0,1-2.28,3.16,3.42,3.42,0,0,1-3.74-1.16L632.28,194.4V210a3.33,3.33,0,0,1-6.64.5,4.17,4.17,0,0,1,0-.5V184.68a3.34,3.34,0,0,1,2.27-3.17,3.26,3.26,0,0,1,1-.17,3.4,3.4,0,0,1,2.62,1.35l13,17.69v-15.7a3.33,3.33,0,0,1,6.66,0h0Zm20.36-16a3.35,3.35,0,0,1,0,6.7h-9.27v6h9.27a3.35,3.35,0,0,1,0,6.69H659a3.32,3.32,0,0,1-3.31-3.33V184.68a3.34,3.34,0,0,1,3.33-3.36h12.6a3.35,3.35,0,0,1,0,6.7h-9.27v6Z" style="fill:#c6f4d9"/><path id="Path_37" data-name="Path 37" d="M780.24,287.21h45.54V245.48H810.59v-19h15.18V211.33a22.77,22.77,0,0,1,22.75-22.78h15.2v19h-7.59c-4.19,0-7.59-.39-7.59,3.8v15.18h19l-7.59,19H848.54v41.74h22.77a15.19,15.19,0,0,0,15.18-15.17V181a15.2,15.2,0,0,0-15.18-15.18H780.24A15.2,15.2,0,0,0,765.05,181V272A15.19,15.19,0,0,0,780.24,287.21Z" style="fill:#c6f4d9"/><g id="Group_44" data-name="Group 44"><path id="Path_32" data-name="Path 32" d="M696.82,331.39a37.87,37.87,0,1,0,37.87,37.87h0a37.87,37.87,0,0,0-37.85-37.87Zm0,62.44a24.58,24.58,0,1,1,24.58-24.57h0a24.56,24.56,0,0,1-24.56,24.57Z" style="fill:#c6f4d9"/><path id="Path_33" data-name="Path 33" d="M721.84,308.94c-11.17-.52-38.84-.49-50,0-9.83.48-18.49,2.84-25.48,9.82-11.68,11.68-10.18,27.42-10.18,50.49,0,23.62-1.32,39,10.18,50.49,11.72,11.72,27.69,10.19,50.49,10.19,23.39,0,31.47,0,39.74-3.19,11.25-4.37,19.73-14.42,20.57-32.48.52-11.18.49-38.84,0-50-1-21.32-12.44-34.24-35.3-35.3ZM739.52,412c-7.65,7.66-18.27,7-42.83,7-25.3,0-35.45.38-42.85-7-8.53-8.49-7-22.11-7-42.77,0-28-2.87-48.09,25.18-49.53,6.45-.23,8.35-.3,24.57-.3l.23.15c27,0,48.13-2.82,49.39,25.23.29,6.4.35,8.32.35,24.52,0,25,.48,35.21-7.05,42.77Z" style="fill:#c6f4d9"/><circle id="Ellipse_1" data-name="Ellipse 1" cx="730.22" cy="335.87" r="5.63" style="fill:#c6f4d9"/></g><path id="Path_38" data-name="Path 38" d="M809.55,47.71a61.09,61.09,0,0,0,15.35-15.9h0a64.07,64.07,0,0,1-17.65,4.84,30.5,30.5,0,0,0,13.48-16.94,61.43,61.43,0,0,1-19.43,7.42,30.64,30.64,0,0,0-53,21,32.21,32.21,0,0,0,.71,7,86.73,86.73,0,0,1-63.15-32A30.63,30.63,0,0,0,695.28,64a30.3,30.3,0,0,1-13.85-3.77v.33A30.78,30.78,0,0,0,706,90.63a29.82,29.82,0,0,1-8,1,26.87,26.87,0,0,1-5.8-.52,30.93,30.93,0,0,0,28.63,21.34,61.63,61.63,0,0,1-38,13.07,56.1,56.1,0,0,1-7.33-.42,86.26,86.26,0,0,0,47,13.75c54.07,0,89.31-45.11,87.09-91.14Z" style="fill:#c6f4d9"/><path id="Path_39" data-name="Path 39" d="M67.78,378.29c-33.28,0-51,21.33-51,44.58,0,10.78,6,24.24,15.67,28.5,2.75,1.24,2.38-.27,4.76-9.33a2.16,2.16,0,0,0-.52-2.11C22.93,424,34,391.19,65.82,391.19c46,0,37.41,63.66,8,63.66-7.58,0-13.23-6-11.44-13.32,2.16-8.76,6.41-18.19,6.41-24.51,0-15.93-23.73-13.56-23.73,7.54a25.57,25.57,0,0,0,2.3,10.92s-7.63,30.84-9,36.62c-2.4,9.75.33,25.54.56,26.9a.8.8,0,0,0,1.46.37c.75-1,10-14.15,12.57-23.67l4.8-17.52c2.54,4.59,9.88,8.43,17.7,8.43,23.25,0,40.06-20.44,40.06-45.8-.08-24.32-20.9-42.51-47.68-42.51Z" style="fill:#c6f4d9"/></g></g></g></g></g></g></g></svg>