<svg xmlns="http://www.w3.org/2000/svg" xmlns:xlink="http://www.w3.org/1999/xlink" viewBox="0 0 1084.56 664.1"><defs><clipPath id="clip-path" transform="translate(34.94 84.02)"><polygon points="0 0 908.29 0 908.29 508.83 908.29 508.83 0 508.83 0 508.83 0 0" style="fill:none"/></clipPath><linearGradient id="linear-gradient" x1="-25.64" y1="-185.7" x2="-22.06" y2="-189.3" gradientTransform="matrix(121.68, 0, 0, -116.72, 3456.82, -21525.66)" gradientUnits="userSpaceOnUse"><stop offset="0" stop-color="#fff"/><stop offset="1" stop-color="#231f20"/></linearGradient><clipPath id="clip-path-2" transform="translate(34.94 84.02)"><path d="M636.12,449.12H384.9A9.48,9.48,0,0,1,376,440L353.78,198.26c-1.3-14.27,8.59-26.66,21.27-26.66H619.38c13.32,0,24,12.45,23.59,27.5Z" style="fill:none"/></clipPath><clipPath id="clip-path-3" transform="translate(34.94 84.02)"><path d="M713.72,449.12h-77.6L643,197.45c.4-14.41,10.84-25.85,23.59-25.85H719c11.5,0,20.57,11.05,19.7,24L722.42,440A9.24,9.24,0,0,1,713.72,449.12Z" style="fill:none"/></clipPath><linearGradient id="linear-gradient-2" x1="-17.52" y1="-199.48" x2="-11.88" y2="-202.24" gradientTransform="matrix(33.81, 0, 0, -33.49, 1143.24, -6579.06)" gradientUnits="userSpaceOnUse"><stop offset="0" stop-color="#f0c9f0"/><stop offset="1" stop-color="#231f20"/></linearGradient><linearGradient id="linear-gradient-3" x1="-18.36" y1="-200.01" x2="-12.87" y2="-209.4" gradientTransform="matrix(42.47, 0, 0, -33.49, 1366.38, -6579.06)" gradientUnits="userSpaceOnUse"><stop offset="0" stop-color="#f0f0f0"/><stop offset="1" stop-color="#231f20"/></linearGradient><linearGradient id="linear-gradient-4" x1="-11.74" y1="-244.86" x2="-11.05" y2="-251.62" gradientTransform="matrix(22.72, 0, 0, -10.57, 815.24, -2431.55)" gradientUnits="userSpaceOnUse"><stop offset="0" stop-color="#f0f0f0"/><stop offset="0.68" stop-color="#231f20"/></linearGradient><linearGradient id="linear-gradient-5" x1="-17.4" y1="-195.21" x2="-10.3" y2="-201.71" gradientTransform="matrix(26.23, 0, 0, -40.16, 894.78, -7785.48)" gradientUnits="userSpaceOnUse"><stop offset="0" stop-color="#f0d0f0"/><stop offset="1" stop-color="#231f20"/></linearGradient><linearGradient id="linear-gradient-6" x1="-18.62" y1="-197.27" x2="-17.14" y2="-204.93" gradientTransform="matrix(35.64, 0, 0, -40.16, 1128.84, -7785.53)" xlink:href="#linear-gradient-3"/><linearGradient id="linear-gradient-7" x1="-21.97" y1="-199.5" x2="-19.52" y2="-203.94" gradientTransform="matrix(42.92, -13.35, -13.35, -42.92, -921.72, -8489.99)" gradientUnits="userSpaceOnUse"><stop offset="0" stop-color="#fff23a"/><stop offset="0.03" stop-color="#fde739"/><stop offset="0.19" stop-color="#f6be39"/><stop offset="0.34" stop-color="#f19b39"/><stop offset="0.5" stop-color="#ed8139"/><stop offset="0.66" stop-color="#ea6e39"/><stop offset="0.82" stop-color="#e86239"/><stop offset="1" stop-color="#e85f39"/></linearGradient><linearGradient id="linear-gradient-8" x1="-18.1" y1="-279.75" x2="-15.73" y2="-279.75" gradientTransform="matrix(47.39, 0, 0, -8.52, 1574.15, -1858.48)" gradientUnits="userSpaceOnUse"><stop offset="0" stop-color="#ffa826"/><stop offset="0.03" stop-color="#fda223"/><stop offset="0.21" stop-color="#f38017"/><stop offset="0.4" stop-color="#ec660c"/><stop offset="0.59" stop-color="#e75305"/><stop offset="0.79" stop-color="#e44701"/><stop offset="1" stop-color="#e34400"/></linearGradient><linearGradient id="linear-gradient-9" x1="-16.61" y1="-279.75" x2="-14.23" y2="-279.75" gradientTransform="matrix(47.39, 0, 0, -8.52, 1625.61, -1858.48)" xlink:href="#linear-gradient-8"/><linearGradient id="linear-gradient-10" x1="-17.02" y1="-278.27" x2="-14.64" y2="-278.27" gradientTransform="matrix(47.39, 0, 0, -8.52, 1611.54, -1867.63)" xlink:href="#linear-gradient-8"/><linearGradient id="linear-gradient-11" x1="-16.95" y1="-276.79" x2="-14.57" y2="-276.79" gradientTransform="matrix(47.39, 0, 0, -8.52, 1613.8, -1876.78)" xlink:href="#linear-gradient-8"/><linearGradient id="linear-gradient-12" x1="-17.09" y1="-275.31" x2="-14.71" y2="-275.31" gradientTransform="matrix(47.39, 0, 0, -8.52, 1608.97, -1885.94)" xlink:href="#linear-gradient-8"/><linearGradient id="linear-gradient-13" x1="-17.05" y1="-273.85" x2="-14.67" y2="-273.85" gradientTransform="matrix(47.39, 0, 0, -8.52, 1610.46, -1894.97)" xlink:href="#linear-gradient-8"/><linearGradient id="linear-gradient-14" x1="-18.4" y1="-278.27" x2="-16.02" y2="-278.27" gradientTransform="matrix(47.39, 0, 0, -8.52, 1564.06, -1867.63)" xlink:href="#linear-gradient-8"/></defs><title>โปรฝากประจำเสริมบุญ</title><g id="Layer_2" data-name="Layer 2"><g id="Layer_1-2" data-name="Layer 1"><g id="โปรฝากประจำเสริมบุญ"><g id="Banner_1-2" data-name="Banner 1-2"><path id="Mask-8" d="M0,0H908.29V508.83H0Z" transform="translate(34.94 84.02)" style="fill:#e8fff1"/><g style="clip-path:url(#clip-path)"><g id="Banner_1-3" data-name="Banner 1-3"><path id="Shape_Copy_3-2" data-name="Shape Copy 3-2" d="M926.88,559.38c-14.44,0-23.12-6.2-27.86-11.4a36.49,36.49,0,0,1-27.92,11.4c-21,0-42.26-14.81-42.26-43.11A54.77,54.77,0,0,1,837.09,486c8.81-14.32,52.32-57.09,57.26-61.92l4.73-4.63,4.75,4.66c1.94,1.91,47.81,47.07,56.93,61.89a54.71,54.71,0,0,1,8.3,30.27C969.07,541.65,951.72,559.38,926.88,559.38Zm79.6-80.52a54.65,54.65,0,0,1-30.27-8.27c-14.27-8.76-57.06-52.31-61.91-57.26l-4.63-4.73,4.65-4.75c1.92-2,47.22-47.89,61.89-56.93a54.74,54.74,0,0,1,30.27-8.3c25.39,0,43.11,17.34,43.11,42.16,0,14.46-6.19,23.14-11.39,27.88a36.5,36.5,0,0,1,11.39,27.92c0,21-14.8,42.28-43.1,42.28Zm-215.06,0c-25.39,0-43.12-17.34-43.12-42.16,0-14.46,6.2-23.14,11.4-27.88a36.53,36.53,0,0,1-11.4-27.92c0-21,14.81-42.26,43.12-42.26a54.63,54.63,0,0,1,30.27,8.25c14.28,8.77,57.06,52.31,61.91,57.26l4.63,4.73-4.65,4.75c-1.92,1.95-47.08,47.81-61.89,56.93a54.7,54.7,0,0,1-30.26,8.3ZM898.82,398h0l-4.74-4.65c-4.89-4.82-48.1-47.52-56.93-61.89a54.79,54.79,0,0,1-8.3-30.26c0-25.39,17.34-43.12,42.16-43.12,14.46,0,23.14,6.2,27.88,11.39a36.53,36.53,0,0,1,27.92-11.39,43.44,43.44,0,0,1,29,10.94,42.19,42.19,0,0,1,13.26,32.18,54.68,54.68,0,0,1-8.27,30.26c-8.81,14.32-52.32,57.08-57.25,61.91ZM143.66,255.81c-14.44,0-23.12-6.2-27.86-11.4a36.54,36.54,0,0,1-27.92,11.4c-21,0-42.26-14.81-42.26-43.12a54.71,54.71,0,0,1,8.25-30.27c8.81-14.32,52.32-57.08,57.25-61.91l4.74-4.64,4.74,4.66c2,1.92,47.81,47.08,56.94,61.89a54.82,54.82,0,0,1,8.3,30.27C185.85,238.07,168.5,255.81,143.66,255.81Zm79.6-80.52A54.71,54.71,0,0,1,193,167c-14.27-8.76-57.07-52.31-61.91-57.26L126.46,105l4.65-4.74c1.92-2,47.22-47.9,61.89-56.94A54.84,54.84,0,0,1,223.27,35c25.39,0,43.12,17.34,43.12,42.16,0,14.46-6.2,23.14-11.4,27.88A36.54,36.54,0,0,1,266.39,133c0,21-14.81,42.29-43.12,42.29Zm-215.06,0c-25.38,0-43.11-17.34-43.11-42.16,0-14.46,6.2-23.14,11.39-27.88A36.53,36.53,0,0,1-34.91,77.31c0-21,14.81-42.26,43.12-42.26A54.58,54.58,0,0,1,38.47,43.3c14.27,8.77,57.07,52.31,61.92,57.25l4.63,4.74L100.36,110c-1.91,2-47.08,47.82-61.88,56.94a54.84,54.84,0,0,1-30.27,8.3ZM115.6,94.44h0l-4.74-4.65C106,85,62.75,42.27,53.92,27.9A54.79,54.79,0,0,1,45.63-2.37c0-25.39,17.33-43.12,42.15-43.12,14.46,0,23.14,6.2,27.88,11.39a36.54,36.54,0,0,1,27.93-11.39,43.4,43.4,0,0,1,29,10.94A42.18,42.18,0,0,1,185.86-2.38a54.71,54.71,0,0,1-8.27,30.27C168.79,42.21,125.27,85,120.34,89.8l-4.74,4.63Z" transform="translate(34.94 84.02)" style="fill:#c6f4d9"/></g></g></g><g id="Group_411" data-name="Group 411"><g id="Group_419" data-name="Group 419"><rect id="Rectangle_10" data-name="Rectangle 10" x="651.35" y="255.62" width="55.3" height="31.86" style="fill:#0c9644"/><path id="Path_1519" data-name="Path 1519" d="M636.12,449.12H384.59a9.11,9.11,0,0,1-8.6-8.77L353.78,198.26c-1.3-14.27,8.59-26.66,21.27-26.66H619.38c13.32,0,24,12.45,23.59,27.5Z" transform="translate(34.94 84.02)" style="fill:#26c165"/><g id="Group_413" data-name="Group 413"><path id="Path_1520" data-name="Path 1520" d="M636.12,449.12H384.9A9.48,9.48,0,0,1,376,440L353.78,198.26c-1.3-14.27,8.59-26.66,21.27-26.66H619.38c13.32,0,24,12.45,23.59,27.5Z" transform="translate(34.94 84.02)" style="opacity:0.25;isolation:isolate;fill:url(#linear-gradient)"/><g style="clip-path:url(#clip-path-2)"><g id="Group_412" data-name="Group 412"><g id="Group_411-2" data-name="Group 411-2" style="opacity:0.8199999928474426"><path id="Path_1521" data-name="Path 1521" d="M543.9-33.35,262.42,361.94l15.85,16L560.16-11.27Z" transform="translate(34.94 84.02)" style="fill:#fff"/><path id="Path_1522" data-name="Path 1522" d="M581.32,17.46,299,398.88l15.34,15.5L597,38.7Z" transform="translate(34.94 84.02)" style="fill:#fff"/><path id="Path_1523" data-name="Path 1523" d="M617.34,66.36l-283,368.25,14.85,15L632.41,86.81Z" transform="translate(34.94 84.02)" style="fill:#fff"/><path id="Path_1524" data-name="Path 1524" d="M652,113.46,368.58,469.23,383,483.78l283.58-350.6Z" transform="translate(34.94 84.02)" style="fill:#fff"/><path id="Path_1525" data-name="Path 1525" d="M685.47,158.86,401.76,502.77l13.95,14.1,283.76-339Z" transform="translate(34.94 84.02)" style="fill:#fff"/><path id="Path_1526" data-name="Path 1526" d="M717.72,202.65,433.93,535.29,447.46,549,731.23,221Z" transform="translate(34.94 84.02)" style="fill:#fff"/><path id="Path_1527" data-name="Path 1527" d="M748.85,244.91,465.13,566.81l13.12,13.27L761.89,262.62Z" transform="translate(34.94 84.02)" style="fill:#fff"/></g></g></g></g><g id="Group_416" data-name="Group 416"><path id="Path_1529" data-name="Path 1529" d="M713.72,449.12h-77.6L643,197.45c.4-14.41,10.84-25.85,23.59-25.85H719c11.5,0,20.57,11.05,19.7,24L722.42,440A9.24,9.24,0,0,1,713.72,449.12Z" transform="translate(34.94 84.02)" style="fill:#26c165"/><g style="clip-path:url(#clip-path-3)"><g id="Group_415" data-name="Group 415"><g id="Group_414" data-name="Group 414"><path id="Path_1530" data-name="Path 1530" d="M924.14,325.33,643.28-84,626.42-61.1l281.36,403Z" transform="translate(34.94 84.02)" style="fill:#fff"/><path id="Path_1531" data-name="Path 1531" d="M886.46,363.45,604.5-31.28l-16.21,22L870.64,379.45Z" transform="translate(34.94 84.02)" style="fill:#fff"/><path id="Path_1532" data-name="Path 1532" d="M850,400.33,567.19,19.45l-15.6,21.21L834.7,415.81Z" transform="translate(34.94 84.02)" style="fill:#fff"/><path id="Path_1533" data-name="Path 1533" d="M814.72,436,531.28,68.28l-15,20.43L799.9,451Z" transform="translate(34.94 84.02)" style="fill:#fff"/><path id="Path_1534" data-name="Path 1534" d="M780.56,470.6,496.69,115.31,482.21,135l284,350.13Z" transform="translate(34.94 84.02)" style="fill:#fff"/><path id="Path_1535" data-name="Path 1535" d="M747.45,504.09,463.35,160.64l-14,19L733.53,518.17Z" transform="translate(34.94 84.02)" style="fill:#fff"/><path id="Path_1536" data-name="Path 1536" d="M715.35,536.56,431.21,204.36l-13.48,18.31L701.87,550.2Z" transform="translate(34.94 84.02)" style="fill:#fff"/></g></g></g></g><path id="Path_1538" data-name="Path 1538" d="M713.58,449.12H636.12L643,197.45c.4-14.41,10.84-25.85,23.59-25.85H719c11.5,0,20.57,11.05,19.7,24L722.43,439.86A9.4,9.4,0,0,1,713.58,449.12Z" transform="translate(34.94 84.02)" style="fill:#00a551;opacity:0.47999998927116394;isolation:isolate"/><path id="Path_1539" data-name="Path 1539" d="M540.46,449.12H474.39l-13-277.52h74.5Z" transform="translate(34.94 84.02)" style="fill:#29a4e3"/><path id="Path_1540" data-name="Path 1540" d="M540.46,449.12H474.39l-13-277.52h74.5Z" transform="translate(34.94 84.02)" style="fill:#ff5668"/><path id="Path_1541" data-name="Path 1541" d="M690,449.12h-21L680.86,171.6H704.5Z" transform="translate(34.94 84.02)" style="fill:#29a4e3"/><path id="Path_1542" data-name="Path 1542" d="M690,449.12h-21L680.86,171.6H704.5Z" transform="translate(34.94 84.02)" style="fill:#ff5668"/><path id="Path_1543" data-name="Path 1543" d="M653.53,147.32,638.79,171.6H440.4c-22.4-23.4-17.6-68.49,9.2-79l41.94-16.46v.19a3.78,3.78,0,0,1,4.57,2.28l36.17,68.21a10.35,10.35,0,0,1,2.6-.33H555l8.6-22.52c7.44-19.5,22.86-32,39.74-32h43l0,0a5.33,5.33,0,0,1,3.4,1.78h0C662.05,107.07,663.6,130.76,653.53,147.32Z" transform="translate(34.94 84.02)" style="fill:#54c4ff"/><g id="Group_417" data-name="Group 417"><path id="Path_1544" data-name="Path 1544" d="M649.82,93.78h0c12.23,13.29,13.77,37,3.71,53.54L638.79,171.6h-59l14.83-20.93c11.15-15.73,17-36.9,16-58.7H646A5.26,5.26,0,0,1,649.82,93.78Z" transform="translate(34.94 84.02)" style="fill:url(#linear-gradient-2)"/><path id="Path_1545" data-name="Path 1545" d="M545.44,171.6l18.2-47.66c7.44-19.5,22.86-32,39.74-32h43L579.77,171.6Z" transform="translate(34.94 84.02)" style="fill:url(#linear-gradient-3)"/><path id="Path_1546" data-name="Path 1546" d="M573.29,171.6l.84-1.45c5.64-9.75.16-23.69-9.4-23.69H534.88c-10.13,0-15.93,14.31-10.3,25.14Z" transform="translate(34.94 84.02)" style="fill:url(#linear-gradient-4)"/><path id="Path_1547" data-name="Path 1547" d="M545.44,171.6l-49.33-93c-2.26-4.26-7.19-2.73-7.5,2.33l-5.53,90.67Z" transform="translate(34.94 84.02)" style="fill:url(#linear-gradient-5)"/><path id="Path_1548" data-name="Path 1548" d="M440.4,171.6h0c-22.4-23.4-17.6-68.49,9.2-79l41.94-16.46L491.8,88a205.71,205.71,0,0,0,15.06,73.74l4.06,9.82Z" transform="translate(34.94 84.02)" style="fill:url(#linear-gradient-6)"/></g></g><g id="Group_428" data-name="Group 428"><g id="Group_420" data-name="Group 420"><circle id="Ellipse_33" data-name="Ellipse 33" cx="816.28" cy="374.92" r="53.43" style="fill:#faa729"/><circle id="Ellipse_34" data-name="Ellipse 34" cx="807.29" cy="374.9" r="53.44" style="fill:url(#linear-gradient-7)"/><circle id="Ellipse_35" data-name="Ellipse 35" cx="807.27" cy="374.92" r="53.15" style="fill:#ffc50c"/><path id="Path_1560" data-name="Path 1560" d="M770.09,325.16v-8.64A25,25,0,0,1,757,312.76l2-5.73a22.81,22.81,0,0,0,12.32,3.67c6.07,0,10.18-3.5,10.18-8.38,0-4.71-3.33-7.61-9.67-10.18-8.73-3.42-14.11-7.35-14.11-14.8,0-7.1,5-12.49,12.91-13.77v-8.64H776v8.3a22.84,22.84,0,0,1,11.13,3L785,271.87A20.75,20.75,0,0,0,774.2,269c-6.59,0-9.07,3.94-9.07,7.36,0,4.45,3.17,6.67,10.61,9.75,8.81,3.59,13.26,8,13.26,15.65,0,6.75-4.71,13.08-13.52,14.54v8.89Z" transform="translate(34.94 84.02)" style="fill:#fff9de"/></g><g id="Group_421" data-name="Group 421"><rect id="Rectangle_11" data-name="Rectangle 11" x="671.05" y="515.95" width="112.68" height="20.27" style="fill:url(#linear-gradient-8)"/><rect id="Rectangle_12" data-name="Rectangle 12" x="681.46" y="515.95" width="39.58" height="20.27" style="fill:#ffd54a"/><rect id="Rectangle_13" data-name="Rectangle 13" x="725.44" y="515.95" width="5.25" height="20.27" style="fill:#ffd030"/><line id="Line_8" data-name="Line 8" x1="671.05" y1="536.22" x2="783.73" y2="536.22" style="fill:none;stroke:#d13d23;stroke-miterlimit:10;stroke-width:4.625px"/><line id="Line_9" data-name="Line 9" x1="671.05" y1="515.95" x2="783.73" y2="515.95" style="fill:none;stroke:#ffde57;stroke-miterlimit:10;stroke-width:4.625px"/></g><g id="Group_422" data-name="Group 422"><rect id="Rectangle_14" data-name="Rectangle 14" x="793.4" y="515.95" width="112.68" height="20.27" style="fill:url(#linear-gradient-9)"/><rect id="Rectangle_15" data-name="Rectangle 15" x="803.8" y="515.95" width="39.58" height="20.27" style="fill:#ffd54a"/><rect id="Rectangle_16" data-name="Rectangle 16" x="847.79" y="515.95" width="5.25" height="20.27" style="fill:#ffd030"/><line id="Line_10" data-name="Line 10" x1="793.4" y1="536.22" x2="906.08" y2="536.22" style="fill:none;stroke:#d13d23;stroke-miterlimit:10;stroke-width:4.625px"/><line id="Line_11" data-name="Line 11" x1="793.4" y1="515.95" x2="906.08" y2="515.95" style="fill:none;stroke:#ffde57;stroke-miterlimit:10;stroke-width:4.625px"/></g><g id="Group_423" data-name="Group 423"><rect id="Rectangle_17" data-name="Rectangle 17" x="759.95" y="494.19" width="112.68" height="20.27" style="fill:url(#linear-gradient-10)"/><rect id="Rectangle_18" data-name="Rectangle 18" x="770.36" y="494.19" width="39.58" height="20.27" style="fill:#ffd54a"/><rect id="Rectangle_19" data-name="Rectangle 19" x="814.35" y="494.19" width="5.25" height="20.27" style="fill:#ffd030"/><line id="Line_12" data-name="Line 12" x1="759.95" y1="514.46" x2="872.63" y2="514.46" style="fill:none;stroke:#d13d23;stroke-miterlimit:10;stroke-width:4.625px"/><line id="Line_13" data-name="Line 13" x1="759.95" y1="494.19" x2="872.63" y2="494.19" style="fill:none;stroke:#ffde57;stroke-miterlimit:10;stroke-width:4.625px"/></g><g id="Group_424" data-name="Group 424"><rect id="Rectangle_20" data-name="Rectangle 20" x="765.32" y="472.42" width="112.68" height="20.27" style="fill:url(#linear-gradient-11)"/><rect id="Rectangle_21" data-name="Rectangle 21" x="775.72" y="472.42" width="39.58" height="20.27" style="fill:#ffd54a"/><rect id="Rectangle_22" data-name="Rectangle 22" x="819.71" y="472.42" width="5.25" height="20.27" style="fill:#ffd030"/><line id="Line_14" data-name="Line 14" x1="765.32" y1="492.69" x2="877.99" y2="492.69" style="fill:none;stroke:#d13d23;stroke-miterlimit:10;stroke-width:4.625px"/><line id="Line_15" data-name="Line 15" x1="765.32" y1="472.42" x2="877.99" y2="472.42" style="fill:none;stroke:#ffde57;stroke-miterlimit:10;stroke-width:4.625px"/></g><g id="Group_425" data-name="Group 425"><rect id="Rectangle_23" data-name="Rectangle 23" x="753.84" y="450.66" width="112.68" height="20.27" style="fill:url(#linear-gradient-12)"/><rect id="Rectangle_24" data-name="Rectangle 24" x="764.24" y="450.66" width="39.58" height="20.27" style="fill:#ffd54a"/><rect id="Rectangle_25" data-name="Rectangle 25" x="808.23" y="450.66" width="5.25" height="20.27" style="fill:#ffd030"/><line id="Line_16" data-name="Line 16" x1="753.84" y1="470.92" x2="866.51" y2="470.92" style="fill:none;stroke:#d13d23;stroke-miterlimit:10;stroke-width:4.625px"/><line id="Line_17" data-name="Line 17" x1="753.84" y1="450.66" x2="866.51" y2="450.66" style="fill:none;stroke:#ffde57;stroke-miterlimit:10;stroke-width:4.625px"/></g><g id="Group_426" data-name="Group 426"><rect id="Rectangle_26" data-name="Rectangle 26" x="757.38" y="429.19" width="112.68" height="20.27" style="fill:url(#linear-gradient-13)"/><rect id="Rectangle_27" data-name="Rectangle 27" x="767.79" y="429.19" width="39.58" height="20.27" style="fill:#ffd54a"/><rect id="Rectangle_28" data-name="Rectangle 28" x="811.78" y="429.19" width="5.25" height="20.27" style="fill:#ffd030"/><line id="Line_18" data-name="Line 18" x1="757.38" y1="449.45" x2="870.06" y2="449.45" style="fill:none;stroke:#d13d23;stroke-miterlimit:10;stroke-width:4.625px"/><line id="Line_19" data-name="Line 19" x1="757.38" y1="429.19" x2="870.06" y2="429.19" style="fill:none;stroke:#ffde57;stroke-miterlimit:10;stroke-width:4.625px"/></g><g id="Group_427" data-name="Group 427"><rect id="Rectangle_29" data-name="Rectangle 29" x="647.05" y="494.19" width="112.68" height="20.27" style="fill:url(#linear-gradient-14)"/><rect id="Rectangle_30" data-name="Rectangle 30" x="657.45" y="494.19" width="39.58" height="20.27" style="fill:#ffd54a"/><rect id="Rectangle_31" data-name="Rectangle 31" x="701.44" y="494.19" width="5.25" height="20.27" style="fill:#ffd030"/><line id="Line_20" data-name="Line 20" x1="647.05" y1="514.46" x2="759.72" y2="514.46" style="fill:none;stroke:#d13d23;stroke-miterlimit:10;stroke-width:4.625px"/><line id="Line_21" data-name="Line 21" x1="647.05" y1="494.19" x2="759.72" y2="494.19" style="fill:none;stroke:#ffde57;stroke-miterlimit:10;stroke-width:4.625px"/></g></g></g><g id="Group_409" data-name="Group 409"><g id="Group_410" data-name="Group 410"><g id="Group_408" data-name="Group 408"><g id="Group_406" data-name="Group 406"><g id="Group_405" data-name="Group 405"><g id="Group_404" data-name="Group 404"><g id="Group_365" data-name="Group 365"><rect id="Rectangle_9" data-name="Rectangle 9" x="107.56" y="145.19" width="290.23" height="362.32" rx="8.25" transform="translate(-68.5 619.01) rotate(-82.62)" style="fill:#fff"/><path id="Path_1454" data-name="Path 1454" d="M448.27,226.62l-2.6,20.07L86.34,200.14,89,180.06a21.08,21.08,0,0,1,23.61-18.19L430.09,203A21.09,21.09,0,0,1,448.27,226.62Z" transform="translate(34.94 84.02)" style="fill:#26c165"/></g><g id="Group_401" data-name="Group 401"><g id="Group_366" data-name="Group 366"><path id="Path_1455" data-name="Path 1455" d="M257.66,295.55l-1.73,13.31-3.76-.47L253.52,298l-2.47-.32.37-2.91Z" transform="translate(34.94 84.02)" style="fill:#ff5668"/></g><g id="Group_367" data-name="Group 367"><path id="Path_1456" data-name="Path 1456" d="M311.09,313l-.39,3-10.37-1.34.3-2.36,5.6-4a5,5,0,0,0,1.12-1,2.24,2.24,0,0,0,.38-.95,1.3,1.3,0,0,0-.31-1.07,2,2,0,0,0-1.23-.53,2.94,2.94,0,0,0-1.41.16,2.67,2.67,0,0,0-1.13.83L301,303.72a5.63,5.63,0,0,1,2.46-1.75,7.14,7.14,0,0,1,3.43-.31,7,7,0,0,1,2.63.84,4.25,4.25,0,0,1,1.64,1.67,3.57,3.57,0,0,1,.38,2.22,4.7,4.7,0,0,1-.73,2,8,8,0,0,1-2.08,1.95l-2.81,2Z" transform="translate(34.94 84.02)" style="fill:#ff5668"/></g><g id="Group_368" data-name="Group 368"><path id="Path_1457" data-name="Path 1457" d="M360.34,315.65a3.67,3.67,0,0,1,.56,2.58,4,4,0,0,1-.91,2.11,4.6,4.6,0,0,1-2.16,1.38,7.67,7.67,0,0,1-3.3.2,11.86,11.86,0,0,1-2.75-.72,7.9,7.9,0,0,1-2.26-1.28l1.73-2.66a6.24,6.24,0,0,0,1.65,1.05,7.06,7.06,0,0,0,1.91.54,2.86,2.86,0,0,0,1.58-.17,1.14,1.14,0,0,0,.71-.95c.11-.86-.51-1.38-1.87-1.55l-1.57-.21.3-2.38,2.72-2.26-5.26-.68.38-2.91,9.63,1.25-.31,2.36L358,314A4.52,4.52,0,0,1,360.34,315.65Z" transform="translate(34.94 84.02)" style="fill:#ff5668"/></g><g id="Group_369" data-name="Group 369"><path id="Path_1458" data-name="Path 1458" d="M412.93,326.62l-2-.26-.33,2.55-3.67-.47.34-2.55-7-.91.32-2.46L407.6,315l3.91.5-6.44,7.08,2.71.35.29-2.26,3.55.46-.29,2.27,2,.25Z" transform="translate(34.94 84.02)" style="fill:#ff5668"/></g><g id="Group_371" data-name="Group 371"><g id="Group_370" data-name="Group 370"><path id="Path_1459" data-name="Path 1459" d="M107.58,314.45a3.87,3.87,0,0,1,1,3.22,4.33,4.33,0,0,1-.93,2.19,4.54,4.54,0,0,1-2.16,1.41,7.87,7.87,0,0,1-3.31.2,11.78,11.78,0,0,1-2.74-.72,8.2,8.2,0,0,1-2.25-1.27l1.72-2.66a6.41,6.41,0,0,0,1.67,1,6.86,6.86,0,0,0,1.88.54,2.86,2.86,0,0,0,1.61-.17,1.19,1.19,0,0,0,.71-1,1.12,1.12,0,0,0-.44-1.09,4.32,4.32,0,0,0-2-.6l-3.62-.48,1.67-7.7,8.49,1.1-.38,2.91-5.36-.69-.43,1.92.89.11A6.39,6.39,0,0,1,107.58,314.45Z" transform="translate(34.94 84.02)"/></g></g><g id="Group_372" data-name="Group 372"><path id="Path_1460" data-name="Path 1460" d="M157.44,320.26a4.26,4.26,0,0,1,1.48,1.7,4.1,4.1,0,0,1,.33,2.29,4.2,4.2,0,0,1-1,2.29,4.62,4.62,0,0,1-2.09,1.35,6.16,6.16,0,0,1-2.73.22,6.07,6.07,0,0,1-4.28-2.28,6.72,6.72,0,0,1-1-5.08,8.2,8.2,0,0,1,1.4-3.82,6,6,0,0,1,2.8-2.18,7.92,7.92,0,0,1,3.83-.38,9.31,9.31,0,0,1,2.14.53,5.47,5.47,0,0,1,1.66,1l-1.72,2.53a4.15,4.15,0,0,0-2.36-1,3.42,3.42,0,0,0-2.45.5A3.34,3.34,0,0,0,152.1,320a4.43,4.43,0,0,1,3.14-.6A5.12,5.12,0,0,1,157.44,320.26Zm-2.53,4.85a1.57,1.57,0,0,0,.66-1.17,1.52,1.52,0,0,0-.34-1.28,2.16,2.16,0,0,0-2.65-.34,1.75,1.75,0,0,0-.33,2.44,2,2,0,0,0,1.3.65,1.92,1.92,0,0,0,1.36-.29Z" transform="translate(34.94 84.02)" style="fill:#ff5668"/></g><g id="Group_373" data-name="Group 373"><path id="Path_1461" data-name="Path 1461" d="M209.51,321.57l-.31,2.35-6.12,10.36-4.11-.54L204.8,324l-3.5-.46L201,325.6l-3.22-.42.66-5.05Z" transform="translate(34.94 84.02)" style="fill:#ff5668"/></g><g id="Group_374" data-name="Group 374"><path id="Path_1462" data-name="Path 1462" d="M258.5,335.66a3.26,3.26,0,0,1,.26,1.85,3.57,3.57,0,0,1-1,2.11,4.7,4.7,0,0,1-2.23,1.21,9.25,9.25,0,0,1-6.05-.79,4.54,4.54,0,0,1-1.85-1.73,3.54,3.54,0,0,1-.44-2.3,3.37,3.37,0,0,1,.71-1.72,4.2,4.2,0,0,1,1.59-1.14,3.37,3.37,0,0,1-.91-1.29,3.23,3.23,0,0,1-.18-1.57,3.28,3.28,0,0,1,.95-2,4.2,4.2,0,0,1,2-1.12,7.55,7.55,0,0,1,2.84-.12,7.83,7.83,0,0,1,2.71.83,4.32,4.32,0,0,1,1.7,1.61,3.31,3.31,0,0,1,.4,2.13,3.21,3.21,0,0,1-.57,1.48,3.46,3.46,0,0,1-1.2,1A4,4,0,0,1,258.5,335.66ZM254.29,338a1.63,1.63,0,0,0,.43-2.26,1.58,1.58,0,0,0-.12-.15,2.6,2.6,0,0,0-2.91-.37,1.46,1.46,0,0,0-.7,1.13,1.48,1.48,0,0,0,.39,1.28,2.6,2.6,0,0,0,2.91.37ZM252.7,330a1.31,1.31,0,0,0-.57,1,1.29,1.29,0,0,0,.29,1.07,1.67,1.67,0,0,0,1.1.53,1.85,1.85,0,0,0,1.22-.22,1.46,1.46,0,0,0,.29-2l0,0a1.73,1.73,0,0,0-1.11-.52,1.76,1.76,0,0,0-1.19.22Z" transform="translate(34.94 84.02)" style="fill:#26c165"/></g><g id="Group_375" data-name="Group 375"><path id="Path_1463" data-name="Path 1463" d="M307.34,335.69a6.7,6.7,0,0,1,1,5.09,8.19,8.19,0,0,1-1.39,3.81,6.08,6.08,0,0,1-2.82,2.18,7.8,7.8,0,0,1-3.83.37,9.15,9.15,0,0,1-2.12-.53,6.22,6.22,0,0,1-1.66-.95l1.72-2.53a4.07,4.07,0,0,0,2.36,1,3.43,3.43,0,0,0,2.42-.47,3.46,3.46,0,0,0,1.33-2.16,4.52,4.52,0,0,1-3.11.58,5.33,5.33,0,0,1-2.24-.82,4.14,4.14,0,0,1-1.47-1.71,4,4,0,0,1-.33-2.28,4.2,4.2,0,0,1,1-2.3,4.62,4.62,0,0,1,2.09-1.35,6.79,6.79,0,0,1,7,2.06Zm-3.44,3.52a1.62,1.62,0,0,0,.68-1.17,1.58,1.58,0,0,0-.35-1.27,2,2,0,0,0-1.3-.64,1.87,1.87,0,0,0-1.36.29,1.75,1.75,0,0,0-.32,2.46,2,2,0,0,0,1.26.62,1.85,1.85,0,0,0,1.39-.3Z" transform="translate(34.94 84.02)" style="fill:#26c165"/></g><g id="Group_376" data-name="Group 376"><path id="Path_1464" data-name="Path 1464" d="M347.94,339.5l-1.73,13.32-3.76-.5,1.35-10.41-2.48-.32.37-2.91Z" transform="translate(34.94 84.02)" style="fill:#26c165"/><path id="Path_1465" data-name="Path 1465" d="M351.12,352.9a5.57,5.57,0,0,1-1.78-2.66,9.68,9.68,0,0,1,1-7.44,5.45,5.45,0,0,1,2.39-2.12,6.07,6.07,0,0,1,6.07.79,5.52,5.52,0,0,1,1.78,2.66,8.62,8.62,0,0,1,.27,3.81,8.45,8.45,0,0,1-1.24,3.62,5.43,5.43,0,0,1-2.4,2.12,5.58,5.58,0,0,1-3.12.43A5.76,5.76,0,0,1,351.12,352.9Zm5-2.6a8,8,0,0,0,.76-5.84,1.73,1.73,0,0,0-2.22-1,1.65,1.65,0,0,0-.83.64,7.92,7.92,0,0,0-.76,5.84,1.75,1.75,0,0,0,1.43,1.12A1.7,1.7,0,0,0,356.09,350.3Z" transform="translate(34.94 84.02)" style="fill:#26c165"/></g><g id="Group_377" data-name="Group 377"><path id="Path_1466" data-name="Path 1466" d="M403.25,346.67,401.52,360l-3.77-.49,1.35-10.41-2.48-.32.38-2.92Z" transform="translate(34.94 84.02)" style="fill:#26c165"/><path id="Path_1467" data-name="Path 1467" d="M411,347.66,409.23,361l-3.77-.47,1.35-10.42-2.48-.32.38-2.9Z" transform="translate(34.94 84.02)" style="fill:#26c165"/></g><g id="Group_379" data-name="Group 379"><g id="Group_378" data-name="Group 378"><path id="Path_1468" data-name="Path 1468" d="M95.1,339l-1.72,13.32-3.78-.48L91,341.43l-2.47-.32.38-2.91Z" transform="translate(34.94 84.02)"/><path id="Path_1469" data-name="Path 1469" d="M106.06,350.92l-.39,3L95.3,352.57l.3-2.36,5.6-4a4.47,4.47,0,0,0,1.12-1.05,2,2,0,0,0,.37-.95,1.21,1.21,0,0,0-.3-1.06,2,2,0,0,0-1.23-.53,2.77,2.77,0,0,0-2.55,1L96,341.67a5.52,5.52,0,0,1,2.45-1.76,7.14,7.14,0,0,1,3.43-.31,6.79,6.79,0,0,1,2.62.85,4.12,4.12,0,0,1,1.65,1.66,3.65,3.65,0,0,1,.37,2.23,4.76,4.76,0,0,1-.73,2,8,8,0,0,1-2.07,1.95l-2.82,2Z" transform="translate(34.94 84.02)"/></g></g><g id="Group_380" data-name="Group 380"><path id="Path_1470" data-name="Path 1470" d="M144.81,345.44l-1.73,13.32-3.77-.49,1.35-10.41-2.47-.32.38-2.92Z" transform="translate(34.94 84.02)" style="fill:#26c165"/><path id="Path_1471" data-name="Path 1471" d="M155.31,353.61a3.69,3.69,0,0,1,.57,2.57,4.11,4.11,0,0,1-.92,2.11,4.65,4.65,0,0,1-2.15,1.38,7.57,7.57,0,0,1-3.31.2,12.5,12.5,0,0,1-2.75-.71,8.48,8.48,0,0,1-2.26-1.29l1.74-2.65a6.3,6.3,0,0,0,1.65,1,7.1,7.1,0,0,0,1.9.54,2.87,2.87,0,0,0,1.59-.17,1.13,1.13,0,0,0,.71-.95c.11-.86-.5-1.38-1.87-1.55l-1.57-.2.31-2.38,2.71-2.27-5.25-.68.37-2.91,9.63,1.25-.3,2.36L153,351.92A4.4,4.4,0,0,1,155.31,353.61Z" transform="translate(34.94 84.02)" style="fill:#26c165"/></g><g id="Group_381" data-name="Group 381"><path id="Path_1472" data-name="Path 1472" d="M194.74,351.9,193,365.22l-3.78-.49,1.35-10.42-2.47-.32.38-2.9Z" transform="translate(34.94 84.02)" style="fill:#26c165"/><path id="Path_1473" data-name="Path 1473" d="M207.9,364.57l-2-.25-.32,2.54-3.68-.47.33-2.55-7-.92.31-2.45,7.06-7.54,3.9.5-6.43,7.08,2.7.35.3-2.27,3.56.46-.29,2.27,2,.25Z" transform="translate(34.94 84.02)" style="fill:#26c165"/></g><g id="Group_382" data-name="Group 382"><path id="Path_1474" data-name="Path 1474" d="M244.21,358.32l-1.72,13.32-3.78-.48,1.36-10.41-2.48-.32.38-2.91Z" transform="translate(34.94 84.02)" style="fill:#26c165"/><path id="Path_1475" data-name="Path 1475" d="M254.54,365.75a3.81,3.81,0,0,1,1,3.23,4.33,4.33,0,0,1-.93,2.19,4.49,4.49,0,0,1-2.15,1.4,7.57,7.57,0,0,1-3.31.2,11.73,11.73,0,0,1-2.74-.7,8,8,0,0,1-2.25-1.28l1.72-2.67a6.48,6.48,0,0,0,1.67,1.06,7.21,7.21,0,0,0,1.88.53,2.86,2.86,0,0,0,1.61-.17,1.19,1.19,0,0,0,.71-1,1.1,1.1,0,0,0-.44-1.08,4,4,0,0,0-2-.61l-3.62-.48,1.66-7.69,8.49,1.1-.37,2.92-5.37-.7-.43,1.92.9.11A6.32,6.32,0,0,1,254.54,365.75Z" transform="translate(34.94 84.02)" style="fill:#26c165"/></g><g id="Group_383" data-name="Group 383"><path id="Path_1476" data-name="Path 1476" d="M294,364.78l-1.72,13.31-3.77-.47,1.35-10.42-2.48-.32.37-2.9Z" transform="translate(34.94 84.02)" style="fill:#26c165"/><path id="Path_1477" data-name="Path 1477" d="M304.44,371.57a4.08,4.08,0,0,1,1.81,4,4.35,4.35,0,0,1-1,2.3,4.71,4.71,0,0,1-2.1,1.35,6.16,6.16,0,0,1-2.73.22,6.07,6.07,0,0,1-4.28-2.28,6.73,6.73,0,0,1-1-5.09,8.26,8.26,0,0,1,1.39-3.8,6.06,6.06,0,0,1,2.81-2.19,7.8,7.8,0,0,1,3.83-.37,9.83,9.83,0,0,1,2.14.52,5.62,5.62,0,0,1,1.66,1l-1.72,2.52a4.24,4.24,0,0,0-2.36-1,3.16,3.16,0,0,0-3.74,2.43c0,.08,0,.16,0,.24a4.47,4.47,0,0,1,3.15-.61A5.21,5.21,0,0,1,304.44,371.57Zm-2.53,4.85a1.76,1.76,0,0,0,.32-2.46,2.17,2.17,0,0,0-2.65-.34,1.72,1.72,0,0,0-.33,2.44,2.19,2.19,0,0,0,2.66.36Z" transform="translate(34.94 84.02)" style="fill:#26c165"/></g><g id="Group_384" data-name="Group 384"><path id="Path_1478" data-name="Path 1478" d="M343.67,371.21,342,384.52l-3.77-.49,1.34-10.41-2.47-.32.38-2.91Z" transform="translate(34.94 84.02)" style="fill:#26c165"/><path id="Path_1479" data-name="Path 1479" d="M356.5,372.87l-.31,2.36-6.12,10.35-4.11-.53,5.84-9.74-3.51-.46-.26,2-3.22-.41.65-5Z" transform="translate(34.94 84.02)" style="fill:#26c165"/></g><g id="Group_385" data-name="Group 385"><path id="Path_1480" data-name="Path 1480" d="M395.05,377.87l-1.73,13.31-3.76-.47,1.35-10.42-2.48-.32.38-2.91Z" transform="translate(34.94 84.02)" style="fill:#26c165"/><path id="Path_1481" data-name="Path 1481" d="M407.07,387.16a3.39,3.39,0,0,1,.26,1.86,3.59,3.59,0,0,1-1,2.1,4.46,4.46,0,0,1-2.22,1.21,9.14,9.14,0,0,1-6.06-.79,4.57,4.57,0,0,1-1.84-1.73,3.52,3.52,0,0,1-.43-2.29,3.24,3.24,0,0,1,.71-1.73,4,4,0,0,1,1.57-1.13,3.58,3.58,0,0,1-.9-1.3,3.11,3.11,0,0,1-.17-1.57,3.31,3.31,0,0,1,.93-2,4.15,4.15,0,0,1,2-1.12,8.43,8.43,0,0,1,5.54.71,4.29,4.29,0,0,1,1.69,1.61,3.31,3.31,0,0,1,.4,2.14,3.15,3.15,0,0,1-.56,1.47,3.54,3.54,0,0,1-1.21,1A4.09,4.09,0,0,1,407.07,387.16Zm-4.2,2.38a1.63,1.63,0,0,0,.42-2.27.79.79,0,0,0-.12-.15,2.58,2.58,0,0,0-2.9-.37,1.63,1.63,0,0,0-.43,2.27.76.76,0,0,0,.11.14,2.25,2.25,0,0,0,1.4.64,2.21,2.21,0,0,0,1.51-.25Zm-1.6-8.09a1.46,1.46,0,0,0-.29,2.05h0a2,2,0,0,0,2.31.3,1.24,1.24,0,0,0,.57-.95,1.3,1.3,0,0,0-.3-1.1,1.8,1.8,0,0,0-1.11-.52,1.77,1.77,0,0,0-1.19.22Z" transform="translate(34.94 84.02)" style="fill:#26c165"/></g><g id="Group_387" data-name="Group 387"><g id="Group_386" data-name="Group 386"><path id="Path_1482" data-name="Path 1482" d="M91.1,370.73,89.38,384l-3.78-.47L87,373.16l-2.47-.33.38-2.9Z" transform="translate(34.94 84.02)"/><path id="Path_1483" data-name="Path 1483" d="M102.32,373.64a6.77,6.77,0,0,1,1,5.09,8.34,8.34,0,0,1-1.39,3.82,6.15,6.15,0,0,1-2.81,2.17,7.84,7.84,0,0,1-3.84.37,9.07,9.07,0,0,1-2.11-.53,6.28,6.28,0,0,1-1.67-.95l1.73-2.53a4.12,4.12,0,0,0,2.36,1A3.35,3.35,0,0,0,98,381.6a3.44,3.44,0,0,0,1.34-2.16,4.52,4.52,0,0,1-3.11.58,5,5,0,0,1-2.24-.83,4.06,4.06,0,0,1-1.81-4,4.29,4.29,0,0,1,1-2.3,4.73,4.73,0,0,1,2.09-1.36,6.78,6.78,0,0,1,7,2.08Zm-3.44,3.51a1.72,1.72,0,0,0,.34-2.42v0a1.92,1.92,0,0,0-1.3-.63,1.81,1.81,0,0,0-1.36.28,1.55,1.55,0,0,0-.67,1.17,1.52,1.52,0,0,0,.34,1.28,1.91,1.91,0,0,0,1.27.64,2,2,0,0,0,1.39-.3Z" transform="translate(34.94 84.02)"/></g></g><g id="Group_388" data-name="Group 388"><path id="Path_1484" data-name="Path 1484" d="M144.64,388.18l-.39,3-10.37-1.35.31-2.35,5.59-4a5.08,5.08,0,0,0,1.12-1.05,2.19,2.19,0,0,0,.38-.95,1.26,1.26,0,0,0-.31-1.07,2,2,0,0,0-1.23-.52,2.83,2.83,0,0,0-1.41.15,2.73,2.73,0,0,0-1.13.83l-2.62-1.92a5.6,5.6,0,0,1,2.45-1.76,7.4,7.4,0,0,1,3.43-.31,6.78,6.78,0,0,1,2.63.85,4.22,4.22,0,0,1,1.65,1.65,3.6,3.6,0,0,1,.37,2.23,4.49,4.49,0,0,1-.73,2,7.88,7.88,0,0,1-2.08,1.95l-2.81,2Z" transform="translate(34.94 84.02)" style="fill:#26c165"/><path id="Path_1485" data-name="Path 1485" d="M148.26,391.13a5.69,5.69,0,0,1-1.78-2.66,9.71,9.71,0,0,1,1-7.45,5.52,5.52,0,0,1,2.4-2.11,6,6,0,0,1,6.07.79,5.52,5.52,0,0,1,1.77,2.65,9.72,9.72,0,0,1-1,7.44,5.55,5.55,0,0,1-2.38,2.12,6.11,6.11,0,0,1-6.08-.78Zm5-2.6a7.9,7.9,0,0,0,.76-5.85,1.73,1.73,0,0,0-2.22-1,1.67,1.67,0,0,0-.82.64,8,8,0,0,0-.76,5.84,1.74,1.74,0,0,0,2.21,1,1.7,1.7,0,0,0,.83-.64Z" transform="translate(34.94 84.02)" style="fill:#26c165"/></g><g id="Group_389" data-name="Group 389"><path id="Path_1486" data-name="Path 1486" d="M193.65,394.53l-.39,3-10.37-1.35.3-2.36,5.59-4a4.9,4.9,0,0,0,1.13-1.05,2.36,2.36,0,0,0,.37-.95,1.23,1.23,0,0,0-.31-1.07,1.93,1.93,0,0,0-1.22-.52,2.73,2.73,0,0,0-2.55,1l-2.6-1.92a5.6,5.6,0,0,1,2.45-1.76,7.14,7.14,0,0,1,3.43-.31,6.79,6.79,0,0,1,2.62.85,4.16,4.16,0,0,1,1.64,1.66,3.59,3.59,0,0,1,.39,2.23,4.67,4.67,0,0,1-.74,2,8,8,0,0,1-2.07,1.95l-2.81,2Z" transform="translate(34.94 84.02)" style="fill:#26c165"/><path id="Path_1487" data-name="Path 1487" d="M201.79,385.08l-1.72,13.32-3.76-.5,1.34-10.41-2.47-.32.37-2.91Z" transform="translate(34.94 84.02)" style="fill:#26c165"/></g><g id="Group_390" data-name="Group 390"><path id="Path_1488" data-name="Path 1488" d="M243.82,401l-.39,3-10.36-1.33.31-2.36,5.59-4a4.62,4.62,0,0,0,1.12-1,2.23,2.23,0,0,0,.38-1,1.24,1.24,0,0,0-.31-1.06,2,2,0,0,0-1.23-.53,2.78,2.78,0,0,0-1.4.16,2.73,2.73,0,0,0-1.15.83l-2.59-1.92a5.52,5.52,0,0,1,2.45-1.76,7.14,7.14,0,0,1,3.43-.31,6.78,6.78,0,0,1,2.63.85,4.1,4.1,0,0,1,1.64,1.66,3.64,3.64,0,0,1,.38,2.22,4.79,4.79,0,0,1-.73,2,8.34,8.34,0,0,1-2.08,1.94l-2.82,2Z" transform="translate(34.94 84.02)" style="fill:#26c165"/><path id="Path_1489" data-name="Path 1489" d="M255.23,402.51l-.39,3-10.38-1.34.31-2.36,5.58-4a4.69,4.69,0,0,0,1.13-1,2.14,2.14,0,0,0,.38-1,1.31,1.31,0,0,0-.31-1.07,2.07,2.07,0,0,0-1.23-.52,2.74,2.74,0,0,0-2.55,1l-2.6-1.93a5.55,5.55,0,0,1,2.46-1.75,7.1,7.1,0,0,1,3.42-.31,6.78,6.78,0,0,1,2.63.85,4.29,4.29,0,0,1,1.65,1.65,3.68,3.68,0,0,1,.38,2.23,4.75,4.75,0,0,1-.73,2,7.92,7.92,0,0,1-2.09,2l-2.81,2Z" transform="translate(34.94 84.02)" style="fill:#26c165"/></g><g id="Group_391" data-name="Group 391"><path id="Path_1490" data-name="Path 1490" d="M293.53,407.47l-.39,3-10.37-1.34.31-2.36,5.58-4a4.69,4.69,0,0,0,1.13-1.05,2.06,2.06,0,0,0,.37-.95,1.24,1.24,0,0,0-.31-1.07,1.9,1.9,0,0,0-1.22-.52,2.93,2.93,0,0,0-1.41.15,2.81,2.81,0,0,0-1.14.84l-2.6-1.93a5.47,5.47,0,0,1,2.46-1.75A7.81,7.81,0,0,1,292,397a4.21,4.21,0,0,1,1.65,1.67,3.56,3.56,0,0,1,.37,2.22,4.87,4.87,0,0,1-.72,2,8.08,8.08,0,0,1-2.09,1.95l-2.81,2Z" transform="translate(34.94 84.02)" style="fill:#26c165"/><path id="Path_1491" data-name="Path 1491" d="M304.48,405.18a3.67,3.67,0,0,1,.56,2.58,4,4,0,0,1-.92,2.11,4.62,4.62,0,0,1-2.14,1.38,7.57,7.57,0,0,1-3.31.2,12.25,12.25,0,0,1-2.74-.7,8.18,8.18,0,0,1-2.26-1.29l1.73-2.66a6.14,6.14,0,0,0,1.66,1.05,7.06,7.06,0,0,0,1.91.54,2.8,2.8,0,0,0,1.59-.17,1.14,1.14,0,0,0,.71-1c.11-.86-.51-1.38-1.87-1.55l-1.59-.21.31-2.38,2.71-2.26-5.25-.68.38-2.91,9.63,1.25-.31,2.36-3.14,2.61A4.55,4.55,0,0,1,304.48,405.18Z" transform="translate(34.94 84.02)" style="fill:#26c165"/></g><g id="Group_392" data-name="Group 392"><path id="Path_1492" data-name="Path 1492" d="M343.46,413.94l-.39,3-10.37-1.34.31-2.36,5.58-4a4.9,4.9,0,0,0,1.13-1,2.19,2.19,0,0,0,.38-1,1.3,1.3,0,0,0-.31-1.07,2,2,0,0,0-1.24-.52,2.79,2.79,0,0,0-1.4.15,2.76,2.76,0,0,0-1.14.83l-2.6-1.92a5.6,5.6,0,0,1,2.45-1.76,7.26,7.26,0,0,1,3.43-.31,7,7,0,0,1,2.63.85,4.31,4.31,0,0,1,1.65,1.66,3.6,3.6,0,0,1,.37,2.23,4.73,4.73,0,0,1-.72,2,8.26,8.26,0,0,1-2.1,1.94l-2.81,2Z" transform="translate(34.94 84.02)" style="fill:#26c165"/><path id="Path_1493" data-name="Path 1493" d="M357.07,416.15l-2-.25-.33,2.55-3.67-.48.33-2.55-7-.91.32-2.45,7.05-7.55,3.9.5-6.44,7.08,2.7.36.3-2.27,3.57.46-.3,2.27,2,.25Z" transform="translate(34.94 84.02)" style="fill:#26c165"/></g><g id="Group_393" data-name="Group 393"><path id="Path_1494" data-name="Path 1494" d="M392.94,420.35l-.39,3L382.18,422l.31-2.36,5.58-4a4.86,4.86,0,0,0,1.13-1,2.35,2.35,0,0,0,.37-1,1.24,1.24,0,0,0-.31-1.07A2,2,0,0,0,388,412a2.8,2.8,0,0,0-1.41.15,2.91,2.91,0,0,0-1.15.84l-2.6-1.93a5.58,5.58,0,0,1,2.46-1.75,7.14,7.14,0,0,1,3.43-.31,7,7,0,0,1,2.63.84,4.25,4.25,0,0,1,1.64,1.67,3.64,3.64,0,0,1,.39,2.22,4.9,4.9,0,0,1-.74,2,7.84,7.84,0,0,1-2.08,1.94l-2.81,2Z" transform="translate(34.94 84.02)" style="fill:#26c165"/><path id="Path_1495" data-name="Path 1495" d="M403.73,417.33a3.82,3.82,0,0,1,.95,3.23,4.33,4.33,0,0,1-.93,2.19,4.45,4.45,0,0,1-2.16,1.4,7.26,7.26,0,0,1-3.31.2,11.28,11.28,0,0,1-2.74-.71,7.8,7.8,0,0,1-2.24-1.28L395,419.7a6.36,6.36,0,0,0,1.66,1,6.75,6.75,0,0,0,1.9.54,2.82,2.82,0,0,0,1.6-.17,1.16,1.16,0,0,0,.71-.95,1.12,1.12,0,0,0-.44-1.09,4.32,4.32,0,0,0-2-.6l-3.62-.48,1.67-7.69,8.49,1.1-.37,2.91-5.37-.7-.43,1.91.9.12A6.37,6.37,0,0,1,403.73,417.33Z" transform="translate(34.94 84.02)" style="fill:#26c165"/></g><g id="Group_395" data-name="Group 395"><g id="Group_394" data-name="Group 394"><path id="Path_1496" data-name="Path 1496" d="M90.71,413.45l-.39,3L80,415.09l.31-2.36,5.59-4a5.27,5.27,0,0,0,1.12-1,2.21,2.21,0,0,0,.37-1,1.25,1.25,0,0,0-.3-1.06,2,2,0,0,0-1.24-.53,2.79,2.79,0,0,0-1.4.16,2.74,2.74,0,0,0-1.14.82l-2.6-1.92a5.47,5.47,0,0,1,2.46-1.75,7.82,7.82,0,0,1,6.06.53,4.26,4.26,0,0,1,1.64,1.65,3.6,3.6,0,0,1,.37,2.23,4.59,4.59,0,0,1-.71,2,8,8,0,0,1-2.08,2l-2.82,2Z" transform="translate(34.94 84.02)"/><path id="Path_1497" data-name="Path 1497" d="M101.58,409.79a4.19,4.19,0,0,1,1.47,1.71,4,4,0,0,1,.34,2.27,4.23,4.23,0,0,1-1,2.31,4.55,4.55,0,0,1-2.1,1.34,6.78,6.78,0,0,1-7-2.06,6.72,6.72,0,0,1-1-5.08,8.3,8.3,0,0,1,1.39-3.81,6.08,6.08,0,0,1,2.82-2.18,7.75,7.75,0,0,1,3.82-.37,9.29,9.29,0,0,1,2.14.52,5.72,5.72,0,0,1,1.66.95l-1.72,2.53a4.18,4.18,0,0,0-2.37-1,3.41,3.41,0,0,0-2.45.5,3.35,3.35,0,0,0-1.33,2.17,4.5,4.5,0,0,1,3.14-.6A5.1,5.1,0,0,1,101.58,409.79Zm-2.53,4.85a1.75,1.75,0,0,0,.31-2.45,1.85,1.85,0,0,0-1.26-.63,2,2,0,0,0-1.39.29A1.6,1.6,0,0,0,96,413a1.64,1.64,0,0,0,.35,1.28,2,2,0,0,0,1.31.64,1.92,1.92,0,0,0,1.36-.28Z" transform="translate(34.94 84.02)"/></g></g><g id="Group_396" data-name="Group 396"><path id="Path_1498" data-name="Path 1498" d="M140.37,419.88l-.38,3-10.38-1.34.31-2.36,5.59-4a4.62,4.62,0,0,0,1.12-1,2.19,2.19,0,0,0,.38-.95,1.26,1.26,0,0,0-.31-1.07,2,2,0,0,0-1.23-.52,2.76,2.76,0,0,0-2.55,1l-2.59-1.92a5.57,5.57,0,0,1,2.46-1.76,7.09,7.09,0,0,1,3.42-.31,7,7,0,0,1,2.63.85,4.29,4.29,0,0,1,1.65,1.65,3.75,3.75,0,0,1,.37,2.23,4.66,4.66,0,0,1-.73,2,7.88,7.88,0,0,1-2.08,2l-2.82,2Z" transform="translate(34.94 84.02)" style="fill:#26c165"/><path id="Path_1499" data-name="Path 1499" d="M153.65,411.09l-.3,2.37-6.13,10.35-4.11-.53,5.83-9.75-3.5-.45-.27,2.05-3.22-.41.66-5Z" transform="translate(34.94 84.02)" style="fill:#26c165"/></g><g id="Group_397" data-name="Group 397"><path id="Path_1500" data-name="Path 1500" d="M190.18,426.34l-.39,3L179.42,428l.31-2.36,5.58-4a4.86,4.86,0,0,0,1.13-1,2.19,2.19,0,0,0,.38-.95,1.3,1.3,0,0,0-.31-1.07,2,2,0,0,0-1.24-.52,2.79,2.79,0,0,0-1.4.15,2.76,2.76,0,0,0-1.14.83l-2.6-1.92a5.57,5.57,0,0,1,2.46-1.76A7.1,7.1,0,0,1,186,415a6.78,6.78,0,0,1,2.63.85,4.1,4.1,0,0,1,1.65,1.65,3.65,3.65,0,0,1,.38,2.23,4.66,4.66,0,0,1-.73,2,7.92,7.92,0,0,1-2.09,1.95l-2.81,2Z" transform="translate(34.94 84.02)" style="fill:#26c165"/><path id="Path_1501" data-name="Path 1501" d="M202.64,425.18a3.4,3.4,0,0,1,.27,1.86,3.6,3.6,0,0,1-1,2.11,4.55,4.55,0,0,1-2.23,1.2,9.24,9.24,0,0,1-6-.78,4.6,4.6,0,0,1-1.85-1.73,3.56,3.56,0,0,1-.43-2.3,3.16,3.16,0,0,1,.73-1.72,3.84,3.84,0,0,1,1.57-1.13,3.35,3.35,0,0,1-.9-1.3,3.11,3.11,0,0,1-.17-1.57,3.25,3.25,0,0,1,.93-2,4.15,4.15,0,0,1,2-1.12,7.93,7.93,0,0,1,2.83-.12,7.53,7.53,0,0,1,2.7.84,4.16,4.16,0,0,1,1.7,1.6,3.4,3.4,0,0,1,.41,2.14,3.32,3.32,0,0,1-.57,1.48,3.41,3.41,0,0,1-1.21,1A4.12,4.12,0,0,1,202.64,425.18Zm-4.21,2.38a1.63,1.63,0,0,0,.43-2.26l-.12-.15a2.62,2.62,0,0,0-2.91-.38,1.64,1.64,0,0,0-.32,2.42,2.67,2.67,0,0,0,2.92.38Zm-1.59-8.08a1.43,1.43,0,0,0-.28,2,2,2,0,0,0,2.3.3,1.25,1.25,0,0,0,.58-.95,1.29,1.29,0,0,0-.31-1.1,1.73,1.73,0,0,0-1.11-.52,1.68,1.68,0,0,0-1.18.23Z" transform="translate(34.94 84.02)" style="fill:#26c165"/></g><g id="Group_398" data-name="Group 398"><path id="Path_1502" data-name="Path 1502" d="M239.82,432.77l-.39,3-10.36-1.34.3-2.36,5.58-4a4.65,4.65,0,0,0,1.13-1,2.14,2.14,0,0,0,.38-.95,1.25,1.25,0,0,0-.31-1.06,1.91,1.91,0,0,0-1.23-.53,2.76,2.76,0,0,0-2.55,1l-2.59-1.92a5.39,5.39,0,0,1,2.45-1.75,6.9,6.9,0,0,1,3.43-.31,6.82,6.82,0,0,1,2.63.84,4.2,4.2,0,0,1,1.64,1.65,3.68,3.68,0,0,1,.38,2.23,4.75,4.75,0,0,1-.73,2,7.73,7.73,0,0,1-2.09,1.94l-2.81,2Z" transform="translate(34.94 84.02)" style="fill:#26c165"/><path id="Path_1503" data-name="Path 1503" d="M251.48,425.22a6.77,6.77,0,0,1,1,5.09,8.34,8.34,0,0,1-1.39,3.82,6.1,6.1,0,0,1-2.81,2.18,8,8,0,0,1-3.84.37,8.61,8.61,0,0,1-2.11-.54,5.65,5.65,0,0,1-1.67-.95l1.73-2.52a4.21,4.21,0,0,0,2.36,1,3.14,3.14,0,0,0,3.75-2.64,4.43,4.43,0,0,1-3.12.58,5,5,0,0,1-2.23-.82,4.1,4.1,0,0,1-1.47-1.7,4,4,0,0,1-.34-2.28,4.22,4.22,0,0,1,1-2.29,4.56,4.56,0,0,1,2.09-1.36,6.83,6.83,0,0,1,7,2.06ZM248,428.73a1.73,1.73,0,0,0,.34-2.42h0a1.93,1.93,0,0,0-1.3-.64,1.83,1.83,0,0,0-1.36.29,1.75,1.75,0,0,0-.32,2.45,2.17,2.17,0,0,0,2.65.34Z" transform="translate(34.94 84.02)" style="fill:#26c165"/></g><g id="Group_399" data-name="Group 399"><path id="Path_1504" data-name="Path 1504" d="M289.18,435.46a3.62,3.62,0,0,1,.57,2.58,4.11,4.11,0,0,1-.92,2.1,4.54,4.54,0,0,1-2.14,1.38,7.57,7.57,0,0,1-3.31.2,11.94,11.94,0,0,1-2.75-.7,8.72,8.72,0,0,1-2.26-1.28l1.74-2.66a6.56,6.56,0,0,0,1.66,1.05,6.7,6.7,0,0,0,1.91.53,2.76,2.76,0,0,0,1.58-.16,1.16,1.16,0,0,0,.71-.95c.11-.86-.51-1.38-1.87-1.56l-1.58-.21.31-2.38,2.71-2.25-5.25-.68.38-2.92,9.63,1.25-.31,2.36-3.15,2.61A4.43,4.43,0,0,1,289.18,435.46Z" transform="translate(34.94 84.02)" style="fill:#26c165"/><path id="Path_1505" data-name="Path 1505" d="M293.34,442.18a5.43,5.43,0,0,1-1.78-2.66,9.68,9.68,0,0,1,1-7.44,5.6,5.6,0,0,1,2.39-2.13,6.12,6.12,0,0,1,6.07.79,5.61,5.61,0,0,1,1.78,2.66,9.68,9.68,0,0,1-1,7.44,5.48,5.48,0,0,1-2.4,2.12,5.66,5.66,0,0,1-3.12.43A5.73,5.73,0,0,1,293.34,442.18Zm5-2.6a8,8,0,0,0,.76-5.84,1.75,1.75,0,0,0-3.06-.4,7.94,7.94,0,0,0-.77,5.85,1.74,1.74,0,0,0,1.43,1.12,1.72,1.72,0,0,0,1.64-.73Z" transform="translate(34.94 84.02)" style="fill:#26c165"/></g><g id="Group_400" data-name="Group 400"><path id="Path_1506" data-name="Path 1506" d="M338.19,441.81a3.67,3.67,0,0,1,.56,2.58,4,4,0,0,1-.92,2.1,4.47,4.47,0,0,1-2.14,1.38,7.55,7.55,0,0,1-3.31.2,11.78,11.78,0,0,1-2.74-.72,8.12,8.12,0,0,1-2.26-1.27l1.73-2.66a6,6,0,0,0,1.66,1,6.9,6.9,0,0,0,1.9.54,2.89,2.89,0,0,0,1.59-.16,1.16,1.16,0,0,0,.71-.95c.12-.86-.51-1.38-1.87-1.56l-1.58-.21.31-2.38,2.71-2.26-5.25-.68.38-2.91,9.62,1.25-.3,2.36-3.15,2.61A4.47,4.47,0,0,1,338.19,441.81Z" transform="translate(34.94 84.02)" style="fill:#26c165"/><path id="Path_1507" data-name="Path 1507" d="M346.87,436.13l-1.72,13.31-3.78-.47,1.35-10.41-2.47-.32.38-2.92Z" transform="translate(34.94 84.02)" style="fill:#26c165"/></g></g><g id="Group_403" data-name="Group 403"><path id="Path_1508" data-name="Path 1508" d="M148.8,184.47a11.42,11.42,0,1,1-9.86-12.79,11.42,11.42,0,0,1,9.86,12.79Z" transform="translate(34.94 84.02)" style="fill:#fff"/><path id="Path_1509" data-name="Path 1509" d="M214.57,193a11.41,11.41,0,1,1-9.86-12.8,11.41,11.41,0,0,1,9.86,12.8Z" transform="translate(34.94 84.02)" style="fill:#fff"/><path id="Path_1510" data-name="Path 1510" d="M280.34,201.52a11.41,11.41,0,1,1-9.85-12.79,11.42,11.42,0,0,1,9.85,12.79Z" transform="translate(34.94 84.02)" style="fill:#fff"/><path id="Path_1511" data-name="Path 1511" d="M346.13,210a11.42,11.42,0,1,1-9.86-12.79A11.42,11.42,0,0,1,346.13,210Z" transform="translate(34.94 84.02)" style="fill:#fff"/><path id="Path_1512" data-name="Path 1512" d="M411.9,218.56A11.41,11.41,0,1,1,402,205.77a11.42,11.42,0,0,1,9.86,12.79Z" transform="translate(34.94 84.02)" style="fill:#fff"/><g id="Group_402" data-name="Group 402"><path id="Path_1513" data-name="Path 1513" d="M137.09,185.88h0a4.9,4.9,0,0,1-4.23-5.5l4-31.24a4.9,4.9,0,0,1,5.5-4.23h0a4.91,4.91,0,0,1,4.23,5.5l-4,31.23a4.89,4.89,0,0,1-5.49,4.24Z" transform="translate(34.94 84.02)"/><path id="Path_1514" data-name="Path 1514" d="M202.87,194.41h0a4.92,4.92,0,0,1-4.23-5.5l4-31.24a4.91,4.91,0,0,1,5.5-4.24h0a4.92,4.92,0,0,1,4.24,5.5l-4,31.24A4.91,4.91,0,0,1,202.87,194.41Z" transform="translate(34.94 84.02)"/><path id="Path_1515" data-name="Path 1515" d="M268.66,202.93h0a4.91,4.91,0,0,1-4.23-5.49h0l4-31.24A4.92,4.92,0,0,1,274,162h0a4.92,4.92,0,0,1,4.24,5.5l-4,31.24a4.89,4.89,0,0,1-5.48,4.24Z" transform="translate(34.94 84.02)"/><path id="Path_1516" data-name="Path 1516" d="M334.45,211.45h0a4.92,4.92,0,0,1-4.24-5.5l4-31.23a4.91,4.91,0,0,1,5.5-4.24h0A4.9,4.9,0,0,1,344,176h0l-4.05,31.24A4.91,4.91,0,0,1,334.45,211.45Z" transform="translate(34.94 84.02)"/><path id="Path_1517" data-name="Path 1517" d="M400.23,220h0a4.91,4.91,0,0,1-4.23-5.5l4-31.24a4.89,4.89,0,0,1,5.49-4.24h0a4.9,4.9,0,0,1,4.23,5.5h0l-4,31.24A4.92,4.92,0,0,1,400.23,220Z" transform="translate(34.94 84.02)"/></g></g></g></g></g><g id="Group_407" data-name="Group 407"><path id="Path_1518" data-name="Path 1518" d="M202.75,343.42a16.36,16.36,0,0,1-4.81-.73,16,16,0,1,1,4.81.73Zm0-30.65a14.55,14.55,0,1,0,4.34.66,14.88,14.88,0,0,0-4.34-.66Z" transform="translate(34.94 84.02)" style="fill:#ff5668"/></g></g><g id="โปรฝากประจำ" style="isolation:isolate"><text transform="translate(140.62 336.71) rotate(7.13)" style="isolation:isolate;font-size:28.532711029052734px;fill:#ff5668;font-family:DBAdmanX-Bold, DB Adman X;font-weight:700">โปรฝากประจำ</text></g></g></g></g></g></g></svg>