<?xml version="1.0" encoding="utf-8"?>
<!-- Generator: Adobe Illustrator 24.0.0, SVG Export Plug-In . SVG Version: 6.00 Build 0)  -->
<svg version="1.1" id="Layer_1" xmlns="http://www.w3.org/2000/svg" xmlns:xlink="http://www.w3.org/1999/xlink" x="0px" y="0px"
	 viewBox="0 0 1600 1200" style="enable-background:new 0 0 1600 1200;" xml:space="preserve">
<style type="text/css">
	.st0{clip-path:url(#SVGID_2_);}
	.st1{fill:#FFFFFF;}
	.st2{fill:#FFAA00;}
	.st3{fill:#249132;}
	.st4{fill:#24963C;}
	.st5{fill:#249A40;}
	.st6{fill:#249F44;}
	.st7{fill:#24A348;}
	.st8{fill:#24AC50;}
	.st9{fill:#24B458;}
	.st10{fill:#24B85C;}
	.st11{fill:#24BD60;}
	.st12{fill:#20C164;}
	.st13{fill:#24C164;}
	.st14{fill:#24B054;}
	.st15{fill:#24A74C;}
</style>
<g>
	<defs>
		<rect id="SVGID_1_" width="1600" height="1200"/>
	</defs>
	<clipPath id="SVGID_2_">
		<use xlink:href="#SVGID_1_"  style="overflow:visible;"/>
	</clipPath>
	<g id="preview" class="st0">
		<rect class="st1" width="1600" height="1200"/>
		<g id="BG">
			<rect id="Rectangle" class="st2" width="1600" height="1197"/>
			<g id="Group">
				<path id="Path" class="st3" d="M485.9,1056.9c-109.3-32.9-223.3-48.6-335.2-29.3c-52.5,8.8-103.4,25.8-150.7,50.4v121h843.6
					C727.7,1149,612.8,1096.3,496.1,1060C492.7,1058.9,489.3,1058,485.9,1056.9z"/>
				<path id="Path-2" class="st4" d="M1599.6,0H0v1079.8c47.3-24.5,98.1-41.4,150.7-50.3c111.9-19.1,225.9-3.6,335.2,29.1
					c3.4,1.1,6.8,2.1,10.2,3c116.8,36,231.6,88.5,347.5,138.3h756L1599.6,0z"/>
				<path id="Path-3" class="st5" d="M478.3,869.8c3.2,1.2,6.4,2.5,9.5,3.7c196.1,78.6,388.6,199.9,593.3,264.4
					c174.2,54.8,349.4,43.7,518.5-15.3V0H0v860.7c52.3-26.3,106.5-41.5,161.1-46.3C268.3,804.5,375.6,829.7,478.3,869.8z"/>
				<path id="Path-4" class="st6" d="M0,0v642.9c55.6-27.5,113.5-40.9,171.4-41.5c102.8-1.2,203.1,34,299.2,81.6
					c3,1.5,5.9,3,8.9,4.5c183.6,92.8,365.6,218.7,562.2,287.6c186.6,65.4,376.2,51.5,557.7-18.9V0H0z"/>
				<path id="Path-5" class="st7" d="M181.8,388.3c98.2,9,191.8,52.7,281.2,107.9c2.8,1.6,5.5,3.4,8.3,5.1
					c171,107.2,342.6,237.3,531.2,310.9c198.7,77.5,403.3,61.1,597.1-22.2V0H0v424C59,394.6,120.6,382.8,181.8,388.3z"/>
				<path id="Path-6" class="st8" d="M1599.6,0H0v204.1c62.3-31.3,127.7-41.2,192.1-28.7c93.6,18.1,180.5,71.4,263.2,134.1
					c2.6,1.9,5.1,3.9,7.7,5.8c158.4,121.4,319.6,255.9,500.2,334.2c210.4,91.3,430.7,73.4,636.4-24.9L1599.6,0L1599.6,0z"/>
				<path id="Path-7" class="st9" d="M454.8,129.2c145.8,135.8,296.6,274,469.1,357.4c208.5,100.9,431.2,91,637.7-7.9
					c12.8-6.1,25.4-12.6,38.1-19.3V0H288c56,31.9,108.7,75.8,159.7,122.8C450.1,124.9,452.4,127.1,454.8,129.2z"/>
				<path id="Path-8" class="st10" d="M1599.6,0H497.9c118.1,128.5,243.4,246.3,386.7,323.7c191.7,103.6,399.9,111.8,594.8,31.6
					c41.8-17.3,82-38.2,120.3-62.4V0H1599.6z"/>
				<path id="Path-9" class="st11" d="M1397.1,231.8c47.2-15.9,93.6-37.9,138.6-65.6c22-13.6,43.4-28.4,63.9-44.2V0H643.2
					c62.9,62.4,129.7,117.1,202,160.8C1020.1,266.6,1213.9,293.6,1397.1,231.8z"/>
				<path id="Path-10" class="st12" d="M1314.9,111.4c75.3-18.9,148.9-55.5,216.7-108.4H808.9
					C966.5,109.3,1144.4,154.2,1314.9,111.4z"/>
			</g>
		</g>
	</g>
	<g class="st0">
		
			<image style="overflow:visible;" width="128" height="142" xlink:href="ภาพหน้าจอ 2564-04-06 เวลา 14.03.19.png"  transform="matrix(0.5 0 0 0.5 2342.6843 284.4047)">
		</image>
	</g>
	<g class="st0">
		
			<image style="overflow:visible;" width="198" height="180" xlink:href="ภาพหน้าจอ 2564-04-06 เวลา 11.28.40.png"  transform="matrix(0.5 0 0 0.5 2048.4509 331.585)">
		</image>
	</g>
	<g class="st0">
		
			<image style="overflow:visible;" width="198" height="180" xlink:href="ภาพหน้าจอ 2564-04-06 เวลา 11.28.40.png"  transform="matrix(0.5 0 0 0.5 2048.4509 653.3292)">
		</image>
	</g>
	<g class="st0">
		<rect x="1844.6" y="319.9" class="st13" width="143.4" height="131.7"/>
		<rect x="1844.6" y="373.4" class="st11" width="143.4" height="131.7"/>
		<rect x="1844.6" y="426.9" class="st10" width="143.4" height="131.7"/>
		<rect x="1844.6" y="480.4" class="st9" width="143.4" height="131.7"/>
		<rect x="1844.6" y="533.9" class="st14" width="143.4" height="131.7"/>
		<rect x="1844.6" y="587.4" class="st8" width="143.4" height="131.7"/>
		<rect x="1844.6" y="640.9" class="st15" width="143.4" height="131.7"/>
		<rect x="1844.6" y="694.4" class="st7" width="143.4" height="131.7"/>
		<rect x="1844.6" y="747.9" class="st6" width="143.4" height="131.7"/>
		<rect x="1844.6" y="801.4" class="st5" width="143.4" height="131.7"/>
		<rect x="1844.6" y="854.9" class="st4" width="143.4" height="131.7"/>
	</g>
</g>
</svg>
