<?xml version="1.0" encoding="utf-8"?>
<!-- Generator: Adobe Illustrator 24.0.2, SVG Export Plug-In . SVG Version: 6.00 Build 0)  -->
<svg version="1.1" id="Capa_1" xmlns="http://www.w3.org/2000/svg" xmlns:xlink="http://www.w3.org/1999/xlink" x="0px" y="0px"
	 viewBox="0 0 512 512" style="enable-background:new 0 0 512 512;" xml:space="preserve">
<style type="text/css">
	.st0{fill:#16B154;}
	.st1{fill:#27C165;}
	.st2{fill:#C6FFD1;}
	.st3{fill:#FFFFFF;}
</style>
<path id="Path_1787" class="st0" d="M255.5-1v512c141.4,0,256-114.6,256-256S396.9-1,255.5-1z"/>
<path id="Path_1788" class="st1" d="M470.3,255c0-141.4-96.2-256-214.8-256C114.1-1-0.5,113.6-0.5,255s114.6,256,256,256
	C374.1,511,470.3,396.4,470.3,255z"/>
<path id="Path_1789" class="st2" d="M271,91.7l86,65.4l20.6,82.4c0,58.9-47.7,106.6-106.6,106.6v41.2c81.6,0,147.8-66.2,147.8-147.8
	S352.6,91.7,271,91.7z"/>
<path id="Path_1790" class="st3" d="M387.9,239.5c0-81.6-52.3-147.8-116.9-147.8h-15.5v30.9H271c39,0,70.6,31.6,70.6,70.5
	c0,39-31.6,70.6-70.5,70.6c0,0,0,0,0,0h-86v-30.9l-92.7,92.7l92.7,92.7v-30.9h86C335.5,387.4,387.9,321.2,387.9,239.5z"/>
</svg>
