<?xml version="1.0" encoding="utf-8"?>
<!-- Generator: Adobe Illustrator 24.0.2, SVG Export Plug-In . SVG Version: 6.00 Build 0)  -->
<svg version="1.1" id="Layer_1" xmlns="http://www.w3.org/2000/svg" xmlns:xlink="http://www.w3.org/1999/xlink" x="0px" y="0px"
	 viewBox="0 0 326 171.5" style="enable-background:new 0 0 326 171.5;" xml:space="preserve">
<style type="text/css">
	.st0{fill:#FFFFFF;}
</style>
<g>
	<g>
		<path class="st0" d="M272.9,193c-16.5,0-22.7-33.5-22.7-40.4c0-0.3-0.2-0.5-0.5-0.6l-0.5-0.2l-0.6,0.4
			c-4.8,4.8-17.4,11.8-26.2,11.8c-4.7,0-7.6-1.9-9.2-3.5c-9.1-9.1,2.2-28.7,7.7-34.7c-4.6-8.6-7.1-18.2-7.1-28c0-32.5,26.5-59,59-59
			s59,26.5,59,59c0,9.8-2.4,19.4-7.1,28c5.5,6.1,16.9,25.6,7.7,34.7c-1.6,1.6-4.5,3.5-9.2,3.5l0,0c-8.8,0-21.4-7-26.2-11.8l-0.5-0.3
			l-0.6,0.2c-0.2,0.1-0.5,0.3-0.5,0.5C295.6,159.5,289.4,193,272.9,193z M249.1,137.7c2.1,0,4.1,0.4,6,1.3c5.6,2.4,9.2,7.7,9.2,13.6
			c0,7.4,5.1,22.1,8.6,25.8c3.6-3.7,8.6-18.4,8.6-25.8c0-5.9,3.5-11.2,9-13.6c6-2.6,12.3-1.3,16.5,3c2.7,2.7,10.1,6.8,14.8,7.7
			c-0.8-4-4.5-11.4-7.4-14.4l-0.2-0.2c-4.2-4.2-5.1-10.3-2.3-15.3c3.8-6.7,5.8-14.3,5.8-22c0-24.8-20.1-44.9-44.9-44.9
			S228,73,228,97.8c0,7.7,2,15.3,5.8,22.1c2.8,5,1.9,11.1-2.3,15.3l-0.1,0.1c-2.9,3-6.5,10.4-7.4,14.4c4.9-0.9,12.1-5,14.6-7.4
			C241.5,139.3,245.2,137.7,249.1,137.7z"/>
	</g>
	<g>
		<g>
			<circle class="st0" cx="257" cy="100.9" r="7"/>
		</g>
		<g>
			<circle class="st0" cx="288.7" cy="100.9" r="7"/>
		</g>
	</g>
</g>
</svg>
