<?xml version="1.0" encoding="utf-8"?>
<!-- Generator: Adobe Illustrator 24.0.2, SVG Export Plug-In . SVG Version: 6.00 Build 0)  -->
<svg version="1.1" id="Layer_1" xmlns="http://www.w3.org/2000/svg" xmlns:xlink="http://www.w3.org/1999/xlink" x="0px" y="0px"
	 viewBox="0 0 326 171.5" style="enable-background:new 0 0 326 171.5;" xml:space="preserve">
<style type="text/css">
	.st0{opacity:0.193;enable-background:new    ;}
	.st1{fill:#FFFFFF;}
</style>
<g class="st0">
	<g>
		<path class="st1" d="M273.7,199c-18.6,0-25.5-37.7-25.5-45.4c0-0.3-0.3-0.6-0.5-0.7l-0.5-0.2l-0.7,0.4
			c-5.4,5.4-19.6,13.3-29.4,13.3c-5.3,0-8.6-2.1-10.3-3.9c-10.2-10.2,2.5-32.2,8.7-39c-5.2-9.6-7.9-20.5-7.9-31.4
			c0-36.5,29.7-66.3,66.3-66.3S340,55.5,340,92c0,11-2.7,21.8-7.9,31.4c6.2,6.8,18.9,28.8,8.7,39c-1.8,1.8-5,3.9-10.3,3.9l0,0
			c-9.9,0-24-7.8-29.4-13.2l-0.6-0.4l-0.7,0.2c-0.3,0.1-0.5,0.3-0.5,0.6C299.3,161.3,292.3,199,273.7,199z M247,136.9
			c2.3,0,4.6,0.5,6.7,1.4c6.3,2.7,10.3,8.7,10.3,15.3c0,8.3,5.7,24.8,9.7,29c4-4.2,9.7-20.7,9.7-28.9c0-6.6,3.9-12.6,10.1-15.2
			c6.8-3,13.8-1.4,18.5,3.3c3,3,11.4,7.6,16.6,8.6c-0.9-4.5-5-12.8-8.3-16.2l-0.2-0.2c-4.7-4.7-5.7-11.6-2.5-17.1
			c4.3-7.5,6.5-16.1,6.5-24.8c0-27.8-22.6-50.4-50.4-50.4c-27.8,0-50.4,22.6-50.4,50.4c0,8.7,2.3,17.2,6.5,24.8
			c3.2,5.6,2.1,12.5-2.6,17.1l-0.1,0.1c-3.2,3.3-7.4,11.7-8.3,16.2c5.5-1.1,13.6-5.6,16.4-8.3C238.5,138.6,242.6,136.9,247,136.9z"
			/>
	</g>
	<g>
		<g>
			<circle class="st1" cx="255.9" cy="95.4" r="7.9"/>
		</g>
		<g>
			<circle class="st1" cx="291.6" cy="95.4" r="7.9"/>
		</g>
	</g>
</g>
</svg>
