<svg xmlns="http://www.w3.org/2000/svg" viewBox="0 0 212.26 200"><title>Asset 9</title><g id="Layer_2" data-name="Layer 2"><g id="Wallet_Denied" data-name="Wallet Denied"><path d="M17.07,36.73c2.09-14.81,8.86-20.4,23-20.4H167.73a8.15,8.15,0,0,1,7.79,8.16V36.73Zm174.78.37V24.49A24.49,24.49,0,0,0,167.73,0H40.1C4.59,0,.54,28.94,0,44a3.38,3.38,0,0,0,0,.45v131.1A24.49,24.49,0,0,0,24.5,200H187.77a24.49,24.49,0,0,0,24.49-24.49V61.22A24.49,24.49,0,0,0,191.85,37.1ZM165.32,138.78a18.33,18.33,0,1,1,.08,0Z" style="fill:#fafafa"/></g></g></svg>