<svg id="_x31__x2C_5" height="512" viewBox="0 0 36 36" width="512" xmlns="http://www.w3.org/2000/svg"><path d="m27.623 31.833c-6.917 0-11.667 3.583-15 3.583s-10.333-1.916-10.333-17.249 9.417-17.584 13.083-17.584c17.167 0 24.5 31.25 12.25 31.25z" fill="#efefef"/><g fill="#a4afc1"><path d="m31.679 2.644h2v1h-2z" transform="matrix(.707 -.707 .707 .707 7.349 24.029)"/><path d="m32.533 6.033h1v2h-1z" transform="matrix(.707 -.707 .707 .707 4.705 25.423)"/><path d="m28.467 1.967h1v2h-1z" transform="matrix(.707 -.707 .707 .707 6.39 21.356)"/></g><path d="m29.25 24.25v-12.5c0-1.105-.895-2-2-2h-18.5c-1.105 0-2 .895-2 2v12.5c0 1.105.895 2 2 2h18.5c1.105 0 2-.895 2-2z" fill="#f3f3f1"/><path d="m6.75 21.25h6.5c1.105 0 2-.895 2-2v-2.5c0-1.105-.895-2-2-2h-6.5z" fill="#2fdf84"/><circle cx="23.5" cy="23.5" fill="#2fdf84" r="5.75"/><path d="m9 24.25v-12.5c0-1.105.895-2 2-2h-2.25c-1.105 0-2 .895-2 2v12.5c0 1.105.895 2 2 2h2.25c-1.105 0-2-.895-2-2z" fill="#d5dbe1"/><path d="m6.75 14.75h2.25v6.5h-2.25z" fill="#00b871"/><path d="m20 23.5c0-2.79 1.988-5.115 4.625-5.638-.364-.072-.74-.112-1.125-.112-3.176 0-5.75 2.574-5.75 5.75s2.574 5.75 5.75 5.75c.385 0 .761-.039 1.125-.112-2.637-.523-4.625-2.848-4.625-5.638z" fill="#00b871"/><path d="m14.25 27h-5.5c-1.517 0-2.75-1.233-2.75-2.75v-12.5c0-1.517 1.233-2.75 2.75-2.75h18.5c1.517 0 2.75 1.233 2.75 2.75v4.5h-1.5v-4.5c0-.689-.561-1.25-1.25-1.25h-18.5c-.689 0-1.25.561-1.25 1.25v12.5c0 .689.561 1.25 1.25 1.25h5.5z"/><path d="m13.25 22h-6.5c-.414 0-.75-.336-.75-.75v-6.5c0-.414.336-.75.75-.75h6.5c1.517 0 2.75 1.233 2.75 2.75v2.5c0 1.517-1.233 2.75-2.75 2.75zm-5.75-1.5h5.75c.689 0 1.25-.561 1.25-1.25v-2.5c0-.689-.561-1.25-1.25-1.25h-5.75z"/><circle cx="11" cy="18" r="1"/><path d="m22.75 25.071h1.5v2.429h-1.5z"/><path d="m23.708 26.571h-2.208v-1.5h2.208c.138 0 .292-.168.292-.41s-.154-.411-.292-.411h-.417c-.988 0-1.792-.857-1.792-1.911s.804-1.91 1.792-1.91h2.209v1.5h-2.208c-.138 0-.292.168-.292.41s.154.411.292.411h.417c.988 0 1.792.857 1.792 1.911s-.805 1.91-1.793 1.91z"/><path d="m22.75 19.5h1.5v2.429h-1.5z"/><path d="m23.5 30c-3.584 0-6.5-2.916-6.5-6.5s2.916-6.5 6.5-6.5 6.5 2.916 6.5 6.5-2.916 6.5-6.5 6.5zm0-11.5c-2.757 0-5 2.243-5 5s2.243 5 5 5 5-2.243 5-5-2.243-5-5-5z"/></svg>