<?xml version="1.0" encoding="utf-8"?>
<!-- Generator: Adobe Illustrator 24.0.2, SVG Export Plug-In . SVG Version: 6.00 Build 0)  -->
<svg version="1.1" id="Capa_1" xmlns="http://www.w3.org/2000/svg" xmlns:xlink="http://www.w3.org/1999/xlink" x="0px" y="0px"
	 viewBox="0 0 512 512" style="enable-background:new 0 0 512 512;" xml:space="preserve">
<style type="text/css">
	.st0{fill:#FFFFFF;}
</style>
<g>
	<path class="st0" d="M117.3,316.1H62.6c-16.5,0-30,13.5-30,30V482c0,16.5,13.5,30,30,30h54.7c16.5,0,30-13.5,30-30V346.1
		C147.3,329.6,133.8,316.1,117.3,316.1z"/>
	<path class="st0" d="M479.4,346.8c-0.5-19.6-4.2-30.7-11.7-36.2c-27.6-19.9-75.3,3.5-104.2,21.1c7.4,12.9,11.5,52.3-17.3,64.3
		c-18.5,7.7-19.9,8-89.2,19.1c-6.7,1.1-13-3.6-14.1-10.4c-1.1-6.8,3.5-13.3,10.2-14.3c67.8-10.9,67.8-10.9,83.7-17.6
		c10.9-4.6,7-23.9,5.4-28.4l-39.1,5.9c-11.6,1.7-23.6-0.1-34.6-5.4c-5.9-2.8-14.9-7.1-30.1-5.2c-34.2,4.4-30.6,6-42.5,12.5
		c0.1,0-4.8,2.6-11.9,2.6h-6.8V482c0,4.2-0.4,5.6-0.3,5.6c2.7-0.2,17.1-0.1,19.8,0.2c2.5,0,114.7,9.2,123.9,9.2
		c31.5,0,62.1-13.9,83.1-38.2l60.3-68.9C474.9,376.9,479.9,362.3,479.4,346.8z"/>
	<path class="st0" d="M288.6,286c78.9,0,143-64.1,143-143S367.4,0,288.6,0s-143,64.1-143,143S209.7,286,288.6,286z M245.7,185.9
		c4.5-6.9,13.8-8.9,20.8-4.3c8.2,5.4,11.1,5.8,22.1,5.7c9.9-0.1,15.6-7.4,16.7-14.2c0.8-4.8-0.1-11.3-9-14.4
		c-13.4-4.7-27.2-10.2-36.9-17.8c-21.8-17.1-14.8-56.6,14.2-66.4v-3.3c0-8.3,6.7-15,15-15s15,6.7,15,15v2.3
		c7.6,2.1,12.3,5.2,17.9,8.9c6.9,4,9.6,12.8,5.8,20c-3.8,7.3-12.9,10.2-20.2,6.3c-5-2.6-10.8-9.8-23.6-5.9
		c-7.1,2.1-8.2,12.3-5.6,14.4c6.3,4.9,17.9,9.4,28.3,13.1c20.7,7.3,32.2,26.5,28.6,47.7c-2.6,15.4-13.8,30.9-31.2,36.8v4.3
		c0,8.3-6.7,15-15,15s-15-6.7-15-15v-2.6c-7.8-1.2-14.6-3.9-23.6-9.8C243.1,202.1,241.2,192.9,245.7,185.9L245.7,185.9z"/>
</g>
</svg>
