<svg xmlns="http://www.w3.org/2000/svg" xmlns:xlink="http://www.w3.org/1999/xlink" viewBox="0 0 9404.38 2691.46"><defs><style>.cls-1{fill:url(#linear-gradient);}.cls-2{fill:url(#linear-gradient-2);}.cls-3{fill:url(#linear-gradient-3);}.cls-4{fill:#fff;}</style><linearGradient id="linear-gradient" x1="1101.48" y1="556.3" x2="1101.48" y2="6630.61" gradientUnits="userSpaceOnUse"><stop offset="0" stop-color="#ff17d8"/><stop offset="0.06" stop-color="#f61cdc"/><stop offset="0.34" stop-color="#d132eb"/><stop offset="0.59" stop-color="#b541f6"/><stop offset="0.82" stop-color="#a54bfd"/><stop offset="0.99" stop-color="#9f4eff"/></linearGradient><linearGradient id="linear-gradient-2" x1="824.72" y1="556.3" x2="824.72" y2="6630.61" xlink:href="#linear-gradient"/><linearGradient id="linear-gradient-3" x1="1378.23" y1="556.3" x2="1378.23" y2="6630.61" xlink:href="#linear-gradient"/></defs><title>Asset 7</title><g id="Layer_2" data-name="Layer 2"><g id="Layer_1-2" data-name="Layer 1"><path class="cls-1" d="M1101.46,2691.46c-288.69,0-396.75-585.21-396.75-704.77,0-5.29-4.13-9-8.25-10.73l-8.21-3.69-10.85,6.17c-84.36,84.32-303.9,206.12-457,206.12-82.72,0-132.93-32.83-160.52-60.46C-99.29,1964.91,98.43,1623.93,195,1517.66A1028.9,1028.9,0,0,1,71.64,1029.74C71.64,462,533.62,0,1101.46,0S2131.28,462,2131.28,1029.74A1028.86,1028.86,0,0,1,2008,1517.66c96.57,106.27,294.29,447.25,135.09,606.44-27.55,27.55-77.76,60.46-160.48,60.46h0c-153.19,0-372.69-121.8-456.53-205.64l-9.37-6.09-10.33,3.21c-3.92,1.68-8.09,5.28-8.09,9.37C1498.25,2106.25,1390.23,2691.46,1101.46,2691.46ZM686.25,1726.83A260.06,260.06,0,0,1,791,1748.77c98.5,42.6,160,135.18,159.76,237.28,0,128.52,88.53,385.42,150.75,450.36,62.22-64.94,150.79-321.76,150.79-449.72-.32-102.67,61.18-195.32,156.71-236.56,105.39-46.12,215.1-22,288,51.73,46.37,46.45,176.73,118.52,258,133.82-14.34-70.07-78-199.24-128.29-251.85l-3.13-3.13c-73-72.55-88.88-179.53-39.55-266.26a782.26,782.26,0,0,0,101.3-384.7c0-432.19-351.63-783.74-783.82-783.74S317.64,597.55,317.64,1029.74A782.21,782.21,0,0,0,419.1,1414.6c49.21,86.73,33.24,193.71-39.79,266.18l-2,2c-50.21,51.65-114.23,181.06-129.12,251.77C333.58,1918,460,1847.91,503,1805,553.68,1753.5,617.7,1726.83,686.25,1726.83Z"/><circle class="cls-2" cx="824.72" cy="1082.99" r="123"/><circle class="cls-3" cx="1378.23" cy="1082.99" r="123"/><path class="cls-4" d="M2991.18,742.48c294.5,0,486.47,146.16,554.09,399.21H3277c-41.45-115.62-137.43-189.79-285.77-189.79-200.69,0-333.76,148.34-333.76,410.12,0,264,133.07,412.29,333.76,412.29,148.34,0,240-65.44,285.77-189.79h268.32c-67.62,235.6-259.59,399.22-554.09,399.22-344.67,0-589-244.33-589-621.72C2402.18,986.8,2646.51,742.48,2991.18,742.48Z"/><path class="cls-4" d="M3833.17,965h-141.8V762.12h141.8V463.25H4084V762.12h292.32V965H4084v665.34c0,89.44,34.91,126.53,139.61,126.53h152.71V1964.1H4180c-213.78,0-346.85-89.44-346.85-333.77Z"/><path class="cls-4" d="M5126.73,1983.74c-342.49,0-602.08-244.33-602.08-621.72s270.5-619.54,613-619.54,613,242.13,613,619.54S5471.41,1983.74,5126.73,1983.74Zm0-216c185.43,0,368.68-133.07,368.68-405.75s-176.7-403.58-362.13-403.58c-187.6,0-355.58,130.89-355.58,403.58S4939.13,1767.77,5126.73,1767.77Z"/><path class="cls-4" d="M6664.59,742.48c318.5,0,565,244.32,565,615.18s-248.69,626.08-565,626.08c-198.5,0-340.3-89.44-418.84-194.15V1964.1H5997.07V349.81h248.68V941C6324.29,831.91,6474.81,742.48,6664.59,742.48Zm-54.53,216c-185.42,0-364.31,146.17-364.31,403.58,0,259.59,178.89,405.75,364.31,405.75,187.6,0,366.48-150.52,366.48-410.11S6797.66,958.44,6610.06,958.44Z"/><path class="cls-4" d="M7993.05,1983.74c-344.68,0-599.91-244.33-599.91-621.72s244.33-619.54,599.91-619.54c342.49,0,584.63,237.77,584.63,591.18,0,41.45-2.18,80.71-8.73,122.16H7650.56c17.45,198.51,159.25,318.49,342.49,318.49,152.7,0,237.77-74.16,283.59-168H8545C8477.32,1815.76,8287.53,1983.74,7993.05,1983.74Zm-340.32-728.62h665.36c-4.36-185.41-150.53-303.22-336-303.22C7814.17,951.9,7678.92,1065.34,7652.73,1255.12Z"/><path class="cls-4" d="M8861.2,965H8719.4V762.12h141.8V463.25h250.86V762.12h292.32V965H9112.06v665.34c0,89.44,34.92,126.53,139.62,126.53h152.7V1964.1H9208.05c-213.79,0-346.85-89.44-346.85-333.77Z"/></g></g></svg>