<?xml version="1.0" encoding="iso-8859-1"?>
<!-- Generator: Adobe Illustrator 19.0.0, SVG Export Plug-In . SVG Version: 6.00 Build 0)  -->
<svg version="1.1" id="Capa_1" xmlns="http://www.w3.org/2000/svg" xmlns:xlink="http://www.w3.org/1999/xlink" x="0px" y="0px"
	 viewBox="0 0 512 512" style="enable-background:new 0 0 512 512;" xml:space="preserve">
<path style="fill:#19E77C;" d="M395.637,232.727V46.546C395.637,20.84,374.798,0,349.091,0l0,0H162.91
	c-25.706,0-46.546,20.84-46.546,46.546l0,0v186.182c0,12.853-10.419,23.272-23.272,23.272H32.205
	c-17.785,0-32.204,14.417-32.204,32.204l0,0c0,9.129,3.875,17.83,10.66,23.937l204.768,184.291C226.565,506.455,241.017,512,256,512
	c14.983,0,29.435-5.546,40.571-15.568L501.339,312.14c6.785-6.107,10.66-14.807,10.66-23.937c0-17.785-14.417-32.204-32.204-32.204
	l0,0H418.91C406.056,256,395.637,245.581,395.637,232.727L395.637,232.727L395.637,232.727z"/>
<path style="fill:#79F1B3;" d="M302.546,23.272H162.91c-12.847,0.016-23.256,10.427-23.272,23.272v186.182
	c-0.025,25.696-20.849,46.52-46.546,46.546h-6.707c-12.853,0.013-23.261,10.444-23.248,23.297
	c0.013,12.835,10.414,23.235,23.248,23.248h6.707c51.388-0.058,93.033-41.702,93.09-93.09V69.818h116.364
	c12.853,0,23.272-10.419,23.272-23.272S315.399,23.272,302.546,23.272z"/>
<path style="fill:#00CD6C;" d="M484.901,256.401c-1.688-0.268-3.395-0.403-5.103-0.401H418.91
	c-12.853-0.001-23.272-10.419-23.272-23.272V69.818c0-12.853-10.419-23.272-23.272-23.272s-23.273,10.419-23.273,23.272v162.908
	c0.044,38.542,31.276,69.774,69.818,69.818h23.512L265.433,461.832c-0.428,0.386-0.879,0.745-1.351,1.076
	c-10.533,7.367-13.1,21.876-5.733,32.409c7.367,10.533,21.876,13.1,32.409,5.733l0,0c0.032-0.022,0.061-0.043,0.093-0.064
	l0.01-0.009c0.025-0.017,0.051-0.034,0.075-0.052l0.022-0.014c0.027-0.02,0.056-0.039,0.083-0.058l0.003-0.003
	c0.029-0.02,0.058-0.041,0.088-0.062l0.02-0.014c0.022-0.015,0.044-0.032,0.067-0.047l0.024-0.017
	c0.024-0.017,0.047-0.034,0.071-0.051l0.015-0.011c0.028-0.02,0.056-0.039,0.084-0.06l0.025-0.019
	c0.02-0.014,0.038-0.027,0.057-0.041l0.034-0.024c0.019-0.014,0.038-0.028,0.058-0.043l0.025-0.019
	c0.025-0.019,0.052-0.038,0.08-0.057c0.01-0.009,0.02-0.015,0.032-0.024c0.017-0.011,0.034-0.024,0.051-0.037l0.036-0.027
	c0.017-0.011,0.033-0.024,0.05-0.036l0.036-0.025c0.025-0.019,0.05-0.037,0.075-0.056l0.038-0.028l0.043-0.032
	c0.014-0.011,0.027-0.02,0.041-0.032l0.046-0.034c0.013-0.009,0.024-0.017,0.037-0.027c0.024-0.019,0.05-0.037,0.074-0.056
	c0.013-0.009,0.027-0.02,0.039-0.029c0.014-0.01,0.028-0.02,0.041-0.029c0.014-0.011,0.028-0.022,0.043-0.032l0.039-0.032
	c0.019-0.013,0.036-0.025,0.052-0.039c0.022-0.014,0.041-0.029,0.061-0.046c0.015-0.011,0.029-0.022,0.044-0.033l0.037-0.028
	c0.014-0.011,0.029-0.023,0.046-0.034l0.034-0.027c0.022-0.015,0.043-0.032,0.062-0.047c0.019-0.013,0.036-0.027,0.053-0.041
	c0.015-0.011,0.032-0.023,0.047-0.036c0.011-0.009,0.022-0.017,0.033-0.024l0.048-0.038l0.028-0.022
	c0.056-0.043,0.111-0.085,0.166-0.129c0.011-0.009,0.023-0.015,0.033-0.024l0.047-0.037c0.011-0.009,0.023-0.017,0.034-0.027
	l0.047-0.036c0.023-0.017,0.046-0.036,0.069-0.053l0.046-0.034l0.034-0.028c0.015-0.011,0.031-0.023,0.046-0.036l0.034-0.025
	l0.164-0.129l0.029-0.024c0.015-0.013,0.032-0.025,0.048-0.038l0.029-0.024c0.017-0.013,0.033-0.025,0.048-0.038l0.034-0.027
	c0.025-0.02,0.052-0.041,0.079-0.062c0.011-0.009,0.024-0.019,0.036-0.028l0.044-0.036c0.013-0.01,0.024-0.019,0.036-0.028
	l0.044-0.036c0.024-0.02,0.047-0.038,0.071-0.057c0.011-0.01,0.024-0.022,0.037-0.032l0.041-0.033l0.039-0.033l0.043-0.036
	l0.038-0.029c0.024-0.02,0.048-0.039,0.071-0.06l0.034-0.027c0.015-0.013,0.032-0.025,0.046-0.038
	c0.013-0.01,0.025-0.02,0.038-0.032c0.014-0.011,0.028-0.023,0.043-0.036l0.038-0.029c0.024-0.02,0.048-0.039,0.072-0.061
	l0.029-0.024c0.015-0.014,0.032-0.027,0.048-0.039c0.013-0.011,0.024-0.022,0.037-0.032l0.046-0.038
	c0.011-0.01,0.022-0.019,0.033-0.027c0.025-0.022,0.05-0.043,0.075-0.062c0.009-0.009,0.017-0.016,0.027-0.023
	c0.017-0.014,0.034-0.029,0.051-0.044c0.011-0.01,0.023-0.02,0.036-0.029l0.046-0.038l0.034-0.028
	c0.024-0.022,0.05-0.043,0.074-0.062c0.007-0.007,0.014-0.013,0.023-0.019c0.019-0.017,0.038-0.034,0.057-0.05
	c0.011-0.009,0.02-0.017,0.029-0.025l0.053-0.046c0.009-0.009,0.017-0.015,0.027-0.024c0.025-0.022,0.051-0.043,0.076-0.065
	l0.014-0.011c0.022-0.019,0.043-0.038,0.065-0.057l0.028-0.024l0.052-0.047c0.01-0.008,0.019-0.015,0.027-0.023
	c0.025-0.023,0.051-0.044,0.076-0.067l0.014-0.011c0.022-0.019,0.043-0.037,0.064-0.057l0.029-0.024
	c0.017-0.017,0.036-0.033,0.053-0.048l0.024-0.022c0.027-0.023,0.052-0.047,0.08-0.07l0.003-0.003
	c0.025-0.022,0.051-0.044,0.075-0.067c0.009-0.005,0.015-0.014,0.024-0.02c0.019-0.017,0.037-0.034,0.057-0.051
	c0.008-0.008,0.017-0.014,0.025-0.023c0.051-0.046,0.104-0.091,0.155-0.137l0.025-0.022c0.019-0.017,0.037-0.034,0.057-0.051
	l0.023-0.022l0.079-0.07l204.768-184.292c13.221-11.9,14.292-32.264,2.392-45.484C498.81,261.186,492.165,257.569,484.901,256.401
	L484.901,256.401z"/>
<g>
	<path style="fill:#F6EDFF;" d="M290.91,279.272h-69.818c-6.427,0-11.637-5.21-11.637-11.637c0-6.427,5.21-11.637,11.637-11.637
		h81.455c12.853-0.008,23.267-10.433,23.258-23.287c-0.008-12.842-10.416-23.251-23.258-23.258h-81.455
		c-32.133,0.011-58.173,26.069-58.162,58.202c0.011,32.117,26.044,58.15,58.162,58.162h69.818c6.427,0,11.637,5.21,11.637,11.637
		c0,6.427-5.21,11.637-11.637,11.637h-81.455c-12.853,0.013-23.261,10.444-23.248,23.297c0.013,12.835,10.414,23.235,23.248,23.248
		h81.455c32.133,0,58.181-26.049,58.181-58.181S323.043,279.272,290.91,279.272L290.91,279.272z"/>
	<path style="fill:#F6EDFF;" d="M256.001,372.363L256.001,372.363c12.853,0,23.272,10.419,23.272,23.272v23.273
		c0,12.853-10.419,23.272-23.272,23.272l0,0c-12.853,0-23.272-10.419-23.272-23.272v-23.272
		C232.728,382.783,243.148,372.363,256.001,372.363z"/>
	<path style="fill:#F6EDFF;" d="M256.001,162.908L256.001,162.908c12.853,0,23.272,10.419,23.272,23.272v46.546
		c0,12.853-10.419,23.272-23.272,23.272l0,0c-12.853,0-23.272-10.419-23.272-23.272v-46.546
		C232.728,173.329,243.148,162.908,256.001,162.908z"/>
</g>
<g>
</g>
<g>
</g>
<g>
</g>
<g>
</g>
<g>
</g>
<g>
</g>
<g>
</g>
<g>
</g>
<g>
</g>
<g>
</g>
<g>
</g>
<g>
</g>
<g>
</g>
<g>
</g>
<g>
</g>
</svg>
