<?xml version="1.0" encoding="utf-8"?>
<!-- Generator: Adobe Illustrator 24.0.2, SVG Export Plug-In . SVG Version: 6.00 Build 0)  -->
<svg version="1.1" id="Layer_1" xmlns="http://www.w3.org/2000/svg" xmlns:xlink="http://www.w3.org/1999/xlink" x="0px" y="0px"
	 viewBox="0 0 326 171.5" style="enable-background:new 0 0 326 171.5;" xml:space="preserve">
<style type="text/css">
	.st0{fill:#B25E1B;}
	.st1{opacity:0.3;}
	.st2{fill:#722500;}
</style>
<rect x="-1.5" y="-3.4" class="st0" width="330.3" height="174.9"/>
<g class="st1">
	<path class="st2" d="M175.8,117.6c-0.1-0.4-0.2-0.7-0.2-1.1C175.5,116.5,175.6,116.9,175.8,117.6z"/>
	<path class="st2" d="M179.3,99.6L173,82.5c0,0-5.1,3.3-5.8,10.8s-1.8,24.2,1.1,43.4c2.9,19.2,9.3,27.5,11.1,15.6
		c1.5-10.4-2.5-30-3.5-34.8c2,9.9-0.1,31.5-0.6,33.4c-0.5,2-5.3-5.9-5.5-29.9s2.4-34.5,2.4-34.5L179.3,99.6z"/>
	<path class="st2" d="M171.6,128.4c1,3.9,3-5.5,1.8-8.8s-0.7-21.7-0.7-21.7S170.4,123.3,171.6,128.4z"/>
	<path class="st2" d="M69.7,36.1c-0.1-0.4-0.2-0.7-0.2-1.1C69.5,35,69.6,35.4,69.7,36.1z"/>
	<path class="st2" d="M73.2,18.2L66.9,1.1c0,0-5.1,3.3-5.8,10.8s-1.8,24.2,1.1,43.4s9.3,27.5,11.1,15.6c1.5-10.4-2.5-30-3.5-34.8
		c2,9.9-0.1,31.5-0.6,33.4c-0.5,2-5.3-5.9-5.5-29.9C63.5,15.6,66,5.1,66,5.1L73.2,18.2z"/>
	<path class="st2" d="M65.6,46.9c1,3.9,3-5.5,1.8-8.8s-0.7-21.7-0.7-21.7S64.3,41.8,65.6,46.9z"/>
	<path class="st2" d="M111.7,130.4l0.5-4.9c0,0,2.6-25-0.5-47.2c-3.2-22.3-3.4-24.5-3.4-24.5c1.9,29,2.2,29.1,1.4,41.4
		C109.1,105,111.7,130.4,111.7,130.4z"/>
	<path class="st2" d="M179.6,44.9l0.4-2.3c0,0,1.4-7.4,0.5-20.2c-1-13.6-3-19.3-3-19.3c1.3,13.8,1.4,19.3,0.8,25.1
		C177.8,32.9,179.6,44.9,179.6,44.9z"/>
	<polygon class="st2" points="191.1,60.6 194.8,9.2 193.2,-0.6 191.1,-1.7 192,2.9 192,24.5 	"/>
	<path class="st2" d="M88.1,44.9l0.4-2.3c0,0,1.4-7.4,0.5-20.2C88,8.8,86,3.1,86,3.1c1.3,13.8,1.4,19.3,0.8,25.1
		C86.3,32.9,88.1,44.9,88.1,44.9z"/>
	<polygon class="st2" points="99.7,60.6 103.3,9.2 101.7,-0.6 99.7,-1.7 100.5,2.9 100.5,24.5 	"/>
	<polygon class="st2" points="23,61.5 26.9,10.2 24.2,-2.7 20.9,-0.6 22.3,3.9 22.3,25.5 	"/>
	<path class="st2" d="M180.4,167c0,0,1.5,0.4,2.9,0.8c0.1,0.5,0.1,0.8,0.1,0.8s0-0.3-0.1-0.8c1.4,0.4,2.9,0.8,3.1,0.8
		c0.5,0.1-3-14.2-3-14.2c0.1-1.1,0.3-2.1,0.5-3c1.4-6.3,3-24.7-0.3-34.5c-3.4-9.9,0.9-27.2,0.9-27.2s-5.5,19.2-3.7,25.4
		c1.8,6.2,1.9,16,1.5,27.5c-0.1,2.1-0.1,4.3,0,6.5l-0.6,9.3L180.4,167z"/>
	<path class="st2" d="M280.8,55.8c0.1,0.4,0.2,0.7,0.2,1.1C281.1,56.9,281,56.5,280.8,55.8z"/>
	<path class="st2" d="M277.3,73.8l6.3,17.1c0,0,5.1-3.3,5.8-10.8c0.7-7.5,1.8-24.2-1.1-43.4S279,9.2,277.2,21.1
		c-1.5,10.4,2.5,30,3.5,34.8c-2-9.9,0.1-31.5,0.6-33.4c0.5-2,5.3,5.9,5.5,29.9s-2.4,34.5-2.4,34.5L277.3,73.8z"/>
	<path class="st2" d="M284.9,45c-1-3.9-3,5.5-1.8,8.8s0.7,21.7,0.7,21.7S286.2,50.1,284.9,45z"/>
	<path class="st2" d="M276.2,6.4c0,0-1.5-0.4-2.9-0.8c-0.1-0.5-0.1-0.8-0.1-0.8s0,0.3,0.1,0.8c-1.4-0.4-2.9-0.8-3.1-0.8
		c-0.5-0.1,3,14.2,3,14.2c-0.1,1.1-0.3,2.1-0.5,3c-1.4,6.3-3,24.7,0.3,34.5c3.4,9.9-0.9,27.2-0.9,27.2s5.5-19.2,3.7-25.4
		s-1.9-16-1.5-27.5c0.1-2.1,0.1-4.3,0-6.5L275,15L276.2,6.4z"/>
	<path class="st2" d="M34.2,59c1.2,22.8,7.8,43.1,8,47.4s1.2-9.9,2.2-30.5c1-20.7,2.9-44.7,0.9-52.4s-2.7-9.7-2.7-9.7
		s1.9,18.1,1.9,23.5s-2.2,36-2.4,41.5c-0.1,5.4-0.7,12.1-0.7,12.1s-7-28.1-5.7-42s4-25.6,4.3-24.8c0.3,0.9,0.2,11.8,0,13.8
		s-2,18.3-1.1,22.8c0.9,4.6,2.2-6,2.3-11.9S42.7,28.6,42,24s-2-4.6-2-4.6l0.8-11.2C40.9,8.3,33,36.3,34.2,59z"/>
	<polygon class="st2" points="201.6,67 205.5,15.7 202.9,2.8 199.5,4.9 201,9.4 201,31 	"/>
	<path class="st2" d="M205.1,83.8c1.2,22.8,7.8,43.1,8,47.4c0.2,4.3,1.2-9.9,2.2-30.5c1-20.7,2.9-44.7,0.9-52.4s-2.7-9.7-2.7-9.7
		s1.9,18.1,1.9,23.5s-2.2,36-2.4,41.5c-0.1,5.4-0.7,12.1-0.7,12.1s-7-28.1-5.7-42s4-25.6,4.3-24.8c0.3,0.9,0.2,11.8,0,13.8
		s-2,18.3-1.1,22.8c0.9,4.6,2.2-6,2.3-11.9s1.5-20.2,0.8-24.8s-2-4.6-2-4.6l0.8-11.2C211.8,33.1,203.9,61,205.1,83.8z"/>
	<path class="st2" d="M133.1,51.7c1.4,18.7,9.4,35.3,9.6,38.9c0.2,3.5,1.4-8.1,2.7-25c1.2-16.9,3.5-36.7,1.1-43
		c-2.5-6.3-3.2-8-3.2-8s2.3,14.8,2.3,19.3c0,4.4-2.7,29.5-2.9,34c-0.1,4.5-0.8,9.9-0.8,9.9s-8.4-23.1-6.9-34.5
		c1.6-11.4,4.8-21,5.2-20.3s0.3,9.7,0,11.3s-2.4,15-1.4,18.7c1.1,3.8,2.6-4.9,2.8-9.7s1.9-16.5,1-20.3c-0.8-3.8-2.5-3.7-2.5-3.7
		l0.9-9.2C141.2,10.1,131.7,33,133.1,51.7z"/>
	<path class="st2" d="M76.8,132.3c1,10.5,4.6,36.8,4.6,36.8h4.2c0,0-9.3-41.3-7-51.3s8.4-32,8.1-39c-0.2-7-2.2-32.8-4.6-35.1
		c0,0,5.6,25.2,1,41.8C78.5,102,75.8,121.8,76.8,132.3z"/>
	<path class="st2" d="M62.2,93.6c0-11-5.5-33.2-5.5-33.2s4,34.1,2.5,44.7s-3.7,22.6-1.1,28.2c2.6,5.6,5.9,13.9,5.9,13.9
		s0.7-14.1,1.1-19.3c0.5-5.2-2.9,2.8-2.2,5.2s0,5.9,0,5.9s-5-3.3-3.8-14.5C60.4,113.5,62.2,104.6,62.2,93.6z"/>
	<path class="st2" d="M158.7,25.6c-2.6-7.8-5.9-19.6-5.9-19.6s-0.7,19.8-1.2,27.2c-0.5,7.3,2.9-3.9,2.2-7.3s0-8.3,0-8.3
		s0.9,0.8,1.8,3c1.3,2.9,2.6,8.3,2,17.3c-1.2,15.7-3,28.2-3,43.6s5.5,46.6,5.5,46.6s-4-47.9-2.5-62.8
		C159.2,50.3,161.3,33.4,158.7,25.6z"/>
	<path class="st2" d="M8,96.7c-2.6-5.4-5.9-13.5-5.9-13.5S1.5,96.9,1,102s2.9-2.7,2.2-5.1s0-5.7,0-5.7s0.9,0.6,1.8,2.1
		c1.3,2,2.6,5.7,2,11.9c-1.2,10.8-3,19.4-3,30c0,5.8,1.3,23.3,2.8,30.3c1.2,5.7,2.7,1.7,2.7,1.7S5.4,134.3,7,124
		C8.5,113.8,10.6,102.1,8,96.7z"/>
	<path class="st2" d="M141.2,93.7c-0.1-0.7-0.1-1.1-0.1-1.1S141.2,93,141.2,93.7z"/>
	<path class="st2" d="M140.8,134.6c-3,12.4-3.2,32.9-3.2,32.9l3.6-0.8c0,0-1.8-9.4-1.3-13.9s3.4-17.7,3.4-26.1
		c0-7.4-1.6-27.9-2-32.9C141.7,99.2,143.4,123.6,140.8,134.6z"/>
	<path class="st2" d="M199.7,99.4c0,0,0,27.5,0,36.1c0,8.7-2.5,31.5-2.5,31.5v1.1c1.9,1.1,5.8-1,5.8-1L199.7,99.4z"/>
	<path class="st2" d="M107,102.4c-0.9-6.1-6.4-26.6-6.4-26.6s6.7,25.2,4.4,42.4c-2.3,17.1-3,29-3,32.9s1.6,12.7,1.6,12.7
		s-1.5-20.9,1.3-32.2C107.7,120.4,107.9,108.6,107,102.4z"/>
	<path class="st2" d="M254.7,120.8l0.5-6.2c0,0,2.6-31.6-0.5-59.9c-3.2-28.2-3.4-31.1-3.4-31.1c1.9,36.8,2.2,36.9,1.4,52.4
		C252,88.7,254.7,120.8,254.7,120.8z"/>
	<path class="st2" d="M219.8,123.3c1,13.4,4.6,46.6,4.6,46.6h4.2c0,0-9.3-52.3-7-65s8.4-40.6,8.1-49.4c-0.2-8.9-2.2-41.6-4.6-44.5
		c0,0,5.6,31.9,1,52.9S218.8,109.9,219.8,123.3z"/>
	<path class="st2" d="M243.9,85.4c-0.9-7.8-6.4-33.7-6.4-33.7s6.7,32,4.4,53.7s-3,36.8-3,41.7c0,5,1.6,16.1,1.6,16.1
		s-1.5-26.5,1.3-40.8C244.7,108.2,244.9,93.2,243.9,85.4z"/>
	<path class="st2" d="M324.4,133l0.5-4.9c0,0,2.6-25-0.5-47.2c-3.2-22.3-3.4-24.5-3.4-24.5c1.9,29,2.2,29.1,1.4,41.4
		C321.8,107.6,324.4,133,324.4,133z"/>
	<path class="st2" d="M300.8,47.5l0.4-2.3c0,0,1.4-7.4,0.5-20.2c-1-13.6-3-19.3-3-19.3c1.3,13.8,1.4,19.3,0.8,25.1
		C299.1,35.5,300.8,47.5,300.8,47.5z"/>
	<polygon class="st2" points="312.4,63.1 316,11.8 314.4,2 312.4,0.9 313.3,5.5 313.3,27.1 	"/>
	<path class="st2" d="M289.5,134.9c1,10.5,4.6,36.8,4.6,36.8h4.2c0,0-9.3-41.3-7-51.3s8.4-32,8.1-39c-0.2-7-2.2-32.8-4.6-35.1
		c0,0,5.6,25.2,1,41.8C291.2,104.6,288.6,124.4,289.5,134.9z"/>
	<path class="st2" d="M319.7,105c-0.9-6.1-6.4-26.6-6.4-26.6s6.7,25.2,4.4,42.4c-2.3,17.1-3,29-3,32.9c0,3.9,1.6,12.7,1.6,12.7
		s-1.5-20.9,1.3-32.2C320.4,123,320.6,111.1,319.7,105z"/>
	<path class="st2" d="M23.4,120c2.7-2.6,2.2-27,2.2-27s-1.4,10.3-1.4,16.4c-0.1,6.1-3.3,13.1-6.8,4S12,86.3,12,86.3
		C13,115.8,20.7,122.6,23.4,120z"/>
	<path class="st2" d="M24.2,125.4c0,0-2.9,4.1-6.8,0c-3.8-4.1-5.8-16-5.8-16C14.1,140.2,24.2,125.4,24.2,125.4z"/>
	<path class="st2" d="M32.9,168.5c0,0-1-2.9-1.3-5.5c-0.4-2.6-5.8-19.8-5.8-19.8s2.6,13.4,2.9,17.1c0.3,3.7-1.7,7.6-1.7,7.6
		C25.5,168.5,32.9,168.5,32.9,168.5z"/>
	<path class="st2" d="M60.2,168.3c0,0-1-2.9-1.3-5.5C58.5,160.2,53,143,53,143s2.6,13.4,2.9,17.1c0.3,3.7-1.7,7.6-1.7,7.6
		C52.8,168.3,60.2,168.3,60.2,168.3z"/>
</g>
</svg>
