<svg xmlns="http://www.w3.org/2000/svg" viewBox="0 0 200.35 200"><title>Asset 8</title><g id="Layer_2" data-name="Layer 2"><g id="Wallet_Denied" data-name="Wallet Denied"><path d="M187.28,38.85H172.7a23.38,23.38,0,0,0,3.56-10.08,25.94,25.94,0,0,0-43.21-22L114.64,23.46a19.57,19.57,0,0,0-28.95,0L67.25,6.77a25.94,25.94,0,0,0-43.2,22,23.21,23.21,0,0,0,3.56,10.07H13.07A13.07,13.07,0,0,0,0,51.91v19.6a6.54,6.54,0,0,0,6.53,6.54H193.82a6.53,6.53,0,0,0,6.53-6.54V51.91A13.07,13.07,0,0,0,187.28,38.85ZM80.58,36.67v2.18H49.84a12.86,12.86,0,0,1-5.43-24.53,12.56,12.56,0,0,1,14.07,2.13l22.1,20ZM163.29,27c-.49,6.79-6.62,11.81-13.43,11.81H119.77V36.44l21.75-19.72a13.08,13.08,0,0,1,12.36-3.16A12.71,12.71,0,0,1,163.29,27Z" style="fill:#00d254"/><path d="M13.07,91.11v95.82A13.07,13.07,0,0,0,26.13,200h61V91.11Z" style="fill:#00d254"/><path d="M113.24,91.11V200h61a13.07,13.07,0,0,0,13.06-13.07V91.11Z" style="fill:#00d254"/></g></g></svg>