<?xml version="1.0" encoding="utf-8"?>
<!-- Generator: Adobe Illustrator 24.0.2, SVG Export Plug-In . SVG Version: 6.00 Build 0)  -->
<svg version="1.1" id="Capa_1" xmlns="http://www.w3.org/2000/svg" xmlns:xlink="http://www.w3.org/1999/xlink" x="0px" y="0px"
	 viewBox="0 0 512 512" style="enable-background:new 0 0 512 512;" xml:space="preserve">
<style type="text/css">
	.st0{fill:#FFFFFF;}
</style>
<g id="XMLID_779_">
	<g id="XMLID_484_">
		<path id="XMLID_581_" class="st0" d="M417.7,204.6H226.9c8.8-10.1,14.2-23.4,14.2-37.8c0-31.8-25.9-57.7-57.7-57.7
			s-57.7,25.9-57.7,57.7c0,14.5,5.4,27.7,14.2,37.8H94.3c-27.5,0-49.9,22.4-49.9,49.9v58.9c0,5.5,4.5,10,10,10s10-4.5,10-10v-58.9
			c0-16.5,13.4-29.9,29.9-29.9h279.4c16.5,0,29.9,13.4,29.9,29.9v53.9H299.9c-27.5,0-49.9,22.4-49.9,49.9s22.4,49.9,49.9,49.9h103.8
			v53.9c0,16.5-13.4,29.9-29.9,29.9H94.3c-16.5,0-29.9-13.4-29.9-29.9v-59c0-5.5-4.5-10-10-10s-10,4.5-10,10v59
			c0,27.5,22.4,49.9,49.9,49.9h323.3c27.5,0,49.9-22.4,49.9-49.9V254.5C467.6,227,445.2,204.6,417.7,204.6L417.7,204.6z
			 M183.4,129.1c20.8,0,37.8,16.9,37.8,37.8s-16.9,37.8-37.8,37.8c-20.8,0-37.8-16.9-37.8-37.8S162.6,129.1,183.4,129.1z
			 M413.6,224.6h4c16.5,0,29.9,13.4,29.9,29.9v53.9h-24v-53.9C423.7,243.3,419.9,232.9,413.6,224.6L413.6,224.6z M270,358.3
			c0-16.5,13.4-29.9,29.9-29.9h147.7v59.9H299.9C283.4,388.3,270,374.8,270,358.3z M417.7,492h-4c6.3-8.3,10-18.7,10-29.9v-53.9h24
			v53.9C447.6,478.6,434.2,492,417.7,492z"/>
		<path id="XMLID_1260_" class="st0" d="M297.4,348.3c-2.6,0-5.2,1.1-7.1,2.9s-2.9,4.4-2.9,7.1c0,2.6,1.1,5.2,2.9,7.1
			c1.9,1.9,4.4,2.9,7.1,2.9c2.6,0,5.2-1.1,7.1-2.9c1.9-1.9,2.9-4.4,2.9-7.1c0-2.6-1.1-5.2-2.9-7.1
			C302.6,349.4,300,348.3,297.4,348.3z"/>
		<path id="XMLID_1711_" class="st0" d="M328.6,137.4c31.8,0,57.7-25.9,57.7-57.7c0-31.8-25.9-57.7-57.7-57.7s-57.7,25.9-57.7,57.7
			S296.8,137.4,328.6,137.4z M328.6,41.9c20.8,0,37.8,16.9,37.8,37.8s-16.9,37.8-37.8,37.8s-37.8-16.9-37.8-37.8
			S307.8,41.9,328.6,41.9z"/>
		<path id="XMLID_1712_" class="st0" d="M231.1,98.4c5.5,0,10-4.5,10-10V10c0-5.5-4.5-10-10-10s-10,4.5-10,10v78.4
			C221.2,93.9,225.6,98.4,231.1,98.4z"/>
		<path id="XMLID_1757_" class="st0" d="M183.2,63.9c5.5,0,10-4.5,10-10V10c0-5.5-4.5-10-10-10s-10,4.5-10,10v43.9
			C173.3,59.4,177.7,63.9,183.2,63.9z"/>
		<path id="XMLID_1760_" class="st0" d="M54.4,368.3c2.6,0,5.2-1.1,7.1-2.9c1.9-1.9,2.9-4.4,2.9-7.1c0-2.6-1.1-5.2-2.9-7.1
			c-1.9-1.9-4.4-2.9-7.1-2.9c-2.6,0-5.2,1.1-7.1,2.9s-2.9,4.4-2.9,7.1c0,2.6,1.1,5.2,2.9,7.1S51.8,368.3,54.4,368.3z"/>
	</g>
</g>
</svg>
