<?xml version="1.0" encoding="utf-8"?>
<!-- Generator: Adobe Illustrator 24.0.2, SVG Export Plug-In . SVG Version: 6.00 Build 0)  -->
<svg version="1.1" id="Layer_2_1_" xmlns="http://www.w3.org/2000/svg" xmlns:xlink="http://www.w3.org/1999/xlink" x="0px" y="0px"
	 viewBox="0 0 512 512" style="enable-background:new 0 0 512 512;" xml:space="preserve">
<style type="text/css">
	.st0{fill:#FFFFFF;}
</style>
<path class="st0" d="M337.3,256c0,10.6,8.6,19.2,19.2,19.2c10.6,0,19.2-8.6,19.2-19.2c0-10.6-8.6-19.2-19.2-19.2
	C345.9,236.8,337.3,245.4,337.3,256z"/>
<path class="st0" d="M256,16C123.5,16,16,123.5,16,256s107.5,240,240,240s240-107.5,240-240C496,123.5,388.5,16,256,16z M400,288.3
	h-49.3c-17.8,0-32.3-14.5-32.3-32.3c0-17.8,14.5-32.3,32.3-32.3H400V288.3z M400,204.5h-49.3c-28.5,0-51.5,23.1-51.5,51.5
	c0,28.5,23.1,51.5,51.5,51.5H400v32.8c0.1,21.2-17.1,38.3-38.2,38.4c-0.1,0-0.1,0-0.2,0H150.4c-21.2,0.1-38.3-17.1-38.4-38.2
	c0-0.1,0-0.1,0-0.2V171.7c-0.1-21.2,17.1-38.3,38.2-38.4c0.1,0,0.1,0,0.2,0h211.2c21.2-0.1,38.3,17.1,38.4,38.2c0,0.1,0,0.1,0,0.2
	V204.5z"/>
</svg>
