<svg xmlns="http://www.w3.org/2000/svg" viewBox="0 0 221.06 200"><title>Asset 10</title><g id="Layer_2" data-name="Layer 2"><g id="Wallet_Denied" data-name="Wallet Denied"><path d="M73.68,63.16c42.18,0,73.69-16.68,73.69-31.58S115.85,0,73.68,0,0,16.67,0,31.58,31.51,63.16,73.68,63.16Z" style="fill:#fafafa"/><path d="M73.68,189.47a154.82,154.82,0,0,0,17.72-1,84.19,84.19,0,0,1-11.62-20.15c-2,.07-4,.11-6.1.11-24.09,0-46.91-4.77-64.25-13.44A83.48,83.48,0,0,1,0,149.5v8.39C0,172.8,31.51,189.47,73.68,189.47Z" style="fill:#fafafa"/><path d="M73.68,147.37h.65a84.25,84.25,0,0,1,0-21.05h-.65c-24.09,0-46.91-4.78-64.25-13.45A82,82,0,0,1,0,107.39v8.4C0,130.69,31.51,147.37,73.68,147.37Z" style="fill:#fafafa"/><path d="M73.68,105.26q3.13,0,6.19-.12a84.26,84.26,0,0,1,13.18-22,178.37,178.37,0,0,1-19.37,1.06c-24.09,0-46.91-4.77-64.25-13.44A82,82,0,0,1,0,65.28v8.4C0,88.59,31.51,105.26,73.68,105.26Z" style="fill:#fafafa"/><path d="M105.27,101.94a62.92,62.92,0,0,0-10.54,34.89,63.7,63.7,0,0,0,.64,9A62.55,62.55,0,0,0,102,166.13a63.19,63.19,0,1,0,3.32-64.19Z" style="fill:#fafafa"/></g></g></svg>