<?xml version="1.0" encoding="utf-8"?>
<!-- Generator: Adobe Illustrator 24.0.2, SVG Export Plug-In . SVG Version: 6.00 Build 0)  -->
<svg version="1.1" id="Layer_1" xmlns="http://www.w3.org/2000/svg" xmlns:xlink="http://www.w3.org/1999/xlink" x="0px" y="0px"
	 viewBox="0 0 576 512" style="enable-background:new 0 0 576 512;" xml:space="preserve">
<style type="text/css">
	.st0{opacity:0.4;fill:#26C165;enable-background:new    ;}
	.st1{fill:#26C165;}
</style>
<path class="st0" d="M572.5,241.4C518.3,135.6,410.9,64,288,64S57.7,135.6,3.5,241.4c-4.6,9.2-4.6,20,0,29.2
	C57.7,376.4,165.1,448,288,448s230.3-71.6,284.5-177.4C577.2,261.4,577.2,250.6,572.5,241.4z M288.1,400H288
	c-79.5,0-143.9-64.5-143.9-144s64.5-143.9,144-143.9S432,176.6,432,256.1C432,335.6,367.6,400,288.1,400z"/>
<path class="st1" d="M380.7,280.9c-13.7,51.1-66.2,81.4-117.3,67.7c-51.1-13.7-81.4-66.2-67.7-117.3c0-0.2,0.1-0.3,0.1-0.5
	c21.3,15.7,51.2,11.1,66.9-10.2c12.4-16.9,12.4-39.9,0-56.7c50.6-14.4,103.4,14.9,117.8,65.5C385.3,246.1,385.4,264,380.7,280.9
	L380.7,280.9z"/>
</svg>
