<?xml version="1.0" encoding="utf-8"?>
<!-- Generator: Adobe Illustrator 24.0.2, SVG Export Plug-In . SVG Version: 6.00 Build 0)  -->
<svg version="1.1" id="Layer_1" xmlns="http://www.w3.org/2000/svg" xmlns:xlink="http://www.w3.org/1999/xlink" x="0px" y="0px"
	 viewBox="0 0 512 512" style="enable-background:new 0 0 512 512;" xml:space="preserve">
<style type="text/css">
	.st0{opacity:0.4;fill:#26C165;enable-background:new    ;}
	.st1{fill:#26C165;}
</style>
<path class="st0" d="M224,320v160H64c-17.7,0-32-14.3-32-32V320H224z M224,160H32c-17.7,0-32,14.3-32,32v80c0,8.8,7.2,16,16,16h208
	V160z M480,160H288v128h208c8.8,0,16-7.2,16-16v-80C512,174.3,497.7,160,480,160z M288,480h160c17.7,0,32-14.3,32-32V320H288V480z"
	/>
<path class="st1" d="M224,480h64V320h-64V480z M359.5,32c-41.8,0-68.9,21.3-103.5,68.3C221.3,53.3,194.3,32,152.5,32
	C103.7,32,64,71.5,64,120c0.1,14,3.6,27.7,10.2,40h78.2c-22.1,0-40-17.9-40-40s17.9-40,40-40c20,0,34.8,3.3,86.6,80H224v128h64V160
	h-15c51.7-76.5,66-80,86.5-80c22.1,0,40,17.9,40,40s-17.9,40-40,40h78.3c6.5-12.3,10-26,10.1-40C448,71.5,408.3,32,359.5,32z"/>
</svg>
