<?xml version="1.0" encoding="utf-8"?>
<!-- Generator: Adobe Illustrator 24.0.2, SVG Export Plug-In . SVG Version: 6.00 Build 0)  -->
<svg version="1.1" id="Layer_1" xmlns="http://www.w3.org/2000/svg" xmlns:xlink="http://www.w3.org/1999/xlink" x="0px" y="0px"
	 viewBox="0 0 512 512" style="enable-background:new 0 0 512 512;" xml:space="preserve">
<style type="text/css">
	.st0{opacity:0.4;fill:#26C165;enable-background:new    ;}
	.st1{fill:#26C165;}
</style>
<path class="st0" d="M44.5,252.6l37.1-37.1c9.8-9.8,26.8-3.3,27.3,10.6c0.6,18,3.9,35.7,9.7,52.7c2,5.8,0.6,12.3-3.8,16.6
	l-13.1,13.1c-28,28-28.9,73.7-1.2,102c27.9,28.4,73.5,28.8,101.9,0.9c0.1-0.1,0.3-0.3,0.4-0.4l67.2-67.2
	c28.1-28.1,28.1-73.7,0-101.8c-3.2-3.2-6.6-6-10.3-8.6c-4.2-2.9-6.8-7.5-6.9-12.6c-0.4-11.1,3.8-22,11.7-29.8l21.1-21
	c5.5-5.5,14.2-6.2,20.6-1.7c68.9,48.1,85.7,142.9,37.6,211.7c-5,7.1-10.6,13.8-16.7,20l-0.4,0.4l-67.2,67.2
	c-59.3,59.3-155.7,59.3-215,0S-14.8,311.9,44.5,252.6L44.5,252.6z"/>
<path class="st1" d="M410.3,203.5c28-28,28.9-73.7,1.1-102c-27.9-28.4-73.5-28.8-101.9-0.9c-0.1,0.1-0.3,0.3-0.4,0.4L242,168.2
	c-28.1,28.1-28.1,73.7,0,101.8c3.2,3.2,6.6,6,10.3,8.6c4.2,2.9,6.8,7.5,6.9,12.6c0.4,11.1-3.8,22-11.7,29.8l-21.1,21
	c-5.5,5.5-14.2,6.2-20.6,1.7c-68.9-48.1-85.7-142.8-37.7-211.7c5-7.2,10.6-13.9,16.8-20.1l0.4-0.4l67.2-67.2
	c59.3-59.3,155.7-59.3,215,0s59.3,155.7,0,215l-37.1,37.1c-9.8,9.8-26.8,3.3-27.3-10.6c-0.6-18-3.9-35.7-9.7-52.7
	c-2-5.8-0.6-12.3,3.8-16.6L410.3,203.5z"/>
</svg>
