<?xml version="1.0" encoding="utf-8"?>
<!-- Generator: Adobe Illustrator 24.0.2, SVG Export Plug-In . SVG Version: 6.00 Build 0)  -->
<svg version="1.1" id="Layer_1" xmlns="http://www.w3.org/2000/svg" xmlns:xlink="http://www.w3.org/1999/xlink" x="0px" y="0px"
	 viewBox="0 0 640 512" style="enable-background:new 0 0 640 512;" xml:space="preserve">
<style type="text/css">
	.st0{opacity:0.4;fill:#26C165;enable-background:new    ;}
	.st1{fill:#26C165;}
</style>
<path class="st0" d="M101.2,112c-11.1,23.3-29.9,42.1-53.2,53.2v181.6c23.3,11.1,42.1,29.9,53.2,53.2h437.6
	c11.1-23.3,29.9-42.1,53.2-53.2V165.2c-23.3-11.1-42.1-29.9-53.2-53.2H101.2z M320,368c-53,0-96-50.2-96-112s43-112,96-112
	s96,50.1,96,112S373,368,320,368z"/>
<path class="st1" d="M616,64H24C10.7,64,0,74.7,0,88v336c0,13.3,10.7,24,24,24h592c13.3,0,24-10.7,24-24V88
	C640,74.7,629.3,64,616,64z M592,346.8c-23.3,11.1-42.1,29.9-53.2,53.2H101.2c-11.1-23.3-29.9-42.1-53.2-53.2V165.2
	c23.3-11.1,42.1-29.9,53.2-53.2h437.6c11.1,23.3,29.9,42.1,53.2,53.2V346.8z M352,288h-16v-88c0-4.4-3.6-8-8-8h-13.6
	c-4.7,0-9.4,1.4-13.3,4l-15.3,10.2c-3.7,2.4-4.7,7.4-2.2,11.1l8.9,13.3c2.4,3.7,7.4,4.7,11.1,2.2l0.5-0.3V288h-16c-4.4,0-8,3.6-8,8
	v16c0,4.4,3.6,8,8,8h64c4.4,0,8-3.6,8-8v-16C360,291.6,356.4,288,352,288z"/>
</svg>
