<?xml version="1.0" encoding="utf-8"?>
<!-- Generator: Adobe Illustrator 24.0.2, SVG Export Plug-In . SVG Version: 6.00 Build 0)  -->
<svg version="1.1" id="Layer_1" xmlns="http://www.w3.org/2000/svg" xmlns:xlink="http://www.w3.org/1999/xlink" x="0px" y="0px"
	 viewBox="0 0 448 512" style="enable-background:new 0 0 448 512;" xml:space="preserve">
<style type="text/css">
	.st0{opacity:0.4;fill:#26C165;enable-background:new    ;}
	.st1{fill:#26C165;}
</style>
<path class="st0" d="M400,32H48C21.5,32,0,53.5,0,80v352c0,26.5,21.5,48,48,48h352c26.5,0,48-21.5,48-48V80
	C448,53.5,426.5,32,400,32z M224,430c-25.4,0-46-20.6-46-46s20.6-46,46-46s46,20.6,46,46l0,0C270,409.4,249.4,430,224,430z
	 M264,298.7v1.3c0,6.6-5.4,12-12,12h-56c-6.6,0-12-5.4-12-12v-4c0-41.1,31.1-57.5,54.6-70.7c20.2-11.3,32.5-19,32.5-34
	c0-19.8-25.3-33-45.7-33c-27.2,0-39.4,13.1-57.3,35.8c-4,5.1-11.5,6.1-16.7,2.1L116.8,170c-5.1-3.8-6.3-11-2.7-16.3
	C141.4,113,176.2,90,230.7,90c56.3,0,116.5,44,116.5,102C347.2,269,264,270.2,264,298.7z"/>
<path class="st1" d="M224,338c-25.4,0-46,20.6-46,46s20.6,46,46,46s46-20.6,46-46l0,0C270,358.6,249.4,338,224,338z M230.7,90
	c-54.5,0-89.3,23-116.6,63.8c-3.5,5.3-2.4,12.4,2.7,16.2l34.7,26.3c5.2,3.9,12.6,3,16.7-2.1c17.9-22.7,30.1-35.8,57.3-35.8
	c20.4,0,45.7,13.1,45.7,33c0,15-12.4,22.7-32.5,34C215.1,238.5,184,254.9,184,296v4c0,6.6,5.4,12,12,12h56c6.6,0,12-5.4,12-12v-1.3
	c0-28.5,83.2-29.7,83.2-106.7C347.2,134,287,90,230.7,90L230.7,90z"/>
</svg>
