<?xml version="1.0" encoding="utf-8"?>
<!-- Generator: Adobe Illustrator 24.0.2, SVG Export Plug-In . SVG Version: 6.00 Build 0)  -->
<svg version="1.1" id="Layer_1" xmlns="http://www.w3.org/2000/svg" xmlns:xlink="http://www.w3.org/1999/xlink" x="0px" y="0px"
	 viewBox="0 0 384 512" style="enable-background:new 0 0 384 512;" xml:space="preserve">
<style type="text/css">
	.st0{opacity:0.4;fill:#26C165;enable-background:new    ;}
	.st1{fill:#26C165;}
</style>
<path class="st0" d="M358.4,3.2L320,48L265.6,3.2c-5.7-4.3-13.5-4.3-19.2,0L192,48L137.6,3.2c-5.7-4.3-13.5-4.3-19.2,0L64,48
	L25.6,3.2C18.5-2.1,8.5-0.6,3.2,6.4C1.1,9.2,0,12.5,0,16v480c0,8.8,7.2,16,16,16c3.5,0,6.8-1.1,9.6-3.2L64,464l54.4,44.8
	c5.7,4.3,13.5,4.3,19.2,0L192,464l54.4,44.8c5.7,4.3,13.5,4.3,19.2,0L320,464l38.4,44.8c7.1,5.3,17.1,3.9,22.4-3.2
	c2.1-2.8,3.2-6.1,3.2-9.6V16c0-8.8-7.2-16-16-16C364.5,0,361.2,1.2,358.4,3.2z M320,360c0,4.4-3.6,8-8,8H72c-4.4,0-8-3.6-8-8v-16
	c0-4.4,3.6-8,8-8h240c4.4,0,8,3.6,8,8V360z M320,264c0,4.4-3.6,8-8,8H72c-4.4,0-8-3.6-8-8v-16c0-4.4,3.6-8,8-8h240c4.4,0,8,3.6,8,8
	V264z M320,168c0,4.4-3.6,8-8,8H72c-4.4,0-8-3.6-8-8v-16c0-4.4,3.6-8,8-8h240c4.4,0,8,3.6,8,8V168z"/>
<path class="st1" d="M312,144H72c-4.4,0-8,3.6-8,8v16c0,4.4,3.6,8,8,8h240c4.4,0,8-3.6,8-8v-16C320,147.6,316.4,144,312,144z
	 M312,240H72c-4.4,0-8,3.6-8,8v16c0,4.4,3.6,8,8,8h240c4.4,0,8-3.6,8-8v-16C320,243.6,316.4,240,312,240z M312,336H72
	c-4.4,0-8,3.6-8,8v16c0,4.4,3.6,8,8,8h240c4.4,0,8-3.6,8-8v-16C320,339.6,316.4,336,312,336z"/>
</svg>
