<?xml version="1.0" encoding="utf-8"?>
<!-- Generator: Adobe Illustrator 24.0.2, SVG Export Plug-In . SVG Version: 6.00 Build 0)  -->
<svg version="1.1" id="Layer_1" xmlns="http://www.w3.org/2000/svg" xmlns:xlink="http://www.w3.org/1999/xlink" x="0px" y="0px"
	 viewBox="0 0 512 512" style="enable-background:new 0 0 512 512;" xml:space="preserve">
<style type="text/css">
	.st0{opacity:0.4;fill:#26C165;enable-background:new    ;}
	.st1{fill:#26C165;}
</style>
<path class="st0" d="M0,500V299.7c0-6.6,5.4-12,12-12h200.3c6.6,0,12,5.4,12,12v47.4c0,6.6-5.4,12-12,12c-0.2,0-0.4,0-0.6,0
	l-101.9-4.9c54.3,80.7,163.7,102.1,244.4,47.8c36.5-24.6,62.6-62,72.9-104.8c1.3-5.4,6.1-9.3,11.7-9.3h49.1c6.6,0,12,5.4,12,12
	c0,0.7-0.1,1.5-0.2,2.2C478.1,417.1,377.2,504,256,504c-72.7,0.1-141.7-31.8-188.8-87.2l4.1,82.6c0.3,6.6-4.8,12.3-11.4,12.6
	c-0.2,0-0.4,0-0.6,0H12C5.4,512,0,506.6,0,500z"/>
<path class="st1" d="M12.3,209.8C33.9,94.9,134.8,8,256,8c72.7-0.1,141.8,31.9,188.9,87.3l-4-82.8C440.6,6,445.7,0.3,452.3,0
	c0.2,0,0.4,0,0.6,0h47.4c6.6,0,12,5.4,12,12v200.3c0,6.6-5.4,12-12,12H300c-6.6,0-12-5.4-12-12v-47.4c0-6.6,5.4-12,12-12
	c0.2,0,0.4,0,0.6,0l101.5,4.9C347.8,77.1,238.4,55.7,157.7,110c-36.5,24.6-62.5,62-72.9,104.8c-1.3,5.4-6.1,9.3-11.7,9.3H24.1
	c-6.6,0-12-5.4-12-12C12.1,211.3,12.2,210.5,12.3,209.8z"/>
</svg>
