<?xml version="1.0" encoding="utf-8"?>
<!-- Generator: Adobe Illustrator 24.0.2, SVG Export Plug-In . SVG Version: 6.00 Build 0)  -->
<svg version="1.1" id="Layer_1" xmlns="http://www.w3.org/2000/svg" xmlns:xlink="http://www.w3.org/1999/xlink" x="0px" y="0px"
	 viewBox="0 0 512 512" style="enable-background:new 0 0 512 512;" xml:space="preserve">
<style type="text/css">
	.st0{opacity:0.4;fill:#26C165;enable-background:new    ;}
	.st1{fill:#26C165;}
</style>
<path class="st0" d="M123.3,388.7c4.5-4.5,11.6-4.7,16.4-0.5c73,64.2,184.2,57.1,248.4-15.9s57.1-184.2-15.9-248.4
	S188,66.8,123.8,139.8c-5,5.6-9.5,11.6-13.7,17.8l-46.5,2.2l3.5-64.4C114.2,39.9,183.3,7.9,256,8c136.7,0,248.1,111.5,248,248.2
	C503.9,393.1,392.9,504,256,504c-61.4,0.1-120.7-22.7-166.2-63.9l-0.5-0.5c-4.7-4.7-4.7-12.3,0-17c0,0,0,0,0,0L123.3,388.7z"/>
<path class="st1" d="M11.6,0h48C66.2,0.4,71.3,6,71,12.6l-7.4,147.2l147.5-7.1h0.6c6.6,0,12,5.4,12,12V212c0,6.6-5.4,12-12,12h-200
	c-6.6,0-12-5.4-12-12V12C-0.3,5.4,5,0,11.6,0z"/>
</svg>
