<?xml version="1.0" encoding="utf-8"?>
<!-- Generator: Adobe Illustrator 24.0.2, SVG Export Plug-In . SVG Version: 6.00 Build 0)  -->
<svg version="1.1" id="Layer_1" xmlns="http://www.w3.org/2000/svg" xmlns:xlink="http://www.w3.org/1999/xlink" x="0px" y="0px"
	 viewBox="0 0 496 512" style="enable-background:new 0 0 496 512;" xml:space="preserve">
<style type="text/css">
	.st0{opacity:0.4;fill:#26C165;enable-background:new    ;}
	.st1{fill:#26C165;}
</style>
<path class="st0" d="M248,8C111,8,0,119,0,256s111,248,248,248s248-111,248-248S385,8,248,8z M272,384v16c0,8.8-7.2,16-16,16h-16
	c-8.8,0-16-7.2-16-16v-16.2c-16.6-0.6-32.6-5.8-46.4-15.1c-8.7-5.9-10-18.1-2.3-25.2l12-11.3c5.4-5.1,13.3-5.4,19.7-1.6
	c6,3.6,12.9,5.4,19.9,5.4h45c11.3,0,20.5-10.5,20.5-23.4c0-10.6-6.3-19.9-15.2-22.7L205,268c-29-8.8-49.2-37-49.2-68.6
	c0-39.3,30.6-71.3,68.2-71.4v-16c0-8.8,7.2-16,16-16h16c8.8,0,16,7.2,16,16v16.2c16.6,0.6,32.6,5.8,46.4,15.1
	c8.7,5.9,10,18.1,2.3,25.2l-12,11.3c-5.4,5.1-13.3,5.4-19.7,1.6c-6-3.6-12.9-5.4-19.9-5.4h-45c-11.3,0-20.5,10.5-20.5,23.4
	c0,10.6,6.3,19.9,15.2,22.7l72,21.9c29,8.8,49.2,37,49.2,68.6C340.2,351.9,309.6,383.8,272,384z"/>
<path class="st1" d="M224,128v-16c0-8.8,7.2-16,16-16h16c8.8,0,16,7.2,16,16v16.2c16.6,0.6,32.6,5.8,46.4,15.1
	c8.7,5.9,10,18.1,2.3,25.2l-12,11.3c-5.4,5.1-13.3,5.4-19.7,1.6c-6-3.6-12.9-5.4-19.9-5.4h-45c-11.3,0-20.5,10.5-20.5,23.4
	c0,10.6,6.3,19.9,15.2,22.7l72,21.9c29,8.8,49.2,37,49.2,68.6c0.2,39.3-30.4,71.2-68,71.4v16c0,8.8-7.2,16-16,16h-16
	c-8.8,0-16-7.2-16-16v-16.2c-16.6-0.6-32.6-5.8-46.4-15.1c-8.7-5.9-10-18.1-2.3-25.2l12-11.3c5.4-5.1,13.3-5.4,19.7-1.6
	c6,3.6,12.9,5.4,19.9,5.4h45c11.3,0,20.5-10.5,20.5-23.4c0-10.6-6.3-19.9-15.2-22.7L205,268c-29-8.8-49.2-37-49.2-68.6
	C155.8,160.1,186.4,128.1,224,128z"/>
</svg>
