<?xml version="1.0" encoding="utf-8"?>
<!-- Generator: Adobe Illustrator 24.0.2, SVG Export Plug-In . SVG Version: 6.00 Build 0)  -->
<svg version="1.1" id="Layer_1" xmlns="http://www.w3.org/2000/svg" xmlns:xlink="http://www.w3.org/1999/xlink" x="0px" y="0px"
	 viewBox="0 0 448 512" style="enable-background:new 0 0 448 512;" xml:space="preserve">
<style type="text/css">
	.st0{opacity:0.4;fill:#26C165;enable-background:new    ;}
	.st1{fill:#26C165;}
</style>
<path class="st0" d="M352,96H96V0l64,32l64-32l64,32l64-32V96z"/>
<path class="st1" d="M313.6,304h-16.7c-46.3,21.3-99.5,21.3-145.8,0h-16.7C60.2,304,0,364.2,0,438.4c0,0,0,0,0,0V464
	c0,26.5,21.5,48,48,48l0,0h352c26.5,0,48-21.5,48-48l0,0v-25.6C448,364.2,387.8,304,313.6,304L313.6,304z M224,272
	c70.7,0,128-57.3,128-128v-16H96v16C96,214.7,153.3,272,224,272z"/>
</svg>
