<?xml version="1.0" encoding="utf-8"?>
<!-- Generator: Adobe Illustrator 24.0.2, SVG Export Plug-In . SVG Version: 6.00 Build 0)  -->
<svg version="1.1" id="Layer_1" xmlns="http://www.w3.org/2000/svg" xmlns:xlink="http://www.w3.org/1999/xlink" x="0px" y="0px"
	 viewBox="0 0 496 512" style="enable-background:new 0 0 496 512;" xml:space="preserve">
<style type="text/css">
	.st0{opacity:0.4;fill:#26C165;enable-background:new    ;}
	.st1{fill:#26C165;}
</style>
<path class="st0" d="M248,8C111,8,0,119,0,256s111,248,248,248s248-111,248-248S385,8,248,8z M248,104c48.6,0,88,39.4,88,88
	s-39.4,88-88,88s-88-39.4-88-88S199.4,104,248,104z M248,448c-56.5,0-110.1-25-146.5-68.2c18.8-35.4,55.6-59.8,98.5-59.8
	c2.4,0,4.8,0.4,7.1,1.1c26.5,9.2,55.3,9.2,81.8,0c2.3-0.7,4.7-1.1,7.1-1.1c42.9,0,79.7,24.4,98.5,59.8C358.1,423,304.5,448,248,448z
	"/>
<path class="st1" d="M248,280c48.6,0,88-39.4,88-88s-39.4-88-88-88s-88,39.4-88,88S199.4,280,248,280z M296,320
	c-2.4,0-4.8,0.4-7.1,1.1c-26.5,9.2-55.3,9.2-81.8,0c-2.3-0.7-4.7-1.1-7.1-1.1c-42.9,0-79.7,24.4-98.5,59.8
	c68.1,80.9,188.8,91.3,269.8,23.2c8.4-7.1,16.2-14.8,23.2-23.2C375.7,344.4,338.9,320,296,320z"/>
</svg>
