<?xml version="1.0" encoding="utf-8"?>
<!-- Generator: Adobe Illustrator 24.0.2, SVG Export Plug-In . SVG Version: 6.00 Build 0)  -->
<svg version="1.1" id="Layer_1" xmlns="http://www.w3.org/2000/svg" xmlns:xlink="http://www.w3.org/1999/xlink" x="0px" y="0px"
	 viewBox="0 0 512 512" style="enable-background:new 0 0 512 512;" xml:space="preserve">
<style type="text/css">
	.st0{opacity:0.4;fill:#26C165;enable-background:new    ;}
	.st1{fill:#26C165;}
</style>
<path class="st0" d="M416,272c-17.7,0-32,14.3-32,32s14.3,32,32,32s32-14.3,32-32S433.7,272,416,272z M432,32H64
	C28.7,32,0,60.7,0,96c0,17.7,14.3,32,32,32h48c-8.8,0-16-7.2-16-16s7.2-16,16-16h384c8.8,0,16-7.2,16-16C480,53.5,458.5,32,432,32z"
	/>
<path class="st1" d="M461.2,128H32c-17.7,0-32-14.3-32-32v320c0,35.3,28.7,64,64,64h397.2c28,0,50.8-21.5,50.8-48V176
	C512,149.5,489.2,128,461.2,128z M416,336c-17.7,0-32-14.3-32-32s14.3-32,32-32s32,14.3,32,32S433.7,336,416,336z"/>
</svg>
